<?xml version="1.0" encoding="UTF-8" standalone="no"?>
<svg width="23px" height="25px" viewBox="0 0 23 25" version="1.1" xmlns="http://www.w3.org/2000/svg" xmlns:xlink="http://www.w3.org/1999/xlink">
    <!-- Generator: Sketch 40.2 (33826) - http://www.bohemiancoding.com/sketch -->
    <title>btn_youtube_black</title>
    <desc>Created with Sketch.</desc>
    <defs></defs>
    <g id="紅磚屋_UI-KIT" stroke="none" stroke-width="1" fill="none" fill-rule="evenodd">
        <g id="UI-KIT" transform="translate(-275.000000, -693.000000)" fill="#4A4A4A">
            <path d="M293.952788,711.300556 L292.479473,711.300556 L292.510926,710.479473 C292.510926,710.297378 292.575487,710.148391 292.71123,710.032512 C292.846974,709.916634 293.002582,709.852073 293.196265,709.852073 L293.267448,709.852073 C293.467753,709.852073 293.636604,709.910012 293.77897,710.019269 C293.914713,710.136803 293.985896,710.284135 293.985896,710.479473 L293.952788,711.300556 Z M295.143027,713.265528 L293.985896,713.265528 L293.985896,714.015428 C293.985896,714.197524 293.921335,714.339889 293.797179,714.435903 C293.668057,714.540193 293.514104,714.584889 293.332009,714.584889 L293.09363,714.584889 C292.918157,714.584889 292.76917,714.540193 292.653291,714.435903 C292.537412,714.339889 292.472851,714.197524 292.472851,714.015428 L292.472851,712.42458 L295.143027,712.42458 L295.143027,711.500861 C295.143027,711.151569 295.136406,710.822143 295.129784,710.504304 C295.116541,710.181499 295.09171,709.934843 295.045358,709.754403 C295.000662,709.451463 294.864919,709.211429 294.631506,709.024368 C294.40637,708.842273 294.134883,708.713151 293.830287,708.64859 C293.520726,708.577407 293.209509,708.564164 292.886704,708.617137 C292.568865,708.661833 292.290756,708.764468 292.052377,708.93332 C291.754403,709.133625 291.540856,709.405112 291.39849,709.754403 C291.269368,710.103695 291.198186,710.582108 291.198186,711.202887 L291.198186,713.265528 C291.198186,714.139584 291.431598,714.760363 291.890147,715.127864 C292.317243,715.470534 292.762548,715.646007 293.229374,715.646007 L293.371739,715.646007 C293.894848,715.619521 294.360019,715.392729 294.762283,714.978877 C295.065223,714.675937 295.21421,714.275328 295.21421,713.790293 C295.200967,713.628063 295.181102,713.452589 295.143027,713.265528 L295.143027,713.265528 Z M289.135545,702.084889 C289.097471,701.995497 289.064362,701.897828 289.051119,701.806781 C289.037876,701.710767 289.026288,701.619719 288.999801,701.528672 C288.979936,701.419415 288.968349,701.263806 288.968349,701.070123 L288.968349,695.723149 L290.410211,695.723149 L290.410211,701.05688 C290.410211,701.192623 290.461528,701.310158 290.557542,701.412793 C290.668455,701.510462 290.797576,701.56178 290.966428,701.56178 C291.120381,701.56178 291.256125,701.510462 291.367037,701.412793 C291.482916,701.310158 291.540856,701.192623 291.540856,701.05688 L291.540856,695.723149 L292.880082,695.723149 L292.880082,702.569925 L291.173355,702.569925 L291.198186,702.013707 C291.042577,702.240498 290.895246,702.415971 290.746259,702.538472 C290.570785,702.647729 290.377102,702.705668 290.156933,702.705668 C289.905311,702.705668 289.691763,702.647729 289.522911,702.538472 C289.375579,702.434181 289.244802,702.285194 289.135545,702.084889 L289.135545,702.084889 Z M288.417097,709.567342 C288.592571,709.567342 288.748179,709.625281 288.890544,709.727917 C289.03291,709.838829 289.104092,709.954708 289.104092,710.090452 L289.104092,713.983976 C289.104092,714.119719 289.03291,714.235598 288.890544,714.339889 C288.748179,714.435903 288.592571,714.48722 288.417097,714.48722 C288.236657,714.48722 288.074427,714.435903 287.932062,714.339889 C287.796318,714.235598 287.726791,714.119719 287.726791,713.983976 L287.726791,710.090452 C287.726791,709.954708 287.796318,709.838829 287.932062,709.727917 C288.074427,709.625281 288.236657,709.567342 288.417097,709.567342 L288.417097,709.567342 Z M290.274467,713.699245 L290.274467,710.259303 C290.274467,709.598795 290.041054,709.127003 289.575884,708.848894 C289.420275,708.759502 289.233214,708.713151 289.03291,708.713151 C288.663753,708.713151 288.243279,708.888624 287.758244,709.231294 L287.758244,706.65051 L286.212091,706.65051 L286.212091,715.528473 L287.493378,715.49702 L287.589392,714.940803 C288.003245,715.290094 288.379023,715.503642 288.708449,715.581446 C289.037876,715.65925 289.315985,715.626142 289.549397,715.490399 C289.776189,715.348033 289.956628,715.121242 290.08575,714.798437 C290.209906,714.482254 290.274467,714.113098 290.274467,713.699245 L290.274467,713.699245 Z M285.255264,700.941001 C285.255264,701.121441 285.326447,701.277049 285.46219,701.419415 C285.591312,701.555158 285.753543,701.626341 285.940604,701.626341 C286.122699,701.626341 286.283274,701.56178 286.425639,701.426036 C286.561383,701.296914 286.632565,701.128063 286.632565,700.941001 L286.632565,697.300755 C286.632565,697.093829 286.561383,696.924977 286.425639,696.789233 C286.283274,696.646868 286.122699,696.575685 285.947226,696.575685 C285.766786,696.575685 285.604556,696.646868 285.468812,696.789233 C285.326447,696.924977 285.255264,697.093829 285.255264,697.300755 L285.255264,700.941001 Z M283.877963,698.206264 C283.877963,697.590452 283.935903,697.080585 284.046815,696.679976 C284.182559,696.266124 284.402728,695.96815 284.705668,695.78771 C285.010264,695.560919 285.391008,695.450007 285.8628,695.450007 C286.276652,695.450007 286.620977,695.521189 286.904052,695.651967 C287.182161,695.761224 287.415574,695.961528 287.589392,696.239637 C287.726791,696.439942 287.829427,696.673355 287.893988,696.931598 C287.958549,697.209707 287.991657,697.585485 287.991657,698.057277 L287.991657,699.815322 C287.991657,700.455966 287.958549,700.914515 287.893988,701.192623 C287.867501,701.450867 287.758244,701.735598 287.557939,702.053437 C287.357635,702.331545 287.137465,702.511985 286.904052,702.603033 C286.620977,702.738776 286.303139,702.803337 285.947226,702.803337 C285.579725,702.803337 285.243676,702.75202 284.939081,702.634485 C284.660972,702.545093 284.447424,702.382863 284.318302,702.14945 C284.182559,701.969011 284.071646,701.717388 283.982254,701.392928 C283.917693,701.089988 283.877963,700.636406 283.877963,700.015627 L283.877963,698.206264 Z M285.294994,708.966428 L283.748841,708.966428 L283.748841,713.116541 C283.748841,713.414515 283.748841,713.647927 283.762084,713.808502 C283.775328,713.970732 283.748841,714.073368 283.697524,714.119719 C283.652827,714.300159 283.517084,714.429281 283.296914,714.513707 C283.083366,714.598133 282.921136,714.482254 282.805258,714.151172 C282.778771,714.106476 282.778771,713.997219 282.792014,713.828367 C282.798636,713.654549 282.805258,713.427758 282.805258,713.143027 L282.772149,708.966428 L281.227652,708.966428 L281.265726,713.078466 C281.265726,713.401271 281.252483,713.672759 281.245861,713.892928 C281.234274,714.113098 281.240895,714.275328 281.265726,714.384585 C281.285591,714.565025 281.305456,714.760363 281.330287,714.967289 C281.350152,715.174215 281.452788,715.341412 281.648126,715.463912 C281.828566,715.574825 282.035492,715.632764 282.275526,715.632764 C282.520527,715.632764 282.75394,715.588068 282.985697,715.510264 C283.212488,715.432459 283.426036,715.321547 283.619719,715.185803 C283.813402,715.05006 283.955767,714.896106 284.046815,714.740498 L284.013707,715.561581 L285.294994,715.593034 L285.294994,708.966428 Z M280.438021,697.514303 L278.375381,693 L280.173156,693 L281.194544,696.375381 L282.222553,693 L284.013707,693 L282.080188,697.514303 L282.080188,702.770229 L280.438021,702.770229 L280.438021,697.514303 Z M279.681499,715.593034 L279.681499,707.820885 L281.530592,707.820885 L281.530592,706.65051 L276.546153,706.65051 L276.546153,707.789432 L278.141968,707.789432 L278.141968,715.593034 L279.681499,715.593034 Z M297.425838,707.407032 L297.425838,714.771951 C297.425838,715.232155 297.328168,715.652629 297.134485,716.039995 C296.940803,716.427361 296.675937,716.763409 296.339889,717.054761 C296.003841,717.352735 295.614819,717.579526 295.169514,717.746722 C294.729175,717.908952 294.250761,718 293.73924,718 L278.673355,718 C278.175076,718 277.703284,717.908952 277.256324,717.746722 C276.81764,717.579526 276.428619,717.352735 276.092571,717.054761 C275.756522,716.763409 275.491657,716.427361 275.291352,716.039995 C275.097669,715.652629 275,715.232155 275,714.771951 L275,707.407032 C275,706.968349 275.097669,706.554496 275.291352,706.152231 C275.491657,705.758244 275.756522,705.415574 276.092571,705.130844 C276.428619,704.846113 276.81764,704.614356 277.256324,704.438882 C277.703284,704.271686 278.175076,704.180638 278.679976,704.180638 L293.73924,704.180638 C294.237518,704.180638 294.715932,704.271686 295.162892,704.438882 C295.608198,704.614356 296.003841,704.846113 296.339889,705.130844 C296.675937,705.415574 296.940803,705.758244 297.134485,706.152231 C297.33479,706.554496 297.425838,706.968349 297.425838,707.407032 L297.425838,707.407032 Z" id="btn_youtube_black"></path>
        </g>
    </g>
</svg>