<?xml version="1.0" encoding="UTF-8" standalone="no"?>
<svg width="25px" height="22px" viewBox="0 0 25 22" version="1.1" xmlns="http://www.w3.org/2000/svg" xmlns:xlink="http://www.w3.org/1999/xlink">
    <!-- Generator: Sketch 40.2 (33826) - http://www.bohemiancoding.com/sketch -->
    <title>btn_reflash_normal</title>
    <desc>Created with Sketch.</desc>
    <defs></defs>
    <g id="紅磚屋_UI-KIT" stroke="none" stroke-width="1" fill="none" fill-rule="evenodd">
        <g id="UI-KIT" transform="translate(-322.000000, -770.000000)" fill="#323232">
            <path d="M333.342697,791.875 C333.781075,791.875 334.136549,791.532231 334.136549,791.10952 C334.136549,790.687186 333.781075,790.34404 333.342697,790.34404 C327.964057,790.34404 323.587704,786.124097 323.587704,780.937311 C323.587704,775.750149 327.964057,771.530205 333.342697,771.530205 C338.722901,771.530205 343.098863,775.750149 343.099645,780.968986 C343.100818,780.990103 343.16026,782.600627 342.669088,784.17646 L341.936633,782.427923 C341.772387,782.03651 341.310154,781.848346 340.903452,782.004835 C340.49675,782.16321 340.300437,782.6093 340.464683,783.001467 L341.889314,786.402385 C341.899091,786.425764 341.915906,786.444618 341.927247,786.466489 C341.933895,786.477425 341.933113,786.490245 341.939761,786.501181 C341.948755,786.516264 341.962052,786.526445 341.971437,786.540775 C341.991772,786.569056 342.012889,786.595829 342.036353,786.62147 C342.06099,786.647866 342.086409,786.672377 342.114174,786.695002 C342.139202,786.715741 342.165012,786.733841 342.192386,786.751187 C342.223671,786.771173 342.255738,786.788141 342.290151,786.803602 C342.319089,786.8168 342.348028,786.828112 342.378922,786.837917 C342.415681,786.849983 342.452832,786.857525 342.491156,786.863935 C342.510318,786.867329 342.527915,786.875248 342.547468,786.877133 C342.559982,786.878264 342.572496,786.875248 342.585401,786.875625 C342.599088,786.876379 342.612384,786.880527 342.626463,786.880527 C342.650708,786.880527 342.675345,786.873739 342.699982,786.871477 C342.731267,786.86846 342.76216,786.866198 342.792663,786.859787 C342.830987,786.852246 342.866182,786.839048 342.902942,786.825473 C342.933054,786.814914 342.962383,786.804733 342.990931,786.790404 C343.002271,786.784748 343.014785,786.782862 343.025344,786.776452 L346.606672,784.763956 C346.984827,784.551281 347.112312,784.082566 346.892146,783.717549 C346.671588,783.352532 346.183936,783.229603 345.806172,783.441901 L344.278691,784.300898 C344.747572,782.592709 344.690478,781.011597 344.686567,780.938066 C344.686567,774.906613 339.598094,770 333.342697,770 C327.088864,770 322,774.906613 322,780.938066 C322,786.968765 327.088864,791.875 333.342697,791.875" id="btn_reflash_normal"></path>
        </g>
    </g>
</svg>