<?xml version="1.0" encoding="UTF-8" standalone="no"?>
<svg width="30px" height="30px" viewBox="0 0 30 30" version="1.1" xmlns="http://www.w3.org/2000/svg" xmlns:xlink="http://www.w3.org/1999/xlink">
    <!-- Generator: Sketch 40.2 (33826) - http://www.bohemiancoding.com/sketch -->
    <title>btn_photo_normal</title>
    <desc>Created with Sketch.</desc>
    <defs></defs>
    <g id="紅磚屋_UI-KIT" stroke="none" stroke-width="1" fill="none" fill-rule="evenodd">
        <g id="UI-KIT" transform="translate(-418.000000, -691.000000)">
            <g id="btn_photo_normal" transform="translate(418.000000, 691.000000)">
                <circle id="Oval" fill="#646464" cx="15" cy="15" r="15"></circle>
                <g transform="translate(6.000000, 7.200000)" fill="#FFFFFF">
                    <path d="M16.7021719,2.66924829 L16.7021719,3.85313635 L1.28485547,3.85313635 L1.28485547,2.56887472 L7.749,2.56887472 L8.39133984,1.28457794 L16.7021719,1.28457794 L16.7021719,2.66924829 L16.7021719,2.66924829 Z M5.13903516,8.3684712 C5.13903516,7.30488383 5.51555859,6.39674195 6.26828906,5.64418614 C7.02119531,4.89170062 7.92945703,4.51544029 8.99342578,4.51544029 C10.0574648,4.51544029 10.965832,4.89173576 11.7185977,5.64418614 C12.4713633,6.39674195 12.8477109,7.30488383 12.8477109,8.3684712 C12.8477109,9.43216401 12.4713633,10.3402005 11.7185977,11.0927211 C10.965832,11.8452769 10.0574648,12.2216075 8.99342578,12.2216075 C7.92945703,12.2216075 7.02119531,11.8452769 6.26828906,11.0927211 C5.51545313,10.3402005 5.13903516,9.43216401 5.13903516,8.3684712 L5.13903516,8.3684712 Z M16.7021719,14.1280026 L1.28485547,14.1280026 L1.28485547,12.8436355 L16.702207,12.8436355 L16.702207,14.1280026 L16.7021719,14.1280026 Z M2.56953516,1.92656817 L6.42392578,1.92656817 L6.42392578,0.642165962 L2.56953516,0.642165962 L2.56953516,1.92656817 Z M17.6105391,0.376260332 C17.3596641,0.125572405 17.0568633,0 16.7021719,0 L1.28485547,0 C0.930128906,0 0.627292969,0.125677839 0.376382813,0.376260332 C0.125542969,0.627159128 0,0.929861373 0,1.28443736 L0,14.1280026 C0,14.4825786 0.125402344,14.7851754 0.376382813,15.0360742 C0.627433594,15.286973 0.93009375,15.4125103 1.28485547,15.4125103 L16.7019609,15.4125103 C17.0567578,15.4125103 17.3595937,15.286973 17.6105742,15.0360742 C17.8613086,14.7851754 17.9868867,14.4825786 17.9868867,14.1280026 L17.9868867,1.28443736 C17.9868516,0.930001952 17.8612734,0.627299707 17.6105391,0.376260332 L17.6105391,0.376260332 Z" id="Fill-1"></path>
                    <path d="M8.31079688,7.66606704 C8.12341406,7.85345916 8.02979297,8.08088122 8.02979297,8.34840351 C8.02979297,8.44206443 7.99973438,8.51903157 7.93944141,8.57916433 C7.87921875,8.63943768 7.80236719,8.66934592 7.70857031,8.66934592 C7.61484375,8.66934592 7.53795703,8.63940254 7.47769922,8.57916433 C7.41747656,8.51903157 7.38741797,8.44206443 7.38741797,8.34840351 C7.38741797,7.90687927 7.54467188,7.52903742 7.85914453,7.21459681 C8.1736875,6.90022649 8.55175781,6.7430589 8.99342578,6.7430589 C9.08704688,6.7430589 9.16403906,6.77307257 9.22429688,6.83331077 C9.28458984,6.89337325 9.31464844,6.97034038 9.31464844,7.06396616 C9.31464844,7.15766222 9.28458984,7.23462935 9.22415625,7.2949027 C9.16389844,7.35510576 9.08690625,7.38515457 8.99332031,7.38515457 C8.72564063,7.38518972 8.49817969,7.47878034 8.31079688,7.66606704 M10.810125,10.1846847 C11.3120508,9.68292223 11.5630313,9.07758802 11.5630313,8.3684712 C11.5630313,7.65945981 11.3120508,7.05402018 10.810125,6.55236316 C10.3083398,6.05067101 9.70280859,5.79977221 8.99342578,5.79977221 C8.28407813,5.79977221 7.67858203,6.05067101 7.17662109,6.55236316 C6.67487109,7.05402018 6.42389063,7.65945981 6.42389063,8.3684712 C6.42389063,9.07758802 6.67473047,9.68288708 7.17662109,10.1846847 C7.67854688,10.6863417 8.28418359,10.9372053 8.99342578,10.9372053 C9.70280859,10.9372053 10.3083047,10.6863417 10.810125,10.1846847" id="Fill-3"></path>
                </g>
            </g>
        </g>
    </g>
</svg>