<?xml version="1.0" encoding="UTF-8" standalone="no"?>
<svg width="17px" height="17px" viewBox="0 0 17 17" version="1.1" xmlns="http://www.w3.org/2000/svg" xmlns:xlink="http://www.w3.org/1999/xlink">
    <!-- Generator: Sketch 41.2 (35397) - http://www.bohemiancoding.com/sketch -->
    <title>Rectangle 5</title>
    <desc>Created with Sketch.</desc>
    <defs></defs>
    <g id="紅磚屋_UI-KIT" stroke="none" stroke-width="1" fill="none" fill-rule="evenodd">
        <g id="UI-KIT" transform="translate(-111.000000, -861.000000)">
            <g id="btn_footer_printer_white" transform="translate(111.000000, 861.000000)">
                <rect id="Rectangle-5" fill="#EBEBEB" opacity="0" x="0" y="0" width="17" height="17"></rect>
                <g id="Group-7" transform="translate(0.500000, 0.629000)" fill="#FFFFFF">
                    <path d="M3.524,5.435 L14.396,5.435 L14.396,4.683 L3.524,4.683 L3.524,5.435 Z M2.23,5.817 C1.885,5.817 1.604,5.537 1.604,5.191 C1.604,4.845 1.885,4.565 2.23,4.565 C2.575,4.565 2.857,4.845 2.857,5.191 C2.856,5.536 2.575,5.817 2.23,5.817 L2.23,5.817 Z M15.295,3.896 L0.786,3.896 C0.352,3.896 0,4.248 0,4.68 L0,10.438 L2.358,10.438 L2.358,6.944 L13.721,6.944 L13.721,10.438 L16.077,10.438 L16.077,4.68 C16.077,4.248 15.728,3.896 15.295,3.896 L15.295,3.896 Z" id="Fill-2"></path>
                    <path d="M11.5149,13.9266 L6.4579,13.9266 L4.5519,13.9386 L4.5519,7.8696 L3.4129,7.8696 L3.4129,14.0516 C3.4129,14.0516 3.3699,14.9996 4.3439,14.9996 L11.8569,14.9996 C12.5749,14.9996 12.6669,14.4516 12.6669,13.7746 L12.6669,7.8696 L11.5279,7.8696 L11.5149,13.9266 Z" id="Fill-4"></path>
                    <polygon id="Fill-5" points="5.115 10.504 10.861 10.504 10.861 9.512 5.115 9.512"></polygon>
                    <polygon id="Fill-6" points="5.167 12.751 10.915 12.751 10.915 11.76 5.167 11.76"></polygon>
                    <polygon id="Fill-1" points="3.524 2.962 12.554 2.962 12.554 0.371 3.524 0.371"></polygon>
                </g>
            </g>
        </g>
    </g>
</svg>