<?xml version="1.0" encoding="UTF-8" standalone="no"?>
<svg width="17px" height="17px" viewBox="0 0 17 17" version="1.1" xmlns="http://www.w3.org/2000/svg" xmlns:xlink="http://www.w3.org/1999/xlink">
    <!-- Generator: Sketch 41.2 (35397) - http://www.bohemiancoding.com/sketch -->
    <title>Rectangle 6</title>
    <desc>Created with Sketch.</desc>
    <defs></defs>
    <g id="紅磚屋_UI-KIT" stroke="none" stroke-width="1" fill="none" fill-rule="evenodd">
        <g id="UI-KIT" transform="translate(-77.000000, -802.000000)">
            <g id="btn_footer_telephone_black" transform="translate(77.000000, 802.000000)">
                <path d="M5.2009,14.1455441 C5.21281176,14.5336029 4.90482647,14.8511176 4.51654706,14.8511176 L1.68467941,14.8511176 C1.29648824,14.8511176 0.988547059,14.5336029 1.00032647,14.1455441 C1.00032647,14.1455441 1.12637059,10.0109265 1.12637059,8.39754412 C1.12637059,6.80917647 1.00063529,2.74969118 1.00063529,2.74969118 C0.988591176,2.36163235 1.29644412,2.04411765 1.68463529,2.04411765 L4.51650294,2.04411765 C4.90478235,2.04411765 5.21254706,2.36163235 5.20059118,2.74969118 C5.20059118,2.74969118 5.07476765,6.80917647 5.07476765,8.39754412 C5.07485588,10.0109265 5.2009,14.1455441 5.2009,14.1455441" id="Fill-1" fill="#000000"></path>
                <path d="M14.6000324,5.12926471 C14.6000324,5.32338235 14.4412088,5.48220588 14.2470912,5.48220588 L7.70766471,5.48220588 C7.51363529,5.48220588 7.35472353,5.32338235 7.35472353,5.12926471 L7.35472353,4.07573529 C7.35472353,3.88161765 7.51363529,3.72279412 7.70766471,3.72279412 L14.2470912,3.72279412 C14.4412088,3.72279412 14.6000324,3.88161765 14.6000324,4.07573529 L14.6000324,5.12926471 Z M14.6000324,8.57926471 C14.6000324,8.77338235 14.4412088,8.93220588 14.2470912,8.93220588 L13.0036794,8.93220588 C12.8095618,8.93220588 12.6507382,8.77338235 12.6507382,8.57926471 L12.6507382,7.52573529 C12.6507382,7.33161765 12.8095618,7.17279412 13.0036794,7.17279412 L14.2470912,7.17279412 C14.4412088,7.17279412 14.6000324,7.33161765 14.6000324,7.52573529 L14.6000324,8.57926471 Z M14.6000324,10.8735588 C14.6000324,11.0676765 14.4412088,11.2265 14.2470912,11.2265 L13.0036794,11.2265 C12.8095618,11.2265 12.6507382,11.0676765 12.6507382,10.8735588 L12.6507382,9.82002941 C12.6507382,9.62591176 12.8095618,9.46708824 13.0036794,9.46708824 L14.2470912,9.46708824 C14.4412088,9.46708824 14.6000324,9.62591176 14.6000324,9.82002941 L14.6000324,10.8735588 Z M14.6000324,13.1678971 C14.6000324,13.3620147 14.4412088,13.5208382 14.2470912,13.5208382 L13.0036794,13.5208382 C12.8095618,13.5208382 12.6507382,13.3620147 12.6507382,13.1678971 L12.6507382,12.1143676 C12.6507382,11.92025 12.8095618,11.7614265 13.0036794,11.7614265 L14.2470912,11.7614265 C14.4412088,11.7614265 14.6000324,11.92025 14.6000324,12.1143676 L14.6000324,13.1678971 Z M11.9520029,8.57926471 C11.9520029,8.77338235 11.7931794,8.93220588 11.5990618,8.93220588 L10.35565,8.93220588 C10.1615324,8.93220588 10.0027088,8.77338235 10.0027088,8.57926471 L10.0027088,7.52573529 C10.0027088,7.33161765 10.1615324,7.17279412 10.35565,7.17279412 L11.5990618,7.17279412 C11.7931794,7.17279412 11.9520029,7.33161765 11.9520029,7.52573529 L11.9520029,8.57926471 Z M11.9520029,10.8735588 C11.9520029,11.0676765 11.7931794,11.2265 11.5990618,11.2265 L10.35565,11.2265 C10.1615324,11.2265 10.0027088,11.0676765 10.0027088,10.8735588 L10.0027088,9.82002941 C10.0027088,9.62591176 10.1615324,9.46708824 10.35565,9.46708824 L11.5990618,9.46708824 C11.7931794,9.46708824 11.9520029,9.62591176 11.9520029,9.82002941 L11.9520029,10.8735588 Z M11.9520029,13.1678971 C11.9520029,13.3620147 11.7931794,13.5208382 11.5990618,13.5208382 L10.35565,13.5208382 C10.1615324,13.5208382 10.0027088,13.3620147 10.0027088,13.1678971 L10.0027088,12.1143676 C10.0027088,11.92025 10.1615324,11.7614265 10.35565,11.7614265 L11.5990618,11.7614265 C11.7931794,11.7614265 11.9520029,11.92025 11.9520029,12.1143676 L11.9520029,13.1678971 Z M9.30410588,8.57926471 C9.30410588,8.77338235 9.14528235,8.93220588 8.95116471,8.93220588 L7.70766471,8.93220588 C7.51363529,8.93220588 7.35472353,8.77338235 7.35472353,8.57926471 L7.35472353,7.52573529 C7.35472353,7.33161765 7.51363529,7.17279412 7.70766471,7.17279412 L8.95116471,7.17279412 C9.14528235,7.17279412 9.30410588,7.33161765 9.30410588,7.52573529 L9.30410588,8.57926471 Z M9.30410588,10.8735588 C9.30410588,11.0676765 9.14528235,11.2265 8.95116471,11.2265 L7.70766471,11.2265 C7.51363529,11.2265 7.35472353,11.0676765 7.35472353,10.8735588 L7.35472353,9.82002941 C7.35472353,9.62591176 7.51363529,9.46708824 7.70766471,9.46708824 L8.95116471,9.46708824 C9.14528235,9.46708824 9.30410588,9.62591176 9.30410588,9.82002941 L9.30410588,10.8735588 Z M9.30410588,13.1678971 C9.30410588,13.3620147 9.14528235,13.5208382 8.95116471,13.5208382 L7.70766471,13.5208382 C7.51363529,13.5208382 7.35472353,13.3620147 7.35472353,13.1678971 L7.35472353,12.1143676 C7.35472353,11.92025 7.51363529,11.7614265 7.70766471,11.7614265 L8.95116471,11.7614265 C9.14528235,11.7614265 9.30410588,11.92025 9.30410588,12.1143676 L9.30410588,13.1678971 Z M15.3982088,2.04416176 L6.55659118,2.04416176 C6.24115,2.04416176 5.98306176,2.30225 5.98306176,2.61769118 L5.98306176,14.2775882 C5.98306176,14.5930294 6.24115,14.8511176 6.55659118,14.8511176 L15.3982088,14.8511176 C15.71365,14.8511176 15.9717382,14.5930294 15.9717382,14.2775882 L15.9717382,2.61769118 C15.9717382,2.30225 15.71365,2.04416176 15.3982088,2.04416176 L15.3982088,2.04416176 Z" id="Fill-4" fill="#000000"></path>
                <rect id="Rectangle-6" fill="#FFFFFF" opacity="0" x="0" y="0" width="17" height="17"></rect>
            </g>
        </g>
    </g>
</svg>