<?xml version="1.0" encoding="UTF-8" standalone="no"?>
<svg width="35px" height="35px" viewBox="0 0 35 35" version="1.1" xmlns="http://www.w3.org/2000/svg" xmlns:xlink="http://www.w3.org/1999/xlink">
    <!-- Generator: Sketch 41.2 (35397) - http://www.bohemiancoding.com/sketch -->
    <title>btn_panorama_normal</title>
    <desc>Created with Sketch.</desc>
    <defs></defs>
    <g id="紅磚屋_UI-KIT" stroke="none" stroke-width="1" fill="none" fill-rule="evenodd">
        <g id="UI-KIT" transform="translate(-601.000000, -684.000000)" fill="#B62805">
            <g id="btn_panorama_normal" transform="translate(601.000000, 684.000000)">
                <g id="camera" transform="translate(7.777778, 9.459459)">
                    <path d="M18.0424696,2.80551622 L18.0424696,4.04984301 L1.38796115,4.04984301 L1.38796115,2.70001847 L8.37083333,2.70001847 L9.06471897,1.35015699 L18.0424696,1.35015699 L18.0424696,2.80551622 L18.0424696,2.80551622 Z M5.55142687,8.79569045 C5.55142687,7.67780582 5.95816515,6.72330235 6.77129991,5.93232777 C7.58462457,5.14142708 8.56577148,4.74595826 9.71512044,4.74595826 C10.8645454,4.74595826 11.8458062,5.14146402 12.6589789,5.93232777 C13.4721517,6.72330235 13.8787001,7.67780582 13.8787001,8.79569045 C13.8787001,9.9136859 13.4721517,10.8680786 12.6589789,11.6590162 C11.8458062,12.4499908 10.8645454,12.8455335 9.71512044,12.8455335 C8.56577148,12.8455335 7.58462457,12.4499908 6.77129991,11.6590162 C5.95805122,10.8680786 5.55142687,9.9136859 5.55142687,8.79569045 L5.55142687,8.79569045 Z M18.0424696,14.849252 L1.38796115,14.849252 L1.38796115,13.4993166 L18.0425076,13.4993166 L18.0425076,14.849252 L18.0424696,14.849252 Z M2.77573242,2.0249215 L6.939426,2.0249215 L6.939426,0.674949209 L2.77573242,0.674949209 L2.77573242,2.0249215 Z M19.0237305,0.395468817 C18.7527235,0.131983008 18.4256239,0 18.0424696,0 L1.38796115,0 C1.00476888,0 0.677631293,0.132093825 0.406586372,0.395468817 C0.135617405,0.659176261 0,0.977331774 0,1.35000923 L0,14.849252 C0,15.2219294 0.135465495,15.5399741 0.406586372,15.8036816 C0.677783203,16.067389 1.0047309,16.1993351 1.38796115,16.1993351 L18.0422418,16.1993351 C18.42551,16.1993351 18.7526476,16.067389 19.0237684,15.8036816 C19.2946235,15.5399741 19.4302789,15.2219294 19.4302789,14.849252 L19.4302789,1.35000923 C19.4302409,0.97747953 19.2945855,0.659324016 19.0237305,0.395468817 L19.0237305,0.395468817 Z" id="Fill-1"></path>
                    <path d="M8.97771267,8.05742782 C8.77529297,8.2543865 8.67415907,8.4934187 8.67415907,8.77459829 C8.67415907,8.87304069 8.64168837,8.95393708 8.57655707,9.01713969 C8.51150174,9.08049006 8.42848307,9.11192514 8.32715929,9.11192514 C8.22591146,9.11192514 8.14285482,9.08045312 8.0777615,9.01713969 C8.01270616,8.95393708 7.98023546,8.87304069 7.98023546,8.77459829 C7.98023546,8.31053377 8.15010851,7.9134027 8.48981662,7.58290956 C8.82960069,7.2524903 9.23800998,7.08729914 9.71512044,7.08729914 C9.81625434,7.08729914 9.89942491,7.11884504 9.96451823,7.18215847 C10.0296495,7.2452872 10.0621202,7.32618359 10.0621202,7.42458905 C10.0621202,7.5230684 10.0296495,7.60396478 9.96436632,7.66731515 C9.899273,7.73059164 9.81610243,7.76217448 9.71500651,7.76217448 C9.42584635,7.76221141 9.18013238,7.86057994 8.97771267,8.05742782 M11.6776042,10.7046235 C12.2198079,10.1772456 12.4909288,9.54100843 12.4909288,8.79569045 C12.4909288,8.05048329 12.2198079,7.41413532 11.6776042,6.88686819 C11.1355523,6.35956412 10.481429,6.09585668 9.71512044,6.09585668 C8.94884983,6.09585668 8.29476454,6.35956412 7.75252279,6.88686819 C7.2105089,7.41413532 6.93938802,8.05048329 6.93938802,8.79569045 C6.93938802,9.54100843 7.21035699,10.1772086 7.75252279,10.7046235 C8.29472656,11.2318907 8.94896376,11.4955612 9.71512044,11.4955612 C10.481429,11.4955612 11.1355143,11.2318907 11.6776042,10.7046235" id="Fill-3"></path>
                </g>
                <path d="M31.7131985,7.70173267 C30.672656,6.15548568 29.3913923,4.7921528 27.8998975,3.64435041 C26.3934103,2.48556663 24.7140889,1.58640286 22.9107852,0.964888279 C21.0436372,0.325180626 19.0863662,0 17.0915298,0 C14.0972538,0 11.1442491,0.749357774 8.55207366,2.16759767 C6.28669962,3.4066932 4.31814214,5.13929623 2.81906692,7.20461935 L1.75965754,6.72946883 C1.37271791,6.55393029 0.93692652,6.85731201 0.974491839,7.27034386 L1.4439741,12.2124666 C1.48153942,12.6254984 1.97005702,12.8447986 2.31572534,12.6035356 L6.48193821,9.73771742 C6.83148098,9.49645438 6.78262922,8.98114798 6.39181513,8.80560945 L5.42640328,8.37438453 C6.63977993,6.82076197 8.18012647,5.51577803 9.92699803,4.55810142 C12.102249,3.37014316 14.5780225,2.74141691 17.0876553,2.74141691 C18.7632707,2.74141691 20.4050268,3.01562416 21.9679462,3.55289336 C23.4781394,4.07196949 24.8869231,4.82870284 26.1493199,5.79736085 C27.4002619,6.7586433 28.4785382,7.90283984 29.350121,9.20044822 C30.2366962,10.5200194 30.886593,11.9602221 31.2811131,13.4809005 C31.4426608,14.1022511 32.0174271,14.515283 32.6449195,14.515283 C32.7576155,14.515283 32.8740174,14.5006957 32.9904194,14.4713574 C33.7456002,14.2850013 34.2002585,13.5392494 34.0124319,12.8046428 C33.5466556,10.9915641 32.7689019,9.2735483 31.7131985,7.70173267" id="Fill-1"></path>
                <path d="M32.6144825,22.1687101 C32.5769172,21.7556782 32.088568,21.536378 31.7428997,21.777641 L27.5765184,24.6432953 C27.2271441,24.8845584 27.2759959,25.4000287 27.6666415,25.5755672 L28.6322218,26.0067921 C27.4186767,27.5604147 25.8783301,28.8652347 24.1314586,29.8229113 C21.9562076,31.0110335 19.4804341,31.6397597 16.9708013,31.6397597 C15.2951859,31.6397597 13.6534298,31.3655525 12.0906789,30.8282833 C10.5804857,30.3092071 9.17153353,29.5524738 7.90930512,28.5838158 C6.6581947,27.6225333 5.57991843,26.4783368 4.70833565,25.1807284 C3.82176043,23.8611572 3.17186356,22.4209545 2.77734349,20.9002762 C2.58581089,20.1655056 1.81934362,19.7232993 1.06416279,19.9060495 C0.309150416,20.0925695 -0.145507862,20.8381575 0.042318733,21.572928 C0.515675444,23.3896125 1.28972316,25.1076283 2.34913254,26.6830498 C3.38967503,28.2292968 4.67077033,29.5927936 6.1622651,30.740596 C7.66875231,31.8992158 9.34807368,32.7983796 11.1513775,33.4198942 C13.0148194,34.0596018 14.9759649,34.3847825 16.9708013,34.3847825 C19.9650773,34.3847825 22.9179135,33.6355886 25.5102574,32.2171848 C27.7756314,30.9780893 29.7441889,29.2454862 31.2432641,27.1801631 L32.3026735,27.6553136 C32.6896131,27.8308522 33.1254045,27.5274705 33.0878392,27.1142747 L32.6144825,22.1687101 Z" id="Fill-4"></path>
            </g>
        </g>
    </g>
</svg>