<?xml version="1.0" encoding="UTF-8" standalone="no"?>
<svg width="60px" height="60px" viewBox="0 0 60 60" version="1.1" xmlns="http://www.w3.org/2000/svg" xmlns:xlink="http://www.w3.org/1999/xlink">
    <!-- Generator: Sketch 40.2 (33826) - http://www.bohemiancoding.com/sketch -->
    <title>btn_backtotop_press</title>
    <desc>Created with Sketch.</desc>
    <defs></defs>
    <g id="紅磚屋_UI-KIT" stroke="none" stroke-width="1" fill="none" fill-rule="evenodd">
        <g id="UI-KIT" transform="translate(-686.000000, -614.000000)" fill="#9F353A">
            <g id="btn_backtotop_press" transform="translate(686.000000, 614.000000)">
                <polygon id="Fill-1" points="28.2007547 38.7475472 31.7662893 38.7475472 31.7662893 35.1820126 28.2007547 35.1820126"></polygon>
                <path d="M44.3675472,36.38 C43.5879245,37.1596226 42.3206289,37.1596226 41.5411321,36.38 L29.983522,24.8223899 L18.4259119,36.38 C17.6462893,37.1596226 16.3789937,37.1596226 15.5994969,36.38 C14.8198742,35.6044025 14.8198742,34.3330818 15.5994969,33.5535849 L28.5642767,20.5886792 C28.9561006,20.1968553 29.4677987,20.0050314 29.983522,20.0050314 C30.4992453,20.0050314 31.0109434,20.1969811 31.4027673,20.5886792 L44.3675472,33.5534591 C45.1471698,34.3330818 45.1471698,35.5963522 44.3675472,36.38 L44.3675472,36.38 Z M33.5490566,39.6388679 C33.5490566,39.8735849 33.4539623,40.1032704 33.2880503,40.2691824 C33.1220126,40.4352201 32.8924528,40.5303145 32.6577358,40.5303145 L27.3093082,40.5303145 C27.0745912,40.5303145 26.8450314,40.4352201 26.6789937,40.2691824 C26.5130818,40.1032704 26.4179874,39.8735849 26.4179874,39.6388679 L26.4179874,34.290566 C26.4179874,34.0557233 26.5130818,33.8261635 26.6789937,33.6602516 C26.8450314,33.4942138 27.0745912,33.3991195 27.3093082,33.3991195 L32.6577358,33.3991195 C32.8924528,33.3991195 33.1220126,33.4942138 33.2880503,33.6602516 C33.4539623,33.8261635 33.5490566,34.0557233 33.5490566,34.290566 L33.5490566,39.6388679 Z M29.983522,0 C13.4246541,0 0,13.4246541 0,29.983522 C0,46.5464151 13.4246541,59.967044 29.983522,59.967044 C46.5464151,59.967044 59.967044,46.5464151 59.967044,29.983522 C59.9669182,13.4246541 46.5462893,0 29.983522,0 L29.983522,0 Z" id="Fill-2"></path>
            </g>
        </g>
    </g>
</svg>