<?xml version="1.0" encoding="UTF-8" standalone="no"?>
<svg width="25px" height="25px" viewBox="0 0 25 25" version="1.1" xmlns="http://www.w3.org/2000/svg" xmlns:xlink="http://www.w3.org/1999/xlink">
    <!-- Generator: Sketch 40.2 (33826) - http://www.bohemiancoding.com/sketch -->
    <title>btn_calendar_normal</title>
    <desc>Created with Sketch.</desc>
    <defs></defs>
    <g id="紅磚屋_UI-KIT" stroke="none" stroke-width="1" fill="none" fill-rule="evenodd">
        <g id="UI-KIT" transform="translate(-371.000000, -625.000000)" fill="#969696">
            <g id="btn_calendar_normal" transform="translate(371.000000, 625.000000)">
                <path d="M0.892857143,24.1666667 L24.1071429,24.1666667 L24.1071429,7.08333333 L0.892857143,7.08333333 L0.892857143,24.1666667 Z M0.892857143,2.5 L3.57142857,2.5 L3.57142857,3.75 C3.57142857,3.98041667 3.77098214,4.16666667 4.01785714,4.16666667 L7.14285714,4.16666667 C7.38973214,4.16666667 7.58928571,3.98041667 7.58928571,3.75 L7.58928571,2.5 L17.4107143,2.5 L17.4107143,3.75 C17.4107143,3.98041667 17.6102679,4.16666667 17.8571429,4.16666667 L20.9821429,4.16666667 C21.2290179,4.16666667 21.4285714,3.98041667 21.4285714,3.75 L21.4285714,2.5 L24.1071429,2.5 L24.1071429,6.25 L0.892857143,6.25 L0.892857143,2.5 Z M4.46428571,0.833333333 L6.69642857,0.833333333 L6.69642857,2.08333333 L6.69642857,3.33333333 L4.46428571,3.33333333 L4.46428571,2.08333333 L4.46428571,0.833333333 Z M18.3035714,0.833333333 L20.5357143,0.833333333 L20.5357143,2.08333333 L20.5357143,3.33333333 L18.3035714,3.33333333 L18.3035714,2.08333333 L18.3035714,0.833333333 Z M24.5535714,1.66666667 L21.4285714,1.66666667 L21.4285714,0.416666667 C21.4285714,0.18625 21.2290179,0 20.9821429,0 L17.8571429,0 C17.6102679,0 17.4107143,0.18625 17.4107143,0.416666667 L17.4107143,1.66666667 L7.58928571,1.66666667 L7.58928571,0.416666667 C7.58928571,0.18625 7.38973214,0 7.14285714,0 L4.01785714,0 C3.77098214,0 3.57142857,0.18625 3.57142857,0.416666667 L3.57142857,1.66666667 L0.446428571,1.66666667 C0.199553571,1.66666667 0,1.85291667 0,2.08333333 L0,6.66666667 L0,24.5833333 C0,24.81375 0.199553571,25 0.446428571,25 L24.5535714,25 C24.8004464,25 25,24.81375 25,24.5833333 L25,6.66666667 L25,2.08333333 C25,1.85291667 24.8004464,1.66666667 24.5535714,1.66666667 L24.5535714,1.66666667 Z" id="Fill-1"></path>
                <path d="M16.9642857,13.3333333 L20.0892857,13.3333333 L20.0892857,10.4166667 L16.9642857,10.4166667 L16.9642857,13.3333333 Z M16.9642857,17.0833333 L20.0892857,17.0833333 L20.0892857,14.1666667 L16.9642857,14.1666667 L16.9642857,17.0833333 Z M16.9642857,20.8333333 L20.0892857,20.8333333 L20.0892857,17.9166667 L16.9642857,17.9166667 L16.9642857,20.8333333 Z M12.9464286,20.8333333 L16.0714286,20.8333333 L16.0714286,17.9166667 L12.9464286,17.9166667 L12.9464286,20.8333333 Z M8.92857143,20.8333333 L12.0535714,20.8333333 L12.0535714,17.9166667 L8.92857143,17.9166667 L8.92857143,20.8333333 Z M4.91071429,20.8333333 L8.03571429,20.8333333 L8.03571429,17.9166667 L4.91071429,17.9166667 L4.91071429,20.8333333 Z M4.91071429,17.0833333 L8.03571429,17.0833333 L8.03571429,14.1666667 L4.91071429,14.1666667 L4.91071429,17.0833333 Z M4.91071429,13.3333333 L8.03571429,13.3333333 L8.03571429,10.4166667 L4.91071429,10.4166667 L4.91071429,13.3333333 Z M8.92857143,13.3333333 L12.0535714,13.3333333 L12.0535714,10.4166667 L8.92857143,10.4166667 L8.92857143,13.3333333 Z M8.92857143,17.0833333 L12.0535714,17.0833333 L12.0535714,14.1666667 L8.92857143,14.1666667 L8.92857143,17.0833333 Z M12.9464286,17.0833333 L16.0714286,17.0833333 L16.0714286,14.1666667 L12.9464286,14.1666667 L12.9464286,17.0833333 Z M12.9464286,13.3333333 L16.0714286,13.3333333 L16.0714286,10.4166667 L12.9464286,10.4166667 L12.9464286,13.3333333 Z M16.0714286,9.58333333 L12.9464286,9.58333333 L12.0535714,9.58333333 L8.92857143,9.58333333 L8.03571429,9.58333333 L4.01785714,9.58333333 L4.01785714,13.3333333 L4.01785714,14.1666667 L4.01785714,17.0833333 L4.01785714,17.9166667 L4.01785714,21.6666667 L8.03571429,21.6666667 L8.92857143,21.6666667 L12.0535714,21.6666667 L12.9464286,21.6666667 L16.0714286,21.6666667 L16.9642857,21.6666667 L20.9821429,21.6666667 L20.9821429,17.9166667 L20.9821429,17.0833333 L20.9821429,14.1666667 L20.9821429,13.3333333 L20.9821429,9.58333333 L16.9642857,9.58333333 L16.0714286,9.58333333 Z" id="Fill-3"></path>
            </g>
        </g>
    </g>
</svg>