<?xml version="1.0" encoding="UTF-8" standalone="no"?>
<svg width="30px" height="33px" viewBox="0 0 30 33" version="1.1" xmlns="http://www.w3.org/2000/svg" xmlns:xlink="http://www.w3.org/1999/xlink">
    <!-- Generator: Sketch 40.2 (33826) - http://www.bohemiancoding.com/sketch -->
    <title>btn_atm_normal</title>
    <desc>Created with Sketch.</desc>
    <defs></defs>
    <g id="紅磚屋_UI-KIT" stroke="none" stroke-width="1" fill="none" fill-rule="evenodd">
        <g id="UI-KIT" transform="translate(-468.000000, -689.000000)" fill="#B62805">
            <g id="btn_atm_normal" transform="translate(468.000000, 689.000000)">
                <path d="M22.9665072,6.31578947 L27.5598086,6.31578947 L27.5598086,3.30143541 L22.9665072,3.30143541 L22.9665072,6.31578947 Z M22.9665072,11.3397129 L27.5598086,11.3397129 L27.5598086,8.32535885 L22.9665072,8.32535885 L22.9665072,11.3397129 Z M22.9665072,16.3636364 L27.5598086,16.3636364 L27.5598086,13.2057416 L22.9665072,13.2057416 L22.9665072,16.3636364 Z M27.5598086,24.9760766 L26.4114833,24.9760766 L26.4114833,21.9617225 L3.58851675,21.9617225 L3.58851675,24.9760766 L2.44019139,24.9760766 L2.44019139,20.3827751 L27.5598086,20.3827751 L27.5598086,24.9760766 Z M24.2583732,30.2870813 L15.62311,30.2870813 L15.6189474,29.7305742 C15.9076077,29.655933 16.157512,29.5260287 16.3620574,29.3447368 C16.7253589,29.0344019 16.9082297,28.6316268 16.9053589,28.1488995 C16.9053589,27.7438278 16.7473206,27.3866986 16.4477512,27.1156938 C16.1675598,26.8644976 15.7511483,26.6725837 15.2091388,26.5451196 C14.8033493,26.4521053 14.6356938,26.3478947 14.5698086,26.2923445 C14.4848325,26.2225837 14.4453589,26.1312919 14.4453589,26.0032536 C14.444067,25.8436364 14.4851196,25.7407177 14.5845933,25.6577512 C14.6909569,25.56689 14.8610526,25.5189474 15.0904306,25.5189474 C15.2778947,25.5189474 15.3378947,25.5551196 15.4389474,25.6438278 C15.5341148,25.7273684 15.5961244,25.872488 15.6242584,26.080622 L15.6628708,26.3200478 L16.7636842,26.3133014 L16.7530622,26.0176077 C16.7282297,25.5505263 16.5490909,25.1744498 16.2183732,24.8977033 C16.02,24.7360766 15.8431579,24.6235407 15.5902392,24.5608134 L15.5880861,24.1148325 L24.2583732,24.1148325 L24.2583732,30.2870813 Z M14.4460766,24.1148325 L14.4498086,24.5918182 C14.2179904,24.6591388 14.0101435,24.7683732 13.8304306,24.917799 C13.4909569,25.1984211 13.31311,25.5783732 13.3159809,26.0157416 C13.318134,26.3988517 13.4629665,26.7376077 13.7359809,26.996555 C13.9888995,27.2332536 14.3633971,27.4108134 14.8488517,27.5236364 C15.3123445,27.6322967 15.5247847,27.7454067 15.6208134,27.820622 C15.7294737,27.9064593 15.7778469,28.012823 15.7778469,28.1652632 C15.7778469,28.3685167 15.7227273,28.5117703 15.6038756,28.6166986 C15.4769856,28.7292344 15.2853589,28.7873684 15.0357416,28.7895215 C14.7871292,28.7895215 14.6842105,28.7364115 14.5570335,28.6222967 C14.4367464,28.5180861 14.3791866,28.3702392 14.3755981,28.1527751 L14.3658373,27.877177 L13.2686124,27.8809091 L13.2380383,28.2711962 L13.2384689,28.282823 C13.2502392,28.6782775 13.431244,29.029378 13.7794737,29.3295215 C14.0135885,29.5231579 14.2139713,29.657512 14.4769378,29.7320096 L14.4805263,30.2869378 L5.74162679,30.2869378 L5.74162679,24.114689 L14.4460766,24.114689 L14.4460766,24.1148325 Z M2.44019139,16.507177 L20.6698565,16.507177 L20.6698565,3.30143541 L2.44019139,3.30143541 L2.44019139,16.507177 Z M30,0 L0,0 L0,28.8516746 L3.58851675,28.8516746 L3.58851675,32.4401914 L26.4114833,32.4401914 L26.4114833,28.8516746 L30,28.8516746 L30,0 Z" id="Page-1"></path>
                <path d="M5.21142857,10.2771429 L5.46857143,9.42857143 C5.67428571,8.74285714 5.87142857,8.04857143 6.05142857,7.32857143 L6.08571429,7.32857143 C6.28285714,8.04 6.47142857,8.74285714 6.68571429,9.42857143 L6.93428571,10.2771429 L5.21142857,10.2771429 Z M7.70571429,12.8571429 L8.76,12.8571429 L6.66857143,6.54857143 L5.52,6.54857143 L3.42857143,12.8571429 L4.44,12.8571429 L4.98,11.0571429 L7.17428571,11.0571429 L7.70571429,12.8571429 Z M10.2942857,12.8571429 L11.2885714,12.8571429 L11.2885714,7.38 L13.1485714,7.38 L13.1485714,6.54857143 L8.44285714,6.54857143 L8.44285714,7.38 L10.2942857,7.38 L10.2942857,12.8571429 Z M14.2371429,12.8571429 L15.1285714,12.8571429 L15.1285714,9.73714286 C15.1285714,9.17142857 15.0514286,8.35714286 15.0085714,7.78285714 L15.0428571,7.78285714 L15.54,9.24 L16.6457143,12.2485714 L17.2628571,12.2485714 L18.36,9.24 L18.8657143,7.78285714 L18.9,7.78285714 C18.8485714,8.35714286 18.7714286,9.17142857 18.7714286,9.73714286 L18.7714286,12.8571429 L19.6971429,12.8571429 L19.6971429,6.54857143 L18.5485714,6.54857143 L17.4085714,9.73714286 C17.2628571,10.1571429 17.1428571,10.5857143 16.9971429,11.0142857 L16.9542857,11.0142857 C16.8085714,10.5857143 16.68,10.1571429 16.5342857,9.73714286 L15.3771429,6.54857143 L14.2371429,6.54857143 L14.2371429,12.8571429 Z" id="ATM"></path>
            </g>
        </g>
    </g>
</svg>