<?xml version="1.0" encoding="UTF-8" standalone="no"?>
<svg width="27px" height="30px" viewBox="0 0 27 30" version="1.1" xmlns="http://www.w3.org/2000/svg" xmlns:xlink="http://www.w3.org/1999/xlink">
    <!-- Generator: Sketch 40.2 (33826) - http://www.bohemiancoding.com/sketch -->
    <title>btn_youtube_white</title>
    <desc>Created with Sketch.</desc>
    <defs></defs>
    <g id="紅磚屋_UI-KIT" stroke="none" stroke-width="1" fill="none" fill-rule="evenodd">
        <g id="UI-KIT" transform="translate(-178.000000, -691.000000)" fill="#FFFFFF">
            <path d="M200.743345,712.960667 L198.975368,712.960667 L199.013111,711.975368 C199.013111,711.756853 199.090584,711.578069 199.253476,711.439015 C199.416369,711.29996 199.603099,711.222487 199.835518,711.222487 L199.920938,711.222487 C200.161303,711.222487 200.363925,711.292014 200.534764,711.423123 C200.697656,711.564164 200.783075,711.740961 200.783075,711.975368 L200.743345,712.960667 Z M202.171633,715.318633 L200.783075,715.318633 L200.783075,716.218514 C200.783075,716.437028 200.705602,716.607867 200.556615,716.723083 C200.401669,716.848232 200.216925,716.901867 199.998411,716.901867 L199.712356,716.901867 C199.501788,716.901867 199.323004,716.848232 199.183949,716.723083 C199.044895,716.607867 198.967422,716.437028 198.967422,716.218514 L198.967422,714.309495 L202.171633,714.309495 L202.171633,713.201033 C202.171633,712.781883 202.163687,712.386571 202.155741,712.005165 C202.139849,711.617799 202.110052,711.321812 202.05443,711.105284 C202.000795,710.741756 201.837902,710.453715 201.557807,710.229241 C201.287644,710.010727 200.961859,709.855781 200.596345,709.778308 C200.224871,709.692888 199.85141,709.676996 199.464044,709.740564 C199.082638,709.794199 198.748907,709.917362 198.462853,710.119984 C198.105284,710.36035 197.849027,710.686134 197.678188,711.105284 C197.523242,711.524434 197.437823,712.09853 197.437823,712.843464 L197.437823,715.318633 C197.437823,716.367501 197.717918,717.112435 198.268176,717.553437 C198.780691,717.96464 199.315058,718.175209 199.875248,718.175209 L200.046087,718.175209 C200.673818,718.143425 201.232022,717.871275 201.71474,717.374652 C202.078268,717.011124 202.257052,716.530393 202.257052,715.948351 C202.24116,715.753675 202.217322,715.543107 202.171633,715.318633 L202.171633,715.318633 Z M194.962654,701.901867 C194.916965,701.794597 194.877235,701.677394 194.861343,701.568137 C194.845451,701.45292 194.831545,701.343663 194.799762,701.234406 C194.775924,701.103298 194.762018,700.916567 194.762018,700.684148 L194.762018,694.267779 L196.492253,694.267779 L196.492253,700.668256 C196.492253,700.831148 196.553834,700.972189 196.66905,701.095352 C196.802145,701.212555 196.957092,701.274136 197.159714,701.274136 C197.344458,701.274136 197.50735,701.212555 197.640445,701.095352 C197.779499,700.972189 197.849027,700.831148 197.849027,700.668256 L197.849027,694.267779 L199.456099,694.267779 L199.456099,702.483909 L197.408025,702.483909 L197.437823,701.816448 C197.251093,702.088598 197.074295,702.299166 196.895511,702.446166 C196.684942,702.577275 196.452523,702.646802 196.188319,702.646802 C195.886373,702.646802 195.630115,702.577275 195.427493,702.446166 C195.250695,702.321017 195.093762,702.142233 194.962654,701.901867 L194.962654,701.901867 Z M194.100516,710.88081 C194.311085,710.88081 194.497815,710.950338 194.668653,711.0735 C194.839491,711.206595 194.924911,711.34565 194.924911,711.508542 L194.924911,716.180771 C194.924911,716.343663 194.839491,716.482718 194.668653,716.607867 C194.497815,716.723083 194.311085,716.784664 194.100516,716.784664 C193.883989,716.784664 193.689313,716.723083 193.518474,716.607867 C193.355582,716.482718 193.272149,716.343663 193.272149,716.180771 L193.272149,711.508542 C193.272149,711.34565 193.355582,711.206595 193.518474,711.0735 C193.689313,710.950338 193.883989,710.88081 194.100516,710.88081 L194.100516,710.88081 Z M196.32936,715.839094 L196.32936,711.711164 C196.32936,710.918554 196.049265,710.352404 195.491061,710.018673 C195.304331,709.911402 195.079857,709.855781 194.839491,709.855781 C194.396504,709.855781 193.891935,710.066349 193.309893,710.477553 L193.309893,707.380612 L191.454509,707.380612 L191.454509,718.034168 L192.992054,717.996424 L193.107271,717.328963 C193.603894,717.748113 194.054827,718.00437 194.450139,718.097735 C194.845451,718.191101 195.179182,718.151371 195.459277,717.988478 C195.731426,717.81764 195.947954,717.545491 196.1029,717.158125 C196.251887,716.778705 196.32936,716.335717 196.32936,715.839094 L196.32936,715.839094 Z M190.306317,700.529201 C190.306317,700.745729 190.391736,700.932459 190.554629,701.103298 C190.709575,701.26619 190.904251,701.351609 191.128725,701.351609 C191.347239,701.351609 191.539928,701.274136 191.710767,701.111244 C191.873659,700.956297 191.959078,700.753675 191.959078,700.529201 L191.959078,696.160906 C191.959078,695.912594 191.873659,695.709972 191.710767,695.54708 C191.539928,695.376242 191.347239,695.290822 191.136671,695.290822 C190.920143,695.290822 190.725467,695.376242 190.562574,695.54708 C190.391736,695.709972 190.306317,695.912594 190.306317,696.160906 L190.306317,700.529201 Z M188.653556,697.247517 C188.653556,696.508542 188.723083,695.896702 188.856178,695.415971 C189.01907,694.919348 189.283274,694.56178 189.646802,694.345252 C190.012316,694.073103 190.469209,693.940008 191.03536,693.940008 C191.531983,693.940008 191.945173,694.025427 192.284863,694.18236 C192.618594,694.313468 192.898689,694.553834 193.107271,694.887565 C193.272149,695.12793 193.395312,695.408025 193.472785,695.717918 C193.550258,696.051649 193.589988,696.502582 193.589988,697.068733 L193.589988,699.178387 C193.589988,699.947159 193.550258,700.497418 193.472785,700.831148 C193.441001,701.141041 193.309893,701.482718 193.069527,701.864124 C192.829162,702.197855 192.564958,702.414382 192.284863,702.523639 C191.945173,702.686532 191.563766,702.764005 191.136671,702.764005 C190.695669,702.764005 190.292412,702.702424 189.926897,702.561383 C189.593166,702.454112 189.336909,702.259436 189.181963,701.97934 C189.01907,701.762813 188.885975,701.460866 188.778705,701.071514 C188.701232,700.707986 188.653556,700.163687 188.653556,699.418752 L188.653556,697.247517 Z M190.353993,710.159714 L188.498609,710.159714 L188.498609,715.139849 C188.498609,715.497418 188.498609,715.777513 188.514501,715.970203 C188.530393,716.164879 188.498609,716.288041 188.437028,716.343663 C188.383393,716.560191 188.220501,716.715137 187.956297,716.816448 C187.70004,716.917759 187.505364,716.778705 187.366309,716.381406 C187.334525,716.327771 187.334525,716.196663 187.350417,715.994041 C187.358363,715.785459 187.366309,715.513309 187.366309,715.171633 L187.326579,710.159714 L185.473182,710.159714 L185.518872,715.09416 C185.518872,715.481526 185.50298,715.80731 185.495034,716.071514 C185.481128,716.335717 185.489074,716.530393 185.518872,716.661502 C185.54271,716.878029 185.566547,717.112435 185.596345,717.360747 C185.620183,717.609058 185.743345,717.809694 185.977751,717.956694 C186.194279,718.089789 186.44259,718.159317 186.730632,718.159317 C187.024632,718.159317 187.304728,718.105681 187.582837,718.012316 C187.854986,717.918951 188.111244,717.785856 188.343663,717.622964 C188.576083,717.460072 188.746921,717.275328 188.856178,717.088598 L188.816448,718.073897 L190.353993,718.111641 L190.353993,710.159714 Z M184.525626,696.417163 L182.050457,691 L184.207787,691 L185.433453,695.050457 L186.667064,691 L188.816448,691 L186.496226,696.417163 L186.496226,702.724275 L184.525626,702.724275 L184.525626,696.417163 Z M183.617799,718.111641 L183.617799,708.785062 L185.83671,708.785062 L185.83671,707.380612 L179.855383,707.380612 L179.855383,708.747318 L181.770362,708.747318 L181.770362,718.111641 L183.617799,718.111641 Z M204.911005,708.288439 L204.911005,717.126341 C204.911005,717.678586 204.793802,718.183155 204.561383,718.647994 C204.328963,719.112833 204.011124,719.516091 203.607867,719.865713 C203.204609,720.223282 202.737783,720.495431 202.203417,720.696067 C201.67501,720.890743 201.100914,721 200.487088,721 L182.408025,721 C181.810091,721 181.243941,720.890743 180.707588,720.696067 C180.181168,720.495431 179.714342,720.223282 179.311085,719.865713 C178.907827,719.516091 178.589988,719.112833 178.349623,718.647994 C178.117203,718.183155 178,717.678586 178,717.126341 L178,708.288439 C178,707.762018 178.117203,707.265395 178.349623,706.782678 C178.589988,706.309893 178.907827,705.898689 179.311085,705.557012 C179.714342,705.215336 180.181168,704.937227 180.707588,704.726659 C181.243941,704.526023 181.810091,704.416766 182.415971,704.416766 L200.487088,704.416766 C201.085022,704.416766 201.659118,704.526023 202.195471,704.726659 C202.729837,704.937227 203.204609,705.215336 203.607867,705.557012 C204.011124,705.898689 204.328963,706.309893 204.561383,706.782678 C204.801748,707.265395 204.911005,707.762018 204.911005,708.288439 L204.911005,708.288439 Z" id="btn_youtube_white"></path>
        </g>
    </g>
</svg>