<?xml version="1.0" encoding="UTF-8" standalone="no"?>
<svg width="25px" height="25px" viewBox="0 0 25 25" version="1.1" xmlns="http://www.w3.org/2000/svg" xmlns:xlink="http://www.w3.org/1999/xlink">
    <!-- Generator: Sketch 40.2 (33826) - http://www.bohemiancoding.com/sketch -->
    <title>btn_facebook_black</title>
    <desc>Created with Sketch.</desc>
    <defs></defs>
    <g id="紅磚屋_UI-KIT" stroke="none" stroke-width="1" fill="none" fill-rule="evenodd">
        <g id="UI-KIT" transform="translate(-230.000000, -693.000000)" fill="#4A4A4A">
            <path d="M245.608715,705.938977 L243.575259,705.938977 L243.575259,713.189185 L240.561262,713.189185 L240.561262,705.938977 L239.128213,705.938977 L239.128213,703.377489 L240.561262,703.377489 L240.561262,701.720389 C240.561262,700.535307 241.124537,698.679329 243.602321,698.679329 L245.834655,698.68877 L245.834655,701.174735 L244.214687,701.174735 C243.949098,701.174735 243.575259,701.30753 243.575259,701.872693 L243.575259,703.380007 L245.871787,703.380007 L245.608715,705.938977 Z M242.498427,693 C235.607583,693 230,698.608212 230,705.499056 C230,712.392417 235.607583,718 242.498427,718 C249.391788,718 255,712.392417 255,705.499056 C255,698.608212 249.391788,693 242.498427,693 L242.498427,693 Z" id="btn_facebook_black"></path>
        </g>
    </g>
</svg>