<?xml version="1.0" encoding="UTF-8" standalone="no"?>
<svg width="17px" height="17px" viewBox="0 0 17 17" version="1.1" xmlns="http://www.w3.org/2000/svg" xmlns:xlink="http://www.w3.org/1999/xlink">
    <!-- Generator: Sketch 41.2 (35397) - http://www.bohemiancoding.com/sketch -->
    <title>Rectangle 3</title>
    <desc>Created with Sketch.</desc>
    <defs></defs>
    <g id="紅磚屋_UI-KIT" stroke="none" stroke-width="1" fill="none" fill-rule="evenodd">
        <g id="UI-KIT" transform="translate(-77.000000, -831.000000)">
            <g id="btn_footer_cellphone" transform="translate(77.000000, 831.000000)">
                <rect id="Rectangle-3" fill="#FFFFFF" opacity="0" x="0" y="0" width="17" height="17"></rect>
                <path d="M5.06666667,13.3 L12.3200002,13.3 L12.3200002,2.63333333 L5.06666667,2.63333333 L5.06666667,13.3 Z M8.80700952,15.4478095 C8.50849524,15.4478095 8.26666667,15.205981 8.26666667,14.9070095 C8.26666667,14.6080381 8.50849524,14.3666667 8.80700952,14.3666667 C9.10552381,14.3666667 9.34735238,14.6080381 9.34735238,14.9070095 C9.34735238,15.205981 9.10552381,15.4478095 8.80700952,15.4478095 L8.80700952,15.4478095 Z M7.33074286,1.56666667 L9.6128,1.56666667 C9.68502857,1.56666667 9.74354286,1.62518095 9.74354286,1.69786667 C9.74354286,1.77009524 9.68502857,1.82860952 9.6128,1.82860952 L7.33074286,1.82860952 C7.25851429,1.82860952 7.2,1.77009524 7.2,1.69786667 C7.2,1.62518095 7.25851429,1.56666667 7.33074286,1.56666667 L7.33074286,1.56666667 Z M12.2139429,0.5 L5.08068571,0.5 C4.4864,0.5 4,0.985942857 4,1.58068571 L4,15.4188571 C4,16.0136 4.4864,16.5 5.08068571,16.5 L12.2139429,16.5 C12.8082286,16.5 13.2946286,16.0145143 13.2946286,15.4193143 L13.2946286,1.58068571 C13.2946286,0.985942857 12.8082286,0.5 12.2139429,0.5 L12.2139429,0.5 Z" fill="#000000"></path>
            </g>
        </g>
    </g>
</svg>