<?xml version="1.0" encoding="UTF-8" standalone="no"?>
<svg width="30px" height="30px" viewBox="0 0 30 30" version="1.1" xmlns="http://www.w3.org/2000/svg" xmlns:xlink="http://www.w3.org/1999/xlink">
    <!-- Generator: Sketch 40.2 (33826) - http://www.bohemiancoding.com/sketch -->
    <title>btn_facebook_white</title>
    <desc>Created with Sketch.</desc>
    <defs></defs>
    <g id="紅磚屋_UI-KIT" stroke="none" stroke-width="1" fill="none" fill-rule="evenodd">
        <g id="UI-KIT" transform="translate(-128.000000, -691.000000)" fill="#FFFFFF">
            <path d="M146.730458,706.526773 L144.29031,706.526773 L144.29031,715.227022 L140.673514,715.227022 L140.673514,706.526773 L138.953855,706.526773 L138.953855,703.452987 L140.673514,703.452987 L140.673514,701.464466 C140.673514,700.042368 141.349445,697.815195 144.322785,697.815195 L147.001586,697.826524 L147.001586,700.809682 L145.057624,700.809682 C144.738917,700.809682 144.29031,700.969036 144.29031,701.647232 L144.29031,703.456008 L147.046145,703.456008 L146.730458,706.526773 Z M142.998112,691 C134.729099,691 128,697.729854 128,705.998867 C128,714.270901 134.729099,721 142.998112,721 C151.270146,721 158,714.270901 158,705.998867 C158,697.729854 151.270146,691 142.998112,691 L142.998112,691 Z" id="btn_facebook_white"></path>
        </g>
    </g>
</svg>