<?xml version="1.0" encoding="UTF-8" standalone="no"?>
<svg width="17px" height="17px" viewBox="0 0 17 17" version="1.1" xmlns="http://www.w3.org/2000/svg" xmlns:xlink="http://www.w3.org/1999/xlink">
    <!-- Generator: Sketch 41.2 (35397) - http://www.bohemiancoding.com/sketch -->
    <title>Rectangle 13</title>
    <desc>Created with Sketch.</desc>
    <defs></defs>
    <g id="紅磚屋_UI-KIT" stroke="none" stroke-width="1" fill="none" fill-rule="evenodd">
        <g id="UI-KIT" transform="translate(-110.000000, -778.000000)" fill="#FFFFFF">
            <g id="btn_footer_mail_white" transform="translate(110.000000, 778.000000)">
                <rect id="Rectangle-13" opacity="0" x="0" y="0" width="17" height="17"></rect>
                <path d="M1.77260718,3.82041833 C1.60254508,4.09034214 1.5,4.40741245 1.5,4.75007574 L1.5,11.7499748 C1.5,12.0568887 1.5859255,12.3414123 1.72473934,12.5917446 L6.1445938,7.64511316 L1.77260718,3.82041833 Z M10.1962208,8.22189316 L8.78791392,9.45491549 C8.70553738,9.52667396 8.60296345,9.56250992 8.50001443,9.56250992 C8.39700769,9.56250992 8.29443376,9.52667396 8.21205723,9.45491549 L6.80343294,8.22183545 L2.32714118,13.2308192 C2.5954492,13.3991501 2.90989384,13.4999928 3.24996033,13.4999928 L13.7500397,13.4999928 C14.0900485,13.4999928 14.4046374,13.3991501 14.6728588,13.2308192 L10.1962208,8.22189316 Z M8.50001443,8.5439551 L14.5841345,3.22049789 C14.3344658,3.0838192 14.053318,3 13.7500397,3 L3.24998918,3 C2.94633572,3 2.66510137,3.0838192 2.41644254,3.22049789 L8.50001443,8.5439551 Z M15.5,11.7499459 C15.5,12.0568598 15.4136705,12.3413834 15.2753761,12.5917158 L10.8550023,7.64594991 L15.2274505,3.82044719 C15.3975415,4.09037099 15.5,4.4074413 15.5,4.75007574 L15.5,11.7499459 L15.5,11.7499459 Z"></path>
            </g>
        </g>
    </g>
</svg>