<?xml version="1.0" encoding="UTF-8" standalone="no"?>
<svg width="50px" height="50px" viewBox="0 0 50 50" version="1.1" xmlns="http://www.w3.org/2000/svg" xmlns:xlink="http://www.w3.org/1999/xlink">
    <!-- Generator: Sketch 40.2 (33826) - http://www.bohemiancoding.com/sketch -->
    <title>btn_pic_left</title>
    <desc>Created with Sketch.</desc>
    <defs></defs>
    <g id="紅磚屋_UI-KIT" stroke="none" stroke-width="1" fill="none" fill-rule="evenodd" fill-opacity="0.65">
        <g id="UI-KIT" transform="translate(-223.000000, -611.000000)" fill="#FFFFFF">
            <path d="M248,661 C261.807119,661 273,649.807119 273,636 C273,622.192881 261.807119,611 248,611 C234.192881,611 223,622.192881 223,636 C223,649.807119 234.192881,661 248,661 Z M255.655172,653.637931 C255.896552,653.87931 256.198276,654 256.530172,654 C256.862069,654 257.163793,653.87931 257.405172,653.637931 C257.887931,653.155172 257.887931,652.37069 257.405172,651.887931 L242.017241,636.5 L257.405172,621.112069 C257.887931,620.62931 257.887931,619.844828 257.405172,619.362069 C256.922414,618.87931 256.137931,618.87931 255.655172,619.362069 L239.362069,635.625 C238.87931,636.107759 238.87931,636.892241 239.362069,637.375 L255.655172,653.637931 Z" id="btn_pic_left"></path>
        </g>
    </g>
</svg>