<?xml version="1.0" encoding="UTF-8" standalone="no"?>
<svg width="25px" height="25px" viewBox="0 0 25 25" version="1.1" xmlns="http://www.w3.org/2000/svg" xmlns:xlink="http://www.w3.org/1999/xlink">
    <!-- Generator: Sketch 40.2 (33826) - http://www.bohemiancoding.com/sketch -->
    <title>btn_map_normal</title>
    <desc>Created with Sketch.</desc>
    <defs></defs>
    <g id="紅磚屋_UI-KIT" stroke="none" stroke-width="1" fill="none" fill-rule="evenodd">
        <g id="UI-KIT" transform="translate(-559.000000, -693.000000)">
            <g id="btn_map_normal" transform="translate(559.000000, 693.000000)">
                <path d="M12.9310547,18.9655273 C12.9310547,15.646582 15.646582,12.9310547 18.9655273,12.9310547 C20.646582,12.9310547 22.198291,13.6207031 23.2758789,14.7414062 L23.2758789,0 L0,0 L0,23.2758789 L14.7413574,23.2758789 C13.6207031,22.198291 12.9310547,20.6465332 12.9310547,18.9655273" id="Fill-1" fill="#43B05B"></path>
                <path d="M18.8362305,12.9310547 L18.9655273,12.9310547 C20.646582,12.9310547 22.198291,13.6207031 23.2758789,14.7414062 L23.2758789,11.6379395 L18.75,7.24135742 L23.2758789,2.75859375 L23.2758789,0 L20.5172363,0 L8.62070313,11.8965332 L8.62070313,0 L5.17241211,0 L5.17241211,5.17241211 L0,5.17241211 L0,8.62070313 L5.17241211,8.62070313 L5.17241211,15.3448242 L4.52587891,15.9913574 L0,20.5172363 L0,23.2758789 L2.75864258,23.2758789 L15.9914063,10.0431152 L18.8362305,12.9310547 Z" id="Fill-3" fill="#F0CE49"></path>
                <path d="M25,18.9655273 C25,15.646582 22.2844727,12.9310547 18.9655273,12.9310547 C15.646582,12.9310547 12.9310547,15.646582 12.9310547,18.9655273 C12.9310547,22.2844727 15.6465332,25 18.9655273,25 C22.2845215,25 25,22.2844727 25,18.9655273" id="Fill-5" fill="#ED7161"></path>
                <path d="M18.9655273,22.4137695 C18.7068848,22.4137695 18.5344727,22.2413574 18.5344727,21.9827148 L18.5344727,15.948291 C18.5344727,15.6896484 18.7068848,15.5172363 18.9655273,15.5172363 C19.2241699,15.5172363 19.396582,15.6896484 19.396582,15.948291 L19.396582,21.9827637 C19.3965332,22.2413574 19.2241211,22.4137695 18.9655273,22.4137695" id="Fill-7" fill="#FFFFFF"></path>
                <path d="M20.6896484,18.1034668 C20.5603516,18.1034668 20.4741211,18.0603516 20.3879395,17.9741699 L18.9655273,16.5517578 L17.5431152,17.9741699 C17.3707031,18.146582 17.1120605,18.146582 16.9396484,17.9741699 C16.7672363,17.8017578 16.7672363,17.5431152 16.9396484,17.3707031 L18.6637695,15.646582 C18.8361816,15.4741699 19.0948242,15.4741699 19.2672363,15.646582 L20.9913574,17.3707031 C21.1637695,17.5431152 21.1637695,17.8017578 20.9913574,17.9741699 C20.9051758,18.0603516 20.8189453,18.1034668 20.6896484,18.1034668" id="Fill-9" fill="#FFFFFF"></path>
            </g>
        </g>
    </g>
</svg>