<?xml version="1.0" encoding="UTF-8" standalone="no"?>
<svg width="47px" height="10px" viewBox="0 0 47 10" version="1.1" xmlns="http://www.w3.org/2000/svg" xmlns:xlink="http://www.w3.org/1999/xlink">
    <!-- Generator: Sketch 41.2 (35397) - http://www.bohemiancoding.com/sketch -->
    <title>doit_logo</title>
    <desc>Created with Sketch.</desc>
    <defs>
        <polygon id="path-1" points="0 9.25153846 46.0523077 9.25153846 46.0523077 0 0 0"></polygon>
    </defs>
    <g id="紅磚屋_UI-KIT" stroke="none" stroke-width="1" fill="none" fill-rule="evenodd">
        <g id="UI-KIT" transform="translate(-415.000000, -830.000000)">
            <g id="doit_logo" transform="translate(415.000000, 830.000000)">
                <path d="M15.4044231,2.49844615 C15.3589615,2.30298462 15.2973462,2.11836923 15.2225769,1.94506154 C13.9778077,-0.933784615 10.3203462,-0.143630769 8.10819231,1.29152308 C8.10819231,1.29152308 8.14765385,1.3476 8.20765385,1.44152308 C8.24688462,1.49944615 8.38673077,1.74198462 8.3985,1.76529231 C8.54826923,2.03736923 8.70773077,2.38813846 8.7765,2.72667692 C9.43188462,2.40013846 10.1521154,2.18875385 10.8529615,2.11698462 C11.6491154,2.03552308 12.5638846,2.17329231 13.2880385,2.53052308 C13.7283462,2.74744615 13.9812692,3.04329231 14.1656538,3.31652308 C14.2011923,3.37952308 14.3165769,3.59113846 14.3890385,3.59113846 C14.3890385,3.59113846 14.8009615,3.64375385 14.3890385,3.05090769 C14.1231923,2.66852308 14.5983462,2.69390769 14.7663462,3.13490769 C14.8759615,3.42429231 14.9883462,3.67398462 14.9883462,4.06375385 C14.9883462,4.34183077 15.2661923,4.48144615 15.3312692,4.1916 C15.4741154,3.55767692 15.5410385,3.08367692 15.4044231,2.49844615 L15.4044231,2.49844615 Z" id="Fill-1" fill="#323232"></path>
                <polygon id="Fill-3" fill="#323232" points="8.56281831 3.23224615 8.41843846 3.23224615 8.41843846 3.3800891 8.41843846 3.52502366 8.41843846 3.73224615 8.91843846 3.73224615 8.91843846 3.23224615 8.70768265 3.23224615"></polygon>
                <mask id="mask-2" fill="white">
                    <use xlink:href="#path-1"></use>
                </mask>
                <g id="Clip-6"></g>
                <polygon id="Fill-5" fill="#323232" mask="url(#mask-2)" points="7.46630769 4.68753846 7.96630769 4.68753846 7.96630769 4.18753846 7.46630769 4.18753846"></polygon>
                <path d="M6.66256154,5.61611538 C6.62748462,5.91957692 6.63925385,6.24657692 6.69948462,6.60865385 L6.70433077,6.62665385 C6.73940769,6.74942308 6.79571538,6.86526923 6.87186923,6.97073077 C6.94456154,7.07134615 7.0341,7.16180769 7.13771538,7.24396154 C7.1961,7.17773077 7.25725385,7.11265385 7.31217692,7.04457692 C7.36502308,6.97903846 7.41648462,6.91257692 7.46633077,6.84542308 L7.46633077,6.5685 L7.46633077,6.09219231 L6.99002308,6.09219231 L6.99002308,5.61611538 L6.66256154,5.61611538 Z" id="Fill-7" fill="#323232" mask="url(#mask-2)"></path>
                <path d="M4.98362308,7.13000769 C4.71362308,7.2867 4.43646923,7.40693077 4.14916154,7.47639231 C3.92093077,7.53131538 3.68716154,7.55900769 3.44808462,7.55900769 L2.85362308,7.55900769 L2.7987,7.55900769 L2.33093077,7.55900769 C1.97393077,7.55900769 1.74293077,7.27331538 1.8177,6.92439231 L2.01316154,6.01285385 L2.04731538,5.85246923 L2.0727,5.73431538 L2.09808462,5.61616154 L2.80539231,2.31477692 C2.86054615,2.05700769 3.06800769,1.83408462 3.31631538,1.73485385 C3.40423846,1.69977692 3.49723846,1.67993077 3.59046923,1.67993077 L3.5907,1.67993077 L4.04623846,1.67993077 L4.04693077,1.67993077 C4.07923846,1.67993077 4.11362308,1.68062308 4.14916154,1.68154615 L4.14916154,1.67993077 L4.69539231,1.67993077 C4.88854615,1.67993077 5.07062308,1.69816154 5.24208462,1.73485385 C5.33116154,1.75400769 5.41723846,1.77800769 5.50031538,1.80685385 C5.52108462,1.81400769 5.54139231,1.82185385 5.5617,1.8297 C5.73293077,1.89523846 5.8917,1.98154615 6.03777692,2.09023846 C6.11554615,2.14816154 6.18916154,2.21300769 6.25977692,2.28316154 C6.33985385,2.36254615 6.41577692,2.44931538 6.48639231,2.54439231 C6.49608462,2.55754615 6.50462308,2.5707 6.51385385,2.58385385 C6.53162308,2.60900769 6.54685385,2.63531538 6.5637,2.66093077 C6.58516154,2.69346923 6.60800769,2.72554615 6.62739231,2.75923846 C6.71508462,2.91016154 6.78385385,3.0687 6.8337,3.23531538 L6.99016154,3.23531538 L7.46623846,3.23531538 L7.46623846,2.75923846 L6.99016154,2.75923846 L6.99016154,2.28316154 L7.46623846,2.28316154 L7.46623846,2.75923846 L7.66677692,2.75923846 L7.80477692,2.75923846 L7.94231538,2.75923846 L7.94231538,2.62146923 L7.94231538,2.4837 L7.94231538,2.28316154 L8.37223846,2.28316154 C8.31362308,2.11862308 8.24254615,1.96008462 8.15923846,1.80685385 C8.14608462,1.78285385 8.13316154,1.75862308 8.11931538,1.73485385 C8.0577,1.62754615 7.98639231,1.52485385 7.91254615,1.42331538 C7.89731538,1.40208462 7.88554615,1.37946923 7.86985385,1.3587 C7.21100769,0.452930769 6.27223846,-6.92307694e-05 5.05354615,-6.92307694e-05 L4.14916154,-6.92307694e-05 L3.75477692,-6.92307694e-05 L2.98031538,-6.92307694e-05 C2.26608462,-6.92307694e-05 1.56039231,0.571776923 1.41200769,1.27031538 L1.3527,1.55023846 L1.31346923,1.73485385 L1.2987,1.80408462 L0.489392308,5.61616154 L0.489392308,5.61616154 L0.464469231,5.73431538 L0.439315385,5.85246923 L0.0989307692,7.45516154 L0.0553153846,7.66100769 L0.0387,7.73923846 L0.0322384615,7.76946923 C-0.140838462,8.58454615 0.399392308,9.25146923 1.2327,9.25146923 L1.5747,9.25146923 L2.44054615,9.25146923 L3.0897,9.25146923 C3.78062308,9.25146923 4.4457,9.10331538 5.08539231,8.80839231 C5.24577692,8.73454615 5.40454615,8.65054615 5.5617,8.55800769 C5.60877692,8.53031538 5.65608462,8.50239231 5.70293077,8.47308462 C5.74216154,8.44839231 5.7807,8.42000769 5.8197,8.39393077 C5.71585385,8.29862308 5.61708462,8.1987 5.52546923,8.09185385 C5.2767,7.80085385 5.10108462,7.47685385 4.98362308,7.13000769" id="Fill-8" fill="#323232" mask="url(#mask-2)"></path>
                <polygon id="Fill-9" fill="#323232" mask="url(#mask-2)" points="7.93703077 5.61080769 7.46626154 5.61080769 7.46626154 5.14003846 6.99018462 5.14003846 6.99018462 5.61611538 7.46095385 5.61611538 7.46095385 6.08688462 7.93703077 6.08688462"></polygon>
                <polygon id="Fill-10" fill="#323232" mask="url(#mask-2)" points="8.44245385 5.13999231 8.16809611 5.13999231 7.94245385 5.13999231 7.94245385 5.6288435 7.94245385 5.63999231 8.44245385 5.63999231"></polygon>
                <polygon id="Fill-11" fill="#323232" mask="url(#mask-2)" points="8.89476923 5.16384615 9.39476923 5.16384615 9.39476923 4.66384615 8.89476923 4.66384615"></polygon>
                <path d="M13.0264385,3.43216154 C12.9982846,3.43216154 12.9770538,3.4497 12.9652846,3.49146923 C12.9281308,3.62646923 12.9292846,3.71531538 13.0785923,4.10508462 C13.2322846,4.50639231 13.1847462,4.65846923 13.0968231,4.65846923 C13.0370538,4.65846923 12.9585923,4.58808462 12.9122077,4.47800769 C12.8965154,4.43993077 12.8655923,4.42008462 12.8328231,4.42008462 C12.7635923,4.42008462 12.6851308,4.5087 12.7209,4.70323846 C12.8217462,5.25246923 12.7975154,5.87139231 12.4855154,6.34885385 C12.1899,6.80093077 11.7327462,7.12793077 11.2629,7.37993077 C10.5673615,7.75331538 9.78043846,8.00485385 8.98613077,8.00485385 C8.86059231,8.00485385 8.73528462,7.99862308 8.60974615,7.9857 C8.05682308,7.92800769 7.43282308,7.77893077 6.98397692,7.41893077 C6.87136154,7.3287 6.76659231,7.22854615 6.68051538,7.10900769 C6.58913077,6.98277692 6.5199,6.84131538 6.47720769,6.69131538 C6.47420769,6.6807 6.47120769,6.66985385 6.46843846,6.65900769 C6.43520769,6.46216154 6.4149,6.27385385 6.40797692,6.09223846 C6.38743846,5.55523846 6.48459231,5.0787 6.71928462,4.6257 C6.74028462,4.58531538 6.76474615,4.54700769 6.78713077,4.50754615 C6.80951538,4.46808462 6.83097692,4.42816154 6.85497692,4.38939231 C7.06613077,4.04923846 7.33543846,3.74254615 7.64536154,3.47162308 L7.46628462,3.47162308 L6.98997692,3.47162308 L6.83374615,3.47162308 L6.65766923,3.47162308 L6.60736154,3.30316154 C6.56328462,3.15523846 6.50120769,3.01216154 6.42320769,2.87785385 C6.41882308,2.87023846 6.41328462,2.86308462 6.4089,2.8557 C6.04405385,3.31839231 5.71636154,3.84131538 5.47405385,4.38939231 C5.45674615,4.42885385 5.43920769,4.46808462 5.42259231,4.50754615 C5.40620769,4.54700769 5.38659231,4.58600769 5.37113077,4.6257 C5.06166923,5.41862308 4.95574615,6.24685385 5.19159231,7.00123846 C5.29451538,7.33054615 5.45582308,7.64716154 5.70505385,7.93816154 C5.80359231,8.05354615 5.9109,8.15808462 6.02213077,8.25685385 C6.67174615,8.83354615 7.52236154,9.13839231 8.41936154,9.22493077 C8.60466923,9.2427 8.79182308,9.25146923 8.97943846,9.25146923 C10.1122846,9.25146923 11.2645154,8.93462308 12.1301308,8.41146923 C13.1049,7.82231538 13.8925154,6.94308462 14.0651308,5.75554615 C14.0829,5.6337 14.0916692,5.5107 14.0907462,5.38654615 C14.0861308,4.78885385 13.8742846,4.21446923 13.4404385,3.78108462 C13.3024385,3.64308462 13.1238231,3.43216154 13.0264385,3.43216154" id="Fill-12" fill="#323232" mask="url(#mask-2)"></path>
                <polygon id="Fill-13" fill="#323232" mask="url(#mask-2)" points="7.94238462 3.00718509 7.94238462 3.25524711 7.94238462 3.25912308 8.44238462 3.25912308 8.44238462 2.92433626 8.44238462 2.75912308 8.19056687 2.75912308 8.06647574 2.75912308 7.94238462 2.75912308 7.94238462 2.88291184"></polygon>
                <path d="M20.0343,7.25653846 L20.8897615,7.25653846 C21.5084538,7.25653846 21.9568385,7.21846154 22.2346846,7.14184615 C22.5123,7.06546154 22.7666077,6.92307692 22.9978385,6.71423077 C23.3296846,6.41215385 23.6091462,6.00969231 23.8366846,5.50638462 C24.0639923,5.00307692 24.1777615,4.41046154 24.1777615,3.72830769 C24.1777615,3.14653846 24.0836077,2.70969231 23.8953,2.41707692 C23.7069923,2.12423077 23.4750692,1.92969231 23.1990692,1.83276923 C23.0052231,1.76561538 22.6604538,1.73192308 22.1647615,1.73192308 L21.1863,1.73192308 L20.0343,7.25653846 Z M18.0716077,8.57630769 L19.7883,0.378923077 L21.9969923,0.378923077 C22.6119923,0.378923077 23.0052231,0.388153846 23.1766846,0.406846154 C23.5159154,0.440538462 23.8189154,0.509538462 24.0854538,0.613615385 C24.3519923,0.718153846 24.5943,0.864461538 24.8123769,1.05253846 C25.0304538,1.24084615 25.2185308,1.46723077 25.3770692,1.73192308 C25.5356077,1.99684615 25.6576846,2.30146154 25.7435308,2.64623077 C25.8291462,2.99123077 25.8720692,3.36853846 25.8720692,3.77861538 C25.8720692,4.662 25.7033769,5.44592308 25.3659923,6.12992308 C25.0286077,6.81392308 24.6044538,7.35715385 24.0939923,7.75984615 C23.7026077,8.073 23.1972231,8.30423077 22.5785308,8.45330769 C22.2279923,8.53523077 21.6893769,8.57630769 20.9624538,8.57630769 L18.0716077,8.57630769 Z" id="Fill-14" fill="#323232" mask="url(#mask-2)"></path>
                <path d="M28.5113308,5.32749231 C28.5113308,5.89033846 28.6825615,6.36203077 29.0257154,6.74210769 C29.3686385,7.12241538 29.8195615,7.31233846 30.3789462,7.31233846 C30.8335615,7.31233846 31.2708692,7.16256923 31.6901769,6.86233846 C32.1094846,6.56233846 32.4561,6.10749231 32.7302538,5.49803077 C33.0041769,4.88833846 33.1412538,4.2948 33.1412538,3.71695385 C33.1412538,3.07218462 32.9679462,2.56610769 32.6211,2.19895385 C32.2744846,1.8318 31.8325615,1.64810769 31.2960231,1.64810769 C30.4721769,1.64810769 29.8020231,2.03210769 29.2857923,2.79987692 C28.7693308,3.56787692 28.5113308,4.41041538 28.5113308,5.32749231 M26.8449462,5.36095385 C26.8449462,4.87633846 26.9176385,4.36564615 27.0630231,3.82887692 C27.2531769,3.10956923 27.5430231,2.48510769 27.9325615,1.95572308 C28.3218692,1.42633846 28.8131769,1.00795385 29.4057923,0.700338462 C29.9986385,0.392723077 30.6731769,0.239030769 31.4301,0.239030769 C32.4441,0.239030769 33.2631,0.554261538 33.8875615,1.18403077 C34.5120231,1.81403077 34.8242538,2.64895385 34.8242538,3.68903077 C34.8242538,4.55395385 34.6211769,5.39095385 34.2147923,6.1998 C33.8084077,7.00864615 33.2566385,7.63126154 32.5594846,8.06741538 C31.8623308,8.50356923 31.0740231,8.72164615 30.1943308,8.72164615 C29.4300231,8.72164615 28.7889462,8.54833846 28.2708692,8.20149231 C27.7527923,7.85487692 27.3854077,7.42541538 27.1694077,6.91264615 C26.9529462,6.40010769 26.8449462,5.88295385 26.8449462,5.36095385" id="Fill-15" fill="#323232" mask="url(#mask-2)"></path>
                <polygon id="Fill-16" fill="#323232" mask="url(#mask-2)" points="35.1484615 8.57619231 36.8651538 0.378807692 38.5481538 0.378807692 36.8372308 8.57619231"></polygon>
                <polygon id="Fill-17" fill="#323232" mask="url(#mask-2)" points="41.9704615 8.57619231 40.2816923 8.57619231 41.7131538 1.74865385 39.3087692 1.74865385 39.594 0.378807692 46.0523077 0.378807692 45.7670769 1.74865385 43.3963846 1.74865385"></polygon>
            </g>
        </g>
    </g>
</svg>