<?xml version="1.0" encoding="UTF-8" standalone="no"?>
<svg width="30px" height="30px" viewBox="0 0 30 30" version="1.1" xmlns="http://www.w3.org/2000/svg" xmlns:xlink="http://www.w3.org/1999/xlink">
    <!-- Generator: Sketch 40.2 (33826) - http://www.bohemiancoding.com/sketch -->
    <title>icon_title_normal</title>
    <desc>Created with Sketch.</desc>
    <defs></defs>
    <g id="紅磚屋_UI-KIT" stroke="none" stroke-width="1" fill="none" fill-rule="evenodd">
        <g id="UI-KIT" transform="translate(-318.000000, -691.000000)" fill="#B62805">
            <path d="M333,721 C341.284271,721 348,714.284271 348,706 C348,697.715729 341.284271,691 333,691 C324.715729,691 318,697.715729 318,706 C318,714.284271 324.715729,721 333,721 Z M330.725402,696.992926 C330.596785,696.864309 330.436013,696.8 330.259164,696.8 C330.082315,696.8 329.921543,696.864309 329.792926,696.992926 C329.535691,697.250161 329.535691,697.668167 329.792926,697.925402 L337.992283,706.124759 L329.792926,714.324116 C329.535691,714.58135 329.535691,714.999357 329.792926,715.256592 C330.050161,715.513826 330.468167,715.513826 330.725402,715.256592 L339.407074,706.590997 C339.664309,706.333762 339.664309,705.915756 339.407074,705.658521 L330.725402,696.992926 Z" id="icon_title_normal"></path>
        </g>
    </g>
</svg>