<?xml version="1.0" encoding="UTF-8" standalone="no"?>
<svg width="50px" height="41px" viewBox="0 0 50 41" version="1.1" xmlns="http://www.w3.org/2000/svg" xmlns:xlink="http://www.w3.org/1999/xlink">
    <!-- Generator: Sketch 40.2 (33826) - http://www.bohemiancoding.com/sketch -->
    <title>ill_youtong_01</title>
    <desc>Created with Sketch.</desc>
    <defs></defs>
    <g id="紅磚屋_UI-KIT" stroke="none" stroke-width="1" fill="none" fill-rule="evenodd">
        <g id="UI-KIT" transform="translate(-941.000000, -135.000000)">
            <g id="ill_youtong_01" transform="translate(941.000000, 135.000000)">
                <path d="M0,22.6113636 C16.0190083,25.7345041 16.2285124,15.2502066 16.2285124,15.2502066 C16.2285124,15.2502066 8.86570248,8.28657025 0,22.6113636" id="Fill-4" fill="#C8C8C8"></path>
                <path d="M21.1647934,31.1050413 C21.1647934,31.1050413 29.6552893,26.4889256 34.4647934,40.7393388 L21.1647934,31.1050413 Z" id="Fill-7" fill="#B9B925"></path>
                <path d="M21.1647934,31.1050413 C21.1647934,31.1050413 18.9499174,40.1777686 34.4647934,40.7393388 L21.1647934,31.1050413 Z" id="Fill-9" fill="#A29E19"></path>
                <path d="M16.8832231,14.4163223 C16.8832231,14.4163223 16.673719,24.9002066 0.655123967,21.7770661 L16.8832231,14.4163223 Z" id="Fill-11" fill="#B9B925"></path>
                <path d="M16.8832231,14.4163223 C16.8832231,14.4163223 9.52082645,7.45227273 0.655123967,21.7770661 L16.8832231,14.4163223 Z" id="Fill-13" fill="#A29E19"></path>
                <path d="M23.6800413,22.3347521 C23.1023554,22.401281 22.516405,22.5653306 21.9395455,22.7897107 C22.0792149,22.6496281 22.2180579,22.5070661 22.3556612,22.3599587 C26.6928512,17.7508678 14.8928512,13.555 14.1870661,18.6397107 C14.1399587,18.9756612 14.1234298,19.3248347 14.1304545,19.6818595 C13.8329339,19.3426033 13.4990496,19.0066529 13.1226033,18.677314 C9.55442149,15.5558264 4.28830579,25.0516942 7.7527686,26.5182231 C8.09285124,26.662438 8.44119835,26.7802066 8.79491736,26.8769008 C8.38458678,27.0322727 7.98582645,27.2244215 7.60896694,27.4669835 C3.61103306,30.0450826 10.423843,36.873595 13.0829339,34.5690496 C13.3862397,34.3058264 13.662686,34.0029339 13.9147521,33.6752479 C13.9283884,33.9537603 13.9560744,34.2339256 14.0040083,34.5165702 C14.7903719,39.1917769 23.7800413,35.605 22.712686,32.2640909 C22.570124,31.816157 22.3490496,31.3880579 22.077562,30.9818595 C22.4717769,31.1182231 22.8796281,31.2297934 23.3007025,31.305 C28.6874793,32.2632645 28.3358264,21.7954959 23.6800413,22.3347521" id="Fill-15" fill="#FFFFFF"></path>
                <path d="M17.2952479,26.4064463 C17.2952479,26.4064463 21.1200413,22.4969421 24.6130165,22.0940496 C29.2700413,21.5552066 29.621281,32.0229752 24.2349174,31.0638843 C20.1857438,30.3423967 17.2952479,26.4064463 17.2952479,26.4064463" id="Fill-17" fill="#DC5064"></path>
                <path d="M17.2952479,26.4064463 C17.2952479,26.4064463 22.5791322,28.6808264 23.6469008,32.0229752 C24.7134298,35.3642975 15.7245868,38.9506612 14.9382231,34.2758678 C14.2543388,30.2233884 17.2952479,26.4064463 17.2952479,26.4064463" id="Fill-19" fill="#DC5064"></path>
                <path d="M17.2888017,26.7922314 C17.2888017,26.7922314 16.6759917,32.0219835 14.017314,34.3281818 C11.3578099,36.6327273 4.54582645,29.8046281 8.54334711,27.2265289 C12.0057438,24.9934711 17.2888017,26.7922314 17.2888017,26.7922314" id="Fill-21" fill="#DC5064"></path>
                <path d="M17.2952479,26.4064463 C17.2952479,26.4064463 12.4130165,27.8556198 8.68698347,26.2775207 C5.22252066,24.8109917 10.4890496,15.3155372 14.056405,18.4366116 C18.1407025,22.007686 17.2952479,26.4064463 17.2952479,26.4064463" id="Fill-23" fill="#DC5064"></path>
                <path d="M17.2888017,26.7922314 C17.2888017,26.7922314 14.637562,21.8781818 15.1214463,18.398843 C15.8272314,13.3141322 27.626405,17.51 23.2896281,22.1190909 C20.4660744,25.1207438 17.2888017,26.7922314 17.2888017,26.7922314" id="Fill-25" fill="#DC5064"></path>
                <path id="Fill-27" fill="#F7A29B"></path>
                <path d="M17.4231818,27.361405 C17.8665702,27.8585124 18.3120248,28.3556198 18.7558264,28.8531405 C18.8186364,28.9233884 18.9223554,28.8213223 18.8603719,28.7514876 C18.4153306,28.2552066 17.9715289,27.7572727 17.527314,27.2601653 C17.4645041,27.1895041 17.3603719,27.291157 17.4231818,27.361405" id="Fill-29" fill="#F7A29B"></path>
                <path d="M17.6475207,27.0733058 C18.1545455,27.3819835 18.6619835,27.6919008 19.1694215,28.0018182 C19.2487603,28.0497521 19.3243802,27.9257851 19.2442149,27.8761983 C18.7355372,27.5675207 18.2293388,27.2571901 17.7235537,26.9480992 C17.6421488,26.8985124 17.5681818,27.0241322 17.6475207,27.0733058" id="Fill-31" fill="#F7A29B"></path>
                <path id="Fill-33" fill="#F7A29B"></path>
                <path d="M17.8892562,26.2985124 C18.3954545,25.8332231 18.9020661,25.3687603 19.4070248,24.9022314 C19.4764463,24.8398347 19.3756198,24.7352893 19.3057851,24.7985124 C18.8,25.2642149 18.2938017,25.7299174 17.7892562,26.1956198 C17.718595,26.2584298 17.8210744,26.3633884 17.8892562,26.2985124" id="Fill-35" fill="#F7A29B"></path>
                <path d="M17.5272727,25.9863636 C17.8570248,25.3061983 18.1876033,24.6268595 18.5169421,23.9475207 C18.5578512,23.8636364 18.4330579,23.7884298 18.3921488,23.8714876 C18.0619835,24.5520661 17.7330579,25.231405 17.4033058,25.911157 C17.3615702,25.9942149 17.4863636,26.0706612 17.5272727,25.9863636" id="Fill-37" fill="#F7A29B"></path>
                <path id="Fill-39" fill="#F7A29B"></path>
                <path d="M16.7484711,25.9347107 C16.5162397,25.4318182 16.2840083,24.9301653 16.0517769,24.427686 C16.0121074,24.342562 15.8860744,24.4144628 15.9249174,24.4991736 C16.1571488,25.0012397 16.3877273,25.5028926 16.6211983,26.0053719 C16.6596281,26.0909091 16.7877273,26.0194215 16.7484711,25.9347107" id="Fill-41" fill="#F7A29B"></path>
                <path d="M16.5035124,26.1784298 C16.0902893,25.7883471 15.6766529,25.3986777 15.2617769,25.0081818 C15.1956612,24.9445455 15.0894628,25.0449587 15.1576446,25.1102479 C15.5716942,25.4995041 15.9857438,25.8891736 16.3993802,26.2796694 C16.467562,26.343719 16.5733471,26.2433058 16.5035124,26.1784298" id="Fill-43" fill="#F7A29B"></path>
                <path id="Fill-45" fill="#F7A29B"></path>
                <path d="M16.4231818,26.8016942 C15.8620248,26.9872314 15.3000413,27.1711157 14.7388843,27.3566529 C14.6488017,27.3843388 14.6843388,27.5252479 14.7748347,27.4971488 C15.3355785,27.3111983 15.8983884,27.1281405 16.4595455,26.9426033 C16.547562,26.9132645 16.512438,26.7731818 16.4231818,26.8016942" id="Fill-47" fill="#F7A29B"></path>
                <path d="M16.571281,27.1003306 C16.1369835,27.3693388 15.7030992,27.6366942 15.2663223,27.904876 C15.1873967,27.9544628 15.2584711,28.0813223 15.3382231,28.0313223 C15.7729339,27.7635537 16.2076446,27.4957851 16.6423554,27.2263636 C16.7221074,27.1780165 16.6510331,27.0503306 16.571281,27.1003306" id="Fill-49" fill="#F7A29B"></path>
                <path d="M16.7952479,27.3452893 C16.5522727,27.8068595 16.3092975,28.268843 16.0663223,28.7291736 C16.0233471,28.811405 16.147314,28.8866116 16.1907025,28.8047934 C16.4340909,28.3423967 16.6774793,27.8820661 16.9192149,27.4200826 C16.9634298,27.3370248 16.8386364,27.2622314 16.7952479,27.3452893" id="Fill-51" fill="#F7A29B"></path>
                <path id="Fill-53" fill="#F7A29B"></path>
                <path d="M19.5881405,24.9922314 C19.3939256,24.9897521 19.2406198,24.8306612 19.2430992,24.6372727 C19.246405,24.4430579 19.407562,24.2889256 19.6017769,24.2909917 C19.7943388,24.2930579 19.9488843,24.4529752 19.9447521,24.6467769 C19.942686,24.8401653 19.7831818,24.995124 19.5881405,24.9922314" id="Fill-55" fill="#F7A29B"></path>
                <path d="M19.8722314,27.0946694 C20.0701653,27.0963223 20.2338017,26.9380579 20.2375207,26.7405372 C20.2408264,26.5430165 20.0829752,26.3802066 19.8842149,26.3777273 C19.686281,26.3744215 19.5222314,26.5330992 19.5197521,26.7314463 C19.517686,26.9293802 19.6738843,27.0917769 19.8722314,27.0946694" id="Fill-57" fill="#F7A29B"></path>
                <path d="M19.2023554,28.2177273 C19.3564876,28.2206198 19.4821074,28.0962397 19.4858264,27.9429339 C19.4883058,27.7892149 19.3655785,27.6623554 19.2110331,27.6602893 C19.0560744,27.6578099 18.9296281,27.7817769 18.9271488,27.9342562 C18.9242562,28.0888017 19.0465702,28.2152479 19.2023554,28.2177273" id="Fill-59" fill="#F7A29B"></path>
                <path d="M18.8028512,29.0845455 C18.9586364,29.0866116 19.0883884,28.9622314 19.0908678,28.8060331 C19.0937603,28.6498347 18.9689669,28.5217355 18.8131818,28.5200826 C18.656157,28.5176033 18.5272314,28.6428099 18.5247521,28.798595 C18.5214463,28.9543802 18.6470661,29.0828926 18.8028512,29.0845455" id="Fill-61" fill="#F7A29B"></path>
                <path d="M17.5418182,29.5439669 C17.682314,29.5464463 17.7971901,29.4336364 17.8000826,29.2939669 C17.8017355,29.1538843 17.6897521,29.0398347 17.5500826,29.0369421 C17.4095868,29.0352893 17.2959504,29.1480992 17.2922314,29.2865289 C17.2893388,29.4266116 17.4017355,29.5414876 17.5418182,29.5439669" id="Fill-63" fill="#F7A29B"></path>
                <path d="M16.9344628,29.362562 C17.0927273,29.3646281 17.2220661,29.2373554 17.2245455,29.0803306 C17.2270248,28.9228926 17.1026446,28.7943802 16.942314,28.7906612 C16.7869421,28.7902479 16.6567769,28.916281 16.6534711,29.0741322 C16.6501653,29.2307438 16.7761983,29.3609091 16.9344628,29.362562" id="Fill-65" fill="#F7A29B"></path>
                <path id="Fill-67" fill="#F7A29B"></path>
                <path d="M15.2993388,28.2467769 C15.4530579,28.248843 15.5790909,28.1257025 15.5823967,27.9719835 C15.5840496,27.817438 15.4617355,27.6926446 15.3080165,27.6909917 C15.1530579,27.6880992 15.0266116,27.81 15.0241322,27.9641322 C15.0220661,28.1190909 15.1443802,28.2455372 15.2993388,28.2467769" id="Fill-69" fill="#F7A29B"></path>
                <path id="Fill-71" fill="#F7A29B"></path>
                <path id="Fill-73" fill="#F7A29B"></path>
                <path d="M15.2049174,25.3219421 C15.3516116,25.3252479 15.4722727,25.2074793 15.4743388,25.062438 C15.4772314,24.9169835 15.359876,24.7967355 15.2144215,24.793843 C15.0693802,24.7926033 14.9474793,24.9091322 14.9454132,25.055 C14.9433471,25.2008678 15.0590496,25.3211157 15.2049174,25.3219421" id="Fill-75" fill="#F7A29B"></path>
                <path id="Fill-77" fill="#F7A29B"></path>
                <path id="Fill-79" fill="#F7A29B"></path>
                <path d="M18.4493802,24.1859917 C18.6018595,24.1888843 18.7291322,24.0665702 18.7320248,23.9136777 C18.7345041,23.7616116 18.6126033,23.6355785 18.4592975,23.6343388 C18.3059917,23.6318595 18.1807851,23.7537603 18.1778926,23.9066529 C18.1758264,24.0583058 18.2969008,24.1847521 18.4493802,24.1859917" id="Fill-81" fill="#F7A29B"></path>
                <path d="M17.1128512,27.442314 C17.5818595,27.4472727 17.9690496,27.0724793 17.9769008,26.6034711 C17.9835124,26.1336364 17.6095455,25.7489256 17.140124,25.742314 C16.6707025,25.7373554 16.2839256,26.1113223 16.2769008,26.581157 C16.2678099,27.0505785 16.6426033,27.4352893 17.1128512,27.442314" id="Fill-83" fill="#EC8782"></path>
                <path d="M24.2453719,6.01103306 C23.7284298,6.07053719 23.2040496,6.2172314 22.6883471,6.41805785 C22.8131405,6.29243802 22.9371074,6.16475207 23.0606612,6.03376033 C26.9408264,1.91020661 16.3846281,-1.8435124 15.7528099,2.70483471 C15.7106612,3.00566116 15.6957851,3.31805785 15.7019835,3.63747934 C15.4358678,3.33417355 15.1375207,3.03376033 14.8007438,2.73871901 C11.608595,-0.0534297521 6.89743802,8.44161157 9.99702479,9.75359504 C10.3007438,9.88252066 10.6127273,9.98789256 10.9284298,10.0742562 C10.5619008,10.2130992 10.2044628,10.385 9.86809917,10.6023554 C6.29123967,12.9085537 12.386281,19.0176446 14.7652066,16.9560744 C15.0366942,16.7205372 15.2838017,16.4490496 15.5090083,16.1564876 C15.521405,16.4052479 15.5461983,16.6564876 15.5891736,16.9085537 C16.2928926,21.0916116 24.3350413,17.8829339 23.3800826,14.8936777 C23.2528099,14.4932645 23.0544628,14.1102066 22.8114876,13.7469835 C23.1647934,13.8688843 23.5300826,13.9684711 23.9061157,14.0354132 C28.725124,14.8932645 28.4098347,5.52880165 24.2453719,6.01103306" id="Fill-85" fill="#FFFFFF"></path>
                <path d="M18.533719,9.65355372 C18.533719,9.65355372 21.9547934,6.15603306 25.08,5.79570248 C29.2461157,5.31347107 29.5609917,14.6779339 24.741157,13.8204959 C21.1196694,13.1746281 18.533719,9.65355372 18.533719,9.65355372" id="Fill-87" fill="#DC5064"></path>
                <path d="M18.533719,9.65355372 C18.533719,9.65355372 23.2605785,11.6882645 24.2155372,14.6779339 C25.1696694,17.6671901 17.1287603,20.8758678 16.4246281,16.6936364 C15.8130579,13.0684298 18.533719,9.65355372 18.533719,9.65355372" id="Fill-89" fill="#DC5064"></path>
                <path d="M18.5276446,9.99859504 C18.5276446,9.99859504 17.9797107,14.6775207 15.6011983,16.7403306 C13.2218595,18.802314 7.1272314,12.6932231 10.7036777,10.3870248 C13.8016116,8.38909091 18.5276446,9.99859504 18.5276446,9.99859504" id="Fill-91" fill="#DC5064"></path>
                <path d="M18.533719,9.65355372 C18.533719,9.65355372 14.1663636,10.9502479 10.8324793,9.53826446 C7.73330579,8.22628099 12.444876,-0.268760331 15.6357851,2.52380165 C19.2899174,5.71842975 18.533719,9.65355372 18.533719,9.65355372" id="Fill-93" fill="#DC5064"></path>
                <path d="M18.5276446,9.99859504 C18.5276446,9.99859504 16.1557438,5.60272727 16.5888017,2.48991736 C17.2197934,-2.0592562 27.7759917,1.69446281 23.8958264,5.81801653 C21.3702066,8.5031405 18.5276446,9.99859504 18.5276446,9.99859504" id="Fill-95" fill="#DC5064"></path>
                <path id="Fill-97" fill="#F7A29B"></path>
                <path d="M18.6478926,10.5080579 C19.0445868,10.9522727 19.4429339,11.397314 19.8396281,11.8423554 C19.8966529,11.9055785 19.9888017,11.813843 19.9334298,11.7514463 C19.5354959,11.3072314 19.1388017,10.8621901 18.741281,10.4171488 C18.6846694,10.3543388 18.591281,10.4452479 18.6478926,10.5080579" id="Fill-99" fill="#F7A29B"></path>
                <path d="M18.8488843,10.2502066 C19.3021901,10.5262397 19.7559091,10.8030992 20.2096281,11.0807851 C20.2815289,11.1237603 20.3484711,11.0126033 20.2773967,10.9683884 C19.8220248,10.6919421 19.3695455,10.4142562 18.9162397,10.1382231 C18.8439256,10.093595 18.7773967,10.2059917 18.8488843,10.2502066" id="Fill-101" fill="#F7A29B"></path>
                <path id="Fill-103" fill="#F7A29B"></path>
                <path d="M19.0651653,9.55690083 C19.5180579,9.14078512 19.9709504,8.72508264 20.4226033,8.3081405 C20.485,8.25194215 20.3945041,8.15855372 20.3321074,8.21516529 C19.8800413,8.63169421 19.4271488,9.04822314 18.9754959,9.46475207 C18.9122727,9.52136364 19.0040083,9.61475207 19.0651653,9.55690083" id="Fill-105" fill="#F7A29B"></path>
                <path d="M18.7407025,9.27764463 C19.036157,8.66896694 19.3316116,8.06152893 19.6266529,7.45409091 C19.6634298,7.3788843 19.5514463,7.31152893 19.5142562,7.38590909 C19.2196281,7.99458678 18.925,8.60243802 18.6303719,9.21028926 C18.5927686,9.28466942 18.7043388,9.35285124 18.7407025,9.27764463" id="Fill-107" fill="#F7A29B"></path>
                <path id="Fill-109" fill="#F7A29B"></path>
                <path d="M18.0446281,9.23144628 C17.8367769,8.78144628 17.6285124,8.33309917 17.4210744,7.88309917 C17.3855372,7.80706612 17.2727273,7.87152893 17.3078512,7.94756198 C17.5157025,8.39632231 17.7219008,8.84508264 17.9305785,9.29466942 C17.964876,9.3711157 18.0793388,9.30747934 18.0446281,9.23144628" id="Fill-111" fill="#F7A29B"></path>
                <path d="M17.8250826,9.44958678 C17.4552479,9.10041322 17.0854132,8.75206612 16.7143388,8.40247934 C16.6552479,8.34586777 16.5597934,8.43553719 16.6213636,8.49380165 C16.9911983,8.84214876 17.3618595,9.19049587 17.7316942,9.54008264 C17.7928512,9.59710744 17.8874793,9.50743802 17.8250826,9.44958678" id="Fill-113" fill="#F7A29B"></path>
                <path id="Fill-115" fill="#F7A29B"></path>
                <path d="M17.7532645,10.0070661 C17.2511983,10.1727686 16.7483058,10.3376446 16.2462397,10.5033471 C16.1660744,10.5285537 16.1974793,10.6545868 16.2788843,10.6289669 C16.7805372,10.4632645 17.283843,10.2992149 17.7859091,10.1330992 C17.8648347,10.1066529 17.8330165,9.98144628 17.7532645,10.0070661" id="Fill-117" fill="#F7A29B"></path>
                <path d="M17.8860331,10.2742149 C17.4976033,10.515124 17.1091736,10.7543802 16.7182645,10.9940496 C16.6480165,11.0382645 16.7112397,11.1519008 16.7827273,11.1072727 C17.1715702,10.8676033 17.5604132,10.6279339 17.9492562,10.3870248 C18.0207438,10.3436364 17.9575207,10.2295868 17.8860331,10.2742149" id="Fill-119" fill="#F7A29B"></path>
                <path d="M18.0861983,10.4935124 C17.8692562,10.9063223 17.6514876,11.3195455 17.4341322,11.7315289 C17.3957025,11.8046694 17.5064463,11.872438 17.5452893,11.7992975 C17.7634711,11.3856612 17.9808264,10.9736777 18.1969421,10.5604545 C18.2366116,10.4860744 18.1254545,10.4191322 18.0861983,10.4935124" id="Fill-121" fill="#F7A29B"></path>
                <path id="Fill-123" fill="#F7A29B"></path>
                <path d="M20.584876,8.38826446 C20.4109091,8.38619835 20.273719,8.24363636 20.2761983,8.07049587 C20.2790909,7.89735537 20.4233058,7.75933884 20.5968595,7.76057851 C20.7691736,7.76264463 20.9071901,7.90603306 20.9038843,8.07917355 C20.9022314,8.25190083 20.7592562,8.39115702 20.584876,8.38826446" id="Fill-125" fill="#F7A29B"></path>
                <path d="M20.838719,10.2691322 C21.016405,10.2707851 21.1622727,10.1290496 21.1659917,9.95219008 C21.1684711,9.77533058 21.027562,9.62987603 20.849876,9.62780992 C20.6721901,9.62491736 20.5254959,9.76665289 20.523843,9.94392562 C20.5209504,10.1211983 20.6614463,10.2666529 20.838719,10.2691322" id="Fill-127" fill="#F7A29B"></path>
                <path id="Fill-129" fill="#F7A29B"></path>
                <path d="M19.8819421,12.0493802 C20.0216116,12.0510331 20.137314,11.939876 20.1402066,11.8002066 C20.1422727,11.660124 20.0311157,11.5460744 19.8914463,11.5440083 C19.7509504,11.5423554 19.6356612,11.6539256 19.6331818,11.7931818 C19.6307025,11.9328512 19.742686,12.0481405 19.8819421,12.0493802" id="Fill-131" fill="#F7A29B"></path>
                <path id="Fill-133" fill="#F7A29B"></path>
                <path d="M18.2104545,12.2979339 C18.3521901,12.3 18.4678926,12.1863636 18.4703719,12.0454545 C18.472438,11.9045455 18.361281,11.7896694 18.2174793,11.7863636 C18.0786364,11.7859504 17.9621074,11.8987603 17.9596281,12.0404959 C17.9563223,12.1801653 18.0691322,12.2966942 18.2104545,12.2979339" id="Fill-135" fill="#F7A29B"></path>
                <path id="Fill-137" fill="#F7A29B"></path>
                <path id="Fill-139" fill="#F7A29B"></path>
                <path id="Fill-141" fill="#F7A29B"></path>
                <path id="Fill-143" fill="#F7A29B"></path>
                <path id="Fill-145" fill="#F7A29B"></path>
                <path id="Fill-147" fill="#F7A29B"></path>
                <path id="Fill-149" fill="#F7A29B"></path>
                <path id="Fill-151" fill="#F7A29B"></path>
                <path d="M18.3702893,10.5800826 C18.790124,10.5846281 19.136405,10.2495041 19.1430165,9.82966942 C19.1496281,9.40983471 18.8145041,9.06561983 18.3946694,9.05942149 C17.9744215,9.05487603 17.6289669,9.38958678 17.6219421,9.80942149 C17.6145041,10.2296694 17.9496281,10.5738843 18.3702893,10.5800826" id="Fill-153" fill="#EC8782"></path>
                <path d="M46.1554959,20.0728926 C45.387314,19.7047107 44.5323554,19.4501653 43.6414463,19.2782645 C43.9236777,19.212562 44.2071488,19.1443802 44.4930992,19.0704132 C53.4753306,16.7402479 42.1141736,2.31628099 37.2658264,8.07247934 C36.9455785,8.45264463 36.6513636,8.87289256 36.3811157,9.32123967 C36.2769835,8.66793388 36.1253306,7.98983471 35.9158264,7.2877686 C33.9282231,0.62785124 19.9757438,8.29396694 23.1282231,12.8208264 C23.4369008,13.2638017 23.7778099,13.6828099 24.1410331,14.0795041 C23.5108678,13.9509917 22.8658264,13.8782645 22.2088017,13.8852893 C15.2348347,13.9596694 18.3517769,27.7538843 23.4509504,26.9720661 C24.033595,26.8823967 24.6121074,26.7220661 25.1807025,26.5129752 C24.9807025,26.8691736 24.7959917,27.2390083 24.6348347,27.6261983 C21.9579752,34.0419008 35.9121074,36.6142149 37.1988843,31.6357025 C37.3707851,30.9683471 37.4319421,30.2658678 37.4129339,29.5493388 C37.7947521,30.0261983 38.2133471,30.4832231 38.6769835,30.905124 C44.6116942,36.3038843 52.3530165,23.042314 46.1554959,20.0728926" id="Fill-155" fill="#FFFFFF"></path>
                <path d="M35.0537603,20.1366529 C35.0537603,20.1366529 42.8525207,18.2742562 47.5029339,20.5040083 C53.6996281,23.4730165 45.958719,36.7345868 40.0244215,31.3366529 C35.5649174,27.2783884 35.0537603,20.1366529 35.0537603,20.1366529" id="Fill-157" fill="#DC5064"></path>
                <path d="M35.0537603,20.1366529 C35.0537603,20.1366529 39.8322727,27.0862397 38.5454959,32.0668182 C37.2591322,37.0453306 23.305,34.4726033 25.9818595,28.0569008 C28.2992149,22.4965702 35.0537603,20.1366529 35.0537603,20.1366529" id="Fill-160" fill="#DC5064"></path>
                <path d="M34.7446281,20.6096281 C34.7446281,20.6096281 29.8979339,26.6191322 24.7979339,27.4030165 C19.6987603,28.1852479 16.5818182,14.3906198 23.5561983,14.3162397 C29.5958678,14.2509504 34.7446281,20.6096281 34.7446281,20.6096281" id="Fill-162" fill="#DC5064"></path>
                <path d="M35.0537603,20.1366529 C35.0537603,20.1366529 27.8657438,18.1209504 24.4752479,13.2515289 C21.3231818,8.72466942 35.2752479,1.05896694 37.2628512,7.71847107 C39.5392975,15.3407851 35.0537603,20.1366529 35.0537603,20.1366529" id="Fill-164" fill="#DC5064"></path>
                <path d="M34.7446281,20.6096281 C34.7446281,20.6096281 35.2938017,12.4422727 38.6128099,8.50342975 C43.4615702,2.7472314 54.822314,17.1707851 45.8404959,19.5013636 C39.9921488,21.018719 34.7446281,20.6096281 34.7446281,20.6096281" id="Fill-166" fill="#DC5064"></path>
                <path d="M34.1566942,21.3928926 C33.7732231,22.2205785 33.3922314,23.051157 33.0108264,23.8784298 C32.9529752,24.0028099 33.156281,24.0664463 33.2128926,23.9424793 C33.5955372,23.1147934 33.9773554,22.2854545 34.3587603,21.4557025 C34.4161983,21.3329752 34.2124793,21.2693388 34.1566942,21.3928926" id="Fill-168" fill="#F7A29B"></path>
                <path d="M34.4666116,21.4211157 C34.6281818,22.3843388 34.7922314,23.3488017 34.9542149,24.312438 C34.9773554,24.4492149 35.1856198,24.4037603 35.163719,24.2690496 C34.9992562,23.305 34.8372727,22.3409504 34.674876,21.3769008 C34.6513223,21.240124 34.4430579,21.2851653 34.4666116,21.4211157" id="Fill-170" fill="#F7A29B"></path>
                <path d="M34.9702066,21.238719 C35.3582231,22.0184711 35.7454132,22.7982231 36.1317769,23.5796281 C36.1941736,23.7023554 36.3846694,23.6064876 36.3235124,23.4825207 C35.9346694,22.7031818 35.5483058,21.9217769 35.1619421,21.1432645 C35.1003719,21.0176446 34.909876,21.1159917 34.9702066,21.238719" id="Fill-172" fill="#F7A29B"></path>
                <path d="M35.4653719,20.9586777 C36.2476033,21.4950413 37.0294215,22.0309917 37.8124793,22.5681818 C37.9261157,22.646281 38.0426446,22.4673554 37.9294215,22.3900826 C37.1459504,21.8528926 36.363719,21.3177686 35.582314,20.7805785 C35.4678512,20.7004132 35.3517355,20.8805785 35.4653719,20.9586777" id="Fill-174" fill="#F7A29B"></path>
                <path d="M35.8757438,20.4673554 C36.8666529,20.2855372 37.857562,20.1041322 38.8492975,19.9210744 C38.9840083,19.8971074 38.9406198,19.688843 38.8050826,19.7132231 C37.8125207,19.8958678 36.8211983,20.077686 35.8319421,20.2603306 C35.6947521,20.2834711 35.7397934,20.4938017 35.8757438,20.4673554" id="Fill-176" fill="#F7A29B"></path>
                <path d="M35.6695455,19.796281 C36.6104545,19.2099174 37.5513636,18.6260331 38.4902066,18.0400826 C38.6067355,17.9681818 38.511281,17.7780992 38.3951653,17.8487603 C37.4542562,18.435124 36.5145868,19.0206612 35.5749174,19.6061983 C35.4579752,19.6772727 35.5534298,19.8690083 35.6695455,19.796281" id="Fill-178" fill="#F7A29B"></path>
                <path d="M35.208719,19.3768182 C35.7740083,18.5681405 36.3376446,17.7565702 36.9025207,16.9458264 C36.9806198,16.8330165 36.8029339,16.717314 36.723595,16.8313636 C36.1595455,17.6416942 35.5942562,18.4516116 35.0289669,19.2615289 C34.951281,19.3751653 35.1314463,19.4908678 35.208719,19.3768182" id="Fill-180" fill="#F7A29B"></path>
                <path d="M34.7442562,19.1247934 C34.8483884,18.3190083 34.9525207,17.5144628 35.0583058,16.7103306 C35.0748347,16.5735537 34.8611983,16.5636364 34.8442562,16.7004132 C34.740124,17.503719 34.6339256,18.3066116 34.5306198,19.1123967 C34.5120248,19.2483471 34.7264876,19.2599174 34.7442562,19.1247934" id="Fill-182" fill="#F7A29B"></path>
                <path d="M34.2502893,19.2353719 C34.0416116,18.4279339 33.8325207,17.6217355 33.623843,16.8138843 C33.5903719,16.6820661 33.3808678,16.7242149 33.4151653,16.8580992 C33.6246694,17.665124 33.8325207,18.4713223 34.0420248,19.2791736 C34.0754959,19.411405 34.2854132,19.3696694 34.2502893,19.2353719" id="Fill-184" fill="#F7A29B"></path>
                <path d="M33.7809917,19.5236777 C33.0429752,19.0459917 32.3066116,18.568719 31.5681818,18.0889669 C31.4516529,18.0145868 31.3363636,18.1935124 31.4516529,18.2670661 C32.1884298,18.7455785 32.9280992,19.2240909 33.6644628,19.7026033 C33.7805785,19.7778099 33.8971074,19.5984711 33.7809917,19.5236777" id="Fill-186" fill="#F7A29B"></path>
                <path d="M33.6631405,19.9455785 C32.8222314,19.7369008 31.9809091,19.5257438 31.1404132,19.3170661 C31.0069421,19.2815289 30.9408264,19.4848347 31.0755372,19.5199587 C31.9156198,19.7286364 32.7577686,19.9410331 33.5982645,20.1484711 C33.7300826,20.1807025 33.7961983,19.979876 33.6631405,19.9455785" id="Fill-188" fill="#F7A29B"></path>
                <path id="Fill-190" fill="#F7A29B"></path>
                <path d="M33.699876,20.9100413 C33.0383058,21.2935124 32.3767355,21.6773967 31.7147521,22.0579752 C31.5969835,22.126157 31.6916116,22.3170661 31.8102066,22.2492975 C32.4726033,21.8658264 33.1341736,21.4848347 33.7957438,21.1005372 C33.9151653,21.0323554 33.8192975,20.842686 33.699876,20.9100413" id="Fill-192" fill="#F7A29B"></path>
                <path d="M34.0279752,21.1081818 C33.5263223,21.7701653 33.0226033,22.4317355 32.5192975,23.0928926 C32.4366529,23.2023967 32.6155785,23.3185124 32.6990496,23.2106612 C33.2015289,22.5482645 33.703595,21.8858678 34.2081405,21.2238843 C34.2911983,21.1143802 34.1110331,20.9986777 34.0279752,21.1081818" id="Fill-194" fill="#F7A29B"></path>
                <path d="M39.0043802,20.1738017 C38.7642975,20.018843 38.698595,19.7014876 38.8531405,19.4638843 C39.0085124,19.226281 39.3287603,19.1597521 39.5676033,19.3138843 C39.8047934,19.4667769 39.8729752,19.7866116 39.7171901,20.0242149 C39.5622314,20.261405 39.2423967,20.3295868 39.0043802,20.1738017" id="Fill-196" fill="#F7A29B"></path>
                <path d="M37.7134711,23.0042149 C37.957686,23.1608264 38.2841322,23.0926446 38.4440496,22.8496694 C38.6014876,22.6071074 38.5328926,22.282314 38.2890909,22.1236364 C38.044876,21.9645455 37.7184298,22.0335537 37.5601653,22.2777686 C37.4019008,22.5207438 37.4692562,22.8447107 37.7134711,23.0042149" id="Fill-198" fill="#F7A29B"></path>
                <path d="M36.0045041,23.8734298 C36.1937603,23.9973967 36.4470661,23.9416116 36.5714463,23.7544215 C36.6941736,23.5655785 36.641281,23.312686 36.4507851,23.1891322 C36.2607025,23.0655785 36.0069835,23.120124 35.8850826,23.307314 C35.7611157,23.4965702 35.8140083,23.7490496 36.0045041,23.8734298" id="Fill-200" fill="#F7A29B"></path>
                <path d="M34.8318182,24.6365289 C35.0239669,24.7613223 35.2809917,24.7071901 35.407438,24.516281 C35.5326446,24.3249587 35.4780992,24.0687603 35.2863636,23.9439669 C35.0929752,23.8187603 34.835124,23.8733058 34.7107438,24.0646281 C34.5847107,24.2555372 34.6396694,24.5138017 34.8318182,24.6365289" id="Fill-202" fill="#F7A29B"></path>
                <path d="M32.9089669,24.2219008 C33.0808678,24.3338843 33.3114463,24.2838843 33.4246694,24.1128099 C33.5366529,23.9409091 33.4862397,23.7119835 33.3147521,23.5995868 C33.142438,23.4880165 32.912686,23.5380165 32.8007025,23.7078512 C32.6870661,23.8789256 32.7362397,24.1090909 32.9089669,24.2219008" id="Fill-204" fill="#F7A29B"></path>
                <path d="M32.2971901,23.5219421 C32.491405,23.6483884 32.7517355,23.5917769 32.8777686,23.3988017 C33.0033884,23.205 32.9496694,22.9483884 32.7538017,22.8186364 C32.5608264,22.6959091 32.3013223,22.751281 32.1732231,22.9446694 C32.0471901,23.136405 32.1017355,23.3963223 32.2971901,23.5219421" id="Fill-206" fill="#F7A29B"></path>
                <path d="M31.5720248,22.4465289 C31.7344215,22.5527273 31.9505372,22.5056198 32.0563223,22.3436364 C32.1633471,22.1833058 32.1162397,21.9663636 31.9542562,21.8605785 C31.792686,21.7560331 31.5753306,21.802314 31.4691322,21.9630579 C31.3637603,22.1258678 31.4088017,22.3415702 31.5720248,22.4465289" id="Fill-208" fill="#F7A29B"></path>
                <path d="M31.1398347,20.8604132 C31.3286777,20.9831405 31.581157,20.928595 31.7055372,20.7397521 C31.8290909,20.5509091 31.773719,20.2984298 31.5857025,20.1777686 C31.3956198,20.0533884 31.142314,20.1054545 31.0195868,20.2947107 C30.8956198,20.4856198 30.9485124,20.7368595 31.1398347,20.8604132" id="Fill-210" fill="#F7A29B"></path>
                <path d="M30.9554132,19.6473967 C31.0851653,19.7337603 31.2562397,19.696157 31.340124,19.5676446 C31.4244215,19.4395455 31.3880579,19.2692975 31.2591322,19.1854132 C31.1297934,19.1015289 30.9578926,19.1378926 30.8748347,19.266405 C30.7909504,19.3936777 30.8264876,19.5655785 30.9554132,19.6473967" id="Fill-212" fill="#F7A29B"></path>
                <path d="M31.3541322,18.4182231 C31.4847107,18.5029339 31.6632231,18.466157 31.7491736,18.332686 C31.835124,18.2021074 31.7975207,18.0244215 31.6652893,17.9405372 C31.5338843,17.8533471 31.3549587,17.8913636 31.2690083,18.0223554 C31.1830579,18.1545868 31.2219008,18.332686 31.3541322,18.4182231" id="Fill-214" fill="#F7A29B"></path>
                <path d="M33.3076446,17.1579339 C33.4873967,17.2773554 33.7291322,17.224876 33.8456612,17.0463636 C33.9630165,16.8678512 33.9109504,16.6273554 33.732438,16.5104132 C33.5530992,16.3955372 33.3109504,16.445124 33.1944215,16.6240496 C33.0778926,16.8033884 33.1278926,17.0438843 33.3076446,17.1579339" id="Fill-216" fill="#F7A29B"></path>
                <path d="M34.7587603,17.0011983 C34.9215702,17.1065702 35.1409917,17.0607025 35.2476033,16.8970661 C35.3533884,16.7334298 35.3079339,16.5152479 35.1447107,16.4102893 C34.9802479,16.302438 34.7608264,16.348719 34.6538017,16.5107025 C34.5467769,16.6755785 34.5938843,16.8937603 34.7587603,17.0011983" id="Fill-218" fill="#F7A29B"></path>
                <path d="M36.6590083,17.1242562 C36.7908264,17.2102066 36.9652066,17.1730165 37.0490909,17.0416116 C37.1333884,16.9106198 37.0978512,16.7374793 36.9664463,16.6531818 C36.836281,16.5705372 36.6610744,16.6056612 36.5767769,16.7341736 C36.4916529,16.866405 36.528843,17.0399587 36.6590083,17.1242562" id="Fill-220" fill="#F7A29B"></path>
                <path d="M38.2203306,18.2834298 C38.4079339,18.406157 38.6604132,18.3532645 38.7835537,18.1664876 C38.9058678,17.9797107 38.852562,17.7276446 38.6645455,17.6069835 C38.4752893,17.483843 38.2252893,17.5383884 38.1021488,17.7251653 C37.9798347,17.9115289 38.032314,18.1627686 38.2203306,18.2834298" id="Fill-222" fill="#F7A29B"></path>
                <path d="M34.0182645,21.2784711 C34.5963636,21.6520248 35.3695041,21.4896281 35.7459504,20.9131818 C36.121157,20.3367355 35.9579339,19.5669008 35.3802479,19.1916942 C34.8021488,18.8181405 34.0302479,18.9809504 33.6529752,19.5573967 C33.2769421,20.1326033 33.441405,20.9032645 34.0182645,21.2784711" id="Fill-224" fill="#EC8782"></path>
            </g>
        </g>
    </g>
</svg>