<?xml version="1.0" encoding="UTF-8" standalone="no"?>
<svg width="19px" height="35px" viewBox="0 0 19 35" version="1.1" xmlns="http://www.w3.org/2000/svg" xmlns:xlink="http://www.w3.org/1999/xlink">
    <!-- Generator: Sketch 40.2 (33826) - http://www.bohemiancoding.com/sketch -->
    <title>illu03_rooms_white</title>
    <desc>Created with Sketch.</desc>
    <defs>
        <polygon id="path-1" points="0.0309157412 31.2254902 4.18568086 31.2254902 4.18568086 0.187392485 0.0309157412 0.187392485"></polygon>
    </defs>
    <g id="紅磚屋_UI-KIT" stroke="none" stroke-width="1" fill="none" fill-rule="evenodd">
        <g id="UI-KIT" transform="translate(-950.000000, -658.000000)">
            <g id="illu03_rooms_white" transform="translate(959.436275, 675.500000) scale(-1, 1) translate(-959.436275, -675.500000) translate(950.000000, 658.000000)">
                <g id="Group-3" transform="translate(6.862745, 3.589559)">
                    <mask id="mask-2" fill="white">
                        <use xlink:href="#path-1"></use>
                    </mask>
                    <g id="Clip-2"></g>
                    <path d="M0.547098039,31.0866912 C1.96768627,28.4685539 2.7665098,25.4173775 3.35087255,22.5223284 C4.83837255,15.1510539 4.27597059,7.47884804 2.15709804,0.289779412 C2.09533333,0.0804656863 1.56964706,0.224583333 1.63072549,0.431151961 C3.72969608,7.55227941 4.26087255,15.0659559 2.86155882,22.3727206 C2.30018627,25.3051716 1.48695098,28.408848 0.0512647059,31.0551225 C-0.0787843137,31.2949755 0.453421569,31.2592892 0.547098039,31.0866912" id="Fill-1" fill="#FFFFFF" mask="url(#mask-2)"></path>
                </g>
                <path d="M8.41221569,31.3414363 C5.39089216,30.5412402 3.3650098,27.6942304 2.9734902,24.7037892 C2.95015686,24.5236422 2.55383333,24.6214363 2.57853922,24.8098186 C2.98035294,27.8771225 5.0909902,30.7862402 8.18368627,31.6049657 C8.35148039,31.6495735 8.65138235,31.4045735 8.41221569,31.3414363" id="Fill-4" fill="#FFFFFF"></path>
                <path d="M5.35040196,23.3635294 C5.35040196,24.8019608 4.18442157,25.9679412 2.74564706,25.9679412 C1.30721569,25.9679412 0.141235294,24.8019608 0.141235294,23.3635294 C0.141235294,21.925098 1.30721569,20.7591176 2.74564706,20.7591176 C4.18442157,20.7591176 5.35040196,21.925098 5.35040196,23.3635294" id="Fill-6" fill="#FFFFFF"></path>
                <path d="M0.00150980392,23.9624412 C0.328519608,25.3222941 1.56141176,26.124549 2.92023529,26.0658725 C3.04719608,26.0603824 3.34641176,25.8589608 3.08185294,25.8702843 C1.8067549,25.9255294 0.697392157,25.1071471 0.396460784,23.8567549 C0.368323529,23.7407745 -0.0273137255,23.8426863 0.00150980392,23.9624412" id="Fill-8" fill="#FFFFFF"></path>
                <path d="M5.47695098,23.2526275 C5.51915686,24.6505686 4.54087255,25.748951 3.21430392,26.0498824 C3.09043137,26.0776765 2.7490098,25.9623824 3.00704902,25.9033627 C4.25160784,25.6213039 5.10670588,24.5400784 5.06827451,23.2546863 C5.0645,23.1352745 5.47317647,23.1297843 5.47695098,23.2526275" id="Fill-10" fill="#FFFFFF"></path>
                <path d="M1.1097402,23.9466569 C1.22880882,24.927 1.97856373,25.7247941 2.89130882,26.0298431 C3.04846569,26.0823431 3.35694608,25.8555294 3.12292647,25.7772941 C2.27675,25.494549 1.61415196,24.7410196 1.50469118,23.8409706 C1.48410294,23.6714608 1.08812255,23.7671961 1.1097402,23.9466569" id="Fill-12" fill="#FFFFFF"></path>
                <path d="M4.14811765,23.3393725 C4.40409804,24.2932941 4.0067451,25.313098 3.27414706,25.9376078 C3.14787255,26.0450098 2.77728431,25.9496176 2.96498039,25.7897157 C3.64404902,25.2111863 3.97723529,24.2648137 3.74218627,23.3887843 C3.69792157,23.2240784 4.10110784,23.1650588 4.14811765,23.3393725" id="Fill-14" fill="#FFFFFF"></path>
                <path d="M9.07309804,30.1254608 C12.1853529,29.8368824 14.6549118,27.3649216 15.5364314,24.4808529 C15.5896176,24.3072255 15.9639804,24.4691863 15.9083922,24.6507059 C15.0038824,27.6092353 12.4403039,30.1282059 9.25496078,30.4233039 C9.08201961,30.4394314 8.82672549,30.1481078 9.07309804,30.1254608" id="Fill-16" fill="#FFFFFF"></path>
                <path d="M13.4145735,22.7653039 C13.1760931,24.1838333 14.1327598,25.5272157 15.5516324,25.7653529 C16.9701618,26.0038333 18.3135441,25.0471667 18.5520245,23.6286373 C18.7901618,22.2097647 17.8334951,20.8667255 16.4149657,20.6282451 C14.9960931,20.3901078 13.6530539,21.3467745 13.4145735,22.7653039" id="Fill-18" fill="#FFFFFF"></path>
                <path d="M18.5902843,24.2423039 C18.0426373,25.5290686 16.6937647,26.1161765 15.3634216,25.8327451 C15.2392059,25.8066667 14.9773922,25.5582353 15.2364608,25.6134804 C16.4847941,25.8790686 17.714598,25.2559314 18.2183235,24.072451 C18.2653333,23.9629902 18.6386667,24.1290686 18.5902843,24.2423039" id="Fill-20" fill="#FFFFFF"></path>
                <path d="M13.3081667,22.6348775 C13.0350294,24.0063971 13.8177255,25.2519853 15.0760098,25.7684069 C15.1937059,25.8164461 15.5495392,25.7591422 15.3045392,25.6586029 C14.1238039,25.1740931 13.4598333,23.9659069 13.7110098,22.7045343 C13.7343431,22.5875245 13.3321863,22.5144363 13.3081667,22.6348775" id="Fill-22" fill="#FFFFFF"></path>
                <path d="M17.4999657,24.0430098 C17.2203088,24.9904118 16.3483971,25.6523235 15.3979069,25.8022745 C15.2342304,25.8280098 14.9676127,25.5531569 15.2112402,25.5147255 C16.0924167,25.376098 16.8709951,24.7430098 17.1280049,23.8735 C17.1763873,23.7098235 17.5510931,23.8697255 17.4999657,24.0430098" id="Fill-24" fill="#FFFFFF"></path>
                <path d="M14.6042647,22.9406471 C14.1938725,23.8389804 14.4169118,24.9109412 15.0355882,25.6476569 C15.1423039,25.7746176 15.5235294,25.7420196 15.365,25.5532941 C14.7912745,24.8701078 14.6193627,23.8815294 14.9964706,23.0569706 C15.0671569,22.9018725 14.6794118,22.7766275 14.6042647,22.9406471" id="Fill-26" fill="#FFFFFF"></path>
                <path d="M10.5704804,23.0944755 C7.54915686,22.2942794 5.52327451,19.4472696 5.1317549,16.4568284 C5.10842157,16.2766814 4.71209804,16.3744755 4.73680392,16.5628578 C5.13861765,19.6301618 7.2492549,22.5392794 10.341951,23.358348 C10.5097451,23.4026127 10.8096471,23.1576127 10.5704804,23.0944755" id="Fill-28" fill="#FFFFFF"></path>
                <path d="M7.50866667,15.1166029 C7.50866667,16.5550343 6.34268627,17.7210147 4.90391176,17.7210147 C3.46548039,17.7210147 2.2995,16.5550343 2.2995,15.1166029 C2.2995,13.6781716 3.46548039,12.5121912 4.90391176,12.5121912 C6.34268627,12.5121912 7.50866667,13.6781716 7.50866667,15.1166029" id="Fill-30" fill="#FFFFFF"></path>
                <path d="M2.15977451,15.7155147 C2.48678431,17.0753676 3.71967647,17.8776225 5.0785,17.8189461 C5.20546078,17.8134559 5.50467647,17.6120343 5.24011765,17.6233578 C3.96501961,17.6786029 2.85565686,16.8602206 2.55472549,15.6098284 C2.52693137,15.493848 2.13095098,15.5957598 2.15977451,15.7155147" id="Fill-32" fill="#FFFFFF"></path>
                <path d="M7.63521569,15.0056667 C7.67742157,16.4036078 6.69913725,17.5019902 5.37256863,17.8029216 C5.24869608,17.8307157 4.90727451,17.7154216 5.16531373,17.656402 C6.40987255,17.3743431 7.26497059,16.2931176 7.22653922,15.0077255 C7.22276471,14.8883137 7.63144118,14.8828235 7.63521569,15.0056667" id="Fill-34" fill="#FFFFFF"></path>
                <path d="M3.2680049,15.6997304 C3.38707353,16.6800735 4.13682843,17.4778676 5.04957353,17.7829167 C5.20673039,17.8354167 5.51521078,17.6086029 5.28119118,17.5303676 C4.43501471,17.2476225 3.77241667,16.4940931 3.66295588,15.5940441 C3.64236765,15.4245343 3.24638725,15.5202696 3.2680049,15.6997304" id="Fill-36" fill="#FFFFFF"></path>
                <path d="M6.30638235,15.0924804 C6.56236275,16.046402 6.1650098,17.0662059 5.43241176,17.6907157 C5.30613725,17.7981176 4.93554902,17.7027255 5.1232451,17.5428235 C5.80231373,16.9642941 6.1355,16.0179216 5.90045098,15.1418922 C5.85618627,14.9771863 6.25937255,14.9181667 6.30638235,15.0924804" id="Fill-38" fill="#FFFFFF"></path>
                <path d="M10.5879804,21.085098 C13.4682745,19.8710784 15.076902,16.7691176 15.047049,13.7536275 C15.0453333,13.5721078 15.4512647,13.6136275 15.4529804,13.8030392 C15.4831765,16.8964216 13.7990588,20.0718137 10.8511667,21.3143137 C10.6912647,21.3819118 10.3601373,21.1808333 10.5879804,21.085098" id="Fill-40" fill="#FFFFFF"></path>
                <path d="M12.506598,12.7579804 C12.7073333,14.1823431 14.0246373,15.1743529 15.449,14.9736176 C16.8737059,14.7728824 17.8653725,13.4552353 17.6649804,12.0312157 C17.4642451,10.6065098 16.146598,9.6145 14.7222353,9.81557843 C13.2978725,10.0163137 12.3058627,11.3336176 12.506598,12.7579804" id="Fill-42" fill="#FFFFFF"></path>
                <path d="M17.8867157,12.6046667 C17.752549,13.9967745 16.6438725,14.9633922 15.2898529,15.0948137 C15.1635784,15.1071667 14.8393137,14.9493235 15.1028431,14.9235882 C16.3731373,14.800402 17.357598,13.8355 17.4807843,12.5549118 C17.492451,12.4361863 17.8983824,12.4821667 17.8867157,12.6046667" id="Fill-44" fill="#FFFFFF"></path>
                <path d="M12.3657745,12.6657108 C12.5191569,14.0561029 13.6412157,15.0072794 14.9966078,15.1198284 C15.1232255,15.1304657 15.4450882,14.9681618 15.1812157,14.946201 C13.909549,14.8405147 12.912049,13.8889951 12.7710196,12.6108088 C12.7576373,12.4920833 12.3523922,12.5435539 12.3657745,12.6657108" id="Fill-46" fill="#FFFFFF"></path>
                <path d="M16.787098,12.7436029 C16.8059706,13.731152 16.1749412,14.6253676 15.3136667,15.0549755 C15.1654314,15.1290931 14.8284706,14.9472304 15.0491078,14.8374265 C15.8475882,14.4393873 16.3986667,13.6007598 16.3811667,12.6941912 C16.3777353,12.523652 16.7836667,12.5631127 16.787098,12.7436029" id="Fill-48" fill="#FFFFFF"></path>
                <path d="M13.6936814,12.5663039 C13.5732402,13.5466471 14.1092206,14.5012549 14.9217696,15.0173333 C15.0614265,15.1058627 15.4155441,14.9596863 15.2072598,14.8275784 C14.4540735,14.3495882 13.9918676,13.4588039 14.102701,12.5587549 C14.1232892,12.3895882 13.7156422,12.3871863 13.6936814,12.5663039" id="Fill-50" fill="#FFFFFF"></path>
                <path d="M10.5070343,12.2112255 C7.71286765,12.370098 5.19767157,10.5102941 4.03306373,8.07401961 C3.96272059,7.9275 3.65286765,8.12068627 3.72629902,8.27406863 C4.9207598,10.7727941 7.52620098,12.6621078 10.3859069,12.4991176 C10.5410049,12.4905392 10.7280147,12.1985294 10.5070343,12.2112255" id="Fill-52" fill="#FFFFFF"></path>
                <path d="M5.6832451,6.27268627 C6.083,7.49665686 5.41491176,8.81361765 4.19059804,9.21371569 C2.96628431,9.61347059 1.64966667,8.94503922 1.24991176,7.72072549 C0.849813725,6.49641176 1.5182451,5.17979412 2.74221569,4.78003922 C3.96652941,4.37994118 5.2834902,5.04837255 5.6832451,6.27268627" id="Fill-54" fill="#FFFFFF"></path>
                <path d="M1.29740196,8.26947059 C1.95382353,9.33594118 3.22617647,9.6759902 4.36642157,9.24809804 C4.47279412,9.20795098 4.67112745,8.95368627 4.44911765,9.03672549 C3.37955882,9.43819608 2.2077451,9.05010784 1.60382353,8.06976471 C1.54789216,7.9784902 1.23941176,8.17545098 1.29740196,8.26947059" id="Fill-56" fill="#FFFFFF"></path>
                <path d="M5.76007353,6.14298039 C6.18453431,7.32097059 5.65747549,8.52778431 4.61193627,9.15263725 C4.51448529,9.21097059 4.19159314,9.20753922 4.39507353,9.08572549 C5.3757598,8.49964706 5.80296569,7.34155882 5.41281863,6.25827451 C5.37644608,6.15773529 5.72301471,6.03935294 5.76007353,6.14298039" id="Fill-58" fill="#FFFFFF"></path>
                <path d="M2.23615686,7.94791667 C2.61017647,8.74948529 3.47007843,9.2192402 4.33169608,9.22541667 C4.47993137,9.22644608 4.67929412,8.94747549 4.45831373,8.94610294 C3.65983333,8.94061275 2.88605882,8.48355392 2.54292157,7.74786765 C2.47841176,7.60958333 2.16787255,7.80105392 2.23615686,7.94791667" id="Fill-60" fill="#FFFFFF"></path>
                <path d="M4.65325,6.5862451 C5.13638725,7.32707843 5.08148529,8.30570588 4.63163235,9.04036275 C4.55442647,9.16698039 4.21231863,9.18894118 4.32761275,9.00090196 C4.74452451,8.31943137 4.76511275,7.42109804 4.32143627,6.74134314 C4.23805392,6.61335294 4.56472059,6.45070588 4.65325,6.5862451" id="Fill-62" fill="#FFFFFF"></path>
                <path d="M10.0670294,10.0133627 C12.8148725,9.48287255 14.7982059,7.06409804 15.3304118,4.41645098 C15.3623235,4.25723529 15.7102647,4.3687549 15.6766373,4.53517647 C15.1307059,7.25076471 13.0677647,9.71998039 10.2550686,10.2628235 C10.1023725,10.2926765 9.84982353,10.0552255 10.0670294,10.0133627" id="Fill-64" fill="#FFFFFF"></path>
                <path d="M13.2891912,3.07416667 C13.201348,4.35887255 14.1717402,5.4720098 15.4567892,5.55985294 C16.7418382,5.64735294 17.8546324,4.67696078 17.9424755,3.3922549 C18.0299755,2.10720588 17.0599265,0.994411765 15.7748775,0.906568627 C14.4898284,0.81872549 13.3770343,1.78877451 13.2891912,3.07416667" id="Fill-66" fill="#FFFFFF"></path>
                <path d="M18.0304902,3.93571569 C17.6554412,5.13051961 16.5052451,5.77184314 15.295,5.63630392 C15.1817647,5.62360784 14.9268137,5.42561765 15.1628922,5.45169608 C16.2983333,5.57865686 17.3390686,4.91537255 17.6846078,3.8169902 C17.7161765,3.71507843 18.0637745,3.83071569 18.0304902,3.93571569" id="Fill-68" fill="#FFFFFF"></path>
                <path d="M13.1829902,2.96714216 C13.0598039,4.21341667 13.8665196,5.2544951 15.0335294,5.60415196 C15.1423039,5.63640686 15.4542157,5.55405392 15.2270588,5.48611275 C14.1327941,5.15807353 13.4348529,4.13998529 13.5480882,2.99390686 C13.5583824,2.88753431 13.1936275,2.85768137 13.1829902,2.96714216" id="Fill-70" fill="#FFFFFF"></path>
                <path d="M17.0416716,3.85391176 C16.87525,4.72239216 16.1570637,5.38910784 15.3228971,5.60562745 C15.1794657,5.64337255 14.9179951,5.42170588 15.1314265,5.36611765 C15.9045147,5.16503922 16.5424069,4.53263725 16.6951029,3.73518627 C16.7239265,3.58523529 17.0718676,3.69503922 17.0416716,3.85391176" id="Fill-72" fill="#FFFFFF"></path>
                <path d="M14.3645833,3.12594608 C14.0773775,3.96217157 14.3704167,4.89790686 14.9866912,5.50011275 C15.0927206,5.6037402 15.4296814,5.54128922 15.2718382,5.38687745 C14.7005147,4.82859314 14.4606618,3.96285784 14.7241912,3.19491667 C14.7736029,3.05045588 14.4170833,2.97290686 14.3645833,3.12594608" id="Fill-74" fill="#FFFFFF"></path>
                <path d="M6.03238725,3.83668627 C6.86312255,4.82046078 8.3344951,4.94501961 9.31861275,4.11394118 C10.3027304,3.28286275 10.4269461,1.8114902 9.59586765,0.827715686 C8.76513235,-0.156401961 7.2937598,-0.280617647 6.30998529,0.550460784 C5.32552451,1.38085294 5.20130882,2.85222549 6.03238725,3.83668627" id="Fill-76" fill="#FFFFFF"></path>
                <path d="M10.0374853,1.15668137 C10.599201,2.2759951 10.219348,3.53668137 9.25581863,4.28163235 C9.16557353,4.35094608 8.8447402,4.38628922 9.03243627,4.24114216 C9.93660294,3.54217157 10.2227794,2.34153431 9.70635784,1.31246569 C9.65831863,1.21673039 9.98841667,1.05820098 10.0374853,1.15668137" id="Fill-78" fill="#FFFFFF"></path>
                <path d="M5.88175,3.83370098 C6.66032843,4.81438725 7.96390686,5.00071078 9.04547549,4.44036765 C9.14601471,4.38786765 9.31312255,4.11164216 9.10243627,4.2207598 C8.08812255,4.74644608 6.87856373,4.5007598 6.16243627,3.59865196 C6.09586765,3.51526961 5.81312255,3.74757353 5.88175,3.83370098" id="Fill-80" fill="#FFFFFF"></path>
                <path d="M9.27033333,1.78578922 C9.75518627,2.52559314 9.70302941,3.50422059 9.25454902,4.24025 C9.17768627,4.36686765 8.83557843,4.38951471 8.95018627,4.20113235 C9.36572549,3.51897549 9.3842549,2.62064216 8.93886275,1.94191667 C8.85513725,1.81426961 9.18146078,1.65059314 9.27033333,1.78578922" id="Fill-82" fill="#FFFFFF"></path>
                <path d="M6.84088725,3.12560294 C7.21662255,3.92579902 8.07789706,4.39418137 8.93951471,4.39829902 C9.08775,4.39898529 9.28642647,4.11932843 9.06578922,4.11864216 C8.26696569,4.11486765 7.49216176,3.65986765 7.14730882,2.92486765 C7.08245588,2.78658333 6.7722598,2.97908333 6.84088725,3.12560294" id="Fill-84" fill="#FFFFFF"></path>
            </g>
        </g>
    </g>
</svg>