<?xml version="1.0" encoding="UTF-8" standalone="no"?>
<svg width="51px" height="50px" viewBox="0 0 51 50" version="1.1" xmlns="http://www.w3.org/2000/svg" xmlns:xlink="http://www.w3.org/1999/xlink">
    <!-- Generator: Sketch 41.2 (35397) - http://www.bohemiancoding.com/sketch -->
    <title>Rectangle 2</title>
    <desc>Created with Sketch.</desc>
    <defs>
        <polygon id="path-1" points="14.1451619 16.1869131 14.1451619 0.0301251956 0.0796631526 0.0301251956 0.0796631526 16.1869131"></polygon>
    </defs>
    <g id="紅磚屋_UI-KIT" stroke="none" stroke-width="1" fill="none" fill-rule="evenodd">
        <g id="illu04_foods_color" transform="translate(-0.500000, 0.000000)">
            <rect id="Rectangle-2" fill="#FFFFFF" opacity="0" x="1" y="0" width="50" height="50"></rect>
            <g transform="translate(11.000000, 2.500000)">
                <path d="M16.6382099,45.4072124 C15.1134915,41.2987813 14.4281426,36.7550411 14.2119544,32.4021655 C13.7602179,23.3103815 16.3071515,14.2235466 22.7803211,7.6155849 C23.0053289,7.38598787 22.0971234,7.48389476 21.9263239,7.65797535 C15.5533968,14.1637265 12.9929111,22.9792195 13.2488951,31.9354401 C13.3796836,36.5142547 14.1007412,41.340311 15.7031152,45.6576819 C15.7986252,45.9146068 16.720598,45.6292782 16.6382099,45.4072124" id="Fill-1" fill="#68754A"></path>
                <g id="Group-5" transform="translate(15.057885, 26.393114)">
                    <mask id="mask-2" fill="white">
                        <use xlink:href="#path-1"></use>
                    </mask>
                    <g id="Clip-4"></g>
                    <path d="M0.403938517,16.1869131 C0.403938517,16.1869131 -1.2606031,10.5776017 2.9528082,6.4291471 C7.16686483,2.27983177 13.9642092,2.040982 14.0227198,0.0301251956 C14.0227198,0.0301251956 15.1989557,8.81785994 10.264702,12.3571401 C5.33001799,15.8944836 0.403938517,16.1869131 0.403938517,16.1869131" id="Fill-3" fill="#91A067" mask="url(#mask-2)"></path>
                </g>
                <path d="M28.6854643,29.8310446 C28.6661041,29.7815532 28.646744,29.7318466 28.627599,29.6823552 C28.6024308,29.6175861 28.5028336,29.6208138 28.4486252,29.6382433 C28.0530331,29.7651995 27.6567956,29.8906495 27.2601279,30.0148083 C26.7085791,30.1871674 27.1181536,29.9861894 27.3278884,29.7236698 C27.6933648,29.265982 28.0480855,28.8009781 28.3410689,28.2925078 C28.369894,28.2425861 28.3352609,28.2100939 28.2887965,28.1950313 C28.2302859,28.1760955 28.1717753,28.15759 28.1130495,28.1386541 C28.0392659,28.1147692 27.9132099,28.1517801 27.8731989,28.2214984 C27.6501271,28.6086072 27.3894106,28.9683881 27.1187989,29.3236502 C26.9822024,29.5031103 26.3297657,30.088615 26.4057005,30.2314945 C26.238558,29.916471 26.2927663,29.3748631 26.2837316,29.0331573 C26.2822258,28.9780712 26.1796171,28.9789319 26.1471351,28.9812989 C26.0823862,28.9853873 26.0178524,28.9899061 25.9531035,28.9942097 C25.9042729,28.9974374 25.7767111,29.0381064 25.7775716,29.1054577 C25.7814436,29.4364045 26.068619,30.5630869 25.976981,30.6640063 C25.2720569,31.438439 24.5219591,32.1709116 23.7611057,32.8898279 C23.2596781,33.3636541 22.7464194,33.8245696 22.2303641,34.2822574 C21.938026,34.5415493 21.6418159,34.7963224 21.3458209,35.0515258 C21.1902945,35.1855829 21.1085517,35.2662754 21.0678954,35.3106025 C21.0930636,35.2686424 21.1182318,35.2021518 21.0913427,35.1352308 C20.7239303,34.2235133 21.3785181,32.6839006 21.6486995,31.8393192 C21.6607459,31.8018779 21.617078,31.7715376 21.5863169,31.7665884 C21.5241493,31.756475 21.4619818,31.7463615 21.3995991,31.736248 C21.3133389,31.7222613 21.1803993,31.7476526 21.1494231,31.843838 C20.8927937,32.6423709 20.6843496,33.4538146 20.559154,34.2835485 C20.4879517,34.7569444 20.8301959,35.494151 20.5391485,35.7493545 C19.1938341,36.9285407 17.96382,38.2650235 16.9568777,39.7478286 C16.6989577,38.4931142 16.8121069,37.1613654 17.1990946,35.9421557 C17.2109258,35.9047144 17.167473,35.8748044 17.1364968,35.8694249 C17.0743292,35.8590962 17.0119466,35.8485524 16.9495639,35.8380086 C16.863734,35.8235915 16.7297188,35.8496283 16.6993879,35.9455986 C16.3926373,36.9171362 16.2820694,37.9413928 16.3151967,38.9563967 C16.3261675,39.2944444 16.3900559,39.6247457 16.4580315,39.9546166 C16.554402,40.4232786 16.4965367,40.4559859 16.2472211,40.9078638 C16.0611487,41.2444053 15.8892737,41.6061228 15.7711769,41.9736502 C15.7528923,42.0300274 15.8331293,42.0463811 15.868838,42.0513302 C15.931866,42.0599374 15.9951091,42.0685446 16.0583522,42.077367 C16.1340719,42.0876956 16.248942,42.0425078 16.2734649,41.9648279 C16.4182357,41.5090767 16.6559352,41.0845266 16.8863208,40.6683685 C17.1319794,40.2255282 18.4235157,40.2991197 18.9051529,40.2078834 C20.463644,39.9126565 21.9728743,39.3706182 23.4201521,38.7315336 C23.4735001,38.708079 23.5371734,38.659018 23.5008194,38.596831 C23.4735001,38.5501369 23.4461808,38.5036581 23.4188615,38.456964 C23.3840132,38.3975743 23.2568816,38.4281299 23.2110627,38.4483568 C21.3759367,39.260446 19.394104,39.9401995 17.377423,40.0873826 C17.0140977,40.1138498 17.5219786,39.6675665 17.6798713,39.4444249 C17.9969474,38.9972809 18.3456449,38.5731612 18.7014413,38.1565728 C19.4797188,37.2452856 20.3539366,36.4196401 21.2556888,35.6320814 C22.2841423,35.5785016 23.2908694,35.2225939 24.2537136,34.8828247 C25.2326913,34.5368153 26.2721155,34.1352895 27.0977179,33.4888889 C27.1205198,33.471029 27.1459031,33.4189554 27.1153571,33.3946401 C27.0706137,33.3591354 27.0258702,33.3238459 26.9811268,33.2885563 C26.9002444,33.2246479 26.7836534,33.2629499 26.7105151,33.3206182 C25.7379908,34.0855829 24.4098854,34.4980829 23.2489225,34.8673318 C22.74771,35.0267801 22.2366024,35.161698 21.718396,35.2527191 C21.2797814,35.3299687 22.0604251,34.938126 22.1348541,34.8740023 C22.5201209,34.5409038 22.9000098,34.2015649 23.2783929,33.8607199 C24.2337082,33.0010759 25.1593378,32.108079 26.0453868,31.1769953 C26.7606363,30.4249413 27.5791399,30.2710876 28.5525246,29.9586463 C28.5946867,29.94509 28.7114929,29.8979656 28.6854643,29.8310446" id="Fill-6" fill="#68754A"></path>
                <g id="Group-10" transform="translate(0.000000, 23.810955)" fill="#91A067">
                    <path d="M13.8437461,13.5919503 C13.8437461,13.5919503 14.8670369,8.33101526 10.660079,4.92019757 C6.45247575,1.50873435 0.233999531,1.89003326 0.00361389237,0.061864241 C0.00361389237,0.061864241 -0.29474734,8.17759194 4.51581665,10.969552 C9.32659574,13.7595755 13.8437461,13.5919503 13.8437461,13.5919503" id="Fill-8"></path>
                </g>
                <path d="M0.6640097,26.9450293 C0.677346683,26.8981201 0.690468554,26.8512109 0.703805538,26.8043016 C0.721014549,26.7431905 0.812007196,26.7371655 0.862988892,26.7483549 C1.23470354,26.8294777 1.60706352,26.9086639 1.97985372,26.9869894 C2.49784496,27.0954401 2.10677018,26.948257 1.89230288,26.7272672 C1.51865222,26.3423103 1.15425141,25.9496068 0.842338079,25.5117156 C0.811792084,25.4688948 0.840402065,25.4361874 0.881488579,25.4183275 C0.933115613,25.3961639 0.98495776,25.3737852 1.03658479,25.3516217 C1.10197904,25.3232179 1.22007588,25.346027 1.26288329,25.4060622 C1.50036765,25.7391608 1.76968867,26.0440708 2.04761421,26.3442469 C2.18808276,26.4957336 2.83449625,26.972142 2.77792162,27.1092117 C2.90268695,26.807099 2.80545604,26.3182101 2.78351455,26.0057688 C2.77985763,25.9554167 2.87364675,25.9472398 2.90333229,25.9463791 C2.96270338,25.9446577 3.02207447,25.9431514 3.08144556,25.9412148 C3.12618899,25.9397085 3.24600673,25.9657453 3.25138454,26.0268564 C3.27698295,26.3291843 3.11435779,27.3818447 3.20685623,27.4657649 C3.9178035,28.1095833 4.66618038,28.7114417 5.42316176,29.2995286 C5.92200798,29.687498 6.43074937,30.0623415 6.9416419,30.4343877 C7.2309684,30.6448337 7.52330648,30.8509761 7.81564456,31.0575489 C7.96945009,31.1659996 8.05097778,31.2324902 8.0920643,31.269286 C8.06539033,31.2333509 8.03635013,31.1750372 8.05506492,31.1115591 C8.30975829,30.2480419 7.57729975,28.9020912 7.2565668,28.1556318 C7.24236937,28.1227093 7.27936874,28.0910779 7.30711827,28.0837617 C7.36304756,28.0691295 7.41876173,28.0544973 7.47447591,28.039865 C7.55213157,28.0194229 7.67560623,28.0308275 7.71217538,28.1156084 C8.01655976,28.8213987 8.27813673,29.5426819 8.46528473,30.2882805 C8.5719806,30.7134761 8.32481618,31.4158236 8.61263689,31.6226115 C9.94332369,32.5793016 11.1823725,33.6894151 12.2310466,34.9525215 C12.3555968,33.7858157 12.1351064,32.5814534 11.6749804,31.5040473 C11.6609981,31.4709096 11.6977824,31.4399237 11.7255319,31.4326076 C11.7814612,31.4173298 11.8373905,31.4022672 11.8933198,31.3874198 C11.9703301,31.3663322 12.0946652,31.3783822 12.1310192,31.4633783 C12.4960654,32.3217312 12.6870854,33.2461444 12.7464565,34.1746459 C12.7662469,34.4834292 12.7369916,34.7902758 12.7042944,35.0971225 C12.657615,35.5326467 12.713114,35.5573924 12.9802839,35.9477289 C13.1796934,36.2382218 13.368132,36.5523846 13.5081704,36.8773063 C13.5298967,36.9272281 13.4580491,36.9489613 13.4262125,36.9567077 C13.3692076,36.9702641 13.3124179,36.9836052 13.2556281,36.9973768 C13.1874374,37.0133001 13.0788055,36.9823142 13.0493351,36.9134566 C12.8774601,36.5108549 12.623197,36.1446185 12.3764628,35.7856984 C12.1135951,35.4035387 10.9425219,35.5845051 10.4953027,35.5436209 C9.0484551,35.4121459 7.62462453,35.0508588 6.24876408,34.5959683 C6.19821261,34.5791843 6.13561483,34.5400215 6.16336436,34.4799863 C6.18423029,34.4352289 6.2048811,34.3902563 6.22574703,34.3452836 C6.25242099,34.2878306 6.37094806,34.3046146 6.41440081,34.3192469 C8.15917944,34.8978658 10.0259269,35.3426428 11.8774014,35.2991764 C12.2112563,35.2912148 11.7089682,34.9290669 11.5450524,34.7397085 C11.2167905,34.3599159 10.8612093,34.0040082 10.5004654,33.655847 C9.7103567,32.8934644 8.84065629,32.2175841 7.94922951,31.57893 C7.00682103,31.6208901 6.05731383,31.385268 5.1497536,31.1599746 C4.22670526,30.9310231 3.24364049,30.6564534 2.43395651,30.1402367 C2.41158479,30.1258196 2.38383526,30.0804167 2.40943367,30.055671 C2.44707838,30.0195207 2.4849382,29.9833705 2.52258292,29.9472203 C2.59055851,29.8815904 2.70026596,29.9063361 2.77211358,29.9525998 C3.72613814,30.5641412 4.97336123,30.8232179 6.06441255,31.0575489 C6.53529412,31.1588987 7.01327441,31.2365786 7.49383605,31.27402 C7.90061405,31.3058666 7.15417319,31.0173103 7.08081977,30.9654519 C6.7000704,30.6956162 6.3240535,30.4195403 5.94868195,30.1423885 C5.00218633,29.4428384 4.0793531,28.7101506 3.18964722,27.939376 C2.47117099,27.3168603 1.71139315,27.2486483 0.796303974,27.0493916 C0.75693836,27.0409996 0.64615535,27.0082923 0.6640097,26.9450293" id="Fill-11" fill="#68754A"></path>
                <path d="M13.7789327,26.8288106 C13.7789327,26.8288106 13.6487895,21.6888067 18.171963,19.1326839 C22.6957818,16.5763459 28.5173752,17.9281064 29.0265469,16.235716 C29.0265469,16.235716 28.0159477,23.9604617 23.0206019,25.8348944 C18.0254713,27.7073905 13.7789327,26.8288106 13.7789327,26.8288106" id="Fill-13" fill="#91A067"></path>
                <path d="M27.9125215,19.03652 C27.9075739,18.9900411 27.9024112,18.943347 27.8974636,18.8972985 C27.8907951,18.8361874 27.8056105,18.816606 27.7557044,18.8187578 C27.3910885,18.8359722 27.0262574,18.8521107 26.6612113,18.8665278 C26.1539757,18.8865395 26.5472016,18.8097203 26.7851162,18.6349941 C27.1998533,18.3302993 27.6072767,18.0169973 27.9721077,17.6522672 C28.0078164,17.6165473 27.9858749,17.5810426 27.9499511,17.5578032 C27.9045623,17.5283236 27.8591736,17.4990591 27.8137848,17.4697946 C27.7563497,17.4327836 27.6410494,17.4351506 27.5911432,17.4852876 C27.3134328,17.7626545 27.010124,18.0083901 26.6992862,18.2476702 C26.542254,18.3683862 25.8551842,18.7163322 25.8868058,18.8549081 C25.8168942,18.5493525 25.9868332,18.1019933 26.057175,17.8104245 C26.068576,17.7630849 25.9812402,17.740491 25.9532756,17.7351115 C25.8973463,17.7239221 25.841417,17.712948 25.7854877,17.7017586 C25.7435408,17.6931514 25.6258741,17.6985309 25.6110314,17.7557688 C25.5387535,18.0374394 25.5249863,19.0588987 25.4240985,19.1236678 C24.6492628,19.6194425 23.8451717,20.0693838 23.0352726,20.5053384 C22.5015781,20.7928189 21.960785,21.0663126 21.4182709,21.3365786 C21.11109,21.4895716 20.8015429,21.638261 20.492211,21.7871655 C20.3293707,21.8650606 20.2416047,21.9149824 20.1970764,21.9433862 C20.2280526,21.913261 20.2646218,21.8629088 20.2570929,21.7998611 C20.1538388,20.9423689 21.0609688,19.7855614 21.4832349,19.130984 C21.5019497,19.1019347 21.4718339,19.06643 21.4468809,19.0550254 C21.3965445,19.0322164 21.345993,19.0094073 21.2954416,18.9868134 C21.22553,18.9547516 21.1067878,18.9461444 21.0586026,19.0208118 C20.6582779,19.6394542 20.2960282,20.2802602 20.0002484,20.9557101 C19.8313849,21.3408822 19.9533538,22.0445207 19.6483241,22.1947164 C18.23697,22.8873807 16.8882138,23.7399237 15.6947689,24.7678384 C15.7629596,23.6441686 16.1632842,22.5402954 16.7701169,21.5945794 C16.7888317,21.5650998 16.7589311,21.5298103 16.7337629,21.5184057 C16.6832114,21.4953815 16.63266,21.4719268 16.5823236,21.4489026 C16.5128422,21.4170559 16.3932396,21.4082336 16.3454846,21.482901 C15.863202,22.2368916 15.5351553,23.0810426 15.3312285,23.949509 C15.2632529,24.2389261 15.2421719,24.5337226 15.2243175,24.8291647 C15.1989342,25.2487656 15.1425747,25.2631827 14.8276498,25.5893955 C14.5927468,25.8325489 14.3645123,26.1000176 14.1801607,26.3849159 C14.1517659,26.4288126 14.2162997,26.4608744 14.2451248,26.4733549 C14.2969669,26.4948728 14.3483788,26.5168212 14.4000059,26.5385544 C14.4619583,26.5645912 14.5697297,26.5527563 14.6082349,26.4922907 C14.8351787,26.1389652 15.1339702,25.8329793 15.4245874,25.5323728 C15.7341345,25.2130458 16.8131395,25.5711052 17.2427194,25.6035974 C18.6325622,25.7096811 20.0368175,25.5949902 21.4107419,25.3836835 C21.4615085,25.375937 21.5266877,25.3490395 21.5099089,25.2879284 C21.4974323,25.2420951 21.4849558,25.1962617 21.4724793,25.1504284 C21.4563458,25.0921146 21.3416908,25.0891021 21.2980229,25.0955575 C19.5553954,25.3649628 17.7187637,25.4884761 15.9739851,25.1521498 C15.6597055,25.0914691 16.1927546,24.8287344 16.3777515,24.6757414 C16.7488208,24.3686796 17.1416165,24.0887304 17.5387144,23.816743 C18.4073393,23.22134 19.3377014,22.7210466 20.2826913,22.2590552 C21.1676647,22.4486287 22.1031895,22.3769738 22.9976279,22.3089769 C23.9073393,22.2394738 24.8811542,22.1364026 25.7293433,21.7768369 C25.7527906,21.7667234 25.7861331,21.7286365 25.7659125,21.7010935 C25.7360118,21.6604245 25.7061112,21.6206162 25.6762105,21.5801624 C25.6222172,21.5074315 25.5146609,21.5134566 25.4391564,21.5455184 C24.4393128,21.9722203 23.2181184,22.0182688 22.1487934,22.0660387 C21.6871617,22.0869112 21.2225184,22.084329 20.7621773,22.0430145 C20.3723932,22.0081553 21.1242119,21.8543016 21.2020827,21.8168603 C21.6052038,21.6223376 22.0048831,21.4211444 22.403917,21.2188752 C23.4108593,20.7080379 24.4003774,20.1619112 25.3649425,19.5746851 C26.1436503,19.099998 26.8733123,19.1568056 27.7705472,19.1141999 C27.8094826,19.1126937 27.9194051,19.0991373 27.9125215,19.03652" id="Fill-15" fill="#68754A"></path>
                <path d="M15.146081,19.1386444 C15.146081,19.1386444 16.6972583,15.2195716 13.9380084,11.9746577 C11.1783284,8.7290982 6.31613736,8.12487285 6.40218242,6.6784331 C6.40218242,6.6784331 4.99900266,12.9089691 8.31410357,15.762901 C11.6298498,18.6148963 15.146081,19.1386444 15.146081,19.1386444" id="Fill-17" fill="#91A067"></path>
                <path d="M6.46878129,9.14876369 C6.48577519,9.1143349 6.50276909,9.08012128 6.51976298,9.04547731 C6.54191959,9.00093505 6.61312187,9.00932707 6.6509817,9.02525039 C6.92654099,9.14187793 7.20296073,9.25699922 7.4798107,9.37147496 C7.86464722,9.5300626 7.58349499,9.35942488 7.44969493,9.15801643 C7.21651283,8.80641236 6.99172012,8.45007433 6.81382196,8.06640845 C6.79639784,8.02896714 6.82328692,8.0078795 6.85748983,7.99991784 C6.90051236,7.99023474 6.94375,7.98033646 6.98698764,7.97065336 C7.04162625,7.95838811 7.12960732,7.99324726 7.15391505,8.04553599 C7.28965113,8.33732003 7.45378207,8.61210485 7.62522685,8.88409233 C7.71191724,9.02159233 8.14278786,9.48358372 8.07911452,9.58127543 C8.21915285,9.36588028 8.21463548,8.9736072 8.24303035,8.72894757 C8.24754772,8.68956964 8.32111624,8.69688576 8.34413329,8.700759 C8.39038251,8.70742958 8.43641661,8.71496088 8.48245072,8.722277 C8.51751408,8.72744131 8.6063556,8.76509781 8.60162312,8.81308294 C8.57774562,9.05042645 8.29982009,9.84078247 8.35919118,9.91867762 C8.8156602,10.5192449 9.3074077,11.0926995 9.80754459,11.6569014 C10.1370972,12.0289476 10.4761147,12.3921714 10.8172833,12.7536737 C11.0104545,12.9583099 11.2068523,13.1601487 11.403035,13.3619875 C11.5062891,13.4680712 11.559637,13.5309038 11.5858808,13.5653326 C11.5706078,13.5337011 11.5566255,13.4846401 11.5802879,13.4381612 C11.9018813,12.8074687 11.5301666,11.661205 11.3901283,11.0376135 C11.38389,11.0100704 11.4170174,10.9913498 11.4396042,10.9894131 C11.4847778,10.9861854 11.5301666,10.9829577 11.5753403,10.97973 C11.6381532,10.9752113 11.7319423,11.0016784 11.7480757,11.0726878 C11.8814456,11.6622809 11.9793218,12.2574687 12.0163212,12.8612637 C12.0374022,13.2053365 11.744849,13.7125156 11.9373748,13.9139241 C12.8277261,14.8456534 13.6253637,15.883036 14.2534926,17.0110094 C14.5182963,16.1272653 14.5219532,15.1645501 14.3216834,14.2650978 C14.3158753,14.2373396 14.3487875,14.2186189 14.3711593,14.2171127 C14.416548,14.2132394 14.4621519,14.2097966 14.5075407,14.2063537 C14.5699233,14.2009742 14.6645729,14.228302 14.680061,14.2993114 C14.838599,15.0160759 14.8525814,15.7582316 14.7643852,16.484464 C14.7349147,16.7261111 14.6677996,16.9589358 14.5983182,17.1913302 C14.4993664,17.5214163 14.538732,17.5483138 14.6888806,17.8887285 C14.8009543,18.1422105 14.9011968,18.4124765 14.962719,18.6836033 C14.972184,18.7253482 14.9134582,18.7318036 14.8876447,18.7333099 C14.8416106,18.7356768 14.7957916,18.7376135 14.7499726,18.7399804 C14.6949038,18.7425626 14.6155272,18.7025391 14.6028356,18.6453013 C14.5277613,18.3094053 14.3842811,17.9894327 14.2453184,17.6763459 C14.0973209,17.3428169 13.1658831,17.3133372 12.8262203,17.2171518 C11.7265645,16.9062167 10.6783206,16.4212011 9.68041302,15.8705556 C9.64362875,15.8501135 9.60103645,15.8111659 9.63136733,15.7687754 C9.65395416,15.7369288 9.67632588,15.7052973 9.6989127,15.6734507 C9.72752268,15.6329969 9.81700954,15.6631221 9.8486311,15.6803365 C11.1137085,16.3801017 12.4923655,16.9940102 13.9301783,17.228126 C14.189174,17.2700861 13.853168,16.9171909 13.753786,16.7474139 C13.5548068,16.4065689 13.3315199,16.0797105 13.1028551,15.7584468 C12.6025031,15.0548083 12.027507,14.4069014 11.4307846,13.7841706 C10.6961749,13.6802387 9.99641349,13.3609116 9.32741317,13.0555712 C8.64679678,12.7450665 7.92659966,12.3906651 7.37526596,11.8744484 C7.35999296,11.8604617 7.34515019,11.8210837 7.36859747,11.8058059 C7.40280038,11.7832121 7.4372184,11.7608333 7.47163642,11.7380243 C7.53380397,11.6973552 7.61490144,11.7322144 7.66373201,11.7784781 C8.31294196,12.3891588 9.23964722,12.7698122 10.0491161,13.1087207 C10.3986741,13.255043 10.7568367,13.3843662 11.1227433,13.4827034 C11.4327206,13.5659781 10.8975203,13.2350313 10.8480444,13.184464 C10.5929208,12.9206534 10.3418844,12.6529695 10.0919235,12.3844249 C9.46142835,11.7070383 8.85395025,11.0070579 8.27744837,10.2823318 C7.81215973,9.69747261 7.23458229,9.53479656 6.55590191,9.2486072 C6.52664659,9.23634194 6.44597935,9.19502739 6.46878129,9.14876369" id="Fill-19" fill="#68754A"></path>
                <path d="M18.3227785,12.3104675 C18.3227785,12.3104675 16.7212649,8.54331182 19.3211162,5.32594092 C21.9211827,2.10770931 26.6267717,1.40234937 26.5080296,2.15179969e-05 C26.5080296,2.15179969e-05 28.0222074,6.014732 24.8733886,8.86629695 C21.7239244,11.7163556 18.3227785,12.3104675 18.3227785,12.3104675" id="Fill-21" fill="#91A067"></path>
                <path d="M26.5035767,2.40022496 C26.4861526,2.36730243 26.4689436,2.33416471 26.4515195,2.30124218 C26.4289327,2.25842136 26.3598815,2.26853482 26.3237426,2.28467332 C26.0589389,2.40452856 25.7934899,2.52309272 25.5276107,2.64122653 C25.1578321,2.80454812 25.4267229,2.63197379 25.5514882,2.43293232 C25.7693973,2.08606221 25.978917,1.73467332 26.1421875,1.35789319 C26.1581058,1.32066706 26.131647,1.30130086 26.0980894,1.2944151 C26.0561424,1.28623826 26.0139804,1.2772007 25.9718183,1.26902387 C25.9184704,1.25848005 25.833716,1.29463028 25.8113443,1.34584311 C25.6870092,1.63267801 25.5340641,1.90294405 25.3746656,2.17170383 C25.2935681,2.30683685 24.886575,2.76581573 24.9506786,2.85941901 C24.8093496,2.65370696 24.8041869,2.27283842 24.7708444,2.03592527 C24.7654666,1.99783842 24.6940492,2.00687598 24.6718926,2.01074922 C24.6273643,2.01871088 24.5826209,2.0271029 24.5380925,2.03506455 C24.5043199,2.04108959 24.4189201,2.07982199 24.4247282,2.12630086 C24.4537684,2.35611307 24.7426647,3.11655908 24.6869505,3.19380869 C24.2584461,3.78792058 23.7950935,4.35685642 23.3233515,4.91675469 C23.0122986,5.28578834 22.692211,5.64664515 22.3697571,6.0059957 C22.1871265,6.20955595 22.0014843,6.41031886 21.8160572,6.61065141 C21.718396,6.71651995 21.6680597,6.77892214 21.6433217,6.81313576 C21.6573041,6.78171948 21.6697806,6.73394953 21.645688,6.68940728 C21.3180714,6.08453638 21.6508507,4.96280321 21.771744,4.35405908 C21.7773369,4.32716158 21.7444247,4.30951682 21.7224832,4.30844092 C21.6783851,4.30628912 21.6345021,4.30456768 21.5906191,4.30241588 C21.5295271,4.29940336 21.4387496,4.32759194 21.4251975,4.39687989 C21.3101122,4.97227113 21.229445,5.55282668 21.2081489,6.13983764 C21.1963177,6.47422731 21.4925278,6.95945814 21.3105425,7.16000587 C20.4688067,8.08614045 19.7199996,9.1125489 19.1374746,10.2230927 C18.8589037,9.37162559 18.8317995,8.43731416 19.0043199,7.55894953 C19.0094826,7.53205203 18.9770005,7.51440728 18.9552742,7.51354656 C18.910961,7.5109644 18.8668629,7.50859742 18.8225497,7.50644562 C18.7616728,7.50278756 18.6706801,7.53162167 18.6571281,7.60090962 C18.5209617,8.3004597 18.5254791,9.02152778 18.6289483,9.72409038 C18.6633663,9.957991 18.7341384,10.1826389 18.8072767,10.4064261 C18.9113912,10.7246772 18.8737465,10.7517899 18.7362895,11.0857492 C18.6336808,11.3347124 18.5429032,11.5993838 18.4897704,11.8640552 C18.4815961,11.9051545 18.538601,11.9098885 18.5637692,11.910534 C18.6087277,11.9116099 18.653256,11.9126858 18.6977843,11.9137617 C18.7511323,11.9150528 18.8272821,11.8739534 18.838468,11.8182218 C18.9027867,11.4900724 19.0344356,11.1759096 19.1615672,10.8688478 C19.2970882,10.5415591 20.2007764,10.4903462 20.5283929,10.3883509 C21.5880378,10.0595559 22.5941196,9.56335094 23.54965,9.00431338 C23.5847133,8.98387128 23.6251545,8.94470853 23.5946085,8.90403951 C23.5720217,8.87391432 23.5494348,8.84378912 23.526848,8.81366393 C23.4978078,8.77471635 23.4117628,8.80634781 23.3814319,8.82377739 C22.1703477,9.53387128 20.8469747,10.1634879 19.4567017,10.4260074 C19.2065257,10.4731318 19.5238169,10.1223885 19.6161002,9.95497848 C19.8010971,9.61929773 20.0099714,9.29652778 20.2240085,8.97913732 C20.692739,8.28367567 21.2350379,7.64071792 21.7992784,7.02164515 C22.5097954,6.90265063 23.1815922,6.57557707 23.8237035,6.26292058 C24.4767854,5.94488459 25.167297,5.58316706 25.6898056,5.06824139 C25.7044333,5.05446987 25.7177703,5.01595266 25.6947532,5.0015356 C25.6609805,4.98044797 25.6269927,4.95936033 25.5930049,4.93848787 C25.5316978,4.90040102 25.453827,4.93612089 25.4075778,4.98238459 C24.7923557,5.59091354 23.9015742,5.98318662 23.1241571,6.33199335 C22.7883663,6.48283451 22.4437559,6.61667645 22.090756,6.72125391 C21.7919646,6.80969288 22.3037175,6.47530321 22.350397,6.4249511 C22.5915383,6.16264671 22.8288075,5.89668427 23.0650012,5.62986111 C23.6606481,4.95677817 24.2332779,4.26239241 24.7753618,3.54498239 C25.2126858,2.96571792 25.7693973,2.79357394 26.4214037,2.49920775 C26.4493684,2.48651213 26.5268089,2.44455203 26.5035767,2.40022496" id="Fill-23" fill="#68754A"></path>
            </g>
        </g>
    </g>
</svg>