<?xml version="1.0" encoding="UTF-8" standalone="no"?>
<svg width="50px" height="50px" viewBox="0 0 50 50" version="1.1" xmlns="http://www.w3.org/2000/svg" xmlns:xlink="http://www.w3.org/1999/xlink">
    <!-- Generator: Sketch 41.2 (35397) - http://www.bohemiancoding.com/sketch -->
    <title>Rectangle 2</title>
    <desc>Created with Sketch.</desc>
    <defs>
        <polygon id="path-1" points="44.7233557 0.0545775799 44.7233557 42.5838926 0 42.5838926 0 0.0545775799 44.7233557 0.0545775799"></polygon>
    </defs>
    <g id="紅磚屋_UI-KIT" stroke="none" stroke-width="1" fill="none" fill-rule="evenodd">
        <g id="illu07_contactus_color">
            <rect id="Rectangle-2" fill="#FFFFFF" opacity="0" x="0" y="0" width="50" height="50"></rect>
            <g transform="translate(3.000000, 4.000000)">
                <g id="Group-3" transform="translate(0.000000, 0.247651)">
                    <mask id="mask-2" fill="white">
                        <use xlink:href="#path-1"></use>
                    </mask>
                    <g id="Clip-2"></g>
                    <path d="M11.5377886,15.9272215 C11.5377886,15.9272215 0.436379195,8.41252349 5.90161409,2.60571141 C11.366849,-3.20110067 19.0524866,2.26413423 20.7603725,9.26661745 C20.7603725,9.26661745 23.6636275,-1.09153691 30.6661107,0.159402685 C37.668896,1.41004027 42.2800369,8.24188591 31.6911443,15.9272215 C31.6911443,15.9272215 47.9159094,15.9272215 44.1588624,26.5167181 C40.4012114,37.1053087 27.5919161,28.9074564 27.5919161,28.9074564 C27.5919161,28.9074564 33.5696678,42.0583289 20.7603725,42.5705436 C7.95107718,43.0830604 14.9538624,28.7365168 14.9538624,28.7365168 C14.9538624,28.7365168 3.51057383,37.2762483 0.436379195,28.224302 C-2.63811745,19.1723557 11.5377886,15.9272215 11.5377886,15.9272215" id="Fill-1" fill="#FEC64B" mask="url(#mask-2)"></path>
                </g>
                <path d="M17.1493792,19.7618859 C17.1493792,19.7618859 11.6521309,17.762557 12.960755,16.5608456 C14.2696812,15.3594362 18.5984396,17.6251409 18.5984396,17.6251409 C18.5984396,17.6251409 14.9742785,14.251953 16.4843456,12.4398725 C17.9944128,10.6277919 20.4105201,16.5608456 20.4105201,16.5608456 C20.4105201,16.5608456 19.3030369,11.0306779 21.3165604,10.7286644 C23.3300839,10.426651 22.3615268,15.9634631 22.3615268,15.9634631 C22.3615268,15.9634631 24.0346812,11.1309463 26.2493456,11.5338322 C28.4643121,11.9367181 24.840151,16.5608456 24.840151,16.5608456 C24.840151,16.5608456 28.3634396,14.4147383 29.7729362,15.2392349 C31.1824329,16.0640336 25.7461913,18.6978926 25.7461913,18.6978926 C25.7461913,18.6978926 30.8677349,18.3614497 30.9242114,20.1324564 C30.9809899,21.9031611 25.5447483,20.8258792 25.5447483,20.8258792 C25.5447483,20.8258792 29.5714933,22.7944027 29.1689094,24.0097047 C28.7663255,25.2253087 23.4306544,22.148396 23.4306544,22.148396 C23.4306544,22.148396 25.8509899,27.6414161 24.0367953,27.9434295 C22.2226007,28.245443 20.9139765,22.148396 20.9139765,22.148396 C20.9139765,22.148396 21.2159899,27.6414161 19.4039094,27.1379597 C17.5918289,26.6345034 18.6990101,22.148396 18.6990101,22.148396 C18.6990101,22.148396 14.7728356,25.7281611 13.4642114,25.074 C12.1555872,24.4198389 17.1493792,19.7618859 17.1493792,19.7618859" id="Fill-4" fill="#FFE0A9"></path>
                <path d="M24.0368255,19.1858557 C24.0368255,20.2987752 23.1350134,21.2005872 22.022396,21.2005872 C20.9097785,21.2005872 20.0079664,20.2987752 20.0079664,19.1858557 C20.0079664,18.0732383 20.9097785,17.1714262 22.022396,17.1714262 C23.1350134,17.1714262 24.0368255,18.0732383 24.0368255,19.1858557" id="Fill-6" fill="#F9EDE6"></path>
            </g>
        </g>
    </g>
</svg>