<?xml version="1.0" encoding="UTF-8" standalone="no"?>
<svg width="50px" height="50px" viewBox="0 0 50 50" version="1.1" xmlns="http://www.w3.org/2000/svg" xmlns:xlink="http://www.w3.org/1999/xlink">
    <!-- Generator: Sketch 41.2 (35397) - http://www.bohemiancoding.com/sketch -->
    <title>Rectangle 2</title>
    <desc>Created with Sketch.</desc>
    <defs></defs>
    <g id="紅磚屋_UI-KIT" stroke="none" stroke-width="1" fill="none" fill-rule="evenodd">
        <g id="illu01_aboutus_color">
            <rect id="Rectangle-2" fill="#FFFFFF" opacity="0" x="0" y="0" width="50" height="50"></rect>
            <g transform="translate(6.666667, 2.500000)">
                <path d="M14.9969876,32.0110803 C15.3781846,33.2059959 16.0678272,34.2349786 16.9214095,34.5937523 C15.3871539,35.2036675 13.8035669,35.6900051 12.2090174,36.0148945 C13.1632556,34.7631732 14.1015483,33.4162771 14.9969876,32.0110803 M18.0071981,26.764514 C18.0824409,26.855204 18.149711,26.9538668 18.2294385,27.0410687 C18.1183183,27.0181471 18.0042083,27.0051913 17.891095,26.9887476 C17.9304604,26.9135047 17.9678327,26.8392585 18.0071981,26.764514 M24.0041993,11.1434098 C24.0051959,11.1449047 24.0056942,11.1468979 24.0066908,11.1483928 C24.0046976,11.150386 24.0032027,11.1528774 24.0017078,11.1548706 C24.0022061,11.1513825 24.0032027,11.1478945 24.0041993,11.1434098 M32.1324156,30.8640012 C31.7666658,30.6890991 31.3675301,30.558047 30.9514523,30.4598826 C30.873718,30.4299848 30.7989735,30.3961006 30.7197443,30.3696909 C30.860264,30.3368033 31.0007837,30.304414 31.1427983,30.26754 C35.3897813,29.165806 31.9948857,23.5265819 28.9737126,22.970981 C27.9417401,22.5010872 26.8723953,22.526002 26.0811001,23.4254276 C26.0651546,23.3676252 26.0556869,23.3133109 26.0382465,23.2555084 C25.7876033,22.4148819 25.2150603,21.9614318 24.4895403,21.7880246 C25.2150603,21.2643147 25.9346008,20.7316355 26.6506532,20.1894887 C27.2336604,20.7406048 28.527737,21.6166105 30.2010174,20.6304813 C30.2010174,20.6304813 30.1442116,20.5826448 30.0490369,20.5093952 C36.6923289,20.6175255 37.1293352,16.5549123 35.20292,14.6090636 C35.0638952,13.822253 34.6109435,13.123641 33.9805981,12.6572353 C33.1738557,11.0851091 31.3989228,9.91660325 29.8332744,11.0995597 C28.2990188,12.2585979 27.4454365,14.2931434 26.9805257,15.951475 C25.3565766,17.2570124 25.9056996,18.9292962 26.2076674,19.5730956 C25.3386379,20.230349 24.4656221,20.8781347 23.5806471,21.5074835 C22.5840536,21.3116529 21.3233629,21.6215935 20.1962157,22.1956313 C21.2371575,19.8351997 22.0982143,17.5863865 22.737529,15.6524969 C23.2124058,14.2313546 23.5647016,12.9831213 23.8103619,11.9810466 C24.3315802,12.0453269 26.4020032,12.1514641 27.0911475,9.96045336 C28.4684397,8.92648764 30.0540199,7.39721497 30.5782281,5.54654091 C31.1129004,3.6584946 29.3803227,2.42770167 27.6228301,2.24632166 C26.9595972,1.82725411 26.1443837,1.65882982 25.3610613,1.8142984 C22.8496458,0.723526854 19.221049,2.60310212 21.729973,8.75607016 C21.6273239,8.69378307 21.562047,8.6589023 21.562047,8.6589023 C21.2560928,10.5429622 22.4913704,11.4334185 23.2218734,11.7892024 C22.8586151,12.7444372 22.3951991,13.9418442 21.81568,15.3061807 C21.0174087,17.2026981 19.9993885,19.4211151 18.8144388,21.7411847 C17.7465889,19.3897224 16.960775,16.9764713 16.2382447,14.5218616 C16.765941,14.2368359 17.9743105,13.3787689 17.5253452,11.6815703 C18.0410823,10.3267015 18.4820749,8.52685366 18.0241402,6.97515764 C17.5572362,5.39206893 15.7723373,5.29390447 14.4398918,5.95364934 C13.7791504,5.95315105 13.1223953,6.19930963 12.6345628,6.66272559 C10.3573467,7.01551968 8.6207826,9.98287671 13.1692352,13.2332663 C13.0685792,13.2352595 13.0062921,13.2397441 13.0062921,13.2397441 C13.6446102,14.7431054 14.9571238,14.7994129 15.6278312,14.7186888 C16.4071673,17.35717 17.2577598,19.9513028 18.440218,22.4662064 C17.5886289,24.0976299 16.6558174,25.7649308 15.6527461,27.4038287 C15.2575968,27.7232369 14.9915063,28.1826665 14.8385292,28.7198304 C13.561893,30.7274679 12.1850991,32.6459103 10.7968444,34.3635392 C10.0199998,31.3837247 9.56953957,28.3755074 9.17588516,25.3319109 C9.18236301,25.3114808 9.19183065,25.2930438 9.19681362,25.2721153 C9.23817225,25.1106672 9.26209049,24.9442361 9.27703939,24.7758118 C9.6258471,25.0867489 9.98761053,25.2506886 10.3473808,25.3015148 C12.8772333,26.6254892 15.7299821,21.3888889 13.1592692,20.1575977 C12.8867009,20.0270439 12.5892178,19.9298761 12.2792772,19.8561281 C12.2219731,19.8342031 12.1666621,19.8097865 12.1078631,19.7898547 C12.2125054,19.7654381 12.3171477,19.7410216 12.423285,19.7136153 C15.5789982,18.895412 13.058115,14.7057331 10.8132882,14.290652 C10.0449147,13.9408476 9.25013137,13.9587863 8.66114463,14.6284971 C8.64968381,14.5856436 8.64270765,14.5452816 8.62975194,14.5019298 C8.42395539,13.8127854 7.92665525,13.4734453 7.30527923,13.3787689 C5.44513753,12.3702164 1.19566301,15.0625136 2.37712456,16.759214 C2.51365786,16.9545463 2.66464177,17.140411 2.82509332,17.3158114 C2.54704374,17.2590056 2.26102142,17.2271146 1.97051442,17.2301044 C-0.996344314,17.2605005 0.165683663,22.9017178 2.26450949,23.0277868 C2.52013572,23.1787707 2.797687,23.2500272 3.09018718,23.2116583 C3.07573657,23.2440476 3.05729959,23.2744437 3.04334729,23.3078296 C2.45186907,24.7254838 3.69561771,25.7185892 5.1596135,26.0833424 C6.27031692,26.5183554 7.67102903,26.5592158 8.50916413,26.0972947 C8.90879811,29.1249456 9.38915616,32.1167192 10.203373,35.0845745 C9.04433482,36.4663514 7.88579492,37.6971443 6.77957618,38.7056969 C3.96320305,41.332219 1.60675781,42.4603628 1.38601236,42.5729778 C1.15380608,42.692569 0.949504421,42.8390683 0.774602269,43.0005164 C0.593720555,43.1465174 0.443733239,43.3109553 0.329124991,43.4848608 C0.100406791,43.832672 0.0087201928,44.2158621 0.133294376,44.5422465 C0.257370262,44.8691292 0.583256324,45.0734308 1.0292319,45.1317315 C1.25147224,45.1621276 1.50261379,45.1541549 1.76820595,45.1103048 C2.02532706,45.0510075 2.2949056,44.9518464 2.56049775,44.8153131 C2.81861546,44.6897423 5.47653022,43.3029825 8.3910678,40.3909364 C9.37669874,39.4317152 10.3827598,38.3080561 11.3803499,37.0707853 C13.7313139,36.6875951 16.0822779,35.9600819 18.3066745,34.9854135 C18.3988594,34.9893999 18.4925391,34.9849152 18.5872155,34.9724578 C18.5672836,35.0168062 18.5423688,35.0571682 18.5234335,35.1025132 C17.7276537,37.0099931 19.4029273,38.3469232 21.3736908,38.8372472 C23.4794928,39.6609317 26.3651292,39.4337084 26.8016371,37.7449808 C26.8579447,37.5282217 26.8893374,37.3044865 26.9092692,37.0772632 C27.379163,37.4963307 27.8669955,37.7165779 28.3518383,37.7853428 C31.7542083,39.5637639 35.5900966,32.5208379 32.1324156,30.8640012" id="shadow" fill="#C8C8C8"></path>
                <path d="M14.784165,10.5510845 C15.8211205,14.1642341 16.817714,17.7185847 18.4436562,21.1244428 C18.6220465,21.4976671 19.1766507,21.171781 18.9992571,20.7995533 C17.3942433,17.4380436 16.4265511,13.9414954 15.4045445,10.3801687 C15.2904345,9.9830262 14.6695568,10.1519488 14.784165,10.5510845" id="Fill-4" fill="#925655"></path>
                <path d="M16.4728927,12.2183853 C16.4728927,12.2183853 18.8113992,8.38598518 17.9468544,5.45450551 C17.1246648,2.66803019 12.2179369,4.47933881 12.8871494,6.93295191 C13.5259658,9.27743803 15.4349406,13.4935267 16.4728927,12.2183853" id="Fill-6" fill="#FAD2D2"></path>
                <path d="M15.5707264,13.1828885 C19.5227178,-0.882533341 1.81026219,6.29443448 15.5682349,13.1818919 C15.5567741,13.1564788 15.5512929,13.135052 15.5388354,13.1091406 C15.5512929,13.135052 15.5602622,13.158472 15.5707264,13.1828885" id="Fill-8" fill="#FAD2D2"></path>
                <path d="M15.4982243,12.9278602 C22.18138,-0.0637321519 4.42557259,3.39195568 15.4952345,12.9278602 C15.4892549,12.9044403 15.4872617,12.877034 15.4817805,12.8511225 C15.4872617,12.877034 15.4922447,12.9034437 15.4982243,12.9278602" id="Fill-10" fill="#D9BAB8"></path>
                <path d="M15.9653774,13.1186082 C15.9653774,13.1186082 13.806756,13.7863258 12.9287572,11.7188927 C12.9287572,11.7188927 14.9583197,11.5694037 15.7745298,12.6292808" id="Fill-12" fill="#B9B925"></path>
                <path d="M15.9274072,13.1147215 C15.9274072,13.1147215 18.0352024,12.3010029 17.4427276,10.134907 C17.4427276,10.134907 15.7579863,11.2745117 15.7724369,12.6124384" id="Fill-14" fill="#B9B925"></path>
                <path d="M22.7241746,29.9825641 C18.8469278,32.5766969 14.0413541,34.5175627 9.37032054,34.8907869 C8.79827589,34.9361319 8.79329293,35.834561 9.37032054,35.7882194 C14.192338,35.4035343 19.1673326,33.4402452 23.1771264,30.7579139 C23.6549929,30.4380074 23.2060276,29.6601662 22.7241746,29.9825641" id="Fill-16" fill="#925655"></path>
                <g id="Group-20" transform="translate(0.000000, 7.777615)" fill="#925655">
                    <path d="M24.1395367,0.115654671 C24.3034763,0.151033739 23.884907,2.69184877 22.6600937,6.35383145 C21.4497309,10.0148175 19.4640184,14.7949781 16.9162273,19.3489119 C14.3978356,23.9128117 11.261556,28.2220818 8.31413079,31.0932676 C5.39909491,34.0043171 2.74118015,35.3915752 2.48356074,35.5166476 C2.21796858,35.6536792 1.94839005,35.752342 1.69126894,35.8116393 C1.42567678,35.8559877 1.17453523,35.8629639 0.951796586,35.8335644 C0.506319309,35.7752636 0.180433246,35.5699654 0.0558590636,35.243581 C-0.0687151192,34.9171967 0.0229714793,34.5335082 0.251689679,34.1866937 C0.366796224,34.0127881 0.51678354,33.8478519 0.697166957,33.7018509 C0.872069109,33.5399045 1.07637077,33.3939036 1.30857705,33.2748106 C1.52982079,33.1621956 3.88576774,32.0340518 6.70214086,29.4075297 C9.53695097,26.8228646 12.7180773,22.7886542 15.372504,18.4435067 C18.0558319,14.1118133 20.2627881,9.51452761 21.7382447,6.00701692 C23.228152,2.50100112 23.9626413,0.0728011524 24.1395367,0.115654671" id="Fill-18"></path>
                </g>
                <path d="M8.02407226,21.3707011 C8.58116801,25.805542 9.08693919,30.1571673 10.3745379,34.4609562 C10.5150576,34.9313483 11.2530351,34.731033 11.1115188,34.2581494 C9.84534681,30.0246204 9.33658585,25.7372753 8.78845945,21.3707011 C8.72766725,20.8893464 7.96278176,20.8828686 8.02407226,21.3707011" id="Fill-21" fill="#925655"></path>
                <path d="M28.7481337,16.0519316 C25.2276672,18.7472186 21.8033721,21.4355295 17.8658313,23.5174132 C17.4308183,23.7476263 17.8165,24.4073712 18.251513,24.1776564 C22.1890538,22.0957726 25.6148438,19.4059669 29.1338153,16.7116765 C29.5189987,16.4166848 29.1387983,15.7529535 28.7481337,16.0519316" id="Fill-23" fill="#925655"></path>
                <path d="M26.3853102,17.0826085 C26.3853102,17.0826085 26.8576955,11.7687722 29.7562876,9.57875806 C32.5103736,7.49737262 35.9187233,12.6941092 33.5453359,14.5667083 C31.2790824,16.354597 26.4764985,19.0339385 26.3853102,17.0826085" id="Fill-25" fill="#FAD2D2"></path>
                <path d="M26.5648964,18.6417292 C32.727332,2.41120805 44.5798181,21.7824935 26.5683844,18.6427258 C26.5967873,18.6272786 26.6182141,18.6098382 26.6476136,18.5928961 C26.6182141,18.6098382 26.5923027,18.6252854 26.5648964,18.6417292" id="Fill-27" fill="#FAD2D2"></path>
                <path d="M26.8149915,18.4490378 C29.6079447,1.31510473 44.1308029,17.1614391 26.8179813,18.451031 C26.8404046,18.4335906 26.8613331,18.4091741 26.8852513,18.3877473 C26.8613331,18.4091741 26.8374148,18.4306009 26.8149915,18.4490378" id="Fill-29" fill="#D9BAB8"></path>
                <path d="M26.2339775,18.3010935 C26.2339775,18.3010935 27.8245407,20.4646979 30.1236818,19.1098291 C30.1236818,19.1098291 28.2904481,17.5332183 26.762172,17.9682313" id="Fill-31" fill="#B9B925"></path>
                <path d="M26.2728945,18.3244637 C26.2728945,18.3244637 24.8333152,16.0577118 26.9306462,14.4063565 C26.9306462,14.4063565 27.7348971,16.6865623 26.7761742,17.9537309" id="Fill-33" fill="#B9B925"></path>
                <path d="M24.7293705,9.88750272 C24.7293705,9.88750272 29.5110259,7.52059324 30.5006433,4.02553997 C31.4419258,0.703893962 25.3637023,-0.588189461 24.4792256,2.30193158 C23.6346126,5.06299377 22.8772016,10.509377 24.7293705,9.88750272" id="Fill-35" fill="#FAD2D2"></path>
                <path d="M23.2111102,10.2845456 C36.1025449,-1.34271037 13.7534382,-5.36595818 23.209117,10.2825524 C23.2131034,10.2496648 23.222571,10.2242516 23.2255608,10.1903675 C23.222571,10.2242516 23.2170898,10.2536512 23.2111102,10.2845456" id="Fill-37" fill="#FAD2D2"></path>
                <path d="M23.2996575,9.98188012 C38.2565322,1.16850583 18.2225121,-6.62236356 23.2966678,9.97988693 C23.3056371,9.95248061 23.3210843,9.92457599 23.3325451,9.89417989 C23.3210843,9.92457599 23.3096235,9.95347721 23.2996575,9.98188012" id="Fill-40" fill="#D9BAB8"></path>
                <path d="M23.6480666,10.4694635 C23.6480666,10.4694635 21.0564253,9.77284464 21.4844622,7.13785153 C21.4844622,7.13785153 23.6186671,8.27496467 23.7676578,9.85705679" id="Fill-42" fill="#B9B925"></path>
                <path d="M23.6120896,10.4422565 C23.6120896,10.4422565 26.2465844,10.9609834 27.0254222,8.40920581 C27.0254222,8.40920581 24.6096796,8.4859435 23.7755309,9.83881913" id="Fill-44" fill="#B9B925"></path>
                <path d="M31.2534201,29.086527 C30.7954854,28.8677747 30.2877211,28.7157942 29.757035,28.6136434 C29.924961,28.5757728 30.0938836,28.5344142 30.2638028,28.4900658 C35.6090319,27.103306 28.8481418,18.5201448 25.963502,21.9459348 C25.7721561,22.1716632 25.5972539,22.4218082 25.4363041,22.6883969 C25.3745153,22.2992272 25.2848219,21.8961051 25.1597494,21.4785325 C23.9772913,17.514582 15.6736745,22.0774851 17.5497617,24.7712773 C17.7336332,25.0348762 17.9359417,25.2840246 18.1522025,25.5207156 C17.7774833,25.4434796 17.3937948,25.4011243 17.0026319,25.4046124 C12.8523184,25.4484625 14.7074772,33.6579012 17.7421043,33.192492 C18.0884205,33.1391743 18.4332418,33.0435013 18.771087,32.9189271 C18.6524924,33.1312015 18.5418705,33.3514487 18.4461975,33.5816618 C16.8536412,37.4001096 25.1572579,38.9308772 25.92314,35.9675065 C26.0257891,35.5713606 26.0616665,35.1527914 26.050704,34.7262494 C26.277429,35.0097802 26.5270756,35.2823485 26.8026337,35.5334901 C30.3340627,38.7460091 34.9413142,30.8539855 31.2534201,29.086527" id="Fill-46" fill="#C8C8C8"></path>
                <path d="M24.6466034,29.1244473 C24.6466034,29.1244473 29.2877392,28.0157371 32.0547809,29.3431996 C35.742675,31.1096615 31.1359218,39.0016851 27.6049911,35.7901627 C24.9505644,33.3744202 24.6466034,29.1244473 24.6466034,29.1244473" id="Fill-48" fill="#FAD2D2"></path>
                <path d="M24.6466034,29.1244473 C24.6466034,29.1244473 27.4903829,33.2608085 26.7245008,36.2241792 C25.959117,39.1865532 17.655002,37.6557857 19.2480566,33.8378361 C20.627342,30.5286475 24.6466034,29.1244473 24.6466034,29.1244473" id="Fill-50" fill="#FAD2D2"></path>
                <path d="M24.4626821,29.4066826 C24.4626821,29.4066826 21.5785406,32.98246 18.5434152,33.449364 C15.5087881,33.9147731 13.6541277,25.7053345 17.8049395,25.6614844 C21.3991538,25.6226172 24.4626821,29.4066826 24.4626821,29.4066826" id="Fill-52" fill="#FAD2D2"></path>
                <path d="M24.6466034,29.1244473 C24.6466034,29.1244473 20.3692243,27.9255454 18.3516208,25.0279499 C16.4760319,22.3331612 24.7786521,17.7717529 25.9611102,21.7347068 C27.315979,26.270702 24.6466034,29.1244473 24.6466034,29.1244473" id="Fill-54" fill="#FAD2D2"></path>
                <path d="M24.4626821,29.4066826 C24.4626821,29.4066826 24.7890665,24.5462963 26.764813,22.2018102 C29.6499511,18.7760201 36.4103428,27.3601779 31.0656121,28.7469377 C27.5855077,29.6488548 24.4626821,29.4066826 24.4626821,29.4066826" id="Fill-56" fill="#FAD2D2"></path>
                <path d="M24.112828,29.872889 C23.8846081,30.3652062 23.6578831,30.8590183 23.4306597,31.3513354 C23.3967756,31.4250834 23.5178617,31.4629539 23.5507493,31.389206 C23.7789692,30.8968888 24.0061925,30.4030768 24.2329175,29.909763 C24.2677983,29.8370117 24.1457156,29.7991411 24.112828,29.872889" id="Fill-58" fill="#F7A29B"></path>
                <path id="Fill-60" fill="#F7A29B"></path>
                <path d="M24.5969731,29.7804052 C24.8276845,30.2448177 25.0583958,30.708732 25.2881106,31.1731445 C25.3249846,31.2458958 25.438098,31.1895883 25.4022206,31.1158404 C25.1705126,30.6524244 24.9412961,30.1870153 24.711083,29.7240976 C24.6742091,29.6488548 24.5610957,29.7076538 24.5969731,29.7804052" id="Fill-62" fill="#F7A29B"></path>
                <path d="M24.8914166,29.6140239 C25.3573241,29.9334321 25.8222349,30.252342 26.2881423,30.5717502 C26.3554124,30.6185901 26.4256722,30.5114563 26.3579039,30.465613 C25.8914982,30.1462048 25.426089,29.8272949 24.9611782,29.5078867 C24.8934098,29.4600502 24.8236483,29.567184 24.8914166,29.6140239" id="Fill-64" fill="#F7A29B"></path>
                <path id="Fill-66" fill="#F7A29B"></path>
                <path d="M25.0130508,28.9220392 C25.5731364,28.5737298 26.1327236,28.226417 26.6913142,27.8766127 C26.7610758,27.8347557 26.7047682,27.7211441 26.6350067,27.763001 C26.0749212,28.112307 25.5163305,28.4606164 24.9567433,28.8089259 C24.8869818,28.8507828 24.9437876,28.9658893 25.0130508,28.9220392" id="Fill-68" fill="#F7A29B"></path>
                <path d="M24.738589,28.6728908 C25.0754376,28.1910379 25.4107913,27.7081884 25.7466433,27.2258371 C25.7934832,27.1585671 25.687346,27.0893038 25.6405061,27.1575705 C25.3046541,27.64042 24.9683038,28.122273 24.6314552,28.6036276 C24.5856119,28.6718943 24.6927457,28.7411575 24.738589,28.6728908" id="Fill-70" fill="#F7A29B"></path>
                <path id="Fill-72" fill="#F7A29B"></path>
                <path d="M24.1682884,28.5882302 C24.0442125,28.1073739 23.9201366,27.6275141 23.7955624,27.1466578 C23.7756306,27.0689235 23.6510564,27.0943366 23.6714866,27.1740641 C23.796559,27.6539239 23.9201366,28.1337836 24.0447108,28.61464 C24.0646427,28.6933708 24.1892169,28.6679577 24.1682884,28.5882302" id="Fill-74" fill="#F7A29B"></path>
                <path d="M23.8889432,28.7594948 C23.4499438,28.4764623 23.011941,28.1919348 22.571945,27.9059125 C22.50318,27.8620624 22.4344151,27.9681996 22.50318,28.0120497 C22.9416812,28.2970755 23.3811789,28.5816029 23.81968,28.8666286 C23.8889432,28.9114753 23.9582065,28.8053381 23.8889432,28.7594948" id="Fill-76" fill="#F7A29B"></path>
                <path id="Fill-78" fill="#F7A29B"></path>
                <path id="Fill-80" fill="#F7A29B"></path>
                <path d="M23.8408078,29.5857705 C23.4476517,29.8134921 23.0534989,30.0412137 22.6598445,30.2679387 C22.5890864,30.308799 22.6458922,30.422909 22.7161521,30.3820486 C23.1103048,30.154327 23.5044575,29.927602 23.8976136,29.6988838 C23.9693683,29.6580235 23.9120642,29.5449101 23.8408078,29.5857705" id="Fill-82" fill="#F7A29B"></path>
                <path d="M24.0363893,29.7025712 C23.7374112,30.0967239 23.4379349,30.48988 23.1384585,30.8840328 C23.0891272,30.9493096 23.1957627,31.0185729 23.2455923,30.9542926 C23.5440721,30.5601399 23.8425518,30.1659872 24.143523,29.7718345 C24.1923561,29.7065576 24.0857206,29.6372943 24.0363893,29.7025712" id="Fill-84" fill="#F7A29B"></path>
                <path d="M26.9974677,29.1468707 C26.8549549,29.0541875 26.8155894,28.8658313 26.907276,28.7243151 C26.9999592,28.5823005 27.1908069,28.5434334 27.3328214,28.63512 C27.4738394,28.7263083 27.5142015,28.9161593 27.4220166,29.0581739 C27.3293334,29.1991919 27.138984,29.2395539 26.9974677,29.1468707" id="Fill-86" fill="#F7A29B"></path>
                <path d="M26.2295925,30.8315123 C26.3745968,30.9246938 26.5694309,30.8838334 26.6641072,30.7388291 C26.7582853,30.5948213 26.717425,30.4014822 26.5719223,30.3068058 C26.426918,30.2126277 26.232084,30.2534881 26.1379059,30.3984924 C26.0442261,30.5434968 26.0840898,30.7363376 26.2295925,30.8315123" id="Fill-88" fill="#F7A29B"></path>
                <path id="Fill-90" fill="#F7A29B"></path>
                <path id="Fill-92" fill="#F7A29B"></path>
                <path id="Fill-94" fill="#F7A29B"></path>
                <path id="Fill-96" fill="#F7A29B"></path>
                <path id="Fill-98" fill="#F7A29B"></path>
                <path id="Fill-100" fill="#F7A29B"></path>
                <path id="Fill-102" fill="#F7A29B"></path>
                <path id="Fill-104" fill="#F7A29B"></path>
                <path id="Fill-106" fill="#F7A29B"></path>
                <path id="Fill-108" fill="#F7A29B"></path>
                <path id="Fill-110" fill="#F7A29B"></path>
                <path id="Fill-112" fill="#F7A29B"></path>
                <path d="M24.0300609,29.8037753 C24.3743839,30.0265139 24.8343118,29.9293461 25.0585453,29.5865179 C25.2817823,29.2431915 25.1846144,28.7857551 24.8407897,28.5630164 C24.4969649,28.3397795 24.0375353,28.436449 23.8128035,28.7797755 C23.5890683,29.1226036 23.6872327,29.5810366 24.0300609,29.8037753" id="Fill-114" fill="#F7A954"></path>
                <path d="M12.4860205,18.4461477 C12.1451855,18.283703 11.7679749,18.1705896 11.3738222,18.0948485 C11.4983964,18.065449 11.6239672,18.0355512 11.7500362,18.0021653 C15.7234544,16.9716877 10.6976335,10.590998 8.55396101,13.1382909 C8.41144814,13.3067152 8.28139269,13.4915833 8.16229978,13.690902 C8.11595818,13.4008933 8.04918642,13.1009187 7.95600493,12.7904798 C7.07750779,9.84454954 0.905604479,13.2364554 2.29983873,15.2386117 C2.43637204,15.433944 2.58735595,15.6198087 2.74780749,15.7952091 C2.46925962,15.7384033 2.18373559,15.7065123 1.8932286,15.7095021 C-1.19172646,15.7413931 0.187060593,21.8435348 2.44284989,21.4982152 C2.69997101,21.4583515 2.95609553,21.387095 3.20773538,21.2949101 C3.11953686,21.4523719 3.0373179,21.6158132 2.96606146,21.7872273 C1.78210843,24.6250272 7.95401174,25.7626386 8.52356491,23.5606654 C8.59980431,23.2656737 8.62671233,22.9552348 8.61824128,22.6378198 C8.78716388,22.8490976 8.97253026,23.0504095 9.17733022,23.2372708 C11.8023574,25.625607 15.2271508,19.7601562 12.4860205,18.4461477" id="Fill-116" fill="#C8C8C8"></path>
                <path d="M7.57510691,18.4743513 C7.57510691,18.4743513 11.0248152,17.6501685 13.0817841,18.636796 C15.8229144,19.9498079 12.3986193,25.8162553 9.77359209,23.4289157 C7.80083533,21.6335526 7.57510691,18.4743513 7.57510691,18.4743513" id="Fill-118" fill="#FAD2D2"></path>
                <path d="M7.57510691,18.4743513 C7.57510691,18.4743513 9.68888164,21.5488421 9.11982677,23.7513137 C8.55077191,25.9537852 2.377872,24.8161738 3.56232333,21.9778756 C4.58731971,19.5177847 7.57510691,18.4743513 7.57510691,18.4743513" id="Fill-120" fill="#FAD2D2"></path>
                <path d="M7.43837428,18.6835861 C7.43837428,18.6835861 5.29420345,21.3424975 3.03891244,21.6888137 C0.783123143,22.0346316 -0.596162209,15.9329881 2.48929115,15.9001006 C5.16115822,15.8707011 7.43837428,18.6835861 7.43837428,18.6835861" id="Fill-122" fill="#FAD2D2"></path>
                <path d="M7.57510691,18.4743513 C7.57510691,18.4743513 4.39547547,17.5828985 2.8956023,15.42926 C1.50086975,13.4261071 7.67277307,10.0351979 8.5522668,12.9816264 C9.55882619,16.3526038 7.57510691,18.4743513 7.57510691,18.4743513" id="Fill-124" fill="#FAD2D2"></path>
                <path d="M7.43837428,18.6835861 C7.43837428,18.6835861 7.6805465,15.0709348 9.14952526,13.3288894 C11.2936961,10.7820948 16.3190186,17.1622862 12.3460988,18.1932621 C9.75944046,18.8644678 7.43837428,18.6835861 7.43837428,18.6835861" id="Fill-126" fill="#FAD2D2"></path>
                <path d="M7.17801424,19.0300518 C7.00809506,19.3958016 6.83967076,19.7630463 6.67074817,20.1297927 C6.64583333,20.1841071 6.73552674,20.21251 6.76044158,20.1581956 C6.93036077,19.7919475 7.09928336,19.4252011 7.26770765,19.0584547 C7.29312079,19.0036421 7.20292908,18.9757375 7.17801424,19.0300518" id="Fill-128" fill="#F7A29B"></path>
                <path id="Fill-130" fill="#F7A29B"></path>
                <path d="M7.53813329,18.9619347 C7.70954737,19.3062577 7.88096144,19.651079 8.05187722,19.9973953 C8.07928354,20.0512113 8.16349569,20.0093544 8.13708596,19.9545417 C7.96417699,19.6092221 7.79425781,19.2634042 7.62284373,18.9200777 C7.59543741,18.8637702 7.51122527,18.9076203 7.53813329,18.9619347" id="Fill-132" fill="#F7A29B"></path>
                <path d="M7.75658658,18.8373605 C8.1034011,19.075048 8.44921903,19.3122373 8.79503696,19.5499248 C8.84536493,19.5848056 8.89718779,19.5050781 8.84685982,19.4706956 C8.5000453,19.2335064 8.15472566,18.9958188 7.80840944,18.7586296 C7.75808147,18.7242471 7.70625861,18.8034763 7.75658658,18.8373605" id="Fill-134" fill="#F7A29B"></path>
                <path id="Fill-136" fill="#F7A29B"></path>
                <path d="M7.84762539,18.3244637 C8.26370316,18.0648511 8.67978093,17.8067333 9.09486211,17.5466225 C9.14668497,17.5157281 9.10482804,17.4310176 9.05300518,17.4624103 C8.63692741,17.7220229 8.22134794,17.9811372 7.80576846,18.2397532 C7.7539456,18.2711459 7.79580253,18.3563546 7.84762539,18.3244637" id="Fill-138" fill="#F7A29B"></path>
                <path d="M7.64372237,18.1376024 C7.89336903,17.7803236 8.14301569,17.4220483 8.39316065,17.0632746 C8.42704483,17.013445 8.34881224,16.9621204 8.31393147,17.0124484 C8.06428481,17.3707237 7.81463815,17.7299957 7.56399489,18.0867761 C7.52961242,18.1376024 7.60983819,18.1894252 7.64372237,18.1376024" id="Fill-140" fill="#F7A29B"></path>
                <path id="Fill-142" fill="#F7A29B"></path>
                <path id="Fill-144" fill="#F7A29B"></path>
                <path d="M7.01158313,18.2028294 C6.68569707,17.9925482 6.35981101,17.7812704 6.03292835,17.5684977 C5.98160379,17.5351118 5.93077752,17.6148393 5.98160379,17.6472286 C6.30748985,17.859503 6.63437251,18.0702825 6.96025857,18.2825569 C7.01158313,18.3159428 7.06340599,18.2367136 7.01158313,18.2028294" id="Fill-146" fill="#F7A29B"></path>
                <path id="Fill-148" fill="#F7A29B"></path>
                <path id="Fill-150" fill="#F7A29B"></path>
                <path d="M6.97605458,18.8169303 C6.68405269,18.9863512 6.39055592,19.1557721 6.09805574,19.3241964 C6.04573458,19.3540942 6.0880898,19.4388046 6.13991266,19.4084085 C6.43291114,19.2394859 6.72640791,19.0710616 7.0184098,18.9016408 C7.07122925,18.8702481 7.02937233,18.7865342 6.97605458,18.8169303" id="Fill-152" fill="#F7A29B"></path>
                <path d="M7.12155722,18.9035343 C6.89931688,19.1965328 6.67607994,19.4895312 6.4543379,19.7815331 C6.41696564,19.8298679 6.49669312,19.8816908 6.53356708,19.8338543 C6.75530913,19.5408558 6.97754947,19.2478573 7.2007864,18.9553571 C7.23716206,18.9065241 7.15793288,18.8556978 7.12155722,18.9035343" id="Fill-154" fill="#F7A29B"></path>
                <path id="Fill-156" fill="#F7A29B"></path>
                <path id="Fill-158" fill="#F7A29B"></path>
                <path id="Fill-160" fill="#F7A29B"></path>
                <path id="Fill-162" fill="#F7A29B"></path>
                <path id="Fill-164" fill="#F7A29B"></path>
                <path id="Fill-166" fill="#F7A29B"></path>
                <path id="Fill-168" fill="#F7A29B"></path>
                <path id="Fill-170" fill="#F7A29B"></path>
                <path id="Fill-172" fill="#F7A29B"></path>
                <path id="Fill-174" fill="#F7A29B"></path>
                <path id="Fill-176" fill="#F7A29B"></path>
                <path id="Fill-178" fill="#F7A29B"></path>
                <path id="Fill-180" fill="#F7A29B"></path>
                <path id="Fill-182" fill="#F7A29B"></path>
                <path d="M7.11672374,18.9794747 C7.37334656,19.1449092 7.71418152,19.0726562 7.88160923,18.8180266 C8.04704374,18.5628986 7.97528901,18.2220637 7.71966279,18.0566292 C7.46353827,17.8911946 7.12220501,17.9624511 6.9557739,18.217579 C6.7888445,18.4722086 6.86159582,18.8140402 7.11672374,18.9794747" id="Fill-184" fill="#F7A954"></path>
            </g>
        </g>
    </g>
</svg>