<?xml version="1.0" encoding="UTF-8" standalone="no"?>
<svg width="31px" height="30px" viewBox="0 0 31 30" version="1.1" xmlns="http://www.w3.org/2000/svg" xmlns:xlink="http://www.w3.org/1999/xlink">
    <!-- Generator: Sketch 40.2 (33826) - http://www.bohemiancoding.com/sketch -->
    <title>illu01_news_white</title>
    <desc>Created with Sketch.</desc>
    <defs>
        <polygon id="path-1" points="29.8731707 29.2080251 29.8731707 0.118699187 0.0866302325 0.118699187 0.0866302325 29.2080251 29.8731707 29.2080251"></polygon>
    </defs>
    <g id="紅磚屋_UI-KIT" stroke="none" stroke-width="1" fill="none" fill-rule="evenodd">
        <g id="UI-KIT" transform="translate(-944.000000, -596.000000)">
            <g id="illu01_news_white" transform="translate(944.000000, 596.000000)">
                <g id="Group-5" transform="translate(0.650407, 0.287967)">
                    <mask id="mask-2" fill="white">
                        <use xlink:href="#path-1"></use>
                    </mask>
                    <g id="Clip-4"></g>
                    <path d="M19.9675203,14.7897154 C19.8150813,15.0230488 19.5008537,15.090122 19.2663008,14.9368699 C19.1736179,14.8771138 19.1163008,14.7893089 19.0789024,14.6945935 C18.131748,14.8697967 17.185813,15.042561 16.239065,15.2165447 C16.2118293,15.3661382 16.1549187,15.5128862 16.0687398,15.6494715 C16.687439,16.0742683 17.3065447,16.4986585 17.9268699,16.9238618 C18.0963821,16.7600407 18.3561382,16.7206098 18.5626423,16.8551626 C18.8028862,17.0112602 18.8703659,17.3307724 18.7150813,17.5693902 C18.5577642,17.8084146 18.236626,17.8754878 17.9963821,17.7214228 C17.785,17.5832114 17.7183333,17.3218293 17.8093902,17.097439 C17.185813,16.6693902 16.5626423,16.2421545 15.9394715,15.8149187 C15.8362195,15.9287398 15.7150813,16.0185772 15.5829675,16.0848374 C15.8740244,16.6714228 16.1654878,17.2592276 16.4577642,17.846626 C16.5569512,17.8275203 16.6630488,17.8437805 16.7545122,17.9031301 C16.9419106,18.0246748 16.9939431,18.2738618 16.8732114,18.4592276 C16.7508537,18.643374 16.5016667,18.6986585 16.3154878,18.5763008 C16.1280894,18.4543496 16.0760569,18.2055691 16.1980081,18.0193902 C16.2175203,17.9893089 16.2451626,17.9685772 16.2707724,17.9454065 C15.9764634,17.3506911 15.681748,16.7567886 15.3862195,16.1628862 C15.2687398,16.198252 15.1476016,16.2193902 15.0240244,16.2185772 C15.1569512,17.0080081 15.2902846,17.7970325 15.4244309,18.5864634 C15.488252,18.592561 15.5512602,18.6084146 15.6085772,18.645813 C15.7976016,18.7689837 15.8512602,19.0206098 15.7276829,19.2088211 C15.6036992,19.396626 15.3508537,19.449878 15.1618293,19.3271138 C14.9728049,19.2063821 14.9187398,18.9523171 15.0427236,18.7645122 C15.0862195,18.697439 15.1492276,18.6543496 15.2171138,18.6234553 C15.080935,17.8157317 14.9439431,17.0076016 14.8085772,16.2006911 C14.7728049,16.194187 14.738252,16.1803659 14.7028862,16.1706098 C14.7012602,16.1795528 14.7008537,16.1880894 14.6963821,16.1978455 C14.3675203,16.9141057 14.037439,17.6295528 13.7073577,18.344187 C13.8402846,18.4624797 13.8772764,18.6584146 13.7776829,18.8116667 C13.6658943,18.9803659 13.4394715,19.0295528 13.2703659,18.9193902 C13.1004472,18.8084146 13.0516667,18.5819919 13.1638618,18.4132927 C13.2435366,18.2921545 13.385,18.2352439 13.5211789,18.2539431 C13.8463821,17.548252 14.1707724,16.841748 14.4976016,16.1364634 C14.5032927,16.1234553 14.5114228,16.1136992 14.5199593,16.1047561 C14.5020732,16.096626 14.484187,16.0868699 14.4663008,16.0775203 C14.0589837,16.6124797 13.6532927,17.1478455 13.2471951,17.6828049 C13.3215854,17.8132927 13.3260569,17.9758943 13.2394715,18.1096341 C13.1154878,18.299065 12.8593902,18.3551626 12.6683333,18.2307724 C12.4760569,18.1071951 12.4219919,17.8515041 12.5463821,17.6628862 C12.6683333,17.4787398 12.9102033,17.4254878 13.0976016,17.5311789 C13.4951626,17.0092276 13.8923171,16.4872764 14.288252,15.9649187 C14.2386585,15.9267073 14.189878,15.8880894 14.1476016,15.844187 C14.1455691,15.8454065 14.1447561,15.847439 14.1423171,15.8486585 C13.588252,16.1706098 13.0337805,16.490122 12.4793089,16.8108537 C12.4984146,16.8978455 12.4845935,16.991748 12.4313415,17.0714228 C12.3272764,17.2307724 12.1146748,17.2775203 11.9549187,17.1726423 C11.7947561,17.0693902 11.7500407,16.8571951 11.8536992,16.6970325 C11.9581707,16.5393089 12.1719919,16.493374 12.330935,16.5962195 C12.3459756,16.6063821 12.3549187,16.6210163 12.3683333,16.6328049 C12.9167073,16.3165447 13.4650813,15.9994715 14.0130488,15.6815854 C13.9536992,15.5937805 13.9110163,15.497439 13.8764634,15.3986585 C13.2935366,15.3937805 12.7122358,15.3880894 12.1305285,15.3828049 C12.1195528,15.4210163 12.1089837,15.4592276 12.0862195,15.4937805 C11.9642683,15.6795528 11.7154878,15.7332114 11.5297154,15.6124797 C11.3415041,15.490935 11.2894715,15.2437805 11.4114228,15.0559756 C11.5321545,14.8697967 11.7813415,14.8185772 11.9683333,14.940935 C12.0549187,14.9962195 12.1093902,15.0807724 12.134187,15.1734553 C12.6976016,15.1795528 13.2606098,15.1852439 13.8232114,15.1897154 C13.8065447,15.0868699 13.8045122,14.9832114 13.8146748,14.8787398 C13.1142683,14.7055691 12.4130488,14.5295528 11.7126423,14.3551626 C11.6268699,14.4677642 11.4703659,14.5002846 11.3484146,14.4189837 C11.2215854,14.3389024 11.186626,14.1693902 11.2691463,14.044187 C11.3508537,13.9177642 11.5199593,13.8819919 11.6471951,13.9645122 C11.7158943,14.0092276 11.7549187,14.0787398 11.7658943,14.1531301 C12.4614228,14.3258943 13.1573577,14.499878 13.8532927,14.6730488 C13.8760569,14.5905285 13.9081707,14.5100407 13.9496341,14.4319919 C13.3183333,14.0222358 12.685813,13.6124797 12.0541057,13.2027236 C11.9626423,13.2669512 11.8386585,13.2734553 11.7406911,13.2100407 C11.6102033,13.1258943 11.5723984,12.9506911 11.6569512,12.8202033 C11.7415041,12.691748 11.9171138,12.6543496 12.0467886,12.740122 C12.1455691,12.8027236 12.189878,12.9185772 12.1687398,13.0271138 C12.8004472,13.4376829 13.4313415,13.8462195 14.0630488,14.2551626 C14.1496341,14.1429675 14.2492276,14.046626 14.3630488,13.9730488 C14.1947561,13.3238618 14.0272764,12.6750813 13.8589837,12.0263008 C13.7910976,12.0242683 13.7232114,12.0104472 13.6622358,11.9702033 C13.485813,11.8580081 13.436626,11.6214228 13.5508537,11.445 C13.6654878,11.2689837 13.9036992,11.2202033 14.0805285,11.3332114 C14.2557317,11.448252 14.3069512,11.6848374 14.1915041,11.8604472 C14.1581707,11.9116667 14.1126423,11.9486585 14.0630488,11.9775203 C14.2260569,12.6088211 14.3894715,13.2397154 14.5528862,13.8710163 C14.6569512,13.8267073 14.7671138,13.8031301 14.8793089,13.7889024 C14.9630488,13.1356504 15.0488211,12.4844309 15.133374,11.8332114 C15.1191463,11.8263008 15.1032927,11.8246748 15.089878,11.8161382 C14.9276829,11.7100407 14.8813415,11.495813 14.986626,11.3336179 C15.0919106,11.1742683 15.3077642,11.1283333 15.4695528,11.2344309 C15.630122,11.3376829 15.6752439,11.5527236 15.5707724,11.7136992 C15.5163008,11.7970325 15.431748,11.8478455 15.3410976,11.8641057 C15.2573577,12.5023171 15.1744309,13.140935 15.0919106,13.7799593 C15.2236179,13.7864634 15.3553252,13.8088211 15.4821545,13.8584146 C15.9476016,13.190935 16.4134553,12.5234553 16.8784959,11.8555691 C16.8211789,11.7669512 16.8167073,11.649065 16.8780894,11.5531301 C16.9610163,11.4267073 17.133374,11.3921545 17.2618293,11.4738618 C17.3906911,11.5567886 17.4260569,11.7267073 17.3431301,11.8559756 C17.2789024,11.9563821 17.1614228,11.9986585 17.0508537,11.9734553 C16.5906911,12.6344309 16.130935,13.2954065 15.6703659,13.9551626 C15.6805285,13.9612602 15.6910976,13.9645122 15.7012602,13.9710163 C15.835813,14.0584146 15.9455691,14.1685772 16.032561,14.291748 C16.7996341,13.8136992 17.5671138,13.3352439 18.335,12.8567886 C18.3028862,12.7486585 18.3122358,12.6295528 18.3789024,12.5279268 C18.5000407,12.3445935 18.7459756,12.2905285 18.9321545,12.4120732 C19.1171138,12.5307724 19.1695528,12.7787398 19.0492276,12.9624797 C18.9280894,13.1462195 18.6797154,13.198252 18.4951626,13.0775203 C18.4760569,13.0653252 18.4650813,13.0470325 18.4488211,13.0323984 C17.6789024,13.5120732 16.9077642,13.9913415 16.1362195,14.4718293 C16.2154878,14.6376829 16.2577642,14.8181707 16.2573577,15.0015041 C17.185,14.8303659 18.1142683,14.6596341 19.0443496,14.4889024 C19.0488211,14.4023171 19.0671138,14.3161382 19.1175203,14.2384959 C19.2703659,14.0047561 19.585813,13.9397154 19.8207724,14.0913415 C20.0541057,14.2413415 20.1207724,14.5559756 19.9675203,14.7897154 M27.6268699,15.2620732 C26.8707724,14.8994715 26.0297154,14.6486585 25.1532927,14.4795528 C25.4313415,14.4157317 25.7102033,14.3486585 25.9910976,14.2754878 C34.8272764,11.9828049 23.6512602,-2.20621951 18.8813415,3.45638211 C18.5663008,3.83036585 18.2768699,4.24378049 18.0106098,4.68443089 C17.9085772,4.04215447 17.7593902,3.3754878 17.5532927,2.68443089 C15.5980081,-3.86719512 1.87280488,3.67426829 4.97361789,8.12711382 C5.27727642,8.56329268 5.61223577,8.9750813 5.96955285,9.3653252 C5.35004065,9.23890244 4.7154878,9.16776423 4.06955285,9.1746748 C-2.79142276,9.24784553 0.274837398,22.8181707 5.29109756,22.0486585 C5.86386179,21.9608537 6.43337398,21.8031301 6.99313008,21.597439 C6.79597561,21.9478455 6.61426829,22.3116667 6.45573171,22.6921545 C3.82239837,29.0035366 17.5496341,31.5340244 18.8150813,26.6364634 C18.9845935,25.9803659 19.0443496,25.2889024 19.0256504,24.5840244 C19.4016667,25.0535366 19.8138618,25.5027236 20.2699593,25.9181707 C26.1073577,31.2283333 33.7228049,18.1823984 27.6268699,15.2620732" id="Fill-3" fill="#FFFFFF" mask="url(#mask-2)"></path>
                </g>
            </g>
        </g>
    </g>
</svg>