<?xml version="1.0" encoding="UTF-8" standalone="no"?>
<svg width="51px" height="50px" viewBox="0 0 51 50" version="1.1" xmlns="http://www.w3.org/2000/svg" xmlns:xlink="http://www.w3.org/1999/xlink">
    <!-- Generator: Sketch 41.2 (35397) - http://www.bohemiancoding.com/sketch -->
    <title>Rectangle 2</title>
    <desc>Created with Sketch.</desc>
    <defs></defs>
    <g id="紅磚屋_UI-KIT" stroke="none" stroke-width="1" fill="none" fill-rule="evenodd">
        <g id="illu05_location_color" transform="translate(-0.500000, 0.000000)">
            <rect id="Rectangle-2" fill="#FFFFFF" opacity="0" x="1" y="0" width="50" height="50"></rect>
            <g transform="translate(9.000000, 3.000000)">
                <path d="M7.25522702,35.431729 C7.25522702,35.431729 -0.935134203,30.795143 0.0884140223,23.0461464 C1.11224445,15.297432 6.65780447,10.9464348 15.1038411,7.78971842 C22.2393296,5.12290543 30.2047755,3.35349617 32.5936191,0.282004892 C32.5936191,0.282004892 34.0125329,3.9599492 33.2446601,11.2114229 C32.4770695,18.4631789 26.9631161,40.8917816 7.25522702,35.431729" id="Fill-1" fill="#DC6464"></path>
                <path d="M30.1420137,11.5704409 C28.6042926,12.1111407 26.7840869,11.958187 25.1916186,11.5966857 C26.3816662,10.9989809 27.5782046,10.4481218 28.7611972,9.94297943 C29.2364261,9.74007588 28.8035275,9.47254797 28.4631914,9.61816443 C25.9530008,10.6896871 23.4047128,11.9497209 20.9797473,13.4228176 C20.0925028,11.7660071 20.1935313,9.72822338 21.0009125,8.07592813 C21.1259281,7.81997053 20.625301,7.81489088 20.5270946,8.01553681 C19.6672238,9.77535119 19.5879249,11.909366 20.5381005,13.6632541 C20.5423335,13.6711558 20.5505174,13.6751066 20.5558792,13.6818795 C17.7076101,15.4526997 15.0486987,17.5271698 12.8463909,19.9515709 C11.1449925,17.71427 11.674122,14.0010504 12.1961965,11.5182334 C12.2413489,11.3023486 11.7390286,11.3765678 11.6986736,11.5690299 C11.1607958,14.1266305 10.6415433,17.9724853 12.4479211,20.2385708 C12.4702151,20.2662266 12.5060548,20.2797724 12.5458454,20.287674 C10.2391227,22.9118745 8.47140662,25.9387777 7.57005205,29.4259532 C5.86272733,26.9964725 4.61708579,23.9472752 4.77229713,20.9471811 C4.77765897,20.8413552 4.28634454,20.9130346 4.27759626,21.0798163 C4.11166123,24.2898689 5.53734792,27.5222156 7.42330679,30.0403079 C7.30195974,30.5787502 7.19528722,31.1245297 7.11598834,31.6844193 C7.06349868,32.0543867 7.02483695,32.4311269 6.99294807,32.810407 C6.97206509,32.8411671 6.96811426,32.8705161 6.98589301,32.8956321 C6.6712373,36.8100621 7.43911012,41.1308635 9.3854603,44.5093911 C9.51329801,44.73092 10.2343252,44.4938699 10.0726232,44.2133607 C8.24056503,41.0332215 7.50683871,36.8190926 7.71877273,33.0731375 C11.8411859,33.8150477 16.5500157,33.3070833 20.023081,30.9224727 C20.4362254,30.6388593 19.7896996,30.5759281 19.5695817,30.7271886 C16.2240719,33.0243164 11.6837169,33.4058541 7.75263702,32.6094789 C7.75940988,32.5234071 7.76392512,32.4362066 7.77154459,32.3506992 C8.00549041,29.7724978 8.73159727,27.4194939 9.81976985,25.2708046 C14.0883639,26.502336 18.9586134,25.2905588 22.6563119,23.0803493 C23.0584504,22.8399128 22.4511508,22.7369089 22.225671,22.8712373 C18.7037846,24.9767497 14.0892105,26.0762103 10.0455318,24.8353662 C11.4983099,22.1273517 13.5329895,19.7540292 15.9015145,17.6843566 C18.7695378,18.4920199 21.9937006,18.2628716 24.6334222,16.8848771 C24.9319923,16.7288191 24.6639,16.4485921 24.4110467,16.5806629 C21.9567321,17.8618619 18.9529694,18.0935501 16.2737395,17.3665966 C18.7681268,15.249514 21.6036969,13.4563997 24.5016336,11.9511319 C26.4208924,12.4170482 28.5582936,12.5474257 30.438044,11.8865076 C30.9271008,11.7143641 30.4809388,11.4513514 30.1420137,11.5704409" id="Fill-4" fill="#8B572A"></path>
            </g>
        </g>
    </g>
</svg>