<?xml version="1.0" encoding="UTF-8" standalone="no"?>
<svg width="32px" height="30px" viewBox="0 0 32 30" version="1.1" xmlns="http://www.w3.org/2000/svg" xmlns:xlink="http://www.w3.org/1999/xlink">
    <!-- Generator: Sketch 40.2 (33826) - http://www.bohemiancoding.com/sketch -->
    <title>illu07_contactus_white</title>
    <desc>Created with Sketch.</desc>
    <defs></defs>
    <g id="紅磚屋_UI-KIT" stroke="none" stroke-width="1" fill="none" fill-rule="evenodd">
        <g id="UI-KIT" transform="translate(-1166.000000, -662.000000)" fill="#FFFFFF">
            <g id="illu07_contactus_white" transform="translate(1166.000000, 662.000000)">
                <path d="M8.07103521,11.3148169 C8.07103521,11.3148169 0.305260563,6.05805634 4.12835915,1.99601408 C7.95145775,-2.06602817 13.3277958,1.75707042 14.5225141,6.65552113 C14.5225141,6.65552113 16.5534296,-0.590323944 21.4518803,0.284746479 C26.3505423,1.15960563 29.5761761,5.93869014 22.1689225,11.3148169 C22.1689225,11.3148169 33.5186408,11.3148169 30.8904718,18.722493 C28.2618803,26.1295352 19.3013873,20.3948873 19.3013873,20.3948873 C19.3013873,20.3948873 23.483007,29.5943239 14.5225141,29.9526338 C5.56202113,30.3111549 10.4606831,20.2753099 10.4606831,20.2753099 C10.4606831,20.2753099 2.45575352,26.2491127 0.305260563,19.917 C-1.84544366,13.5848873 8.07103521,11.3148169 8.07103521,11.3148169 Z M11.9965141,13.8240423 C11.9965141,13.8240423 8.15102113,12.4254507 9.06644366,11.5848169 C9.98207746,10.7443944 13.0101761,12.3293239 13.0101761,12.3293239 C13.0101761,12.3293239 10.4749648,9.96967606 11.5313028,8.70207042 C12.5876408,7.43446479 14.2777817,11.5848169 14.2777817,11.5848169 C14.2777817,11.5848169 13.5030634,7.71629577 14.9115845,7.50502817 C16.3201056,7.29376056 15.6425704,11.1669296 15.6425704,11.1669296 C15.6425704,11.1669296 16.812993,7.78643662 18.3622183,8.06826761 C19.9116549,8.35009859 17.3764437,11.5848169 17.3764437,11.5848169 C17.3764437,11.5848169 19.8410915,10.0835493 20.8270775,10.6603099 C21.8130634,11.2372817 18.0102465,13.0797465 18.0102465,13.0797465 C18.0102465,13.0797465 21.5929225,12.8443944 21.6324296,14.0832676 C21.6721479,15.3219296 17.869331,14.568338 17.869331,14.568338 C17.869331,14.568338 20.686162,15.9453803 20.4045423,16.7955211 C20.1229225,17.6458732 16.3904577,15.4934789 16.3904577,15.4934789 C16.3904577,15.4934789 18.0835563,19.3360141 16.8144718,19.5472817 C15.5453873,19.7585493 14.6299648,15.4934789 14.6299648,15.4934789 C14.6299648,15.4934789 14.8412324,19.3360141 13.5736268,18.983831 C12.3060211,18.6316479 13.0805282,15.4934789 13.0805282,15.4934789 C13.0805282,15.4934789 10.3340493,17.9976338 9.41862676,17.5400282 C8.50320423,17.0824225 11.9965141,13.8240423 11.9965141,13.8240423 Z" id="Combined-Shape"></path>
            </g>
        </g>
    </g>
</svg>