<?xml version="1.0" encoding="UTF-8" standalone="no"?>
<svg width="28px" height="30px" viewBox="0 0 28 30" version="1.1" xmlns="http://www.w3.org/2000/svg" xmlns:xlink="http://www.w3.org/1999/xlink">
    <!-- Generator: Sketch 40.2 (33826) - http://www.bohemiancoding.com/sketch -->
    <title>illu08_atm_white</title>
    <desc>Created with Sketch.</desc>
    <defs></defs>
    <g id="紅磚屋_UI-KIT" stroke="none" stroke-width="1" fill="none" fill-rule="evenodd">
        <g id="UI-KIT" transform="translate(-1168.000000, -728.000000)" fill="#FFFFFF">
            <g id="illu08_atm_white" transform="translate(1168.000000, 728.000000)">
                <path d="M20.8786429,5.74162679 L25.0543715,5.74162679 L25.0543715,3.00130492 L20.8786429,3.00130492 L20.8786429,5.74162679 Z M20.8786429,10.3088299 L25.0543715,10.3088299 L25.0543715,7.56850805 L20.8786429,7.56850805 L20.8786429,10.3088299 Z M20.8786429,14.8760331 L25.0543715,14.8760331 L25.0543715,12.0052197 L20.8786429,12.0052197 L20.8786429,14.8760331 Z M25.0543715,22.7055241 L24.0104393,22.7055241 L24.0104393,19.9652023 L3.26228795,19.9652023 L3.26228795,22.7055241 L2.21835581,22.7055241 L2.21835581,18.5297956 L25.0543715,18.5297956 L25.0543715,22.7055241 Z M22.0530666,27.5337103 L14.2028273,27.5337103 L14.1990431,27.0277947 C14.4614615,26.9599391 14.6886472,26.8418443 14.8745977,26.6770335 C15.2048717,26.3949108 15.3711179,26.0287516 15.368508,25.5899087 C15.368508,25.2216616 15.2248369,24.8969987 14.9525011,24.6506307 C14.6977816,24.4222706 14.3192258,24.2478034 13.8264898,24.1319269 C13.4575903,24.0473684 13.3051762,23.9526316 13.2452806,23.9021314 C13.1680296,23.8387125 13.1321444,23.7557199 13.1321444,23.6393214 C13.13097,23.4942149 13.1682906,23.4006525 13.2587212,23.3252284 C13.3554154,23.2426272 13.5100478,23.1990431 13.7185733,23.1990431 C13.8889952,23.1990431 13.9435407,23.2319269 14.0354067,23.3125707 C14.1219226,23.3885167 14.1782949,23.5204437 14.2038712,23.7096564 L14.2389735,23.9273162 L15.2397129,23.9211831 L15.2300565,23.6523706 C15.2074815,23.2277512 15.0446281,22.8858634 14.7439756,22.6342758 C14.5636364,22.4873423 14.4028708,22.385037 14.1729448,22.3280122 L14.1709874,21.922575 L22.0530666,21.922575 L22.0530666,27.5337103 Z M13.1327969,21.922575 L13.1361896,22.3561983 C12.9254458,22.4173989 12.7364941,22.5167029 12.5731187,22.6525446 C12.2645063,22.9076555 12.1028273,23.2530666 12.1054371,23.6506742 C12.1073945,23.9989561 12.2390605,24.3069161 12.4872553,24.5423227 C12.7171814,24.7575033 13.0576338,24.9189213 13.4989561,25.0214876 C13.9203132,25.1202697 14.1134406,25.223097 14.2007395,25.2914746 C14.2995215,25.3695085 14.3434972,25.4662027 14.3434972,25.6047847 C14.3434972,25.7895607 14.2933884,25.9197912 14.1853415,26.0151805 C14.069987,26.1174859 13.8957808,26.1703349 13.668856,26.1722923 C13.4428447,26.1722923 13.3492823,26.1240104 13.2336668,26.0202697 C13.1243149,25.9255328 13.0719878,25.7911266 13.0687255,25.5934319 L13.0598521,25.3428882 L12.0623749,25.346281 L12.0345803,25.7010874 L12.0349717,25.7116572 C12.045672,26.0711614 12.2102218,26.3903436 12.5267943,26.6632014 C12.7396259,26.8392344 12.9217921,26.9613745 13.1608525,27.0290996 L13.1641148,27.5335798 L5.21966072,27.5335798 L5.21966072,21.9224445 L13.1327969,21.9224445 L13.1327969,21.922575 Z M2.21835581,15.0065246 L18.7907786,15.0065246 L18.7907786,3.00130492 L2.21835581,3.00130492 L2.21835581,15.0065246 Z M27.2727273,0 L0,0 L0,26.2287951 L3.26228795,26.2287951 L3.26228795,29.4910831 L24.0104393,29.4910831 L24.0104393,26.2287951 L27.2727273,26.2287951 L27.2727273,0 Z" id="Page-1"></path>
                <path d="M4.73766234,9.34285714 L4.97142857,8.57142857 C5.15844156,7.94805195 5.33766234,7.31688312 5.5012987,6.66233766 L5.53246753,6.66233766 C5.71168831,7.30909091 5.88311688,7.94805195 6.07792208,8.57142857 L6.3038961,9.34285714 L4.73766234,9.34285714 Z M7.00519481,11.6883117 L7.96363636,11.6883117 L6.06233766,5.95324675 L5.01818182,5.95324675 L3.11688312,11.6883117 L4.03636364,11.6883117 L4.52727273,10.0519481 L6.52207792,10.0519481 L7.00519481,11.6883117 Z M9.35844156,11.6883117 L10.2623377,11.6883117 L10.2623377,6.70909091 L11.9532468,6.70909091 L11.9532468,5.95324675 L7.67532468,5.95324675 L7.67532468,6.70909091 L9.35844156,6.70909091 L9.35844156,11.6883117 Z M12.9428571,11.6883117 L13.7532468,11.6883117 L13.7532468,8.85194805 C13.7532468,8.33766234 13.6831169,7.5974026 13.6441558,7.07532468 L13.6753247,7.07532468 L14.1272727,8.4 L15.1324675,11.1350649 L15.6935065,11.1350649 L16.6909091,8.4 L17.1506494,7.07532468 L17.1818182,7.07532468 C17.1350649,7.5974026 17.0649351,8.33766234 17.0649351,8.85194805 L17.0649351,11.6883117 L17.9064935,11.6883117 L17.9064935,5.95324675 L16.8623377,5.95324675 L15.825974,8.85194805 C15.6935065,9.23376623 15.5844156,9.62337662 15.4519481,10.012987 L15.412987,10.012987 C15.2805195,9.62337662 15.1636364,9.23376623 15.0311688,8.85194805 L13.9792208,5.95324675 L12.9428571,5.95324675 L12.9428571,11.6883117 Z" id="ATM"></path>
            </g>
        </g>
    </g>
</svg>