<?xml version="1.0" encoding="UTF-8" standalone="no"?>
<svg width="28px" height="30px" viewBox="0 0 28 30" version="1.1" xmlns="http://www.w3.org/2000/svg" xmlns:xlink="http://www.w3.org/1999/xlink">
    <!-- Generator: Sketch 40.2 (33826) - http://www.bohemiancoding.com/sketch -->
    <title>illu05_location_white</title>
    <desc>Created with Sketch.</desc>
    <defs></defs>
    <g id="紅磚屋_UI-KIT" stroke="none" stroke-width="1" fill="none" fill-rule="evenodd">
        <g id="UI-KIT" transform="translate(-1168.000000, -595.000000)" fill="#FFFFFF">
            <g id="illu05_location_white" transform="translate(1168.000000, 595.000000)">
                <path d="M5.64362395,28.7065332 C4.4064593,27.9188246 -0.661039083,24.3282857 0.0720410552,18.7783415 C0.906273256,12.4645742 5.42487771,8.91931728 12.3068335,6.34717798 C18.1209352,4.17421924 24.6112985,2.73247836 26.5577637,0.229781763 C26.5577637,0.229781763 27.7139157,3.22662528 27.0882416,9.1352335 C26.4676945,14.9978065 22.0400659,33.0338051 6.2867436,28.9706382 C6.25071565,28.2869942 6.25201111,27.6088111 6.28937038,26.9484824 C9.64837368,27.5530018 13.485198,27.1391049 16.3151031,25.1960889 C16.6517392,24.9649964 16.1249404,24.9137192 15.9455851,25.0369685 C13.2196141,26.9087023 9.52006564,27.2195848 6.3169635,26.5706865 C6.32248213,26.500554 6.32616121,26.4295017 6.33236966,26.359829 C6.52299218,24.2590723 7.11463481,22.3418099 8.00129395,20.591026 C11.4794076,21.594496 15.4477591,20.607122 18.4606986,18.8062105 C18.788367,18.6102993 18.2935302,18.5263702 18.109806,18.635823 C15.2401208,20.3514256 11.4800974,21.2472825 8.18524813,20.2362243 C9.36899327,18.029694 11.0268803,16.0958757 12.9567896,14.4094757 C15.2936975,15.0675718 17.9207931,14.8808583 20.0716773,13.758048 C20.3149567,13.6308897 20.0965111,13.4025565 19.8904825,13.5101697 C17.8906706,14.5541097 15.4431602,14.7428927 13.260084,14.1505602 C15.2925478,12.4255299 17.6030122,10.9644738 19.9642941,9.73795936 C21.5281345,10.1175948 23.2697207,10.2238283 24.8013692,9.68530248 C25.1998599,9.54503742 24.8363205,9.3307308 24.5601593,9.42776663 C23.3072014,9.86833689 21.8240708,9.74370793 20.526504,9.4491513 C21.4961725,8.96213261 22.4711296,8.51328442 23.4350495,8.10168694 C23.8222731,7.93635813 23.469541,7.71837242 23.19223,7.83702287 C21.1468895,8.71011539 19.0705067,9.73680965 17.0946089,10.9371107 C16.371669,9.58711694 16.4539885,7.92670053 17.1118546,6.58038589 C17.2137192,6.37182784 16.8058008,6.36768887 16.7257808,6.53117814 C16.0251453,7.96510097 15.9605314,9.70392784 16.7347485,11.1330219 C16.7381977,11.1394603 16.744866,11.1426795 16.7492349,11.1481981 C14.428423,12.5910887 12.2619027,14.2813976 10.4674297,16.2568356 C9.08110498,14.4338497 9.51224759,11.4082633 9.93764162,9.38522723 C9.97443246,9.20932104 9.56513441,9.26979598 9.5322526,9.42661692 C9.09398177,11.5105878 8.67088716,14.6442473 10.1427505,16.4906873 C10.160916,16.5132217 10.1901187,16.524259 10.2225407,16.5306974 C8.34298884,18.6689347 6.90262762,21.1353004 6.16819056,23.9767026 C4.77703708,21.9971257 3.7620699,19.5125946 3.8885384,17.0680735 C3.89290731,16.981845 3.49257703,17.0402504 3.48544881,17.1761466 C3.35024249,19.7917451 4.51191312,22.425509 6.04862034,24.4772879 C5.94974497,24.9160186 5.86282662,25.3607279 5.79821272,25.8169342 C5.75544337,26.1183891 5.72394122,26.4253627 5.69795769,26.7344057 C5.68094193,26.7594695 5.67772273,26.7833835 5.69220912,26.8038484 C5.64202651,27.4281381 5.62563604,28.0651131 5.64362395,28.7065332 Z" id="Combined-Shape"></path>
            </g>
        </g>
    </g>
</svg>