<?xml version="1.0" encoding="UTF-8" standalone="no"?>
<svg width="23px" height="35px" viewBox="0 0 23 35" version="1.1" xmlns="http://www.w3.org/2000/svg" xmlns:xlink="http://www.w3.org/1999/xlink">
    <!-- Generator: Sketch 40.2 (33826) - http://www.bohemiancoding.com/sketch -->
    <title>illu04_foods_white</title>
    <desc>Created with Sketch.</desc>
    <defs></defs>
    <g id="紅磚屋_UI-KIT" stroke="none" stroke-width="1" fill="none" fill-rule="evenodd">
        <g id="UI-KIT" transform="translate(-948.000000, -724.000000)" fill="#FFFFFF">
            <g id="illu04_foods_white" transform="translate(948.000000, 724.000000)">
                <path d="M12.7055421,34.6745986 C11.5412117,31.5372512 11.0178543,28.0674859 10.8527652,24.7434718 C10.5078027,17.8006549 12.4527339,10.8616174 17.3958816,5.81553756 C17.5677057,5.64020892 16.8741669,5.71497418 16.7437383,5.84790845 C11.8771394,10.8159366 9.92185936,17.5477676 10.1173381,24.3870634 C10.2172129,27.8836127 10.7678387,31.5689648 11.9914698,34.8658662 C12.0644047,35.0620634 12.7684567,34.8441761 12.7055421,34.6745986" id="Fill-1"></path>
                <path d="M11.8072106,32.5156573 C11.8072106,32.5156573 10.5361061,28.2321831 13.7536202,25.0642723 C16.971627,21.8957042 22.1623263,21.7133099 22.2070072,20.1777465 C22.2070072,20.1777465 23.1052237,26.8883803 19.3372481,29.5911033 C15.568944,32.2923474 11.8072106,32.5156573 11.8072106,32.5156573 Z M21.9052636,22.7800704 C21.8904795,22.742277 21.8756954,22.7043192 21.8610756,22.6665258 C21.8418562,22.6170657 21.7658002,22.6195305 21.7244047,22.6328404 C21.4223162,22.7297887 21.1197348,22.8255869 20.8168249,22.9203991 C20.3956422,23.0520188 20.7084082,22.8985446 20.8685693,22.6980751 C21.1476604,22.3485681 21.418538,21.9934742 21.6422708,21.6051878 C21.6642827,21.5670657 21.6378356,21.5422535 21.6023537,21.5307512 C21.5576729,21.5162911 21.512992,21.5021596 21.4681469,21.4876995 C21.411803,21.4694601 21.3155421,21.497723 21.2849883,21.5509624 C21.1146425,21.8465728 20.9155499,22.1213146 20.708901,22.3926056 C20.6045909,22.5296479 20.1063666,22.9767606 20.1643531,23.0858685 C20.036717,22.8453052 20.0781125,22.4317136 20.0712132,22.1707746 C20.0700634,22.1287089 19.9917076,22.1293662 19.9669032,22.1311737 C19.9174585,22.1342958 19.8681782,22.1377465 19.8187336,22.1410329 C19.7814448,22.1434977 19.6840339,22.174554 19.684691,22.2259859 C19.6876478,22.4787089 19.9069454,23.3390845 19.8369673,23.4161502 C19.2986616,24.0075352 18.7258597,24.5668779 18.1448443,25.1158685 C17.761936,25.4776995 17.369993,25.8296714 16.9759144,26.1791784 C16.7526744,26.3771831 16.5264776,26.5717371 16.3004451,26.7666197 C16.1816794,26.8689906 16.1192577,26.9306103 16.088211,26.9644601 C16.1074304,26.9324178 16.1266497,26.8816432 16.1061162,26.8305399 C15.8255468,26.1343192 16.3254138,24.958615 16.5317342,24.313662 C16.5409332,24.2850704 16.5075868,24.2619014 16.4840965,24.2581221 C16.4366231,24.2503991 16.3891497,24.2426761 16.341512,24.2349531 C16.2756406,24.2242723 16.1741231,24.243662 16.1504686,24.3171127 C15.954497,24.9269014 15.7953215,25.5465493 15.6997176,26.1801643 C15.645345,26.5416667 15.9066951,27.1046244 15.6844407,27.299507 C14.6571097,28.1999765 13.7178262,29.2205634 12.9488885,30.3528873 C12.7519313,29.3947418 12.8383362,28.37777 13.133854,27.4467371 C13.1428888,27.4181455 13.1097067,27.3953052 13.0860521,27.3911972 C13.0385787,27.3833099 12.990941,27.3752582 12.9433033,27.3672066 C12.8777605,27.3561972 12.7754216,27.3760798 12.7522599,27.4493662 C12.5180139,28.1912676 12.4335803,28.9734272 12.4588775,29.7485211 C12.4672552,30.0066667 12.5160427,30.2588967 12.5679513,30.5107981 C12.6415433,30.8686854 12.5973553,30.893662 12.4069689,31.2387324 C12.2648772,31.4957277 12.1336272,31.7719484 12.0434441,32.0526056 C12.0294814,32.0956573 12.0907533,32.1081455 12.1180217,32.1119249 C12.1661522,32.1184977 12.214447,32.1250704 12.2627417,32.1318075 C12.320564,32.1396948 12.408283,32.1051878 12.4270095,32.0458685 C12.5375618,31.6978404 12.7190778,31.3736385 12.8950086,31.0558451 C13.0826025,30.7176761 14.0688666,30.7738732 14.4366622,30.7042019 C15.6267827,30.4787559 16.7792858,30.0648357 17.8844798,29.5768075 C17.9252182,29.5588967 17.9738415,29.5214319 17.9460803,29.4739437 C17.9252182,29.4382864 17.9043562,29.4027934 17.8834942,29.3671362 C17.8568828,29.321784 17.7598005,29.3451174 17.7248115,29.3605634 C16.3234426,29.9807042 14.810043,30.4997887 13.2700321,30.6121831 C12.9925837,30.6323944 13.3804201,30.2915962 13.5009926,30.1211972 C13.7431234,29.7797418 14.0094016,29.4558685 14.2811006,29.1377465 C14.8754216,28.4418545 15.5430061,27.8113615 16.2316169,27.2099531 C17.0169814,27.1690376 17.7857548,26.8972535 18.5210177,26.6377934 C19.2686006,26.3735681 20.0623428,26.0669484 20.6928027,25.5733333 C20.7102151,25.5596948 20.7295987,25.5199296 20.7062727,25.5013615 C20.672105,25.4742488 20.6379373,25.4473005 20.6037696,25.4203521 C20.5420048,25.3715493 20.4529717,25.4007981 20.3971206,25.4448357 C19.6544657,26.0289906 18.6402761,26.3439906 17.7537226,26.6259624 C17.3709786,26.747723 16.9806782,26.8507512 16.584957,26.9202582 C16.2500149,26.9792488 16.8461428,26.6800235 16.9029795,26.6310563 C17.1971832,26.3766901 17.4872802,26.1175587 17.7762273,25.857277 C18.5057408,25.2008216 19.2125853,24.5188967 19.8892045,23.8078873 C20.435395,23.2335915 21.0604341,23.1161033 21.8037461,22.8775117 C21.8359426,22.8671596 21.92514,22.8311737 21.9052636,22.7800704 Z" id="Combined-Shape"></path>
                <path d="M10.5715879,28.5622183 C10.5715879,28.5622183 11.35301,24.544777 8.14042397,21.9401526 C4.92734512,19.3350352 0.178690551,19.6262089 0.00275969962,18.2301526 C0.00275969962,18.2301526 -0.225079787,24.4276174 3.4484418,26.5596596 C7.12212766,28.690223 10.5715879,28.5622183 10.5715879,28.5622183 Z M0.507061952,20.5762042 C0.517246558,20.5403826 0.527266896,20.504561 0.537451502,20.4687394 C0.550592929,20.4220728 0.620078223,20.4174718 0.6590097,20.4260164 C0.942864518,20.4879648 1.22721214,20.5484343 1.5118883,20.6082465 C1.90744524,20.6910634 1.60880632,20.578669 1.44503129,20.4099131 C1.15969806,20.115946 0.881428348,19.8160634 0.643239987,19.4816737 C0.619913955,19.4489742 0.641761577,19.4239977 0.673136733,19.4103592 C0.712561014,19.3934343 0.752149562,19.3763451 0.791573842,19.3594202 C0.841511264,19.33773 0.931694305,19.3551479 0.964383605,19.400993 C1.14573529,19.6553592 1.35139862,19.8881995 1.56363267,20.1174249 C1.67089956,20.2331056 2.16452441,20.5969085 2.12132196,20.7015798 C2.21659731,20.4708756 2.14234825,20.0975423 2.12559293,19.8589507 C2.12280038,19.8205 2.19442115,19.8142559 2.21709011,19.8135986 C2.26242804,19.812284 2.30776596,19.8111338 2.35310388,19.8096549 C2.38727159,19.8085047 2.47876877,19.8283873 2.48287547,19.875054 C2.50242334,20.1059225 2.37823686,20.9097723 2.44887203,20.9738568 C2.99177722,21.4655 3.56326502,21.9251009 4.14132353,22.3741854 C4.52226064,22.6704531 4.91075407,22.9566972 5.30089018,23.2408052 C5.52183041,23.4015094 5.7450704,23.5589272 5.96831039,23.7166737 C6.08576189,23.7994906 6.1480194,23.8502653 6.17939456,23.8783638 C6.15902534,23.8509225 6.13684919,23.806392 6.15114049,23.7579178 C6.3456336,23.0985047 5.78630163,22.0706878 5.54137829,21.5006643 C5.53053661,21.4755235 5.55879068,21.4513685 5.57998123,21.4457817 C5.62269086,21.434608 5.66523623,21.4234343 5.7077816,21.4122606 C5.76708229,21.3966502 5.86137203,21.4053592 5.88929756,21.4701009 C6.12173655,22.0090681 6.32148623,22.5598662 6.46439925,23.1292324 C6.5458761,23.4539272 6.35713235,23.9902653 6.57692272,24.1481761 C7.59308354,24.8787394 8.53926627,25.7264624 9.34007196,26.6910164 C9.43518304,25.8000775 9.26680851,24.8803826 8.91543961,24.0576362 C8.9047622,24.032331 8.932852,24.008669 8.95404255,24.0030822 C8.99675219,23.9914155 9.03946183,23.9799131 9.08217146,23.9685751 C9.14097935,23.9524718 9.23592616,23.9616737 9.26368742,24.0265798 C9.54244994,24.6820493 9.68831977,25.3879648 9.7336577,26.0970023 C9.74877034,26.3328005 9.72642991,26.5671197 9.7014612,26.801439 C9.66581508,27.1340211 9.70819618,27.1529178 9.91221683,27.450993 C10.0644931,27.6728239 10.2083917,27.91273 10.3153301,28.1608521 C10.3319212,28.1989742 10.2770557,28.2155704 10.2527441,28.2214859 C10.2092131,28.231838 10.1658464,28.2420258 10.1224797,28.2525423 C10.0704068,28.2647019 9.9874515,28.2410399 9.96494681,28.1884577 C9.83369681,27.8810164 9.63953223,27.6013451 9.45111702,27.3272606 C9.25038173,27.0354296 8.35610763,27.1736221 8.01459481,27.1424014 C6.90972935,27.0420023 5.82244055,26.7661103 4.77178348,26.4187394 C4.73318054,26.4059225 4.6853786,26.3760164 4.70656915,26.3301714 C4.72250313,26.295993 4.73827284,26.2616502 4.75420682,26.2273075 C4.77457603,26.1834343 4.86508761,26.1962512 4.89826971,26.2074249 C6.23064612,26.6492793 7.65616239,26.9889272 9.07001564,26.9557347 C9.32495932,26.9496549 8.94139393,26.6731056 8.81622184,26.5285047 C8.56554912,26.2384812 8.29401439,25.9666972 8.01853723,25.7008286 C7.41518148,25.1186455 6.75104662,24.6025188 6.07032071,24.1148192 C5.35066333,24.1468615 4.62558511,23.9669319 3.93253911,23.7948897 C3.22766583,23.620054 2.47696183,23.4103826 1.8586577,23.0161808 C1.84157384,23.0051714 1.82038329,22.9705 1.83993116,22.9516033 C1.86867804,22.9239977 1.89758917,22.896392 1.92633605,22.8687864 C1.97824468,22.818669 2.06202128,22.8375657 2.11688673,22.8728944 C2.84541458,23.3398897 3.79783949,23.53773 4.63100594,23.7166737 C4.99058824,23.7940681 5.35559136,23.8533873 5.72256571,23.8819789 C6.03319618,23.9062981 5.4631868,23.685946 5.40717146,23.6463451 C5.1164174,23.4402887 4.82927722,23.2294671 4.54262985,23.0178239 C3.81985138,22.4836221 3.11514237,21.924115 2.4357306,21.3355235 C1.88707603,20.8601479 1.30688204,20.8080587 0.608086671,20.6558991 C0.578025657,20.6494906 0.493427722,20.6245141 0.507061952,20.5762042 Z" id="Combined-Shape"></path>
                <path d="M10.522094,20.4874554 C10.522094,20.4874554 10.422712,16.5623615 13.8767717,14.6104131 C17.3313243,12.6583005 21.7769047,13.690554 22.1657267,12.3981831 C22.1657267,12.3981831 21.3939964,18.2970798 17.5793687,19.7284648 C13.7649054,21.1583709 10.522094,20.4874554 10.522094,20.4874554 Z M21.3150164,14.5369789 C21.3112383,14.5014859 21.3072958,14.4658286 21.3035177,14.4306643 C21.2984254,14.3839977 21.2333753,14.3690446 21.1952652,14.3706878 C20.9168312,14.3838333 20.6382329,14.3961573 20.3594704,14.4071667 C19.9721269,14.4224484 20.2724085,14.3637864 20.4540887,14.2303592 C20.7707971,13.9976831 21.0819204,13.7584343 21.3605186,13.4799131 C21.3877871,13.4526362 21.3710318,13.4255235 21.343599,13.407777 C21.3089385,13.3852653 21.274278,13.3629178 21.2396175,13.3405704 C21.195758,13.3123075 21.1077104,13.314115 21.0696003,13.3524014 C20.8575305,13.5642089 20.6259129,13.7518615 20.3885458,13.9345845 C20.2686303,14.0267676 19.7439589,14.2924718 19.7681062,14.3982934 C19.7147192,14.1649601 19.8444908,13.8233404 19.8982064,13.6006878 C19.9069125,13.5645376 19.8402198,13.547284 19.818865,13.5431761 C19.7761554,13.5346315 19.7334457,13.5262512 19.6907361,13.5177066 C19.6587038,13.5111338 19.5688493,13.5152418 19.5575149,13.5589507 C19.5023209,13.7740446 19.4918077,14.5540681 19.4147661,14.6035282 C18.8230734,14.9821197 18.2090402,15.3257113 17.5905718,15.6586221 C17.1830233,15.8781526 16.770054,16.0870023 16.3557705,16.2933873 C16.121196,16.4102183 15.8848146,16.5237629 15.6485975,16.6374718 C15.5242467,16.6969554 15.4572254,16.7350775 15.423222,16.7567676 C15.4468766,16.7337629 15.4748021,16.6953122 15.4690527,16.6471667 C15.3902042,15.9923545 16.0829216,15.1089742 16.4053794,14.609115 C16.4196707,14.5869319 16.3966732,14.5598192 16.3776181,14.5511103 C16.3391794,14.5336925 16.3005765,14.5162746 16.2619736,14.4990211 C16.2085865,14.4745376 16.1179107,14.4679648 16.0811147,14.5249836 C15.7754122,14.9974014 15.4987852,15.4867441 15.2729169,16.0025423 C15.1439667,16.2966737 15.2371065,16.8339977 15.0041747,16.9486925 C13.9264135,17.4776362 12.8964542,18.128669 11.9850962,18.9136221 C12.0371691,18.0555469 12.3428716,17.2125892 12.8062711,16.4904061 C12.8205624,16.4678944 12.7977292,16.440946 12.7785099,16.4322371 C12.7399069,16.4146549 12.701304,16.3967441 12.6628653,16.379162 C12.6098068,16.3548427 12.5184739,16.3481056 12.4820064,16.4051244 C12.1137179,16.9808991 11.8632095,17.6255235 11.7074836,18.288716 C11.6555749,18.5097254 11.6394767,18.7348427 11.6258425,18.9604531 C11.6064589,19.2808756 11.5634207,19.291885 11.3229326,19.540993 C11.1435521,19.7266737 10.9692639,19.9309225 10.8284864,20.1484812 C10.806803,20.1820023 10.8560834,20.2064859 10.8780953,20.2160164 C10.9176838,20.2324484 10.9569438,20.2492089 10.9963681,20.2658052 C11.0436773,20.2856878 11.1259754,20.2766502 11.1553794,20.2304765 C11.3286819,19.9606643 11.55685,19.7270023 11.7787758,19.4974484 C12.0151572,19.2535986 12.8391247,19.5270258 13.1671676,19.551838 C14.228502,19.6328474 15.3008425,19.5452653 16.3500211,19.3839038 C16.3887883,19.3779883 16.4385615,19.3574484 16.4257486,19.3107817 C16.4162211,19.2757817 16.4066935,19.2407817 16.397166,19.2057817 C16.3848459,19.1612512 16.2972911,19.1589507 16.2639448,19.1638803 C14.933211,19.369608 13.5306923,19.4639272 12.1983159,19.2070962 C11.9583206,19.1607582 12.3653763,18.9601244 12.5066466,18.8432934 C12.7900086,18.6088099 13.0899617,18.3950305 13.3932001,18.187331 C14.0565136,17.7326596 14.766972,17.3506174 15.4886006,16.9978239 C16.1643985,17.1425892 16.8787993,17.0878709 17.5618249,17.035946 C18.2565136,16.9828709 19.0001541,16.904162 19.6478622,16.6295845 C19.6657674,16.6218615 19.6912289,16.592777 19.6757877,16.5717441 C19.6529545,16.5406878 19.6301212,16.5102887 19.607288,16.4793967 C19.5660568,16.4238568 19.4839229,16.4284577 19.4262649,16.4529413 C18.662748,16.7787864 17.7301995,16.8139507 16.9136241,16.8504296 C16.5611053,16.8663685 16.2062868,16.8643967 15.8547536,16.8328474 C15.5571003,16.8062277 16.1312164,16.6887394 16.1906813,16.6601479 C16.4985192,16.5116033 16.8037289,16.3579648 17.1084457,16.2035047 C17.8773834,15.8134108 18.6330155,15.3963685 19.3695925,14.9479413 C19.964242,14.5854531 20.5214385,14.6288333 21.2065997,14.5962981 C21.2363321,14.5951479 21.320273,14.5847958 21.3150164,14.5369789 Z" id="Combined-Shape"></path>
                <path d="M11.5660982,14.6149648 C11.5660982,14.6149648 12.7506336,11.6222183 10.6435701,9.14428404 C8.53617804,6.66585681 4.82323217,6.20444836 4.8889393,5.09989437 C4.8889393,5.09989437 3.81742021,9.85775822 6.34895181,12.0371244 C8.88097622,14.2150117 11.5660982,14.6149648 11.5660982,14.6149648 Z M4.93979662,6.98632864 C4.95277378,6.96003756 4.96575094,6.9339108 4.9787281,6.9074554 C4.99564768,6.87344131 5.05002034,6.87984977 5.07893148,6.89200939 C5.28935857,6.98107042 5.50044274,7.06898122 5.71185544,7.15639906 C6.0057306,7.27750235 5.79103254,7.14719718 5.68885795,6.99339437 C5.51079161,6.72489671 5.33913173,6.45278404 5.20328223,6.15980282 C5.18997653,6.13121127 5.21051001,6.11510798 5.2366286,6.10902817 C5.26948217,6.1016338 5.3025,6.09407512 5.33551783,6.08668075 C5.37724186,6.07731455 5.44442741,6.10393427 5.46298967,6.14386385 C5.56664268,6.36668075 5.69197904,6.57651643 5.8229005,6.78421596 C5.88910044,6.88921596 6.21812891,7.24200939 6.16950563,7.31661033 C6.27644399,7.15212676 6.27299437,6.85257277 6.29467772,6.66574178 C6.29812735,6.63567136 6.35430695,6.64125822 6.3718836,6.64421596 C6.40720119,6.64930986 6.44235451,6.65506103 6.47750782,6.66064789 C6.50428348,6.66459155 6.5721261,6.69334742 6.5685122,6.72999061 C6.55027847,6.91123474 6.33804443,7.51477934 6.38338235,7.57426291 C6.7319587,8.03287793 7.10747497,8.47078873 7.48939768,8.9016338 C7.74105601,9.18574178 7.99994212,9.46311268 8.2604709,9.73916901 C8.40798342,9.89543662 8.55795995,10.0495681 8.70777222,10.2036995 C8.78662078,10.2847089 8.8273592,10.3326901 8.84739987,10.3589812 C8.83573686,10.3348263 8.82505945,10.2973615 8.84312891,10.2618685 C9.08870932,9.78024883 8.80485451,8.90492019 8.69791615,8.428723 C8.69315238,8.40769014 8.71844962,8.39339437 8.73569775,8.39191549 C8.77019399,8.3894507 8.80485451,8.38698592 8.83935075,8.38452113 C8.88731696,8.38107042 8.95893773,8.40128169 8.97125782,8.45550704 C9.07310388,8.90574178 9.14784574,9.36024883 9.17609981,9.82132864 C9.19219806,10.0840751 8.9687938,10.4713756 9.11581352,10.6251784 C9.79571809,11.3366808 10.4048232,12.1288638 10.8844853,12.9902254 C11.086699,12.3153662 11.0894916,11.5802019 10.9365582,10.8933474 C10.932123,10.8721502 10.9572559,10.8578545 10.9743398,10.8567042 C11.0090003,10.8537465 11.0438251,10.8511174 11.0784856,10.8484883 C11.1261233,10.8443803 11.1984011,10.8652488 11.2102284,10.9194742 C11.3312938,11.4668216 11.3419712,12.0335587 11.2746214,12.5881362 C11.2521167,12.7726667 11.2008651,12.9504601 11.1478066,13.1279249 C11.0722434,13.3799906 11.1023044,13.4005305 11.2169634,13.6604836 C11.3025469,13.8540516 11.3790957,14.0604366 11.4260763,14.2674789 C11.4333041,14.2993568 11.388459,14.3042864 11.3687469,14.3054366 C11.3335936,14.3072441 11.2986045,14.308723 11.2636155,14.3105305 C11.2215629,14.3125023 11.1609481,14.281939 11.1512563,14.23823 C11.0939268,13.9817277 10.9843601,13.737385 10.8782431,13.4983005 C10.7652268,13.2436056 10.0539471,13.2210939 9.79456821,13.1476432 C8.95483104,12.9102019 8.15435388,12.5398263 7.39231539,12.1193333 C7.36422559,12.103723 7.33170056,12.0739812 7.35486233,12.0416103 C7.37211045,12.0172911 7.38919431,11.9931362 7.40644243,11.9688169 C7.42829005,11.9379249 7.49662547,11.9609296 7.52077284,11.9740751 C8.48683198,12.5084413 9.53962453,12.9772441 10.6375907,13.1560235 C10.8353692,13.1880657 10.5787829,12.9185822 10.5028911,12.7889343 C10.3509434,12.5286526 10.1804334,12.2790516 10.0058166,12.033723 C9.62372966,11.4963991 9.18464174,11.0016338 8.72896277,10.5260939 C8.16798811,10.4467277 7.63362484,10.2028779 7.12275188,9.96970892 C6.60300845,9.73259624 6.05303974,9.46196244 5.63202128,9.06776056 C5.62035826,9.05707981 5.60902378,9.02700939 5.62692897,9.01534272 C5.65304756,8.9980892 5.67933041,8.981 5.70561327,8.96358216 C5.75308667,8.93252582 5.81501564,8.95914554 5.85230444,8.99447418 C6.34806477,9.46081221 7.0557306,9.75149296 7.67387046,10.0102958 C7.94080569,10.1220329 8.21431164,10.2207887 8.49373123,10.2958826 C8.73044118,10.3594742 8.3217428,10.1067512 8.2839612,10.0681362 C8.08913955,9.86668075 7.89743899,9.66226761 7.70655976,9.45719718 C7.22509074,8.93992019 6.76119837,8.40538967 6.32096058,7.85196244 C5.96564925,7.40534272 5.52459011,7.28111737 5.00632509,7.06257277 C4.98398467,7.05320657 4.92238423,7.02165728 4.93979662,6.98632864 Z" id="Combined-Shape"></path>
                <path d="M13.9919399,9.40072066 C13.9919399,9.40072066 12.7689659,6.52398357 14.7543069,4.06708216 C16.7398123,1.60952347 20.3331712,1.07088498 20.2424953,1.64319249e-05 C20.2424953,1.64319249e-05 21.3987766,4.59306808 18.994224,6.77062676 C16.5891787,8.94703521 13.9919399,9.40072066 13.9919399,9.40072066 Z M20.239095,1.83289906 C20.2257893,1.80775822 20.2126478,1.78245305 20.1993421,1.75731221 C20.182094,1.72461268 20.129364,1.73233568 20.1017671,1.74465962 C19.8995533,1.83618545 19.6968468,1.92672535 19.4938118,2.01693662 C19.2114354,2.14165493 19.4167702,2.00987089 19.5120455,1.85787559 C19.6784488,1.59299296 19.8384457,1.32465962 19.963125,1.03693662 C19.9752808,1.00850939 19.9550759,0.993720657 19.9294501,0.988462441 C19.8974179,0.98221831 19.8652214,0.975316901 19.8330249,0.96907277 C19.7922865,0.961021127 19.7275649,0.988626761 19.7104811,1.02773474 C19.6155343,1.2467723 19.4987398,1.45315728 19.3770174,1.65839202 C19.3150884,1.76158451 19.0042936,2.11207746 19.0532455,2.18355634 C18.9453215,2.02646714 18.9413791,1.73562207 18.9159176,1.55470657 C18.9118109,1.52562207 18.8572739,1.53252347 18.8403543,1.53548122 C18.8063509,1.54156103 18.7721832,1.54796948 18.7381798,1.5540493 C18.7123897,1.55865023 18.6471754,1.5882277 18.6516106,1.62372066 C18.6737868,1.79921362 18.8943985,2.37991784 18.8518531,2.43890845 C18.5246316,2.8925939 18.1707987,3.32705399 17.8105593,3.75461268 C17.573028,4.03642019 17.3285975,4.31198357 17.08236,4.58639671 C16.9428966,4.74184272 16.8011334,4.89515258 16.6595346,5.0481338 C16.584957,5.12897887 16.5465183,5.17663146 16.5276275,5.20275822 C16.5383049,5.17876761 16.5478324,5.14228873 16.5294344,5.10827465 C16.2792545,4.64637324 16.5333769,3.789777 16.6256954,3.32491784 C16.6299664,3.30437793 16.6048334,3.29090376 16.5880781,3.29008216 C16.5544032,3.28843897 16.5208925,3.28712441 16.4873819,3.28548122 C16.4407298,3.28318075 16.3714088,3.30470657 16.3610599,3.35761737 C16.2731766,3.79700704 16.2115762,4.24034038 16.1953137,4.68860329 C16.1862789,4.9439554 16.4124758,5.31449531 16.2735052,5.46764085 C15.6307251,6.17487089 15.0589088,6.95867371 14.6140715,7.80672535 C14.4013446,7.15651408 14.3806469,6.44303991 14.5123897,5.77228873 C14.5163321,5.75174883 14.4915277,5.73827465 14.4749366,5.73761737 C14.4410975,5.73564554 14.4074226,5.73383803 14.3735834,5.73219484 C14.3270956,5.72940141 14.2576103,5.75142019 14.2472614,5.80433099 C14.1432799,6.33853286 14.1467295,6.88916667 14.2257423,7.42566901 C14.2520252,7.60428404 14.3060693,7.77583333 14.3619204,7.94672535 C14.441426,8.18975352 14.4126791,8.21045775 14.307712,8.46548122 C14.2293562,8.65559859 14.1600352,8.85771127 14.119461,9.05982394 C14.1132189,9.09120892 14.1567498,9.09482394 14.1759692,9.0953169 C14.2103012,9.0961385 14.2443046,9.09696009 14.278308,9.09778169 C14.3190465,9.09876761 14.3771973,9.06738263 14.3857392,9.02482394 C14.4348553,8.77423709 14.5353872,8.53433099 14.6324695,8.29984742 C14.7359582,8.04991784 15.4260474,8.01080986 15.6762273,7.93292254 C16.4854107,7.68184272 17.2536913,7.30292254 17.9833691,6.87602113 C18.0101447,6.8604108 18.0410271,6.83050469 18.017701,6.79944836 C18.0004529,6.77644366 17.9832048,6.75343897 17.9659567,6.73043427 C17.9437805,6.70069249 17.8780734,6.72484742 17.8549116,6.73815728 C16.9300837,7.2804108 15.919508,7.76120892 14.857845,7.9616784 C14.6668015,7.99766432 14.9090965,7.72982394 14.9795674,7.60198357 C15.1208378,7.34564554 15.2803418,7.09916667 15.4437883,6.85679577 C15.8017279,6.32571596 16.2158472,5.83473005 16.6467217,5.36198357 C17.1892983,5.27111502 17.7023068,5.02134977 18.1926463,4.7825939 C18.6913634,4.53973005 19.2186632,4.26350939 19.6176697,3.87029343 C19.62884,3.859777 19.6390246,3.83036385 19.6214479,3.81935446 C19.5956579,3.80325117 19.5697035,3.78714789 19.5437492,3.77120892 C19.4969329,3.74212441 19.4374679,3.76940141 19.4021503,3.80473005 C18.9323443,4.26942488 18.2521112,4.56897887 17.6584473,4.83534038 C17.4020252,4.95052817 17.1388681,5.05273474 16.8693046,5.1325939 C16.6411366,5.20012911 17.0319298,4.944777 17.0675759,4.90632629 C17.2517201,4.70602113 17.4329075,4.50292254 17.6132736,4.29916667 C18.0681313,3.78517606 18.5054122,3.25491784 18.9193672,2.70707746 C19.2533237,2.26473005 19.6784488,2.13327465 20.1763446,1.90848592 C20.1976995,1.89879108 20.2568359,1.86674883 20.239095,1.83289906 Z" id="Combined-Shape"></path>
            </g>
        </g>
    </g>
</svg>