<?xml version="1.0" encoding="UTF-8" standalone="no"?>
<svg width="29px" height="35px" viewBox="0 0 29 35" version="1.1" xmlns="http://www.w3.org/2000/svg" xmlns:xlink="http://www.w3.org/1999/xlink">
    <!-- Generator: Sketch 40.2 (33826) - http://www.bohemiancoding.com/sketch -->
    <title>illu01_aboutus_white</title>
    <desc>Created with Sketch.</desc>
    <defs></defs>
    <g id="紅磚屋_UI-KIT" stroke="none" stroke-width="1" fill="none" fill-rule="evenodd">
        <g id="UI-KIT" transform="translate(-945.000000, -530.000000)" fill="#FFFFFF">
            <g id="illu01_aboutus_white" transform="translate(945.000000, 530.000000)">
                <path d="M13.0594245,9.68582075 C13.0594245,9.68582075 14.9137642,6.64742453 14.2282925,4.3235566 C13.5758396,2.11459434 9.68621698,3.55025472 10.2165,5.49572642 C10.7230094,7.3540283 12.2365943,10.6968585 13.0594245,9.68582075" id="Fill-1"></path>
                <path d="M12.3442358,10.4504717 C15.477066,-0.7 1.43480189,4.98915094 12.3422547,10.4498113 C12.3330094,10.4293396 12.3290472,10.4128302 12.3191415,10.3916981 C12.3290472,10.4128302 12.3363113,10.4313208 12.3442358,10.4504717" id="Fill-3"></path>
                <path d="M12.286717,10.2482642 C17.5849245,-0.0516415094 3.50832075,2.68826415 12.2840755,10.2482642 C12.2794528,10.2297736 12.2781321,10.2079811 12.2735094,10.1875094 C12.2781321,10.2079811 12.2820943,10.2291132 12.286717,10.2482642" id="Fill-5"></path>
                <path d="M12.6570566,10.3994906 C12.6570566,10.3994906 10.9460189,10.9291132 10.2499811,9.2900566 C10.2499811,9.2900566 11.8586604,9.17118868 12.5058302,10.0111887" id="Fill-7"></path>
                <path d="M12.6269434,10.3964528 C12.6269434,10.3964528 14.2983585,9.75126415 13.8281698,8.03362264 C13.8281698,8.03362264 12.4928868,8.93767925 12.5041132,9.99824528" id="Fill-9"></path>
                <g id="Group-13" transform="translate(0.000000, 6.191434)">
                    <path d="M14.7115566,12.8409717 C17.7308019,11.2091792 20.3802358,9.13691509 23.0970283,7.05672642 C23.4021226,6.82295283 23.1009906,6.29663208 22.7912736,6.53370755 C20.3049528,8.43691509 17.878066,10.3335189 15.1718396,11.8920094 C16.3532547,9.4109717 17.3068396,7.00191509 17.9645755,5.01087736 C18.9353302,2.10785849 19.2675,0.0937075472 19.1374057,0.0653113208 C18.9974057,0.0316320755 18.4149528,1.95663208 17.2335377,4.73616038 C16.6008962,6.23983962 15.7939151,7.99908491 14.8541981,9.83823585 C13.707783,7.31427358 12.9767453,4.69917925 12.2126887,2.03719811 C12.122217,1.72219811 11.6295755,1.85625472 11.7207075,2.17257547 C12.5283491,4.98710377 13.3082547,7.75606604 14.5576887,10.4134245 C13.8365566,11.7955943 13.0441038,13.2114434 12.186934,14.5955943 C11.0438208,16.4671038 9.77721698,18.2639906 8.49806604,19.8455943 C7.7175,16.8540849 7.35363208,13.8269151 6.96731132,10.750217 C6.91910377,10.3685189 6.31287736,10.3638962 6.36108491,10.750217 C6.7725,14.0223868 7.15485849,17.2364434 8.02787736,20.4168208 C7.10863208,21.5123868 6.19004717,22.4884245 5.31372642,23.2874811 C3.08033019,25.3696509 1.21278302,26.2644623 1.03778302,26.3536132 C0.853537736,26.4480472 0.691745283,26.5636132 0.553066038,26.6917264 C0.409764151,26.8079528 0.290896226,26.9387075 0.199764151,27.076066 C0.0181603774,27.3514434 -0.0544811321,27.6558774 0.0445754717,27.9147453 C0.142971698,28.1729528 0.401179245,28.336066 0.754481132,28.3822925 C0.930801887,28.4054057 1.13023585,28.4001226 1.34089623,28.3644623 C1.54495283,28.3175755 1.75825472,28.2396509 1.96891509,28.1306887 C2.1729717,28.0316321 4.28023585,26.9321038 6.5915566,24.6240849 C7.37212264,23.8633302 8.16985849,22.9724811 8.96099057,21.9918208 C12.2886321,21.4489906 15.6189151,20.035783 18.3746698,18.1920094 C18.7537264,17.9384245 18.397783,17.3216321 18.0154245,17.5778585 C15.5456132,19.2294623 12.6009906,20.5462547 9.61806604,21.1538019 C10.9632547,19.3905943 12.2675,17.3856887 13.4112736,15.3134245 C13.8695755,14.4938962 14.3014623,13.665783 14.7115566,12.8409717" id="Fill-11"></path>
                </g>
                <path d="M20.9178491,13.5420943 C20.9178491,13.5420943 21.292283,9.32954717 23.5903962,7.59341509 C25.7736038,5.94313208 28.4758679,10.0632264 26.5944528,11.5477547 C24.797566,12.9649245 20.9898302,15.0893585 20.9178491,13.5420943" id="Fill-14"></path>
                <path d="M21.0602264,14.7781226 C25.9456981,1.91066981 35.3422075,17.2677453 21.0628679,14.778783 C21.0859811,14.7662358 21.1024906,14.7523679 21.1256038,14.7398208 C21.1024906,14.7523679 21.0820189,14.7649151 21.0602264,14.7781226" id="Fill-16"></path>
                <path d="M21.2584717,14.6253774 C23.472717,1.04207547 34.9863962,13.604434 21.2611132,14.6266981 C21.278283,14.6128302 21.2954528,14.5936792 21.3139434,14.5765094 C21.2954528,14.5936792 21.2763019,14.6108491 21.2584717,14.6253774" id="Fill-18"></path>
                <path d="M20.7978585,14.5080943 C20.7978585,14.5080943 22.0591792,16.2230943 23.8811604,15.1493208 C23.8811604,15.1493208 22.4283302,13.8992264 21.2165377,14.2439434" id="Fill-20"></path>
                <path d="M20.8286981,14.5266509 C20.8286981,14.5266509 19.687566,12.7297642 21.3503962,11.4202358 C21.3503962,11.4202358 21.9876604,13.2283491 21.227566,14.232783" id="Fill-22"></path>
                <path d="M18.837066,7.84290566 L18.8430094,7.81384906 C18.8410283,7.79271698 18.8350849,7.77224528 18.831783,7.75111321 C18.8773491,7.7075283 18.9202736,7.66460377 18.9645189,7.62101887 C18.9665,7.62432075 18.9684811,7.62828302 18.9711226,7.63158491 C18.9268774,7.68507547 18.8852736,7.73988679 18.8489528,7.79932075 L18.837066,7.84290566 Z M21.8371604,0.574132075 C21.3115,0.242622642 20.6656509,0.108566038 20.0448962,0.232056604 C18.0531981,-0.633037736 15.1765943,0.857433962 17.1656509,5.73564151 C17.0844245,5.68611321 17.0329151,5.65837736 17.0329151,5.65837736 C16.6934811,7.74715094 18.7479151,8.29922642 18.7479151,8.29922642 L18.751217,8.28271698 C19.0054623,8.32366038 20.8327264,8.54356604 21.4158396,6.68988679 C22.5081038,5.87035849 23.7648019,4.65790566 24.1801792,3.19054717 C24.6048019,1.69413208 23.231217,0.71809434 21.8371604,0.574132075 L21.8371604,0.574132075 Z" id="Fill-24"></path>
                <path d="M22.8388868,24.6713679 C22.7655849,24.7829717 22.6150189,24.8146698 22.5027547,24.7413679 C22.4578491,24.7129717 22.4301132,24.6707075 22.412283,24.6251415 C21.9586038,24.7090094 21.5049245,24.792217 21.0505849,24.8760849 C21.0373774,24.9474057 21.0103019,25.018066 20.9693585,25.0834434 C21.2658679,25.2868396 21.5623774,25.4908962 21.8602075,25.6942925 C21.941434,25.6157075 22.0662453,25.597217 22.1646415,25.6612736 C22.2802075,25.7358962 22.312566,25.8897642 22.2379434,26.0040094 C22.1626604,26.1189151 22.0087925,26.1512736 21.8938868,26.0773113 C21.7921887,26.0106132 21.7604906,25.8851415 21.8040755,25.7775 C21.5049245,25.572783 21.206434,25.368066 20.9066226,25.1626887 C20.8570943,25.2175 20.7996415,25.2604245 20.7355849,25.2921226 C20.8755849,25.5734434 21.0155849,25.8554245 21.1555849,26.1367453 C21.2031321,26.1275 21.2539811,26.1354245 21.297566,26.1644811 C21.3873774,26.2232547 21.4124717,26.3421226 21.3550189,26.4306132 C21.2962453,26.5191038 21.176717,26.5455189 21.087566,26.4867453 C20.9977547,26.4279717 20.9726604,26.3091038 21.0307736,26.2199528 C21.0406792,26.2054245 21.0538868,26.1955189 21.0657736,26.1842925 C20.9251132,25.8990094 20.7831321,25.6143868 20.6418113,25.3291038 C20.5850189,25.3462736 20.5269057,25.3561792 20.4674717,25.3561792 C20.5321887,25.7352358 20.5955849,26.1136321 20.6603019,26.4920283 C20.6906792,26.4946698 20.7210566,26.5025943 20.7481321,26.5197642 C20.8392642,26.5791981 20.8650189,26.7000472 20.8055849,26.7898585 C20.7461509,26.8803302 20.6246415,26.9060849 20.5335094,26.8473113 C20.4436981,26.7891981 20.4179434,26.6676887 20.476717,26.577217 C20.4978491,26.5448585 20.527566,26.5243868 20.5605849,26.5091981 C20.4952075,26.1215566 20.4291698,25.7339151 20.3644528,25.3475943 C20.3466226,25.3442925 20.3287925,25.3376887 20.3109623,25.3324057 C20.3103019,25.3370283 20.3136038,25.3409906 20.3109623,25.3462736 C20.1531321,25.6896698 19.9946415,26.0324057 19.8361509,26.3751415 C19.9002075,26.431934 19.9180377,26.5257075 19.8698302,26.5996698 C19.8163396,26.6802358 19.7080377,26.7046698 19.6268113,26.6511792 C19.5449245,26.5976887 19.5224717,26.4900472 19.5759623,26.4088208 C19.6142642,26.3507075 19.6816226,26.3236321 19.747,26.332217 C19.9028491,25.9941038 20.0586981,25.6553302 20.2158679,25.317217 C20.2185094,25.3099528 20.2251132,25.3079717 20.2297358,25.3033491 C20.2198302,25.2987264 20.2105849,25.2934434 20.2006792,25.2881604 C20.0052075,25.5450472 19.8103962,25.801934 19.6162453,26.0588208 C19.6512453,26.1208962 19.6532264,26.1988208 19.612283,26.2628774 C19.5521887,26.3540094 19.4300189,26.3804245 19.3382264,26.3209906 C19.2457736,26.2615566 19.2200189,26.1387264 19.2794528,26.0489151 C19.3382264,25.9604245 19.4544528,25.9346698 19.5442642,25.9855189 C19.7344528,25.7352358 19.9253019,25.4849528 20.1154906,25.2346698 C20.0910566,25.2161792 20.0679434,25.1970283 20.0474717,25.1758962 C20.0461509,25.177217 20.0461509,25.1785377 20.0448302,25.1791981 C19.7793585,25.3337264 19.5132264,25.486934 19.2477547,25.6401415 C19.257,25.6817453 19.2503962,25.7273113 19.2246415,25.7656132 C19.1744528,25.8415566 19.0727547,25.8640094 18.9961509,25.8138208 C18.9195472,25.7636321 18.8977547,25.6625943 18.947283,25.5859906 C18.9974717,25.5100472 19.1004906,25.4882547 19.176434,25.5371226 C19.1836981,25.5417453 19.1883208,25.5490094 19.1942642,25.5549528 C19.4577547,25.403066 19.7205849,25.2511792 19.9834151,25.0992925 C19.9543585,25.0570283 19.9338868,25.0101415 19.9173774,24.9625943 C19.6380377,24.9606132 19.3593585,24.9579717 19.0806792,24.9553302 C19.0753962,24.9738208 19.0701132,24.9916509 19.0595472,25.0088208 C19.0007736,25.0979717 18.8812453,25.1237264 18.7920943,25.0656132 C18.7016226,25.0068396 18.6771887,24.8886321 18.7353019,24.7988208 C18.7934151,24.7090094 18.9129434,24.6852358 19.0027547,24.7440094 C19.0443585,24.7704245 19.0701132,24.8107075 19.082,24.8549528 C19.3520943,24.8582547 19.6221887,24.8608962 19.892283,24.8628774 C19.8843585,24.8140094 19.8830377,24.7638208 19.8876604,24.7142925 C19.5508679,24.6304245 19.2140755,24.5458962 18.877283,24.4620283 C18.8356792,24.5148585 18.7630377,24.5320283 18.7049245,24.493066 C18.6448302,24.4547642 18.6276604,24.3735377 18.667283,24.3134434 C18.7062453,24.2533491 18.7874717,24.2355189 18.8488868,24.2758019 C18.8812453,24.296934 18.8984151,24.3299528 18.9036981,24.3649528 C19.2378491,24.4481604 19.5726604,24.5320283 19.9061509,24.6152358 C19.9173774,24.5756132 19.932566,24.5373113 19.9523774,24.4996698 C19.6466226,24.3008962 19.3402075,24.102783 19.0344528,23.9040094 C18.9915283,23.9317453 18.9386981,23.9423113 18.8937925,23.9132547 C18.8310566,23.8729717 18.812566,23.7884434 18.8535094,23.7263679 C18.8937925,23.6642925 18.9783208,23.6464623 19.0403962,23.6874057 C19.0859623,23.7171226 19.0971887,23.7692925 19.0899245,23.8194811 C19.3956792,24.0189151 19.701434,24.2170283 20.0071887,24.4144811 C20.0487925,24.3603302 20.0963396,24.3141038 20.1511509,24.2791038 C20.0705849,23.9674057 19.9900189,23.6570283 19.9094528,23.3459906 C19.876434,23.3446698 19.8440755,23.338066 19.8150189,23.3189151 C19.7304906,23.2647642 19.706717,23.1511792 19.7615283,23.0673113 C19.8163396,22.9821226 19.9305849,22.9590094 20.0151132,23.0131604 C20.0996415,23.0686321 20.1240755,23.182217 20.0692642,23.2660849 C20.0527547,23.2911792 20.0309623,23.3083491 20.0071887,23.322217 C20.0851132,23.6253302 20.1636981,23.9271226 20.2416226,24.2302358 C20.2918113,24.2091038 20.3446415,24.197217 20.3981321,24.1906132 C20.4390755,23.8775943 20.4793585,23.5652358 20.5203019,23.2528774 C20.5136981,23.2495755 20.5057736,23.2489151 20.4991698,23.2449528 C20.4212453,23.1941038 20.3994528,23.0910849 20.4503019,23.0131604 C20.5004906,22.937217 20.6041698,22.9154245 20.681434,22.9656132 C20.7586981,23.0158019 20.7804906,23.1188208 20.7303019,23.1960849 C20.7038868,23.2363679 20.6636038,23.2601415 20.6200189,23.268066 C20.5797358,23.5738208 20.5401132,23.8802358 20.5004906,24.1866509 C20.5632264,24.1899528 20.6266226,24.2005189 20.6873774,24.2242925 C20.912566,23.9013679 21.1384151,23.5784434 21.3629434,23.2555189 C21.3378491,23.2132547 21.3286038,23.1637264 21.3576604,23.1188208 C21.397283,23.058066 21.4798302,23.0415566 21.5412453,23.0805189 C21.6033208,23.1208019 21.6204906,23.2020283 21.5802075,23.2641038 C21.5504906,23.3103302 21.497,23.3215566 21.4454906,23.3123113 C21.2229434,23.631934 21.0003962,23.9515566 20.7778491,24.2711792 C20.7824717,24.2738208 20.7877547,24.2758019 20.7923774,24.2784434 C20.8570943,24.3207075 20.9099245,24.3728774 20.9515283,24.4323113 C21.3193585,24.2031604 21.6871887,23.9733491 22.0556792,23.7435377 C22.0404906,23.6920283 22.0451132,23.6345755 22.0768113,23.5863679 C22.1349245,23.4978774 22.2531321,23.4721226 22.342283,23.5302358 C22.4307736,23.5870283 22.4558679,23.707217 22.3984151,23.7950472 C22.3403019,23.8828774 22.221434,23.9073113 22.132283,23.8498585 C22.1230377,23.8439151 22.1177547,23.8346698 22.1098302,23.828066 C21.7406792,24.0585377 21.3715283,24.2883491 21.0010566,24.5181604 C21.0393585,24.598066 21.0598302,24.6845755 21.0591698,24.7724057 C21.5042642,24.6905189 21.9500189,24.6086321 22.3957736,24.5260849 C22.3984151,24.4851415 22.407,24.4435377 22.431434,24.4065566 C22.5040755,24.2942925 22.6553019,24.2632547 22.7682264,24.3358962 C22.8798302,24.4085377 22.9121887,24.5584434 22.8388868,24.6713679 M26.5119057,24.897217 C26.1473774,24.722217 25.7392642,24.6046698 25.3159623,24.5234434 C25.4526604,24.4924057 25.5893585,24.4600472 25.7273774,24.4243868 C29.9650189,23.3248585 24.6053962,16.5196698 22.3178491,19.2358019 C22.1646415,19.418066 22.0239811,19.6194811 21.8945472,19.8341038 C21.8456792,19.5217453 21.7809623,19.2014623 21.6805849,18.8653302 C20.7435094,15.7232547 14.1608679,19.3401415 15.6480377,21.4764623 C15.7966226,21.6891038 15.9636981,21.8858962 16.1380377,22.0760849 C15.8369057,22.0140094 15.5291698,21.9750472 15.2148302,21.9783491 C11.9241698,22.0133491 13.3948302,28.5213679 15.8005849,28.1528774 C16.0766226,28.1099528 16.3500189,28.0320283 16.6201132,27.9329717 C16.5243585,28.1020283 16.4358679,28.2763679 16.3586038,28.4606132 C15.0959623,31.4871226 21.6792642,32.7008962 22.2861509,30.3525943 C22.3680377,30.0349528 22.3944528,29.7001415 22.3845472,29.3593868 C22.5668113,29.587217 22.7629434,29.8071226 22.9841698,30.0085377 C25.7828491,32.5542925 29.4353962,26.2978774 26.5119057,24.897217" id="Fill-26"></path>
                <path d="M7.07587736,14.8843113 C7.02700943,14.958934 6.9259717,14.980066 6.85134906,14.9311981 C6.82163208,14.9120472 6.80314151,14.8836509 6.79125472,14.8532736 C6.48748113,14.9094057 6.18436792,14.9648774 5.88125472,15.0210094 C5.87200943,15.069217 5.85417925,15.1161038 5.8264434,15.1596887 C6.0245566,15.2957264 6.22333019,15.4317642 6.42210377,15.5678019 C6.47625472,15.5156321 6.55946226,15.5030849 6.6255,15.5460094 C6.70276415,15.5955377 6.7245566,15.6985566 6.67436792,15.7745 C6.62417925,15.8511038 6.52116038,15.8728962 6.4445566,15.8233679 C6.37653774,15.7791226 6.35540566,15.6952547 6.38446226,15.6232736 C6.18436792,15.4865755 5.98493396,15.3498774 5.78483962,15.2125189 C5.75182075,15.2488396 5.71285849,15.2778962 5.67059434,15.2990283 C5.76436792,15.4872358 5.85748113,15.6754434 5.95125472,15.8636509 C5.98295283,15.8570472 6.01663208,15.8629906 6.04634906,15.8821415 C6.1064434,15.9211038 6.12295283,16.0003491 6.08399057,16.059783 C6.0450283,16.119217 5.96512264,16.1363868 5.90568868,16.0974245 C5.84559434,16.0584623 5.82908491,15.9785566 5.86804717,15.9191226 C5.87399057,15.909217 5.88323585,15.9026132 5.89116038,15.8953491 C5.79672642,15.7045 5.70229245,15.5143113 5.60785849,15.3241226 C5.57021698,15.3353491 5.53125472,15.3419528 5.49163208,15.3419528 C5.5345566,15.5948774 5.57682075,15.8478019 5.62040566,16.1007264 C5.64021698,16.1027075 5.66068868,16.1079906 5.67917925,16.119217 C5.73993396,16.1595 5.75710377,16.2394057 5.71748113,16.3001604 C5.67719811,16.3602547 5.59663208,16.3774245 5.53587736,16.3378019 C5.47512264,16.2995 5.45795283,16.2182736 5.49757547,16.1575189 C5.5114434,16.1363868 5.53191509,16.1225189 5.55370755,16.1126132 C5.51012264,15.8530849 5.46587736,15.594217 5.42295283,15.3360094 C5.41040566,15.3340283 5.39851887,15.3294057 5.38663208,15.3261038 C5.38663208,15.3294057 5.38861321,15.3313868 5.38663208,15.3353491 C5.28163208,15.5645 5.1759717,15.7936509 5.06965094,16.0228019 C5.11257547,16.0604434 5.12446226,16.1231792 5.09210377,16.1727075 C5.0564434,16.2268585 4.98380189,16.2427075 4.92965094,16.2070472 C4.87483962,16.1713868 4.85965094,16.0994057 4.8959717,16.0452547 C4.92106604,16.0062925 4.96663208,15.9884623 5.01021698,15.9944057 C5.1145566,15.7678962 5.21823585,15.5420472 5.32323585,15.3155377 C5.32521698,15.3109151 5.32917925,15.3095943 5.33248113,15.3069528 C5.32587736,15.3036509 5.31993396,15.2996887 5.31333019,15.2963868 C5.18257547,15.4680849 5.05248113,15.639783 4.92238679,15.8114811 C4.94616038,15.8530849 4.94748113,15.9045943 4.91974528,15.9475189 C4.88012264,16.008934 4.79823585,16.0261038 4.73682075,15.9864811 C4.67540566,15.9468585 4.65823585,15.8649717 4.69785849,15.804217 C4.73682075,15.7454434 4.81474528,15.7282736 4.87483962,15.7626132 C5.00163208,15.5948774 5.12908491,15.4278019 5.25587736,15.2607264 C5.2400283,15.2481792 5.22417925,15.2356321 5.2109717,15.2217642 C5.20965094,15.2224245 5.21031132,15.2230849 5.20899057,15.2237453 C5.03200943,15.3267642 4.85436792,15.4291226 4.67606604,15.5314811 C4.68266981,15.5598774 4.67804717,15.5895943 4.66087736,15.6153491 C4.62785849,15.6661981 4.55983962,15.6813868 4.50833019,15.6477075 C4.45682075,15.6140283 4.44229245,15.5466698 4.4759717,15.4951604 C4.50965094,15.4449717 4.57766981,15.4304434 4.62917925,15.4628019 C4.63380189,15.4661038 4.6364434,15.4707264 4.64106604,15.4746887 C4.81672642,15.3729906 4.99238679,15.2719528 5.16804717,15.1702547 C5.14889623,15.1418585 5.1350283,15.1108208 5.12380189,15.0791226 C4.93757547,15.0778019 4.75068868,15.0758208 4.56446226,15.0738396 C4.56116038,15.0863868 4.55785849,15.0982736 4.55059434,15.1095 C4.51163208,15.1695943 4.43172642,15.1861038 4.37229245,15.1478019 C4.31153774,15.1088396 4.2950283,15.0295943 4.33399057,14.9695 C4.37295283,14.9094057 4.45285849,14.8935566 4.51295283,14.9325189 C4.54068868,14.9503491 4.55785849,14.9774245 4.56578302,15.0071415 C4.74606604,15.0091226 4.92700943,15.0111038 5.10729245,15.0124245 C5.10200943,14.9794057 5.10068868,14.9463868 5.10399057,14.9127075 C4.87946226,14.8572358 4.65427358,14.8004434 4.42908491,14.7443113 C4.40134906,14.7793113 4.35248113,14.7911981 4.31417925,14.7654434 C4.27323585,14.7396887 4.26200943,14.6855377 4.28842453,14.6452547 C4.31483962,14.6049717 4.36899057,14.5930849 4.40993396,14.6201604 C4.43172642,14.6340283 4.44295283,14.6558208 4.44691509,14.6795943 C4.67012264,14.735066 4.89333019,14.7911981 5.11653774,14.8466698 C5.12380189,14.8202547 5.13436792,14.7945 5.14757547,14.7694057 C4.94351887,14.6366698 4.73814151,14.503934 4.53408491,14.3711981 C4.5050283,14.3903491 4.4700283,14.3976132 4.43965094,14.3778019 C4.39804717,14.3507264 4.3855,14.2945943 4.41323585,14.2529906 C4.44031132,14.2113868 4.4964434,14.1995 4.53804717,14.2272358 C4.56842453,14.2470472 4.57634906,14.2813868 4.57106604,14.315066 C4.77578302,14.4484623 4.97983962,14.5805377 5.18389623,14.7126132 C5.21163208,14.6769528 5.24333019,14.6459151 5.28031132,14.6221415 C5.22616038,14.4141226 5.17266981,14.2061038 5.11851887,13.9987453 C5.09672642,13.9980849 5.07493396,13.9934623 5.05512264,13.9809151 C4.99899057,13.9445943 4.98314151,13.8686509 5.01946226,13.8125189 C5.0564434,13.7557264 5.13238679,13.7405377 5.18917925,13.7761981 C5.2459717,13.8138396 5.26182075,13.8891226 5.22483962,13.9452547 C5.21427358,13.9617642 5.19974528,13.9736509 5.18389623,13.9828962 C5.23606604,14.1849717 5.28823585,14.3870472 5.34040566,14.589783 C5.37408491,14.5752547 5.40908491,14.5679906 5.44540566,14.5633679 C5.47248113,14.3540283 5.4995566,14.1453491 5.52663208,13.9366698 C5.52200943,13.9346887 5.51738679,13.9340283 5.51276415,13.9313868 C5.46059434,13.8970472 5.44606604,13.8283679 5.47974528,13.7761981 C5.51342453,13.7253491 5.58276415,13.7108208 5.63427358,13.7445 C5.68578302,13.7781792 5.70031132,13.8468585 5.66663208,13.8983679 C5.64946226,13.9254434 5.62238679,13.9412925 5.59333019,13.9465755 C5.56625472,14.1512925 5.53983962,14.3553491 5.51342453,14.5607264 C5.55568868,14.5627075 5.59795283,14.5699717 5.63823585,14.5858208 C5.78880189,14.3698774 5.93936792,14.153934 6.08993396,13.9379906 C6.07342453,13.9102547 6.06682075,13.8772358 6.0859717,13.8468585 C6.11238679,13.8065755 6.16785849,13.7953491 6.20880189,13.8211038 C6.25040566,13.8481792 6.26163208,13.9029906 6.2345566,13.943934 C6.21474528,13.9749717 6.17974528,13.9822358 6.14540566,13.9762925 C5.99616038,14.1895943 5.84757547,14.4035566 5.69899057,14.6168585 C5.70229245,14.6188396 5.70559434,14.6201604 5.70889623,14.6221415 C5.75182075,14.6498774 5.78682075,14.6848774 5.8145566,14.7245 C6.06087736,14.5712925 6.30653774,14.4180849 6.55285849,14.2648774 C6.54229245,14.2298774 6.54559434,14.1915755 6.56672642,14.159217 C6.60568868,14.1004434 6.68427358,14.0832736 6.74436792,14.1215755 C6.80314151,14.1598774 6.82031132,14.239783 6.78134906,14.2985566 C6.74304717,14.3573302 6.66314151,14.3738396 6.60370755,14.3355377 C6.59776415,14.3315755 6.59446226,14.3256321 6.58917925,14.3210094 C6.34219811,14.4748774 6.09521698,14.6280849 5.84823585,14.7819528 C5.87333019,14.8354434 5.88719811,14.8928962 5.88719811,14.9516698 C6.18436792,14.8968585 6.48219811,14.8427075 6.7800283,14.7872358 C6.78134906,14.7595 6.78729245,14.7324245 6.80314151,14.7073302 C6.85266981,14.6320472 6.95370755,14.6115755 7.02899057,14.659783 C7.10361321,14.7086509 7.12474528,14.8090283 7.07587736,14.8843113 M9.52983962,15.0355377 C9.28616038,14.9186509 9.01408491,14.840066 8.7314434,14.7859151 C8.82257547,14.764783 8.91370755,14.7429906 9.00616038,14.719217 C11.8371981,13.9848774 8.2559717,9.43817925 6.72785849,11.2522358 C6.6255,11.3744057 6.53172642,11.5091226 6.44521698,11.6524245 C6.41219811,11.4437453 6.36927358,11.229783 6.30191509,11.0052547 C5.67587736,8.90591509 1.27776415,11.3222358 2.27163208,12.7493113 C2.37068868,12.8912925 2.48229245,13.0233679 2.59851887,13.1501604 C2.39776415,13.1085566 2.19172642,13.0828019 1.98172642,13.0854434 C-0.216669811,13.1085566 0.765971698,17.4564811 2.37333019,17.2101604 C2.55757547,17.1817642 2.7405,17.1295943 2.92078302,17.0635566 C2.85672642,17.1764811 2.79729245,17.2933679 2.7464434,17.4161981 C1.90248113,19.4382736 6.30125472,20.249217 6.70672642,18.6801604 C6.76153774,18.4681792 6.77870755,18.2443113 6.77276415,18.0164811 C6.89427358,18.1690283 7.0250283,18.3156321 7.17295283,18.4503491 C9.04314151,20.1514811 11.4832358,15.9712925 9.52983962,15.0355377" id="Fill-28"></path>
            </g>
        </g>
    </g>
</svg>