<?xml version="1.0" encoding="UTF-8" standalone="no"?>
<svg width="50px" height="50px" viewBox="0 0 50 50" version="1.1" xmlns="http://www.w3.org/2000/svg" xmlns:xlink="http://www.w3.org/1999/xlink">
    <!-- Generator: Sketch 41.2 (35397) - http://www.bohemiancoding.com/sketch -->
    <title>Rectangle 2</title>
    <desc>Created with Sketch.</desc>
    <defs></defs>
    <g id="紅磚屋_UI-KIT" stroke="none" stroke-width="1" fill="none" fill-rule="evenodd">
        <g id="illu03_hotpots_color">
            <rect id="Rectangle-2" fill="#FFFFFF" opacity="0" x="0" y="0" width="50" height="50"></rect>
            <g transform="translate(5.000000, 2.500000)">
                <path d="M38.9992876,12.2224686 C32.5924776,5.8156586 22.9371685,20.8588486 22.9371685,20.8588486 C22.9371685,20.8588486 30.4412679,0.454144265 20.3061873,0 C10.1711066,0.454144265 17.6749597,20.8588486 17.6749597,20.8588486 C17.6749597,20.8588486 8.01965054,5.8156586 1.6128405,12.2224686 C-4.79396953,18.6292787 9.95426075,27.1306228 9.95426075,27.1306228 C4.48900538,30.2758737 9.00531362,35.508759 13.2116308,34.0073477 C16.8837186,32.6964158 19.6603315,28.8525762 20.3061873,27.8979615 C20.952043,28.8525762 23.7284095,32.6964158 27.4007437,34.0073477 C31.6068145,35.508759 36.1233692,30.2758737 30.6578674,27.1306228 C30.6578674,27.1306228 45.4063441,18.6292787 38.9992876,12.2224686" id="Fill-1" fill="#E67030"></path>
                <path d="M39.4076725,15.5951613 C38.4528114,15.6557796 37.4486671,15.5350358 36.5418571,15.1964606 C36.99403,14.8260977 37.3873096,14.4988575 37.665513,14.2578629 C37.7702397,14.1666891 37.2921931,13.8254032 37.1726815,13.9291443 C36.8782146,14.1839382 34.3985327,16.2481631 34.100616,16.4992608 C34.1883401,15.3324821 34.3327397,14.143526 34.6816644,13.0324373 C34.7191196,12.9129256 34.3635417,12.8128808 34.324608,12.9365815 C33.9335461,14.1829525 33.7992496,15.5266577 33.7139897,16.8274866 C32.8273858,17.5645161 31.9250112,18.2840502 31.0120408,18.98806 C30.893022,18.9772177 30.8908042,19.0045699 30.9403338,19.0425179 C30.5487791,19.3438844 30.1559924,19.643526 29.7604951,19.9392249 C28.9670363,20.5328405 28.1506608,21.1498656 27.3118616,21.7521057 C27.6543795,20.4586694 28.0789539,19.1361559 28.7676859,18.0019041 C28.8009521,17.9469534 28.4673051,17.8126568 28.4106295,17.9060484 C27.6457549,19.1659722 27.2073813,20.6575269 26.8444108,22.0837814 C25.0588822,23.3372984 23.1671483,24.4836246 21.1568884,25.1617608 C21.4528338,22.8484095 21.5831877,20.5037634 21.5851591,18.1674955 C22.4764449,16.9228495 23.1604951,15.4566756 23.3600918,13.950336 C23.3805444,13.7960797 23.0192988,13.8579301 23.0018033,13.990009 C22.8302979,15.2834453 22.2985327,16.5416443 21.5844198,17.6564292 C21.566185,15.0885305 21.3946797,12.5351703 21.1164763,10.049328 C22.0469422,8.72459677 23.0067316,7.24413082 23.3581205,5.68776882 C23.3812836,5.58402778 23.0266913,5.6421819 23.0037746,5.74321237 C22.6918123,7.12683692 21.8953965,8.45181452 21.0708893,9.6562948 C21.0105175,9.14054659 20.9471886,8.62726254 20.8781922,8.11792115 C20.8574933,7.97056452 20.281866,4.0969086 20.2611671,3.94930556 C20.2402218,3.80071685 19.5204413,3.95176971 19.5470542,4.14077061 C19.6446349,4.83664875 19.7409834,5.55297939 19.834375,6.28335573 C19.3674171,6.01032706 18.9255936,5.57959229 18.5604055,5.28290771 C18.1488911,4.94827509 17.7450157,4.60280018 17.350504,4.24820789 C17.2541555,4.16171595 16.9187836,4.29946237 17.0193212,4.38965054 C17.480858,4.80436828 17.9554547,5.20479391 18.4386761,5.59363799 C18.8460013,5.92137097 19.350168,6.39325717 19.8765121,6.61453853 C20.1497872,8.78767921 20.3912746,11.0958557 20.5450381,13.4782034 C19.2860999,12.6401434 18.222323,11.4415771 17.3477935,10.234879 C17.2477487,10.0966398 16.9091734,10.2400538 17.0220318,10.3955421 C17.9741823,11.7096774 19.162892,13.0250448 20.5696797,13.8754256 C20.7229503,16.4248432 20.7717406,19.0518817 20.6460685,21.6816308 C19.4588374,20.6853719 18.746203,18.8429211 18.2260193,17.4952733 C18.1750112,17.3636873 17.821651,17.4691532 17.8687164,17.591129 C18.4371976,19.0632168 19.2491375,21.1158602 20.6268481,22.0613575 C20.5704189,23.0997536 20.4876232,24.1376568 20.3715614,25.1703853 C18.3516913,24.4932348 16.4513329,23.3427195 14.6584117,22.0837814 C14.2954413,20.6575269 13.8570677,19.1659722 13.0921931,17.9060484 C13.0355175,17.8126568 12.7018705,17.9469534 12.7351366,18.0019041 C13.4238687,19.1361559 13.8484431,20.4586694 14.190961,21.7521057 C13.3519153,21.1498656 12.5357863,20.5328405 11.7423275,19.9392249 C11.3468302,19.643526 10.9540435,19.3438844 10.5622424,19.0425179 C10.6120184,19.0045699 10.6095542,18.9772177 10.4905354,18.98806 C9.57756496,18.2840502 8.67543683,17.5645161 7.78883289,16.8274866 C7.70332661,15.5266577 7.56927643,14.1829525 7.17821461,12.9365815 C7.13928091,12.8128808 6.78370296,12.9129256 6.82115815,13.0324373 C7.16983647,14.143526 7.31448253,15.3324821 7.40220654,16.4992608 C7.10428987,16.2481631 4.62436156,14.1839382 4.33014113,13.9291443 C4.21062948,13.8254032 3.73233647,14.1666891 3.83730959,14.2578629 C4.11551299,14.4988575 4.50879256,14.8260977 4.9609655,15.1964606 C4.05415547,15.5350358 3.0500112,15.6557796 2.09490367,15.5951613 C1.93473342,15.5848118 1.72355511,15.818414 1.96578181,15.8339382 C3.03571909,15.9019489 4.15641801,15.7560708 5.16450493,15.3630376 C6.70829973,16.6224686 8.84299955,18.3104167 9.80180332,19.0587814 C8.46351927,19.178293 7.10133289,19.1738575 5.77536962,18.9902778 C5.65413306,18.9737679 5.20269937,19.169422 5.33256048,19.1874104 C6.87142697,19.4000672 8.4546483,19.3823253 10.0004144,19.212052 C11.8948589,20.6816756 13.8511537,22.0734319 15.8749664,23.3375448 C16.146763,23.5073253 16.4215166,23.6724238 16.6982415,23.8340726 C15.4356071,24.0277554 14.1227039,24.1078405 12.8622872,23.933871 C12.734151,23.916129 12.2750784,24.1236111 12.4231743,24.1440636 C13.9181788,24.35056 15.4713374,24.2344982 16.9562388,23.9804435 C17.6085013,24.3525314 18.2738239,24.7019489 18.9576277,25.0129256 C19.3861447,25.2075941 19.8851366,25.5037858 20.3422379,25.4074373 C20.3412522,25.4160618 20.3402666,25.4249328 20.3390345,25.4335573 C20.1542227,25.516353 19.9699037,25.5996416 19.7863239,25.6851478 C19.0468302,26.0291443 18.3142361,26.3903898 17.5892809,26.7664203 C17.574496,26.7725806 17.5619288,26.7789875 17.5501008,26.7861335 C16.6282594,27.2651658 15.7204637,27.7722894 14.825728,28.3013441 C13.4177083,27.9750896 11.8771169,28.0551747 10.5299619,28.5758513 C10.2938956,28.6672715 10.5159162,28.7298611 10.6583445,28.6749104 C11.8714494,28.2059812 13.278237,28.1554659 14.5457997,28.4511649 C14.5529458,28.4528898 14.5632953,28.4519041 14.5729055,28.4516577 C13.3457549,29.1859767 12.1452173,29.9641577 10.9804099,30.7886649 C10.750504,30.9515457 11.2896617,30.9047267 11.397099,30.8285842 C13.3243168,29.4641801 15.3540435,28.2012993 17.4547379,27.0867608 C17.1831877,28.3397849 16.3567092,29.5119848 15.5432908,30.447379 C15.4600022,30.5432348 15.8081877,30.5010977 15.8695453,30.4308692 C16.7265793,29.4452061 17.5947021,28.209431 17.8349574,26.8874104 C18.6493616,26.4643145 19.4736223,26.0633961 20.3074933,25.6885977 C19.787556,29.9077285 18.7218078,34.028293 16.8081429,37.7223118 C15.3269377,40.581474 13.2619736,43.9260753 10.4217854,45.6507392 C10.1179547,45.8353047 10.8387209,45.756698 10.9700605,45.6768593 C13.7769825,43.9724014 15.8606743,40.7731855 17.3354727,37.947043 C19.322323,34.1396729 20.4964942,29.9503584 21.0913418,25.6420251 C21.9606967,26.0296371 22.8194556,26.446819 23.6678651,26.8874104 C23.9081205,28.209431 24.7762433,29.4452061 25.6332773,30.4308692 C25.6943884,30.5010977 26.0428203,30.5432348 25.9592854,30.447379 C25.1461134,29.5119848 24.3196349,28.3397849 24.0478383,27.0867608 C26.1487791,28.2012993 28.1785058,29.4641801 30.1057236,30.8285842 C30.2131608,30.9047267 30.7523185,30.9515457 30.5221662,30.7886649 C29.3573589,29.9641577 28.1570677,29.1859767 26.9299171,28.4516577 C26.9392809,28.4519041 26.9498768,28.4528898 26.9567764,28.4511649 C28.2245856,28.1554659 29.6313732,28.2059812 30.844478,28.6749104 C30.9869064,28.7298611 31.208927,28.6672715 30.9728607,28.5758513 C29.6254592,28.0551747 28.0851142,27.9750896 26.6768481,28.3013441 C25.7823589,27.7722894 24.8745632,27.2651658 23.9527218,26.7861335 C23.9408938,26.7789875 23.9280802,26.7725806 23.9135417,26.7664203 C23.1883401,26.3903898 22.4559924,26.0291443 21.7164987,25.6851478 C21.5196125,25.5934812 21.3217406,25.5035394 21.1231295,25.4153226 C21.1238687,25.4091622 21.1248544,25.4032482 21.1258401,25.3970878 C21.5923051,25.5168459 22.1055892,25.2127688 22.5449485,25.0129256 C23.2289987,24.7019489 23.8940748,24.3525314 24.5465838,23.9804435 C26.0312388,24.2344982 27.5846438,24.35056 29.0796483,24.1440636 C29.2274978,24.1236111 28.7686716,23.916129 28.6405354,23.933871 C27.3798723,24.1078405 26.0672155,24.0277554 24.8045811,23.8340726 C25.081306,23.6724238 25.3560596,23.5073253 25.6278562,23.3375448 C27.6516689,22.0734319 29.6079637,20.6816756 31.5021617,19.212052 C33.0481743,19.3823253 34.6311492,19.4000672 36.1700157,19.1874104 C36.3001232,19.169422 35.8486895,18.9737679 35.727453,18.9902778 C34.4014897,19.1738575 33.0393033,19.178293 31.7010193,19.0587814 C32.659823,18.3104167 34.7942764,16.6224686 36.3383177,15.3630376 C37.3464046,15.7560708 38.4668571,15.9019489 39.5370408,15.8339382 C39.7792675,15.818414 39.5678427,15.5848118 39.4076725,15.5951613" id="Fill-4" fill="#6F3203"></path>
            </g>
        </g>
    </g>
</svg>