<?xml version="1.0" encoding="UTF-8" standalone="no"?>
<svg width="51px" height="50px" viewBox="0 0 51 50" version="1.1" xmlns="http://www.w3.org/2000/svg" xmlns:xlink="http://www.w3.org/1999/xlink">
    <!-- Generator: Sketch 41.2 (35397) - http://www.bohemiancoding.com/sketch -->
    <title>Rectangle 2</title>
    <desc>Created with Sketch.</desc>
    <defs></defs>
    <g id="紅磚屋_UI-KIT" stroke="none" stroke-width="1" fill="none" fill-rule="evenodd">
        <g id="illu01_news_color" transform="translate(-0.500000, 0.000000)">
            <rect id="Rectangle-2" fill="#FFFFFF" opacity="0" x="1" y="0" width="50" height="50"></rect>
            <g transform="translate(3.500000, 5.833333)">
                <path d="M0,20.7270833 C14.6840909,23.5899621 14.8761364,13.9793561 14.8761364,13.9793561 C14.8761364,13.9793561 8.12689394,7.59602273 0,20.7270833" id="Fill-4" fill="#C8C8C8"></path>
                <path d="M19.4010606,28.5129545 C19.4010606,28.5129545 27.1840152,24.2815152 31.5927273,37.3443939 L19.4010606,28.5129545 Z" id="Fill-7" fill="#B9B925"></path>
                <path d="M19.4010606,28.5129545 C19.4010606,28.5129545 17.3707576,36.8296212 31.5927273,37.3443939 L19.4010606,28.5129545 Z" id="Fill-9" fill="#A29E19"></path>
                <path d="M15.4762879,13.2149621 C15.4762879,13.2149621 15.2842424,22.8251894 0.600530303,19.9623106 L15.4762879,13.2149621 Z" id="Fill-11" fill="#B9B925"></path>
                <path d="M15.4762879,13.2149621 C15.4762879,13.2149621 8.72742424,6.83125 0.600530303,19.9623106 L15.4762879,13.2149621 Z" id="Fill-13" fill="#A29E19"></path>
                <path d="M21.7067045,20.4735227 C21.1771591,20.5345076 20.6400379,20.6848864 20.11125,20.8905682 C20.2392803,20.7621591 20.366553,20.6314773 20.4926894,20.4966288 C24.468447,16.2716288 13.6517803,12.4254167 13.0048106,17.0864015 C12.9616288,17.3943561 12.9464773,17.7144318 12.9529167,18.0417045 C12.6801894,17.7307197 12.3741288,17.4227652 12.029053,17.1208712 C8.7582197,14.2595076 3.93094697,22.964053 7.10670455,24.3083712 C7.41844697,24.4405682 7.73776515,24.5485227 8.06200758,24.6371591 C7.68587121,24.7795833 7.32034091,24.9557197 6.97488636,25.1780682 C3.31011364,27.5413258 9.55518939,33.8007955 11.9926894,31.6882955 C12.2707197,31.4470076 12.5241288,31.1693561 12.7551894,30.8689773 C12.7676894,31.1242803 12.7930682,31.3810985 12.8370076,31.6401894 C13.5578409,35.9257955 21.7983712,32.6379167 20.8199621,29.5754167 C20.6892803,29.1648106 20.4866288,28.7723864 20.2377652,28.4000379 C20.5991288,28.5250379 20.9729924,28.6273106 21.3589773,28.69625 C26.2968561,29.5746591 25.9745076,19.9792045 21.7067045,20.4735227" id="Fill-15" fill="#FFFFFF"></path>
                <path d="M15.8539773,24.2059091 C15.8539773,24.2059091 19.3600379,20.622197 22.5619318,20.2528788 C26.8308712,19.7589394 27.1528409,29.3543939 22.2153409,28.4752273 C18.5035985,27.8138636 15.8539773,24.2059091 15.8539773,24.2059091" id="Fill-17" fill="#DC5064"></path>
                <path d="M15.8539773,24.2059091 C15.8539773,24.2059091 20.6975379,26.2907576 21.6763258,29.3543939 C22.6539773,32.4172727 14.4142045,35.7047727 13.6933712,31.4195455 C13.0664773,27.7047727 15.8539773,24.2059091 15.8539773,24.2059091" id="Fill-19" fill="#DC5064"></path>
                <path d="M15.8480682,24.5595455 C15.8480682,24.5595455 15.2863258,29.3534848 12.8492045,31.4675 C10.4113258,33.58 4.16700758,27.3209091 7.83140152,24.9576515 C11.0052652,22.9106818 15.8480682,24.5595455 15.8480682,24.5595455" id="Fill-21" fill="#DC5064"></path>
                <path d="M15.8539773,24.2059091 C15.8539773,24.2059091 11.3785985,25.5343182 7.96306818,24.0877273 C4.78731061,22.7434091 9.61496212,14.0392424 12.8850379,16.9002273 C16.6289773,20.1737121 15.8539773,24.2059091 15.8539773,24.2059091" id="Fill-23" fill="#DC5064"></path>
                <path d="M15.8480682,24.5595455 C15.8480682,24.5595455 13.4177652,20.055 13.8613258,16.8656061 C14.5082955,12.2046212 25.3242045,16.0508333 21.3488258,20.2758333 C18.7605682,23.0273485 15.8480682,24.5595455 15.8480682,24.5595455" id="Fill-25" fill="#DC5064"></path>
                <path id="Fill-27" fill="#F7A29B"></path>
                <path d="M15.97125,25.0812879 C16.3776894,25.5369697 16.7860227,25.9926515 17.1928409,26.4487121 C17.2504167,26.5131061 17.3454924,26.4195455 17.2886742,26.3555303 C16.8807197,25.9006061 16.4739015,25.4441667 16.0667045,24.9884848 C16.0091288,24.9237121 15.9136742,25.0168939 15.97125,25.0812879" id="Fill-29" fill="#F7A29B"></path>
                <path d="M16.1768939,24.817197 C16.6416667,25.1001515 17.1068182,25.3842424 17.5719697,25.6683333 C17.644697,25.7122727 17.7140152,25.5986364 17.6405303,25.5531818 C17.1742424,25.2702273 16.7102273,24.9857576 16.2465909,24.7024242 C16.1719697,24.6569697 16.1041667,24.7721212 16.1768939,24.817197" id="Fill-31" fill="#F7A29B"></path>
                <path id="Fill-33" fill="#F7A29B"></path>
                <path d="M16.3984848,24.1069697 C16.8625,23.6804545 17.3268939,23.254697 17.7897727,22.8270455 C17.8534091,22.7698485 17.7609848,22.6740152 17.6969697,22.7319697 C17.2333333,23.1588636 16.7693182,23.5857576 16.3068182,24.0126515 C16.2420455,24.0702273 16.3359848,24.1664394 16.3984848,24.1069697" id="Fill-35" fill="#F7A29B"></path>
                <path d="M16.0666667,23.8208333 C16.3689394,23.1973485 16.6719697,22.5746212 16.9738636,21.9518939 C17.0113636,21.875 16.8969697,21.8060606 16.8594697,21.882197 C16.5568182,22.5060606 16.255303,23.1287879 15.9530303,23.7518939 C15.9147727,23.8280303 16.0291667,23.8981061 16.0666667,23.8208333" id="Fill-37" fill="#F7A29B"></path>
                <path id="Fill-39" fill="#F7A29B"></path>
                <path d="M15.3527652,23.7734848 C15.1398864,23.3125 14.9270076,22.8526515 14.7141288,22.3920455 C14.6777652,22.3140152 14.5622348,22.3799242 14.5978409,22.4575758 C14.8107197,22.917803 15.0220833,23.3776515 15.2360985,23.8382576 C15.2713258,23.9166667 15.38875,23.8511364 15.3527652,23.7734848" id="Fill-41" fill="#F7A29B"></path>
                <path d="M15.1282197,23.9968939 C14.7494318,23.6393182 14.3702652,23.2821212 13.9899621,22.9241667 C13.9293561,22.8658333 13.8320076,22.9578788 13.8945076,23.0177273 C14.274053,23.3745455 14.6535985,23.7317424 15.0327652,24.089697 C15.0952652,24.1484091 15.1922348,24.0563636 15.1282197,23.9968939" id="Fill-43" fill="#F7A29B"></path>
                <path id="Fill-45" fill="#F7A29B"></path>
                <path d="M15.0545833,24.5682197 C14.5401894,24.7382955 14.0250379,24.9068561 13.5106439,25.0769318 C13.4280682,25.1023106 13.4606439,25.2314773 13.5435985,25.2057197 C14.0576136,25.0352652 14.5735227,24.8674621 15.0879167,24.6973864 C15.1685985,24.6704924 15.1364015,24.5420833 15.0545833,24.5682197" id="Fill-47" fill="#F7A29B"></path>
                <path d="M15.1903409,24.8419697 C14.7922348,25.0885606 14.3945076,25.3336364 13.9941288,25.5794697 C13.9217803,25.6249242 13.9869318,25.7412121 14.0600379,25.6953788 C14.4585227,25.4499242 14.8570076,25.2044697 15.2554924,24.9575 C15.3285985,24.9131818 15.263447,24.7961364 15.1903409,24.8419697" id="Fill-49" fill="#F7A29B"></path>
                <path d="M15.3956439,25.0665152 C15.1729167,25.4896212 14.9501894,25.9131061 14.7274621,26.3350758 C14.6880682,26.4104545 14.8017045,26.4793939 14.8414773,26.4043939 C15.0645833,25.9805303 15.2876894,25.5585606 15.5092803,25.1350758 C15.5498106,25.0589394 15.4354167,24.9903788 15.3956439,25.0665152" id="Fill-51" fill="#F7A29B"></path>
                <path id="Fill-53" fill="#F7A29B"></path>
                <path d="M17.9557955,22.9095455 C17.7777652,22.9072727 17.6372348,22.7614394 17.6395076,22.5841667 C17.6425379,22.4061364 17.7902652,22.2648485 17.9682955,22.2667424 C18.1448106,22.2686364 18.2864773,22.4152273 18.2826894,22.5928788 C18.2807955,22.7701515 18.1345833,22.912197 17.9557955,22.9095455" id="Fill-55" fill="#F7A29B"></path>
                <path d="M18.2162121,24.8367803 C18.3976515,24.8382955 18.5476515,24.6932197 18.5510606,24.5121591 C18.5540909,24.3310985 18.4093939,24.1818561 18.227197,24.1795833 C18.0457576,24.176553 17.8953788,24.3220076 17.8931061,24.5038258 C17.8912121,24.6852652 18.0343939,24.8341288 18.2162121,24.8367803" id="Fill-57" fill="#F7A29B"></path>
                <path d="M17.6021591,25.86625 C17.743447,25.8689015 17.8585985,25.7548864 17.8620076,25.6143561 C17.8642803,25.473447 17.7517803,25.3571591 17.6101136,25.3552652 C17.4680682,25.3529924 17.3521591,25.4666288 17.3498864,25.6064015 C17.3472348,25.7480682 17.4593561,25.8639773 17.6021591,25.86625" id="Fill-59" fill="#F7A29B"></path>
                <path d="M17.235947,26.6608333 C17.37875,26.6627273 17.4976894,26.5487121 17.4999621,26.4055303 C17.5026136,26.2623485 17.3882197,26.1449242 17.2454167,26.1434091 C17.1014773,26.1411364 16.9832955,26.2559091 16.9810227,26.3987121 C16.9779924,26.5415152 17.0931439,26.6593182 17.235947,26.6608333" id="Fill-61" fill="#F7A29B"></path>
                <path id="Fill-63" fill="#F7A29B"></path>
                <path d="M15.5232576,26.9156818 C15.6683333,26.9175758 15.7868939,26.8009091 15.7891667,26.6569697 C15.7914394,26.5126515 15.6774242,26.3948485 15.5304545,26.3914394 C15.3880303,26.3910606 15.2687121,26.5065909 15.2656818,26.6512879 C15.2626515,26.7948485 15.3781818,26.9141667 15.5232576,26.9156818" id="Fill-65" fill="#F7A29B"></path>
                <path id="Fill-67" fill="#F7A29B"></path>
                <path d="M14.0243939,25.8928788 C14.165303,25.8947727 14.2808333,25.7818939 14.2838636,25.6409848 C14.2853788,25.4993182 14.1732576,25.3849242 14.0323485,25.3834091 C13.890303,25.3807576 13.7743939,25.4925 13.7721212,25.6337879 C13.7702273,25.7758333 13.8823485,25.8917424 14.0243939,25.8928788" id="Fill-69" fill="#F7A29B"></path>
                <path id="Fill-71" fill="#F7A29B"></path>
                <path id="Fill-73" fill="#F7A29B"></path>
                <path id="Fill-75" fill="#F7A29B"></path>
                <path id="Fill-77" fill="#F7A29B"></path>
                <path id="Fill-79" fill="#F7A29B"></path>
                <path d="M16.9119318,22.1704924 C17.0517045,22.1731439 17.1683712,22.0610227 17.1710227,21.9208712 C17.1732955,21.7814773 17.061553,21.665947 16.9210227,21.6648106 C16.7804924,21.6625379 16.6657197,21.7742803 16.6630682,21.9144318 C16.6611742,22.053447 16.7721591,22.1693561 16.9119318,22.1704924" id="Fill-81" fill="#F7A29B"></path>
                <path d="M15.6867803,25.1554545 C16.1167045,25.16 16.4716288,24.8164394 16.4788258,24.3865152 C16.4848864,23.9558333 16.1420833,23.6031818 15.7117803,23.5971212 C15.2814773,23.5925758 14.9269318,23.9353788 14.9204924,24.3660606 C14.9121591,24.7963636 15.2557197,25.1490152 15.6867803,25.1554545" id="Fill-83" fill="#EC8782"></path>
                <path d="M22.2249242,5.51011364 C21.7510606,5.56465909 21.2703788,5.69912879 20.7976515,5.8832197 C20.9120455,5.76806818 21.0256818,5.65102273 21.1389394,5.53094697 C24.6957576,1.75102273 15.0192424,-1.68988636 14.4400758,2.47943182 C14.4014394,2.75518939 14.387803,3.04155303 14.3934848,3.33435606 C14.1495455,3.05632576 13.8760606,2.78094697 13.5673485,2.51049242 C10.6412121,-0.0489772727 6.32265152,7.73814394 9.16393939,8.94079545 C9.44234848,9.05897727 9.72833333,9.15556818 10.0177273,9.23473485 C9.68174242,9.36200758 9.35409091,9.51958333 9.04575758,9.71882576 C5.7669697,11.8328409 11.3540909,17.4328409 13.5347727,15.5430682 C13.7836364,15.3271591 14.0101515,15.0782955 14.2165909,14.8101136 C14.2279545,15.0381439 14.2506818,15.268447 14.2900758,15.4995076 C14.9351515,19.3339773 22.3071212,16.3926894 21.4317424,13.6525379 C21.3150758,13.2854924 21.1332576,12.9343561 20.9105303,12.6014015 C21.2343939,12.7131439 21.5692424,12.8044318 21.9139394,12.8657955 C26.3313636,13.6521591 26.0423485,5.06806818 22.2249242,5.51011364" id="Fill-85" fill="#FFFFFF"></path>
                <path d="M16.9892424,8.84909091 C16.9892424,8.84909091 20.1252273,5.6430303 22.99,5.31272727 C26.8089394,4.87068182 27.0975758,13.4547727 22.6793939,12.6687879 C19.359697,12.0767424 16.9892424,8.84909091 16.9892424,8.84909091" id="Fill-87" fill="#DC5064"></path>
                <path d="M16.9892424,8.84909091 C16.9892424,8.84909091 21.322197,10.7142424 22.1975758,13.4547727 C23.072197,16.1949242 15.7013636,19.1362121 15.0559091,15.3025 C14.495303,11.9793939 16.9892424,8.84909091 16.9892424,8.84909091" id="Fill-89" fill="#DC5064"></path>
                <path d="M16.9836742,9.16537879 C16.9836742,9.16537879 16.4814015,13.4543939 14.3010985,15.345303 C12.1200379,17.2354545 6.53329545,11.6354545 9.81170455,9.52143939 C12.6514773,7.69 16.9836742,9.16537879 16.9836742,9.16537879" id="Fill-91" fill="#DC5064"></path>
                <path d="M16.9892424,8.84909091 C16.9892424,8.84909091 12.9858333,10.0377273 9.92977273,8.74340909 C7.08886364,7.54075758 11.407803,-0.246363636 14.332803,2.31348485 C17.6824242,5.24189394 16.9892424,8.84909091 16.9892424,8.84909091" id="Fill-93" fill="#DC5064"></path>
                <path d="M16.9836742,9.16537879 C16.9836742,9.16537879 14.8094318,5.13583333 15.2064015,2.28242424 C15.7848106,-1.88765152 25.4613258,1.55325758 21.9045076,5.33318182 C19.5893561,7.79454545 16.9836742,9.16537879 16.9836742,9.16537879" id="Fill-95" fill="#DC5064"></path>
                <path id="Fill-97" fill="#F7A29B"></path>
                <path d="M17.0939015,9.63238636 C17.4575379,10.0395833 17.8226894,10.4475379 18.1863258,10.8554924 C18.2385985,10.913447 18.3230682,10.8293561 18.2723106,10.7721591 C17.9075379,10.3649621 17.5439015,9.95700758 17.1795076,9.54905303 C17.1276136,9.49147727 17.0420076,9.57481061 17.0939015,9.63238636" id="Fill-99" fill="#F7A29B"></path>
                <path d="M17.2781439,9.39602273 C17.6936742,9.64905303 18.1095833,9.90284091 18.5254924,10.1573864 C18.5914015,10.1967803 18.6527652,10.0948864 18.5876136,10.0543561 C18.1701894,9.80094697 17.7554167,9.54640152 17.3398864,9.29337121 C17.2735985,9.25246212 17.2126136,9.35549242 17.2781439,9.39602273" id="Fill-101" fill="#F7A29B"></path>
                <path id="Fill-103" fill="#F7A29B"></path>
                <path d="M17.4764015,8.76049242 C17.891553,8.37905303 18.3067045,7.99799242 18.7207197,7.61579545 C18.7779167,7.5642803 18.6949621,7.47867424 18.6377652,7.53056818 C18.2233712,7.91238636 17.8082197,8.29420455 17.3942045,8.67602273 C17.33625,8.72791667 17.4203409,8.81352273 17.4764015,8.76049242" id="Fill-105" fill="#F7A29B"></path>
                <path d="M17.1789773,8.50450758 C17.4498106,7.94655303 17.7206439,7.38973485 17.9910985,6.83291667 C18.0248106,6.76397727 17.9221591,6.70223485 17.8880682,6.77041667 C17.6179924,7.32837121 17.3479167,7.88556818 17.0778409,8.44276515 C17.0433712,8.51094697 17.1456439,8.57344697 17.1789773,8.50450758" id="Fill-107" fill="#F7A29B"></path>
                <path id="Fill-109" fill="#F7A29B"></path>
                <path d="M16.5409091,8.46215909 C16.3503788,8.04965909 16.1594697,7.63867424 15.9693182,7.22617424 C15.9367424,7.15647727 15.8333333,7.21556818 15.8655303,7.28526515 C16.0560606,7.69662879 16.2450758,8.10799242 16.4363636,8.52011364 C16.467803,8.59018939 16.5727273,8.53185606 16.5409091,8.46215909" id="Fill-111" fill="#F7A29B"></path>
                <path d="M16.3396591,8.66212121 C16.0006439,8.34204545 15.6616288,8.02272727 15.3214773,7.70227273 C15.2673106,7.65037879 15.1798106,7.73257576 15.23625,7.78598485 C15.5752652,8.10530303 15.9150379,8.42462121 16.254053,8.74507576 C16.3101136,8.79734848 16.3968561,8.71515152 16.3396591,8.66212121" id="Fill-113" fill="#F7A29B"></path>
                <path id="Fill-115" fill="#F7A29B"></path>
                <path d="M16.2738258,9.17314394 C15.8135985,9.32503788 15.3526136,9.47617424 14.8923864,9.62806818 C14.8189015,9.65117424 14.8476894,9.76670455 14.9223106,9.7432197 C15.3821591,9.59132576 15.8435227,9.44094697 16.30375,9.28867424 C16.3760985,9.26443182 16.3469318,9.14965909 16.2738258,9.17314394" id="Fill-117" fill="#F7A29B"></path>
                <path d="M16.3955303,9.4180303 C16.0394697,9.63886364 15.6834091,9.85818182 15.3250758,10.0778788 C15.2606818,10.1184091 15.3186364,10.2225758 15.3841667,10.1816667 C15.7406061,9.9619697 16.0970455,9.74227273 16.4534848,9.52143939 C16.5190152,9.48166667 16.4610606,9.37712121 16.3955303,9.4180303" id="Fill-119" fill="#F7A29B"></path>
                <path d="M16.5790152,9.61905303 C16.3801515,9.99746212 16.1805303,10.37625 15.9812879,10.7539015 C15.9460606,10.820947 16.0475758,10.8830682 16.0831818,10.8160227 C16.2831818,10.4368561 16.4824242,10.0592045 16.6805303,9.68041667 C16.7168939,9.61223485 16.615,9.55087121 16.5790152,9.61905303" id="Fill-121" fill="#F7A29B"></path>
                <path id="Fill-123" fill="#F7A29B"></path>
                <path d="M18.8694697,7.68924242 C18.71,7.68734848 18.5842424,7.55666667 18.5865152,7.39795455 C18.5891667,7.23924242 18.7213636,7.11272727 18.8804545,7.11386364 C19.0384091,7.11575758 19.1649242,7.24719697 19.1618939,7.40590909 C19.1603788,7.56424242 19.0293182,7.69189394 18.8694697,7.68924242" id="Fill-125" fill="#F7A29B"></path>
                <path d="M19.1021591,9.41337121 C19.2650379,9.41488636 19.39875,9.28496212 19.4021591,9.12284091 C19.4044318,8.9607197 19.2752652,8.82738636 19.1123864,8.82549242 C18.9495076,8.82284091 18.8150379,8.95276515 18.8135227,9.11526515 C18.8108712,9.27776515 18.9396591,9.41109848 19.1021591,9.41337121" id="Fill-127" fill="#F7A29B"></path>
                <path id="Fill-129" fill="#F7A29B"></path>
                <path id="Fill-131" fill="#F7A29B"></path>
                <path id="Fill-133" fill="#F7A29B"></path>
                <path id="Fill-135" fill="#F7A29B"></path>
                <path id="Fill-137" fill="#F7A29B"></path>
                <path id="Fill-139" fill="#F7A29B"></path>
                <path id="Fill-141" fill="#F7A29B"></path>
                <path id="Fill-143" fill="#F7A29B"></path>
                <path id="Fill-145" fill="#F7A29B"></path>
                <path id="Fill-147" fill="#F7A29B"></path>
                <path id="Fill-149" fill="#F7A29B"></path>
                <path id="Fill-151" fill="#F7A29B"></path>
                <path d="M16.8394318,9.69840909 C17.2242803,9.70257576 17.5417045,9.39537879 17.5477652,9.0105303 C17.5538258,8.62568182 17.2466288,8.31015152 16.8617803,8.3044697 C16.476553,8.30030303 16.1598864,8.60712121 16.153447,8.9919697 C16.1466288,9.37719697 16.4538258,9.69272727 16.8394318,9.69840909" id="Fill-153" fill="#EC8782"></path>
                <path d="M42.3092045,18.4001515 C41.6050379,18.0626515 40.8213258,17.8293182 40.0046591,17.6717424 C40.2633712,17.6115152 40.5232197,17.5490152 40.7853409,17.4812121 C49.019053,15.3452273 38.6046591,2.12325758 34.1603409,7.39977273 C33.8667803,7.74825758 33.5970833,8.13348485 33.3493561,8.5444697 C33.2539015,7.94560606 33.1148864,7.32401515 32.9228409,6.68045455 C31.1008712,0.575530303 18.3110985,7.60280303 21.2008712,11.7524242 C21.4838258,12.1584848 21.7963258,12.5425758 22.1292803,12.9062121 C21.5516288,12.7884091 20.9603409,12.7217424 20.3580682,12.7281818 C13.9652652,12.7963636 16.8224621,25.4410606 21.4967045,24.7243939 C22.0307955,24.642197 22.5610985,24.4952273 23.0823106,24.3035606 C22.8989773,24.6300758 22.7296591,24.9690909 22.5819318,25.3240152 C20.1281439,31.2050758 32.9194318,33.5630303 34.0989773,28.9993939 C34.256553,28.3876515 34.3126136,27.7437121 34.2951894,27.0868939 C34.6451894,27.5240152 35.0289015,27.9429545 35.4539015,28.329697 C40.894053,33.2785606 47.9902652,21.1221212 42.3092045,18.4001515" id="Fill-155" fill="#FFFFFF"></path>
                <path d="M32.1326136,18.4585985 C32.1326136,18.4585985 39.2814773,16.7514015 43.5443561,18.7953409 C49.2246591,21.5169318 42.1288258,33.6733712 36.689053,28.7252652 C32.6011742,25.0051894 32.1326136,18.4585985 32.1326136,18.4585985" id="Fill-157" fill="#DC5064"></path>
                <path d="M32.1326136,18.4585985 C32.1326136,18.4585985 36.5129167,24.829053 35.3333712,29.3945833 C34.1542045,33.9582197 21.3629167,31.5998864 23.8167045,25.7188258 C25.940947,20.6218561 32.1326136,18.4585985 32.1326136,18.4585985" id="Fill-160" fill="#DC5064"></path>
                <path d="M31.8492424,18.8921591 C31.8492424,18.8921591 27.4064394,24.4008712 22.7314394,25.1194318 C18.057197,25.8364773 15.2,13.1914015 21.5931818,13.1232197 C27.1295455,13.0633712 31.8492424,18.8921591 31.8492424,18.8921591" id="Fill-162" fill="#DC5064"></path>
                <path d="M32.1326136,18.4585985 C32.1326136,18.4585985 25.5435985,16.6108712 22.4356439,12.1472348 C19.54625,7.99761364 32.3356439,0.970719697 34.1576136,7.07526515 C36.2443561,14.0623864 32.1326136,18.4585985 32.1326136,18.4585985" id="Fill-164" fill="#DC5064"></path>
                <path d="M31.8492424,18.8921591 C31.8492424,18.8921591 32.3526515,11.4054167 35.3950758,7.79481061 C39.8397727,2.51829545 50.2537879,15.7398864 42.0204545,17.87625 C36.6594697,19.2671591 31.8492424,18.8921591 31.8492424,18.8921591" id="Fill-166" fill="#DC5064"></path>
                <path d="M31.310303,19.6101515 C30.9587879,20.3688636 30.6095455,21.1302273 30.2599242,21.8885606 C30.2068939,22.0025758 30.3932576,22.0609091 30.4451515,21.9472727 C30.7959091,21.1885606 31.1459091,20.4283333 31.4955303,19.6677273 C31.5481818,19.5552273 31.3614394,19.4968939 31.310303,19.6101515" id="Fill-168" fill="#F7A29B"></path>
                <path d="M31.5943939,19.6360227 C31.7425,20.5189773 31.8928788,21.4030682 32.0413636,22.2864015 C32.0625758,22.4117803 32.2534848,22.3701136 32.2334091,22.2466288 C32.0826515,21.3629167 31.9341667,20.4792045 31.785303,19.5954924 C31.7637121,19.4701136 31.572803,19.5114015 31.5943939,19.6360227" id="Fill-170" fill="#F7A29B"></path>
                <path d="M32.0560227,19.4688258 C32.4117045,20.1835985 32.7666288,20.8983712 33.1207955,21.6146591 C33.1779924,21.7271591 33.3526136,21.6392803 33.296553,21.5256439 C32.9401136,20.81125 32.585947,20.0949621 32.2317803,19.3813258 C32.1753409,19.2661742 32.0007197,19.3563258 32.0560227,19.4688258" id="Fill-172" fill="#F7A29B"></path>
                <path d="M32.5099242,19.2121212 C33.2269697,19.7037879 33.9436364,20.1950758 34.6614394,20.6875 C34.7656061,20.7590909 34.8724242,20.5950758 34.7686364,20.5242424 C34.0504545,20.0318182 33.3334091,19.5412879 32.6171212,19.0488636 C32.512197,18.9753788 32.4057576,19.1405303 32.5099242,19.2121212" id="Fill-174" fill="#F7A29B"></path>
                <path d="M32.8860985,18.7617424 C33.7944318,18.5950758 34.7027652,18.4287879 35.6118561,18.2609848 C35.7353409,18.2390152 35.6955682,18.0481061 35.5713258,18.0704545 C34.6614773,18.2378788 33.7527652,18.4045455 32.845947,18.5719697 C32.7201894,18.5931818 32.7614773,18.7859848 32.8860985,18.7617424" id="Fill-176" fill="#F7A29B"></path>
                <path d="M32.6970833,18.1465909 C33.5595833,17.6090909 34.4220833,17.0738636 35.2826894,16.5367424 C35.3895076,16.4708333 35.3020076,16.2965909 35.1955682,16.3613636 C34.3330682,16.8988636 33.4717045,17.4356061 32.6103409,17.9723485 C32.5031439,18.0375 32.5906439,18.2132576 32.6970833,18.1465909" id="Fill-178" fill="#F7A29B"></path>
                <path d="M32.2746591,17.7620833 C32.7928409,17.0207955 33.3095076,16.2768561 33.8273106,15.5336742 C33.8989015,15.4302652 33.7360227,15.3242045 33.6632955,15.42875 C33.14625,16.171553 32.6280682,16.9139773 32.1098864,17.6564015 C32.0386742,17.7605682 32.2038258,17.8666288 32.2746591,17.7620833" id="Fill-180" fill="#F7A29B"></path>
                <path id="Fill-182" fill="#F7A29B"></path>
                <path d="M31.3960985,17.6324242 C31.2048106,16.8922727 31.0131439,16.1532576 30.8218561,15.4127273 C30.7911742,15.2918939 30.5991288,15.3305303 30.6305682,15.4532576 C30.8226136,16.1930303 31.0131439,16.9320455 31.2051894,17.6725758 C31.2358712,17.7937879 31.4282955,17.7555303 31.3960985,17.6324242" id="Fill-184" fill="#F7A29B"></path>
                <path d="M30.9659091,17.8967045 C30.2893939,17.4588258 29.6143939,17.0213258 28.9375,16.581553 C28.8306818,16.5133712 28.725,16.6773864 28.8306818,16.7448106 C29.5060606,17.183447 30.1840909,17.6220833 30.8590909,18.0607197 C30.9655303,18.1296591 31.0723485,17.9652652 30.9659091,17.8967045" id="Fill-186" fill="#F7A29B"></path>
                <path d="M30.8578788,18.283447 C30.0870455,18.0921591 29.3158333,17.8985985 28.5453788,17.7073106 C28.4230303,17.6747348 28.3624242,17.8610985 28.4859091,17.8932955 C29.2559848,18.0845833 30.0279545,18.2792803 30.7984091,18.4694318 C30.9192424,18.4989773 30.9798485,18.3148864 30.8578788,18.283447" id="Fill-188" fill="#F7A29B"></path>
                <path id="Fill-190" fill="#F7A29B"></path>
                <path d="M30.891553,19.1675379 C30.2851136,19.519053 29.6786742,19.870947 29.0718561,20.2198106 C28.9639015,20.2823106 29.0506439,20.4573106 29.1593561,20.3951894 C29.766553,20.0436742 30.3729924,19.6944318 30.9794318,19.3421591 C31.0889015,19.2796591 31.0010227,19.1057955 30.891553,19.1675379" id="Fill-192" fill="#F7A29B"></path>
                <path d="M31.1923106,19.3491667 C30.7324621,19.9559848 30.2707197,20.5624242 29.8093561,21.1684848 C29.7335985,21.2688636 29.8976136,21.375303 29.9741288,21.2764394 C30.4347348,20.6692424 30.8949621,20.0620455 31.3574621,19.4552273 C31.4335985,19.3548485 31.268447,19.2487879 31.1923106,19.3491667" id="Fill-194" fill="#F7A29B"></path>
                <path d="M35.7540152,18.4926515 C35.5339394,18.3506061 35.4737121,18.059697 35.6153788,17.8418939 C35.757803,17.6240909 36.0513636,17.5631061 36.270303,17.7043939 C36.4877273,17.8445455 36.5502273,18.1377273 36.4074242,18.3555303 C36.2653788,18.5729545 35.972197,18.6354545 35.7540152,18.4926515" id="Fill-196" fill="#F7A29B"></path>
                <path d="M34.5706818,21.087197 C34.7945455,21.2307576 35.0937879,21.1682576 35.2403788,20.9455303 C35.384697,20.7231818 35.3218182,20.4254545 35.0983333,20.28 C34.8744697,20.1341667 34.5752273,20.1974242 34.4301515,20.4212879 C34.2850758,20.6440152 34.3468182,20.9409848 34.5706818,21.087197" id="Fill-198" fill="#F7A29B"></path>
                <path d="M33.0041288,21.8839773 C33.1776136,21.9976136 33.4098106,21.9464773 33.5238258,21.7748864 C33.6363258,21.6017803 33.5878409,21.3699621 33.4132197,21.2567045 C33.2389773,21.143447 33.0064015,21.193447 32.8946591,21.3650379 C32.7810227,21.5385227 32.8295076,21.7699621 33.0041288,21.8839773" id="Fill-200" fill="#F7A29B"></path>
                <path d="M31.9291667,22.5834848 C32.105303,22.6978788 32.3409091,22.6482576 32.4568182,22.4732576 C32.5715909,22.2978788 32.5215909,22.0630303 32.3458333,21.9486364 C32.1685606,21.8338636 31.932197,21.8838636 31.8181818,22.0592424 C31.7026515,22.2342424 31.7530303,22.4709848 31.9291667,22.5834848" id="Fill-202" fill="#F7A29B"></path>
                <path d="M30.166553,22.2034091 C30.3241288,22.3060606 30.5354924,22.2602273 30.6392803,22.1034091 C30.7419318,21.9458333 30.6957197,21.7359848 30.5385227,21.6329545 C30.3805682,21.5306818 30.1699621,21.5765152 30.0673106,21.732197 C29.9631439,21.8890152 30.0082197,22.1 30.166553,22.2034091" id="Fill-204" fill="#F7A29B"></path>
                <path d="M29.6057576,21.5617803 C29.7837879,21.6776894 30.0224242,21.6257955 30.1379545,21.4489015 C30.2531061,21.27125 30.2038636,21.0360227 30.0243182,20.9170833 C29.8474242,20.8045833 29.6095455,20.8553409 29.4921212,21.0326136 C29.3765909,21.2083712 29.4265909,21.4466288 29.6057576,21.5617803" id="Fill-206" fill="#F7A29B"></path>
                <path d="M28.9410227,20.5759848 C29.0898864,20.6733333 29.2879924,20.6301515 29.3849621,20.4816667 C29.4830682,20.334697 29.4398864,20.1358333 29.2914015,20.0388636 C29.1432955,19.9430303 28.944053,19.9854545 28.8467045,20.132803 C28.7501136,20.2820455 28.7914015,20.4797727 28.9410227,20.5759848" id="Fill-208" fill="#F7A29B"></path>
                <path d="M28.5448485,19.1220455 C28.7179545,19.2345455 28.9493939,19.1845455 29.0634091,19.0114394 C29.1766667,18.8383333 29.1259091,18.6068939 28.9535606,18.4962879 C28.7793182,18.3822727 28.5471212,18.43 28.4346212,18.6034848 C28.3209848,18.7784848 28.3694697,19.0087879 28.5448485,19.1220455" id="Fill-210" fill="#F7A29B"></path>
                <path d="M28.3757955,18.0101136 C28.4947348,18.0892803 28.651553,18.0548106 28.728447,17.9370076 C28.8057197,17.8195833 28.7723864,17.6635227 28.6542045,17.5866288 C28.5356439,17.5097348 28.3780682,17.5430682 28.3019318,17.6608712 C28.2250379,17.7775379 28.2576136,17.9351136 28.3757955,18.0101136" id="Fill-212" fill="#F7A29B"></path>
                <path d="M28.7412879,16.8833712 C28.8609848,16.9610227 29.0246212,16.9273106 29.1034091,16.8049621 C29.182197,16.6852652 29.1477273,16.5223864 29.0265152,16.4454924 C28.9060606,16.3655682 28.7420455,16.4004167 28.6632576,16.5204924 C28.5844697,16.6417045 28.6200758,16.8049621 28.7412879,16.8833712" id="Fill-214" fill="#F7A29B"></path>
                <path d="M30.5320076,15.7281061 C30.6967803,15.8375758 30.9183712,15.7894697 31.0251894,15.6258333 C31.1327652,15.462197 31.0850379,15.2417424 30.9214015,15.1345455 C30.7570076,15.0292424 30.5350379,15.074697 30.4282197,15.2387121 C30.3214015,15.4031061 30.3672348,15.6235606 30.5320076,15.7281061" id="Fill-216" fill="#F7A29B"></path>
                <path d="M31.862197,15.5844318 C32.0114394,15.6810227 32.2125758,15.6389773 32.310303,15.4889773 C32.4072727,15.3389773 32.3656061,15.1389773 32.2159848,15.0427652 C32.0652273,14.9439015 31.8640909,14.9863258 31.7659848,15.1348106 C31.6678788,15.285947 31.7110606,15.485947 31.862197,15.5844318" id="Fill-218" fill="#F7A29B"></path>
                <path d="M33.6040909,15.6972348 C33.7249242,15.7760227 33.8847727,15.7419318 33.9616667,15.6214773 C34.0389394,15.5014015 34.0063636,15.3426894 33.8859091,15.2654167 C33.7665909,15.1896591 33.6059848,15.2218561 33.5287121,15.3396591 C33.4506818,15.4608712 33.4847727,15.6199621 33.6040909,15.6972348" id="Fill-220" fill="#F7A29B"></path>
                <path d="M35.035303,16.7598106 C35.2072727,16.8723106 35.4387121,16.8238258 35.5515909,16.6526136 C35.6637121,16.4814015 35.6148485,16.2503409 35.4425,16.1397348 C35.2690152,16.0268561 35.0398485,16.0768561 34.9269697,16.2480682 C34.8148485,16.4189015 34.8629545,16.6492045 35.035303,16.7598106" id="Fill-222" fill="#F7A29B"></path>
                <path d="M31.1834091,19.5052652 C31.7133333,19.8476894 32.4220455,19.6988258 32.7671212,19.1704167 C33.1110606,18.6420076 32.9614394,17.9363258 32.4318939,17.5923864 C31.9019697,17.2499621 31.1943939,17.3992045 30.8485606,17.9276136 C30.5038636,18.4548864 30.6546212,19.1613258 31.1834091,19.5052652" id="Fill-224" fill="#EC8782"></path>
            </g>
        </g>
    </g>
</svg>