<?xml version="1.0" encoding="UTF-8" standalone="no"?>
<svg width="50px" height="50px" viewBox="0 0 50 50" version="1.1" xmlns="http://www.w3.org/2000/svg" xmlns:xlink="http://www.w3.org/1999/xlink">
    <!-- Generator: Sketch 41.2 (35397) - http://www.bohemiancoding.com/sketch -->
    <title>Rectangle 2</title>
    <desc>Created with Sketch.</desc>
    <defs>
        <polygon id="path-1" points="6.13516993 0.0980785838 0.0398303307 0.0980785838 0.0398303307 6.19344982 6.13516993 6.19344982 6.13516993 0.0980785838"></polygon>
    </defs>
    <g id="紅磚屋_UI-KIT" stroke="none" stroke-width="1" fill="none" fill-rule="evenodd">
        <g id="illu03_rooms_color">
            <rect id="Rectangle-2" fill="#FFFFFF" opacity="0" x="0" y="0" width="50" height="50"></rect>
            <g transform="translate(2.500000, 2.500000)">
                <rect id="Rectangle-2" fill="#FFFFFF" opacity="0" x="0" y="0" width="45.8333333" height="45.8333333"></rect>
                <g transform="translate(22.924583, 22.916667) scale(-1, 1) translate(-22.924583, -22.916667) translate(10.694444, 0.000000)">
                    <g id="Group-3" transform="translate(8.786701, 5.126446)" fill="#6F3203">
                        <path d="M0.896813472,40.4274223 C2.75318221,37.0058333 3.79737478,33.0185708 4.5606304,29.2353022 C6.50462867,19.6019905 5.77010794,9.57565199 3.00087219,0.180531088 C2.92012953,-0.0930440415 2.23310449,0.0952763385 2.31265976,0.365289292 C5.05601036,9.67159326 5.75015976,19.4908506 3.92157599,29.03962 C3.18753022,32.8720466 2.12528929,36.9279404 0.248734888,40.386101 C0.0789378238,40.6995725 0.77451209,40.6527893 0.896813472,40.4274223" id="Fill-1"></path>
                    </g>
                    <path d="M10.9934693,41.1957837 C7.0449158,40.1499288 4.39774396,36.429592 3.88597798,32.5216472 C3.85510579,32.2860687 3.33764033,32.4140695 3.36969991,32.6598597 C3.89476468,36.6684953 6.6533139,40.4700497 10.6947215,41.5403649 C10.9139141,41.5985471 11.3057535,41.2784262 10.9934693,41.1957837" id="Fill-4" fill="#6F3203"></path>
                    <path d="M6.9921481,30.7699115 C6.9921481,32.6497906 5.46824914,34.1736896 3.58813256,34.1736896 C1.70825345,34.1736896 0.184354491,32.6497906 0.184354491,30.7699115 C0.184354491,28.8900324 1.70825345,27.3661334 3.58813256,27.3661334 C5.46824914,27.3661334 6.9921481,28.8900324 6.9921481,30.7699115" id="Fill-6" fill="#E84C28"></path>
                    <path d="M0.00197107081,31.5526166 C0.429432211,33.3294301 2.04048575,34.3781347 3.81634931,34.3014292 C3.98210924,34.2943048 4.3729987,34.0311788 4.02723014,34.0459024 C2.36108161,34.1180959 0.911275907,33.0487306 0.518011658,31.4144041 C0.481677461,31.2626554 -0.0357879965,31.3963558 0.00197107081,31.5526166" id="Fill-8" fill="#6F3203"></path>
                    <path d="M7.15750432,30.6249784 C7.21259931,32.4516623 5.93425302,33.8872193 4.20042314,34.2804836 C4.03870035,34.3170553 3.59224093,34.166019 3.92993523,34.0893135 C5.55642487,33.7205095 6.67376079,32.307513 6.62341537,30.6275907 C6.61842832,30.4715674 7.15275475,30.464443 7.15750432,30.6249784" id="Fill-10" fill="#6F3203"></path>
                    <path d="M1.45025691,31.5319797 C1.60580527,32.8134132 2.58587867,33.8554685 3.77849525,34.2544322 C3.98391408,34.3230635 4.38691494,34.0264529 4.08128022,33.9240997 C2.97558074,33.5548208 2.1092595,32.5699978 1.96653497,31.3937673 C1.93969991,31.1724374 1.4217595,31.2975885 1.45025691,31.5319797" id="Fill-12" fill="#6F3203"></path>
                    <path d="M5.42094344,30.7383744 C5.75555052,31.9848985 5.23594775,33.3178649 4.27890976,34.1338407 C4.11409974,34.2741904 3.6294063,34.1495142 3.8747215,33.9405332 C4.76217832,33.1846395 5.19771373,31.9476144 4.89041667,30.803206 C4.83270941,30.587813 5.35967401,30.5103951 5.42094344,30.7383744" id="Fill-14" fill="#6F3203"></path>
                    <path d="M11.8571071,39.6066969 C15.9243998,39.2295812 19.151494,35.9993998 20.3037392,32.2301425 C20.3730829,32.0031131 20.8622884,32.2149439 20.7898575,32.4519473 C19.6079275,36.3180959 16.257582,39.6104965 12.0945855,39.9961615 C11.8687435,40.0172971 11.5353238,39.6363817 11.8571071,39.6066969" id="Fill-16" fill="#6F3203"></path>
                    <path d="M17.5307275,29.9881326 C17.2191559,31.8421265 18.4694797,33.5973294 20.3234737,33.9089011 C22.1774676,34.2202353 23.9326706,32.970149 24.2442422,31.116155 C24.5558139,29.2621611 23.3054901,27.5069581 21.4517336,27.1953864 C19.5977396,26.8840522 17.8422992,28.1341386 17.5307275,29.9881326" id="Fill-18" fill="#E84C28"></path>
                    <path d="M24.2945639,31.9183333 C23.5785665,33.599918 21.8160017,34.3672107 20.0774223,33.9969819 C19.9152245,33.9625475 19.5732556,33.638152 19.9118998,33.7101079 C21.543139,34.0573014 23.1501554,33.2429879 23.8086831,31.696291 C23.869715,31.5530915 24.3577332,31.7703843 24.2945639,31.9183333" id="Fill-20" fill="#6F3203"></path>
                    <path d="M17.3916839,29.8176706 C17.0347539,31.6101576 18.0575734,33.2375972 19.7021114,33.9127483 C19.8557599,33.9756801 20.3207427,33.9006369 20.0006218,33.7690738 C18.4577245,33.1359564 17.5899784,31.5571999 17.9181736,29.9088623 C17.9485708,29.7556887 17.4230311,29.6602224 17.3916839,29.8176706" id="Fill-22" fill="#6F3203"></path>
                    <path d="M22.8696934,31.6579145 C22.5042142,32.8958895 21.3647927,33.7610233 20.1225432,33.956943 C19.9085751,33.9904275 19.5604318,33.6311226 19.8786528,33.5812522 C21.0304231,33.4000561 22.0477807,32.5726813 22.3835751,31.4361097 C22.4467444,31.2223791 22.9366623,31.4315976 22.8696934,31.6579145" id="Fill-24" fill="#6F3203"></path>
                    <path d="M19.085475,30.2172755 C18.5490112,31.3911313 18.8403972,32.7920164 19.6492487,33.7549914 C19.7884111,33.9207513 20.2868782,33.8782427 20.0797971,33.6315026 C19.3298402,32.7388212 19.1054231,31.4469387 19.5979534,30.3692617 C19.6905699,30.1664551 19.1835535,30.0028325 19.085475,30.2172755" id="Fill-26" fill="#6F3203"></path>
                    <path d="M13.8139767,30.4183247 C9.86542314,29.3724698 7.2182513,25.652133 6.70648532,21.7441883 C6.67561313,21.5086097 6.15814767,21.6366105 6.19044473,21.8824007 C6.71527202,25.8910363 9.47382124,29.6925907 13.5152288,30.7629059 C13.7344214,30.8210881 14.1262608,30.5009672 13.8139767,30.4183247" id="Fill-28" fill="#6F3203"></path>
                    <path d="M9.81267919,19.9924763 C9.81267919,21.8723554 8.28878022,23.3962543 6.40866364,23.3962543 C4.52878454,23.3962543 3.00488558,21.8723554 3.00488558,19.9924763 C3.00488558,18.1125972 4.52878454,16.5886982 6.40866364,16.5886982 C8.28878022,16.5886982 9.81267919,18.1125972 9.81267919,19.9924763" id="Fill-30" fill="#E84C28"></path>
                    <path d="M2.82247841,20.7751813 C3.24993955,22.5519948 4.86099309,23.6006995 6.63685665,23.523994 C6.80261658,23.5168696 7.19350604,23.2537435 6.84773748,23.2684672 C5.18158895,23.3406606 3.73178325,22.2712953 3.338519,20.6369689 C3.3021848,20.4852202 2.78471934,20.6189206 2.82247841,20.7751813" id="Fill-32" fill="#6F3203"></path>
                    <path d="M9.97803541,19.8475194 C10.0331304,21.6742034 8.75478411,23.1097604 7.02095423,23.5032621 C6.85923143,23.5395963 6.41277202,23.38856 6.75046632,23.3118545 C8.37695596,22.9430505 9.49429188,21.530054 9.44394646,19.8501317 C9.43895941,19.6941084 9.97328584,19.686984 9.97803541,19.8475194" id="Fill-34" fill="#6F3203"></path>
                    <path d="M4.270788,20.7545445 C4.42633636,22.035978 5.40640976,23.0780332 6.59902634,23.476997 C6.80444516,23.5456282 7.20744603,23.2490177 6.90181131,23.1466645 C5.79611183,22.7773856 4.92979059,21.7925626 4.78706606,20.616332 C4.760231,20.3950022 4.24229059,20.5201533 4.270788,20.7545445" id="Fill-36" fill="#6F3203"></path>
                    <path d="M8.24147453,19.9609391 C8.57608161,21.2074633 8.05647884,22.5404296 7.09920337,23.3564054 C6.93463083,23.4967552 6.44993739,23.372079 6.69525259,23.163098 C7.58270941,22.4072042 8.01824482,21.1701792 7.71094775,20.0255332 C7.6532405,19.8103778 8.18020509,19.7329598 8.24147453,19.9609391" id="Fill-38" fill="#6F3203"></path>
                    <path d="M13.8368221,27.7923834 C17.6008549,26.2055527 19.7030138,22.1522712 19.6643048,18.2110794 C19.6619301,17.9738385 20.1922193,18.0282211 20.1945941,18.2759111 C20.234253,22.318506 18.0333031,26.4682038 14.1806908,28.0920812 C13.9717098,28.1801857 13.5390242,27.9175345 13.8368221,27.7923834" id="Fill-40" fill="#6F3203"></path>
                    <path d="M16.3441429,16.9101252 C16.6063191,18.7717185 18.3280376,20.0681131 20.1896308,19.805462 C22.0512241,19.5432858 23.3473813,17.8215674 23.0852051,15.9602116 C22.8227915,14.0986183 21.1013104,12.8022237 19.2397172,13.0648748 C17.3781239,13.3270509 16.0817293,15.048532 16.3441429,16.9101252" id="Fill-42" fill="#E84C28"></path>
                    <path d="M23.3751425,16.7097647 C23.1998834,18.5290868 21.7507902,19.7922345 19.981576,19.9639313 C19.8165285,19.9800799 19.3926295,19.7739486 19.7372107,19.7404642 C21.3971848,19.5792163 22.6836054,18.3179685 22.8448532,16.6449331 C22.8598143,16.4896222 23.3905786,16.5497042 23.3751425,16.7097647" id="Fill-44" fill="#6F3203"></path>
                    <path d="M16.1601209,16.7895337 C16.3605527,18.6062435 17.8267444,19.849443 19.5983333,19.9969171 C19.7636183,20.0106908 20.1844301,19.7986226 19.8396114,19.7696503 C18.1775,19.6316753 16.8737435,18.3882383 16.6894603,16.7175777 C16.6723618,16.5625043 16.1425475,16.6299482 16.1601209,16.7895337" id="Fill-46" fill="#6F3203"></path>
                    <path d="M21.9381131,16.8913407 C21.9628109,18.1820358 21.1378109,19.3504296 20.0124007,19.9120661 C19.8188558,20.0087198 19.3783333,19.7712414 19.6668696,19.6273294 C20.7101123,19.1072517 21.4303843,18.0115263 21.4078238,16.8265091 C21.4033117,16.6037543 21.933601,16.6555246 21.9381131,16.8913407" id="Fill-48" fill="#6F3203"></path>
                    <path d="M17.8955181,16.6596567 C17.7380699,17.9408528 18.4386313,19.1880894 19.5001598,19.8625281 C19.6830181,19.9784175 20.1456261,19.7874849 19.8734758,19.6146006 C18.8893653,18.9900324 18.2854577,17.8259132 18.4298446,16.6499201 C18.4571546,16.4285902 17.9244905,16.425503 17.8955181,16.6596567" id="Fill-50" fill="#6F3203"></path>
                    <path d="M13.731073,16.1956002 C10.0796049,16.4031563 6.79242876,13.9730397 5.27042962,10.7889292 C5.17876295,10.5975216 4.77386226,10.8499611 4.86956606,11.0501554 C6.43074914,14.3159585 9.83547712,16.7845466 13.5726749,16.5720035 C13.775244,16.5606045 14.0198467,16.1789767 13.731073,16.1956002" id="Fill-52" fill="#6F3203"></path>
                    <path d="M7.42711356,8.43487694 C7.94980354,10.0345315 7.07635794,11.7553001 5.47646589,12.2782275 C3.87657383,12.8006801 2.15580527,11.9272345 1.63335276,10.3273424 C1.11066278,8.72745035 1.9838709,7.00668178 3.58376295,6.48422927 C5.18389249,5.96153929 6.90442358,6.83474741 7.42711356,8.43487694" id="Fill-54" fill="#E84C28"></path>
                    <path d="M1.69550086,11.044361 C2.55327288,12.4378843 4.21585924,12.8822064 5.70603627,12.3234197 C5.84519862,12.270937 6.10452504,11.9384672 5.8145639,12.0472323 C4.4165285,12.5718221 2.8852677,12.0645682 2.09612694,10.7831347 C2.02298359,10.6639206 1.61998273,10.9215846 1.69550086,11.044361" id="Fill-56" fill="#6F3203"></path>
                    <path d="M7.52751943,8.26536485 C8.082269,9.80469991 7.39334413,11.3820315 6.02713083,12.1984823 C5.89960492,12.2747129 5.47784326,12.2702008 5.74358161,12.1110902 C7.02549007,11.3452224 7.58356434,9.83200993 7.07346071,8.41616364 C7.0262025,8.2846006 7.47883636,8.13023964 7.52751943,8.26536485" id="Fill-58" fill="#6F3203"></path>
                    <path d="M2.92231434,10.6241429 C3.41104491,11.6714227 4.53479275,12.2857794 5.66067789,12.2936161 C5.85469775,12.295041 6.11497409,11.9305117 5.82643782,11.9283744 C4.78295769,11.9214875 3.77177461,11.3242293 3.32341537,10.3626792 C3.23887306,10.1821956 2.83302245,10.4322604 2.92231434,10.6241429" id="Fill-60" fill="#6F3203"></path>
                    <path d="M6.08108592,8.84466969 C6.71254102,9.81263169 6.64082254,11.0916904 6.05306347,12.0520531 C5.95189767,12.2171006 5.50472582,12.246073 5.65552461,12.0000453 C6.20053756,11.1097388 6.22713515,9.93588299 5.64768782,9.04747625 C5.53868523,8.88005397 5.96543394,8.66774827 6.08108592,8.84466969" id="Fill-62" fill="#6F3203"></path>
                    <path d="M13.1560427,13.32337 C16.7469538,12.6301706 19.3387932,9.46909542 20.0343674,6.00903497 C20.0761636,5.80100389 20.5306973,5.94681563 20.4872388,6.16434585 C19.7733787,9.71298575 17.0772863,12.9400799 13.4018329,13.6494279 C13.202351,13.6883744 12.8720186,13.3779901 13.1560427,13.32337" id="Fill-64" fill="#6F3203"></path>
                    <path d="M17.3668912,4.25490069 C17.2521891,5.93363558 18.5203238,7.38842832 20.1995337,7.50336788 C21.8787435,7.61783247 23.3330613,6.34946028 23.4477634,4.67048791 C23.5624655,2.99127807 22.2945682,1.53696028 20.6153584,1.4222582 C18.9359111,1.30731865 17.4815933,2.57521589 17.3668912,4.25490069" id="Fill-66" fill="#E84C28"></path>
                    <path d="M23.5630117,5.38083333 C23.0728562,6.94201641 21.5696179,7.7803152 19.9880117,7.6031563 C19.8403001,7.58653282 19.5071179,7.32791883 19.8153649,7.36211572 C21.29913,7.52811313 22.6596438,6.66131693 23.1108528,5.22575993 C23.1524115,5.09229706 23.6064702,5.24357081 23.5630117,5.38083333" id="Fill-68" fill="#6F3203"></path>
                    <path d="M17.2280851,4.11504965 C17.0670747,5.74343912 18.1214788,7.10419041 19.6463277,7.56109888 C19.7883398,7.60337003 20.1963277,7.49579231 19.8994797,7.40673791 C18.4693847,6.97832686 17.5574676,5.64773532 17.7051792,4.15019646 C17.7187155,4.01103411 17.2418588,3.97208765 17.2280851,4.11504965" id="Fill-70" fill="#6F3203"></path>
                    <path d="M22.2707966,5.27392055 C22.0535039,6.40882988 21.1145142,7.28013817 20.0244883,7.56344991 C19.8371179,7.61237047 19.4953864,7.3226468 19.7744236,7.24997841 C20.7846567,6.98756477 21.6184434,6.16090242 21.8179253,5.11908463 C21.8554469,4.92292746 22.3104555,5.06612694 22.2707966,5.27392055" id="Fill-72" fill="#6F3203"></path>
                    <path d="M18.7722647,4.32260579 C18.3970488,5.41571891 18.7801015,6.63825777 19.5851533,7.42502375 C19.7238407,7.5608614 20.1641256,7.47916883 19.9577569,7.27731218 C19.2113623,6.5477785 18.8978908,5.41619387 19.2422345,4.4126101 C19.3068286,4.22405225 18.8411334,4.12241149 18.7722647,4.32260579" id="Fill-74" fill="#6F3203"></path>
                    <g id="Group-78" transform="translate(7.124352, 0.139400)">
                        <mask id="mask-2" fill="white">
                            <use xlink:href="#path-1"></use>
                        </mask>
                        <g id="Clip-77"></g>
                        <path d="M0.759052245,5.11203152 C1.84456606,6.39773964 3.76766623,6.56041235 5.05384931,5.4741861 C6.33955743,4.38819732 6.50199266,2.46533463 5.41600389,1.17962651 C4.33025259,-0.106556563 2.40762737,-0.268754318 1.12168178,0.817234456 C-0.164501295,1.90274827 -0.327174007,3.82561097 0.759052245,5.11203152" id="Fill-76" fill="#E84C28" mask="url(#mask-2)"></path>
                    </g>
                    <path d="M13.1174288,1.74907599 C13.851712,3.21170553 13.3549072,4.85933074 12.0957966,5.83275475 C11.9780073,5.9234715 11.5588579,5.96954231 11.8039357,5.78003454 C12.9853908,4.86669257 13.3594193,3.29743523 12.6847431,1.95235751 C12.6218113,1.82768135 13.0530721,1.62036269 13.1174288,1.74907599" id="Fill-79" fill="#6F3203"></path>
                    <path d="M7.68651123,5.24748921 C8.70386874,6.52916019 10.4077763,6.77281304 11.8210104,6.04042962 C11.9525734,5.97179836 12.1705786,5.6105937 11.8955786,5.7535557 C10.5699741,6.44034326 8.98931779,6.11927245 8.05341537,4.94042962 C7.96649827,4.83118955 7.59698187,5.13492444 7.68651123,5.24748921" id="Fill-81" fill="#6F3203"></path>
                    <path d="M12.1148661,2.5712025 C12.7484585,3.53773964 12.6800648,4.81679836 12.0942055,5.7788234 C11.9937522,5.94434585 11.5465803,5.97379318 11.6966667,5.72776554 C12.2395423,4.83603411 12.2637651,3.6624158 11.6817055,2.77519646 C11.572228,2.60824914 11.9987392,2.39451857 12.1148661,2.5712025" id="Fill-83" fill="#6F3203"></path>
                    <path d="M8.93999352,4.32215458 C9.43109888,5.3680095 10.5567465,5.97999136 11.6823942,5.98521589 C11.8764141,5.9861658 12.135978,5.62092401 11.8474417,5.61973661 C10.8037241,5.61498705 9.79135363,5.02010363 9.34038212,4.05997841 C9.25560233,3.87925734 8.85022668,4.1305095 8.93999352,4.32215458" id="Fill-85" fill="#6F3203"></path>
                </g>
            </g>
        </g>
    </g>
</svg>