<?xml version="1.0" encoding="UTF-8" standalone="no"?>
<svg width="31px" height="35px" viewBox="0 0 31 35" version="1.1" xmlns="http://www.w3.org/2000/svg" xmlns:xlink="http://www.w3.org/1999/xlink">
    <!-- Generator: Sketch 40.2 (33826) - http://www.bohemiancoding.com/sketch -->
    <title>illu03_hotpots_white</title>
    <desc>Created with Sketch.</desc>
    <defs>
        <polygon id="path-1" points="0 34.9613542 30.0438542 34.9613542 30.0438542 0 0 0"></polygon>
    </defs>
    <g id="紅磚屋_UI-KIT" stroke="none" stroke-width="1" fill="none" fill-rule="evenodd">
        <g id="UI-KIT" transform="translate(-1166.000000, -530.000000)">
            <g id="illu03_hotpots_white" transform="translate(1166.000000, 530.000000)">
                <mask id="mask-2" fill="white">
                    <use xlink:href="#path-1"></use>
                </mask>
                <g id="Clip-2"></g>
                <path d="M28.8506094,9.04177604 C24.111026,4.30219271 16.9682917,15.4307344 16.9682917,15.4307344 C16.9682917,15.4307344 22.5196198,0.335890625 15.0219635,-7.29166667e-05 C7.52430729,0.335890625 13.0754531,15.4307344 13.0754531,15.4307344 C13.0754531,15.4307344 5.93271875,4.30219271 1.19313542,9.04177604 C-3.54644792,13.7813594 7.36389063,20.0704219 7.36389063,20.0704219 C3.32084375,22.3971927 6.66188542,26.2683385 9.77360417,25.1576354 C12.0785,24.3347708 13.905974,22.1636771 14.6987604,21.0928958 C14.8283698,20.4018281 14.9364688,19.7047448 15.022875,19.003651 C14.4061823,19.2809167 13.7964167,19.5775052 13.1937604,19.8905 C13.016026,20.8684948 12.3738125,21.7826875 11.7398021,22.5118542 C11.6945938,22.5638073 11.4368333,22.5949792 11.4986302,22.5240677 C12.1001927,21.8320885 12.711599,20.9649271 12.9124844,20.037974 C11.3584479,20.8624792 9.85691146,21.796724 8.43120833,22.8060729 C8.35172917,22.862401 7.952875,22.8970365 8.12295313,22.7765417 C8.98482813,22.1665938 9.87277083,21.5909167 10.7805833,21.0476875 C10.7736563,21.0478698 10.7658177,21.048599 10.7607135,21.0473229 C9.82282292,20.8285729 8.78211979,20.8659427 7.88469792,21.2128438 C7.77933333,21.2534948 7.61508854,21.2071927 7.78972396,21.1395625 C8.78649479,20.7543802 9.926,20.6951354 10.9676146,20.9364896 C11.6295156,20.5451094 12.3010781,20.1699531 12.9830313,19.8157604 C12.9917813,19.8102917 13.0012604,19.8055521 13.0120156,19.8009948 C13.5485,19.5228177 14.0902708,19.2555781 14.6373281,19.001099 C14.7731354,18.9378438 14.9094896,18.8762292 15.0462083,18.8149792 C15.0471198,18.808599 15.0480313,18.8022188 15.0487604,18.7956563 C14.7106094,18.8669323 14.3412865,18.6478177 14.0244635,18.5038073 C13.5184219,18.2737552 13.0262344,18.0152656 12.5437083,17.7400052 C11.445401,17.9279479 10.2962344,18.0138073 9.19027083,17.8610469 C9.08071354,17.8459167 9.42032292,17.6924271 9.51511458,17.7055521 C10.4475365,17.83425 11.4187865,17.7750052 12.352849,17.631724 C12.1481354,17.5121406 11.9448802,17.3900052 11.7438125,17.2644063 C10.246651,16.32925 8.7994375,15.2996667 7.39797917,14.2124792 C6.25446354,14.3384427 5.08342188,14.3515677 3.94482813,14.19425 C3.84876042,14.1809427 4.18271875,14.0362031 4.27240625,14.0484167 C5.25331771,14.184224 6.26102604,14.1875052 7.25105208,14.0990938 C6.54175521,13.545474 4.96274479,12.296776 3.82050521,11.3650833 C3.07493229,11.6558385 2.24586979,11.7637552 1.45417708,11.7134427 C1.27516667,11.7019583 1.43139063,11.5293281 1.54969792,11.5368021 C2.25626042,11.5816458 2.99909896,11.4923229 3.66993229,11.2418542 C3.33542708,10.9678698 3.04448958,10.7257865 2.83886458,10.5475052 C2.76102604,10.4800573 3.11485417,10.2275833 3.20344792,10.3043281 C3.42110417,10.4928177 5.25550521,12.019875 5.47589583,12.2056302 C5.411,11.3424792 5.30417708,10.4629219 5.04605208,9.64096875 C5.01834375,9.55255729 5.28139063,9.47854688 5.31019271,9.57005729 C5.59948958,10.4920885 5.69883854,11.486125 5.76191146,12.4482604 C6.41779688,12.9936771 7.08534896,13.5259688 7.76073958,14.046776 C7.84878646,14.0387552 7.85042708,14.0589896 7.81378646,14.0870625 C8.10344792,14.3100052 8.39402083,14.5316719 8.68659896,14.7504219 C9.27357813,15.1895625 9.87751042,15.6460208 10.4980313,16.0915417 C10.2446458,15.1346927 9.93055729,14.1563333 9.42105208,13.3172448 C9.39644271,13.2765938 9.64326563,13.1774271 9.68519271,13.2463333 C10.251026,14.1783906 10.5753229,15.2818021 10.8438385,16.3369063 C12.170375,17.2682344 13.576026,18.1193542 15.0702708,18.6202917 C15.1561302,17.8563073 15.2173802,17.0884948 15.259125,16.3203177 C14.2399323,15.6208646 13.6394635,14.102375 13.2189167,13.0133646 C13.184099,12.9229479 13.4453229,12.8451094 13.4830573,12.9424531 C13.8680573,13.9394063 14.3952448,15.302401 15.2733438,16.0394063 C15.3663125,14.0939896 15.330401,12.1505781 15.2170156,10.2645885 C14.1761302,9.6355 13.2967552,8.66242708 12.5923802,7.69026563 C12.5090729,7.57523958 12.7593594,7.46914583 12.8333698,7.57141146 C13.4803229,8.46409375 14.2674583,9.35076042 15.1986042,9.97073438 C15.0848542,8.20833854 14.9062083,6.50063021 14.7040469,4.89318229 C14.3146719,4.72948438 13.9417031,4.38039583 13.6405573,4.13794792 C13.2830833,3.85029167 12.9318073,3.55406771 12.590375,3.24727083 C12.5161823,3.18055208 12.764099,3.07865104 12.835375,3.14263542 C13.1274063,3.40495313 13.426,3.66052604 13.7306094,3.90807813 C14.0007656,4.12755729 14.3276146,4.44620313 14.6730573,4.64818229 C14.6037865,4.10786979 14.5326927,3.57794792 14.4605052,3.06315625 C14.4408177,2.92315625 14.9732917,2.81159375 14.9886042,2.92151563 C15.0039167,3.03070833 15.4299323,5.89633333 15.4452448,6.00534375 C15.4961042,6.38214063 15.5431354,6.76185417 15.5876146,7.14339063 C16.1975625,6.25234896 16.7867292,5.27216667 17.0175104,4.24859896 C17.0344635,4.17385938 17.2969635,4.13083854 17.2796458,4.20758333 C17.0198802,5.3589375 16.3096719,6.45414583 15.6213385,7.43414583 C15.8271458,9.27310417 15.9540208,11.1620104 15.9676927,13.0616719 C16.4957917,12.2369844 16.8891771,11.3062031 17.0160521,10.3493542 C17.0289948,10.2516458 17.2962344,10.2058906 17.2811042,10.3200052 C17.1334479,11.4343542 16.6274063,12.5189896 15.9680573,13.4399271 C15.966599,15.1680521 15.8701667,16.9025573 15.6512344,18.6139115 C17.1385521,18.1122448 18.5378229,17.264224 19.8587083,16.3369063 C20.127224,15.2818021 20.4515208,14.1783906 21.0173542,13.2463333 C21.0592813,13.1774271 21.3061042,13.2765938 21.2814948,13.3172448 C20.7719896,14.1563333 20.457901,15.1346927 20.2045156,16.0915417 C20.8252188,15.6460208 21.4289688,15.1895625 22.0159479,14.7504219 C22.308526,14.5316719 22.599099,14.3100052 22.8887604,14.0870625 C22.8521198,14.0589896 22.8539427,14.0387552 22.9419896,14.046776 C23.6173802,13.5259688 24.28475,12.9936771 24.9406354,12.4482604 C25.0038906,11.486125 25.1030573,10.4920885 25.3923542,9.57005729 C25.4211563,9.47854688 25.6842031,9.55255729 25.6564948,9.64096875 C25.3985521,10.4629219 25.2915469,11.3424792 25.226651,12.2056302 C25.4470417,12.019875 27.281625,10.4928177 27.4992813,10.3043281 C27.5876927,10.2275833 27.9415208,10.4800573 27.8638646,10.5475052 C27.6580573,10.7257865 27.3671198,10.9678698 27.0326146,11.2418542 C27.7034479,11.4923229 28.4462865,11.5816458 29.1526667,11.5368021 C29.2713385,11.5293281 29.4275625,11.7019583 29.2485521,11.7134427 C28.4566771,11.7637552 27.6277969,11.6558385 26.8820417,11.3650833 C25.7399844,12.296776 24.1607917,13.545474 23.4514948,14.0990938 C24.4415208,14.1875052 25.4492292,14.184224 26.4301406,14.0484167 C26.5198281,14.0362031 26.8537865,14.1809427 26.7577188,14.19425 C25.619125,14.3515677 24.4480833,14.3384427 23.3045677,14.2124792 C21.9031094,15.2996667 20.4558958,16.32925 18.9587344,17.2644063 C18.7576667,17.3900052 18.5544115,17.5121406 18.3496979,17.631724 C19.2837604,17.7750052 20.2550104,17.83425 21.1874323,17.7055521 C21.282224,17.6924271 21.6218333,17.8459167 21.512276,17.8610469 C20.4063125,18.0138073 19.2573281,17.9279479 18.1588385,17.7400052 C17.6763125,18.0152656 17.184125,18.2737552 16.6782656,18.5038073 C16.3530573,18.6516458 15.9733438,18.8765938 15.6282656,18.788 C15.6275365,18.7925573 15.6268073,18.7969323 15.6264427,18.8014896 C15.7731875,18.86675 15.9195677,18.9332865 16.0652188,19.001099 C16.612276,19.2555781 17.1542292,19.5228177 17.6905313,19.8009948 C17.7012865,19.8055521 17.7107656,19.8102917 17.7195156,19.8157604 C18.4014688,20.1699531 19.0730313,20.5451094 19.7349323,20.9364896 C20.7765469,20.6951354 21.9162344,20.7543802 22.9128229,21.1395625 C23.0874583,21.2071927 22.9232135,21.2534948 22.817849,21.2128438 C21.9204271,20.8659427 20.879724,20.8285729 19.9418333,21.0473229 C19.9367292,21.048599 19.9290729,21.0478698 19.9219635,21.0476875 C20.829776,21.5909167 21.717901,22.1665938 22.5795938,22.7765417 C22.7496719,22.8970365 22.3508177,22.862401 22.2713385,22.8060729 C20.8456354,21.796724 19.344099,20.8624792 17.7900625,20.037974 C17.9909479,20.9649271 18.6023542,21.8320885 19.204099,22.5240677 C19.2657135,22.5949792 19.0079531,22.5638073 18.9627448,22.5118542 C18.3287344,21.7826875 17.6865208,20.8684948 17.5087865,19.8905 C16.8811563,19.5645625 16.2458698,19.2559427 15.6029271,18.9691979 C15.5095938,19.6444063 15.3958438,20.3150573 15.2625885,20.9804219 C15.2669635,20.9866198 15.2724323,20.9939115 15.2769896,20.9999271 C14.7040469,23.934276 13.761599,26.7707344 12.2675365,29.2890938 C11.0523802,31.3378698 9.38550521,33.7204219 7.21459375,34.873599 C6.98235417,34.9970104 7.51792708,34.9696667 7.61836979,34.9162552 C9.76376042,33.7765677 11.438474,31.5021146 12.6476146,29.477401 C14.0982917,27.0481823 15.0837604,24.367401 15.7217813,21.5801615 C16.6401667,22.7247708 18.274776,24.4452396 20.2703229,25.1576354 C23.3818594,26.2683385 26.7230833,22.3971927 22.6798542,20.0704219 C22.6798542,20.0704219 33.590375,13.7813594 28.8506094,9.04177604" id="Fill-1" fill="#FFFFFF" mask="url(#mask-2)"></path>
            </g>
        </g>
    </g>
</svg>