<?xml version="1.0" encoding="UTF-8" standalone="no"?>
<svg width="37px" height="40px" viewBox="0 0 37 40" version="1.1" xmlns="http://www.w3.org/2000/svg" xmlns:xlink="http://www.w3.org/1999/xlink">
    <!-- Generator: Sketch 40.2 (33826) - http://www.bohemiancoding.com/sketch -->
    <title>logo_footer_03</title>
    <desc>Created with Sketch.</desc>
    <defs>
        <polygon id="path-1" points="1.09932597 3.09392265 0 3.09392265 0 0.124198895 2.19865193 0.124198895 2.19865193 3.09392265 1.09932597 3.09392265"></polygon>
        <polygon id="path-3" points="0 39.8426519 36.1889503 39.8426519 36.1889503 0 0 0"></polygon>
    </defs>
    <g id="紅磚屋_UI-KIT" stroke="none" stroke-width="1" fill="none" fill-rule="evenodd">
        <g id="UI-KIT" transform="translate(-242.000000, -757.000000)">
            <g id="logo_footer_03" transform="translate(242.000000, 757.000000)">
                <path d="M3.25513812,17.3437348 C5.70685083,16.974895 8.07679558,16.2018564 10.2907182,15.056221 C9.91480663,14.6285967 9.54618785,14.1653923 9.18662983,13.6641768 C9.1601105,13.6646188 9.13425414,13.6677127 9.10707182,13.6677127 C7.77314917,13.6663867 6.69403315,12.5848398 6.69403315,11.2518011 C6.69558011,9.91765746 7.77734807,8.83787845 9.11060773,8.83787845 C10.4449724,8.83964641 11.5249724,9.92119337 11.5238674,11.255116 C11.5238674,11.4060552 11.5075138,11.5530166 11.4812155,11.696 C11.7196685,12.1152265 12.1441989,12.7934586 12.7868508,13.5587624 C13.9923757,12.7306961 15.1353591,11.7824088 16.2014365,10.7185414 C16.4743646,10.4456133 16.740663,10.1653923 17.0012155,9.87964641 C16.4116022,9.27809945 15.8337017,8.5958895 15.2805525,7.82152486 C15.2529282,7.82262983 15.2277348,7.82550276 15.1998895,7.82550276 C13.8668508,7.82439779 12.7868508,6.74285083 12.7872928,5.40937017 C12.7890608,4.07544751 13.8706077,2.99522652 15.2045304,2.99655249 C16.5377901,2.99743646 17.6177901,4.07942541 17.6164641,5.41312707 C17.6164641,5.5638453 17.6005525,5.71014365 17.5744751,5.85312707 C17.8045304,6.25931492 18.2100552,6.90638674 18.8171271,7.64053039 C20.4779006,5.33798895 21.7616575,2.74970166 22.620884,8.83977901e-05 L2.44276243,8.83977901e-05 C3.24828729,4.4321326 3.57093923,10.5397569 3.25513812,17.3437348 L3.25513812,17.3437348 Z" id="Fill-1" fill="#E85297"></path>
                <path d="M33.7905856,19.8277569 C33.2610829,12.0323978 33.5589834,4.96565746 34.4599779,0.000132596685 L26.0131271,0.000132596685 C25.0206409,3.58643094 23.3888177,6.95527072 21.1998674,9.89692818 C22.974232,11.2043315 25.4281547,12.3243315 28.7017459,12.4666519 L27.1545635,14.3163757 C27.1545635,14.3163757 23.4515801,14.5683094 19.5123536,11.9596906 C19.1843978,12.3227845 18.8480442,12.6777017 18.5015249,13.023337 C17.4701436,14.0536133 16.3733481,14.9870939 15.2241768,15.823779 C16.9883757,17.0947182 19.4064972,18.1700773 22.6080442,18.3093039 L21.0610829,20.1579227 C21.0610829,20.1579227 16.976442,20.4350497 12.8219669,17.385326 C9.80207735,19.1241105 6.49334807,20.2346077 3.05356906,20.6558232 C2.64274033,26.064221 1.83765746,31.0357127 0.835005525,35.1223425 L0.835005525,35.1232265 L35.9583204,35.1232265 L35.9583204,35.1196906 C34.9547845,30.822453 34.177768,25.5490829 33.7905856,19.8277569" id="Fill-3" fill="#0C318F"></path>
                <polygon id="Fill-5" fill="#FEFEFE" points="10.8179448 34.3346298 9.6241326 34.3346298 9.6241326 30.7859006 5.92490608 30.7859006 5.92490608 34.3346298 4.72048619 34.3346298 4.72048619 26.6349613 5.92490608 26.6349613 5.92490608 29.7750718 9.6241326 29.7750718 9.6241326 26.6349613 10.8179448 26.6349613"></polygon>
                <path d="M15.7967956,31.5173702 C15.6820994,31.5600221 15.5101657,31.6139448 15.2807735,31.6786961 C15.0513812,31.7359337 14.7572376,31.7969282 14.3990055,31.8614586 C14.0403315,31.9186961 13.7822099,31.9905193 13.6246409,32.0762652 C13.3375691,32.2269834 13.1945856,32.4565967 13.1945856,32.764884 C13.1945856,32.9796906 13.2661878,33.1662099 13.4093923,33.323779 C13.6029834,33.5390276 13.8935912,33.6466519 14.2805525,33.6466519 C14.5601105,33.6466519 14.818453,33.5856575 15.0546961,33.4636685 C15.2843094,33.3489724 15.4635359,33.1770387 15.5925967,32.9474254 C15.6856354,32.8112928 15.7430939,32.642895 15.7647514,32.442011 C15.7861878,32.2411271 15.7967956,31.9330608 15.7967956,31.5173702 M17.2162431,34.324 L16.0871823,34.324 C16.0297238,34.1951602 15.9868508,34.0729503 15.9581215,33.9584751 C15.9296133,33.8508508 15.9044199,33.7323978 15.8829834,33.603337 C15.6319337,33.8400221 15.3990055,34.0192486 15.1839779,34.1412376 C14.8038674,34.3489724 14.3881768,34.4528398 13.9366851,34.4528398 C13.3483978,34.4528398 12.8825414,34.3060994 12.538453,34.0121768 C12.2014365,33.725326 12.0330387,33.3379227 12.0330387,32.8506298 C12.0330387,32.3701878 12.1979006,31.9905193 12.5276243,31.7107403 C12.8573481,31.4384751 13.4023204,31.2413481 14.1623204,31.1193591 C14.4776796,31.0691934 14.739337,31.0225635 14.9472928,30.9794696 C15.298674,30.9078674 15.581768,30.8325083 15.7967956,30.7538343 L15.7967956,30.3989171 C15.7967956,30.3056575 15.7934807,30.2375912 15.7861878,30.1944972 C15.7501657,29.922232 15.581768,29.724884 15.2807735,29.603116 C15.0871823,29.524221 14.8754696,29.484884 14.6460773,29.484884 C14.1872928,29.484884 13.8538122,29.5670939 13.6460773,29.7319558 C13.4882873,29.8612376 13.3627624,30.0798011 13.2697238,30.3880884 L12.2049724,30.1944972 C12.3698343,29.7215691 12.5959116,29.3701878 12.8825414,29.1407956 C13.3055249,28.7962652 13.9114917,28.6245525 14.7,28.6245525 C15.1156906,28.6245525 15.4741436,28.6674254 15.7753591,28.7533923 C16.0692818,28.8322873 16.3130387,28.9721768 16.5066298,29.1728398 C16.6644199,29.3089724 16.7753591,29.4884199 16.8398895,29.7105193 C16.8973481,29.9328398 16.9260773,30.2733923 16.9260773,30.7321768 L16.9152486,32.7540552 C16.9152486,33.162674 16.9512707,33.5102983 17.0228729,33.7971492 C17.0659669,33.9834475 17.1302762,34.1589171 17.2162431,34.324" id="Fill-7" fill="#FEFEFE"></path>
                <polygon id="Fill-9" fill="#FEFEFE" points="23.1953591 34.3346298 21.8941436 34.3346298 20.2057459 31.5817017 19.4530387 32.3235801 19.4530387 34.3346298 18.3237569 34.3346298 18.3237569 26.6349613 19.4530387 26.6349613 19.4530387 30.9903204 21.5714917 28.7859006 22.9803315 28.7859006 20.9695028 30.7859006"></polygon>
                <polygon id="Fill-11" fill="#FEFEFE" points="28.9056133 34.3346298 27.6043978 34.3346298 25.916 31.5817017 25.1632928 32.3235801 25.1632928 34.3346298 24.034011 34.3346298 24.034011 26.6349613 25.1632928 26.6349613 25.1632928 30.9903204 27.2817459 28.7859006 28.6905856 28.7859006 26.6795359 30.7859006"></polygon>
                <path d="M33.1532818,31.5173702 C33.0383646,31.5600221 32.8666519,31.6139448 32.6372597,31.6786961 C32.4078674,31.7359337 32.1137238,31.7969282 31.7554917,31.8614586 C31.3970387,31.9186961 31.1386961,31.9905193 30.9811271,32.0762652 C30.6942762,32.2269834 30.5510718,32.4565967 30.5510718,32.764884 C30.5510718,32.9796906 30.622674,33.1662099 30.7658785,33.323779 C30.9594696,33.5390276 31.2500773,33.6466519 31.6370387,33.6466519 C31.9165967,33.6466519 32.1747182,33.5856575 32.4114033,33.4636685 C32.6407956,33.3489724 32.8200221,33.1770387 32.9488619,32.9474254 C33.0421215,32.8112928 33.0998011,32.642895 33.1210166,32.442011 C33.142674,32.2411271 33.1532818,31.9330608 33.1532818,31.5173702 M34.5729503,34.324 L33.4436685,34.324 C33.3864309,34.1951602 33.343337,34.0729503 33.3146077,33.9584751 C33.2860994,33.8508508 33.2609061,33.7323978 33.2394696,33.603337 C32.9886409,33.8400221 32.7554917,34.0192486 32.5404641,34.1412376 C32.1603536,34.3489724 31.744442,34.4528398 31.2929503,34.4528398 C30.705105,34.4528398 30.2388066,34.3060994 29.8949392,34.0121768 C29.5579227,33.725326 29.3895249,33.3379227 29.3895249,32.8506298 C29.3895249,32.3701878 29.5546077,31.9905193 29.8841105,31.7107403 C30.2138343,31.4384751 30.7588066,31.2413481 31.5188066,31.1193591 C31.8341657,31.0691934 32.0958232,31.0225635 32.303779,30.9794696 C32.6551602,30.9078674 32.9382541,30.8325083 33.1532818,30.7538343 L33.1532818,30.3989171 C33.1532818,30.3056575 33.1497459,30.2375912 33.142674,30.1944972 C33.1066519,29.922232 32.9382541,29.724884 32.6372597,29.603116 C32.4434475,29.524221 32.2321768,29.484884 32.0025635,29.484884 C31.544,29.484884 31.2105193,29.5670939 31.0025635,29.7319558 C30.8449945,29.8612376 30.7192486,30.0798011 30.625989,30.3880884 L29.5614586,30.1944972 C29.7263204,29.7215691 29.9523978,29.3701878 30.2388066,29.1407956 C30.662011,28.7962652 31.2679779,28.6245525 32.0564862,28.6245525 C32.4723978,28.6245525 32.8306298,28.6674254 33.1316243,28.7533923 C33.425768,28.8322873 33.6695249,28.9721768 33.863116,29.1728398 C34.0209061,29.3089724 34.1320663,29.4884199 34.1965967,29.7105193 C34.2538343,29.9328398 34.2825635,30.2733923 34.2825635,30.7321768 L34.2717348,32.7540552 C34.2717348,33.162674 34.3077569,33.5102983 34.3793591,33.7971492 C34.422232,33.9834475 34.4867624,34.1589171 34.5729503,34.324" id="Fill-13" fill="#FEFEFE"></path>
                <g id="Group-17" transform="translate(0.000000, 36.748729)">
                    <mask id="mask-2" fill="white">
                        <use xlink:href="#path-1"></use>
                    </mask>
                    <g id="Clip-16"></g>
                    <polygon id="Fill-15" fill="#231815" mask="url(#mask-2)" points="0.90318232 3.09392265 1.29102762 3.09392265 1.29102762 0.450165746 2.19865193 0.450165746 2.19865193 0.124198895 -2.20994475e-05 0.124198895 -2.20994475e-05 0.450165746 0.90318232 0.450165746"></polygon>
                </g>
                <path d="M7.12587845,38.6090608 L7.41670718,37.7496133 C7.47394475,37.5692818 7.52256354,37.3885083 7.56654144,37.2123757 L7.57538122,37.2123757 C7.61935912,37.3840884 7.66333702,37.560442 7.72963536,37.7542541 L8.02024309,38.6090608 L7.12587845,38.6090608 Z M8.09958011,38.9085083 L8.41692818,39.8426519 L8.82665193,39.8426519 L7.81317127,36.8731492 L7.35062983,36.8731492 L6.34156906,39.8426519 L6.73825414,39.8426519 L7.04654144,38.9085083 L8.09958011,38.9085083 Z" id="Fill-18" fill="#231815"></path>
                <mask id="mask-4" fill="white">
                    <use xlink:href="#path-3"></use>
                </mask>
                <g id="Clip-21"></g>
                <polygon id="Fill-20" fill="#231815" mask="url(#mask-4)" points="13.6304972 39.8426519 14.1304972 39.8426519 14.1304972 36.8729282 13.6304972 36.8729282"></polygon>
                <path d="M19.9369945,39.8426519 L20.3599779,38.2961326 C20.4700331,37.9129282 20.5361105,37.6220994 20.5889282,37.3268508 L20.597768,37.3268508 C20.637547,37.6265193 20.6992044,37.9171271 20.7915801,38.2961326 L21.1661657,39.8426519 L21.5670497,39.8426519 L22.4085967,36.8729282 L22.0163315,36.8729282 L21.6245083,38.3712707 C21.5319116,38.7412155 21.4481547,39.0718232 21.3864972,39.3975691 L21.3778785,39.3975691 C21.3334586,39.0846409 21.2543425,38.7325967 21.1705856,38.3798895 L20.8092597,36.8729282 L20.4083757,36.8729282 L20.0119116,38.3712707 C19.9104751,38.7544751 19.8180994,39.1067403 19.7694807,39.401989 L19.7606409,39.401989 C19.7080442,39.1158011 19.6284862,38.7454144 19.5403094,38.3754696 L19.1878232,36.8729282 L18.7825193,36.8729282 L19.5361105,39.8426519 L19.9369945,39.8426519 Z" id="Fill-22" fill="#231815" mask="url(#mask-4)"></path>
                <path d="M27.454895,38.6090608 L27.7457238,37.7496133 C27.8029613,37.5692818 27.8515801,37.3885083 27.895558,37.2123757 L27.9041768,37.2123757 C27.9483757,37.3840884 27.9925746,37.560442 28.0586519,37.7542541 L28.3494807,38.6090608 L27.454895,38.6090608 Z M28.4285967,38.9085083 L28.7459448,39.8426519 L29.1556685,39.8426519 L28.1421878,36.8731492 L27.6796464,36.8731492 L26.6705856,39.8426519 L27.0672707,39.8426519 L27.375779,38.9085083 L28.4285967,38.9085083 Z" id="Fill-23" fill="#231815" mask="url(#mask-4)"></path>
                <path d="M34.3208398,39.8426519 L34.3208398,38.5737017 C34.3208398,38.080221 34.312,37.7233149 34.2899006,37.3489503 L34.3033812,37.3443094 C34.4532155,37.6660773 34.6512265,38.0053039 34.8585193,38.3359116 L35.8012818,39.8426519 L36.1889061,39.8426519 L36.1889061,36.8729282 L35.8275801,36.8729282 L35.8275801,38.1158011 C35.8275801,38.5779006 35.8364199,38.9392265 35.871558,39.3359116 L35.8629392,39.3403315 C35.7219448,39.0364641 35.550011,38.7235359 35.3296796,38.3754696 L34.3782983,36.8729282 L33.9595138,36.8729282 L33.9595138,39.8426519 L34.3208398,39.8426519 Z" id="Fill-24" fill="#231815" mask="url(#mask-4)"></path>
            </g>
        </g>
    </g>
</svg>