<?xml version="1.0" encoding="UTF-8" standalone="no"?>
<svg width="103px" height="136px" viewBox="0 0 103 136" version="1.1" xmlns="http://www.w3.org/2000/svg" xmlns:xlink="http://www.w3.org/1999/xlink">
    <!-- Generator: Sketch 40.2 (33826) - http://www.bohemiancoding.com/sketch -->
    <title>logo_rbvlogo_new</title>
    <desc>Created with Sketch.</desc>
    <defs></defs>
    <g id="紅磚屋_UI-KIT" stroke="none" stroke-width="1" fill="none" fill-rule="evenodd">
        <g id="UI-KIT" transform="translate(-64.000000, -246.000000)">
            <g id="logo_rbvlogo_new" transform="translate(64.000000, 245.000000)">
                <path d="M21.8027614,121.093244 C21.928457,120.212861 22.1793572,119.331007 23.1888498,118.828282 C24.8273113,119.204468 23.8192917,120.842617 24.0701919,121.849539 C23.8192917,122.352755 23.1888498,122.227196 22.8097991,122.352755 C22.1793572,122.227196 21.6760838,121.849539 21.8027614,121.093244 M43.232876,113.287021 C42.2233834,112.532197 40.837295,112.405167 39.7021068,112.278627 C38.0636452,112.028 37.0556256,112.908383 36.2994881,114.042335 C36.2994881,115.426915 35.7947418,116.939505 35.9204374,118.324085 C35.5423686,119.331007 35.6695372,120.33842 35.2899955,121.346814 C35.2899955,123.611776 34.9124177,126.256848 33.1482606,128.019084 C31.1302573,129.278105 29.3665912,130.790696 26.9705192,131.167372 C26.8453146,131.420452 26.5914685,131.923177 26.3405683,131.671079 L26.3405683,131.54601 C25.5844308,131.041813 24.0701919,132.050207 23.5669185,130.916255 C24.1973604,129.531675 24.7006338,128.145624 25.4577532,126.759573 C26.0881951,126.759573 25.9615176,126.004749 26.4657729,125.754122 C28.231403,124.870797 29.8698645,123.864855 31.3826305,122.352755 C32.3911411,121.597441 32.138768,120.33842 32.6435143,119.204468 C33.9039071,116.30975 33.2739562,112.278627 31.0035798,110.013665 C29.6174914,109.509468 28.3570986,108.754154 27.0962148,108.124888 C26.718146,107.495133 27.3485879,107.241563 27.4752655,106.738838 C28.9870495,105.606356 29.9965421,103.842648 30.2479333,102.079431 C30.1222377,101.199048 29.1127451,101.575234 28.6089807,100.945478 C27.3485879,101.324607 26.3405683,100.945478 25.2053801,101.199048 L23.5669185,102.961285 L23.3145454,102.834745 C24.324038,100.442753 25.7101264,98.4274365 27.2219104,96.4131014 C27.8523523,94.5238345 29.4917958,93.0141867 30.626984,91.3760373 C30.626984,90.9983801 30.7526796,90.4956546 30.3731379,90.2420848 C29.8698645,89.865899 29.2394226,89.865899 28.8618449,89.3617021 C26.2148727,89.3617021 24.8273113,92.1308612 22.4332033,92.5099898 C19.4071804,94.5238345 15.8764112,94.7764234 12.3480969,95.4056886 C15.1207647,98.0507603 19.7852491,96.4131014 22.8097991,95.0285218 C23.0631542,95.0285218 23.6935961,94.7764234 23.6935961,95.2791489 C23.1888498,97.6721222 21.6760838,99.6864573 20.6675732,101.828804 C18.7767385,104.723521 17.5163457,107.997858 15.625511,110.768489 C15.625511,112.278627 13.6089807,112.908383 13.3551346,114.294434 C12.5994881,114.797159 11.8433506,115.175797 11.3386043,115.931112 C10.833858,117.190132 9.06970087,117.568771 8.8178187,118.828282 C7.93598564,119.078909 7.93598564,119.960763 7.17886617,120.33842 C6.42174669,120.463488 6.54891527,121.471882 5.79179579,121.597441 C5.66610021,122.856952 3.2980151,123.599024 2.79326879,124.731996 L2.54187762,124.731996 C1.65808057,125.991016 0.90243409,126.99941 0.020601029,128.258431 C-0.106076549,130.022139 0.372646855,130.916255 0.875920178,132.679472 C1.25398892,133.056149 1.88443082,132.552933 2.26348155,132.426393 C4.91045373,129.782302 6.80128843,126.508946 9.32207402,123.611776 C9.70014276,123.361149 9.32207402,122.479295 9.95251592,122.731393 C12.9785388,119.078909 15.3731379,114.923699 18.5243653,111.019606 C19.7852491,109.383909 21.2980151,107.74576 23.0631542,106.486739 C24.5749382,106.612298 22.6841035,107.74576 23.0631542,108.501074 C23.1888498,109.509468 23.1888498,110.768489 24.1973604,111.272686 C25.9615176,111.398244 27.8523523,110.768489 29.1127451,112.657265 C29.6174914,113.664678 29.1127451,114.6716 29.4917958,115.805553 C29.3665912,116.435308 29.3665912,117.442231 28.7361493,117.568771 C27.4752655,116.685936 25.835822,115.426915 24.4492426,116.30975 C22.5584079,116.30975 21.2980151,117.819888 20.4152,119.204468 C19.7852491,120.842617 17.136804,121.723 18.2719922,123.738316 C18.3976878,124.870797 19.532385,125.124367 20.5418776,125.500552 C21.1723195,126.004749 22.3060347,125.500552 22.6841035,126.256848 C22.9364766,127.389329 21.8027614,127.893526 21.6760838,128.77538 C21.0456419,130.412058 19.2814848,131.671079 18.6510429,133.309228 C18.2719922,134.064542 18.3976878,135.198004 18.9024341,135.953319 C19.532385,136.708143 20.5418776,136.583074 21.4237107,136.203946 C23.43975,134.944925 25.7101264,135.198004 27.8523523,134.315169 C28.7361493,133.938984 29.743187,134.315169 30.5003064,133.685414 C33.2739562,133.309228 36.92993,132.552933 37.5603719,129.278105 C38.1903228,126.886603 37.3065257,124.115973 36.8032524,121.849539 C36.2994881,120.717058 36.2994881,119.458037 36.1728105,118.071986 C36.6760838,117.190132 36.5508793,115.931112 37.4336943,115.301356 C39.1973604,114.546042 40.4582442,116.812475 41.718637,117.819888 C42.4757565,118.324085 43.6094717,118.071986 44.1142181,117.064574 C44.3665912,115.805553 44.1142181,114.420973 43.232876,113.287021" id="屋" fill="#000000"></path>
                <g id="磚" transform="translate(33.191489, 47.234043)" fill="#000000">
                    <path d="M40.0573724,30.9346242 C40.3818612,33.1026734 40.1656896,35.4873884 40.1656896,37.7635385 C40.1656896,38.3054348 40.0573724,38.955432 39.5167121,39.2811265 L39.5167121,39.1725617 C37.6780968,38.7392302 35.9482617,38.1968699 34.2179636,37.4383079 C33.5689861,36.7878467 32.7038371,36.4626161 32.1631768,35.812155 C31.2975648,34.7283624 30.2162443,33.427904 30.973539,31.909852 C31.4058821,31.6936502 31.8382251,31.4765205 32.3788854,31.4765205 C33.7851576,32.1269817 34.0013292,33.9698003 35.4076014,34.4031318 C36.2722875,34.4031318 36.8129478,33.5360049 37.0295822,32.7774428 C37.3536081,31.3679557 36.056116,30.3927279 35.0826497,29.7422668 C34.6503067,29.6341659 33.893012,29.6341659 34.2179636,29.0922695 C34.6503067,28.6584741 35.2992842,28.6584741 35.62331,28.3332435 C36.7050935,28.0084769 37.5702425,27.5742176 38.5437088,27.2494509 C39.0843691,27.4665806 39.7333466,26.8161195 40.0573724,27.3580158 C39.9490552,27.7913472 40.0573724,28.4418084 40.2740068,28.8751399 C39.9490552,29.525601 40.3818612,30.2841631 40.0573724,30.9346242 M37.0295822,18.1448506 C37.6780968,18.2534154 38.3270743,17.6024903 38.7594174,18.1448506 C38.8677346,18.6867469 38.3270743,19.0115135 38.4353916,19.444845 C37.7864141,19.9872052 37.4619253,20.962897 36.5967763,21.0709979 L36.2722875,21.0709979 C36.3806047,20.203871 36.2722875,18.9029486 37.0295822,18.1448506 M37.6780968,12.2916281 C38.3270743,11.9663975 39.1926863,12.2916281 39.840738,11.9663975 C40.2740068,12.3997289 40.9220586,11.6411669 40.9220586,12.3997289 C40.4897155,13.917317 40.4897155,15.6515708 39.6250293,16.9520291 C39.4083949,17.1691588 38.9760518,17.060594 38.8677346,16.8439282 C38.2187571,16.7353634 38.0025856,15.434905 37.1374366,16.0853662 C36.8129478,15.9768014 36.5967763,15.9768014 36.3806047,15.7596717 C36.921265,14.5673142 35.62331,12.3997289 37.6780968,12.2916281 M52.7105821,23.4557128 C52.0620675,22.8052516 51.0881383,22.8052516 50.3308436,22.480485 C49.4661575,22.3719202 48.6005456,22.2633553 47.7358594,22.5885859 C47.3030534,22.6966868 46.8702475,23.0223813 46.3295872,23.1309462 C45.8972441,23.5642776 45.2482666,23.4557128 44.9237779,23.9976091 C44.1664832,23.9976091 43.4101142,24.5395054 42.7611367,24.7566351 C42.003842,24.6480703 41.571499,25.623762 40.8146671,25.5151971 C40.1656896,26.0570935 39.1926863,25.9485286 38.5437088,26.4904249 C38.0025856,26.4904249 37.4619253,26.7075546 37.0295822,27.0323212 C36.488922,26.9246843 36.2722875,27.4665806 35.7316272,27.4665806 C35.190967,27.7913472 34.8669411,27.6827824 34.3258179,27.8999121 C33.893012,27.8999121 33.893012,27.5742176 34.0013292,27.2494509 C34.6503067,26.5989898 34.8669411,25.623762 35.2992842,24.864736 C35.190967,24.1061739 35.9482617,23.6728425 36.056116,22.9138165 C37.4619253,22.2633553 38.9760518,21.9385887 40.0573724,20.7462312 C41.3553274,20.3124358 41.8959877,19.0115135 42.869454,18.2534154 C43.5184315,17.3858246 43.9507745,16.3020319 44.0590917,15.3263402 C44.599752,15.0015736 44.1664832,14.2425476 44.8154607,13.8092161 C45.1404123,13.0501901 45.1404123,12.3997289 45.2482666,11.5326021 C44.3831176,10.3402446 43.0851626,9.14788712 41.571499,9.14788712 C41.138693,9.47358165 40.5980327,9.14788712 40.0573724,9.47358165 C39.7333466,9.68978343 39.4083949,9.90691312 38.9760518,10.1240428 C38.0025856,10.1240428 37.2457538,11.6411669 36.3806047,10.6659391 C36.8129478,9.79834828 35.8399445,8.49788992 36.8129478,7.73886392 C37.3536081,7.73886392 37.7864141,7.08840276 38.2187571,6.76363614 C38.5437088,6.6550713 38.8677346,6.00461014 38.9760518,5.67984351 C38.6515631,5.02938236 38.1109028,4.81225267 37.4619253,4.48748605 C36.1639703,4.81225267 36.8434988,2.72261141 36.1945213,2.1807151 C35.9778869,1.20502337 35.0048835,0.988821584 34.1397345,0.663127054 C33.8152457,0.229795585 32.8116914,1.23564422 32.3788854,1.01851453 C31.8382251,1.45277391 30.6485873,0.802312751 30.4328787,1.66897569 C31.7299079,2.53656653 33.5689861,3.18656373 33.5689861,5.02938236 C33.2444973,5.35414898 32.8116914,5.67984351 32.3788854,5.78840836 C32.1631768,6.43794161 31.4058821,6.22173983 30.973539,6.43794161 C30.540733,6.54650645 30.1079271,7.41409729 29.675584,6.98030187 C29.3510952,7.19696761 29.0266065,7.30553245 28.810435,7.52219819 L28.7021177,7.52219819 C28.5938005,7.41409729 28.4859462,7.52219819 28.3780919,7.52219819 C28.3780919,7.73886392 28.5938005,7.73886392 28.7021177,7.73886392 C29.242778,8.0640945 29.7839012,8.28076023 30.4328787,8.49788992 C30.540733,8.8231205 30.7569046,9.36501681 30.3245615,9.47358165 C30.3245615,9.58168254 30.540733,9.47358165 30.6485873,9.58168254 C31.1892476,9.47358165 31.6225165,9.25645197 32.1631768,9.25645197 C32.8116914,9.25645197 33.5689861,8.49788992 34.0013292,9.36501681 C34.1096464,10.2316797 34.0013292,11.2078354 34.1096464,12.1830632 C33.893012,12.9416253 33.2444973,12.9416253 32.7038371,13.2668558 C32.0548596,13.5920864 31.1892476,13.8092161 30.6485873,14.3511124 C30.4328787,14.2425476 30.2162443,14.2425476 30.0000727,14.3511124 C29.242778,14.3511124 28.3780919,14.5673142 27.6207972,14.675879 C28.1614575,15.0015736 28.2697747,15.6515708 28.7021177,16.0853662 C29.4594125,16.1934671 29.675584,17.060594 30.6485873,16.8439282 C30.8652218,16.4101328 31.6225165,16.8439282 31.6225165,16.3020319 C32.5955198,15.9768014 32.9200086,14.8930087 33.893012,14.7844439 C34.4336722,15.2177754 34.2179636,16.1934671 34.2179636,16.9520291 C33.5689861,17.819156 32.1631768,17.4943894 31.7299079,18.578182 C32.3788854,18.578182 32.8116914,19.0115135 33.3523517,18.9029486 C34.7586239,19.2286432 33.893012,20.7462312 34.1096464,21.8300238 C34.0013292,22.2633553 33.5689861,22.0466896 33.3523517,22.2633553 C32.5955198,22.3719202 31.6225165,22.8052516 31.1892476,21.9385887 C31.1892476,21.2881275 30.540733,20.8543321 30.4328787,20.203871 C29.7839012,19.8791043 29.4594125,19.1200783 29.1349237,18.578182 L28.9187522,18.578182 C27.7291144,17.2772597 26.3228422,16.5186977 25.0253501,15.434905 C24.593007,14.7844439 23.6190778,14.8930087 23.4033692,14.1339827 C23.1867348,14.4596773 23.5116864,14.5673142 23.4033692,14.7844439 C23.7273951,15.1092105 23.4033692,15.7596717 23.9440295,15.7596717 C24.0523467,16.4101328 24.4846898,16.9520291 24.4846898,17.6024903 C24.9170328,18.0362857 24.3763726,18.578182 24.9170328,19.0115135 C24.8091785,19.5534098 25.3498388,19.8791043 25.2415216,20.4210006 C25.7821819,20.962897 25.7821819,21.8300238 26.4311594,22.2633553 C27.4041627,23.0223813 28.0531402,24.2147388 29.4594125,24.2147388 C30.0000727,24.5395054 30.3245615,23.9976091 30.7569046,23.9976091 C31.4058821,23.3471479 32.3788854,23.5642776 33.1361801,23.2385831 C33.6768404,23.3471479 33.3523517,23.8890443 33.5689861,24.2147388 C33.3523517,24.864736 33.1361801,25.5151971 32.7038371,26.1656583 C32.9200086,26.9246843 32.0548596,27.0323212 32.1631768,27.5742176 C31.5141993,28.3332435 30.973539,29.4175001 29.8922184,29.0922695 C29.5672668,29.0922695 29.3510952,29.6341659 29.0266065,29.4175001 C28.5938005,29.7422668 28.0531402,29.8508316 27.7291144,30.1760622 C26.756111,29.9593964 26.2149878,30.6098576 25.3498388,30.8260594 C24.7008613,30.6098576 24.160201,31.2603188 23.5116864,31.3679557 C22.6460745,31.6936502 21.4564367,31.909852 20.4834334,32.3441114 C19.5099671,32.5603132 17.8879862,33.1026734 17.0228372,32.2355465 C16.5900312,31.8022151 17.2390087,31.3679557 16.91452,31.1517539 C16.5900312,30.8260594 16.049371,31.0431891 15.7248822,31.2603188 C15.616565,32.2355465 16.049371,32.9941086 16.5900312,33.6445697 C16.8066657,35.0535929 18.2120121,35.2702587 19.077624,36.0292847 C20.4834334,36.7878467 21.6730711,35.4873884 22.7543917,34.8369272 C24.0523467,34.4031318 25.0253501,33.3193392 26.3228422,32.9941086 C26.756111,32.3441114 27.6207972,32.5603132 28.0531402,31.909852 C28.9187522,31.8022151 29.3510952,30.8260594 30.2162443,30.8260594 C30.540733,30.8260594 30.6485873,31.1517539 30.540733,31.3679557 C29.7839012,31.8022151 30.0000727,32.5603132 30.0000727,33.3193392 C30.4328787,33.5360049 29.8922184,33.7531346 29.8922184,33.9698003 C30.2162443,34.7283624 30.540733,35.5959532 31.0818562,36.2454865 C31.2975648,37.0045125 32.2705682,37.1130773 32.5955198,37.7635385 C33.5689861,38.6306653 34.3258179,39.2811265 35.2992842,40.0392246 C35.62331,40.580657 36.2722875,40.580657 36.5967763,41.1225533 C37.7864141,41.6649135 38.5437088,43.8260034 39.9490552,44.0417413 C40.9220586,43.8260034 42.8611219,44.1387073 42.9689762,43.0544507 C43.1856106,42.079223 43.9387393,41.5326871 43.8304221,40.5574593 C43.3976161,40.015563 44.0465936,39.1484361 43.7225677,38.6065398 C44.0465936,37.0894157 42.5407992,35.4632628 42.8652879,33.9452108 C42.5407992,32.9699831 42.5445023,30.7058957 42.2204765,29.6221031 C42.436648,29.1887716 42.3283308,27.4665806 42.2204765,27.0323212 C42.2204765,26.7075546 42.5445023,26.4904249 42.869454,26.2742231 C44.2748004,26.2742231 45.6810726,25.9485286 47.1951991,25.7318629 C48.2765197,25.8404277 49.1412058,24.9733008 50.3308436,25.5151971 C51.3043099,25.1899666 52.7105821,25.8404277 53.4664881,24.7566351 C53.6840483,24.1061739 53.0346079,23.7804794 52.7105821,23.4557128" id="Fill-1"></path>
                    <path d="M10.124373,21.7050815 C10.5257022,21.0615796 11.007112,20.3368861 11.5695283,19.6933842 L13.4960935,17.7619507 C14.5403825,16.8767297 15.9855379,16.1255909 16.9492833,15.0789144 C17.5913174,14.3542209 18.1537337,13.6304553 18.5550629,12.6645065 C18.9563921,12.4232513 19.1165534,10.6509535 19.5178826,10.3298985 C19.6794326,9.84646013 20.0002182,9.44374952 20.3210038,9.04150285 C20.8033395,8.63925619 20.883883,8.07648202 21.2852122,7.59397161 C21.8467027,7.11053329 22.6766718,6.89665127 23.3997123,6.65446816 C24.362532,6.3329492 24.2028336,5.12574526 24.1227529,4.40197963 C23.479793,3.67728611 22.597054,3.19338383 21.7939328,3.11358403 C20.9111938,3.67589425 19.2781035,4.21315104 18.3134322,4.29387874 C17.912103,4.3750704 17.6723239,3.97235978 17.3506125,4.21315104 C16.627572,4.3750704 15.6647523,4.3750704 14.9417117,4.53513395 C14.4603019,4.3750704 14.0589727,4.93738061 13.5766371,4.85758081 C12.5332738,5.41989103 11.4089041,5.984521 10.3650779,6.30603996 C9.24163402,7.11053329 7.71547223,6.94954183 6.67118319,7.75449911 C7.07251236,7.99621827 7.47384152,8.07648202 7.95617716,8.23700953 C8.1168014,8.55899244 8.59867414,8.23700953 8.75929838,8.55899244 C9.24163402,8.39892889 9.80312454,8.39892889 10.3650779,8.39892889 C10.5257022,8.23700953 10.6057829,8.31773723 10.7664071,8.39892889 C11.9708575,8.07648202 13.1753079,8.63925619 14.3797583,8.15674578 C16.0665443,8.47872869 16.4678735,6.70828663 17.6723239,6.0643208 C18.3944387,5.58181039 18.8494635,6.27913073 19.6525848,5.79662031 L19.8923639,6.03880343 C19.4109541,6.76256905 19.197097,6.46703142 18.6351436,7.27152475 C18.3134322,7.83429891 17.6723239,8.07648202 17.4306932,8.63925619 C16.7076526,9.44374952 16.1461621,10.4908899 15.4235845,11.2155834 C14.9417117,11.8581574 14.2987518,12.4223234 13.9784291,13.146553 C13.5766371,13.8703186 12.8545223,14.4344846 12.6133545,15.2394419 C11.9708575,15.7219523 11.9708575,16.5264457 11.3288234,17.0892198 C11.1681992,17.7336496 10.4460844,17.9749048 10.3650779,18.6184067 C10.3650779,18.6184067 10.3650779,18.5386069 10.2845344,18.5386069 C9.48141315,19.423364 9.08008398,20.5503042 8.27696275,21.4350612 C7.71547223,22.1597548 7.39422374,22.8844483 7.23406239,23.6894056 L7.39422374,23.7692054 C7.55484799,23.7692054 7.47384152,23.6082139 7.47384152,23.4472225 C7.55484799,23.286695 7.55484799,23.1247756 7.79555291,23.2059673 C7.87563359,23.1247756 8.03718362,23.0449758 7.95617716,22.8844483 C8.75929838,21.9987633 9.3212518,22.5907665 10.124373,21.7050815" id="Fill-3"></path>
                    <path d="M25.0327564,27.1488197 C23.5866753,25.6200968 21.7138058,23.662218 19.5451471,23.5810263 C18.1809982,23.2595073 16.4678272,24.0918378 15.1828332,24.1716376 C14.6204169,24.2519014 14.7810412,23.6891272 14.4607185,23.447408 C14.379712,22.562187 13.6575972,22.1599403 13.094718,21.5962383 C12.7739325,21.4352468 12.4531469,21.1132639 12.2115161,20.7917449 L11.9708112,21.0330002 C11.6504885,21.9177572 11.2486965,22.8034422 11.0871464,23.769391 C10.5256559,24.5743482 9.98314404,26.5480014 9.58135198,27.4336864 C10.3844732,27.6744776 10.1428425,28.7211541 10.7858024,29.1234007 C11.3472929,29.4458476 11.6690043,30.1696132 12.2300319,30.6530516 C12.793374,30.8933789 13.7376779,30.4489125 14.2991684,30.2879211 C15.8248673,29.0004534 15.1828332,26.9084924 15.1828332,25.2990418 C15.5031559,24.8963311 15.9854916,24.654148 16.4678272,24.654148 C17.9930632,24.1716376 19.3581378,24.654148 20.5625882,25.5393691 C20.8838367,26.3438624 21.686958,26.9882922 21.2046223,27.8735132 C20.8838367,27.8735132 20.6426689,27.5510663 20.2408769,27.5510663 C20.0811784,27.4712665 20.1607962,27.1488197 19.9196284,27.310739 C19.8395477,27.632258 20.0811784,27.9537769 20.0811784,28.3560236 C20.4825076,29.0004534 21.3652466,29.0004534 21.686958,29.6439553 C22.1683678,29.7251469 22.1683678,30.4489125 22.6497776,30.5296402 C23.854228,30.5296402 24.1500174,29.0807171 25.112837,28.6780065 C25.2734613,28.1156963 25.0327564,27.632258 25.0327564,27.1488197" id="Fill-5"></path>
                    <path d="M6.75351415,24.2519478 C6.75351415,24.4146162 6.51056664,24.4146162 6.59139341,24.6583845 C6.67222018,24.4966536 6.99646167,24.5777534 6.9156349,24.3330476 C6.9156349,24.2519478 6.83527534,24.2519478 6.75351415,24.2519478" id="Fill-7"></path>
                    <path d="M6.18968077,24.9765485 C6.18968077,25.4590589 5.62819025,25.7815058 5.86843228,26.2640162 C6.10960009,26.022761 6.26976144,25.7815058 6.35030501,25.4590589 C6.18968077,25.3787952 6.51139215,24.9765485 6.18968077,24.9765485" id="Fill-9"></path>
                    <path d="M5.3867447,26.3440016 C5.30666402,26.5861847 4.98541553,26.9081676 5.06549621,27.1489589 C5.22658335,27.3108782 5.3867447,27.0686951 5.46682537,26.9884313 C5.3867447,26.7462482 5.949161,26.3440016 5.3867447,26.3440016" id="Fill-11"></path>
                    <path d="M4.82530047,27.3908172 C4.50358908,27.7132641 4.26242127,28.2755743 4.10225992,28.7585486 C3.70093075,29.4029784 3.2195209,29.8854888 2.97789019,30.5299186 C2.81819174,31.3344119 1.00873878,31.012429 0.768033857,31.6559309 C0.606946718,32.1393692 0.526403148,32.5416159 0.687953182,33.0241263 C0.606946718,33.2653815 0.446322472,33.5066367 0.606946718,33.7488198 C0.366241796,34.2313302 -0.115168047,34.7138407 0.20561755,35.2775427 C0.446322472,35.4385342 2.12199904,35.1963511 2.28216039,34.9560238 C2.60340888,34.0703388 2.76449602,33.0241263 3.08528162,32.1393692 C3.7277786,31.2536842 4.04948999,30.2877355 4.69106118,29.4827782 C4.69106118,28.8392763 4.82530047,28.5980211 4.82530047,28.0343191 C4.66375043,27.7132641 5.14608607,27.6320724 4.82530047,27.3908172" id="Fill-13"></path>
                </g>
                <g id="紅" transform="translate(15.319149, 0.000000)" fill="#000000">
                    <path d="M42.6320622,19.9576621 C42.381162,18.9546634 41.3392635,18.6157529 40.7731424,18.1606024 L40.5467921,18.1606024 L39.8657774,17.8408199 C38.4153682,17.357713 37.0557938,17.6966236 35.8759247,18.0002207 C35.0382815,18.0963516 34.0189689,18.1964063 33.5181506,18.8394044 C32.9309165,18.2758614 32.2282979,18.8747178 31.7044026,19.0797317 C30.8913093,18.7153171 30.5289525,19.5535198 29.8911457,19.4382608 C29.6451555,19.6535745 29.0328805,19.3146639 28.9386088,19.7183157 C27.9453191,19.5339013 27.3104583,20.352976 26.3996563,20.2377169 C25.1800164,20.2524309 24.4548118,21.0513965 23.497856,21.5153754 C23.6844354,21.8699807 24.3644681,21.7301985 24.7675777,22.2348859 C25.1348445,22.6880745 25.7697054,23.0676936 26.3996563,23.672926 C26.7443372,23.5870948 27.0610311,24.3056244 27.5785434,23.9917275 C27.6733061,24.365461 28.4210966,24.5248618 29.1202782,24.6705295 C29.2597218,24.2261692 29.6677414,24.4650252 30.0266612,24.6705295 C31.0273159,24.1663327 31.8659411,23.5272582 33.1553028,23.6322175 C33.3615221,22.9485108 33.679198,23.8063322 34.0621768,23.4728167 L34.6066939,24.2320548 C34.6307529,24.5650798 34.3361538,24.8647532 34.289018,25.3503125 C34.3361538,25.6632284 33.6566121,25.8824658 33.9266612,26.5082977 C33.4749427,26.8609412 33.1572668,27.4200701 33.0649591,28.1057386 C31.7976923,29.0371295 31.6616858,30.5340253 30.7523568,31.820512 C30.3016203,32.4306491 29.5764157,33.110432 29.3014566,33.9780626 C28.3076759,34.727001 27.9227332,35.745204 27.1705237,36.8134344 C26.9024386,37.3220454 25.9734697,37.5613918 26.2184779,38.4510933 C25.7245336,39.1789417 25.2026023,40.1775261 25.6287889,41.2472279 C25.3390998,41.5150211 25.9503928,41.8539317 25.6739607,42.3257579 C25.7922913,42.4930061 26.19982,42.6931154 26.6264975,43.00456 C26.789509,42.8328976 27.084108,42.752952 27.1705237,43.1649416 L27.3517021,43.00456 C27.4464648,43.1914267 27.9001473,42.9123527 28.2134043,43.2443968 C28.602275,43.1718081 28.6705237,42.8525161 29.1654501,42.8848868 C29.6677414,42.2737688 30.4155319,42.6524069 31.1603764,42.725486 C31.3896727,42.5327337 31.3896727,42.1938232 31.5232242,42.0864116 C31.6616858,42.07415 31.3670867,42.2536597 31.6140589,42.5248863 L32.2940917,42.5248863 C32.4551391,42.6931154 32.7497381,42.4532785 33.1101309,42.6058128 C33.4749427,42.7926796 33.679198,42.0545314 34.289018,42.4052131 C34.6076759,42.8127886 35.5827987,42.5528427 36.2387725,42.8848868 C36.3305892,42.393442 36.6482651,42.4930061 36.9639771,42.4052131 C37.1687234,42.6322979 37.5084943,42.1540956 37.9155319,42.2060847 C39.6158592,42.6126793 38.801293,40.4767091 39.68509,39.9288609 C39.5942553,39.2588873 39.4803437,38.759595 39.2314075,38.4908208 C38.7561211,37.7418825 38.0535025,37.5613918 37.5084943,37.3725632 C37.0557938,36.8825898 36.5122586,37.1229171 36.1479378,37.0135436 C35.3333715,37.2622088 34.5399182,36.8629712 33.8805074,37.1729444 C33.3389362,36.8031346 32.6589034,37.0429714 32.3392635,36.8134344 C32.1148773,36.3244419 32.2965466,35.8849862 32.475761,35.7746318 C32.7723241,35.2660208 33.089509,34.706892 33.5181506,34.576919 C33.4975286,34.1276541 33.9055483,33.8887982 34.0170049,33.7377353 C34.5625041,32.9897779 34.9479378,32.3507035 35.6947463,31.9009481 C35.9451555,31.3530999 36.0359902,30.8336987 36.6463011,30.7022544 C36.987545,29.5962583 37.9842717,28.8576197 38.6417185,28.066011 C39.3217512,27.339634 39.5706874,26.401867 40.3651227,25.8294957 C40.8399182,25.2237728 41.180671,24.5449708 41.8616858,24.2320548 C41.9048936,23.1079116 42.9251882,22.4291096 43.0857447,21.5153754 C42.9703601,20.8713963 42.9026023,20.2524309 42.6320622,19.9576621 Z M17.214599,3.50931813 C15.9625532,2.92811843 15.3370213,1.32871571 13.929329,1.18304793 C13.929329,1.61956079 13.929329,2.34642826 14.0859574,2.92811843 C14.7114894,4.0910083 13.929329,5.39956594 13.929329,6.70812358 C13.4604255,8.3075263 12.5216367,10.0516159 11.5833388,11.2149962 C11.2700818,12.3773956 10.4879214,13.2499309 9.70576105,14.4128207 C9.08022913,15.285356 8.6113257,16.3030685 7.67253682,16.8847587 C7.35927987,17.7568035 6.57711948,18.483671 5.95158756,18.9196934 C4.70052373,20.3734283 2.97957447,21.1002958 1.2591162,21.972831 C0.320327332,23.426566 -0.461833061,25.1706555 0.320327332,26.9152356 C0.320327332,27.6425935 1.41525368,27.6425935 1.88464812,27.9334386 C2.35404255,27.351258 3.13620295,27.0609034 3.60510638,26.4797037 C3.91836334,25.6071684 5.16942717,26.0431908 5.32605565,25.0259687 C6.26484452,25.0259687 6.89037643,24.1534335 7.67253682,23.7169206 C8.45469722,23.8625884 9.08022913,23.426566 9.70576105,22.9900531 C10.6445499,23.426566 9.54962357,24.1534335 9.70576105,24.8803009 C9.39348609,25.1706555 10.019018,25.897523 9.23685761,26.0431908 C8.92360065,26.9152356 8.45469722,27.6425935 7.98579378,28.369461 C6.57711948,29.3871736 7.35927987,31.2769309 5.6393126,31.8581306 C5.32605565,33.0215109 4.2306383,33.6032011 3.60510638,34.6204232 C1.72851064,35.6381357 2.0407856,37.8187382 2.0407856,39.4181409 C2.35404255,40.1450084 2.82294599,39.5638087 3.29283142,39.7084955 C4.85715221,40.1450084 5.95158756,38.8369412 7.20363339,38.4004283 C8.29806874,38.4004283 7.67253682,39.4181409 8.14144026,39.8541633 C7.51590835,40.435363 7.67253682,41.1622305 7.35927987,41.7444111 C8.76795417,43.0524783 9.70576105,45.2330807 11.7399673,45.9599482 C14.0859574,44.5062132 15.0247463,42.0347657 16.7447136,39.9993406 C16.7447136,39.1272958 17.214599,38.2547606 17.3712275,37.5278931 C17.9967594,35.9294713 17.3712275,34.3300686 17.8401309,32.7306658 C17.214599,31.567776 18.1533879,30.2587279 17.8401309,28.9506607 L17.526874,28.9506607 C17.3712275,29.2415058 16.5890671,29.6775282 17.0579705,30.2587279 C16.2758101,30.6957312 16.1191817,31.567776 15.9625532,32.4393303 C14.8681178,32.8758432 14.3987234,34.9112683 12.8344026,34.4752459 C12.3654992,33.7483784 11.5833388,34.038733 11.1139444,33.3118655 C10.9578069,32.7306658 11.2700818,32.1489757 11.8965957,31.7124628 C12.6782651,30.114041 13.929329,28.9506607 15.0247463,27.351258 C15.3370213,25.6071684 17.214599,24.7346332 17.3712275,22.8453663 C17.214599,21.972831 16.5890671,21.1002958 15.6502782,20.8094507 C14.0859574,20.8094507 13.1471686,19.5008931 11.5833388,19.9374059 C10.4879214,19.7922286 11.2700818,18.9196934 11.4267103,18.483671 C12.2088707,18.1928259 12.0522422,17.1746229 12.9910311,16.8847587 C13.616563,16.1574008 14.5548609,15.4305333 15.1803928,14.7036658 C15.8069067,14.7036658 15.9625532,13.6859533 16.2758101,13.3955986 C16.4324386,12.2322183 18.1533879,12.3773956 18.1533879,11.2149962 C19.2478232,10.4881287 19.5610802,9.17908063 20.0299836,8.01619076 C19.7177087,7.14365551 19.4044517,6.27161072 18.9355483,5.25438863 C18.3090344,4.67269846 17.3712275,4.38185338 17.214599,3.50931813 Z" id="Combined-Shape"></path>
                </g>
                <g id="Red-Blick-Villa" transform="translate(2.553191, 52.340426)" stroke="#B62805" stroke-width="0.5" stroke-linecap="round">
                    <g id="Group-7" transform="translate(0.000000, 0.232108)">
                        <path d="M27.2568954,13.56376 L13.7551378,0.0620024922" id="Stroke-1"></path>
                        <path d="M0.294041065,13.558878 L13.755347,0.0620024922" id="Stroke-3"></path>
                        <polyline id="Stroke-5" stroke-linejoin="round" points="24.4402805 10.9004426 24.4402805 29.7166995 3.27085813 29.7166995 3.27085813 10.9004426"></polyline>
                    </g>
                    <path d="M17.1786657,10.864106 L21.6122973,10.864106" id="Stroke-8" stroke-linejoin="round"></path>
                    <path d="M10.7617914,5.88542442 L16.4075751,5.88542442" id="Stroke-9" stroke-linejoin="round"></path>
                    <path d="M9.10223088,7.54498494 L18.2931065,7.54498494" id="Stroke-10" stroke-linejoin="round"></path>
                    <path d="M7.44267036,9.20454545 L19.7783068,9.20454545" id="Stroke-11" stroke-linejoin="round"></path>
                    <path d="M5.78317959,10.864106 L10.453941,10.864106" id="Stroke-12" stroke-linejoin="round"></path>
                    <path d="M17.5070209,12.5236665 L22.8250074,12.5236665" id="Stroke-13" stroke-linejoin="round"></path>
                    <path d="M4.93069763,12.5236665 L10.0387545,12.5236665" id="Stroke-14" stroke-linejoin="round"></path>
                    <path d="M17.5070209,14.183227 L22.8250074,14.183227" id="Stroke-15" stroke-linejoin="round"></path>
                    <path d="M4.93069763,14.183227 L10.0387545,14.183227" id="Stroke-16" stroke-linejoin="round"></path>
                    <path d="M17.1786657,15.8427875 L22.8251469,15.8427875" id="Stroke-17" stroke-linejoin="round"></path>
                    <path d="M4.93069763,15.8427875 L10.5771788,15.8427875" id="Stroke-18" stroke-linejoin="round"></path>
                    <path d="M4.93069763,17.5023481 L22.8249377,17.5023481" id="Stroke-19" stroke-linejoin="round"></path>
                    <path d="M4.93069763,19.1619086 L22.8249377,19.1619086" id="Stroke-20" stroke-linejoin="round"></path>
                    <path d="M4.93069763,20.8213993 L22.8249377,20.8213993" id="Stroke-21" stroke-linejoin="round"></path>
                    <path d="M3.27113711,24.1405204 L24.4405594,24.1405204" id="Stroke-22" stroke-linejoin="round"></path>
                    <polyline id="Stroke-23" stroke-linejoin="round" points="22.8252167 24.1405204 22.8252167 12.0768859 13.6978082 2.94947738 4.68477998 11.9625056 4.68477998 24.1405204"></polyline>
                    <path d="M4.68491947,22.4809599 L22.8253562,22.4809599" id="Stroke-24" stroke-linejoin="round"></path>
                    <polygon id="Stroke-25" stroke-linejoin="round" points="10.453941 15.8366501 17.1786657 15.8366501 17.1786657 10.8638967 10.453941 10.8638967"></polygon>
                    <path d="M13.7550681,10.864106 L13.7550681,15.5683446" id="Stroke-26" stroke-linejoin="round"></path>
                    <polygon id="Stroke-27" stroke-linejoin="round" points="20.4112344 11.6938514 20.4112344 12.523806 20.4112344 11.6938514 20.4112344 10.8638967"></polygon>
                    <polygon id="Stroke-28" stroke-linejoin="round" points="20.4112344 15.0129724 20.4112344 15.842927 20.4112344 15.0129724 20.4112344 14.1830178"></polygon>
                    <polygon id="Stroke-29" stroke-linejoin="round" points="20.4112344 18.3320934 20.4112344 19.1620481 20.4112344 18.3320934 20.4112344 17.5021388"></polygon>
                    <polygon id="Stroke-30" stroke-linejoin="round" points="13.773062 8.37473032 13.773062 9.20468494 13.773062 8.37473032 13.773062 7.5447757"></polygon>
                    <polygon id="Stroke-31" stroke-linejoin="round" points="13.7550681 4.36416642 13.7550681 5.5400517 13.7550681 4.36416642 13.7550681 3.18828113"></polygon>
                    <polygon id="Stroke-32" stroke-linejoin="round" points="13.773062 18.3320934 13.773062 19.1620481 13.773062 18.3320934 13.773062 17.5021388"></polygon>
                    <polygon id="Stroke-33" stroke-linejoin="round" points="17.0921133 10.0342908 17.0921133 10.8642455 17.0921133 10.0342908 17.0921133 9.20433622"></polygon>
                    <polygon id="Stroke-34" stroke-linejoin="round" points="10.453941 10.0342908 10.453941 10.8642455 10.453941 10.0342908 10.453941 9.20433622"></polygon>
                    <polygon id="Stroke-35" stroke-linejoin="round" points="17.0921133 16.6725329 17.0921133 17.5024875 17.0921133 16.6725329 17.0921133 15.8425783"></polygon>
                    <polygon id="Stroke-36" stroke-linejoin="round" points="10.453941 16.6725329 10.453941 17.5024875 10.453941 16.6725329 10.453941 15.8425783"></polygon>
                    <polygon id="Stroke-37" stroke-linejoin="round" points="7.13481997 11.6938514 7.13481997 12.523806 7.13481997 11.6938514 7.13481997 10.8638967"></polygon>
                    <polygon id="Stroke-38" stroke-linejoin="round" points="7.13481997 15.0129724 7.13481997 15.842927 7.13481997 15.0129724 7.13481997 14.1830178"></polygon>
                    <polygon id="Stroke-39" stroke-linejoin="round" points="7.13481997 18.3320934 7.13481997 19.1620481 7.13481997 18.3320934 7.13481997 17.5021388"></polygon>
                    <polygon id="Stroke-40" stroke-linejoin="round" points="20.4112344 21.6512145 20.4112344 22.4811691 20.4112344 21.6512145 20.4112344 20.8212599"></polygon>
                    <polygon id="Stroke-41" stroke-linejoin="round" points="13.773062 21.6512145 13.773062 22.4811691 13.773062 21.6512145 13.773062 20.8212599"></polygon>
                    <polygon id="Stroke-42" stroke-linejoin="round" points="17.0921133 19.991654 17.0921133 20.8216086 17.0921133 19.991654 17.0921133 19.1616993"></polygon>
                    <polygon id="Stroke-43" stroke-linejoin="round" points="10.453941 19.991654 10.453941 20.8216086 10.453941 19.991654 10.453941 19.1616993"></polygon>
                    <polygon id="Stroke-44" stroke-linejoin="round" points="7.13481997 21.6512145 7.13481997 22.4811691 7.13481997 21.6512145 7.13481997 20.8212599"></polygon>
                    <polygon id="Stroke-45" stroke-linejoin="round" points="5.35913555 25.3042005 5.35913555 26.341295 5.57115757 26.860191 7.02462431 27.2751683 7.75414745 26.4968243 7.75414745 25.3795241 6.24070079 24.1408691"></polygon>
                    <polygon id="Stroke-46" stroke-linejoin="round" points="20.5303573 27.4045436 20.9544013 26.367449 20.7423793 25.848553 19.2889126 25.4335757 18.5593894 26.2119197 18.5593894 27.0411769 20.0728361 27.4045436"></polygon>
                    <g id="Group-99" transform="translate(2.789763, 23.945097)" stroke-linejoin="round">
                        <path d="M6.94295399,2.84576793 C6.94295399,2.84576793 6.8202044,3.32979188 6.94295399,3.74476919 C7.04129315,4.0760536 8.67190987,4.26296775 8.87904981,4.26296775 C9.08688718,4.26296775 9.3979458,3.32979188 9.3979458,3.32979188 L8.60216579,2.34430795 L6.94295399,2.84576793 L6.94295399,2.84576793 Z" id="Stroke-47"></path>
                        <path d="M20.6194205,2.88900926 C20.6194205,2.88900926 20.8963045,2.19784537 20.6194205,1.990008 C20.3425365,1.78286806 18.8904646,1.47180944 18.6833247,1.47180944 C18.4754873,1.47180944 18.1644287,2.40498531 18.1644287,2.40498531 L18.9595112,3.39046924 L20.6194205,2.88900926 L20.6194205,2.88900926 Z" id="Stroke-49"></path>
                        <polygon id="Stroke-51" points="9.39773657 3.38168148 10.6426685 2.34458693 12.5438923 2.67308157 12.8549509 3.41655353 11.1266925 4.17676406"></polygon>
                        <polyline id="Stroke-53" points="8.60251451 2.34444744 9.15558511 1.35896351 10.5044357 1.35896351 10.642529 2.34444744"></polyline>
                        <path d="M10.504087,1.359103 L11.3082363,0.195771649" id="Stroke-55"></path>
                        <polyline id="Stroke-57" points="12.543962 2.67287234 13.4338966 1.85198445 12.8550206 0.195562416"></polyline>
                        <polyline id="Stroke-59" points="4.23479114 3.32979188 4.3449868 4.60052913 5.9923421 4.83347437 6.8202044 3.69315857 6.8202044 2.88900926 4.96431428 2.55214533"></polyline>
                        <polyline id="Stroke-61" points="2.78139414 2.91488432 1.9988655 3.69253087 3.01015474 6.00384987 4.34505654 4.60059887"></polyline>
                        <path d="M5.99220261,4.83375335 L6.56270923,6.00405911" id="Stroke-63"></path>
                        <polyline id="Stroke-65" points="11.1264135 4.1768338 10.5042962 5.06746578 9.3974576 5.19649234 8.87925904 4.26331647 7.7877641 6.00412885"></polyline>
                        <polyline id="Stroke-67" points="2.56937212 1.359103 1.45416419 1.76292125 0.481234191 1.56066341"></polyline>
                        <polyline id="Stroke-69" points="1.45437342 1.76264228 1.45437342 2.81089589 1.99907473 3.69315857 0.481443424 4.2894705"></polyline>
                        <polyline id="Stroke-71" points="4.96417479 1.43414763 6.10658291 0.29173951 7.24899104 1.20329471 6.9428145 2.84576793"></polyline>
                        <polyline id="Stroke-73" points="7.24927001 1.20350394 8.60230527 0.291948743 9.15537587 1.35903325"></polyline>
                        <path d="M10.504087,5.06711706 L11.0662243,6.00378013" id="Stroke-75"></path>
                        <polyline id="Stroke-77" points="12.8551601 3.41620481 13.9787374 3.90022876 13.9787374 6.00371039"></polyline>
                        <path d="M13.9788071,3.9002985 L15.7698352,3.0961492" id="Stroke-79"></path>
                        <polyline id="Stroke-81" points="13.4342453 1.85177522 14.3025591 1.35938197 15.7699747 2.26675253"></polyline>
                        <polyline id="Stroke-83" points="17.2830029 3.45944614 17.7161137 4.7099576 17.2118639 6.00371039"></polyline>
                        <polyline id="Stroke-85" points="17.7162532 4.71002734 19.1822738 5.06711706 18.9597902 3.39046924"></polyline>
                        <path d="M14.3023499,1.359103 L14.1342667,0.291321046" id="Stroke-87"></path>
                        <path id="Stroke-89"></path>
                        <path d="M19.1822041,5.06711706 L20.0351743,6.00378013" id="Stroke-91"></path>
                        <path d="M20.6194205,2.88900926 L21.6502381,3.30398657" id="Stroke-93"></path>
                        <path d="M18.6832549,1.47146072 L19.0089598,0.195143952" id="Stroke-95"></path>
                        <path d="M20.6194205,1.99007774 L21.6502381,1.22080048" id="Stroke-97"></path>
                    </g>
                </g>
                <text id="Red-Brick-Villas" font-family="Orbitron-Medium, Orbitron" font-size="7" font-weight="400" fill="#B62805">
                    <tspan x="40.8510638" y="101.744681">Red Brick Villas</tspan>
                </text>
                <g id="紅色印章" transform="translate(81.255319, 81.148936)" stroke="#B62805" stroke-width="0.35">
                    <path d="M9.40327332,4.75934534 C9.40327332,7.32170213 7.32602291,9.39895254 4.76366612,9.39895254 C2.20196399,9.39895254 0.124713584,7.32170213 0.124713584,4.75934534 C0.124713584,2.19698854 2.20196399,0.119738134 4.76366612,0.119738134 C7.32602291,0.119738134 9.40327332,2.19698854 9.40327332,4.75934534 L9.40327332,4.75934534 Z" id="Stroke-1" stroke-linecap="round"></path>
                    <polyline id="Stroke-3" stroke-linecap="square" stroke-linejoin="bevel" points="3.64104746 5.89361702 3.64104746 8.08870704 7.99260229 8.08870704"></polyline>
                    <path d="M1.53525368,5.89361702 L3.64130933,5.89361702" id="Stroke-5" stroke-linecap="square" stroke-linejoin="bevel"></path>
                    <polyline id="Stroke-7" stroke-linecap="square" stroke-linejoin="bevel" points="1.4895581 3.70795417 3.6407856 3.70795417 0.565826514 6.78291326"></polyline>
                    <path d="M5.00831424,0.131194763 L0.13106383,5.00844517" id="Stroke-9" stroke-linecap="square" stroke-linejoin="bevel"></path>
                    <path d="M7.92818331,1.49846154 L3.77302782,1.49846154" id="Stroke-11" stroke-linecap="square" stroke-linejoin="bevel"></path>
                    <path d="M1.45538462,5.98494272 L1.45538462,7.97512275" id="Stroke-13" stroke-linecap="square" stroke-linejoin="bevel"></path>
                    <path d="M2.53630115,5.89361702 L2.53630115,8.08870704" id="Stroke-15" stroke-linecap="square" stroke-linejoin="bevel"></path>
                    <path d="M5.8891653,1.49846154 L5.8891653,8.0889689" id="Stroke-17" stroke-linecap="square" stroke-linejoin="bevel"></path>
                </g>
            </g>
        </g>
    </g>
</svg>