<?xml version="1.0" encoding="UTF-8" standalone="no"?>
<svg width="120px" height="129px" viewBox="0 0 120 129" version="1.1" xmlns="http://www.w3.org/2000/svg" xmlns:xlink="http://www.w3.org/1999/xlink">
    <!-- Generator: Sketch 40.2 (33826) - http://www.bohemiancoding.com/sketch -->
    <title>RBV_logo_white</title>
    <desc>Created with Sketch.</desc>
    <defs></defs>
    <g id="紅磚屋_UI-KIT" stroke="none" stroke-width="1" fill="none" fill-rule="evenodd">
        <g id="UI-KIT" transform="translate(-534.000000, -232.000000)" fill="#FFFFFF">
            <g id="RBV_logo_white" transform="translate(534.000000, 232.000000)">
                <path d="M4.0322069,123.827172 C4.45841379,123.800276 4.83496552,123.738207 5.1597931,123.645103 C5.48462069,123.549931 5.75772414,123.413379 5.97496552,123.233379 C6.19427586,123.055448 6.3597931,122.827862 6.47358621,122.550621 C6.58531034,122.275448 6.64324138,121.940276 6.64324138,121.547172 C6.64324138,121.222345 6.58117241,120.938897 6.46117241,120.694759 C6.33910345,120.45269 6.16944828,120.252 5.95634483,120.094759 C5.73910345,119.937517 5.48462069,119.819586 5.19496552,119.740966 C4.90117241,119.664414 4.58668966,119.625103 4.24944828,119.625103 C4.02806897,119.625103 3.86255172,119.643724 3.75082759,119.680966 C3.64117241,119.716138 3.58531034,119.817517 3.58531034,119.983034 L3.58531034,128.575448 C3.58531034,128.707862 3.51910345,128.784414 3.38668966,128.807172 C3.29358621,128.823724 3.19013793,128.838207 3.07634483,128.85269 C2.96255172,128.867172 2.85289655,128.877517 2.74531034,128.885793 C2.63565517,128.894069 2.53634483,128.900276 2.44531034,128.902345 C2.35427586,128.904414 2.286,128.906483 2.24462069,128.906483 C2.11013793,128.906483 2.04393103,128.836138 2.04393103,128.699586 L2.04393103,120.388552 C2.04393103,120.113379 1.98393103,119.929241 1.86186207,119.838207 C1.74186207,119.745103 1.58255172,119.699586 1.39013793,119.699586 C1.27841379,119.699586 1.15634483,119.707862 1.026,119.726483 L0.974275862,119.269241 C1.52668966,119.176138 2.0997931,119.097517 2.69565517,119.033379 C3.28944828,118.969241 3.89565517,118.938207 4.5122069,118.938207 C4.77703448,118.938207 5.05634483,118.950621 5.35013793,118.97131 C5.64186207,118.994069 5.93151724,119.035448 6.21289655,119.095448 C6.4922069,119.157517 6.76117241,119.240276 7.01565517,119.347862 C7.26806897,119.455448 7.49358621,119.598207 7.68393103,119.772 C7.8722069,119.945793 8.02531034,120.154759 8.13703448,120.400966 C8.25082759,120.647172 8.30668966,120.938897 8.30668966,121.276138 C8.30668966,121.634069 8.25496552,121.950621 8.14737931,122.223724 C8.0397931,122.496828 7.88875862,122.738897 7.69841379,122.947862 C7.51013793,123.158897 7.28668966,123.338897 7.0322069,123.487862 C6.77772414,123.636828 6.50462069,123.763034 6.21289655,123.868552 L6.21289655,123.918207 C6.34944828,123.945103 6.49841379,123.988552 6.6597931,124.046483 C6.82117241,124.104414 6.97634483,124.187172 7.12737931,124.294759 C7.27841379,124.402345 7.42117241,124.538897 7.54944828,124.704414 C7.6797931,124.869931 7.78324138,125.076828 7.86186207,125.318897 L8.4722069,127.216138 C8.55910345,127.476828 8.63358621,127.683724 8.70186207,127.838897 C8.77013793,127.992 8.84462069,128.109931 8.92117241,128.188552 C8.99772414,128.269241 9.08668966,128.320966 9.186,128.347862 C9.28531034,128.37269 9.41151724,128.385103 9.56048276,128.385103 L9.58531034,128.815448 C9.4797931,128.836138 9.36393103,128.858897 9.24186207,128.877517 C9.11565517,128.896138 8.99151724,128.91269 8.87151724,128.923034 C8.74944828,128.933379 8.64186207,128.943724 8.54462069,128.952 C8.44737931,128.960276 8.37496552,128.964414 8.32531034,128.964414 C8.14737931,128.964414 7.99013793,128.943724 7.85358621,128.902345 C7.71496552,128.860966 7.59082759,128.788552 7.47910345,128.687172 C7.36944828,128.583724 7.27013793,128.449241 7.18531034,128.279586 C7.09841379,128.112 7.0197931,127.900966 6.94944828,127.646483 L6.36186207,125.625103 C6.27910345,125.337517 6.1797931,125.107862 6.06186207,124.938207 C5.94806897,124.766483 5.80117241,124.636138 5.62737931,124.543034 C5.45358621,124.452 5.24462069,124.392 4.99841379,124.360966 C4.7522069,124.332 4.45634483,124.309241 4.10668966,124.298897 L4.0322069,123.827172 Z" id="Fill-1"></path>
                <path d="M14.7506897,124.912345 C14.7672414,124.835793 14.7796552,124.76131 14.7837931,124.688897 C14.79,124.616483 14.792069,124.542 14.792069,124.465448 C14.792069,124.310276 14.7693103,124.163379 14.7217241,124.026828 C14.6741379,123.888207 14.607931,123.768207 14.5189655,123.664759 C14.43,123.563379 14.3203448,123.48269 14.187931,123.424759 C14.0534483,123.366828 13.9065517,123.337862 13.7410345,123.337862 C13.4741379,123.337862 13.2465517,123.387517 13.0562069,123.48269 C12.8658621,123.579931 12.7086207,123.708207 12.5844828,123.869586 C12.4603448,124.028897 12.3672414,124.215103 12.3051724,124.428207 C12.2451724,124.64131 12.212069,124.86269 12.207931,125.094414 L14.7506897,124.912345 Z M16.59,128.094414 C16.3251724,128.22269 16.0458621,128.338552 15.752069,128.446138 C15.4603448,128.553724 15.1748276,128.646828 14.8955172,128.723379 C14.6182759,128.802 14.3575862,128.862 14.1155172,128.903379 C13.8755172,128.944759 13.6748276,128.963379 13.5155172,128.963379 C13.0686207,128.963379 12.6713793,128.880621 12.3258621,128.710966 C11.9803448,128.543379 11.6906897,128.319931 11.4568966,128.040621 C11.2231034,127.76131 11.0431034,127.440621 10.9210345,127.074414 C10.8010345,126.710276 10.7410345,126.331655 10.7410345,125.938552 C10.7410345,125.431655 10.8341379,124.968207 11.0203448,124.552345 C11.2086207,124.134414 11.4651724,123.778552 11.787931,123.48269 C12.1127586,123.186828 12.4872414,122.959241 12.9196552,122.795793 C13.35,122.632345 13.8051724,122.551655 14.2851724,122.551655 C14.6017241,122.551655 14.8789655,122.599241 15.1231034,122.696483 C15.3672414,122.791655 15.57,122.924069 15.7375862,123.093724 C15.9031034,123.263379 16.0293103,123.466138 16.1182759,123.702 C16.2051724,123.939931 16.2506897,124.200621 16.2506897,124.482 C16.2506897,124.724069 16.2031034,125.028207 16.107931,125.392345 L12.2141379,125.599241 C12.2368966,125.948897 12.3051724,126.265448 12.4231034,126.553034 C12.5389655,126.840621 12.7024138,127.088897 12.9155172,127.297862 C13.1286207,127.508897 13.3872414,127.672345 13.6934483,127.788207 C14.0017241,127.904069 14.3534483,127.962 14.7506897,127.962 C15.0155172,127.962 15.2989655,127.928897 15.5989655,127.866828 C15.9010345,127.80269 16.172069,127.724069 16.407931,127.630966 L16.59,128.094414 Z" id="Fill-3"></path>
                <path d="M23.1376552,124.225241 C23.1376552,124.043172 23.0921379,123.888 23.0011034,123.763862 C22.910069,123.639724 22.7942069,123.542483 22.6576552,123.465931 C22.5190345,123.391448 22.368,123.337655 22.2024828,123.304552 C22.0348966,123.271448 21.8755862,123.254897 21.7204138,123.254897 C21.3624828,123.254897 21.0542069,123.30869 20.7955862,123.416276 C20.5390345,123.523862 20.3321379,123.674897 20.1707586,123.869379 C20.0093793,124.061793 19.8935172,124.293517 19.8169655,124.560414 C19.7445517,124.829379 19.7073103,125.119034 19.7073103,125.435586 C19.7073103,125.698345 19.7383448,125.985931 19.8024828,126.292138 C19.8666207,126.598345 19.970069,126.883862 20.1128276,127.146621 C20.2555862,127.40731 20.4438621,127.624552 20.6776552,127.796276 C20.9093793,127.968 21.1948966,128.052828 21.530069,128.052828 C21.5797241,128.052828 21.6542069,128.046621 21.7535172,128.036276 C21.8528276,128.025931 21.9748966,128.005241 22.1135172,127.974207 C22.2542069,127.943172 22.4114483,127.901793 22.5852414,127.850069 C22.7590345,127.798345 22.9431724,127.730069 23.1376552,127.64731 L23.1376552,124.225241 Z M22.1445517,118.101103 C22.7507586,117.935586 23.2514483,117.817655 23.6424828,117.749379 C24.0355862,117.681103 24.2693793,117.645931 24.348,117.645931 C24.5238621,117.645931 24.6128276,117.745241 24.6128276,117.943862 L24.6128276,127.622483 C24.6128276,127.80869 24.6252414,127.982483 24.648,128.139724 C24.6748966,128.296966 24.7038621,128.448 24.7348966,128.590759 L24.7452414,128.640414 C24.7452414,128.723172 24.6893793,128.779034 24.5776552,128.805931 C24.5073103,128.824552 24.4266207,128.839034 24.3355862,128.851448 C24.2424828,128.865931 24.1493793,128.878345 24.0521379,128.886621 C23.9548966,128.892828 23.8617931,128.899034 23.7686897,128.903172 C23.6735172,128.905241 23.5886897,128.90731 23.510069,128.90731 C23.448,128.90731 23.4045517,128.88869 23.3735172,128.855586 C23.3445517,128.824552 23.3197241,128.772828 23.3031724,128.70869 L23.1790345,128.243172 C22.9204138,128.342483 22.6617931,128.437655 22.4073103,128.524552 C22.1528276,128.613517 21.9128276,128.690069 21.6873103,128.754207 C21.4597241,128.816276 21.2548966,128.868 21.0666207,128.90731 C20.8783448,128.944552 20.7169655,128.965241 20.5866207,128.965241 C20.2266207,128.965241 19.9038621,128.874207 19.6121379,128.690069 C19.3204138,128.508 19.0742069,128.276276 18.8693793,127.994897 C18.6666207,127.713517 18.5114483,127.401103 18.4017931,127.059724 C18.2942069,126.716276 18.2404138,126.383172 18.2404138,126.056276 C18.2404138,125.491448 18.3438621,124.994897 18.5466207,124.560414 C18.7514483,124.128 19.0307586,123.759724 19.3845517,123.461793 C19.7362759,123.163862 20.1521379,122.938345 20.625931,122.783172 C21.1017931,122.628 21.6107586,122.551448 22.1507586,122.551448 C22.4838621,122.551448 22.8128276,122.576276 23.1376552,122.625931 L23.1376552,119.236966 C23.1376552,118.943172 23.0921379,118.744552 22.9969655,118.634897 C22.9038621,118.529379 22.7486897,118.473517 22.5335172,118.473517 C22.428,118.473517 22.3162759,118.483862 22.1921379,118.498345 L22.1445517,118.101103 Z" id="Fill-5"></path>
                <path d="M39.0165517,128.094414 C39.0827586,128.110966 39.1655172,128.125448 39.2689655,128.139931 C39.3724138,128.154414 39.482069,128.166828 39.5958621,128.177172 C39.7117241,128.189586 39.8337931,128.195793 39.9558621,128.202 C40.082069,128.208207 40.197931,128.210276 40.3096552,128.210276 C40.7110345,128.210276 41.0482759,128.150276 41.3193103,128.032345 C41.5903448,127.914414 41.8075862,127.763379 41.9668966,127.579241 C42.1262069,127.399241 42.24,127.200621 42.3062069,126.987517 C42.3724138,126.774414 42.4055172,126.577862 42.4055172,126.395793 C42.4055172,125.948897 42.3351724,125.580621 42.1944828,125.288897 C42.0537931,124.999241 41.8551724,124.771655 41.5965517,124.602 C41.34,124.432345 41.0317241,124.316483 40.6696552,124.254414 C40.3075862,124.190276 39.9082759,124.159241 39.4717241,124.159241 L39.24,124.159241 L39.1282759,124.159241 C39.0910345,124.159241 39.0558621,124.16131 39.0165517,124.167517 L39.0165517,128.094414 Z M39.0165517,123.495103 C39.0703448,123.495103 39.1262069,123.497172 39.177931,123.499241 C39.2317241,123.503379 39.2813793,123.503379 39.3310345,123.503379 C39.7903448,123.503379 40.1896552,123.468207 40.5310345,123.395793 C40.8744828,123.323379 41.157931,123.211655 41.3834483,123.056483 C41.6048276,122.90131 41.7724138,122.70269 41.8841379,122.456483 C41.9937931,122.210276 42.0496552,121.910276 42.0496552,121.556483 C42.0496552,121.208897 41.9896552,120.910966 41.8758621,120.666828 C41.757931,120.420621 41.5965517,120.217862 41.3917241,120.060621 C41.1827586,119.903379 40.9344828,119.789586 40.6448276,119.717172 C40.3531034,119.646828 40.0344828,119.609586 39.6868966,119.609586 C39.4510345,119.609586 39.2793103,119.626138 39.1737931,119.659241 C39.0682759,119.692345 39.0165517,119.791655 39.0165517,119.957172 L39.0165517,123.495103 Z M36.4055172,119.270276 C36.8937931,119.191655 37.4213793,119.117172 37.9882759,119.044759 C38.5572414,118.974414 39.1986207,118.939241 39.9124138,118.939241 C40.1772414,118.939241 40.4524138,118.949586 40.7441379,118.972345 C41.0358621,118.993034 41.3193103,119.034414 41.6006897,119.090276 C41.8841379,119.150276 42.1510345,119.233034 42.4055172,119.340621 C42.66,119.448207 42.8834483,119.586828 43.08,119.758552 C43.2765517,119.930276 43.4317241,120.139241 43.5455172,120.383379 C43.6572414,120.629586 43.7151724,120.919241 43.7151724,121.250276 C43.7151724,121.494414 43.6737931,121.734414 43.5910345,121.974414 C43.5082759,122.216483 43.3841379,122.442 43.2206897,122.655103 C43.0572414,122.868207 42.8586207,123.058552 42.6165517,123.230276 C42.3765517,123.402 42.0972414,123.540621 41.7848276,123.644069 L41.7848276,123.677172 C41.877931,123.695793 42.002069,123.72269 42.1572414,123.764069 C42.3124138,123.805448 42.4758621,123.867517 42.6496552,123.948207 C42.8234483,124.026828 42.9993103,124.128207 43.1772414,124.250276 C43.3531034,124.370276 43.5124138,124.517172 43.6510345,124.688897 C43.7937931,124.860621 43.9075862,125.06131 43.9965517,125.288897 C44.0834483,125.518552 44.1289655,125.783379 44.1289655,126.08131 C44.1289655,126.197172 44.1144828,126.348207 44.0875862,126.532345 C44.0606897,126.718552 44.0006897,126.915103 43.9096552,127.124069 C43.8165517,127.335103 43.6882759,127.546138 43.5206897,127.759241 C43.3510345,127.972345 43.1255172,128.16269 42.8462069,128.334414 C42.5627586,128.506138 42.2151724,128.644759 41.8013793,128.752345 C41.3875862,128.862 40.8910345,128.913724 40.317931,128.913724 C40.0572414,128.913724 39.8275862,128.909586 39.6248276,128.897172 C39.4241379,128.886828 39.2255172,128.872345 39.0289655,128.855793 C38.8324138,128.839241 38.6296552,128.826828 38.4165517,128.814414 C38.2034483,128.804069 37.9551724,128.797862 37.6758621,128.797862 C37.5413793,128.797862 37.4751724,128.729586 37.4751724,128.590966 L37.4751724,120.387517 C37.4751724,120.112345 37.4151724,119.928207 37.2931034,119.837172 C37.1710345,119.746138 37.0137931,119.700621 36.8213793,119.700621 C36.7096552,119.700621 36.5875862,119.708897 36.4572414,119.725448 L36.4055172,119.270276 Z" id="Fill-8"></path>
                <path d="M45.6558621,123.056483 C45.9558621,122.973724 46.2310345,122.903379 46.4834483,122.845448 C46.737931,122.787517 46.9634483,122.739931 47.162069,122.700621 C47.3565517,122.66131 47.5158621,122.634414 47.64,122.617862 C47.7662069,122.60131 47.8468966,122.593034 47.8841379,122.593034 C48.062069,122.593034 48.1510345,122.692345 48.1510345,122.890966 L48.1510345,123.313034 C48.3393103,123.209586 48.5317241,123.108207 48.7303448,123.015103 C48.9289655,122.922 49.1234483,122.839241 49.3158621,122.770966 C49.5041379,122.70269 49.6862069,122.646828 49.86,122.609586 C50.0358621,122.570276 50.1889655,122.551655 50.3213793,122.551655 C50.4703448,122.551655 50.6027586,122.576483 50.7144828,122.630276 C50.8282759,122.682 50.9255172,122.752345 51.0041379,122.84131 C51.0848276,122.928207 51.1427586,123.029586 51.1841379,123.139241 C51.2234483,123.250966 51.24,123.36269 51.24,123.478552 C51.24,123.600621 51.2193103,123.718552 51.18,123.830276 C51.1365517,123.944069 51.0744828,124.045448 50.9875862,124.132345 C50.9027586,124.22131 50.7951724,124.293724 50.6689655,124.343379 C50.5406897,124.397172 50.3937931,124.424069 50.222069,124.424069 L50.0482759,124.424069 C50.0193103,124.424069 49.9903448,124.422 49.9572414,124.419931 C49.9241379,124.417862 49.8931034,124.411655 49.8662069,124.407517 L49.8662069,124.225448 C49.8662069,123.970966 49.8144828,123.793034 49.7131034,123.691655 C49.6096552,123.588207 49.4793103,123.536483 49.32,123.536483 C49.1544828,123.536483 48.9682759,123.571655 48.7593103,123.644069 C48.5524138,123.716483 48.3496552,123.807517 48.1510345,123.919241 L48.1510345,128.574414 C48.1510345,128.706828 48.0848276,128.783379 47.9503448,128.806138 C47.8572414,128.824759 47.757931,128.839241 47.6503448,128.851655 C47.5406897,128.866138 47.4372414,128.876483 47.34,128.884759 C47.2406897,128.893034 47.1475862,128.899241 47.0648276,128.903379 C46.982069,128.905448 46.917931,128.907517 46.8744828,128.907517 C46.74,128.907517 46.6758621,128.837172 46.6758621,128.698552 L46.6758621,124.184069 C46.6758621,123.890276 46.6282759,123.691655 46.5351724,123.582 C46.44,123.474414 46.2951724,123.420621 46.0965517,123.420621 C46.0344828,123.420621 45.9744828,123.42269 45.9165517,123.424759 C45.8606897,123.428897 45.7882759,123.437172 45.7055172,123.453724 L45.6558621,123.056483 Z" id="Fill-10"></path>
                <path d="M54.8975172,120.015724 C54.8975172,120.313655 54.8188966,120.528828 54.6616552,120.661241 C54.5044138,120.793655 54.2768276,120.861931 53.9788966,120.861931 C53.7306207,120.861931 53.5402759,120.785379 53.4057931,120.636414 C53.2733793,120.487448 53.2092414,120.280552 53.2092414,120.015724 C53.2092414,119.717793 53.289931,119.502621 53.4533793,119.372276 C53.6147586,119.244 53.8444138,119.179862 54.1444138,119.179862 C54.3926897,119.179862 54.5809655,119.252276 54.7071724,119.399172 C54.8354483,119.544 54.8975172,119.750897 54.8975172,120.015724 L54.8975172,120.015724 Z M52.3547586,123.057103 C52.6526897,122.974345 52.929931,122.901931 53.1823448,122.846069 C53.4368276,122.788138 53.6602759,122.738483 53.8588966,122.699172 C54.0554483,122.661931 54.2147586,122.635034 54.3388966,122.616414 C54.4630345,122.599862 54.5437241,122.593655 54.5830345,122.593655 C54.7609655,122.593655 54.849931,122.690897 54.849931,122.891586 L54.849931,128.575034 C54.849931,128.707448 54.7816552,128.784 54.6492414,128.806759 C54.5561379,128.82331 54.4547586,128.839862 54.3471724,128.852276 C54.2395862,128.866759 54.1361379,128.877103 54.0368276,128.885379 C53.9375172,128.893655 53.8444138,128.899862 53.7616552,128.901931 C53.6788966,128.904 53.6168276,128.906069 53.5713103,128.906069 C53.4388966,128.906069 53.3747586,128.837793 53.3747586,128.699172 L53.3747586,124.18469 C53.3747586,123.890897 53.3251034,123.690207 53.232,123.582621 C53.1368276,123.475034 52.992,123.421241 52.7933793,123.421241 C52.7313103,123.421241 52.6733793,123.421241 52.6133793,123.425379 C52.5575172,123.427448 52.4871724,123.437793 52.4044138,123.454345 L52.3547586,123.057103 Z" id="Fill-12"></path>
                <path d="M61.3226897,124.407103 C61.3226897,124.245724 61.3144138,124.100897 61.2978621,123.968483 C61.2813103,123.836069 61.239931,123.722276 61.1737241,123.625034 C61.1075172,123.527793 61.0123448,123.45331 60.8882069,123.399517 C60.764069,123.347793 60.5923448,123.322966 60.3771724,123.322966 C60.0688966,123.322966 59.8082069,123.37469 59.5951034,123.478138 C59.384069,123.583655 59.2102759,123.724345 59.0778621,123.902276 C58.9454483,124.078138 58.8482069,124.285034 58.7861379,124.522966 C58.7261379,124.760897 58.6971724,125.015379 58.6971724,125.284345 C58.6971724,125.660897 58.7468276,126.010552 58.8461379,126.33331 C58.9454483,126.656069 59.0944138,126.939517 59.2971724,127.183655 C59.4978621,127.425724 59.7523448,127.616069 60.0647586,127.75469 C60.3730345,127.89331 60.7392414,127.961586 61.1654483,127.961586 C61.2771724,127.961586 61.3992414,127.95331 61.539931,127.936759 C61.6764828,127.920207 61.8171724,127.899517 61.962,127.87469 C62.1047586,127.849862 62.2433793,127.818828 62.384069,127.783655 C62.5206207,127.748483 62.6488966,127.711241 62.7626897,127.671931 L62.9551034,128.135379 C62.6944138,128.251241 62.4213103,128.360897 62.1357931,128.462276 C61.8482069,128.565724 61.5688966,128.652621 61.2978621,128.727103 C61.0268276,128.801586 60.7744138,128.861586 60.5426897,128.902966 C60.3130345,128.944345 60.1206207,128.965034 59.9716552,128.965034 C59.5309655,128.965034 59.1378621,128.882276 58.7985517,128.716759 C58.4592414,128.551241 58.1757931,128.327793 57.942,128.048483 C57.7102759,127.771241 57.5323448,127.448483 57.4102759,127.084345 C57.2902759,126.718138 57.2302759,126.337448 57.2302759,125.940207 C57.2302759,125.427103 57.3254483,124.961586 57.519931,124.543655 C57.7123448,124.127793 57.9771724,123.769862 58.3144138,123.474 C58.6516552,123.180207 59.0468276,122.950552 59.499931,122.791241 C59.9530345,122.631931 60.4371724,122.551241 60.9564828,122.551241 C61.1675172,122.551241 61.3764828,122.569862 61.5833793,122.609172 C61.7923448,122.646414 61.9764828,122.71469 62.144069,122.807793 C62.3095862,122.900897 62.442,123.027103 62.5454483,123.180207 C62.6468276,123.335379 62.6985517,123.529862 62.6985517,123.761586 C62.6985517,124.05331 62.6013103,124.264345 62.4068276,124.39469 C62.2144138,124.525034 61.9723448,124.589172 61.6868276,124.589172 C61.5647586,124.589172 61.4447586,124.580897 61.3226897,124.564345 L61.3226897,124.407103 Z" id="Fill-14"></path>
                <path d="M64.0946897,118.10131 C64.7029655,117.935793 65.2015862,117.817862 65.5946897,117.749586 C65.9857241,117.679241 66.2215862,117.646138 66.3002069,117.646138 C66.474,117.646138 66.5629655,117.745448 66.5629655,117.944069 L66.5629655,125.450276 L68.8429655,122.998552 C68.8967586,122.94269 68.9526207,122.90131 69.0043448,122.874414 C69.0581379,122.845448 69.1222759,122.82269 69.1988276,122.799931 C69.3188276,122.766828 69.4533103,122.737862 69.596069,122.713034 C69.7408966,122.688207 69.8795172,122.667517 70.014,122.650966 C70.1505517,122.634414 70.2705517,122.622 70.3802069,122.613724 C70.4877931,122.605448 70.5622759,122.60131 70.6077931,122.60131 C70.7008966,122.60131 70.7484828,122.644759 70.7484828,122.733724 C70.7484828,122.760621 70.7257241,122.797862 70.6822759,122.84131 L67.916069,125.028207 L70.9388276,128.574414 C70.9657241,128.617862 70.9802069,128.655103 70.9802069,128.682 C70.9802069,128.748207 70.9429655,128.791655 70.8664138,128.806138 C70.7712414,128.824759 70.6595172,128.839241 70.5271034,128.851655 C70.3988276,128.866138 70.2705517,128.876483 70.1443448,128.884759 C70.016069,128.893034 69.9002069,128.899241 69.7946897,128.903379 C69.6912414,128.905448 69.6126207,128.907517 69.5650345,128.907517 C69.4905517,128.907517 69.4284828,128.890966 69.3767586,128.862 C69.3229655,128.830966 69.2650345,128.777172 69.1988276,128.698552 L66.5629655,125.607517 L66.5629655,128.574414 C66.5629655,128.706828 66.4967586,128.783379 66.3664138,128.806138 C66.2712414,128.824759 66.1698621,128.839241 66.0622759,128.851655 C65.9546897,128.866138 65.8512414,128.876483 65.751931,128.884759 C65.6526207,128.893034 65.5615862,128.899241 65.4788276,128.903379 C65.396069,128.905448 65.331931,128.907517 65.2884828,128.907517 C65.156069,128.907517 65.0898621,128.837172 65.0898621,128.698552 L65.0898621,119.237172 C65.0898621,118.943379 65.0422759,118.744759 64.9471034,118.635103 C64.854,118.527517 64.6988276,118.473724 64.4857241,118.473724 C64.3802069,118.473724 64.2664138,118.484069 64.1443448,118.498552 L64.0946897,118.10131 Z" id="Fill-17"></path>
                <path d="M89.492069,119.443862 C89.5313793,119.321793 89.6203448,119.239034 89.7651724,119.195586 C89.8437931,119.172828 89.9265517,119.156276 90.0134483,119.145931 C90.1024138,119.135586 90.1893103,119.125241 90.272069,119.116966 C90.3548276,119.10869 90.4293103,119.102483 90.4975862,119.100414 C90.57,119.096276 90.6217241,119.096276 90.6589655,119.096276 C90.7210345,119.096276 90.7603448,119.104552 90.7810345,119.125241 C90.7996552,119.143862 90.81,119.16869 90.81,119.195586 C90.81,119.218345 90.7955172,119.263862 90.7686207,119.336276 L86.8334483,128.741793 C86.787931,128.834897 86.7424138,128.884552 86.6906897,128.88869 C86.6637931,128.894897 86.6182759,128.901103 86.5541379,128.90731 C86.492069,128.911448 86.4258621,128.915586 86.3555172,128.919724 C86.2872414,128.921793 86.2210345,128.923862 86.1568966,128.925931 C86.0927586,128.930069 86.0513793,128.930069 86.0286207,128.930069 C85.9975862,128.930069 85.9644828,128.921793 85.9334483,128.90731 C85.9044828,128.88869 85.8775862,128.853517 85.8548276,128.797655 L82.59,120.38731 C82.4906897,120.12869 82.3748276,119.954897 82.2382759,119.865931 C82.1037931,119.779034 81.9465517,119.733517 81.7706897,119.733517 C81.7148276,119.733517 81.6589655,119.737655 81.6010345,119.741793 C81.5410345,119.748 81.4789655,119.756276 81.4148276,119.766621 L81.3631034,119.311448 C81.6072414,119.261793 81.8513793,119.218345 82.0934483,119.183172 C82.3355172,119.145931 82.5568966,119.116966 82.7596552,119.092138 C82.9624138,119.06731 83.132069,119.04869 83.2686207,119.034207 C83.4093103,119.019724 83.4962069,119.013517 83.5355172,119.013517 C83.6182759,119.013517 83.6803448,119.040414 83.7175862,119.092138 C83.7568966,119.143862 83.7941379,119.218345 83.8334483,119.311448 L86.79,127.024552 L86.8251724,127.024552 L89.492069,119.443862 Z" id="Fill-19"></path>
                <path d="M94.3675862,120.015724 C94.3675862,120.313655 94.2889655,120.528828 94.1317241,120.661241 C93.9724138,120.793655 93.7468966,120.861931 93.4489655,120.861931 C93.2006897,120.861931 93.0103448,120.785379 92.8758621,120.636414 C92.7434483,120.487448 92.6793103,120.280552 92.6793103,120.015724 C92.6793103,119.717793 92.76,119.502621 92.9234483,119.372276 C93.0848276,119.244 93.3144828,119.179862 93.6144828,119.179862 C93.8627586,119.179862 94.0510345,119.252276 94.1772414,119.399172 C94.3055172,119.544 94.3675862,119.750897 94.3675862,120.015724 L94.3675862,120.015724 Z M91.8227586,123.057103 C92.1227586,122.974345 92.4,122.901931 92.6524138,122.846069 C92.9068966,122.788138 93.1303448,122.738483 93.3289655,122.699172 C93.5255172,122.661931 93.6848276,122.635034 93.8068966,122.616414 C93.9331034,122.599862 94.0137931,122.593655 94.0531034,122.593655 C94.2310345,122.593655 94.32,122.690897 94.32,122.891586 L94.32,128.575034 C94.32,128.707448 94.2517241,128.784 94.1193103,128.806759 C94.0262069,128.82331 93.9248276,128.839862 93.8172414,128.852276 C93.7096552,128.866759 93.6062069,128.877103 93.5068966,128.885379 C93.4075862,128.893655 93.3144828,128.899862 93.2317241,128.901931 C93.1489655,128.904 93.0868966,128.906069 93.0413793,128.906069 C92.9089655,128.906069 92.8448276,128.837793 92.8448276,128.699172 L92.8448276,124.18469 C92.8448276,123.890897 92.7951724,123.690207 92.702069,123.582621 C92.6068966,123.475034 92.462069,123.421241 92.2634483,123.421241 C92.2013793,123.421241 92.1434483,123.421241 92.0834483,123.425379 C92.0275862,123.427448 91.9572414,123.437793 91.8744828,123.454345 L91.8227586,123.057103 Z" id="Fill-21"></path>
                <path d="M96.3678621,118.10131 C96.9761379,117.935793 97.4747586,117.817862 97.8678621,117.749586 C98.2588966,117.679241 98.4947586,117.646138 98.5713103,117.646138 C98.7471724,117.646138 98.8361379,117.745448 98.8361379,117.944069 L98.8361379,128.574414 C98.8361379,128.706828 98.769931,128.783379 98.6395862,128.806138 C98.5444138,128.824759 98.4430345,128.839241 98.3354483,128.851655 C98.2278621,128.866138 98.1244138,128.876483 98.0251034,128.884759 C97.9257931,128.893034 97.8347586,128.899241 97.752,128.903379 C97.6692414,128.905448 97.6051034,128.907517 97.5616552,128.907517 C97.4292414,128.907517 97.3609655,128.837172 97.3609655,128.698552 L97.3609655,119.237172 C97.3609655,118.943379 97.3154483,118.744759 97.2202759,118.635103 C97.1271724,118.527517 96.972,118.473724 96.7568276,118.473724 C96.6533793,118.473724 96.5395862,118.484069 96.4175172,118.498552 L96.3678621,118.10131 Z" id="Fill-23"></path>
                <path d="M100.885655,118.10131 C101.493931,117.935793 101.992552,117.817862 102.385655,117.749586 C102.77669,117.679241 103.012552,117.646138 103.089103,117.646138 C103.264966,117.646138 103.353931,117.745448 103.353931,117.944069 L103.353931,128.574414 C103.353931,128.706828 103.287724,128.783379 103.157379,128.806138 C103.062207,128.824759 102.960828,128.839241 102.853241,128.851655 C102.745655,128.866138 102.642207,128.876483 102.542897,128.884759 C102.443586,128.893034 102.352552,128.899241 102.269793,128.903379 C102.187034,128.905448 102.122897,128.907517 102.079448,128.907517 C101.947034,128.907517 101.878759,128.837172 101.878759,128.698552 L101.878759,119.237172 C101.878759,118.943379 101.833241,118.744759 101.738069,118.635103 C101.644966,118.527517 101.489793,118.473724 101.274621,118.473724 C101.171172,118.473724 101.057379,118.484069 100.93531,118.498552 L100.885655,118.10131 Z" id="Fill-25"></path>
                <path d="M109.557517,125.856828 C109.296828,125.873379 109.054759,125.889931 108.827172,125.902345 C108.601655,125.916828 108.394759,125.937517 108.206483,125.964414 C108.018207,125.99131 107.85269,126.034759 107.707862,126.09269 C107.565103,126.150621 107.449241,126.233379 107.360276,126.336828 C107.294069,126.415448 107.240276,126.510621 107.194759,126.628552 C107.15131,126.744414 107.128552,126.870621 107.128552,127.009241 C107.128552,127.125103 107.147172,127.243034 107.184414,127.365103 C107.217517,127.487172 107.281655,127.598897 107.37269,127.700276 C107.463724,127.801655 107.587862,127.886483 107.740966,127.95269 C107.896138,128.018897 108.09269,128.052 108.330621,128.052 C108.363724,128.052 108.417517,128.047862 108.492,128.035448 C108.566483,128.025103 108.657517,128.008552 108.765103,127.981655 C108.87269,127.958897 108.99269,127.923724 109.125103,127.878207 C109.257517,127.834759 109.394069,127.778897 109.530621,127.71269 L109.557517,125.856828 Z M106.127172,123.239586 C106.41269,123.123724 106.696138,123.020276 106.975448,122.93131 C107.254759,122.844414 107.517517,122.769931 107.763724,122.712 C108.007862,122.654069 108.23131,122.610621 108.434069,122.579586 C108.636828,122.548552 108.802345,122.534069 108.934759,122.534069 C109.334069,122.534069 109.667172,122.579586 109.938207,122.670621 C110.207172,122.761655 110.426483,122.906483 110.592,123.105103 C110.757517,123.305793 110.877517,123.558207 110.949931,123.864414 C111.020276,124.170621 111.053379,124.538897 111.049241,124.97131 L111.005793,127.67131 C111.001655,127.843034 111.012,128.004414 111.040966,128.15131 C111.067862,128.302345 111.096828,128.447172 111.132,128.592 C111.136138,128.596138 111.140276,128.618897 111.140276,128.658207 C111.140276,128.740966 111.084414,128.790621 110.97269,128.807172 C110.900276,128.823724 110.819586,128.838207 110.728552,128.85269 C110.637517,128.867172 110.544414,128.877517 110.453379,128.885793 C110.358207,128.894069 110.265103,128.900276 110.169931,128.902345 C110.076828,128.904414 109.994069,128.906483 109.921655,128.906483 C109.859586,128.906483 109.814069,128.889931 109.783034,128.856828 C109.754069,128.823724 109.73131,128.774069 109.714759,128.707862 L109.605103,128.310621 C109.396138,128.403724 109.180966,128.490621 108.959586,128.569241 C108.740276,128.652 108.527172,128.720276 108.326483,128.778207 C108.125793,128.836138 107.941655,128.881655 107.776138,128.914759 C107.610621,128.947862 107.474069,128.964414 107.368552,128.964414 C107.076828,128.964414 106.822345,128.910621 106.607172,128.803034 C106.392,128.695448 106.216138,128.560966 106.075448,128.395448 C105.938897,128.234069 105.835448,128.054069 105.769241,127.857517 C105.705103,127.663034 105.669931,127.476828 105.669931,127.298897 C105.669931,126.984414 105.725793,126.717517 105.839586,126.500276 C105.953379,126.280966 106.106483,126.100966 106.300966,125.956138 C106.47269,125.829931 106.67131,125.724414 106.900966,125.641655 C107.130621,125.558897 107.383034,125.494759 107.658207,125.447172 C107.935448,125.399586 108.233379,125.366483 108.554069,125.343724 C108.874759,125.320966 109.212,125.304414 109.565793,125.294069 L109.574069,125.01269 C109.578207,124.758207 109.563724,124.530621 109.526483,124.327862 C109.49131,124.127172 109.427172,123.955448 109.334069,123.818897 C109.238897,123.680276 109.110621,123.574759 108.95131,123.504414 C108.792,123.432 108.589241,123.396828 108.347172,123.396828 C108.049241,123.396828 107.736828,123.429931 107.416138,123.496138 C107.093379,123.562345 106.723034,123.661655 106.309241,123.794069 L106.127172,123.239586 Z" id="Fill-27"></path>
                <path d="M117.406966,124.564759 C117.346966,124.359931 117.284897,124.173724 117.224897,124.008207 C117.164897,123.84269 117.086276,123.702 116.989034,123.582 C116.891793,123.464069 116.767655,123.373034 116.61869,123.308897 C116.471793,123.244759 116.279379,123.213724 116.047655,123.213724 C115.902828,123.213724 115.760069,123.228207 115.61731,123.255103 C115.472483,123.282 115.344207,123.327517 115.226276,123.387517 C115.112483,123.447517 115.019379,123.528207 114.946966,123.627517 C114.872483,123.726828 114.839379,123.850966 114.839379,123.999931 C114.839379,124.150966 114.87869,124.279241 114.961448,124.390966 C115.044207,124.500621 115.155931,124.599931 115.294552,124.684759 C115.433172,124.771655 115.592483,124.850276 115.774552,124.920621 C115.956621,124.993034 116.144897,125.065448 116.33731,125.135793 C116.571103,125.218552 116.79869,125.313724 117.024207,125.419241 C117.251793,125.52269 117.454552,125.646828 117.634552,125.791655 C117.814552,125.934414 117.961448,126.104069 118.073172,126.300621 C118.186966,126.497172 118.242828,126.728897 118.242828,126.999931 C118.242828,127.349586 118.153862,127.647517 117.973862,127.895793 C117.793862,128.144069 117.564207,128.346828 117.282828,128.504069 C117.001448,128.66131 116.689034,128.777172 116.349724,128.851655 C116.010414,128.926138 115.681448,128.963379 115.360759,128.963379 C115.166276,128.963379 114.949034,128.944759 114.704897,128.903379 C114.462828,128.862 114.235241,128.793724 114.022138,128.698552 C113.811103,128.605448 113.631103,128.48131 113.486276,128.326138 C113.343517,128.170966 113.273172,127.980621 113.273172,127.755103 C113.273172,127.484069 113.364207,127.287517 113.546276,127.165448 C113.728345,127.045448 113.960069,126.983379 114.241448,126.983379 C114.303517,126.983379 114.353172,126.985448 114.39869,126.987517 C114.442138,126.991655 114.495931,126.997862 114.555931,127.008207 L114.555931,127.148897 C114.555931,127.515103 114.642828,127.794414 114.816621,127.990966 C114.992483,128.185448 115.280069,128.284759 115.683517,128.284759 C115.832483,128.284759 115.975241,128.268207 116.109724,128.235103 C116.246276,128.202 116.364207,128.152345 116.467655,128.086138 C116.569034,128.019931 116.651793,127.935103 116.715931,127.833724 C116.778,127.730276 116.811103,127.610276 116.811103,127.473724 C116.811103,127.302 116.767655,127.157172 116.680759,127.037172 C116.595931,126.919241 116.484207,126.813724 116.341448,126.72269 C116.200759,126.631655 116.039379,126.550966 115.85731,126.478552 C115.675241,126.406138 115.486966,126.331655 115.294552,126.255103 C115.066966,126.172345 114.841448,126.08131 114.613862,125.982 C114.388345,125.88269 114.183517,125.76269 114.007655,125.622 C113.827655,125.479241 113.67869,125.309586 113.566966,125.110966 C113.453172,124.912345 113.39731,124.672345 113.39731,124.390966 C113.39731,124.047517 113.486276,123.759931 113.664207,123.524069 C113.844207,123.290276 114.071793,123.097862 114.346966,122.953034 C114.618,122.806138 114.915931,122.70269 115.236621,122.638552 C115.555241,122.574414 115.85731,122.543379 116.140759,122.543379 C116.411793,122.543379 116.672483,122.559931 116.926966,122.593034 C117.181448,122.626138 117.431793,122.679931 117.680069,122.758552 C117.723517,122.768897 117.746276,122.791655 117.746276,122.824759 C117.75869,122.917862 117.766966,123.048207 117.77731,123.209586 C117.785586,123.373034 117.791793,123.540621 117.798,123.710276 C117.800069,123.882 117.806276,124.043379 117.808345,124.196483 C117.810414,124.347517 117.812483,124.459241 117.812483,124.531655 L117.406966,124.564759 Z" id="Fill-29"></path>
                <path d="M99.2004828,90.0014483 C99.3142759,90.0242069 99.4570345,90.3076552 99.5522069,90.1007586 C99.6101379,90.1462759 99.6122069,90.2538621 99.7135862,90.2476552 C99.5997931,90.4214483 99.4715172,90.195931 99.2915172,90.3055862 C99.2708276,90.2062759 99.1694483,90.195931 99.1653103,90.080069 C99.2025517,90.078 99.1922069,90.0324828 99.2004828,90.0014483" id="Fill-31"></path>
                <path d="M103.633862,97.5986897 C103.73731,97.5924828 103.840759,97.5883448 103.942138,97.5842069 C103.931793,97.7869655 104.182138,97.700069 104.149034,97.9214483 C103.913172,97.995931 103.683517,97.8511034 103.633862,97.5986897" id="Fill-33"></path>
                <path d="M93.0037241,99.8151724 C93.0823448,99.8648276 93.0264828,100.104828 92.9002759,100.090345 C92.9044138,100.044828 92.889931,100.022069 92.8588966,100.013793 C92.9147586,99.9537931 93.0285517,99.9475862 93.0037241,99.8151724" id="Fill-35"></path>
                <path d="M91.956,103.104 C92.018069,103.141241 91.9642759,103.381241 91.8525517,103.381241 C91.838069,103.240552 91.953931,103.226069 91.956,103.104" id="Fill-37"></path>
                <path d="M91.7511724,103.693034 C91.7242759,103.765448 91.6953103,103.837862 91.6849655,103.928897 C91.6001379,103.895793 91.6187586,103.649586 91.7511724,103.693034" id="Fill-39"></path>
                <path d="M97.9133793,108.508759 C97.9671724,108.423931 98.0085517,108.533586 98.1037241,108.463241 C98.0913103,108.527379 98.1368276,108.533586 98.1844138,108.535655 C98.1347586,108.637034 97.9837241,108.517034 97.9133793,108.508759" id="Fill-41"></path>
                <path d="M90.9864828,102.994759 C91.0837241,102.81269 91.1892414,102.636828 91.3113103,102.479586 C91.0133793,102.326483 90.734069,102.880966 90.9864828,102.994759 M90.0326897,102.380276 C90.1692414,102.382345 90.194069,102.283034 90.2561379,102.216828 C90.2209655,102.181655 90.0078621,102.146483 89.9871724,102.229241 C90.0451034,102.233379 90.0264828,102.320276 90.0326897,102.380276 M91.0671724,102.218897 C91.1457931,102.227172 91.1726897,102.29131 91.2264828,102.326483 C91.2409655,102.254069 91.3051034,102.227172 91.2947586,102.132 C91.2161379,102.123724 91.214069,102.030621 91.1375172,102.022345 C91.0547586,102.115448 91.1064828,102.127862 91.0671724,102.218897 M91.7251034,100.528552 C91.8492414,100.507862 91.809931,100.336138 91.8264828,100.216138 C91.632,100.226483 91.7830345,100.47269 91.7251034,100.528552 M93.189931,97.9547586 C93.1382069,98.0726897 93.2106207,98.1037241 93.1630345,98.1864828 C93.312,98.1637241 93.2975172,98.1388966 93.3947586,98.2154483 C93.4733793,98.1513103 93.4754483,98.0188966 93.4568276,97.8637241 C93.3368276,97.8657931 93.3533793,97.992 93.189931,97.9547586 M94.5057931,94.5761379 C94.3423448,94.5285517 94.3133793,94.7913103 94.4023448,94.8513103 C94.5637241,94.8057931 94.5802759,94.4892414 94.4644138,94.5388966 C94.4871724,94.5409655 94.512,94.5409655 94.5057931,94.5761379 M94.4478621,94.152 C94.509931,94.1809655 94.509931,94.274069 94.6071724,94.2616552 C94.6816552,94.1023448 94.6402759,94.0671724 94.6651034,93.8726897 C94.6278621,93.8747586 94.5906207,93.8768276 94.5513103,93.8788966 C94.5637241,94.0133793 94.4644138,94.0464828 94.4478621,94.152 M92.3230345,76.1851034 C92.2733793,76.1892414 92.2733793,76.2388966 92.2092414,76.2285517 C92.2402759,76.3692414 92.349931,76.4251034 92.4885517,76.4478621 C92.6271724,76.2492414 92.4244138,76.0982069 92.2837241,76.149931 C92.3064828,76.149931 92.3271724,76.152 92.3230345,76.1851034 M104.949931,74.6106207 C104.954069,74.6747586 104.956138,74.7409655 104.958207,74.8051034 C104.834069,74.7657931 104.869241,74.8692414 104.807172,74.8878621 C104.807172,74.8216552 104.774069,74.7906207 104.726483,74.7761379 C104.73269,74.8444138 104.69131,74.8692414 104.614759,74.8588966 C104.788552,75.2106207 105.293379,75.1195862 105.703034,75.0409655 C105.589241,74.7471724 105.123724,74.8382069 104.949931,74.6106207 M105.965793,74.8733793 C105.930621,74.649931 105.603724,74.6395862 105.460966,74.7823448 C105.595448,74.8485517 105.738207,74.9064828 105.965793,74.8733793 M106.576138,73.8430345 C106.454069,73.7623448 106.226483,73.3795862 106.104414,73.6713103 C106.317517,73.8161379 106.605103,74.0913103 106.965103,73.9423448 C106.903034,73.8347586 106.760276,73.8182069 106.576138,73.8430345 M105.626483,74.1968276 C105.833379,74.4078621 106.392,74.4078621 106.710621,74.2609655 C106.557517,74.0375172 106.189241,74.052 106.036138,73.8285517 C105.934759,73.7644138 106.01131,73.5037241 105.864414,73.4892414 C105.794069,73.7478621 105.510621,73.869931 105.626483,74.1968276 M114.359586,80.4388966 C114.256138,80.3933793 114.258207,80.2278621 114.194069,80.1388966 C114.29131,80.1182069 114.299586,80.0126897 114.338897,79.9382069 C114.27269,79.9257931 114.243724,80.0002759 114.225103,79.9444138 C114.357517,79.3402759 114.100966,78.9285517 114.034759,78.3306207 C113.854759,78.1733793 113.507172,77.9333793 113.316828,77.8216552 C111.829241,76.9568276 110.018897,75.9864828 108.27269,75.5044138 C107.949931,75.4154483 107.536138,75.2085517 107.215448,75.2023448 C106.983724,75.2023448 106.756138,75.3533793 106.49131,75.3926897 C105.893379,75.4713103 105.266483,75.5002759 104.823724,75.1961379 C104.718207,75.2457931 104.623034,75.249931 104.513379,75.2106207 C104.418207,75.0451034 105.955448,74.8609655 104.614759,74.8588966 C104.596138,74.954069 101.45131,76.0671724 101.389241,76.1230345 C100.381655,76.5182069 99.5126897,77.0416552 98.7182069,77.6333793 C97.8306207,78.0161379 97.0402759,78.4878621 96.1092414,78.8333793 C96.0409655,78.9306207 96.0016552,79.0547586 95.889931,79.1126897 C95.6830345,80.3561379 95.6230345,81.5561379 95.6292414,82.752 C96.1237241,82.6195862 96.6616552,82.6361379 97.1995862,82.4892414 C97.3154483,82.212 97.0837241,81.974069 97.1313103,81.7961379 C97.1913103,81.9616552 97.272,82.1023448 97.3444138,82.2492414 C97.4478621,82.2451034 97.5492414,82.2409655 97.6526897,82.2368276 C97.7313103,81.972 97.5575172,81.6906207 97.5057931,81.5478621 C97.7209655,81.7837241 97.9133793,82.0464828 98.1161379,82.2926897 C98.3582069,82.2451034 98.4844138,82.3216552 98.6623448,82.3444138 C98.7844138,82.3588966 98.7430345,82.2244138 98.889931,82.2575172 C99.7009655,82.3651034 100.594759,82.5368276 101.418207,82.6837241 C102.504414,82.7209655 103.423034,82.7975172 104.51131,82.814069 C105.140276,82.8244138 105.549931,83.0292414 106.143724,83.049931 C106.286483,83.054069 106.414759,83.0251034 106.565793,83.0292414 C107.805103,83.0561379 109.834759,83.5775172 110.654069,82.9609655 C110.753379,83.0251034 110.685103,83.0230345 110.738897,83.112 C112.158207,82.992 113.025103,82.8864828 114.074069,82.6133793 C113.970621,82.3506207 114.173379,82.1726897 114.276828,81.9864828 C114.200276,81.5892414 114.320276,81.0533793 114.260276,80.7906207 C114.264414,80.832 114.247862,80.889931 114.225103,80.832 C114.225103,80.7616552 114.210621,80.712 114.179586,80.6788966 C114.262345,80.649931 114.307862,80.7823448 114.293379,80.6354483 C114.299586,80.5133793 114.187862,80.7388966 114.175448,80.6023448 C114.278897,80.5857931 114.258207,80.4575172 114.359586,80.4388966 M93.3016552,98.7202759 C93.0492414,98.7844138 92.8651034,98.9126897 92.5795862,98.9457931 C92.6851034,99.0202759 92.9375172,98.9333793 93.0078621,99.0430345 C92.9913103,99.1961379 92.7492414,99.1837241 92.6271724,99.1382069 C92.5423448,99.134069 92.6147586,99.2768276 92.5961379,99.3326897 C92.8154483,99.2913103 92.8009655,99.6885517 92.9582069,99.6244138 C93.0161379,99.7651034 92.6851034,99.7423448 92.6251034,99.9492414 C92.6230345,100.032 92.7616552,99.9595862 92.8175172,99.9782069 C92.5237241,100.135448 92.3002759,100.423034 92.4637241,100.650621 C92.2816552,100.803724 92.3044138,101.145103 92.0664828,101.248552 C91.8409655,101.236138 91.8595862,101.037517 91.5988966,101.15131 C91.6113103,101.314759 91.5244138,101.352 91.4623448,101.583724 C91.6382069,101.525793 92.0788966,101.366483 92.3147586,101.623034 C92.3623448,101.565103 92.5030345,101.598207 92.5009655,101.498897 C92.5878621,101.554759 92.3913103,101.666483 92.4388966,101.809241 C92.3478621,101.800966 92.3457931,101.695448 92.2775172,101.662345 C91.8968276,101.935448 91.6961379,102.665793 91.6423448,103.003034 C91.7292414,103.032 91.9361379,102.854069 92.0582069,102.792 C92.1575172,102.837517 92.0106207,102.965793 92.0313103,103.063034 C91.8264828,103.056828 91.394069,103.205793 91.5409655,103.278207 C91.6795862,103.336138 91.4478621,103.402345 91.4623448,103.280276 C91.3382069,103.427172 91.3588966,103.704414 91.0982069,103.723034 C91.0692414,103.83269 91.1561379,103.820276 91.1437241,103.913379 C91.0671724,103.917517 90.9906207,103.921655 90.914069,103.923724 C90.9575172,103.706483 91.0382069,103.522345 91.1995862,103.408552 C91.1147586,103.340276 90.914069,103.396138 90.8478621,103.309241 C90.6554483,103.443724 90.5044138,103.61131 90.3264828,103.758207 C90.4837241,103.884414 90.2168276,104.15131 90.3864828,104.256828 C90.554069,104.360276 90.7485517,104.006483 90.9926897,103.998207 C90.8830345,104.07269 90.9492414,104.13269 91.0733793,104.070621 C90.9802759,104.33131 90.7754483,104.546483 90.3306207,104.722345 C90.4361379,104.589931 89.9188966,104.736828 89.9706207,104.428552 C89.8671724,104.900276 88.3547586,104.426483 88.1954483,105.280966 C87.5623448,105.049241 87.4009655,105.864414 86.949931,105.918207 C86.9623448,105.792 87.0906207,105.775448 87.0926897,105.640966 C87.0844138,105.570621 86.9602759,105.622345 86.9333793,105.570621 C86.9168276,105.249931 87.3223448,104.889931 87.5561379,104.807172 C87.5023448,104.527862 87.5002759,104.354069 87.7237241,104.260966 C87.6906207,104.339586 87.6016552,104.397517 87.5851034,104.575448 C87.8106207,104.438897 87.9037241,104.178207 88.0195862,103.938207 C87.9368276,103.855448 87.8333793,103.793379 87.6657931,103.799586 C88.029931,102.738207 88.2244138,101.738897 88.4871724,100.638207 C88.5037241,100.549241 88.4126897,100.586483 88.4044138,100.524414 C88.4147586,100.423034 88.6175172,100.468552 88.5451034,100.209931 C88.512,100.238897 88.4913103,100.282345 88.4747586,100.329931 C88.3816552,100.143724 88.5595862,99.8913103 88.6795862,99.7795862 C88.6506207,99.5726897 88.5802759,99.5726897 88.4375172,99.5582069 C88.6775172,99.2954483 88.7892414,98.9188966 88.8533793,98.4968276 C88.5823448,98.3064828 88.9195862,97.7375172 89.1595862,97.5575172 C89.1864828,97.4478621 89.0995862,97.4602759 89.112,97.3671724 C89.5878621,97.3051034 89.1078621,96.6616552 89.5816552,96.6513103 C89.4968276,96.5147586 89.5651034,96.4216552 89.6023448,96.3016552 C89.592,96.252 89.4864828,96.2561379 89.4885517,96.3078621 C89.4016552,96.3347586 89.5878621,96.0368276 89.5609655,96.2271724 C89.6561379,95.7306207 89.7761379,95.0726897 90.072,94.6982069 C90.0182069,94.3506207 90.1257931,94.2430345 89.9623448,93.969931 C90.0285517,93.9326897 90.0678621,93.8437241 90.1526897,93.9244138 C90.1878621,93.7506207 90.0782069,93.734069 90.0616552,93.6182069 C90.4154483,92.7802759 90.3575172,91.6692414 90.5809655,90.5830345 C90.4361379,90.0306207 90.252,89.1657931 90.4526897,88.6216552 C90.4568276,88.5078621 90.374069,88.4913103 90.3306207,88.4333793 C90.0988966,86.889931 90.4092414,85.3837241 90.5023448,83.7554483 C90.5106207,83.6085517 90.4133793,83.172 90.5582069,83.2506207 C90.4837241,83.1078621 90.492,82.5430345 90.549931,82.2492414 C90.5706207,82.1582069 90.6554483,82.1106207 90.6575172,82.0506207 C90.6657931,81.909931 90.5871724,81.852 90.6782069,81.6637241 C90.6471724,81.7278621 90.974069,81.612 90.7878621,81.4651034 C90.7361379,81.5313103 90.6823448,81.5933793 90.6409655,81.6657931 C90.494069,80.9375172 90.6223448,79.6278621 90.2147586,79.0588966 C89.8775172,79.1106207 89.8837241,78.7444138 89.8775172,78.4588966 C89.9809655,78.4526897 90.0844138,78.4485517 90.1878621,78.4423448 C90.3554483,78.3037241 90.2313103,77.894069 90.5457931,77.8878621 C90.3864828,77.589931 90.7278621,77.1223448 90.4671724,76.9651034 C90.5292414,76.7416552 90.6451034,76.4230345 90.3988966,76.3113103 C90.5954483,76.1457931 90.8623448,76.0464828 90.8726897,75.7113103 C91.2968276,75.909931 91.9837241,75.2168276 92.3416552,75.7609655 C92.4906207,75.6988966 92.6044138,75.6037241 92.7968276,75.5851034 C92.8485517,75.249931 92.5402759,75.0471724 92.5278621,74.7471724 C92.8257931,74.8030345 92.952,75.3844138 93.2582069,75.5644138 C93.4361379,75.554069 93.5644138,75.4982069 93.6782069,75.429931 C93.612,75.1568276 93.8188966,75.0285517 93.7257931,74.772 C93.8085517,74.8526897 93.849931,74.7306207 93.9202759,74.8009655 C93.8106207,74.709931 93.9926897,74.534069 93.8292414,74.534069 C93.8851034,74.4285517 94.2947586,74.2547586 94.3195862,74.2423448 C94.5761379,74.0995862 94.5906207,74.7326897 94.9113103,74.5257931 C94.9175172,74.5857931 94.8988966,74.6726897 94.9568276,74.6768276 C94.8451034,74.7575172 94.6651034,74.7823448 94.7023448,74.9975172 C94.7188966,75.0533793 94.7478621,74.9809655 94.8161379,74.9913103 C94.8057931,75.1175172 94.6609655,75.1237241 94.634069,75.2313103 C94.814069,75.2851034 95.1761379,75.1878621 95.2816552,75.0471724 C96.0202759,74.9313103 97.3009655,74.5133793 98.3395862,74.3706207 C98.9126897,74.289931 99.3554483,74.1947586 99.7071724,73.8844138 C99.9037241,73.694069 104.347862,71.8278621 105.502345,72.1733793 C107.453379,72.5188966 106.350621,72.2830345 107.453379,72.5188966 C107.680966,72.6285517 108.129931,72.909931 108.340966,72.7609655 C109.716828,72.9678621 110.933379,73.3568276 112.098207,73.9423448 C112.394069,74.0892414 112.694069,74.1988966 113.045793,74.3623448 C113.608552,74.6230345 114.067862,74.9851034 114.667862,75.252 C115.137517,75.4630345 115.660966,75.8830345 116.09131,75.9988966 C116.699586,76.1644138 117.200276,76.212 117.59131,76.7416552 C118.120966,76.9961379 118.679586,77.4347586 118.843034,77.9602759 C119.004414,78.1030345 119.221655,78.3285517 119.219586,78.5975172 C119.215448,78.7982069 119.037517,79.0361379 119.058207,79.3402759 C119.109931,80.0995862 119.145103,80.8837241 119.010621,81.6947586 C118.979586,81.6637241 118.905103,81.6782069 118.89269,81.6244138 C118.638207,81.8395862 118.855448,82.3009655 118.669241,82.6382069 C118.654759,82.6588966 118.561655,82.6671724 118.553379,82.6816552 C118.452,82.9382069 118.474759,83.172 118.278207,83.3892414 C118.193379,83.4802759 118.050621,83.4678621 118.017517,83.6313103 C118.017517,83.7533793 118.027862,83.8651034 118.108552,83.8982069 C118.009241,84.1547586 117.709241,84.2230345 117.593379,84.4609655 C117.417517,84.4154483 117.388552,84.4609655 117.287172,84.552 C116.329241,84.6306207 115.375448,84.8623448 114.33269,84.9182069 C113.695448,84.9513103 113.049931,85.0961379 112.454069,85.1954483 C112.452,85.1561379 112.449931,85.1188966 112.449931,85.0795862 C111.688552,85.2264828 110.618897,84.8830345 109.950621,85.3485517 C109.679586,85.3257931 109.31131,85.2616552 109.023724,85.3133793 C108.878897,85.3361379 108.763034,85.4478621 108.605793,85.4851034 C107.610621,85.7188966 106.360966,85.2678621 105.407172,85.5533793 C105.355448,85.5678621 105.380276,85.6506207 105.376138,85.7085517 C105.218897,85.7582069 105.030621,85.754069 104.91269,85.7292414 C104.769931,85.7664828 104.914759,85.8637241 104.844414,85.9257931 C104.422345,85.9071724 103.929931,85.7809655 103.565793,85.8285517 C103.574069,85.749931 103.667172,85.749931 103.673379,85.6692414 C103.100276,85.5968276 102.380276,85.5368276 101.894069,85.5947586 C101.883724,85.7168276 101.983034,85.7147586 102.09269,85.7023448 C101.335448,85.8926897 100.565793,85.2864828 99.9285517,85.6464828 C99.3926897,85.5616552 98.9375172,85.6795862 98.5733793,85.514069 C98.0106207,85.7582069 96.4506207,85.3506207 96.0223448,85.4354483 C95.7016552,85.5016552 95.6685517,85.8244138 95.4657931,85.9630345 C95.4057931,86.3395862 95.4202759,86.7802759 95.2857931,87.0906207 C95.2692414,87.1754483 95.3623448,87.1423448 95.3685517,87.2023448 C95.0830345,88.149931 95.3147586,89.3582069 95.5423448,90.2044138 C95.2713103,90.4071724 95.3602759,91.029931 95.3995862,91.332 C95.2795862,91.5161379 95.3126897,91.8409655 95.1988966,92.0354483 C95.2775172,92.169931 95.1761379,92.294069 95.2547586,92.3809655 C94.9775172,92.7078621 95.1285517,93.1982069 94.8037241,93.4816552 C94.7788966,93.6016552 94.9113103,93.549931 94.8885517,93.669931 C94.6382069,94.3154483 94.6216552,95.109931 94.329931,95.8175172 C94.2347586,95.7306207 94.1395862,95.834069 94.0216552,95.834069 C94.0671724,96.2313103 93.8851034,96.4216552 93.8292414,96.7278621 C93.8747586,96.8354483 93.9947586,96.7113103 94.0609655,96.7175172 C93.9388966,97.0382069 93.9264828,97.4582069 93.6388966,97.6237241 C93.7588966,98.0023448 93.374069,98.534069 93.3554483,99.0264828 C93.2664828,98.9251034 93.3906207,98.8009655 93.3016552,98.7202759" id="Fill-43"></path>
                <path d="M97.8811034,110.363586 C97.905931,110.429793 97.908,110.522897 97.965931,110.553931 C98.0031724,110.47531 98.150069,110.663586 98.1955862,110.504276 C98.085931,110.446345 98.2411034,110.328414 98.1831724,110.196 C97.9907586,110.169103 98.0424828,110.363586 97.8811034,110.363586 M98.1273103,109.850483 C98.2514483,109.869103 98.1045517,109.970483 98.1790345,110.15669 C98.2183448,110.154621 98.2576552,110.154621 98.2948966,110.152552 C98.1728276,109.945655 98.390069,109.773931 98.2369655,109.691172 C98.1997241,109.744966 98.1355862,109.771862 98.1273103,109.850483 M106.440414,99.0525517 C106.529379,99.0608276 106.58731,99.0401379 106.630759,99.0070345 C106.618345,98.8601379 106.564552,98.7566897 106.425931,98.7463448 C106.438345,98.8642759 106.345241,98.9677241 106.440414,99.0525517 M104.816276,98.1235862 C104.884552,97.9994483 104.857655,97.6911724 104.719034,97.6663448 C104.843172,97.8049655 104.721103,97.9642759 104.816276,98.1235862 M104.990069,97.6911724 C105.012828,97.5297931 104.665241,97.5628966 104.638345,97.5918621 C104.748,97.6311724 104.863862,97.6684138 104.990069,97.6911724 M104.255586,95.138069 C104.396276,95.1422069 104.522483,95.136 104.481103,94.9746207 C104.375586,95.0015172 104.305241,95.0573793 104.255586,95.138069 M100.361793,95.198069 C100.479724,95.193931 100.639034,95.0387586 100.543862,94.958069 C100.550069,95.1008276 100.318345,95.0263448 100.361793,95.198069 M104.551448,94.8153103 C104.671448,94.8297931 104.721103,94.773931 104.698345,94.656 C104.659034,94.656 104.621793,94.658069 104.582483,94.6601379 C104.594897,94.7325517 104.543172,94.7470345 104.551448,94.8153103 M108.064552,94.8504828 C107.82869,94.178069 107.185241,93.9546207 106.769379,93.4808276 C106.730069,93.4828966 106.690759,93.4828966 106.651448,93.4870345 C106.233517,94.2111724 105.525931,94.6704828 104.956966,95.2601379 C104.930069,95.0511724 104.700414,95.2353103 104.530759,95.2022069 C104.716966,95.3615172 105.043862,95.3718621 105.30869,95.3987586 C106.396966,95.5146207 107.390069,95.4608276 108.401793,95.4525517 C108.499034,95.1401379 108.196966,95.0366897 108.064552,94.8504828 M99.8776552,90.4746207 C99.8817931,90.3587586 100.02869,90.6215172 100.070069,90.4642759 C100.022483,90.4497931 99.9893793,90.4166897 99.9873103,90.3504828 C99.9107586,90.336 99.7969655,90.4642759 99.8776552,90.4746207 M115.138345,89.0884138 C115.057655,89.1732414 114.952138,89.2394483 114.919034,89.3697931 C114.823862,89.378069 114.757655,89.3553103 114.722483,89.2994483 C114.528,89.616 114.019034,89.6428966 113.785241,89.9222069 C113.199724,89.8601379 112.883172,89.6222069 112.359724,89.9470345 C111.281793,89.8435862 110.131448,90.213931 108.952138,90.5263448 C109.392828,91.1056552 110.04869,91.4532414 110.375586,92.1587586 C110.541103,92.2477241 110.576276,92.4773793 110.779034,92.5270345 C110.762483,92.7856552 110.932138,92.8435862 111.066621,92.9387586 C111.333517,93.3608276 111.614897,93.7663448 111.821793,94.2566897 C112.181793,94.6808276 112.403172,95.2642759 112.80869,95.6387586 C112.730069,95.8870345 112.864552,96.0422069 112.953517,96.2884138 C112.624552,96.6504828 111.892138,96.5925517 111.875586,97.1863448 C110.725241,97.6704828 108.757655,98.0284138 107.156276,97.7863448 C107.230759,98.1608276 107.483172,98.1587586 107.572138,98.4628966 C107.665241,98.5601379 107.671448,98.3553103 107.764552,98.4525517 C107.880414,98.5684138 107.950759,98.9118621 107.870069,99.1063448 C108.261103,99.2242759 108.559034,98.796 109.016276,98.8208276 C109.144552,98.8291034 109.245931,98.9697931 109.370069,98.9987586 C109.454897,99.0173793 109.779724,99.0194483 109.796276,99.0173793 C109.961793,99.0070345 110.245241,98.9553103 110.28869,98.8022069 C110.437655,98.8766897 110.60731,98.9304828 110.721103,98.9387586 C110.654897,98.8022069 111.002483,98.8642759 110.938345,98.6201379 C111.391448,98.7277241 111.757655,98.9325517 112.229379,99.0235862 C112.212828,99.338069 112.413517,99.4146207 112.672138,99.4291034 C112.740414,99.5015172 112.672138,99.4766897 112.678345,99.5822069 C112.848,99.5553103 112.872828,99.6277241 112.986621,99.5677241 C112.936966,99.6711724 112.866621,99.693931 113.030069,99.6422069 C112.94731,99.9732414 113.313517,99.8532414 113.317655,100.056 C113.239034,100.039448 113.208,100.089103 113.050759,100.144966 C113.085931,100.300138 113.346621,100.269103 113.404552,100.283586 C113.541103,100.370483 113.212138,100.444966 113.340414,100.517379 C113.311448,100.631172 113.214207,100.500828 113.145931,100.525655 C113.336276,100.728414 112.556276,100.608414 112.543862,100.862897 C112.848,100.927034 113.137655,100.591862 113.383862,100.668414 C113.230759,100.809103 113.282483,100.776 113.208,101.026345 C112.910069,101.03669 112.810759,101.231172 112.562483,101.284966 C112.535586,101.427724 112.639034,101.487724 112.574897,101.556 C111.854897,101.746345 111.219724,102.023586 110.439724,102.151862 C110.363172,102.168414 110.369379,102.259448 110.332138,102.313241 C110.332138,102.147724 110.098345,102.253241 110.050759,102.05669 C109.742483,102.120828 109.574897,102.257379 109.326621,102.282207 C108.964552,102.828414 107.783172,102.729103 107.356966,103.103586 C107.303172,103.09531 107.321793,103.008414 107.311448,102.952552 C107.038345,103.850483 107.259724,105.089793 107.299034,106.07669 C108.209379,106.107724 108.716276,105.582207 109.475586,105.594621 C109.345241,105.393931 110.104552,105.418759 110.311448,105.286345 C110.332138,105.364966 110.290759,105.387724 110.280414,105.441517 C110.354897,105.346345 110.433517,105.487034 110.510069,105.393931 C110.516276,105.290483 110.294897,105.437379 110.34869,105.284276 C110.632138,105.124966 111.178345,105.402207 111.234207,105.205655 C111.648,105.350483 112.314207,105.387724 112.723862,105.71669 C112.746621,105.873931 112.591448,106.217379 112.70731,106.219448 C112.686621,106.449103 112.62869,106.914621 112.790069,107.220828 C112.661793,107.479448 112.324552,107.632552 112.239724,107.785655 C112.096966,108.042207 111.532138,108.038069 111.770069,108.501517 C111.432828,108.623586 111.434897,109.058069 110.985931,109.07669 C110.779034,109.246345 110.723172,109.552552 110.551448,109.753241 C110.48731,109.75531 110.423172,109.757379 110.359034,109.761517 C110.137655,109.97669 109.241793,109.943586 108.703862,109.836 C108.323172,109.759448 108.141103,109.678759 107.772828,109.761517 C107.021793,109.933241 106.165241,109.720138 105.482483,110.289103 C104.936276,110.452552 104.338345,110.740138 103.653517,110.874621 C103.237655,110.95531 102.962483,110.944966 102.50731,111.081517 C102.168,111.180828 101.791448,111.410483 101.40869,111.55531 C101.361103,111.439448 101.400414,111.348414 101.241103,111.292552 C101.088,111.313241 101.150069,111.321517 101.015586,111.379448 C100.775586,111.222207 100.465241,111.145655 100.334897,110.870483 C99.7638621,110.878759 99.4928276,111.29669 98.9569655,111.124966 C98.9569655,111.07531 98.9528276,111.023586 98.9507586,110.971862 C98.0217931,111.203586 97.1735172,110.673931 97.4342069,109.881517 C97.610069,109.769793 97.7838621,109.660138 97.8790345,109.476 C97.8107586,109.173931 97.5728276,109.056 97.3514483,108.921517 C97.6307586,108.853241 98.2783448,108.760138 98.2555862,108.41669 C98.7128276,108.41669 98.7955862,108.073241 98.9217931,107.769103 C99.4431724,107.659448 100.231448,107.903586 100.690759,107.611862 C101.259724,107.51669 101.78731,107.922207 101.963172,107.593241 C102.033517,107.481517 102.165931,107.63669 102.273517,107.618069 C102.130759,107.537379 102.577655,107.489793 102.56731,107.29531 C102.861103,107.330483 103.252138,107.316 103.456966,107.332552 C103.68869,106.693241 103.705241,106.236 103.634897,105.278069 C103.825241,105.367034 103.64731,105.857379 103.819034,105.964966 C103.94731,105.431172 103.779724,104.698759 103.816966,104.229103 C103.384552,104.247724 103.816966,104.916 103.665931,105.122897 C103.446621,104.642897 103.488,103.867034 103.510759,103.393241 C102.778345,103.244276 102.213517,102.902897 101.508,102.633931 C101.454207,102.646345 101.499724,102.749793 101.435586,102.753931 C100.941103,102.743586 100.924552,102.342207 100.411448,102.298759 C99.9976552,101.889103 99.6231724,101.436 99.0148966,101.241517 C98.9652414,101.231172 98.8866207,101.359448 98.9797241,101.359448 C98.8866207,101.471172 98.8286897,101.202207 98.628,101.297379 C98.6217931,101.400828 98.688,101.421517 98.7893793,101.407034 C98.748,101.556 98.630069,101.407034 98.5245517,101.496 C98.5369655,101.373931 98.445931,101.363586 98.4707586,101.227034 C98.5576552,101.196 98.6673103,101.183586 98.7376552,101.138069 C98.7583448,100.966345 98.5245517,101.076 98.4997241,100.956 C98.6342069,100.809103 98.9073103,100.788414 99.1038621,100.69531 C99.1804138,100.761517 99.2652414,100.817379 99.4162759,100.798759 C99.7038621,100.473931 100.204552,100.43669 100.570759,100.668414 C100.539724,100.339448 100.142483,100.407724 100.080414,100.113931 C100.212828,100.178069 100.101103,100.118069 100.113517,99.996 C100.428,99.9463448 100.469379,100.200828 100.740414,100.198759 C100.740414,100.089103 100.643172,100.093241 100.543862,100.093241 C100.963862,100.029103 101.619724,100.418069 102.112138,100.639448 C102.662483,100.63531 103.144552,100.571172 103.570759,100.457379 C103.705241,100.345655 103.730069,100.134621 103.819034,99.9835862 C103.672138,99.936 103.556276,100.198759 103.446621,100.308414 C103.496276,99.993931 104.280414,99.5428966 103.777655,99.0587586 C103.854207,98.9449655 103.910069,98.8084138 104.073517,98.7753103 C103.92869,98.7049655 103.889379,98.5187586 103.785931,98.4008276 C103.649379,98.3056552 103.413517,98.4318621 103.351448,98.1897931 C103.649379,98.2725517 104.081793,98.1422069 104.346621,97.9911724 C104.321793,97.7449655 104.470759,97.658069 104.596966,97.5546207 C104.565931,97.4656552 104.276276,97.4511724 104.210069,97.533931 C104.164552,97.5277241 104.174897,97.4635862 104.166621,97.4201379 C103.916276,97.4656552 103.680414,97.4635862 103.506621,97.3332414 C103.363862,97.4491034 103.221103,97.3601379 102.970759,97.3973793 C102.960414,97.2711724 102.736966,97.3808276 102.768,97.2132414 C101.466621,96.8863448 99.8693793,96.8822069 99.3045517,95.7484138 C99.350069,95.7401379 99.3335172,95.676 99.3397241,95.6304828 C99.5921379,95.553931 99.6811034,95.3284138 99.7783448,95.1091034 C100.229379,94.7449655 100.492138,94.2111724 100.916276,93.8242759 C100.922483,93.6815172 101.003172,93.6049655 101.017655,93.4704828 C101.414897,93.2925517 101.402483,92.7401379 101.946621,92.6946207 C102.056276,92.553931 102.205241,92.4070345 102.116276,92.1856552 C101.646621,92.4256552 101.253517,92.1815172 101.023862,91.9270345 C100.841793,92.073931 100.610069,92.0594483 100.454897,92.1463448 C100.092828,91.8628966 99.8217931,91.5194483 99.1597241,91.6622069 C99.1142069,91.6704828 99.1307586,91.7346207 99.1266207,91.7801379 C98.9238621,91.716 98.7583448,91.7842759 98.7086897,91.953931 C98.328,91.8463448 98.6176552,91.3746207 98.750069,91.1408276 C98.8721379,91.1015172 98.808,91.2670345 98.9093793,91.2484138 C98.9921379,91.1904828 99.0852414,91.1408276 99.050069,90.9732414 C99.2548966,90.9173793 99.3397241,90.9711724 99.590069,90.9484138 C99.5735172,90.8573793 99.405931,90.933931 99.4286897,90.8015172 C99.5383448,90.7415172 99.6293793,90.8987586 99.6604138,90.7911724 C99.585931,90.6566897 99.3521379,90.696 99.2652414,90.578069 C99.2755862,90.4911724 99.4907586,90.5884138 99.4121379,90.4166897 C99.6045517,90.4208276 99.7597241,90.3897931 99.8693793,90.3194483 C99.8073103,89.9884138 99.4866207,89.916 99.4886897,89.5642759 C99.5776552,89.5870345 99.6873103,89.5870345 99.7617931,89.6284138 C99.9190345,89.5704828 99.8362759,89.4835862 99.8238621,89.318069 C100.051448,89.2270345 100.026621,89.5518621 100.175586,89.4173793 C100.078345,89.2415172 99.9562759,88.9415172 99.648,88.8235862 C99.7948966,88.7697931 100.059724,88.6353103 100.181793,88.6828966 C100.32869,88.6477241 100.310069,88.4222069 100.322483,88.3684138 C100.990759,88.6684138 101.063172,89.2332414 102.014897,89.1028966 C103.146621,88.9477241 104.439724,88.3146207 105.482483,88.0953103 C106.545931,87.873931 107.868,87.4042759 108.991448,87.2056552 C109.502483,87.1125517 109.970069,86.9594483 110.52869,87.0194483 C111.734897,87.1477241 112.788,87.4022069 113.812138,87.9132414 C113.814207,88.0849655 113.90731,88.1573793 113.979724,88.2525517 C114.356276,88.0828966 114.478345,88.5897931 114.765931,88.5277241 C114.625241,88.5918621 114.84869,88.6870345 114.819724,88.8711724 C114.840414,88.956 115.022483,88.8628966 115.053517,88.9373793 C115.049379,88.9849655 114.985241,88.9725517 114.939724,88.9808276 C115.125931,89.0118621 114.952138,89.1815172 115.138345,89.0884138" id="Fill-46"></path>
                <path d="M99.45,102.379448 C99.4831034,102.371172 99.6486207,102.321517 99.7210345,102.367034 C99.6631034,102.487034 99.5368966,102.429103 99.45,102.379448" id="Fill-48"></path>
                <path d="M29.2117241,84.8071034 C29.0110345,84.9788276 29.0503448,85.2705517 29.2117241,85.4422759 C29.0813793,85.674 28.8475862,85.8333103 29.0524138,86.1291724 C28.8227586,86.0567586 28.9406897,86.334 28.7358621,86.2884828 C28.4731034,88.0077931 28.0862069,89.5657241 28.3137931,91.2084828 C29.6565517,91.1402069 31.5517241,91.2477931 32.6524138,91.791931 C33.3186207,92.1208966 33.9331034,92.8988276 33.8689655,93.8029655 C33.8565517,93.956069 33.5296552,94.0988276 33.7655172,94.3843448 C33.2896552,94.9181379 32.6627586,95.2967586 32.282069,95.9195172 C31.6489655,95.9526207 31.0903448,95.9112414 30.9062069,95.4974483 C30.6062069,95.5202069 30.3786207,95.5346897 30.1137931,95.4436552 C29.642069,95.5574483 29.1372414,95.9008966 28.5786207,95.4974483 C28.1917241,95.7208966 27.7862069,95.6464138 27.3062069,95.7622759 C27.0248276,95.8284828 26.8013793,96.0353793 26.5137931,96.1326207 C25.3117241,96.531931 23.8262069,96.6229655 22.5972414,97.0305517 C21.9951724,97.2312414 21.5027586,97.4857241 20.8510345,97.614 C20.2448276,97.5643448 19.8475862,97.311931 19.4213793,97.0843448 C19.4255172,96.9105517 19.5103448,96.8195172 19.4731034,96.6084828 C19.0510345,95.8326207 19.3903448,94.8395172 19.262069,93.9084828 C20.0110345,91.8684828 23.6937931,92.7643448 25.137931,91.4215862 C25.1048276,90.6457241 25.1586207,89.7208966 25.1896552,88.7753793 C25.1689655,88.6202069 25.0158621,88.5953793 24.9786207,88.4588276 C25.0158621,88.3181379 25.1524138,88.2767586 25.1896552,88.1402069 C24.8896552,87.6746897 25.0572414,86.6795172 24.9268966,85.8126207 C24.9,85.5602069 24.4510345,85.614 24.66,85.2829655 C23.9689655,85.2084828 23.2593103,85.5788276 22.5972414,85.8126207 C22.4296552,85.7298621 22.1772414,85.5167586 22.2806897,85.3346897 C22.022069,85.2933103 21.8751724,85.1381379 21.537931,85.1753793 C21.3765517,84.9436552 21.2296552,84.714 21.2751724,84.5422759 C21.1655172,84.4284828 20.9772414,84.4264138 20.7455172,84.3312414 C20.8696552,84.1946897 20.6793103,84.0746897 20.8510345,84.0126207 C20.7558621,83.8595172 20.6193103,83.7498621 20.4268966,83.696069 C20.4268966,83.1477931 20.1,82.9284828 19.8972414,82.5829655 C19.8186207,81.7181379 19.497931,81.1057241 19.5268966,80.3608966 C19.6406897,80.4415862 19.7006897,80.576069 19.8972414,80.571931 C20.2965517,80.5305517 20.4124138,80.2036552 20.8510345,80.2015862 C22.0510345,79.1774483 24.4551724,78.7367586 26.8841379,78.7202069 C27.7655172,78.714 28.6324138,78.7967586 29.6358621,78.8257241 C31.3241379,78.8733103 33.7655172,79.3098621 33.9227586,80.6774483 C33.9662069,81.0602069 33.6931034,81.4677931 33.6558621,81.8422759 C33.6475862,81.9498621 33.7282759,82.0284828 33.7096552,82.1091724 C33.5689655,82.7505517 33.1717241,83.1891724 32.9710345,83.696069 C32.4248276,84.2174483 31.5124138,83.9298621 30.8006897,84.2236552 C30.4262069,84.3767586 29.9172414,84.8381379 29.2117241,84.8071034" id="Fill-50"></path>
                <path d="M11.7475862,72.3163448 C11.9358621,72.4466897 11.9544828,72.7446207 12.2772414,72.7404828 C12.297931,73.3487586 12.8958621,73.5577241 13.1772414,73.9570345 C13.5744828,74.5197931 13.5931034,75.2749655 14.1310345,75.7570345 C14.1744828,76.323931 14.1496552,77.0584138 13.7586207,77.7142759 C12.4882759,78.606 10.5889655,79.0177241 9.84206897,80.5715172 C9.68068966,80.6108276 9.68689655,80.4804828 9.52551724,80.5177241 C8.49517241,81.3928966 7.91172414,82.7170345 7.24965517,83.9604828 C7.33862069,84.1032414 7.39655172,84.1984138 7.19586207,84.2770345 C7.51034483,84.6328966 8.35655172,84.4591034 8.67931034,84.8066897 C8.98965517,84.7197931 9.07034483,84.3701379 9.3662069,84.2232414 C9.73241379,84.0453103 10.377931,84.1715172 10.5331034,83.7473793 C11.0027586,83.8156552 11.0275862,83.4328966 11.4848276,83.4825517 C11.6524138,83.3873793 11.6751724,82.9570345 12.0124138,82.9528966 C12.2337931,82.9508276 12.4365517,83.3935862 12.6993103,83.5363448 C13.2413793,83.8301379 14.0317241,83.8342759 14.0255172,84.5418621 C14.0172414,84.9225517 13.6944828,84.9701379 13.7048276,85.388069 C13.2103448,85.6177241 13.1565517,86.283931 12.5937931,86.4453103 C11.4827586,88.0673793 10.0344828,89.3563448 8.83862069,90.8935862 C8.65862069,91.8432414 7.77931034,92.0915172 7.19586207,92.6397931 C7.56413793,92.5777241 7.87862069,92.3211724 8.14758621,92.3211724 C8.39586207,92.0811724 8.72068966,92.1328966 8.99586207,91.9508276 C10.142069,91.1977241 11.4,89.9832414 13.0717241,89.6749655 C13.8744828,89.526 14.4827586,89.7618621 15.3475862,90.0453103 C16.6324138,90.8584138 17.64,92.0542759 17.7806897,93.8542759 L17.3565517,93.8542759 C16.5703448,94.2328966 15.9910345,94.5577241 14.8696552,94.6487586 C14.7806897,94.7749655 14.5303448,94.7025517 14.6586207,94.9156552 C13.9841379,94.8101379 13.6903448,95.2694483 13.0717241,95.2322069 C12.54,94.8742759 12.2586207,93.8087586 11.5365517,94.383931 C11.3275862,94.5515172 11.1662069,94.8784138 10.9551724,95.0728966 C10.4958621,95.4928966 9.90827586,95.6977241 9.68482759,96.0784138 C8.4,96.6308276 7.32827586,97.4294483 5.71448276,97.7728966 C5.54482759,97.7253103 5.64206897,97.9466897 5.50344828,97.9301379 C4.5662069,97.9508276 4.21241379,97.386 3.38689655,97.2970345 C2.85517241,96.6784138 2.08965517,96.0163448 2.00896552,95.1266897 C1.36551724,94.8991034 1.81034483,93.4177241 2.00896552,92.9025517 C2.30275862,92.1535862 2.56965517,91.2784138 3.06827586,90.8377241 C3.25655172,90.6763448 3.56068966,90.5418621 3.81103448,90.3618621 C4.02827586,90.2066897 4.24965517,89.9584138 4.44413793,89.8342759 C4.63862069,89.708069 4.90965517,89.6915172 5.07931034,89.5694483 C5.58206897,89.2094483 5.94206897,88.5018621 6.19241379,88.0342759 C5.21172414,87.7322069 4.21862069,88.0156552 3.33310345,87.7177241 C2.27586207,86.9191034 1.72137931,85.5246207 1.85172414,83.9066897 C1.94482759,82.7646207 2.89034483,81.8232414 3.01655172,80.8363448 C3.45724138,80.4473793 3.80482759,79.748069 4.02206897,79.3011724 C4.82068966,78.2687586 5.49931034,77.1101379 6.24413793,76.0218621 C7.75034483,74.6522069 8.90068966,72.9266897 11.0068966,72.1570345 C11.2262069,72.2977241 11.5593103,72.4156552 11.7475862,72.3163448" id="Fill-52"></path>
                <path d="M5.29055172,102.376966 C5.83055172,102.333517 5.99193103,101.911448 6.40365517,101.741793 C6.01262069,102.486621 7.39675862,103.117655 6.34986207,103.434207 C6.30848276,103.634897 6.414,103.68869 6.40365517,103.858345 L6.13882759,103.858345 C6.27331034,104.628 5.70227586,105.24869 5.87193103,106.293517 C5.78089655,106.243862 5.77675862,106.10731 5.71468966,106.02869 C5.39813793,106.125931 5.16434483,106.10731 4.97606897,106.399034 C4.854,106.359724 4.70296552,106.351448 4.60365517,106.293517 C4.45675862,106.305931 4.38848276,106.428 4.28503448,106.450759 C3.41606897,106.639034 3.03744828,105.921103 2.06296552,105.869379 C1.75675862,105.556966 1.62227586,105.26731 1.32434483,104.915586 C1.23744828,104.818345 1.08227586,104.760414 1.00572414,104.650759 C0.393310345,103.781793 0.802965517,102.325241 0.000206896552,101.582483 C0.202965517,101.510069 0.422275862,100.930759 0.63537931,101.212138 C0.678827586,101.079724 0.802965517,101.028 0.898137931,100.94731 C1.92641379,101.098345 3.38089655,101.046621 4.33882759,101.530759 C4.54572414,101.921793 5.00710345,102.058345 5.29055172,102.376966" id="Fill-54"></path>
                <path d="M16.7753793,104.440138 C16.1381379,104.692552 15.5464138,104.626345 14.8698621,104.493931 C14.7291724,104.493931 14.7353793,104.640828 14.6588276,104.704966 C14.3505517,104.287034 13.551931,104.746345 13.494,104.334621 C13.2395172,104.469103 13.1174483,104.193931 12.7533103,104.280828 C12.7202069,103.962207 12.4057241,103.920828 12.4367586,103.540138 C12.5112414,103.457379 12.5691724,103.356 12.6995172,103.329103 C12.6312414,103.138759 12.7036552,103.134621 12.6477931,102.95669 C13.376069,101.942897 12.5588276,100.579448 12.0664138,99.8366897 C11.3898621,99.7973793 11.1602069,100.198759 10.9036552,100.577379 C11.0008966,101.111172 11.031931,101.591172 11.1664138,102.112552 C10.8912414,102.220138 11.0815862,102.462207 11.1146897,102.693931 C11.214,102.793241 11.2077931,102.662897 11.3774483,102.693931 C11.3836552,102.857379 11.3298621,102.960828 11.4312414,103.223586 C11.3277931,103.244276 11.3877931,103.428414 11.2181379,103.380828 C11.2864138,103.833931 11.3546897,104.411172 11.2181379,104.916 C11.031931,104.976 10.8291724,105.021517 10.8477931,105.288414 C10.496069,105.253241 10.2788276,105.352552 10.0533103,105.445655 C9.30641379,105.396 8.36296552,105.073241 7.93675862,104.334621 C7.80848276,104.109103 7.47951724,103.862897 7.40917241,103.699448 C7.10089655,102.989793 7.38434483,101.992552 6.774,101.580828 C6.64158621,101.574621 6.51537931,101.572552 6.50917241,101.688414 C6.42641379,101.218759 7.10710345,101.051172 7.19606897,100.577379 C7.71744828,100.740828 7.96365517,100.525655 8.46848276,100.471862 C9.08089655,100.403586 9.474,100.902207 9.894,100.842207 C10.4298621,100.765655 10.3491724,100.107724 10.9036552,99.9422069 C10.8684828,99.6070345 11.2346897,99.393931 11.1664138,99.1994483 C11.5967586,98.9946207 11.4933103,98.5725517 11.9071034,98.4608276 C12.0353793,98.4235862 12.2112414,98.5311724 12.3829655,98.5125517 C12.8112414,98.4691034 13.3636552,98.2084138 13.8643448,98.4070345 C15.1015862,99.8511724 17.0195172,100.670483 17.1995172,102.904966 C16.9843448,103.430483 16.9864138,104.011862 16.7753793,104.440138" id="Fill-56"></path>
                <path d="M60.093931,105.995379 C60.4187586,105.821586 60.7642759,106.042966 61.0973793,106.152621 C61.0766897,106.254 61.0787586,106.380207 60.938069,106.365724 C60.9918621,106.595379 61.2649655,106.504345 61.416,106.417448 C61.4222069,106.324345 61.3497931,106.307793 61.3622069,106.206414 C61.6994483,106.291241 62.0511724,106.363655 62.1566897,106.684345 C62.4235862,106.63469 62.616,106.506414 62.8953103,106.471241 C63.0153103,106.529172 62.9346207,106.785724 63.1622069,106.736069 C63.1022069,106.835379 63.093931,106.984345 63.0566897,107.106414 L62.7918621,107.106414 C62.9408276,107.365034 63.3401379,107.147793 63.638069,107.317448 C63.6546207,107.617448 63.5449655,107.909172 63.8491034,108.111931 C63.6546207,108.145034 63.6401379,108.360207 63.4270345,108.376759 C63.4849655,108.962276 63.0173793,109.024345 62.9511724,109.487793 C62.5684138,109.65331 62.5911724,110.060897 62.2622069,110.228483 C61.5422069,110.59469 60.818069,110.089862 60.093931,109.909862 C59.9987586,109.684345 59.9428966,109.425724 59.8808276,109.171241 C59.7691034,109.105034 59.7277241,108.970552 59.5642759,108.958138 C59.6822069,108.75331 59.5663448,108.649862 59.3532414,108.641586 C59.2063448,108.223655 59.1897931,107.749862 58.8753103,107.741586 C59.0056552,107.507793 58.9104828,107.350552 59.0325517,107.160207 C59.0677241,106.77331 58.473931,107.01331 58.5049655,106.628483 C58.6663448,106.591241 58.6601379,106.721586 58.8215172,106.684345 C58.956,106.510552 59.0035862,106.400897 58.8753103,106.206414 C59.2477241,106.144345 59.8311724,105.507103 60.093931,105.995379" id="Fill-58"></path>
                <path d="M70.6237241,94.670069 C71.232,94.7838621 71.4161379,94.250069 71.7864828,94.2976552 C71.8175172,93.8797241 71.6292414,93.6004138 71.2051034,93.5052414 C71.1637241,93.3024828 71.4595862,93.4431724 71.4161379,93.2404138 L71.1533793,93.2404138 C71.2588966,93.8342069 70.6878621,94.2686897 70.6237241,94.670069 M67.2368276,88.0017931 C65.9933793,87.8590345 65.6561379,89.2017931 66.1775172,90.0645517 C66.8602759,90.2114483 67.6878621,90.3045517 67.8182069,89.5348966 C67.4664828,89.1976552 67.6609655,88.9555862 67.2906207,88.6348966 C67.5533793,88.4631724 67.2182069,88.2231724 67.3423448,88.0017931 C67.3775172,87.8962759 67.6568276,88.0348966 67.6071724,87.8445517 C67.4044138,87.8176552 67.2761379,87.8652414 67.2368276,88.0017931 M70.2533793,88.1073103 C70.1478621,88.7611034 70.0257931,89.0673103 70.1995862,89.6424828 C70.6857931,89.5969655 71.1161379,89.6466207 71.5754483,89.748 C71.889931,89.0548966 71.9975172,88.1590345 72.2644138,87.4204138 C71.6106207,87.6645517 70.9113103,87.8673103 70.2533793,88.1073103 M66.4444138,86.2017931 C66.8892414,86.1376552 67.3857931,86.1231724 67.7664828,85.9907586 L67.7664828,85.250069 C67.089931,85.3328276 66.4051034,85.4073103 66.4444138,86.2017931 M70.1478621,84.5611034 C70.0588966,85.0224828 70.1395862,85.4983448 70.1995862,86.0424828 C70.8864828,85.7921379 71.7409655,85.7155862 72.2644138,85.3017931 C72.2271724,84.9355862 72.1382069,84.6169655 72.0016552,84.350069 C71.3375172,84.2052414 70.7023448,84.3438621 70.1478621,84.5611034 M73.1644138,74.7707586 C74.6913103,74.7873103 76.6568276,75.0376552 77.292,75.9355862 C77.4802759,75.9935172 77.5609655,76.1611034 77.769931,76.2004138 C77.8795862,77.0776552 77.654069,78.1369655 77.1864828,78.7390345 C76.6837241,78.7142069 76.512,79.0183448 76.3382069,79.3224828 C75.5188966,79.6617931 74.832,80.1211034 73.8513103,80.2224828 C73.1623448,80.2928276 72.3451034,79.8562759 71.7864828,80.1686897 C71.4326897,80.3673103 71.3375172,80.9217931 71.2051034,81.3335172 C72.2851034,81.7017931 73.574069,81.6417931 74.592,82.0204138 C74.9437241,82.1528276 75.8561379,82.850069 75.9678621,83.1852414 C76.094069,83.5597241 75.9285517,83.9838621 76.2347586,84.2445517 C76.0423448,86.7066207 75.9471724,89.3362759 74.9623448,91.3369655 C75.2561379,91.8645517 75.9575172,91.7031724 76.3382069,92.0238621 C76.7437241,92.3631724 76.5947586,92.8990345 76.7623448,93.5590345 C76.9278621,93.7638621 77.1388966,93.9211034 77.3975172,94.0348966 C77.5651034,94.5624828 77.4451034,95.1666207 77.6106207,95.7273103 C77.712,96.0811034 78.0926897,96.3128276 77.8733793,96.8921379 C77.8278621,97.0183448 77.5692414,97.1735172 77.4492414,97.368 C77.354069,97.5293793 77.3478621,97.730069 77.292,97.7921379 C76.8988966,98.2142069 76.269931,98.0673103 75.7568276,98.3217931 C75.4651034,98.1811034 75.1733793,98.1273103 74.8030345,98.1624828 C74.6706207,97.8728276 74.4471724,97.6742069 74.1182069,97.5811034 L74.1182069,97.2624828 C73.9071724,97.1197241 73.2823448,97.3969655 73.1644138,97.0514483 C72.912,97.0286897 72.8871724,97.2314483 72.6347586,97.2107586 C72.6388966,97.730069 72.4423448,98.4024828 72.4237241,98.8514483 C72.4382069,98.9073103 72.5271724,98.8866207 72.5292414,98.9569655 C74.0788966,98.9445517 74.2257931,100.949379 73.4809655,101.868 C73.1809655,101.936276 72.8188966,101.824552 72.5292414,101.868 C72.0864828,103.365931 72.3306207,104.934207 73.0051034,105.941793 C73.0133793,106.469379 73.0113103,106.918345 73.1106207,107.371448 C73.0816552,107.605241 72.9326897,107.721103 72.8975172,107.952828 C73.1209655,108.139034 73.1726897,108.48869 73.4292414,108.639724 C72.9016552,109.343172 72.5416552,110.208 71.6809655,110.439724 C71.4947586,110.522483 71.652,110.261793 71.5237241,110.280414 C70.8637241,110.361103 70.3588966,110.599034 69.8830345,110.863862 C68.6602759,110.623862 68.3126897,112.130069 67.2368276,112.026621 C66.3678621,111.945931 65.7844138,111.298345 65.2795862,110.704552 C64.9175172,110.282483 64.6588966,109.951448 64.5906207,109.223172 C64.8575172,108.871448 65.1906207,108.588 65.2795862,108.058345 C65.412,108.296276 65.6313103,108.44731 65.8630345,108.588 C66.7651034,108.486621 67.4623448,108.178345 68.2961379,108.006621 C68.4864828,107.731448 68.8257931,107.766621 69.0885517,107.582483 C69.549931,107.261793 69.6451034,106.601793 69.8292414,106.152828 C69.8168276,106.078345 69.672,106.136276 69.672,106.04731 C70.1230345,105.126621 68.9768276,104.532828 69.4051034,103.876966 C69.1568276,103.800414 69.3326897,103.626621 69.2457931,103.401103 C68.8464828,103.494207 68.5692414,103.711448 68.2423448,103.876966 C67.2492414,103.994897 66.192,104.224552 65.3313103,104.619724 C64.7726897,104.876276 64.332,104.977655 63.7982069,105.095586 C63.5002759,105.159724 63.2002759,105.240414 63.0037241,105.465931 C62.292,105.639724 61.389931,105.484552 60.5685517,105.254897 C60.1382069,104.855586 59.6457931,104.520414 59.1409655,104.195586 C58.8057931,103.624552 58.5430345,102.912828 57.9761379,102.44731 C58.0382069,101.896966 58.1126897,101.609379 58.452,101.284552 C58.7313103,101.392138 59.0768276,101.416966 59.352,101.284552 C60.4754483,101.60731 61.5285517,101.040414 62.5257931,100.80869 C64.394069,100.376276 66.2706207,100.099034 67.9257931,99.3790345 C67.7706207,98.988 67.752,98.4583448 67.5554483,98.1086897 C66.849931,98.3445517 66.2333793,98.5555862 65.6478621,98.7955862 C64.4954483,99.0148966 63.3285517,99.0893793 62.2113103,98.9569655 C60.4961379,98.7521379 60.0906207,96.9521379 60.7278621,95.570069 C60.9471724,95.4086897 61.0216552,95.388 61.149931,95.1976552 C62.1471724,95.0838621 63.2064828,94.9493793 63.9554483,95.4107586 C65.2713103,95.1914483 66.9161379,95.3011034 67.3423448,94.1942069 C66.5457931,94.3266207 65.5506207,93.9645517 64.6961379,93.8238621 C64.7271724,93.5590345 64.3154483,93.4783448 64.0092414,93.3997241 C63.8892414,93.3190345 63.8271724,92.9735172 63.6368276,92.8183448 C62.7968276,92.5824828 62.4285517,91.8748966 61.7333793,91.4942069 C61.3175172,90.6376552 60.8726897,89.385931 60.5168276,88.0555862 C60.3885517,87.5817931 60.5582069,86.8038621 60.4092414,86.148 C60.3161379,85.730069 59.772,85.4342069 59.774069,84.9852414 C59.6188966,84.945931 59.5713103,84.7990345 59.352,84.825931 C59.3788966,84.5011034 59.8692414,84.6376552 59.9333793,84.350069 C60.8933793,84.2755862 61.2554483,83.6114483 62.049931,83.8204138 C62.1285517,83.7748966 62.2547586,83.7790345 62.2113103,83.6093793 C62.8816552,83.450069 63.3823448,83.7107586 63.8478621,83.3962759 C64.0547586,83.4314483 64.4768276,83.5390345 64.4851034,83.2390345 C65.5754483,82.9597241 67.1126897,82.7962759 67.7126897,81.8631724 C67.6982069,81.7535172 67.5161379,81.8135172 67.5016552,81.705931 C67.4230345,81.5031724 67.6464828,81.6024828 67.6071724,81.4390345 C67.4251034,81.0293793 67.4788966,80.1893793 66.8664828,80.4335172 C66.4133793,80.6135172 65.7988966,81.3335172 65.172,81.2817931 C64.9506207,81.2611034 64.9051034,81.0769655 64.749931,81.0148966 C64.4002759,80.8783448 64.1188966,80.9962759 63.6906207,80.9631724 C63.6864828,80.6838621 63.4754483,80.6135172 63.3202759,80.4852414 C63.2582069,79.4590345 61.9361379,79.2562759 61.6278621,78.5817931 C61.5554483,78.4286897 61.2988966,78.0211034 61.2037241,77.8928276 C61.1561379,77.8307586 61.0485517,77.8907586 60.9906207,77.8411034 C60.7423448,77.6052414 60.8085517,77.085931 60.6223448,76.8873103 C61.092,76.9762759 61.2264828,76.5976552 61.6795862,76.728 C61.8037241,76.7135172 61.8037241,76.5852414 61.6795862,76.5707586 C62.1926897,76.3017931 62.6147586,76.5231724 63.1609655,76.4652414 C63.7030345,76.4052414 64.1623448,76.068 64.6961379,75.8817931 C65.5857931,75.5735172 66.5106207,75.590069 67.6071724,75.5114483 C67.5864828,75.3086897 67.3464828,75.5342069 67.2368276,75.3521379 C67.2782069,75.1038621 67.3671724,74.9548966 67.5554483,74.9817931 C67.4788966,74.7645517 67.6692414,74.4045517 67.8182069,74.2411034 C67.5616552,74.1976552 67.6547586,73.8066207 67.2906207,73.8707586 C67.3506207,73.7052414 67.2947586,73.7507586 67.2906207,73.5542069 C67.1892414,73.4962759 67.0402759,73.485931 66.9182069,73.4486897 C67.0009655,73.3535172 67.2285517,73.4052414 67.2368276,73.2355862 C67.2595862,73.0183448 67.0485517,73.0369655 67.0257931,72.8652414 C67.2057931,72.8155862 67.1706207,72.5548966 67.2906207,72.4411034 C67.3713103,72.2528276 67.1085517,72.410069 67.1292414,72.2838621 C67.3361379,71.7997241 66.8913103,71.4273103 67.2368276,70.9597241 C67.4975172,70.8521379 67.7954483,70.7776552 68.1368276,70.7486897 C68.1761379,70.550069 68.0726897,70.4962759 68.0830345,70.3245517 C68.1264828,70.2790345 68.2278621,70.2935172 68.2423448,70.2211034 C69.8830345,71.1355862 72.6864828,70.8914483 73.4809655,72.6542069 C73.3651034,73.2769655 73.1995862,73.8852414 73.1644138,74.7707586" id="Fill-60"></path>
                <path d="M50.3544828,94.0870345 C50.3213793,94.4077241 50.0358621,94.476 49.9324138,94.7222069 C50.2034483,96.0091034 49.9510345,97.5463448 51.1489655,97.8442759 C51.4158621,97.716 51.7427586,97.6373793 51.9951724,97.6332414 C52.2703448,96.1787586 52.2496552,94.5918621 52.1006897,93.2925517 C51.4034483,93.4104828 50.9193103,94.0125517 50.3544828,94.0870345 M55.2765517,84.878069 C54.837931,84.5015172 54.7096552,85.1015172 54.2710345,85.2504828 C54.2834483,85.5628966 54.1717241,85.6332414 54.2710345,85.8318621 C53.8034483,87.3525517 52.7213793,88.6332414 51.8358621,89.9056552 C52.9593103,90.2428966 54.4386207,89.2746207 55.8041379,89.5891034 C56.3668966,89.7173793 56.6048276,90.2677241 56.9710345,90.7001379 C56.9855172,91.3435862 57.0331034,91.8111724 56.9172414,92.3946207 C56.8944828,92.5042759 56.757931,92.6118621 56.757931,92.7628966 C56.762069,93.2573793 56.8841379,94.5318621 56.7062069,95.1442759 C56.6110345,95.4670345 56.3234483,95.8435862 56.2303448,96.2056552 C56.2903448,96.3194483 56.3648276,96.4208276 56.3358621,96.6256552 C56.0234483,97.9022069 55.7503448,99.218069 55.1193103,100.173931 C54.5172414,100.366345 53.9503448,100.593931 53.3172414,100.75531 C53.0917241,101.200138 52.442069,101.498069 51.9413793,101.231172 C51.3227586,101.245655 50.6503448,101.725655 49.9841379,101.709103 C49.4358621,101.692552 49.1089655,101.27669 48.5544828,101.231172 C48.5172414,100.881517 48.1593103,100.850483 47.8675862,100.75531 C47.8262069,100.55669 48.0703448,100.641517 48.0786207,100.490483 C48.0268966,100.382897 47.8758621,100.37669 47.7082759,100.384966 C47.6731034,99.9111724 47.3006897,99.9256552 47.0751724,99.7497931 C47.1848276,99.6401379 47.1455172,99.4973793 47.337931,99.3794483 C47.2117241,99.1187586 47.037931,98.9015172 46.862069,98.6904828 C46.9158621,98.0573793 46.7275862,96.9815172 46.3324138,96.573931 C46.4958621,95.9987586 46.3117241,95.5973793 46.3841379,95.1442759 C45.3248276,95.4194483 44.0586207,97.5173793 42.84,96.4684138 C42.5193103,95.9449655 42.8482759,95.3284138 42.6289655,94.9332414 C42.78,94.8401379 42.8586207,94.6684138 42.9993103,94.5628966 C42.9641379,94.3166897 43.082069,94.2235862 43.1048276,94.0353103 C44.22,93.2077241 45.1655172,92.2146207 45.8565517,90.9649655 C46.62,90.4042759 46.7855172,89.2497931 47.6565517,88.7946207 C48.1675862,87.9297931 49.0841379,87.0815172 48.7137931,85.9373793 C47.457931,86.4877241 46.1813793,85.7822069 45.3806897,85.1428966 C45.0910345,84.5594483 44.937931,84.1249655 44.3731034,83.8725517 C44.3668966,83.7442759 44.3668966,83.618069 44.4268966,83.556 C44.2448276,83.5973793 44.2241379,83.4773793 44.0565517,83.5042759 C44.1558621,83.2146207 44.2758621,82.9456552 44.5324138,82.8153103 C44.3937931,82.4428966 44.0565517,82.0415172 44.162069,81.5966897 C44.2841379,81.5263448 44.462069,81.5097931 44.5862069,81.4394483 C44.7682759,81.4166897 44.7455172,81.5966897 44.8510345,81.6504828 C46.1668966,81.4746207 47.0172414,80.5022069 48.237931,80.1173793 C48.6310345,79.9911724 48.9910345,80.0470345 49.4544828,80.0118621 C50.1868966,79.9497931 50.9151724,79.5546207 51.6765517,79.4263448 C51.9103448,79.3891034 52.082069,79.3746207 52.3117241,79.3208276 C52.7751724,79.2194483 53.5075862,79.0663448 54.1117241,79.1097931 C54.9227586,79.1697931 55.7462069,79.536 56.5986207,79.9042759 C56.822069,80.0015172 57.1303448,79.9870345 57.3393103,80.1173793 C57.7510345,80.3677241 58.262069,81.0484138 58.2910345,81.4394483 C58.3282759,81.8822069 57.9289655,82.3166897 57.7096552,82.656 C57.3786207,83.1732414 57.0786207,83.7318621 56.7062069,84.0318621 C56.4206897,84.2615172 55.9862069,84.2822069 55.8041379,84.6153103 C55.5082759,84.5801379 55.3303448,84.6691034 55.2765517,84.878069" id="Fill-62"></path>
                <path d="M62.2245517,6.252 L62.2245517,2.13268966 C62.2245517,2.13268966 62.5121379,-0.000413793103 60.0914483,-0.000413793103 L59.6093793,-0.000413793103 L59.1273103,-0.000413793103 C56.7066207,-0.000413793103 56.9942069,2.13268966 56.9942069,2.13268966 L56.9942069,6.252 C56.9942069,6.252 43.5128276,22.992 22.7693793,21.8395862 C22.7693793,21.8395862 23.6486897,23.114069 27.9542069,23.4223448 C32.5348966,23.7513103 50.3466207,24.1713103 59.0693793,13.4830345 C59.0693793,13.4830345 59.2617931,13.1726897 59.6093793,13.1375172 C59.9569655,13.1726897 60.1493793,13.4830345 60.1493793,13.4830345 C68.870069,24.1713103 86.6838621,23.7513103 91.2645517,23.4223448 C95.570069,23.114069 96.4493793,21.8395862 96.4493793,21.8395862 C75.705931,22.992 62.2245517,6.252 62.2245517,6.252" id="Fill-64"></path>
                <path d="M39.4675862,33.9821379 C39.6372414,35.298 39.78,35.9869655 41.0565517,36.1317931 C41.9524138,36.2352414 42.9744828,36.1731724 43.8744828,36.1338621 C45.837931,36.0490345 48.9786207,35.540069 48.2813793,32.9021379 C47.7517241,30.8973103 44.7806897,31.6173103 43.02,31.6173103 C42.2648276,31.6173103 40.7751724,31.3338621 40.1317241,31.7331724 C39.0724138,32.3911034 39.5751724,32.6124828 39.4675862,33.3366207 L39.4675862,33.9821379 Z" id="Fill-66"></path>
                <path d="M53.601931,31.4917241 C54.5971034,31.922069 55.226069,31.98 57.2081379,32.157931 C58.2736552,32.2531034 59.5646897,32.1 59.8998621,33.4448276 C60.264,34.9137931 58.6481379,35.0296552 57.626069,35.2965517 C56.0743448,35.7 53.3184828,36.4489655 51.7253793,35.9027586 C49.4205517,35.1103448 50.4115862,31.2413793 53.0102069,31.5103448 L53.601931,31.4917241 Z" id="Fill-68"></path>
                <path d="M62.2545517,31.9396552 C62.8442069,30.9506897 67.0421379,31.5589655 68.1635172,31.7513793 C69.0573103,31.9044828 70.4497241,31.8693103 70.9773103,32.6906897 C71.4966207,33.5017241 71.298,35.0244828 70.6731724,35.4651724 C69.1545517,36.5286207 66.0386897,35.7734483 64.4269655,35.4031034 C63.2973103,35.1444828 62.5007586,35.3431034 62.118,34.1906897 C61.5717931,32.547931 62.3848966,31.712069 63.7586897,30.9734483" id="Fill-70"></path>
                <path d="M79.6675862,33.5522069 C80.8241379,31.2556552 72.6062069,29.2466897 72.8937931,33.6370345 C73.0344828,35.8032414 74.4558621,35.7163448 76.3324138,35.8156552 C78.362069,35.9232414 79.8682759,35.9811724 79.7751724,33.4446207" id="Fill-72"></path>
                <path d="M66.6616552,37.4215862 C68.712,37.4215862 70.754069,37.4629655 72.7878621,37.5291724 C73.7416552,37.5602069 75.0016552,37.3057241 75.3823448,38.3629655 C75.6595862,39.1326207 75.0844138,40.4733103 74.8485517,41.1767586 C74.049931,43.556069 71.3333793,42.2567586 69.4795862,41.8305517 C68.472,41.6008966 67.274069,41.5946897 66.7588966,40.5643448 C66.3802759,39.8071034 66.3430345,38.6174483 66.5416552,37.8105517 L66.6616552,37.4215862 Z" id="Fill-74"></path>
                <path d="M56.1277241,37.3142069 C57.9753103,36.6024828 61.0684138,36.6128276 63.0091034,36.9086897 C64.1946207,37.0886897 64.478069,37.4776552 64.4097931,38.7086897 C64.358069,39.6562759 64.3311724,40.6824828 63.4394483,41.1128276 C62.0304828,41.7935172 59.7194483,41.388 58.1946207,41.3983448 C57.0463448,41.4066207 56.5208276,41.4893793 56.258069,40.2397241 C56.0946207,39.470069 55.8028966,38.5742069 55.9663448,37.8107586 L56.1277241,37.3142069 Z" id="Fill-76"></path>
                <path d="M44.9642069,37.6098621 C44.1428276,38.331931 44.7697241,39.9064138 44.9207586,40.8684828 C45.1297241,42.2071034 45.5248966,42.1388276 46.7786897,42.1512414 C48.7338621,42.1698621 51.1628276,41.8574483 52.9276552,40.9698621 C54.0862759,40.3884828 54.0242069,39.5277931 53.7593793,38.2822759 C53.4655862,36.891931 52.9276552,37.0967586 51.6138621,37.0988276 C50.4614483,37.1008966 45.7276552,36.5464138 45.2724828,37.314 L44.9642069,37.6098621 Z" id="Fill-78"></path>
                <path d="M39.5749655,38.3890345 C39.5832414,39.3738621 39.7342759,40.8490345 40.2142759,41.718 C40.6756552,42.5538621 40.5411724,42.4773103 41.403931,42.4752414 C41.8094483,42.4752414 42.4797931,42.2890345 42.6825517,41.9745517 C43.0632414,41.3931724 42.8625517,39.4442069 42.6618621,38.8462759 C42.2211724,37.5304138 41.0956552,37.6173103 39.7901379,38.1738621 C39.7901379,38.1738621 39.5728966,38.2276552 39.5749655,38.3890345" id="Fill-80"></path>
                <path d="M78.4046897,38.1552414 C76.4577931,37.3421379 76.8922759,40.8345517 76.8922759,42.0262759 C79.0833103,43.5366207 79.0915862,39.7897241 79.346069,38.4966207" id="Fill-82"></path>
                <path d="M41.7517241,43.9783448 C40.8993103,44.5307586 40.8517241,44.6176552 40.7793103,45.588 C40.7503448,45.9914483 41.0006897,46.6969655 41.1558621,47.0714483 C41.6565517,48.288 42.2006897,48.3666207 43.437931,48.3852414 C44.8510345,48.405931 48.3662069,49.2811034 49.2455172,47.748 C49.5517241,47.2142069 49.2827586,45.2073103 49.1462069,44.6176552 C48.837931,43.2728276 48.24,43.4424828 46.9862069,43.4404138 C45.9165517,43.4383448 45.9165517,43.4383448 44.8737931,43.5748966 C43.8,43.7155862 43.4855172,43.7797241 42.4241379,43.8438621 L41.7517241,43.9783448 Z" id="Fill-84"></path>
                <path d="M50.9685517,43.8709655 C52.0423448,42.4682069 54.9554483,43.0061379 56.4326897,43.2233793 C57.5954483,43.3930345 57.9057931,43.5047586 58.3009655,44.4916552 C58.6092414,45.2633793 58.7954483,46.4302759 58.1851034,47.1047586 C57.0926897,48.3213103 54.3616552,48.0833793 53.0147586,47.5578621 C52.272,47.2682069 51.1547586,46.7675172 50.7430345,46.0247586 C50.4306207,45.464069 50.1202759,45.0171724 50.6188966,44.2744138 L50.9685517,43.8709655 Z" id="Fill-86"></path>
                <path d="M60.5391724,44.0596552 C60.2784828,44.9244828 60.6053793,45.2617241 60.7667586,46.0210345 C61.0067586,47.1548276 61.5943448,47.5686207 62.7095172,47.6348276 C64.2343448,47.7258621 67.4702069,47.3824138 68.6474483,46.3748276 C69.381931,45.7437931 69.6653793,44.5582759 68.906069,43.8403448 C68.2233103,43.1968966 67.0998621,43.47 66.2557241,43.4410345 C64.7371034,43.3893103 62.0950345,42.452069 60.7502069,43.4410345 L60.5391724,44.0596552 Z" id="Fill-88"></path>
                <path d="M78.0552414,43.8709655 C76.2552414,42.8654483 69.9573103,42.7371724 71.4842069,46.4551034 C72.0035172,47.7213103 74.6724828,47.8868276 75.8807586,47.742 C77.9952414,47.4916552 78.0552414,46.2171724 78.0552414,44.4088966 L78.0552414,43.8709655 Z" id="Fill-90"></path>
                <path d="M65.7151034,48.9742759 C67.5254483,48.4694483 69.584069,49.4046207 71.4771724,49.6715172 C72.4061379,49.803931 73.3868276,49.9694483 73.664069,50.9625517 C73.8916552,51.7818621 73.4737241,53.2818621 72.6916552,53.4742759 C70.9413103,53.9046207 69.3544138,53.9046207 67.4178621,53.648069 C66.5695862,53.5363448 65.2268276,53.9397931 64.8978621,53.0604828 C64.6392414,52.3673793 64.604069,50.2011724 64.9806207,49.6218621 C64.9806207,49.6218621 65.5288966,49.026 65.7151034,48.9742759" id="Fill-92"></path>
                <path d="M55.268069,49.2453103 C56.8611724,48.666 59.5156552,48.6018621 61.1832414,49.0611724 C62.1473793,49.323931 62.7804828,49.5453103 62.9046207,50.6418621 C62.9770345,51.2915172 62.9211724,53.2363448 62.4349655,53.583931 C61.9777241,53.9108276 59.9542759,53.6977241 59.343931,53.7266897 C58.568069,53.763931 57.7653103,53.7494483 56.9894483,53.7246207 C56.1970345,53.6997931 55.1832414,53.8073793 54.7653103,52.9797931 C54.3597931,52.1791034 54.4756552,50.5053103 54.9184138,49.8908276 L55.268069,49.2453103 Z" id="Fill-94"></path>
                <path d="M44.8737931,50.2125517 C44.577931,51.2822069 44.8675862,51.6318621 45.0641379,52.6911724 C45.2875862,53.8891034 45.18,54.1684138 46.5682759,54.0608276 C47.4124138,53.9946207 48.2937931,53.798069 49.142069,53.678069 C49.9531034,53.5642759 51.0351724,53.7422069 51.7924138,53.4546207 C52.9303448,53.0242759 52.74,52.0477241 52.6903448,50.9822069 C52.6282759,49.6166897 52.4068966,49.3415172 51.0517241,49.2422069 C50.1972414,49.1801379 49.2186207,49.1594483 48.3682759,49.2422069 C47.2096552,49.356 46.0510345,49.5132414 44.9482759,49.9973793 L44.8737931,50.2125517 Z" id="Fill-96"></path>
                <path d="M77.1953793,53.3294483 C76.7236552,53.6294483 75.7636552,54.2832414 75.2857241,53.6149655 C75.111931,53.3728966 75.2029655,52.3384138 75.236069,52.0404828 C75.4036552,50.5197931 76.2457241,49.0777241 77.3029655,50.2115172 C78.0974483,51.066 77.1953793,53.3294483 77.1953793,53.3294483" id="Fill-98"></path>
                <path d="M41.6172414,49.8902069 C41.2117241,50.3267586 41.7682759,52.0564138 41.8324138,52.7081379 C41.9172414,53.5729655 42.3289655,54.8950345 43.4834483,53.7984828 C44.4248276,52.9067586 44.5013793,49.6564138 42.3972414,49.8798621 L41.6172414,49.8902069 Z" id="Fill-100"></path>
            </g>
        </g>
    </g>
</svg>