<?xml version="1.0" encoding="UTF-8" standalone="no"?>
<svg width="150px" height="44px" viewBox="0 0 150 44" version="1.1" xmlns="http://www.w3.org/2000/svg" xmlns:xlink="http://www.w3.org/1999/xlink">
    <!-- Generator: Sketch 40.2 (33826) - http://www.bohemiancoding.com/sketch -->
    <title>RBV_logo_H</title>
    <desc>Created with Sketch.</desc>
    <defs></defs>
    <g id="紅磚屋_UI-KIT" stroke="none" stroke-width="1" fill="none" fill-rule="evenodd">
        <g id="UI-KIT" transform="translate(-385.000000, -403.000000)">
            <g id="RBV_logo_H" transform="translate(385.000000, 403.000000)">
                <path d="M64.17,39.6583163 C64.4853061,39.6384184 64.7638776,39.5925 65.0041837,39.5236224 C65.2444898,39.4532143 65.4465306,39.3521939 65.6072449,39.2190306 C65.7694898,39.087398 65.8919388,38.9190306 65.9761224,38.7139286 C66.0587755,38.5103571 66.1016327,38.262398 66.1016327,37.9715816 C66.1016327,37.7312755 66.0557143,37.5215816 65.9669388,37.3409694 C65.8766327,37.1618878 65.7511224,37.0134184 65.5934694,36.8970918 C65.4327551,36.7807653 65.2444898,36.6935204 65.0286735,36.6353571 C64.8128571,36.5787245 64.5786735,36.5496429 64.3291837,36.5496429 C64.1669388,36.5496429 64.0444898,36.5634184 63.9618367,36.5909694 C63.8791837,36.6169898 63.8393878,36.6919898 63.8393878,36.8144388 L63.8393878,43.1710714 C63.8393878,43.2690306 63.7904082,43.3256633 63.692449,43.3425 C63.6220408,43.3547449 63.5470408,43.3654592 63.4628571,43.3761735 C63.3786735,43.3868878 63.297551,43.3945408 63.2179592,43.4006633 C63.1368367,43.4067857 63.0633673,43.4113776 62.9960204,43.4129082 C62.9286735,43.4144388 62.8781633,43.4159694 62.847551,43.4159694 C62.7480612,43.4159694 62.6990816,43.3639286 62.6990816,43.2629082 L62.6990816,37.1144388 C62.6990816,36.9108673 62.6546939,36.7746429 62.5643878,36.7072959 C62.4740816,36.6384184 62.3577551,36.6047449 62.2154082,36.6047449 C62.1327551,36.6047449 62.042449,36.6108673 61.9460204,36.6246429 L61.9077551,36.2863776 C62.3164286,36.2175 62.7404082,36.1593367 63.1812245,36.1118878 C63.6205102,36.0644388 64.0689796,36.0414796 64.525102,36.0414796 C64.7210204,36.0414796 64.9276531,36.0506633 65.145,36.0659694 C65.3608163,36.0828061 65.575102,36.1134184 65.7832653,36.1578061 C65.989898,36.2037245 66.1888776,36.264949 66.3771429,36.3445408 C66.5638776,36.4241327 66.7307143,36.5297449 66.8715306,36.6583163 C67.0108163,36.7868878 67.1240816,36.9414796 67.2067347,37.1236224 C67.2909184,37.3057653 67.3322449,37.5215816 67.3322449,37.7710714 C67.3322449,38.0358673 67.2939796,38.270051 67.2143878,38.4720918 C67.1332653,38.6741327 67.0230612,38.8532143 66.8822449,39.0078061 C66.7429592,39.1639286 66.5776531,39.2970918 66.3893878,39.4072959 C66.2011224,39.5175 65.9990816,39.6108673 65.7832653,39.6889286 L65.7832653,39.7256633 C65.8842857,39.7455612 65.9944898,39.7777041 66.1123469,39.8205612 C66.2332653,39.8634184 66.3480612,39.9246429 66.4597959,40.0042347 C66.5715306,40.0838265 66.6771429,40.1848469 66.7720408,40.3072959 C66.8684694,40.4297449 66.945,40.5828061 67.0016327,40.7618878 L67.4546939,42.1654592 C67.5189796,42.3583163 67.5740816,42.5113776 67.6245918,42.6261735 C67.675102,42.7394388 67.7302041,42.8266837 67.7868367,42.8848469 C67.8434694,42.9445408 67.9092857,42.9828061 67.9827551,43.0027041 C68.0562245,43.0210714 68.1495918,43.0302551 68.2597959,43.0302551 L68.2781633,43.3486224 C68.200102,43.3639286 68.1143878,43.3807653 68.022551,43.3945408 C67.9307143,43.4083163 67.8388776,43.4205612 67.750102,43.4282143 C67.6597959,43.4358673 67.5786735,43.4435204 67.5082653,43.4496429 C67.4363265,43.4557653 67.3827551,43.4588265 67.3460204,43.4588265 C67.2143878,43.4588265 67.0980612,43.4435204 66.9970408,43.4129082 C66.8944898,43.3822959 66.8026531,43.3287245 66.72,43.2537245 C66.6388776,43.1771939 66.5654082,43.0777041 66.5026531,42.9521939 C66.4383673,42.8282143 66.3802041,42.6720918 66.3281633,42.4838265 L65.8934694,40.9884184 C65.8322449,40.7756633 65.7587755,40.6057653 65.6715306,40.4802551 C65.5873469,40.3532143 65.4786735,40.2567857 65.350102,40.1879082 C65.2215306,40.1205612 65.0669388,40.0761735 64.8847959,40.0532143 C64.7026531,40.0317857 64.4837755,40.014949 64.225102,40.0072959 L64.17,39.6583163 Z" id="Fill-1" fill="#231815"></path>
                <path d="M72.0994898,40.4611224 C72.1117347,40.4044898 72.1209184,40.3493878 72.1239796,40.2958163 C72.1285714,40.2422449 72.130102,40.1871429 72.130102,40.1305102 C72.130102,40.0157143 72.1132653,39.9070408 72.0780612,39.8060204 C72.0428571,39.7034694 71.9938776,39.6146939 71.9280612,39.5381633 C71.8622449,39.4631633 71.7811224,39.4034694 71.6831633,39.3606122 C71.5836735,39.3177551 71.475,39.2963265 71.352551,39.2963265 C71.155102,39.2963265 70.9867347,39.3330612 70.8459184,39.4034694 C70.705102,39.4754082 70.5887755,39.5703061 70.4969388,39.6896939 C70.405102,39.807551 70.3362245,39.9453061 70.2903061,40.1029592 C70.2459184,40.2606122 70.2214286,40.4243878 70.2183673,40.5958163 L72.0994898,40.4611224 Z M73.4602041,42.8152041 C73.2642857,42.910102 73.0576531,42.9958163 72.8403061,43.0754082 C72.6244898,43.155 72.4132653,43.2238776 72.2066327,43.2805102 C72.0015306,43.3386735 71.8086735,43.3830612 71.6295918,43.4136735 C71.4520408,43.4442857 71.3035714,43.4580612 71.1857143,43.4580612 C70.855102,43.4580612 70.5612245,43.3968367 70.3056122,43.2713265 C70.05,43.1473469 69.8357143,42.9820408 69.6627551,42.7754082 C69.4897959,42.5687755 69.3566327,42.3315306 69.2663265,42.0606122 C69.177551,41.7912245 69.1331633,41.5111224 69.1331633,41.2203061 C69.1331633,40.8453061 69.2020408,40.502449 69.3397959,40.1947959 C69.4790816,39.8856122 69.6688776,39.6223469 69.9076531,39.4034694 C70.1479592,39.1845918 70.425,39.0162245 70.744898,38.8953061 C71.0632653,38.7743878 71.4,38.7146939 71.755102,38.7146939 C71.9892857,38.7146939 72.1943878,38.749898 72.375,38.8218367 C72.5556122,38.8922449 72.7056122,38.9902041 72.8295918,39.1157143 C72.9520408,39.2412245 73.0454082,39.3912245 73.1112245,39.5657143 C73.1755102,39.7417347 73.2091837,39.9345918 73.2091837,40.1427551 C73.2091837,40.3218367 73.1739796,40.5468367 73.1035714,40.8162245 L70.2229592,40.9692857 C70.2397959,41.2279592 70.2903061,41.4621429 70.377551,41.674898 C70.4632653,41.8876531 70.5841837,42.0713265 70.7418367,42.2259184 C70.8994898,42.3820408 71.0908163,42.5029592 71.3173469,42.5886735 C71.5454082,42.6743878 71.8056122,42.7172449 72.0994898,42.7172449 C72.2954082,42.7172449 72.505102,42.6927551 72.7270408,42.6468367 C72.9505102,42.5993878 73.1510204,42.5412245 73.3255102,42.4723469 L73.4602041,42.8152041 Z" id="Fill-3" fill="#231815"></path>
                <path d="M78.3041327,39.9528061 C78.3041327,39.8181122 78.2704592,39.7033163 78.2031122,39.6114796 C78.1357653,39.5196429 78.050051,39.4477041 77.9490306,39.3910714 C77.8464796,39.3359694 77.7347449,39.2961735 77.6122959,39.2716837 C77.4883163,39.2471939 77.3704592,39.234949 77.2556633,39.234949 C76.9908673,39.234949 76.7628061,39.2747449 76.5714796,39.3543367 C76.3816837,39.4339286 76.2286224,39.5456633 76.1092347,39.6895408 C75.9898469,39.8318878 75.9041327,40.0033163 75.8475,40.2007653 C75.7939286,40.3997449 75.7663776,40.6140306 75.7663776,40.8482143 C75.7663776,41.042602 75.7893367,41.2553571 75.8367857,41.4818878 C75.8842347,41.7084184 75.9607653,41.9196429 76.0663776,42.1140306 C76.1719898,42.3068878 76.3112755,42.467602 76.4842347,42.5946429 C76.6556633,42.7216837 76.8668878,42.7844388 77.1148469,42.7844388 C77.1515816,42.7844388 77.2066837,42.7798469 77.2801531,42.7721939 C77.3536224,42.7645408 77.4439286,42.7492347 77.5464796,42.7262755 C77.6505612,42.7033163 77.7668878,42.6727041 77.8954592,42.6344388 C78.0240306,42.5961735 78.1602551,42.5456633 78.3041327,42.4844388 L78.3041327,39.9528061 Z M77.5694388,35.4221939 C78.0179082,35.2997449 78.3883163,35.2125 78.677602,35.1619898 C78.9684184,35.1114796 79.1413776,35.0854592 79.1995408,35.0854592 C79.3296429,35.0854592 79.3954592,35.1589286 79.3954592,35.3058673 L79.3954592,42.4660714 C79.3954592,42.6038265 79.4046429,42.732398 79.4214796,42.8487245 C79.4413776,42.965051 79.4628061,43.0767857 79.4857653,43.182398 L79.4934184,43.2191327 C79.4934184,43.2803571 79.4520918,43.3216837 79.3694388,43.3415816 C79.317398,43.3553571 79.2577041,43.3660714 79.1903571,43.3752551 C79.1214796,43.3859694 79.052602,43.3951531 78.9806633,43.4012755 C78.9087245,43.4058673 78.8398469,43.4104592 78.7709694,43.4135204 C78.7005612,43.415051 78.6378061,43.4165816 78.5796429,43.4165816 C78.5337245,43.4165816 78.5015816,43.4028061 78.4786224,43.3783163 C78.4571939,43.3553571 78.4388265,43.3170918 78.4265816,43.2696429 L78.3347449,42.9252551 C78.1434184,42.9987245 77.9520918,43.0691327 77.7638265,43.1334184 C77.5755612,43.1992347 77.3980102,43.2558673 77.2311735,43.3033163 C77.0628061,43.3492347 76.9112755,43.3875 76.7719898,43.4165816 C76.6327041,43.4441327 76.5133163,43.4594388 76.4168878,43.4594388 C76.1505612,43.4594388 75.9117857,43.3920918 75.6959694,43.2558673 C75.4801531,43.1211735 75.2980102,42.9497449 75.1464796,42.7415816 C74.9964796,42.5334184 74.8816837,42.3022959 74.8005612,42.0497449 C74.7209694,41.7956633 74.6811735,41.5492347 74.6811735,41.307398 C74.6811735,40.8895408 74.7577041,40.5221939 74.9077041,40.2007653 C75.0592347,39.8808673 75.2658673,39.6084184 75.527602,39.3880102 C75.7878061,39.167602 76.0954592,39.0007653 76.4459694,38.8859694 C76.7980102,38.7711735 77.1745408,38.7145408 77.5740306,38.7145408 C77.8204592,38.7145408 78.0638265,38.7329082 78.3041327,38.7696429 L78.3041327,36.2625 C78.3041327,36.0451531 78.2704592,35.8982143 78.200051,35.8170918 C78.1311735,35.7390306 78.0163776,35.6977041 77.8571939,35.6977041 C77.7791327,35.6977041 77.6964796,35.7053571 77.6046429,35.7160714 L77.5694388,35.4221939 Z" id="Fill-5" fill="#231815"></path>
                <path d="M90.0512755,42.8152041 C90.1002551,42.827449 90.1614796,42.8381633 90.2380102,42.8488776 C90.3145408,42.8595918 90.3956633,42.8687755 90.4798469,42.8764286 C90.5655612,42.8856122 90.6558673,42.8902041 90.7461735,42.8947959 C90.8395408,42.8993878 90.9252551,42.9009184 91.0079082,42.9009184 C91.3048469,42.9009184 91.5543367,42.8565306 91.7548469,42.7692857 C91.9553571,42.6820408 92.1160714,42.5703061 92.2339286,42.4340816 C92.3517857,42.3009184 92.4359694,42.1539796 92.484949,41.9963265 C92.5339286,41.8386735 92.5584184,41.6932653 92.5584184,41.5585714 C92.5584184,41.2279592 92.5063776,40.9555102 92.4022959,40.7396939 C92.2982143,40.5254082 92.1512755,40.3570408 91.959949,40.2315306 C91.7701531,40.1060204 91.5420918,40.0203061 91.2742347,39.9743878 C91.0063776,39.9269388 90.7109694,39.9039796 90.3880102,39.9039796 L90.2165816,39.9039796 L90.1339286,39.9039796 C90.1063776,39.9039796 90.0803571,39.9055102 90.0512755,39.910102 L90.0512755,42.8152041 Z M90.0512755,39.4126531 C90.0910714,39.4126531 90.132398,39.4141837 90.1706633,39.4157143 C90.2104592,39.4187755 90.2471939,39.4187755 90.2839286,39.4187755 C90.6237245,39.4187755 90.9191327,39.3927551 91.1716837,39.3391837 C91.4257653,39.2856122 91.6354592,39.2029592 91.8022959,39.0881633 C91.9660714,38.9733673 92.090051,38.8264286 92.1727041,38.6442857 C92.2538265,38.4621429 92.2951531,38.2402041 92.2951531,37.9784694 C92.2951531,37.7213265 92.2507653,37.5009184 92.1665816,37.3203061 C92.0793367,37.1381633 91.959949,36.9881633 91.8084184,36.8718367 C91.6538265,36.7555102 91.4701531,36.6713265 91.2558673,36.6177551 C91.040051,36.5657143 90.8043367,36.5381633 90.5471939,36.5381633 C90.3727041,36.5381633 90.2456633,36.5504082 90.167602,36.574898 C90.0895408,36.5993878 90.0512755,36.6728571 90.0512755,36.7953061 L90.0512755,39.4126531 Z M88.1196429,36.2871429 C88.4808673,36.2289796 88.8711735,36.1738776 89.2905612,36.1203061 C89.7114796,36.0682653 90.1859694,36.0422449 90.7140306,36.0422449 C90.909949,36.0422449 91.1135204,36.049898 91.3293367,36.0667347 C91.5451531,36.0820408 91.7548469,36.1126531 91.9630102,36.1539796 C92.1727041,36.1983673 92.3701531,36.2595918 92.5584184,36.3391837 C92.7466837,36.4187755 92.9119898,36.5213265 93.057398,36.6483673 C93.2028061,36.7754082 93.317602,36.93 93.4017857,37.1106122 C93.4844388,37.2927551 93.5272959,37.5070408 93.5272959,37.7519388 C93.5272959,37.932551 93.4966837,38.110102 93.4354592,38.2876531 C93.3742347,38.4667347 93.282398,38.6335714 93.1614796,38.7912245 C93.0405612,38.9488776 92.8936224,39.0896939 92.7145408,39.2167347 C92.5369898,39.3437755 92.3303571,39.4463265 92.0992347,39.5228571 L92.0992347,39.5473469 C92.1681122,39.5611224 92.259949,39.5810204 92.3747449,39.6116327 C92.4895408,39.6422449 92.6104592,39.6881633 92.7390306,39.7478571 C92.867602,39.8060204 92.9977041,39.8810204 93.1293367,39.9713265 C93.2594388,40.060102 93.3772959,40.1687755 93.4798469,40.2958163 C93.5854592,40.4228571 93.6696429,40.5713265 93.7354592,40.7396939 C93.7997449,40.9095918 93.8334184,41.1055102 93.8334184,41.3259184 C93.8334184,41.4116327 93.8227041,41.5233673 93.8028061,41.6595918 C93.7829082,41.7973469 93.7385204,41.9427551 93.6711735,42.0973469 C93.6022959,42.2534694 93.507398,42.4095918 93.3834184,42.5672449 C93.2579082,42.724898 93.0910714,42.8657143 92.8844388,42.9927551 C92.6747449,43.1197959 92.417602,43.2223469 92.1114796,43.3019388 C91.8053571,43.3830612 91.4380102,43.4213265 91.0140306,43.4213265 C90.8211735,43.4213265 90.6512755,43.4182653 90.5012755,43.4090816 C90.3528061,43.4014286 90.2058673,43.3907143 90.0604592,43.3784694 C89.915051,43.3662245 89.765051,43.3570408 89.607398,43.3478571 C89.4497449,43.3402041 89.2660714,43.3356122 89.0594388,43.3356122 C88.959949,43.3356122 88.9109694,43.285102 88.9109694,43.182551 L88.9109694,37.1136735 C88.9109694,36.910102 88.8665816,36.7738776 88.7762755,36.7065306 C88.6859694,36.6391837 88.5696429,36.6055102 88.4272959,36.6055102 C88.3446429,36.6055102 88.2543367,36.6116327 88.1579082,36.6238776 L88.1196429,36.2871429 Z" id="Fill-8" fill="#231815"></path>
                <path d="M94.9630102,39.0881633 C95.184949,39.0269388 95.3885204,38.974898 95.5752551,38.9320408 C95.7635204,38.8891837 95.9303571,38.8539796 96.0772959,38.824898 C96.2211735,38.7958163 96.3390306,38.7759184 96.4308673,38.7636735 C96.5242347,38.7514286 96.5839286,38.7453061 96.6114796,38.7453061 C96.7431122,38.7453061 96.8089286,38.8187755 96.8089286,38.9657143 L96.8089286,39.2779592 C96.9482143,39.2014286 97.0905612,39.1264286 97.2375,39.057551 C97.3844388,38.9886735 97.5283163,38.927449 97.6706633,38.8769388 C97.809949,38.8264286 97.9446429,38.785102 98.0732143,38.757551 C98.2033163,38.7284694 98.3165816,38.7146939 98.4145408,38.7146939 C98.5247449,38.7146939 98.6227041,38.7330612 98.7053571,38.7728571 C98.7895408,38.8111224 98.8614796,38.8631633 98.9196429,38.9289796 C98.9793367,38.9932653 99.0221939,39.0682653 99.0528061,39.1493878 C99.0818878,39.2320408 99.0941327,39.3146939 99.0941327,39.4004082 C99.0941327,39.4907143 99.0788265,39.5779592 99.0497449,39.6606122 C99.017602,39.7447959 98.9716837,39.8197959 98.907398,39.8840816 C98.8446429,39.949898 98.765051,40.0034694 98.6716837,40.0402041 C98.5767857,40.08 98.4681122,40.099898 98.3410714,40.099898 L98.2125,40.099898 C98.1910714,40.099898 98.1696429,40.0983673 98.1451531,40.0968367 C98.1206633,40.0953061 98.0977041,40.0907143 98.0778061,40.0876531 L98.0778061,39.9529592 C98.0778061,39.7646939 98.0395408,39.6330612 97.9645408,39.5580612 C97.8880102,39.4815306 97.7915816,39.4432653 97.6737245,39.4432653 C97.5512755,39.4432653 97.4135204,39.4692857 97.2589286,39.5228571 C97.1058673,39.5764286 96.9558673,39.6437755 96.8089286,39.7264286 L96.8089286,43.1703061 C96.8089286,43.2682653 96.759949,43.324898 96.6604592,43.3417347 C96.5915816,43.3555102 96.5181122,43.3662245 96.4385204,43.3754082 C96.357398,43.3861224 96.2808673,43.3937755 96.2089286,43.399898 C96.1354592,43.4060204 96.0665816,43.4106122 96.0053571,43.4136735 C95.9441327,43.4152041 95.8966837,43.4167347 95.8645408,43.4167347 C95.765051,43.4167347 95.717602,43.3646939 95.717602,43.2621429 L95.717602,39.9223469 C95.717602,39.705 95.682398,39.5580612 95.6135204,39.4769388 C95.5431122,39.3973469 95.4359694,39.357551 95.2890306,39.357551 C95.2431122,39.357551 95.1987245,39.3590816 95.1558673,39.3606122 C95.1145408,39.3636735 95.0609694,39.3697959 94.9997449,39.3820408 L94.9630102,39.0881633 Z" id="Fill-10" fill="#231815"></path>
                <path d="M101.799949,36.8386224 C101.799949,37.0590306 101.741786,37.2182143 101.625459,37.3161735 C101.509133,37.4141327 101.340765,37.4646429 101.120357,37.4646429 C100.936684,37.4646429 100.795867,37.4080102 100.696378,37.2978061 C100.598418,37.187602 100.550969,37.0345408 100.550969,36.8386224 C100.550969,36.6182143 100.610663,36.4590306 100.731582,36.362602 C100.850969,36.2677041 101.020867,36.2202551 101.242806,36.2202551 C101.42648,36.2202551 101.565765,36.2738265 101.659133,36.3825 C101.754031,36.4896429 101.799949,36.6427041 101.799949,36.8386224 L101.799949,36.8386224 Z M99.9172959,39.0886224 C100.139235,39.027398 100.344337,38.9738265 100.531071,38.9325 C100.719337,38.8896429 100.884643,38.8529082 101.031582,38.8238265 C101.17699,38.7962755 101.294847,38.7763776 101.385153,38.762602 C101.47852,38.7503571 101.538214,38.7457653 101.567296,38.7457653 C101.698929,38.7457653 101.764745,38.8177041 101.764745,38.9661735 L101.764745,43.1707653 C101.764745,43.2687245 101.714235,43.3253571 101.616276,43.3421939 C101.547398,43.3544388 101.472398,43.3666837 101.392806,43.3758673 C101.313214,43.3865816 101.236684,43.3942347 101.163214,43.4003571 C101.089745,43.4064796 101.020867,43.4110714 100.959643,43.412602 C100.898418,43.4141327 100.8525,43.4156633 100.818827,43.4156633 C100.720867,43.4156633 100.673418,43.3651531 100.673418,43.262602 L100.673418,39.9228061 C100.673418,39.7054592 100.636684,39.5569898 100.567806,39.477398 C100.497398,39.3978061 100.390255,39.3580102 100.243316,39.3580102 C100.197398,39.3580102 100.154541,39.3580102 100.110153,39.3610714 C100.068827,39.362602 100.016786,39.3702551 99.9555612,39.3825 L99.9172959,39.0886224 Z" id="Fill-12" fill="#231815"></path>
                <path d="M106.553265,40.0873469 C106.553265,39.9679592 106.547143,39.8608163 106.534898,39.7628571 C106.521122,39.664898 106.492041,39.5807143 106.443061,39.5087755 C106.392551,39.4368367 106.323673,39.3817347 106.231837,39.3419388 C106.138469,39.3036735 106.012959,39.2853061 105.853776,39.2853061 C105.624184,39.2853061 105.432857,39.3235714 105.275204,39.400102 C105.119082,39.4781633 104.99051,39.5822449 104.892551,39.7138776 C104.794592,39.8439796 104.722653,39.9970408 104.676735,40.1730612 C104.632347,40.3490816 104.609388,40.5373469 104.609388,40.7363265 C104.609388,41.014898 104.647653,41.2735714 104.721122,41.5123469 C104.794592,41.7511224 104.904796,41.9608163 105.053265,42.1414286 C105.203265,42.3205102 105.391531,42.4613265 105.622653,42.5638776 C105.850714,42.6664286 106.121633,42.7169388 106.436939,42.7169388 C106.518061,42.7169388 106.609898,42.7108163 106.712449,42.6985714 C106.815,42.6863265 106.919082,42.6710204 107.026224,42.6526531 C107.131837,42.6342857 107.234388,42.6113265 107.338469,42.5853061 C107.43949,42.5592857 107.534388,42.5317347 107.618571,42.5026531 L107.760918,42.8455102 C107.568061,42.9312245 107.36602,43.0123469 107.154796,43.0873469 C106.942041,43.1638776 106.735408,43.2281633 106.534898,43.2832653 C106.334388,43.3383673 106.147653,43.3827551 105.976224,43.4133673 C105.806327,43.4439796 105.66398,43.4592857 105.553776,43.4592857 C105.227755,43.4592857 104.936939,43.3980612 104.685918,43.2756122 C104.434898,43.1531633 104.225204,42.9878571 104.052245,42.7812245 C103.880816,42.5761224 103.749184,42.3373469 103.658878,42.0679592 C103.570102,41.7970408 103.524184,41.5154082 103.524184,41.2215306 C103.524184,40.8419388 103.596122,40.497551 103.74,40.1883673 C103.882347,39.8807143 104.078265,39.6159184 104.327755,39.3970408 C104.577245,39.1796939 104.869592,39.0097959 105.204796,38.8919388 C105.54,38.7740816 105.898163,38.7143878 106.282347,38.7143878 C106.438469,38.7143878 106.593061,38.7281633 106.746122,38.7572449 C106.900714,38.7847959 107.036939,38.8353061 107.159388,38.9041837 C107.283367,38.9730612 107.381327,39.0664286 107.457857,39.1796939 C107.532857,39.2944898 107.571122,39.4383673 107.571122,39.6097959 C107.571122,39.8256122 107.499184,39.9817347 107.355306,40.0781633 C107.212959,40.1745918 107.033878,40.2220408 106.822653,40.2220408 C106.732347,40.2220408 106.643571,40.2159184 106.553265,40.2036735 L106.553265,40.0873469 Z" id="Fill-14" fill="#231815"></path>
                <path d="M108.60398,35.4223469 C109.05398,35.299898 109.422857,35.2126531 109.713673,35.1621429 C110.002959,35.110102 110.177449,35.0856122 110.235612,35.0856122 C110.364184,35.0856122 110.43,35.1590816 110.43,35.3060204 L110.43,40.8590816 L112.116735,39.0453061 C112.156531,39.0039796 112.197857,38.9733673 112.236122,38.9534694 C112.275918,38.9320408 112.323367,38.9152041 112.38,38.8983673 C112.468776,38.8738776 112.568265,38.852449 112.673878,38.8340816 C112.78102,38.8157143 112.883571,38.8004082 112.983061,38.7881633 C113.084082,38.7759184 113.172857,38.7667347 113.25398,38.7606122 C113.333571,38.7544898 113.388673,38.7514286 113.422347,38.7514286 C113.491224,38.7514286 113.526429,38.7835714 113.526429,38.8493878 C113.526429,38.8692857 113.509592,38.8968367 113.477449,38.9289796 L111.43102,40.5468367 L113.667245,43.1703061 C113.687143,43.202449 113.697857,43.23 113.697857,43.249898 C113.697857,43.2988776 113.670306,43.3310204 113.613673,43.3417347 C113.543265,43.3555102 113.460612,43.3662245 113.362653,43.3754082 C113.267755,43.3861224 113.172857,43.3937755 113.07949,43.399898 C112.984592,43.4060204 112.898878,43.4106122 112.820816,43.4136735 C112.744286,43.4152041 112.686122,43.4167347 112.650918,43.4167347 C112.595816,43.4167347 112.549898,43.4044898 112.511633,43.3830612 C112.471837,43.360102 112.42898,43.3203061 112.38,43.2621429 L110.43,40.9754082 L110.43,43.1703061 C110.43,43.2682653 110.38102,43.324898 110.284592,43.3417347 C110.214184,43.3555102 110.139184,43.3662245 110.059592,43.3754082 C109.98,43.3861224 109.903469,43.3937755 109.83,43.399898 C109.756531,43.4060204 109.689184,43.4106122 109.627959,43.4136735 C109.566735,43.4152041 109.519286,43.4167347 109.487143,43.4167347 C109.389184,43.4167347 109.340204,43.3646939 109.340204,43.2621429 L109.340204,36.2626531 C109.340204,36.0453061 109.305,35.8983673 109.234592,35.8172449 C109.165714,35.7376531 109.050918,35.6978571 108.893265,35.6978571 C108.815204,35.6978571 108.73102,35.7055102 108.640714,35.7162245 L108.60398,35.4223469 Z" id="Fill-17" fill="#231815"></path>
                <path d="M127.392857,36.4155612 C127.421939,36.3252551 127.487755,36.2640306 127.594898,36.2318878 C127.653061,36.215051 127.714286,36.2028061 127.778571,36.1951531 C127.844388,36.1875 127.908673,36.1798469 127.969898,36.1737245 C128.031122,36.167602 128.086224,36.1630102 128.136735,36.1614796 C128.190306,36.1584184 128.228571,36.1584184 128.256122,36.1584184 C128.302041,36.1584184 128.331122,36.1645408 128.346429,36.1798469 C128.360204,36.1936224 128.367857,36.2119898 128.367857,36.2318878 C128.367857,36.2487245 128.357143,36.282398 128.337245,36.3359694 L125.42602,43.2941327 C125.392347,43.3630102 125.358673,43.3997449 125.320408,43.4028061 C125.30051,43.407398 125.266837,43.4119898 125.219388,43.4165816 C125.173469,43.4196429 125.12449,43.4227041 125.072449,43.4257653 C125.021939,43.4272959 124.972959,43.4288265 124.92551,43.4303571 C124.878061,43.4334184 124.847449,43.4334184 124.830612,43.4334184 C124.807653,43.4334184 124.783163,43.4272959 124.760204,43.4165816 C124.738776,43.4028061 124.718878,43.3767857 124.702041,43.3354592 L122.286735,37.1135204 C122.213265,36.9221939 122.127551,36.7936224 122.026531,36.7278061 C121.927041,36.6635204 121.810714,36.6298469 121.680612,36.6298469 C121.639286,36.6298469 121.597959,36.6329082 121.555102,36.6359694 C121.510714,36.6405612 121.464796,36.6466837 121.417347,36.6543367 L121.379082,36.317602 C121.559694,36.2808673 121.740306,36.2487245 121.919388,36.2227041 C122.098469,36.1951531 122.262245,36.1737245 122.412245,36.1553571 C122.562245,36.1369898 122.687755,36.1232143 122.788776,36.1125 C122.892857,36.1017857 122.957143,36.0971939 122.986224,36.0971939 C123.047449,36.0971939 123.093367,36.1170918 123.120918,36.1553571 C123.15,36.1936224 123.177551,36.2487245 123.206633,36.317602 L125.393878,42.0237245 L125.419898,42.0237245 L127.392857,36.4155612 Z" id="Fill-19" fill="#231815"></path>
                <path d="M130.999745,36.8386224 C130.999745,37.0590306 130.941582,37.2182143 130.825255,37.3161735 C130.707398,37.4141327 130.540561,37.4646429 130.320153,37.4646429 C130.13648,37.4646429 129.995663,37.4080102 129.896173,37.2978061 C129.798214,37.187602 129.750765,37.0345408 129.750765,36.8386224 C129.750765,36.6182143 129.810459,36.4590306 129.931378,36.362602 C130.050765,36.2677041 130.220663,36.2202551 130.442602,36.2202551 C130.626276,36.2202551 130.765561,36.2738265 130.858929,36.3825 C130.953827,36.4896429 130.999745,36.6427041 130.999745,36.8386224 L130.999745,36.8386224 Z M129.117092,39.0886224 C129.339031,39.027398 129.544133,38.9738265 129.730867,38.9325 C129.919133,38.8896429 130.084439,38.8529082 130.231378,38.8238265 C130.376786,38.7962755 130.494643,38.7763776 130.584949,38.762602 C130.678316,38.7503571 130.73801,38.7457653 130.767092,38.7457653 C130.898724,38.7457653 130.964541,38.8177041 130.964541,38.9661735 L130.964541,43.1707653 C130.964541,43.2687245 130.914031,43.3253571 130.816071,43.3421939 C130.747194,43.3544388 130.672194,43.3666837 130.592602,43.3758673 C130.51301,43.3865816 130.43648,43.3942347 130.36301,43.4003571 C130.289541,43.4064796 130.220663,43.4110714 130.159439,43.412602 C130.098214,43.4141327 130.052296,43.4156633 130.018622,43.4156633 C129.920663,43.4156633 129.873214,43.3651531 129.873214,43.262602 L129.873214,39.9228061 C129.873214,39.7054592 129.83648,39.5569898 129.767602,39.477398 C129.697194,39.3978061 129.590051,39.3580102 129.443112,39.3580102 C129.397194,39.3580102 129.354337,39.3580102 129.309949,39.3610714 C129.268622,39.362602 129.216582,39.3702551 129.155357,39.3825 L129.117092,39.0886224 Z" id="Fill-21" fill="#231815"></path>
                <path d="M132.479541,35.4223469 C132.929541,35.299898 133.298418,35.2126531 133.589235,35.1621429 C133.87852,35.110102 134.05301,35.0856122 134.109643,35.0856122 C134.239745,35.0856122 134.305561,35.1590816 134.305561,35.3060204 L134.305561,43.1703061 C134.305561,43.2682653 134.256582,43.324898 134.160153,43.3417347 C134.089745,43.3555102 134.014745,43.3662245 133.935153,43.3754082 C133.855561,43.3861224 133.779031,43.3937755 133.705561,43.399898 C133.632092,43.4060204 133.564745,43.4106122 133.50352,43.4136735 C133.442296,43.4152041 133.394847,43.4167347 133.362704,43.4167347 C133.264745,43.4167347 133.214235,43.3646939 133.214235,43.2621429 L133.214235,36.2626531 C133.214235,36.0453061 133.180561,35.8983673 133.110153,35.8172449 C133.041276,35.7376531 132.92648,35.6978571 132.767296,35.6978571 C132.690765,35.6978571 132.606582,35.7055102 132.516276,35.7162245 L132.479541,35.4223469 Z" id="Fill-23" fill="#231815"></path>
                <path d="M135.821786,35.4223469 C136.271786,35.299898 136.640663,35.2126531 136.93148,35.1621429 C137.220765,35.110102 137.395255,35.0856122 137.451888,35.0856122 C137.58199,35.0856122 137.647806,35.1590816 137.647806,35.3060204 L137.647806,43.1703061 C137.647806,43.2682653 137.598827,43.324898 137.502398,43.3417347 C137.43199,43.3555102 137.35699,43.3662245 137.277398,43.3754082 C137.197806,43.3861224 137.121276,43.3937755 137.047806,43.399898 C136.974337,43.4060204 136.90699,43.4106122 136.845765,43.4136735 C136.784541,43.4152041 136.737092,43.4167347 136.704949,43.4167347 C136.60699,43.4167347 136.55648,43.3646939 136.55648,43.2621429 L136.55648,36.2626531 C136.55648,36.0453061 136.522806,35.8983673 136.452398,35.8172449 C136.38352,35.7376531 136.268724,35.6978571 136.109541,35.6978571 C136.03301,35.6978571 135.948827,35.7055102 135.85852,35.7162245 L135.821786,35.4223469 Z" id="Fill-25" fill="#231815"></path>
                <path d="M142.237194,41.1598469 C142.044337,41.1720918 141.865255,41.1843367 141.696888,41.1935204 C141.530051,41.2042347 141.37699,41.2195408 141.237704,41.2394388 C141.098418,41.2593367 140.975969,41.2914796 140.868827,41.3343367 C140.763214,41.3771939 140.6775,41.4384184 140.611684,41.514949 C140.562704,41.5731122 140.522908,41.6435204 140.489235,41.7307653 C140.457092,41.8164796 140.440255,41.9098469 140.440255,42.012398 C140.440255,42.0981122 140.454031,42.1853571 140.481582,42.2756633 C140.506071,42.3659694 140.55352,42.4486224 140.620867,42.5236224 C140.688214,42.5986224 140.780051,42.6613776 140.893316,42.7103571 C141.008112,42.7593367 141.15352,42.7838265 141.329541,42.7838265 C141.354031,42.7838265 141.393827,42.7807653 141.448929,42.7715816 C141.504031,42.7639286 141.571378,42.7516837 141.650969,42.7317857 C141.730561,42.714949 141.820867,42.6889286 141.917296,42.6552551 C142.015255,42.6231122 142.116276,42.5817857 142.217296,42.5328061 L142.237194,41.1598469 Z M139.699439,39.2236224 C139.910663,39.1379082 140.120357,39.0613776 140.32699,38.9955612 C140.533622,38.9312755 140.72801,38.8761735 140.910153,38.8333163 C141.090765,38.7904592 141.256071,38.7583163 141.406071,38.7353571 C141.556071,38.712398 141.67852,38.7016837 141.77648,38.7016837 C142.071888,38.7016837 142.318316,38.7353571 142.518827,38.8027041 C142.717806,38.870051 142.880051,38.9771939 143.0025,39.1241327 C143.124949,39.272602 143.213724,39.4593367 143.267296,39.6858673 C143.319337,39.912398 143.343827,40.1848469 143.340765,40.5047449 L143.308622,42.5021939 C143.305561,42.6292347 143.313214,42.7486224 143.334643,42.8572959 C143.354541,42.9690306 143.375969,43.0761735 143.40199,43.1833163 C143.405051,43.1863776 143.408112,43.2032143 143.408112,43.2322959 C143.408112,43.2935204 143.366786,43.3302551 143.285663,43.3425 C143.230561,43.3547449 143.170867,43.3654592 143.10352,43.3761735 C143.036173,43.3868878 142.968827,43.3945408 142.899949,43.4006633 C142.829541,43.4067857 142.760663,43.4113776 142.690255,43.4129082 C142.621378,43.4144388 142.560153,43.4159694 142.506582,43.4159694 C142.460663,43.4159694 142.42699,43.4037245 142.404031,43.3792347 C142.382602,43.3547449 142.365765,43.3180102 142.35352,43.2690306 L142.272398,42.9751531 C142.117806,43.0440306 141.958622,43.1083163 141.794847,43.1664796 C141.632602,43.2277041 141.474949,43.2782143 141.32648,43.3210714 C141.17801,43.3639286 141.041786,43.397602 140.919337,43.4220918 C140.796888,43.4465816 140.695867,43.4588265 140.617806,43.4588265 C140.40199,43.4588265 140.213724,43.4190306 140.054541,43.3394388 C139.895357,43.2598469 139.765255,43.1603571 139.661173,43.0379082 C139.560153,42.9185204 139.483622,42.7853571 139.434643,42.639949 C139.387194,42.4960714 139.361173,42.3583163 139.361173,42.2266837 C139.361173,41.9940306 139.4025,41.7965816 139.486684,41.6358673 C139.570867,41.4736224 139.684133,41.3404592 139.82801,41.2333163 C139.955051,41.139949 140.10199,41.0618878 140.271888,41.0006633 C140.441786,40.9394388 140.62852,40.8919898 140.832092,40.8567857 C141.037194,40.8215816 141.257602,40.7970918 141.494847,40.7802551 C141.732092,40.7634184 141.981582,40.7511735 142.243316,40.7435204 L142.249439,40.5353571 C142.2525,40.3470918 142.241786,40.1787245 142.214235,40.0287245 C142.188214,39.8802551 142.140765,39.7532143 142.071888,39.6521939 C142.00148,39.5496429 141.906582,39.4715816 141.788724,39.4195408 C141.670867,39.3659694 141.520867,39.339949 141.341786,39.339949 C141.121378,39.339949 140.890255,39.3644388 140.65301,39.4134184 C140.414235,39.462398 140.140255,39.5358673 139.834133,39.6338265 L139.699439,39.2236224 Z" id="Fill-27" fill="#231815"></path>
                <path d="M148.044184,40.2039796 C147.999796,40.052449 147.953878,39.9146939 147.90949,39.7922449 C147.865102,39.6697959 147.806939,39.5657143 147.735,39.4769388 C147.663061,39.3896939 147.571224,39.3223469 147.46102,39.274898 C147.352347,39.227449 147.21,39.2044898 147.038571,39.2044898 C146.931429,39.2044898 146.825816,39.2152041 146.720204,39.235102 C146.613061,39.255 146.518163,39.2886735 146.430918,39.3330612 C146.346735,39.377449 146.277857,39.4371429 146.224286,39.5106122 C146.169184,39.5840816 146.144694,39.6759184 146.144694,39.7861224 C146.144694,39.8978571 146.173776,39.9927551 146.235,40.0754082 C146.296224,40.1565306 146.378878,40.23 146.481429,40.2927551 C146.58398,40.3570408 146.701837,40.4152041 146.836531,40.4672449 C146.971224,40.5208163 147.11051,40.5743878 147.252857,40.6264286 C147.425816,40.6876531 147.594184,40.7580612 147.76102,40.8361224 C147.929388,40.9126531 148.079388,41.0044898 148.212551,41.1116327 C148.345714,41.2172449 148.454388,41.3427551 148.537041,41.4881633 C148.621224,41.6335714 148.662551,41.805 148.662551,42.0055102 C148.662551,42.2641837 148.596735,42.4845918 148.463571,42.6682653 C148.330408,42.8519388 148.16051,43.0019388 147.952347,43.1182653 C147.744184,43.2345918 147.513061,43.3203061 147.262041,43.3754082 C147.01102,43.4305102 146.767653,43.4580612 146.530408,43.4580612 C146.386531,43.4580612 146.225816,43.4442857 146.045204,43.4136735 C145.866122,43.3830612 145.697755,43.332551 145.540102,43.2621429 C145.38398,43.1932653 145.250816,43.1014286 145.143673,42.9866327 C145.038061,42.8718367 144.98602,42.7310204 144.98602,42.5641837 C144.98602,42.3636735 145.053367,42.2182653 145.188061,42.1279592 C145.322755,42.0391837 145.494184,41.9932653 145.702347,41.9932653 C145.748265,41.9932653 145.785,41.9947959 145.818673,41.9963265 C145.850816,41.9993878 145.890612,42.0039796 145.935,42.0116327 L145.935,42.1157143 C145.935,42.3866327 145.999286,42.5932653 146.127857,42.7386735 C146.257959,42.882551 146.470714,42.9560204 146.769184,42.9560204 C146.879388,42.9560204 146.985,42.9437755 147.08449,42.9192857 C147.18551,42.8947959 147.272755,42.8580612 147.349286,42.8090816 C147.424286,42.760102 147.48551,42.6973469 147.532959,42.6223469 C147.578878,42.5458163 147.603367,42.4570408 147.603367,42.3560204 C147.603367,42.2289796 147.571224,42.1218367 147.506939,42.0330612 C147.444184,41.9458163 147.361531,41.8677551 147.255918,41.8004082 C147.151837,41.7330612 147.032449,41.6733673 146.897755,41.6197959 C146.763061,41.5662245 146.623776,41.5111224 146.481429,41.4544898 C146.313061,41.3932653 146.146224,41.3259184 145.977857,41.252449 C145.81102,41.1789796 145.65949,41.0902041 145.529388,40.9861224 C145.396224,40.8805102 145.28602,40.755 145.203367,40.6080612 C145.119184,40.4611224 145.077857,40.2835714 145.077857,40.0754082 C145.077857,39.8213265 145.143673,39.6085714 145.275306,39.4340816 C145.408469,39.2611224 145.576837,39.1187755 145.780408,39.0116327 C145.980918,38.9029592 146.201327,38.8264286 146.438571,38.7789796 C146.674286,38.7315306 146.897755,38.7085714 147.107449,38.7085714 C147.307959,38.7085714 147.500816,38.7208163 147.689082,38.7453061 C147.877347,38.7697959 148.062551,38.8095918 148.246224,38.8677551 C148.278367,38.8754082 148.295204,38.8922449 148.295204,38.9167347 C148.304388,38.9856122 148.31051,39.0820408 148.318163,39.2014286 C148.324286,39.3223469 148.328878,39.4463265 148.333469,39.5718367 C148.335,39.6988776 148.339592,39.8182653 148.341122,39.9315306 C148.342653,40.0432653 148.344184,40.1259184 148.344184,40.1794898 L148.044184,40.2039796 Z" id="Fill-29" fill="#231815"></path>
                <path d="M135.109745,14.6341837 C135.193929,14.6510204 135.299541,14.8607143 135.369949,14.7076531 C135.412806,14.7413265 135.414337,14.8209184 135.489337,14.8163265 C135.405153,14.944898 135.310255,14.7780612 135.177092,14.8591837 C135.161786,14.7857143 135.086786,14.7780612 135.083724,14.6923469 C135.111276,14.6908163 135.103622,14.6571429 135.109745,14.6341837" id="Fill-31" fill="#231815"></path>
                <path d="M138.389541,20.2545918 C138.466071,20.25 138.542602,20.2469388 138.617602,20.2438776 C138.609949,20.3938776 138.795153,20.3295918 138.770663,20.4933673 C138.596173,20.5484694 138.426276,20.4413265 138.389541,20.2545918" id="Fill-33" fill="#231815"></path>
                <path d="M130.525408,21.8943367 C130.583571,21.9310714 130.542245,22.1086224 130.448878,22.0979082 C130.451939,22.0642347 130.441224,22.047398 130.418265,22.0412755 C130.459592,21.9968878 130.543776,21.9922959 130.525408,21.8943367" id="Fill-35" fill="#231815"></path>
                <path d="M129.750306,24.327398 C129.796224,24.354949 129.756429,24.5325 129.673776,24.5325 C129.663061,24.4284184 129.748776,24.4177041 129.750306,24.327398" id="Fill-37" fill="#231815"></path>
                <path d="M129.598776,24.7631633 C129.578878,24.8167347 129.557449,24.8703061 129.549796,24.9376531 C129.487041,24.9131633 129.500816,24.7310204 129.598776,24.7631633" id="Fill-39" fill="#231815"></path>
                <path d="M134.157551,28.3258163 C134.197347,28.2630612 134.227959,28.3441837 134.298367,28.2921429 C134.289184,28.3395918 134.322857,28.3441837 134.358061,28.3457143 C134.321327,28.4207143 134.209592,28.3319388 134.157551,28.3258163" id="Fill-41" fill="#231815"></path>
                <path d="M129.033061,24.2465816 C129.105,24.1118878 129.183061,23.9817857 129.273367,23.8654592 C129.052959,23.7521939 128.846327,24.162398 129.033061,24.2465816 M128.327449,23.7919898 C128.428469,23.7935204 128.446837,23.720051 128.492755,23.6710714 C128.466735,23.645051 128.309082,23.6190306 128.293776,23.6802551 C128.336633,23.6833163 128.322857,23.747602 128.327449,23.7919898 M129.092755,23.672602 C129.150918,23.6787245 129.170816,23.7261735 129.210612,23.7521939 C129.221327,23.6986224 129.268776,23.6787245 129.261122,23.6083163 C129.202959,23.6021939 129.201429,23.5333163 129.144796,23.5271939 C129.083571,23.5960714 129.121837,23.6052551 129.092755,23.672602 M129.57949,22.4220918 C129.671327,22.4067857 129.642245,22.2797449 129.65449,22.1909694 C129.510612,22.1986224 129.622347,22.3807653 129.57949,22.4220918 M130.663163,20.5180102 C130.624898,20.6052551 130.678469,20.6282143 130.643265,20.6894388 C130.753469,20.672602 130.742755,20.6542347 130.814694,20.7108673 C130.872857,20.6634184 130.874388,20.5654592 130.860612,20.4506633 C130.771837,20.4521939 130.784082,20.5455612 130.663163,20.5180102 M131.636633,18.0185204 C131.515714,17.9833163 131.494286,18.1777041 131.560102,18.2220918 C131.67949,18.1884184 131.691735,17.9542347 131.60602,17.9909694 C131.622857,17.9925 131.641224,17.9925 131.636633,18.0185204 M131.593776,17.7047449 C131.639694,17.7261735 131.639694,17.795051 131.711633,17.7858673 C131.766735,17.6680102 131.736122,17.6419898 131.75449,17.4981122 C131.726939,17.4996429 131.699388,17.5011735 131.670306,17.5027041 C131.67949,17.6021939 131.60602,17.6266837 131.593776,17.7047449 M130.021837,4.41290816 C129.985102,4.41596939 129.985102,4.45270408 129.937653,4.44505102 C129.960612,4.54913265 130.041735,4.59045918 130.144286,4.60729592 C130.246837,4.46035714 130.096837,4.34862245 129.992755,4.38688776 C130.009592,4.38688776 130.024898,4.38841837 130.021837,4.41290816 M139.363163,3.24811224 C139.366224,3.29556122 139.367755,3.34454082 139.369286,3.3919898 C139.277449,3.36290816 139.303469,3.43943878 139.257551,3.45321429 C139.257551,3.40423469 139.233061,3.38127551 139.197857,3.37056122 C139.202449,3.42107143 139.171837,3.43943878 139.115204,3.43178571 C139.243776,3.6919898 139.617245,3.62464286 139.920306,3.56647959 C139.836122,3.34913265 139.491735,3.41647959 139.363163,3.24811224 M140.114694,3.4425 C140.088673,3.27719388 139.846837,3.26954082 139.741224,3.37515306 C139.840714,3.42413265 139.946327,3.4669898 140.114694,3.4425 M140.566224,2.6802551 C140.475918,2.62056122 140.307551,2.33739796 140.217245,2.55321429 C140.374898,2.66035714 140.587653,2.86392857 140.85398,2.75372449 C140.808061,2.67413265 140.702449,2.66188776 140.566224,2.6802551 M139.863673,2.9419898 C140.016735,3.09811224 140.43,3.09811224 140.665714,2.98943878 C140.552449,2.82413265 140.28,2.83484694 140.166735,2.66954082 C140.091735,2.62209184 140.148367,2.42923469 140.039694,2.41852041 C139.987653,2.60984694 139.777959,2.70015306 139.863673,2.9419898 M146.324388,7.55984694 C146.247857,7.52617347 146.249388,7.40372449 146.201939,7.33790816 C146.273878,7.32260204 146.28,7.24454082 146.309082,7.18943878 C146.260102,7.1802551 146.238673,7.23535714 146.224898,7.19403061 C146.322857,6.74709184 146.133061,6.4425 146.084082,6.00015306 C145.950918,5.88382653 145.693776,5.70627551 145.552959,5.62362245 C144.452449,4.98382653 143.113163,4.26596939 141.821327,3.90933673 C141.582551,3.84352041 141.276429,3.69045918 141.039184,3.68586735 C140.867755,3.68586735 140.699388,3.79760204 140.503469,3.82668367 C140.061122,3.88484694 139.597347,3.90627551 139.269796,3.68127551 C139.191735,3.7180102 139.121327,3.72107143 139.040204,3.6919898 C138.969796,3.56954082 140.107041,3.43331633 139.115204,3.43178571 C139.101429,3.50219388 136.774898,4.32566327 136.72898,4.3669898 C135.983571,4.65933673 135.340714,5.04658163 134.752959,5.48433673 C134.096327,5.7675 133.511633,6.11647959 132.822857,6.37209184 C132.772347,6.44403061 132.743265,6.53586735 132.660612,6.57872449 C132.507551,7.49862245 132.463163,8.38637755 132.467755,9.27107143 C132.833571,9.17311224 133.231531,9.18535714 133.62949,9.07668367 C133.715204,8.87158163 133.543776,8.69556122 133.57898,8.56392857 C133.623367,8.68637755 133.683061,8.79045918 133.736633,8.89913265 C133.813163,8.89607143 133.888163,8.8930102 133.964694,8.88994898 C134.022857,8.69403061 133.894286,8.48586735 133.85602,8.3802551 C134.015204,8.5547449 134.157551,8.74913265 134.307551,8.93127551 C134.486633,8.89607143 134.58,8.95270408 134.711633,8.96954082 C134.801939,8.9802551 134.771327,8.88076531 134.88,8.9052551 C135.48,8.98484694 136.141224,9.11188776 136.750408,9.22056122 C137.55398,9.24811224 138.233571,9.3047449 139.038673,9.3169898 C139.50398,9.32464286 139.807041,9.47617347 140.246327,9.49147959 C140.351939,9.49454082 140.446837,9.47311224 140.558571,9.47617347 C141.475408,9.49607143 142.976939,9.88178571 143.583061,9.42566327 C143.656531,9.47311224 143.60602,9.47158163 143.645816,9.53739796 C144.695816,9.44862245 145.337143,9.37056122 146.113163,9.16852041 C146.036633,8.97413265 146.186633,8.8425 146.263163,8.7047449 C146.206531,8.41086735 146.295306,8.01443878 146.250918,7.82005102 C146.25398,7.85066327 146.241735,7.89352041 146.224898,7.85066327 C146.224898,7.79862245 146.214184,7.76188776 146.191224,7.73739796 C146.252449,7.71596939 146.286122,7.81392857 146.275408,7.7052551 C146.28,7.61494898 146.197347,7.78178571 146.188163,7.68076531 C146.264694,7.66852041 146.249388,7.57362245 146.324388,7.55984694 M130.745816,21.0843367 C130.559082,21.1317857 130.422857,21.2266837 130.211633,21.2511735 C130.289694,21.3062755 130.476429,21.2419898 130.528469,21.3231122 C130.516224,21.4363776 130.337143,21.4271939 130.246837,21.3935204 C130.184082,21.3904592 130.237653,21.4960714 130.223878,21.537398 C130.386122,21.5067857 130.375408,21.8006633 130.491735,21.7532143 C130.534592,21.8572959 130.289694,21.8404592 130.245306,21.9935204 C130.243776,22.0547449 130.346327,22.0011735 130.387653,22.014949 C130.170306,22.1312755 130.005,22.3440306 130.125918,22.512398 C129.991224,22.6256633 130.008061,22.8782143 129.832041,22.9547449 C129.665204,22.9455612 129.67898,22.7986224 129.486122,22.8828061 C129.495306,23.0037245 129.43102,23.0312755 129.385102,23.2027041 C129.515204,23.1598469 129.841224,23.0419898 130.015714,23.2317857 C130.050918,23.1889286 130.155,23.2134184 130.153469,23.139949 C130.217755,23.1812755 130.072347,23.2639286 130.107551,23.3695408 C130.040204,23.3634184 130.038673,23.2853571 129.988163,23.2608673 C129.706531,23.4629082 129.558061,24.0032143 129.518265,24.2527041 C129.582551,24.2741327 129.735612,24.1425 129.825918,24.0965816 C129.899388,24.1302551 129.790714,24.2251531 129.80602,24.2970918 C129.65449,24.2925 129.334592,24.4027041 129.443265,24.4562755 C129.545816,24.4991327 129.374388,24.5481122 129.385102,24.4578061 C129.293265,24.5664796 129.308571,24.7715816 129.115714,24.7853571 C129.094286,24.8664796 129.158571,24.8572959 129.149388,24.9261735 C129.092755,24.9292347 129.036122,24.9322959 128.97949,24.9338265 C129.011633,24.7731122 129.071327,24.6368878 129.190714,24.5527041 C129.127959,24.5021939 128.97949,24.5435204 128.93051,24.4792347 C128.788163,24.5787245 128.676429,24.7027041 128.544796,24.8113776 C128.661122,24.9047449 128.463673,25.1021939 128.589184,25.1802551 C128.713163,25.2567857 128.857041,24.995051 129.037653,24.9889286 C128.956531,25.0440306 129.00551,25.0884184 129.097347,25.0425 C129.028469,25.2353571 128.876939,25.3945408 128.547857,25.5246429 C128.625918,25.4266837 128.243265,25.5353571 128.281531,25.3072959 C128.205,25.6562755 127.086122,25.3057653 126.968265,25.9379082 C126.499898,25.7664796 126.38051,26.3695408 126.046837,26.4093367 C126.05602,26.3159694 126.150918,26.3037245 126.152449,26.2042347 C126.146327,26.1521939 126.05449,26.1904592 126.034592,26.1521939 C126.022347,25.914949 126.322347,25.6486224 126.495306,25.587398 C126.45551,25.3807653 126.45398,25.2521939 126.619286,25.1833163 C126.594796,25.2414796 126.52898,25.2843367 126.516735,25.4159694 C126.683571,25.314949 126.752449,25.1220918 126.838163,24.9445408 C126.776939,24.8833163 126.700408,24.837398 126.576429,24.8419898 C126.845816,24.0567857 126.989694,23.3175 127.184082,22.5032143 C127.196327,22.437398 127.12898,22.464949 127.122857,22.4190306 C127.13051,22.3440306 127.28051,22.3777041 127.226939,22.1863776 C127.202449,22.2078061 127.187143,22.239949 127.174898,22.2751531 C127.10602,22.137398 127.237653,21.9506633 127.326429,21.8680102 C127.305,21.714949 127.252959,21.714949 127.147347,21.7042347 C127.324898,21.5098469 127.407551,21.2312755 127.455,20.9190306 C127.25449,20.7782143 127.50398,20.3572959 127.681531,20.2241327 C127.701429,20.1430102 127.637143,20.1521939 127.646327,20.0833163 C127.998367,20.037398 127.643265,19.5613776 127.993776,19.5537245 C127.93102,19.4527041 127.981531,19.3838265 128.009082,19.295051 C128.001429,19.2583163 127.923367,19.2613776 127.924898,19.2996429 C127.860612,19.3195408 127.998367,19.0991327 127.978469,19.239949 C128.048878,18.872602 128.137653,18.3858673 128.356531,18.1088265 C128.316735,17.8516837 128.396327,17.7720918 128.275408,17.570051 C128.324388,17.5425 128.353469,17.4766837 128.416224,17.5363776 C128.442245,17.4078061 128.361122,17.3955612 128.348878,17.3098469 C128.610612,16.689949 128.567755,15.8680102 128.733061,15.0644388 C128.625918,14.6557653 128.489694,14.0159694 128.638163,13.6134184 C128.641224,13.5292347 128.58,13.5169898 128.547857,13.4741327 C128.376429,12.3322959 128.60602,11.2180102 128.674898,10.0134184 C128.68102,9.9047449 128.609082,9.58178571 128.716224,9.63994898 C128.661122,9.53433673 128.667245,9.11647959 128.710102,8.89913265 C128.725408,8.83178571 128.788163,8.79658163 128.789694,8.75219388 C128.795816,8.64811224 128.737653,8.6052551 128.805,8.46596939 C128.782041,8.51341837 129.023878,8.42770408 128.886122,8.31903061 C128.847857,8.3680102 128.808061,8.41392857 128.777449,8.4675 C128.668776,7.92872449 128.763673,6.95984694 128.462143,6.53892857 C128.212653,6.57719388 128.217245,6.30627551 128.212653,6.09505102 C128.289184,6.09045918 128.365714,6.08739796 128.442245,6.08280612 C128.566224,5.9802551 128.474388,5.67719388 128.707041,5.67260204 C128.589184,5.45219388 128.841735,5.10627551 128.648878,4.98994898 C128.694796,4.82464286 128.78051,4.58892857 128.598367,4.50627551 C128.743776,4.38382653 128.941224,4.31035714 128.948878,4.06239796 C129.262653,4.20933673 129.770816,3.69658163 130.035612,4.09913265 C130.145816,4.05321429 130.23,3.98280612 130.372347,3.96903061 C130.410612,3.72107143 130.182551,3.57107143 130.173367,3.34913265 C130.393776,3.39045918 130.487143,3.82056122 130.713673,3.95372449 C130.845306,3.94607143 130.940204,3.9047449 131.024388,3.85423469 C130.975408,3.65219388 131.128469,3.55729592 131.059592,3.3675 C131.120816,3.42719388 131.151429,3.33688776 131.203469,3.38892857 C131.122347,3.32158163 131.257041,3.19147959 131.136122,3.19147959 C131.177449,3.11341837 131.48051,2.98484694 131.498878,2.97566327 C131.688673,2.87005102 131.699388,3.33841837 131.936633,3.18535714 C131.941224,3.2297449 131.927449,3.29403061 131.970306,3.29709184 C131.887653,3.35678571 131.75449,3.37515306 131.782041,3.53433673 C131.794286,3.57566327 131.815714,3.52209184 131.866224,3.5297449 C131.858571,3.62311224 131.751429,3.62770408 131.731531,3.70729592 C131.864694,3.74709184 132.132551,3.67515306 132.210612,3.57107143 C132.757041,3.48535714 133.70449,3.17617347 134.472857,3.07056122 C134.896837,3.01086735 135.224388,2.94045918 135.484592,2.71086735 C135.63,2.57005102 138.917755,1.18943878 139.771837,1.44505102 C141.215204,1.70066327 140.399388,1.52617347 141.215204,1.70066327 C141.383571,1.78178571 141.715714,1.98994898 141.871837,1.8797449 C142.889694,2.03280612 143.789694,2.32056122 144.651429,2.75372449 C144.870306,2.86239796 145.092245,2.94352041 145.352449,3.06443878 C145.768776,3.25729592 146.108571,3.52515306 146.552449,3.72260204 C146.899898,3.87872449 147.287143,4.18943878 147.60551,4.27515306 C148.05551,4.39760204 148.425918,4.43280612 148.715204,4.82464286 C149.107041,5.01290816 149.520306,5.33739796 149.641224,5.72617347 C149.760612,5.83178571 149.921327,5.99862245 149.919796,6.19760204 C149.916735,6.34607143 149.785102,6.52209184 149.800408,6.74709184 C149.838673,7.30882653 149.864694,7.88892857 149.765204,8.48892857 C149.742245,8.46596939 149.687143,8.47668367 149.677959,8.43688776 C149.489694,8.59607143 149.650408,8.93739796 149.512653,9.18688776 C149.501939,9.20219388 149.433061,9.20831633 149.426939,9.21903061 C149.351939,9.40882653 149.368776,9.58178571 149.223367,9.7425 C149.160612,9.80984694 149.055,9.80066327 149.03051,9.92158163 C149.03051,10.0118878 149.038163,10.0945408 149.097857,10.1190306 C149.024388,10.3088265 148.802449,10.3593367 148.716735,10.5353571 C148.586633,10.5016837 148.565204,10.5353571 148.490204,10.6027041 C147.781531,10.6608673 147.075918,10.8322959 146.30449,10.8736224 C145.833061,10.8981122 145.35551,11.0052551 144.914694,11.0787245 C144.913163,11.0496429 144.911633,11.0220918 144.911633,10.9930102 C144.348367,11.1016837 143.557041,10.847602 143.062653,11.1919898 C142.862143,11.1751531 142.589694,11.1277041 142.376939,11.1659694 C142.269796,11.1828061 142.184082,11.2654592 142.067755,11.2930102 C141.331531,11.4659694 140.407041,11.1322959 139.701429,11.3435204 C139.663163,11.3542347 139.681531,11.4154592 139.678469,11.4583163 C139.562143,11.495051 139.422857,11.4919898 139.335612,11.4736224 C139.23,11.5011735 139.337143,11.5731122 139.285102,11.6190306 C138.972857,11.6052551 138.608571,11.5118878 138.339184,11.5470918 C138.345306,11.4889286 138.414184,11.4889286 138.418776,11.4292347 C137.994796,11.3756633 137.462143,11.3312755 137.102449,11.3741327 C137.094796,11.4644388 137.168265,11.4629082 137.249388,11.4537245 C136.689184,11.5945408 136.119796,11.1460714 135.648367,11.412398 C135.251939,11.3496429 134.915204,11.4368878 134.645816,11.3144388 C134.22949,11.495051 133.075408,11.1935204 132.758571,11.2562755 C132.521327,11.3052551 132.496837,11.5440306 132.346837,11.6465816 C132.302449,11.9251531 132.313163,12.2511735 132.213673,12.4807653 C132.201429,12.5435204 132.270306,12.5190306 132.274898,12.5634184 C132.063673,13.2644388 132.235102,14.1583163 132.403469,14.7843367 C132.202959,14.9343367 132.268776,15.395051 132.297857,15.6185204 C132.209082,15.7547449 132.233571,15.995051 132.149388,16.1389286 C132.207551,16.2384184 132.132551,16.3302551 132.190714,16.3945408 C131.985612,16.6363776 132.097347,16.9991327 131.857041,17.2088265 C131.838673,17.297602 131.936633,17.2593367 131.919796,17.3481122 C131.734592,17.8256633 131.722347,18.4134184 131.506531,18.9368878 C131.436122,18.872602 131.365714,18.9491327 131.278469,18.9491327 C131.312143,19.2430102 131.177449,19.3838265 131.136122,19.6103571 C131.169796,19.689949 131.258571,19.5981122 131.307551,19.6027041 C131.217245,19.839949 131.208061,20.1506633 130.995306,20.2731122 C131.084082,20.5532143 130.799388,20.9465816 130.785612,21.3108673 C130.719796,21.2358673 130.811633,21.1440306 130.745816,21.0843367" id="Fill-43" fill="#231815"></path>
                <path d="M134.133673,29.6980102 C134.152041,29.7469898 134.153571,29.8158673 134.196429,29.8388265 C134.22398,29.7806633 134.332653,29.919949 134.366327,29.8020918 C134.285204,29.7592347 134.4,29.6719898 134.357143,29.5740306 C134.214796,29.5541327 134.253061,29.6980102 134.133673,29.6980102 M134.315816,29.3184184 C134.407653,29.3321939 134.29898,29.4071939 134.354082,29.544949 C134.383163,29.5434184 134.412245,29.5434184 134.439796,29.5418878 C134.34949,29.3888265 134.510204,29.2617857 134.396939,29.2005612 C134.369388,29.2403571 134.321939,29.2602551 134.315816,29.3184184 M140.465816,21.3301531 C140.531633,21.3362755 140.57449,21.3209694 140.606633,21.2964796 C140.597449,21.1878061 140.557653,21.1112755 140.455102,21.1036224 C140.464286,21.1908673 140.395408,21.267398 140.465816,21.3301531 M139.264286,20.6429082 C139.314796,20.5510714 139.294898,20.3230102 139.192347,20.3046429 C139.284184,20.4071939 139.193878,20.525051 139.264286,20.6429082 M139.392857,20.3230102 C139.409694,20.2036224 139.152551,20.2281122 139.132653,20.2495408 C139.213776,20.2786224 139.29949,20.3061735 139.392857,20.3230102 M138.84949,18.4342347 C138.953571,18.4372959 139.046939,18.4327041 139.016327,18.3133163 C138.938265,18.3332143 138.886224,18.3745408 138.84949,18.4342347 M135.968878,18.4786224 C136.056122,18.4755612 136.17398,18.3607653 136.103571,18.3010714 C136.108163,18.4066837 135.936735,18.3515816 135.968878,18.4786224 M139.068367,18.1954592 C139.157143,18.2061735 139.193878,18.1648469 139.177041,18.077602 C139.147959,18.077602 139.120408,18.0791327 139.091327,18.0806633 C139.10051,18.1342347 139.062245,18.144949 139.068367,18.1954592 M141.667347,18.2214796 C141.492857,17.7240306 141.016837,17.5587245 140.709184,17.2082143 C140.680102,17.2097449 140.65102,17.2097449 140.621939,17.2128061 C140.312755,17.7485204 139.789286,18.0883163 139.368367,18.5245408 C139.348469,18.369949 139.178571,18.5061735 139.053061,18.4816837 C139.190816,18.5995408 139.432653,18.6071939 139.628571,18.6270918 C140.433673,18.7128061 141.168367,18.6730102 141.916837,18.6668878 C141.988776,18.4357653 141.765306,18.3592347 141.667347,18.2214796 M135.610714,14.9842347 C135.613776,14.8985204 135.722449,15.0929082 135.753061,14.9765816 C135.717857,14.9658673 135.693367,14.9413776 135.691837,14.892398 C135.635204,14.8816837 135.55102,14.9765816 135.610714,14.9842347 M146.90051,13.9587245 C146.840816,14.0214796 146.762755,14.0704592 146.738265,14.1668878 C146.667857,14.1730102 146.618878,14.1561735 146.592857,14.1148469 C146.44898,14.3490306 146.072449,14.3689286 145.89949,14.5755612 C145.466327,14.5296429 145.232143,14.3536224 144.844898,14.5939286 C144.047449,14.517398 143.196429,14.7913776 142.32398,15.0225 C142.65,15.4510714 143.135204,15.7082143 143.377041,16.2301531 C143.49949,16.2959694 143.52551,16.4658673 143.67551,16.502602 C143.663265,16.6939286 143.788776,16.7367857 143.888265,16.8071939 C144.085714,17.1194388 144.293878,17.4194388 144.446939,17.7821939 C144.713265,18.0959694 144.877041,18.527602 145.177041,18.8046429 C145.118878,18.9883163 145.218367,19.1031122 145.284184,19.2852551 C145.040816,19.5531122 144.49898,19.5102551 144.486735,19.9495408 C143.635714,20.3077041 142.180102,20.5725 140.995408,20.3934184 C141.05051,20.6704592 141.237245,20.6689286 141.303061,20.8939286 C141.371939,20.9658673 141.376531,20.8143367 141.445408,20.8862755 C141.531122,20.9719898 141.583163,21.2260714 141.523469,21.369949 C141.812755,21.4571939 142.033163,21.1403571 142.371429,21.1587245 C142.466327,21.1648469 142.541327,21.2689286 142.633163,21.2903571 C142.695918,21.3041327 142.936224,21.3056633 142.95,21.3041327 C143.070918,21.2964796 143.280612,21.2582143 143.312755,21.144949 C143.422959,21.200051 143.548469,21.2398469 143.632653,21.2459694 C143.583673,21.144949 143.840816,21.1908673 143.793367,21.0102551 C144.128571,21.0898469 144.39949,21.2413776 144.748469,21.3087245 C144.736224,21.5413776 144.884694,21.5980102 145.07602,21.6087245 C145.126531,21.6622959 145.07602,21.6439286 145.080612,21.7219898 C145.206122,21.7020918 145.22449,21.7556633 145.308673,21.7112755 C145.271939,21.7878061 145.219898,21.8046429 145.340816,21.7663776 C145.279592,22.0112755 145.55051,21.9225 145.553571,22.0725 C145.495408,22.0602551 145.472449,22.0969898 145.356122,22.1383163 C145.382143,22.2531122 145.575,22.2301531 145.617857,22.2408673 C145.718878,22.3051531 145.47551,22.3602551 145.570408,22.4138265 C145.54898,22.4980102 145.477041,22.4015816 145.426531,22.419949 C145.567347,22.569949 144.990306,22.4811735 144.981122,22.6694388 C145.206122,22.7168878 145.420408,22.4689286 145.602551,22.5255612 C145.489286,22.6296429 145.527551,22.6051531 145.472449,22.7903571 C145.252041,22.7980102 145.178571,22.9418878 144.994898,22.9816837 C144.975,23.0872959 145.051531,23.1316837 145.004082,23.1821939 C144.471429,23.3230102 144.001531,23.5281122 143.42449,23.6230102 C143.367857,23.6352551 143.372449,23.702602 143.344898,23.742398 C143.344898,23.619949 143.171939,23.6980102 143.136735,23.552602 C142.908673,23.600051 142.784694,23.7010714 142.60102,23.7194388 C142.333163,24.1235204 141.459184,24.050051 141.143878,24.3270918 C141.104082,24.3209694 141.117857,24.2566837 141.110204,24.2153571 C140.908163,24.8796429 141.071939,25.7964796 141.10102,26.5265816 C141.77449,26.5495408 142.14949,26.1607653 142.711224,26.169949 C142.614796,26.0214796 143.176531,26.0398469 143.329592,25.9418878 C143.344898,26.000051 143.314286,26.0168878 143.306633,26.0566837 C143.361735,25.9862755 143.419898,26.0903571 143.476531,26.0214796 C143.481122,25.944949 143.317347,26.0536224 143.357143,25.9403571 C143.566837,25.8225 143.972449,26.027602 144.012245,25.8821939 C144.318367,25.9893367 144.811224,26.0168878 145.114286,26.2602551 C145.131122,26.3765816 145.016327,26.6306633 145.102041,26.6321939 C145.086735,26.8020918 145.043878,27.1464796 145.163265,27.3730102 C145.068367,27.5643367 144.818878,27.677602 144.756122,27.7908673 C144.65051,27.9806633 144.232653,27.977602 144.408673,28.3204592 C144.159184,28.4107653 144.160714,28.7321939 143.828571,28.7459694 C143.67551,28.8714796 143.634184,29.0980102 143.507143,29.2464796 C143.461224,29.2480102 143.412245,29.2495408 143.364796,29.252602 C143.20102,29.4117857 142.538265,29.3872959 142.140306,29.3077041 C141.858673,29.2510714 141.72398,29.1913776 141.451531,29.252602 C140.895918,29.3796429 140.262245,29.2219898 139.757143,29.6429082 C139.353061,29.7638265 138.912245,29.9765816 138.404082,30.0760714 C138.096429,30.1357653 137.892857,30.1281122 137.556122,30.2291327 C137.305102,30.302602 137.026531,30.4725 136.743367,30.5796429 C136.708163,30.4939286 136.737245,30.4265816 136.619388,30.3852551 C136.506122,30.4005612 136.552041,30.4066837 136.452551,30.4495408 C136.275,30.3332143 136.045408,30.2765816 135.94898,30.0730102 C135.526531,30.0791327 135.32602,30.3883163 134.929592,30.2612755 C134.929592,30.2245408 134.926531,30.1862755 134.925,30.1480102 C134.237755,30.3194388 133.610204,29.927602 133.803061,29.3413776 C133.933163,29.2587245 134.061735,29.177602 134.132143,29.0413776 C134.081633,28.8179082 133.905612,28.7306633 133.741837,28.6311735 C133.948469,28.5806633 134.427551,28.5117857 134.410714,28.2577041 C134.74898,28.2577041 134.810204,28.0036224 134.903571,27.7786224 C135.289286,27.6975 135.872449,27.8781122 136.212245,27.6622959 C136.633163,27.5918878 137.023469,27.8918878 137.153571,27.6485204 C137.205612,27.5658673 137.303571,27.6806633 137.383163,27.6668878 C137.277551,27.6071939 137.608163,27.5719898 137.60051,27.4281122 C137.817857,27.4541327 138.107143,27.4434184 138.258673,27.4556633 C138.430102,26.9827041 138.442347,26.6444388 138.390306,25.9357653 C138.531122,26.0015816 138.39949,26.3643367 138.526531,26.4439286 C138.621429,26.0490306 138.497449,25.5071939 138.525,25.1597449 C138.205102,25.1735204 138.525,25.6679082 138.413265,25.8209694 C138.25102,25.4658673 138.281633,24.8918878 138.298469,24.5413776 C137.756633,24.4311735 137.338776,24.1786224 136.816837,23.9796429 C136.777041,23.9888265 136.810714,24.0653571 136.763265,24.0684184 C136.397449,24.0607653 136.385204,23.7638265 136.005612,23.7316837 C135.69949,23.4286224 135.422449,23.0934184 134.972449,22.9495408 C134.935714,22.9418878 134.877551,23.0367857 134.946429,23.0367857 C134.877551,23.1194388 134.834694,22.9204592 134.686224,22.9908673 C134.681633,23.067398 134.730612,23.0827041 134.805612,23.0719898 C134.775,23.1821939 134.687755,23.0719898 134.609694,23.1378061 C134.618878,23.0475 134.551531,23.0398469 134.569898,22.9388265 C134.634184,22.9158673 134.715306,22.9066837 134.767347,22.8730102 C134.782653,22.7459694 134.609694,22.8270918 134.591327,22.7383163 C134.690816,22.6296429 134.894388,22.6143367 135.038265,22.5454592 C135.094898,22.5944388 135.157653,22.6357653 135.269388,22.6219898 C135.482143,22.3816837 135.852551,22.3541327 136.123469,22.5255612 C136.10051,22.2821939 135.806633,22.3327041 135.760714,22.1153571 C135.858673,22.1628061 135.77602,22.1184184 135.785204,22.0281122 C136.017857,21.9913776 136.048469,22.1796429 136.24898,22.1781122 C136.24898,22.0969898 136.177041,22.100051 136.103571,22.100051 C136.414286,22.052602 136.89949,22.3403571 137.263776,22.5041327 C137.670918,22.5010714 138.027551,22.4536224 138.342857,22.3694388 C138.442347,22.2867857 138.460714,22.1306633 138.526531,22.0189286 C138.417857,21.9837245 138.332143,22.1781122 138.25102,22.2592347 C138.287755,22.0265816 138.869388,21.6929082 138.495918,21.3347449 C138.552551,21.2505612 138.593878,21.1495408 138.714796,21.125051 C138.607653,21.0730102 138.578571,20.9352551 138.502041,20.8480102 C138.40102,20.777602 138.226531,20.8709694 138.180612,20.6918878 C138.40102,20.7531122 138.720918,20.6566837 138.916837,20.544949 C138.898469,20.3628061 139.008673,20.2985204 139.102041,20.2219898 C139.079082,20.1561735 138.864796,20.1454592 138.815816,20.2066837 C138.782143,20.2020918 138.789796,20.1546429 138.783673,20.1225 C138.598469,20.1561735 138.42398,20.1546429 138.295408,20.0582143 C138.189796,20.1439286 138.084184,20.0781122 137.89898,20.1056633 C137.891327,20.0122959 137.72602,20.0934184 137.74898,19.9694388 C136.786224,19.727602 135.604592,19.7245408 135.186735,18.8857653 C135.220408,18.8796429 135.208163,18.8321939 135.212755,18.7985204 C135.39949,18.7418878 135.465306,18.575051 135.537245,18.4128061 C135.870918,18.1434184 136.065306,17.7485204 136.379082,17.4622959 C136.383673,17.3566837 136.443367,17.300051 136.454082,17.2005612 C136.747959,17.0689286 136.738776,16.6602551 137.141327,16.6265816 C137.222449,16.5225 137.332653,16.4138265 137.266837,16.250051 C136.919388,16.427602 136.628571,16.2469898 136.458673,16.0587245 C136.32398,16.167398 136.152551,16.1566837 136.037755,16.2209694 C135.769898,16.0112755 135.569388,15.7571939 135.079592,15.8628061 C135.045918,15.8689286 135.058163,15.9163776 135.055102,15.950051 C134.905102,15.902602 134.782653,15.9531122 134.745918,16.0786224 C134.464286,15.9990306 134.678571,15.650051 134.776531,15.4770918 C134.866837,15.4480102 134.819388,15.5704592 134.894388,15.5566837 C134.955612,15.5138265 135.02449,15.4770918 135,15.3531122 C135.15,15.3117857 135.212755,15.3515816 135.397959,15.3347449 C135.385714,15.267398 135.261735,15.3240306 135.280102,15.2260714 C135.359694,15.1816837 135.428571,15.2980102 135.45,15.2184184 C135.394898,15.1189286 135.221939,15.1480102 135.157653,15.0607653 C135.165306,14.9964796 135.32449,15.0684184 135.266327,14.9413776 C135.408673,14.9444388 135.523469,14.9214796 135.604592,14.8694388 C135.558673,14.6245408 135.321429,14.5709694 135.322959,14.3107653 C135.388776,14.327602 135.469898,14.327602 135.525,14.3582143 C135.641327,14.3153571 135.580102,14.2510714 135.570918,14.1286224 C135.739286,14.0612755 135.720918,14.3015816 135.831122,14.2020918 C135.759184,14.0719898 135.668878,13.850051 135.440816,13.7628061 C135.54949,13.7230102 135.745408,13.6235204 135.835714,13.6587245 C135.944388,13.6327041 135.930612,13.4658673 135.939796,13.4260714 C136.434184,13.6480102 136.487755,14.0658673 137.193367,13.9694388 C138.029082,13.8546429 138.985714,13.3862755 139.757143,13.2240306 C140.543878,13.0602551 141.521939,12.7128061 142.353061,12.5658673 C142.731122,12.4969898 143.077041,12.3837245 143.490306,12.4281122 C144.382653,12.5230102 145.161735,12.7112755 145.919388,13.0893367 C145.920918,13.2163776 145.989796,13.269949 146.043367,13.3403571 C146.321939,13.2148469 146.412245,13.5898469 146.625,13.5439286 C146.520918,13.5913776 146.686224,13.6617857 146.664796,13.7980102 C146.680102,13.8607653 146.814796,13.7918878 146.837755,13.8469898 C146.834694,13.8821939 146.787245,13.8730102 146.753571,13.8791327 C146.891327,13.9020918 146.762755,14.027602 146.90051,13.9587245" id="Fill-46" fill="#231815"></path>
                <path d="M135.294337,23.7913776 C135.318827,23.7852551 135.441276,23.7485204 135.494847,23.7821939 C135.45199,23.8709694 135.358622,23.8281122 135.294337,23.7913776" id="Fill-48" fill="#231815"></path>
                <path d="M83.3323469,10.7914286 C83.1838776,10.9184694 83.2129592,11.1342857 83.3323469,11.2613265 C83.2359184,11.4327551 83.0629592,11.5506122 83.2144898,11.7694898 C83.0445918,11.7159184 83.1318367,11.9210204 82.9803061,11.8873469 C82.7859184,13.1592857 82.4996939,14.3118367 82.6680612,15.5271429 C83.6614286,15.4766327 85.0634694,15.5562245 85.8777551,15.9587755 C86.3706122,16.2021429 86.8252041,16.7776531 86.7777551,17.4465306 C86.7685714,17.5597959 86.5267347,17.6654082 86.7012245,17.8766327 C86.3491837,18.2715306 85.8854082,18.5516327 85.6037755,19.0123469 C85.1354082,19.0368367 84.7221429,19.0062245 84.5859184,18.700102 C84.3639796,18.7169388 84.1956122,18.7276531 83.9996939,18.6603061 C83.6507143,18.7444898 83.2772449,18.9985714 82.8639796,18.700102 C82.5777551,18.8654082 82.2777551,18.8103061 81.9226531,18.8960204 C81.7144898,18.945 81.5491837,19.0980612 81.3364286,19.17 C80.4471429,19.4654082 79.3481633,19.5327551 78.4389796,19.8342857 C77.9935714,19.9827551 77.6292857,20.1710204 77.1471429,20.2659184 C76.6986735,20.2291837 76.4047959,20.042449 76.0894898,19.8740816 C76.092551,19.7455102 76.1553061,19.6781633 76.1277551,19.5220408 C75.8155102,18.9480612 76.0665306,18.2133673 75.9716327,17.5245918 C76.5257143,16.0154082 79.2502041,16.6781633 80.3185714,15.6847959 C80.2940816,15.1108163 80.3338776,14.4266327 80.3568367,13.7271429 C80.3415306,13.6123469 80.2282653,13.5939796 80.2007143,13.4929592 C80.2282653,13.3888776 80.3292857,13.3582653 80.3568367,13.2572449 C80.134898,12.9128571 80.2588776,12.1766327 80.162449,11.5353061 C80.142551,11.3485714 79.8104082,11.3883673 79.965,11.1434694 C79.4537755,11.0883673 78.9287755,11.3623469 78.4389796,11.5353061 C78.315,11.4740816 78.1282653,11.3164286 78.2047959,11.1817347 C78.0134694,11.1511224 77.9047959,11.0363265 77.6553061,11.0638776 C77.5359184,10.892449 77.4272449,10.722551 77.4609184,10.5955102 C77.3797959,10.5113265 77.2405102,10.5097959 77.0690816,10.4393878 C77.1609184,10.3383673 77.020102,10.2495918 77.1471429,10.2036735 C77.0767347,10.0904082 76.9757143,10.0092857 76.8333673,9.9694898 C76.8333673,9.56387755 76.5915306,9.40163265 76.4415306,9.14602041 C76.3833673,8.50622449 76.1461224,8.05316327 76.167551,7.50214286 C76.2517347,7.56183673 76.2961224,7.66132653 76.4415306,7.65826531 C76.7369388,7.62765306 76.8226531,7.38581633 77.1471429,7.38428571 C78.034898,6.62663265 79.8134694,6.30061224 81.6104082,6.28836735 C82.262449,6.28377551 82.9037755,6.345 83.6461224,6.36642857 C84.895102,6.40163265 86.7012245,6.72459184 86.817551,7.73632653 C86.8496939,8.0194898 86.6476531,8.32102041 86.620102,8.59806122 C86.6139796,8.67765306 86.6736735,8.73581633 86.659898,8.7955102 C86.5558163,9.27 86.2619388,9.5944898 86.1134694,9.9694898 C85.7093878,10.3552041 85.0343878,10.142449 84.5078571,10.3597959 C84.2308163,10.4730612 83.8542857,10.8143878 83.3323469,10.7914286" id="Fill-50" fill="#231815"></path>
                <path d="M70.412449,1.55081633 C70.5517347,1.6472449 70.5655102,1.86765306 70.8042857,1.86459184 C70.8180612,2.31459184 71.2619388,2.46918367 71.470102,2.76459184 C71.7639796,3.18091837 71.7777551,3.73959184 72.1741837,4.09622449 C72.2078571,4.51561224 72.1894898,5.05897959 71.9002041,5.54418367 C70.9604082,6.20387755 69.5553061,6.50846939 69.0027551,7.65795918 C68.8833673,7.68704082 68.8879592,7.59061224 68.7685714,7.61816327 C68.0063265,8.26561224 67.5746939,9.24520408 67.084898,10.165102 C67.1507143,10.2707143 67.1935714,10.3411224 67.045102,10.3992857 C67.2777551,10.662551 67.9022449,10.5339796 68.142551,10.7911224 C68.3721429,10.7268367 68.4318367,10.4681633 68.6507143,10.3594898 C68.9216327,10.2278571 69.3991837,10.3212245 69.5139796,10.007449 C69.8614286,10.0579592 69.8797959,9.77479592 70.2180612,9.81153061 C70.3420408,9.74112245 70.3588776,9.4227551 70.6083673,9.41969388 C70.7706122,9.41816327 70.9221429,9.74571429 71.1165306,9.85132653 C71.517551,10.0686735 72.1022449,10.0717347 72.0976531,10.5952041 C72.0915306,10.8768367 71.8527551,10.9120408 71.8604082,11.2212245 C71.4945918,11.3911224 71.4547959,11.8839796 71.0384694,12.0033673 C70.2165306,13.2033673 69.145102,14.1569388 68.2604082,15.2941837 C68.1272449,15.9967347 67.4767347,16.1804082 67.045102,16.5860204 C67.317551,16.540102 67.5502041,16.3503061 67.7491837,16.3503061 C67.9328571,16.1727551 68.1731633,16.2110204 68.3767347,16.0763265 C69.2246939,15.5191837 70.1553061,14.6207143 71.3920408,14.3926531 C71.9859184,14.282449 72.4359184,14.4569388 73.0757143,14.6666327 C74.0246939,15.2681633 74.7716327,16.1528571 74.8757143,17.4844898 L74.5619388,17.4844898 C73.9803061,17.7645918 73.5502041,18.004898 72.7221429,18.0722449 C72.6563265,18.1656122 72.4711224,18.1120408 72.5660204,18.2696939 C72.0670408,18.1916327 71.8496939,18.5314286 71.3920408,18.5038776 C70.9971429,18.2390816 70.7905102,17.4508163 70.2563265,17.8763265 C70.1017347,18.0003061 69.9823469,18.2421429 69.8262245,18.3860204 C69.4864286,18.6967347 69.0517347,18.8482653 68.8864286,19.129898 C67.9359184,19.5385714 67.1430612,20.1293878 65.9491837,20.3834694 C65.8236735,20.3482653 65.8956122,20.5120408 65.7930612,20.4997959 C65.0996939,20.515102 64.8379592,20.0972449 64.2272449,20.0314286 C63.8338776,19.5737755 63.267551,19.0839796 63.2078571,18.4258163 C62.7303061,18.257449 63.0609184,17.1615306 63.2078571,16.7804082 C63.4252041,16.2263265 63.6226531,15.5788776 63.9915306,15.2528571 C64.1308163,15.1334694 64.3558163,15.0339796 64.5410204,14.9008163 C64.7017347,14.7860204 64.8655102,14.6023469 65.0093878,14.5105102 C65.1532653,14.4171429 65.3537755,14.404898 65.4792857,14.3145918 C65.8512245,14.0482653 66.117551,13.5247959 66.3027551,13.1788776 C65.5772449,12.9554082 64.842551,13.165102 64.187449,12.9446939 C63.4053061,12.3538776 62.995102,11.3222449 63.0915306,10.1253061 C63.1588776,9.28040816 63.859898,8.58397959 63.9532653,7.85387755 C64.2792857,7.56612245 64.534898,7.04877551 64.6971429,6.71816327 C65.2879592,5.95438776 65.79,5.0972449 66.3394898,4.29214286 C67.4553061,3.27887755 68.3063265,2.00234694 69.8644898,1.43295918 C70.0267347,1.53704082 70.2731633,1.62428571 70.412449,1.55081633" id="Fill-52" fill="#231815"></path>
                <path d="M65.6355612,23.7895408 C66.035051,23.757398 66.1544388,23.4451531 66.4590306,23.3196429 C66.1697449,23.8706633 67.1937245,24.3375 66.4192347,24.5716837 C66.3886224,24.7201531 66.4666837,24.759949 66.4590306,24.8854592 L66.2631122,24.8854592 C66.362602,25.4548469 65.9401531,25.9140306 66.0656633,26.6869898 C65.9983163,26.6502551 65.9952551,26.5492347 65.9493367,26.4910714 C65.7151531,26.5630102 65.5421939,26.5492347 65.4029082,26.765051 C65.312602,26.7359694 65.2008673,26.7298469 65.127398,26.6869898 C65.0187245,26.6961735 64.9682143,26.7864796 64.8916837,26.8033163 C64.2488265,26.942602 63.9687245,26.4114796 63.2478061,26.3732143 C63.0212755,26.1420918 62.9217857,25.9278061 62.7013776,25.667602 C62.6370918,25.5956633 62.5222959,25.5528061 62.4656633,25.4716837 C62.012602,24.8288265 62.3156633,23.7512755 61.7217857,23.2017857 C61.8717857,23.1482143 62.0340306,22.7196429 62.1916837,22.9278061 C62.2238265,22.8298469 62.3156633,22.7915816 62.3860714,22.7318878 C63.1467857,22.8436224 64.2228061,22.8053571 64.9314796,23.1635204 C65.0845408,23.4528061 65.4258673,23.5538265 65.6355612,23.7895408" id="Fill-54" fill="#231815"></path>
                <path d="M74.1319898,25.3158673 C73.6605612,25.502602 73.2228061,25.4536224 72.7222959,25.3556633 C72.6182143,25.3556633 72.6228061,25.4643367 72.5661735,25.5117857 C72.3381122,25.202602 71.7472959,25.542398 71.7044388,25.2378061 C71.5161735,25.3372959 71.4258673,25.1337245 71.1564796,25.1980102 C71.1319898,24.9622959 70.8993367,24.9316837 70.9222959,24.650051 C70.977398,24.5888265 71.0202551,24.5138265 71.1166837,24.4939286 C71.0661735,24.3531122 71.1197449,24.350051 71.0784184,24.2184184 C71.6171939,23.4684184 71.012602,22.4597449 70.6483163,21.9102551 C70.1478061,21.8811735 69.9779082,22.1781122 69.7881122,22.4582143 C69.860051,22.8531122 69.8830102,23.2082143 69.9809694,23.5939286 C69.7789286,23.6735204 69.9182143,23.852602 69.9442347,24.0240306 C70.0177041,24.0975 70.0131122,24.0010714 70.1386224,24.0240306 C70.1432143,24.144949 70.1034184,24.2214796 70.1784184,24.4158673 C70.1018878,24.4311735 70.1462755,24.567398 70.0207653,24.5321939 C70.0712755,24.867398 70.1217857,25.2944388 70.0207653,25.6679082 C69.8830102,25.7122959 69.7330102,25.7459694 69.7467857,25.9434184 C69.4865816,25.917398 69.3258673,25.9908673 69.1590306,26.0597449 C68.6064796,26.0230102 67.9085204,25.7842347 67.5932143,25.2378061 C67.4983163,25.0709694 67.254949,24.8888265 67.2029082,24.7679082 C66.9748469,24.2429082 67.1845408,23.5051531 66.7330102,23.2005612 C66.635051,23.1959694 66.5416837,23.1944388 66.5370918,23.2801531 C66.4758673,22.9327041 66.9794388,22.8087245 67.0452551,22.4582143 C67.4309694,22.5791327 67.6131122,22.419949 67.985051,22.3801531 C68.4396429,22.3296429 68.7289286,22.6985204 69.0411735,22.6541327 C69.437602,22.5975 69.3763776,22.1107653 69.7881122,21.9883163 C69.7620918,21.7403571 70.0330102,21.5827041 69.9809694,21.4388265 C70.3008673,21.2872959 70.2243367,20.975051 70.5304592,20.892398 C70.6253571,20.8648469 70.7554592,20.9444388 70.8825,20.9306633 C71.1993367,20.8985204 71.6080102,20.7056633 71.9784184,20.852602 C72.8921939,21.9209694 74.312602,22.5270918 74.4457653,24.1801531 C74.2865816,24.5689286 74.2865816,24.9990306 74.1319898,25.3158673" id="Fill-56" fill="#231815"></path>
                <path d="M106.178878,26.4664286 C106.419184,26.3378571 106.673265,26.5016327 106.921224,26.5827551 C106.905918,26.6577551 106.907449,26.7511224 106.803367,26.7404082 C106.843163,26.9103061 107.045204,26.8429592 107.156939,26.7786735 C107.161531,26.7097959 107.107959,26.697551 107.117143,26.622551 C107.366633,26.6853061 107.626837,26.7388776 107.704898,26.9761224 C107.902347,26.9393878 108.044694,26.8444898 108.251327,26.8184694 C108.340102,26.8613265 108.280408,27.0511224 108.448776,27.0143878 C108.404388,27.0878571 108.398265,27.1980612 108.370714,27.2883673 L108.174796,27.2883673 C108.285,27.4796939 108.580408,27.3189796 108.800816,27.4444898 C108.813061,27.6664286 108.731939,27.8822449 108.956939,28.0322449 C108.813061,28.0567347 108.802347,28.2159184 108.644694,28.2281633 C108.687551,28.6613265 108.341633,28.7072449 108.292653,29.050102 C108.00949,29.172551 108.026327,29.4740816 107.782959,29.5980612 C107.250306,29.8689796 106.714592,29.4955102 106.178878,29.3623469 C106.108469,29.1955102 106.067143,29.0041837 106.021224,28.8159184 C105.938571,28.7669388 105.907959,28.667449 105.787041,28.6582653 C105.874286,28.5067347 105.788571,28.4302041 105.630918,28.4240816 C105.522245,28.114898 105.51,27.7643878 105.277347,27.7582653 C105.373776,27.5853061 105.303367,27.4689796 105.393673,27.3281633 C105.418163,27.0419388 104.980408,27.2194898 105.003367,26.9347959 C105.122755,26.9072449 105.118163,27.0036735 105.237551,26.9761224 C105.337041,26.847551 105.372245,26.7664286 105.277347,26.622551 C105.552857,26.5766327 105.98449,26.1052041 106.178878,26.4664286" id="Fill-58" fill="#231815"></path>
                <path d="M113.968776,18.0880102 C114.418776,18.1721939 114.555,17.7772959 114.82898,17.8125 C114.851939,17.5033163 114.712653,17.2966837 114.398878,17.2262755 C114.368265,17.0762755 114.587143,17.1803571 114.555,17.0303571 L114.360612,17.0303571 C114.438673,17.4696429 114.016224,17.7910714 113.968776,18.0880102 M111.463163,13.1548469 C110.543265,13.0492347 110.293776,14.042602 110.67949,14.6808673 C111.184592,14.7895408 111.796837,14.8584184 111.893265,14.2890306 C111.633061,14.0395408 111.776939,13.8604592 111.502959,13.6232143 C111.697347,13.4961735 111.449388,13.3186224 111.541224,13.1548469 C111.567245,13.0767857 111.773878,13.1793367 111.737143,13.0385204 C111.587143,13.0186224 111.492245,13.0538265 111.463163,13.1548469 M113.694796,13.2329082 C113.616735,13.7165816 113.526429,13.9431122 113.655,14.3686224 C114.014694,14.334949 114.333061,14.3716837 114.672857,14.4466837 C114.90551,13.9339286 114.985102,13.2711735 115.182551,12.7247449 C114.698878,12.9053571 114.181531,13.0553571 113.694796,13.2329082 M110.876939,11.8232143 C111.20602,11.7757653 111.573367,11.765051 111.855,11.6670918 L111.855,11.1191327 C111.35449,11.1803571 110.847857,11.2354592 110.876939,11.8232143 M113.616735,10.6094388 C113.550918,10.9507653 113.610612,11.3028061 113.655,11.7053571 C114.163163,11.5201531 114.795306,11.4635204 115.182551,11.157398 C115.155,10.8864796 115.089184,10.6507653 114.988163,10.4533163 C114.496837,10.3461735 114.026939,10.4487245 113.616735,10.6094388 M115.848367,3.36658163 C116.977959,3.37882653 118.432041,3.56403061 118.901939,4.22831633 C119.041224,4.27117347 119.100918,4.39515306 119.25551,4.42423469 C119.336633,5.07321429 119.169796,5.85688776 118.823878,6.30229592 C118.451939,6.28392857 118.324898,6.50892857 118.196327,6.73392857 C117.590204,6.98494898 117.082041,7.3247449 116.356531,7.3997449 C115.846837,7.45178571 115.242245,7.12882653 114.82898,7.35994898 C114.567245,7.50688776 114.496837,7.91709184 114.398878,8.22168367 C115.197857,8.49413265 116.151429,8.4497449 116.90449,8.72984694 C117.164694,8.82780612 117.839694,9.34362245 117.922347,9.59158163 C118.015714,9.86862245 117.893265,10.182398 118.119796,10.3752551 C117.977449,12.1966837 117.907041,14.1420918 117.178469,15.6221939 C117.395816,16.0125 117.914694,15.8931122 118.196327,16.1303571 C118.496327,16.3813776 118.386122,16.7778061 118.510102,17.2660714 C118.632551,17.417602 118.788673,17.5339286 118.98,17.6181122 C119.10398,18.0084184 119.015204,18.4553571 119.137653,18.8701531 C119.212653,19.1318878 119.494286,19.3033163 119.332041,19.7318878 C119.298367,19.8252551 119.107041,19.940051 119.018265,20.0839286 C118.947857,20.2033163 118.943265,20.3517857 118.901939,20.3977041 C118.611122,20.709949 118.145816,20.6012755 117.766224,20.7895408 C117.550408,20.6854592 117.334592,20.6456633 117.060612,20.6716837 C116.962653,20.457398 116.797347,20.3104592 116.55398,20.2415816 L116.55398,20.0058673 C116.397857,19.9002551 115.935612,20.1053571 115.848367,19.8497449 C115.661633,19.8329082 115.643265,19.9829082 115.456531,19.967602 C115.459592,20.3517857 115.314184,20.8492347 115.300408,21.1813776 C115.311122,21.2227041 115.376939,21.207398 115.378469,21.2594388 C116.524898,21.2502551 116.633571,22.7334184 116.082551,23.4130102 C115.860612,23.4635204 115.592755,23.3808673 115.378469,23.4130102 C115.050918,24.5211735 115.231531,25.6813776 115.73051,26.4267857 C115.736633,26.8170918 115.735102,27.1492347 115.808571,27.4844388 C115.787143,27.657398 115.676939,27.7431122 115.650918,27.9145408 C115.816224,28.0522959 115.85449,28.3109694 116.044286,28.4227041 C115.65398,28.9431122 115.387653,29.5829082 114.750918,29.7543367 C114.613163,29.8155612 114.72949,29.6227041 114.634592,29.6364796 C114.146327,29.6961735 113.772857,29.8721939 113.420816,30.0681122 C112.516224,29.8905612 112.259082,31.0048469 111.463163,30.9283163 C110.820306,30.8686224 110.388673,30.3895408 110.015204,29.9502551 C109.747347,29.6380102 109.55602,29.3931122 109.50551,28.8543367 C109.702959,28.5941327 109.949388,28.3844388 110.015204,27.992602 C110.113163,28.1686224 110.275408,28.2803571 110.446837,28.3844388 C111.114184,28.3094388 111.63,28.0813776 112.246837,27.9543367 C112.387653,27.7507653 112.638673,27.7767857 112.833061,27.6405612 C113.174388,27.4033163 113.244796,26.915051 113.38102,26.5829082 C113.371837,26.5278061 113.264694,26.5706633 113.264694,26.5048469 C113.598367,25.8237245 112.750408,25.3844388 113.067245,24.8992347 C112.883571,24.842602 113.013673,24.7140306 112.949388,24.5471939 C112.65398,24.6160714 112.448878,24.7767857 112.207041,24.8992347 C111.472347,24.9864796 110.690204,25.1563776 110.053469,25.4487245 C109.640204,25.6385204 109.314184,25.7135204 108.919286,25.8007653 C108.698878,25.8482143 108.476939,25.9079082 108.331531,26.0747449 C107.805,26.2033163 107.137653,26.0885204 106.53,25.9186224 C106.211633,25.6232143 105.847347,25.3752551 105.473878,25.134949 C105.225918,24.7125 105.031531,24.1859694 104.612143,23.8415816 C104.658061,23.4344388 104.713163,23.2216837 104.964184,22.9813776 C105.170816,23.0609694 105.426429,23.0793367 105.63,22.9813776 C106.461122,23.2201531 107.240204,22.8007653 107.977959,22.6293367 C109.360102,22.3094388 110.748367,22.1043367 111.972857,21.5716837 C111.858061,21.282398 111.844286,20.8905612 111.698878,20.6318878 C111.176939,20.8063776 110.720816,20.9625 110.287653,21.140051 C109.435102,21.3022959 108.571837,21.357398 107.745306,21.2594388 C106.476429,21.1079082 106.176429,19.7762755 106.647857,18.7538265 C106.810102,18.6344388 106.865204,18.6191327 106.960102,18.4783163 C107.697857,18.3941327 108.481531,18.2946429 109.035612,18.6359694 C110.009082,18.4737245 111.225918,18.5548469 111.541224,17.7359694 C110.951939,17.8339286 110.215714,17.5660714 109.583571,17.4619898 C109.606531,17.2660714 109.301939,17.2063776 109.075408,17.1482143 C108.986633,17.0885204 108.940714,16.8329082 108.799898,16.7181122 C108.178469,16.5436224 107.90602,16.0201531 107.391735,15.7385204 C107.084082,15.1048469 106.755,14.1788265 106.491735,13.1946429 C106.396837,12.8441327 106.522347,12.2686224 106.412143,11.7834184 C106.343265,11.4742347 105.940714,11.2553571 105.942245,10.9232143 C105.827449,10.8941327 105.792245,10.7854592 105.63,10.8053571 C105.649898,10.565051 106.012653,10.6660714 106.060102,10.4533163 C106.770306,10.3982143 107.038163,9.90688776 107.625918,10.0614796 C107.684082,10.0278061 107.777449,10.0308673 107.745306,9.90535714 C108.241224,9.7875 108.611633,9.98035714 108.95602,9.74770408 C109.109082,9.77372449 109.421327,9.85331633 109.427449,9.63137755 C110.234082,9.4247449 111.371327,9.30382653 111.815204,8.61352041 C111.80449,8.53239796 111.669796,8.57678571 111.659082,8.49719388 C111.600918,8.34719388 111.766224,8.42066327 111.737143,8.2997449 C111.602449,7.99668367 111.642245,7.3752551 111.189184,7.55586735 C110.85398,7.68903061 110.399388,8.22168367 109.935612,8.18341837 C109.771837,8.16811224 109.738163,8.03188776 109.623367,7.98596939 C109.364694,7.88494898 109.156531,7.97219388 108.839694,7.94770408 C108.836633,7.74107143 108.68051,7.68903061 108.565714,7.59413265 C108.519796,6.83494898 107.541735,6.68494898 107.313673,6.18596939 C107.260102,6.07270408 107.070306,5.77117347 106.999898,5.67627551 C106.964694,5.63035714 106.885102,5.6747449 106.842245,5.6380102 C106.658571,5.46352041 106.707551,5.07933673 106.569796,4.93239796 C106.917245,4.99821429 107.016735,4.71811224 107.351939,4.81454082 C107.443776,4.80382653 107.443776,4.70892857 107.351939,4.69821429 C107.731531,4.49923469 108.043776,4.6630102 108.447857,4.62015306 C108.848878,4.57576531 109.188673,4.32627551 109.583571,4.18852041 C110.241735,3.96045918 110.925918,3.97270408 111.737143,3.91454082 C111.721837,3.76454082 111.544286,3.93137755 111.463163,3.79668367 C111.493776,3.6130102 111.559592,3.50280612 111.698878,3.52270408 C111.642245,3.3619898 111.783061,3.09566327 111.893265,2.9747449 C111.703469,2.94260204 111.772347,2.65331633 111.502959,2.70076531 C111.547347,2.57831633 111.50602,2.6119898 111.502959,2.46658163 C111.427959,2.42372449 111.317755,2.41607143 111.227449,2.38852041 C111.288673,2.31811224 111.457041,2.35637755 111.463163,2.23086735 C111.48,2.07015306 111.323878,2.08392857 111.307041,1.95688776 C111.440204,1.92015306 111.414184,1.72729592 111.502959,1.64311224 C111.562653,1.50382653 111.368265,1.62015306 111.383571,1.52678571 C111.536633,1.16862245 111.207551,0.893112245 111.463163,0.547193878 C111.65602,0.467602041 111.876429,0.4125 112.12898,0.391071429 C112.158061,0.244132653 112.081531,0.204336735 112.089184,0.0772959184 C112.121327,0.043622449 112.196327,0.0543367347 112.207041,0.000765306123 C113.420816,0.677295918 115.494796,0.496683673 116.082551,1.80076531 C115.996837,2.26147959 115.874388,2.71147959 115.848367,3.36658163" id="Fill-60" fill="#231815"></path>
                <path d="M98.9736735,17.6566837 C98.9507143,17.8939286 98.7379592,17.9444388 98.6614286,18.1265816 C98.8619388,19.0786224 98.6752041,20.2158673 99.5614286,20.4362755 C99.7588776,20.3413776 100.000714,20.2832143 100.187449,20.2801531 C100.39102,19.2041327 100.375714,18.0301531 100.26551,17.0689286 C99.7496939,17.1561735 99.3915306,17.6015816 98.9736735,17.6566837 M102.615,10.8439286 C102.29051,10.5653571 102.195612,11.0092347 101.871122,11.1194388 C101.880306,11.3505612 101.797653,11.402602 101.871122,11.5495408 C101.525204,12.6745408 100.724694,13.6219898 100.069592,14.5633163 C100.900714,14.8128061 101.995102,14.0964796 103.005306,14.3291327 C103.421633,14.4240306 103.597653,14.8311735 103.868571,15.1510714 C103.879286,15.6270918 103.91449,15.9730102 103.828776,16.4046429 C103.811939,16.4857653 103.710918,16.5653571 103.710918,16.6770918 C103.71398,17.0429082 103.804286,17.9857653 103.672653,18.4388265 C103.602245,18.677602 103.38949,18.9561735 103.320612,19.2240306 C103.365,19.3082143 103.420102,19.3832143 103.398673,19.5347449 C103.167551,20.4791327 102.96551,21.452602 102.498673,22.1597449 C102.053265,22.3020918 101.633878,22.4704592 101.16551,22.5898469 C100.998673,22.9189286 100.518061,23.1393367 100.147653,22.9418878 C99.69,22.952602 99.192551,23.3077041 98.6996939,23.2954592 C98.2940816,23.2832143 98.0522449,22.9755612 97.6420408,22.9418878 C97.6144898,22.6832143 97.3496939,22.6602551 97.1338776,22.5898469 C97.1032653,22.4429082 97.2838776,22.5056633 97.29,22.3939286 C97.2517347,22.3143367 97.14,22.3097449 97.0160204,22.3158673 C96.99,21.9653571 96.7144898,21.9760714 96.5476531,21.8459694 C96.6287755,21.7648469 96.5996939,21.6592347 96.7420408,21.5719898 C96.6486735,21.3791327 96.520102,21.2184184 96.39,21.0622959 C96.4297959,20.5939286 96.2905102,19.7980102 95.9981633,19.4964796 C96.1190816,19.0709694 95.9828571,18.7740306 96.0364286,18.4388265 C95.2527551,18.642398 94.3160204,20.1944388 93.4144898,19.4184184 C93.1772449,19.0311735 93.4206122,18.575051 93.2583673,18.2827041 C93.370102,18.2138265 93.4282653,18.0867857 93.5323469,18.0087245 C93.5063265,17.8265816 93.5935714,17.7577041 93.6104082,17.6184184 C94.4354082,17.0061735 95.134898,16.2714796 95.6461224,15.3469898 C96.2109184,14.9321939 96.3333673,14.0781122 96.9777551,13.7413776 C97.3558163,13.1015816 98.0338776,12.4740306 97.759898,11.627602 C96.8308163,12.0347449 95.8864286,11.5128061 95.2940816,11.0398469 C95.0797959,10.6082143 94.9665306,10.2867857 94.5486735,10.100051 C94.5440816,10.0051531 94.5440816,9.91178571 94.5884694,9.86586735 C94.4537755,9.89647959 94.4384694,9.80770408 94.3144898,9.82760204 C94.3879592,9.61331633 94.4767347,9.41433673 94.6665306,9.31790816 C94.5639796,9.04239796 94.3144898,8.74545918 94.392551,8.41637755 C94.4828571,8.36433673 94.6144898,8.35209184 94.7063265,8.30005102 C94.8410204,8.28321429 94.8241837,8.41637755 94.9022449,8.45617347 C95.8757143,8.32607143 96.5047959,7.60668367 97.4078571,7.3219898 C97.6986735,7.22862245 97.965,7.26994898 98.3078571,7.24392857 C98.8496939,7.1980102 99.3884694,6.90566327 99.9517347,6.81076531 C100.124694,6.78321429 100.251735,6.7725 100.421633,6.73270408 C100.76449,6.65770408 101.306327,6.54443878 101.753265,6.57658163 C102.353265,6.62096939 102.962449,6.89188776 103.593061,7.16433673 C103.758367,7.23627551 103.986429,7.22556122 104.14102,7.3219898 C104.445612,7.50719388 104.823673,8.01076531 104.845102,8.30005102 C104.872653,8.62760204 104.577245,8.94903061 104.415,9.20005102 C104.170102,9.58270408 103.948163,9.99596939 103.672653,10.2179082 C103.461429,10.3878061 103.14,10.4031122 103.005306,10.6495408 C102.786429,10.6235204 102.654796,10.6893367 102.615,10.8439286" id="Fill-62" fill="#231815"></path>
                <path d="M29.1886224,5.73795918 L29.1886224,2.6905102 C29.1886224,2.6905102 29.4013776,1.11244898 27.6105612,1.11244898 L27.2539286,1.11244898 L26.8972959,1.11244898 C25.1064796,1.11244898 25.3192347,2.6905102 25.3192347,2.6905102 L25.3192347,5.73795918 C25.3192347,5.73795918 15.3457653,18.1221429 -0.000153061224,17.2695918 C-0.000153061224,17.2695918 0.650357143,18.212449 3.83556122,18.4405102 C7.22433673,18.6838776 20.4013776,18.9945918 26.8544388,11.087449 C26.8544388,11.087449 26.9967857,10.8563265 27.2539286,10.8318367 C27.5110714,10.8563265 27.6534184,11.087449 27.6534184,11.087449 C34.104949,18.9945918 47.2835204,18.6838776 50.6722959,18.4405102 C53.8590306,18.212449 54.5080102,17.2695918 54.5080102,17.2695918 C39.1620918,18.1221429 29.1886224,5.73795918 29.1886224,5.73795918" id="Fill-64" fill="#231815"></path>
                <path d="M12.3531122,26.252602 C12.4786224,27.2260714 12.5842347,27.7357653 13.5286224,27.8429082 C14.1913776,27.9194388 14.9475,27.8735204 15.6133163,27.8444388 C17.0658673,27.7816837 19.3893367,27.4051531 18.8735204,25.4536224 C18.4816837,23.9704592 16.2837245,24.5031122 14.9811735,24.5031122 C14.4225,24.5031122 13.3204592,24.2934184 12.8444388,24.5888265 C12.0607653,25.0755612 12.4327041,25.2393367 12.3531122,25.775051 L12.3531122,26.252602 Z" id="Fill-67" fill="#C84625"></path>
                <path d="M22.8096429,24.4102041 C23.5458673,24.7285714 24.0111735,24.7714286 25.4775,24.9030612 C26.2657653,24.9734694 27.2208673,24.8602041 27.4688265,25.855102 C27.7382143,26.9418367 26.5428061,27.027551 25.7866837,27.225 C24.6387245,27.5234694 22.599949,28.077551 21.4213776,27.6734694 C19.7162755,27.0872449 20.4494388,24.225 22.3718878,24.4239796 L22.8096429,24.4102041 Z" id="Fill-69" fill="#C84625"></path>
                <path d="M29.2108163,24.7415816 C29.6470408,24.009949 32.7526531,24.459949 33.5822449,24.6022959 C34.2434694,24.7155612 35.2735714,24.6895408 35.6638776,25.2971939 C36.0480612,25.8971939 35.9011224,27.0237245 35.4388776,27.3497449 C34.3154082,28.1380102 32.0103061,27.5778061 30.8194898,27.3038265 C29.9822449,27.1125 29.3944898,27.2594388 29.1097959,26.4068878 C28.7057143,25.1915816 29.3072449,24.5732143 30.3235714,24.0267857" id="Fill-71" fill="#C84625"></path>
                <path d="M42.0929082,25.9345408 C42.9485204,24.2355612 36.8689286,22.7493367 37.0816837,25.9957653 C37.1857653,27.5998469 38.2372959,27.5355612 39.6255612,27.6090306 C41.1270918,27.6886224 42.2413776,27.7314796 42.1725,25.854949" id="Fill-73" fill="#C84625"></path>
                <path d="M32.4711735,28.7970918 C33.9880102,28.7970918 35.4987245,28.8277041 37.0033163,28.8766837 C37.7089286,28.8996429 38.6410714,28.7113776 38.9242347,29.4935204 C39.1278061,30.0629082 38.7022959,31.0547449 38.5278061,31.5751531 C37.9369898,33.3353571 35.9272959,32.3741327 34.5558673,32.0588265 C33.8104592,31.8889286 32.9242347,31.8843367 32.5431122,31.1220918 C32.2630102,30.5618878 32.2369898,29.6817857 32.382398,29.0848469 L32.4711735,28.7970918 Z" id="Fill-75" fill="#C84625"></path>
                <path d="M24.6782143,28.7176531 C26.045051,28.1911224 28.3333163,28.1987755 29.7690306,28.4176531 C30.6460714,28.5508163 30.8557653,28.8385714 30.8052551,29.7492857 C30.7669898,30.4503061 30.7470918,31.2094898 30.087398,31.5278571 C29.045051,32.0314286 27.3353571,31.7314286 26.2072959,31.7390816 C25.3578061,31.7452041 24.9690306,31.8064286 24.7746429,30.8819388 C24.6537245,30.3140816 24.4379082,29.6497959 24.5588265,29.085 L24.6782143,28.7176531 Z" id="Fill-77" fill="#C84625"></path>
                <path d="M16.4194898,28.9363776 C15.8118367,29.4705612 16.2756122,30.6353571 16.3873469,31.3470918 C16.5419388,32.337398 16.8342857,32.2868878 17.7618367,32.2960714 C19.2082653,32.3098469 21.0052041,32.0787245 22.3108163,31.4236224 C23.1679592,30.9919898 23.1220408,30.3552551 22.9261224,29.4338265 C22.7087755,28.4067857 22.3108163,28.5567857 21.3388776,28.5583163 C20.4863265,28.5598469 16.9842857,28.1496429 16.647551,28.7175 L16.4194898,28.9363776 Z" id="Fill-79" fill="#C84625"></path>
                <path d="M12.432551,29.5128061 C12.4386735,30.2413776 12.5504082,31.3327041 12.9055102,31.9755612 C13.2468367,32.592398 13.1473469,32.5372959 13.7856122,32.5357653 C14.0856122,32.5357653 14.5815306,32.3980102 14.7315306,32.1653571 C15.0131633,31.7352551 14.8646939,30.2934184 14.7162245,29.8510714 C14.3902041,28.877602 13.557551,28.9418878 12.5917347,29.3536224 C12.5917347,29.3536224 12.4310204,29.3934184 12.432551,29.5128061" id="Fill-81" fill="#C84625"></path>
                <path d="M41.1586224,29.3398469 C39.7183163,28.7383163 40.0397449,31.3219898 40.0397449,32.2036224 C41.6606633,33.3209694 41.6667857,30.5490306 41.8535204,29.592398" id="Fill-83" fill="#C84625"></path>
                <path d="M14.0429082,33.6477551 C13.4122959,34.0564286 13.3770918,34.1207143 13.3235204,34.8385714 C13.3020918,35.1370408 13.4872959,35.6589796 13.6020918,35.9360204 C13.9725,36.8360204 14.375051,36.8941837 15.2903571,36.9079592 C16.3357653,36.9232653 18.9362755,37.5707143 19.5867857,36.4365306 C19.8133163,36.0416327 19.6143367,34.5569388 19.5133163,34.1207143 C19.2852551,33.1258163 18.8429082,33.2513265 17.9153571,33.2497959 C17.1240306,33.2482653 17.1240306,33.2482653 16.352602,33.3492857 C15.5582143,33.4533673 15.3255612,33.5008163 14.5403571,33.5482653 L14.0429082,33.6477551 Z" id="Fill-85" fill="#C84625"></path>
                <path d="M20.8614796,33.5683163 C21.6558673,32.5305612 23.8109694,32.9285204 24.9038265,33.0892347 C25.7640306,33.2147449 25.9936224,33.297398 26.2859694,34.0275 C26.5140306,34.5984184 26.6517857,35.4616837 26.2002551,35.9606633 C25.3920918,36.8606633 23.3716837,36.6861735 22.3752551,36.2958673 C21.8257653,36.0815816 20.9992347,35.7111735 20.6946429,35.1616837 C20.4635204,34.7468878 20.2339286,34.4178061 20.6028061,33.8667857 L20.8614796,33.5683163 Z" id="Fill-87" fill="#C84625"></path>
                <path d="M27.9417857,33.7079082 C27.7489286,34.3477041 27.9907653,34.5971939 28.1101531,35.1589286 C28.2877041,35.9977041 28.722398,36.3038265 29.547398,36.3528061 C30.6754592,36.4201531 33.0693367,36.1660714 33.9402551,35.4206633 C34.4836224,34.9538265 34.6933163,34.0767857 34.1315816,33.5456633 C33.6264796,33.0696429 32.7953571,33.2716837 32.1708673,33.2502551 C31.047398,33.2119898 29.0928061,32.5186224 28.0979082,33.2502551 L27.9417857,33.7079082 Z" id="Fill-89" fill="#C84625"></path>
                <path d="M40.900102,33.5683163 C39.5684694,32.8244388 34.9092857,32.7295408 36.0388776,35.480051 C36.4230612,36.4167857 38.397551,36.5392347 39.2914286,36.4320918 C40.8557143,36.2468878 40.900102,35.3040306 40.900102,33.9662755 L40.900102,33.5683163 Z" id="Fill-91" fill="#C84625"></path>
                <path d="M31.7709184,37.3437245 C33.1102041,36.9702551 34.6331633,37.6620918 36.0336735,37.8595408 C36.7209184,37.9575 37.4464286,38.079949 37.6515306,38.8146429 C37.819898,39.4207653 37.5107143,40.5304592 36.9321429,40.6728061 C35.6372449,40.9911735 34.4632653,40.9911735 33.0306122,40.8013776 C32.4030612,40.7187245 31.4096939,41.0171939 31.1663265,40.3666837 C30.9734694,39.8539286 30.9489796,38.2513776 31.227551,37.8228061 C31.227551,37.8228061 31.6331633,37.3819898 31.7709184,37.3437245" id="Fill-93" fill="#C84625"></path>
                <path d="M24.0422449,37.5442347 C25.2208163,37.1156633 27.1845918,37.0682143 28.4182653,37.4064796 C29.1315306,37.602398 29.599898,37.7661735 29.6917347,38.577398 C29.7453061,39.0580102 29.7039796,40.4967857 29.3442857,40.7539286 C29.0060204,40.9957653 27.5090816,40.8381122 27.057551,40.8595408 C26.4835714,40.8870918 25.8896939,40.8763776 25.3157143,40.8580102 C24.7294898,40.8396429 23.9794898,40.9192347 23.6703061,40.3069898 C23.3703061,39.7146429 23.4560204,38.4763776 23.7835714,38.0217857 L24.0422449,37.5442347 Z" id="Fill-95" fill="#C84625"></path>
                <path d="M16.352602,38.2597959 C16.1337245,39.0511224 16.3480102,39.3097959 16.4934184,40.0934694 C16.6587245,40.9796939 16.5791327,41.1863265 17.6061735,41.1067347 C18.2306633,41.0577551 18.8827041,40.9123469 19.5102551,40.8235714 C20.1102551,40.7393878 20.9107653,40.8710204 21.4709694,40.6582653 C22.3128061,40.339898 22.1719898,39.617449 22.1352551,38.8291837 C22.0893367,37.8189796 21.9255612,37.6154082 20.9230102,37.5419388 C20.2908673,37.4960204 19.5668878,37.4807143 18.9378061,37.5419388 C18.0806633,37.6261224 17.2235204,37.742449 16.4077041,38.1006122 L16.352602,38.2597959 Z" id="Fill-97" fill="#C84625"></path>
                <path d="M40.2639796,40.5656633 C39.915,40.787602 39.2047959,41.2712755 38.8512245,40.7768878 C38.7226531,40.5978061 38.79,39.8325 38.8144898,39.6120918 C38.94,38.4870918 39.5614286,37.4202551 40.3435714,38.2590306 C40.9313265,38.8911735 40.2639796,40.5656633 40.2639796,40.5656633" id="Fill-99" fill="#C84625"></path>
                <path d="M13.9434184,38.0213265 C13.6434184,38.3442857 14.0551531,39.6238776 14.102602,40.1060204 C14.1653571,40.7458163 14.469949,41.7238776 15.3240306,40.9126531 C16.0204592,40.2529592 16.0770918,37.8483673 14.5204592,38.0136735 L13.9434184,38.0213265 Z" id="Fill-101" fill="#C84625"></path>
            </g>
        </g>
    </g>
</svg>