<?xml version="1.0" encoding="UTF-8" standalone="no"?>
<svg width="115px" height="121px" viewBox="0 0 115 121" version="1.1" xmlns="http://www.w3.org/2000/svg" xmlns:xlink="http://www.w3.org/1999/xlink">
    <!-- Generator: Sketch 41.2 (35397) - http://www.bohemiancoding.com/sketch -->
    <title>RBV_logo_white&amp;red</title>
    <desc>Created with Sketch.</desc>
    <defs></defs>
    <g id="00_Home_首頁" stroke="none" stroke-width="1" fill="none" fill-rule="evenodd">
        <g id="00_Home_Desktop_1250_01_NEW" transform="translate(-35.000000, -52.000000)">
            <g id="RBV_logo_white&amp;red" transform="translate(30.000000, 50.000000)">
                <path d="M9.05853089,117.196085 C9.46549928,117.170402 9.82505388,117.111135 10.1352191,117.022234 C10.4453843,116.931358 10.7061602,116.80097 10.9135955,116.629095 C11.1230065,116.459195 11.2810524,116.241882 11.3897091,115.977155 C11.4963901,115.714404 11.5517062,115.394361 11.5517062,115.019001 C11.5517062,114.708836 11.4924389,114.438182 11.3778556,114.205065 C11.2612967,113.973922 11.0992996,113.782292 10.8958154,113.632148 C10.68838,113.482004 10.4453843,113.369397 10.1688039,113.294325 C9.88827227,113.221228 9.58798491,113.183693 9.26596624,113.183693 C9.05457974,113.183693 8.89653376,113.201473 8.78985273,113.237033 C8.68514727,113.270618 8.63180675,113.367421 8.63180675,113.525467 L8.63180675,121.730029 C8.63180675,121.856466 8.56858836,121.929562 8.44215158,121.951293 C8.35325072,121.967098 8.25447198,121.980927 8.14581537,121.994756 C8.03715876,122.008585 7.9324533,122.018463 7.82972342,122.026365 C7.72501796,122.034267 7.63019037,122.040194 7.54326509,122.04217 C7.4563398,122.044145 7.39114583,122.046121 7.35163434,122.046121 C7.22322198,122.046121 7.16000359,121.978951 7.16000359,121.848563 L7.16000359,113.91268 C7.16000359,113.649928 7.10271193,113.474102 6.98615302,113.387177 C6.87156968,113.298276 6.71945043,113.254813 6.53572198,113.254813 C6.42904095,113.254813 6.31248204,113.262716 6.18802083,113.280496 L6.13863147,112.843894 C6.66610991,112.754993 7.21334411,112.679921 7.78230963,112.618678 C8.34929957,112.557435 8.92814296,112.527802 9.51686422,112.527802 C9.76973779,112.527802 10.0364404,112.539655 10.316972,112.559411 C10.595528,112.581142 10.8721085,112.620654 11.1407866,112.677945 C11.4074892,112.737213 11.6643139,112.816236 11.9073096,112.918966 C12.1483297,113.021695 12.3636674,113.15801 12.5454203,113.323958 C12.7251976,113.489907 12.8713901,113.68944 12.9780711,113.924533 C13.0867277,114.159626 13.1400682,114.438182 13.1400682,114.760201 C13.1400682,115.101976 13.0906789,115.404239 12.987949,115.665014 C12.8852191,115.92579 12.7410022,116.156932 12.5592493,116.356466 C12.379472,116.557974 12.1661099,116.729849 11.9231142,116.872091 C11.6801185,117.014332 11.4193427,117.134842 11.1407866,117.235596 L11.1407866,117.28301 C11.2711746,117.308693 11.4134159,117.35018 11.5675108,117.405496 C11.7216056,117.460812 11.8697737,117.539835 12.0139907,117.642565 C12.1582076,117.745295 12.2945223,117.875682 12.4170079,118.033728 C12.5414691,118.191774 12.6402478,118.389332 12.7153197,118.620474 L13.2981142,120.432076 C13.3810884,120.680999 13.4522091,120.878556 13.517403,121.026724 C13.582597,121.172917 13.6537177,121.285524 13.7268139,121.360596 C13.7999102,121.437644 13.8848599,121.487033 13.9796875,121.512716 C14.0745151,121.536422 14.1950251,121.548276 14.3372665,121.548276 L14.3609734,121.959195 C14.2602191,121.978951 14.1495869,122.000682 14.033028,122.018463 C13.912518,122.036243 13.7939835,122.052047 13.6794001,122.061925 C13.5628412,122.071803 13.4601114,122.081681 13.3672593,122.089583 C13.2744073,122.097486 13.2052622,122.101437 13.1578484,122.101437 C12.987949,122.101437 12.8378053,122.081681 12.7074174,122.04217 C12.5750539,122.002658 12.4565194,121.933513 12.3498384,121.83671 C12.2451329,121.737931 12.1503053,121.609519 12.0693068,121.447522 C11.9863326,121.2875 11.9112608,121.085991 11.8440912,120.842996 L11.283028,118.912859 C11.204005,118.638254 11.1091774,118.418966 10.9965697,118.256968 C10.8879131,118.092996 10.7476473,117.968534 10.581699,117.879634 C10.4157507,117.792708 10.2162177,117.735417 9.98112428,117.705783 C9.74603089,117.678125 9.46352371,117.656394 9.12965158,117.646516 L9.05853089,117.196085 Z" id="Fill-1" fill="#FFFFFF"></path>
                <path d="M19.2931932,118.232274 C19.3089978,118.159177 19.3208513,118.088057 19.3248024,118.018912 C19.3307292,117.949767 19.3327047,117.878646 19.3327047,117.80555 C19.3327047,117.657381 19.3109734,117.517116 19.2655352,117.386728 C19.220097,117.254364 19.1568786,117.139781 19.0719289,117.041002 C18.9869792,116.944199 18.8822737,116.867152 18.7558369,116.811835 C18.6274246,116.756519 18.4871588,116.728861 18.3291128,116.728861 C18.0742636,116.728861 17.8569504,116.776275 17.6751976,116.867152 C17.4934447,116.960004 17.343301,117.082489 17.2247665,117.236584 C17.106232,117.388703 17.0173312,117.566505 16.9580639,117.769989 C16.9007723,117.973473 16.8691631,118.18486 16.8652119,118.406124 L19.2931932,118.232274 Z M21.0494792,121.270708 C20.7966056,121.393193 20.529903,121.503825 20.2493714,121.606555 C19.9708154,121.709285 19.6981861,121.798186 19.4314835,121.871282 C19.1667565,121.946354 18.9178341,122.003646 18.6866918,122.043157 C18.4575251,122.082669 18.2658944,122.100449 18.1137751,122.100449 C17.687051,122.100449 17.3077407,122.021426 16.9778197,121.859429 C16.6478987,121.699407 16.3713182,121.486045 16.1480783,121.219343 C15.9248384,120.95264 15.7529634,120.646426 15.6364045,120.296749 C15.5218211,119.949048 15.4645295,119.587518 15.4645295,119.212159 C15.4645295,118.728143 15.5534303,118.285614 15.731232,117.888524 C15.9110093,117.489458 16.1559806,117.149659 16.4641703,116.867152 C16.7743355,116.584644 17.1319145,116.367331 17.5448096,116.211261 C17.9557292,116.05519 18.3903556,115.978143 18.8486889,115.978143 C19.1509519,115.978143 19.4156789,116.023581 19.6487967,116.116433 C19.8819145,116.20731 20.0755208,116.333746 20.2355424,116.495744 C20.3935884,116.657741 20.5140984,116.851347 20.5990481,117.076563 C20.6820223,117.303754 20.7254849,117.552676 20.7254849,117.821354 C20.7254849,118.052496 20.6800467,118.342906 20.5891703,118.690607 L16.8711386,118.888165 C16.89287,119.222037 16.9580639,119.5243 17.0706717,119.798904 C17.1813039,120.073509 17.3373743,120.310578 17.5408585,120.510111 C17.7443427,120.71162 17.9912895,120.86769 18.2836746,120.978323 C18.5780352,121.088955 18.9138829,121.144271 19.2931932,121.144271 C19.5460668,121.144271 19.8167205,121.112662 20.1031789,121.053394 C20.3916128,120.992152 20.6504131,120.91708 20.8756286,120.828179 L21.0494792,121.270708 Z" id="Fill-3" fill="#FFFFFF"></path>
                <path d="M27.3015805,117.576185 C27.3015805,117.402335 27.2581178,117.254167 27.1711925,117.135632 C27.0842672,117.017098 26.9736351,116.924246 26.8432471,116.851149 C26.7108836,116.780029 26.5666667,116.728664 26.4086207,116.697055 C26.2485991,116.665445 26.0964799,116.649641 25.9483118,116.649641 C25.6065374,116.649641 25.3121767,116.701006 25.0652299,116.803736 C24.8202586,116.906466 24.6227011,117.050682 24.4686063,117.236386 C24.3145115,117.420115 24.2038793,117.641379 24.130783,117.896228 C24.0616379,118.153053 24.0260776,118.429634 24.0260776,118.731897 C24.0260776,118.982795 24.0557112,119.257399 24.116954,119.549784 C24.1781968,119.84217 24.2769756,120.114799 24.4132902,120.365697 C24.5496049,120.614619 24.7293822,120.822055 24.9526221,120.986027 C25.1738865,121.15 25.4465158,121.230999 25.7665589,121.230999 C25.8139727,121.230999 25.8850934,121.225072 25.979921,121.215194 C26.0747486,121.205316 26.1913075,121.18556 26.323671,121.155927 C26.4580101,121.126293 26.6081537,121.086782 26.774102,121.037392 C26.9400503,120.988003 27.1158764,120.922809 27.3015805,120.843786 L27.3015805,117.576185 Z M26.3533046,111.728484 C26.932148,111.570438 27.4102371,111.45783 27.7836207,111.392636 C28.1589799,111.327443 28.3822198,111.293858 28.4572917,111.293858 C28.6252155,111.293858 28.7101652,111.388685 28.7101652,111.578341 L28.7101652,120.820079 C28.7101652,120.997881 28.7220187,121.163829 28.74375,121.313973 C28.7694325,121.464116 28.7970905,121.608333 28.8267241,121.744648 L28.836602,121.792062 C28.836602,121.871085 28.7832615,121.924425 28.6765805,121.950108 C28.6094109,121.967888 28.5323635,121.981717 28.4454382,121.99357 C28.3565374,122.007399 28.2676365,122.019253 28.1747845,122.027155 C28.0819325,122.033082 27.9930316,122.039009 27.9041307,122.04296 C27.8132543,122.044935 27.7322557,122.046911 27.6571839,122.046911 C27.5979167,122.046911 27.5564296,122.029131 27.526796,121.997522 C27.4991379,121.967888 27.475431,121.918499 27.4596264,121.857256 L27.341092,121.412751 C27.0941451,121.507579 26.8471983,121.598455 26.6042026,121.68143 C26.3612069,121.766379 26.1320402,121.839476 25.9167026,121.900718 C25.6993894,121.959986 25.5038075,122.009375 25.3240302,122.046911 C25.1442529,122.082471 24.990158,122.102227 24.8656968,122.102227 C24.5219468,122.102227 24.2137572,122.015302 23.9352011,121.839476 C23.6566451,121.665625 23.4215517,121.444361 23.2259698,121.175682 C23.0323635,120.907004 22.8841954,120.608693 22.7794899,120.282723 C22.6767601,119.954777 22.6253951,119.63671 22.6253951,119.324569 C22.6253951,118.785237 22.7241739,118.311099 22.9177802,117.896228 C23.1133621,117.483333 23.3800647,117.131681 23.7178879,116.847198 C24.0537356,116.562716 24.4508261,116.347378 24.9032328,116.19921 C25.3576149,116.051042 25.8436063,115.977945 26.3592313,115.977945 C26.6772989,115.977945 26.9914152,116.001652 27.3015805,116.049066 L27.3015805,112.813075 C27.3015805,112.532543 27.2581178,112.342888 27.1672414,112.238182 C27.0783405,112.137428 26.9301724,112.084088 26.7247126,112.084088 C26.6239583,112.084088 26.5172773,112.093966 26.3987428,112.107795 L26.3533046,111.728484 Z" id="Fill-5" fill="#FFFFFF"></path>
                <path d="M42.4637213,121.270708 C42.5269397,121.286512 42.6059626,121.300341 42.7047414,121.31417 C42.8035201,121.327999 42.9082256,121.339853 43.0168822,121.349731 C43.1275144,121.361584 43.2440733,121.367511 43.3606322,121.373438 C43.4811422,121.379364 43.5917744,121.38134 43.6984555,121.38134 C44.081717,121.38134 44.4037356,121.324048 44.6625359,121.21144 C44.9213362,121.098833 45.1287716,120.954616 45.2808908,120.77879 C45.4330101,120.606915 45.5416667,120.417259 45.6048851,120.213775 C45.6681034,120.010291 45.6997126,119.822611 45.6997126,119.648761 C45.6997126,119.222037 45.6325431,118.870384 45.498204,118.591828 C45.3638649,118.315248 45.1742098,118.097935 44.9272629,117.935937 C44.6822917,117.77394 44.387931,117.663308 44.0422055,117.604041 C43.6964799,117.542798 43.315194,117.513165 42.8983477,117.513165 L42.6770833,117.513165 L42.5704023,117.513165 C42.534842,117.513165 42.5012572,117.51514 42.4637213,117.521067 L42.4637213,121.270708 Z M42.4637213,116.879005 C42.5150862,116.879005 42.5684267,116.880981 42.6178161,116.882956 C42.669181,116.886907 42.7165948,116.886907 42.7640086,116.886907 C43.2025862,116.886907 43.5838721,116.853323 43.909842,116.784177 C44.2377874,116.715032 44.5084411,116.608351 44.7237787,116.460183 C44.9351652,116.312015 45.0951868,116.12236 45.2018678,115.887267 C45.3065733,115.652173 45.3599138,115.365715 45.3599138,115.027892 C45.3599138,114.695995 45.3026221,114.411512 45.1939655,114.178394 C45.0813578,113.943301 44.9272629,113.749695 44.731681,113.599551 C44.532148,113.449407 44.295079,113.340751 44.0184986,113.271606 C43.7399425,113.204436 43.435704,113.168876 43.1038075,113.168876 C42.878592,113.168876 42.7146193,113.18468 42.6138649,113.21629 C42.5131106,113.247899 42.4637213,113.342726 42.4637213,113.500772 L42.4637213,116.879005 Z M39.970546,112.844881 C40.4367816,112.76981 40.9405532,112.698689 41.4818606,112.629544 C42.0251437,112.562374 42.6375718,112.52879 43.3191451,112.52879 C43.5720187,112.52879 43.8347701,112.538667 44.1133261,112.560399 C44.3918822,112.580154 44.6625359,112.619666 44.9312141,112.673006 C45.2018678,112.730298 45.456717,112.809321 45.6997126,112.912051 C45.9427083,113.014781 46.1560704,113.147144 46.34375,113.311117 C46.5314296,113.47509 46.6795977,113.674623 46.7882543,113.907741 C46.8949353,114.142834 46.9502514,114.419415 46.9502514,114.735506 C46.9502514,114.968624 46.9107399,115.197791 46.831717,115.426958 C46.752694,115.6581 46.6341595,115.873437 46.4780891,116.076922 C46.3220187,116.280406 46.1323635,116.462159 45.9012213,116.626131 C45.6720546,116.790104 45.405352,116.922468 45.1070402,117.021246 L45.1070402,117.052856 C45.1959411,117.070636 45.3144756,117.096318 45.4626437,117.13583 C45.6108118,117.175341 45.7668822,117.234608 45.9328305,117.311656 C46.0987787,117.386728 46.2667026,117.483531 46.436602,117.60009 C46.6045259,117.714673 46.7566451,117.854939 46.8890086,118.018912 C47.0253233,118.182884 47.1339799,118.374515 47.2189296,118.591828 C47.3019037,118.811117 47.3453664,119.063991 47.3453664,119.348473 C47.3453664,119.459106 47.3315374,119.603323 47.3058549,119.779149 C47.2801724,119.95695 47.2228807,120.14463 47.1359555,120.344163 C47.0470546,120.545672 46.924569,120.74718 46.7645474,120.950665 C46.6025503,121.154149 46.3872126,121.335902 46.1205101,121.499874 C45.8498563,121.663847 45.5179598,121.79621 45.1228448,121.89894 C44.7277299,122.003646 44.253592,122.053035 43.7063578,122.053035 C43.4574353,122.053035 43.2381466,122.049084 43.0445402,122.037231 C42.8529095,122.027353 42.6632543,122.013524 42.4755747,121.997719 C42.2878951,121.981915 42.0942888,121.970061 41.8908046,121.958208 C41.6873204,121.94833 41.4502514,121.942403 41.1835489,121.942403 C41.0551365,121.942403 40.9919181,121.877209 40.9919181,121.744846 L40.9919181,113.911692 C40.9919181,113.64894 40.9346264,113.473114 40.8180675,113.386189 C40.7015086,113.299264 40.5513649,113.255801 40.3676365,113.255801 C40.2609555,113.255801 40.1443966,113.263703 40.0199353,113.279508 L39.970546,112.844881 Z" id="Fill-8" fill="#FFFFFF"></path>
                <path d="M48.8033405,116.460183 C49.0897989,116.38116 49.3525503,116.313991 49.5935704,116.258675 C49.8365661,116.203358 50.0519037,116.15792 50.2415589,116.120384 C50.4272629,116.082848 50.5793822,116.057166 50.6979167,116.041361 C50.8184267,116.025557 50.8954741,116.017654 50.9310345,116.017654 C51.1009339,116.017654 51.1858836,116.112482 51.1858836,116.302137 L51.1858836,116.705154 C51.3656609,116.606376 51.5493894,116.509573 51.7390445,116.420672 C51.9286997,116.331771 52.1144037,116.252748 52.2981322,116.187554 C52.4779095,116.12236 52.6517601,116.069019 52.8177083,116.033459 C52.9856322,115.995923 53.1318247,115.978143 53.2582615,115.978143 C53.4005029,115.978143 53.5269397,116.00185 53.6336207,116.053215 C53.7422773,116.102604 53.8351293,116.169774 53.9102011,116.254723 C53.9872486,116.337698 54.0425647,116.434501 54.0820761,116.539206 C54.1196121,116.645887 54.1354167,116.752568 54.1354167,116.8632 C54.1354167,116.979759 54.1156609,117.092367 54.078125,117.199048 C54.0366379,117.307705 53.9773707,117.404508 53.8943966,117.487482 C53.813398,117.572432 53.7106681,117.641577 53.590158,117.688991 C53.4676724,117.740356 53.3274066,117.766038 53.1634339,117.766038 L52.9974856,117.766038 C52.9698276,117.766038 52.9421695,117.764063 52.9105603,117.762087 C52.8789511,117.760111 52.8493175,117.754185 52.8236351,117.750233 L52.8236351,117.576383 C52.8236351,117.333387 52.7742457,117.163488 52.6774425,117.066685 C52.5786638,116.967906 52.4542026,116.918517 52.3020833,116.918517 C52.1440374,116.918517 51.9662356,116.952101 51.7667026,117.021246 C51.5691451,117.090392 51.3755388,117.177317 51.1858836,117.283998 L51.1858836,121.729041 C51.1858836,121.855478 51.1226652,121.928574 50.9942529,121.950305 C50.905352,121.968085 50.8105244,121.981915 50.7077945,121.993768 C50.6030891,122.007597 50.5043103,122.017475 50.4114583,122.025377 C50.3166307,122.033279 50.2277299,122.039206 50.1487069,122.043157 C50.0696839,122.045133 50.0084411,122.047108 49.966954,122.047108 C49.8385417,122.047108 49.7772989,121.979939 49.7772989,121.847575 L49.7772989,117.536871 C49.7772989,117.25634 49.7318606,117.066685 49.6429598,116.961979 C49.5520833,116.859249 49.4137931,116.807884 49.2241379,116.807884 C49.1648707,116.807884 49.107579,116.80986 49.0522629,116.811835 C48.9989224,116.815787 48.9297773,116.823689 48.8507543,116.839494 L48.8033405,116.460183 Z" id="Fill-10" fill="#FFFFFF"></path>
                <path d="M57.6278376,113.556681 C57.6278376,113.841164 57.5527658,114.046624 57.4026221,114.17306 C57.2524784,114.299497 57.0351652,114.364691 56.7506825,114.364691 C56.5136135,114.364691 56.3318606,114.291595 56.2034483,114.149353 C56.0770115,114.007112 56.0157687,113.809555 56.0157687,113.556681 C56.0157687,113.272198 56.0928161,113.066739 56.2488865,112.942277 C56.4029813,112.819792 56.6222701,112.758549 56.9087284,112.758549 C57.1457974,112.758549 57.3255747,112.827694 57.4460848,112.96796 C57.5685704,113.10625 57.6278376,113.303807 57.6278376,113.556681 L57.6278376,113.556681 Z M55.1998563,116.460776 C55.4843391,116.381753 55.7490661,116.312608 55.9900862,116.259267 C56.2330819,116.203951 56.446444,116.156537 56.6360991,116.119001 C56.8237787,116.083441 56.975898,116.057759 57.0944325,116.039978 C57.212967,116.024174 57.2900144,116.018247 57.3275503,116.018247 C57.4974497,116.018247 57.5823994,116.111099 57.5823994,116.30273 L57.5823994,121.729634 C57.5823994,121.85607 57.5172055,121.929167 57.3907687,121.950898 C57.3018678,121.966703 57.2050647,121.982507 57.1023348,121.994361 C56.9996049,122.00819 56.9008261,122.018068 56.8059986,122.02597 C56.711171,122.033872 56.6222701,122.039799 56.5432471,122.041774 C56.4642241,122.04375 56.4049569,122.045726 56.3614943,122.045726 C56.2350575,122.045726 56.1738147,121.980532 56.1738147,121.848168 L56.1738147,117.537464 C56.1738147,117.256932 56.1264009,117.065302 56.0375,116.962572 C55.9466236,116.859842 55.8083333,116.808477 55.6186782,116.808477 C55.5594109,116.808477 55.5040948,116.808477 55.4468032,116.812428 C55.3934626,116.814404 55.3262931,116.824282 55.2472701,116.840086 L55.1998563,116.460776 Z" id="Fill-12" fill="#FFFFFF"></path>
                <path d="M63.7629849,117.749838 C63.7629849,117.595744 63.7550826,117.457453 63.739278,117.331017 C63.7234734,117.20458 63.6839619,117.095923 63.6207435,117.003071 C63.5575251,116.910219 63.4666487,116.839098 63.3481142,116.787733 C63.2295797,116.738344 63.065607,116.714637 62.8601473,116.714637 C62.5657866,116.714637 62.3168642,116.764027 62.11338,116.862805 C61.9118714,116.96356 61.7459231,117.097899 61.6194864,117.267798 C61.4930496,117.435722 61.4001976,117.633279 61.3409303,117.860471 C61.2836386,118.087662 61.2559806,118.330657 61.2559806,118.587482 C61.2559806,118.947037 61.3033944,119.280909 61.398222,119.589098 C61.4930496,119.897288 61.6352909,120.167942 61.8288973,120.40106 C62.020528,120.632202 62.2635237,120.813955 62.5618355,120.946318 C62.8561961,121.078682 63.2058728,121.143876 63.6128412,121.143876 C63.7195223,121.143876 63.8360812,121.135973 63.9704203,121.120169 C64.1008082,121.104364 64.2351473,121.084608 64.3734375,121.060902 C64.5097522,121.037195 64.6421157,121.007561 64.7764547,120.973976 C64.9068427,120.940392 65.0293283,120.904831 65.1379849,120.867295 L65.3217134,121.309824 C65.0727909,121.420456 64.8120151,121.525162 64.5393858,121.621965 C64.2647809,121.720744 63.9980783,121.803718 63.739278,121.874838 C63.4804777,121.945959 63.2394576,122.003251 63.0181932,122.042762 C62.7989045,122.082274 62.615176,122.102029 62.4729346,122.102029 C62.0521372,122.102029 61.676778,122.023006 61.3527838,121.86496 C61.0287895,121.706915 60.7581358,121.493552 60.5348958,121.22685 C60.3136315,120.962123 60.143732,120.653933 60.0271731,120.306232 C59.9125898,119.956555 59.8552981,119.59305 59.8552981,119.213739 C59.8552981,118.723797 59.9461746,118.279292 60.1318786,117.880226 C60.315607,117.483136 60.5684806,117.141361 60.8904993,116.858854 C61.212518,116.578323 61.5898527,116.359034 62.0225036,116.206915 C62.4551545,116.054795 62.9174389,115.977748 63.4133082,115.977748 C63.6148168,115.977748 63.8143499,115.995528 64.0119073,116.033064 C64.2114404,116.068624 64.3872665,116.133818 64.5472881,116.222719 C64.7053341,116.31162 64.8317708,116.43213 64.9305496,116.578323 C65.0273527,116.726491 65.0767421,116.912195 65.0767421,117.133459 C65.0767421,117.412015 64.9838901,117.613524 64.7981861,117.737985 C64.6144576,117.862446 64.3833154,117.923689 64.1106861,117.923689 C63.9941272,117.923689 63.8795438,117.915787 63.7629849,117.899982 L63.7629849,117.749838 Z" id="Fill-14" fill="#FFFFFF"></path>
                <path d="M66.4098599,111.728682 C66.9906789,111.570636 67.4667924,111.458028 67.8421516,111.392834 C68.2155352,111.325665 68.4407507,111.294055 68.5158226,111.294055 C68.6817708,111.294055 68.7667205,111.388883 68.7667205,111.578538 L68.7667205,118.745923 L70.9438039,116.404867 C70.9951688,116.351527 71.0485093,116.312015 71.0978987,116.286333 C71.1492636,116.258675 71.2105065,116.236943 71.2836027,116.215212 C71.3981861,116.183603 71.5265984,116.155945 71.6629131,116.132238 C71.8012033,116.108531 71.9335668,116.088775 72.0619792,116.072971 C72.1923671,116.057166 72.3069504,116.045312 72.4116559,116.03741 C72.5143858,116.029508 72.5855065,116.025557 72.6289691,116.025557 C72.71787,116.025557 72.7633082,116.067044 72.7633082,116.151994 C72.7633082,116.177676 72.7415769,116.213236 72.7000898,116.254723 L70.0587464,118.342906 L72.9450611,121.729041 C72.9707435,121.770528 72.9845726,121.806088 72.9845726,121.831771 C72.9845726,121.894989 72.9490122,121.936476 72.8759159,121.950305 C72.7850395,121.968085 72.6783585,121.981915 72.5519217,121.993768 C72.4294361,122.007597 72.3069504,122.017475 72.1864404,122.025377 C72.0639547,122.033279 71.9533226,122.039206 71.8525682,122.043157 C71.7537895,122.045133 71.6787177,122.047108 71.6332795,122.047108 C71.5621588,122.047108 71.5028915,122.031304 71.4535022,122.003646 C71.4021372,121.974012 71.3468211,121.922647 71.2836027,121.847575 L68.7667205,118.896067 L68.7667205,121.729041 C68.7667205,121.855478 68.7035022,121.928574 68.5790409,121.950305 C68.4881645,121.968085 68.3913614,121.981915 68.2886315,121.993768 C68.1859016,122.007597 68.0871228,122.017475 67.9922953,122.025377 C67.8974677,122.033279 67.8105424,122.039206 67.7315194,122.043157 C67.6524964,122.045133 67.5912536,122.047108 67.5497665,122.047108 C67.4233297,122.047108 67.3601114,121.979939 67.3601114,121.847575 L67.3601114,112.813272 C67.3601114,112.532741 67.3146731,112.343085 67.2237967,112.23838 C67.1348958,112.13565 66.9867277,112.084285 66.7832435,112.084285 C66.6824892,112.084285 66.5738326,112.094163 66.4572737,112.107992 L66.4098599,111.728682 Z" id="Fill-17" fill="#FFFFFF"></path>
                <path d="M90.6608297,113.010632 C90.6983657,112.894073 90.7833154,112.81505 90.9216056,112.773563 C90.9966774,112.751832 91.0757004,112.736027 91.1586746,112.726149 C91.2436243,112.716272 91.3265984,112.706394 91.4056214,112.698491 C91.4846444,112.690589 91.5557651,112.684662 91.6209591,112.682687 C91.6901042,112.678736 91.7394935,112.678736 91.7750539,112.678736 C91.8343211,112.678736 91.871857,112.686638 91.8916128,112.706394 C91.909393,112.724174 91.9192708,112.747881 91.9192708,112.773563 C91.9192708,112.795295 91.9054418,112.838757 91.8797593,112.907902 L88.1222162,121.888865 C88.0787536,121.977766 88.0352909,122.02518 87.9859016,122.029131 C87.9602191,122.035057 87.9167565,122.040984 87.8555136,122.046911 C87.7962464,122.050862 87.733028,122.054813 87.6658585,122.058764 C87.6006645,122.06074 87.5374461,122.062716 87.4762033,122.064691 C87.4149605,122.068642 87.375449,122.068642 87.3537177,122.068642 C87.3240841,122.068642 87.2924749,122.06074 87.2628412,122.046911 C87.2351832,122.029131 87.2095007,121.995546 87.1877694,121.942205 L84.0703125,113.911494 C83.9754849,113.664547 83.8648527,113.498599 83.7344648,113.413649 C83.6060524,113.330675 83.4559088,113.287213 83.2879849,113.287213 C83.2346444,113.287213 83.1813039,113.291164 83.1259878,113.295115 C83.0686961,113.301042 83.0094289,113.308944 82.9481861,113.318822 L82.8987967,112.884195 C83.1319145,112.836782 83.3650323,112.795295 83.5961746,112.76171 C83.8273168,112.726149 84.0387033,112.698491 84.2323096,112.674784 C84.4259159,112.651078 84.5879131,112.633297 84.718301,112.619468 C84.8526401,112.605639 84.9356142,112.599713 84.9731501,112.599713 C85.0521731,112.599713 85.1114404,112.625395 85.1470007,112.674784 C85.1845366,112.724174 85.220097,112.795295 85.2576329,112.884195 L88.0807292,120.249138 L88.1143139,120.249138 L90.6608297,113.010632 Z" id="Fill-19" fill="#FFFFFF"></path>
                <path d="M95.3162716,113.556681 C95.3162716,113.841164 95.2411997,114.046624 95.091056,114.17306 C94.9389368,114.299497 94.7235991,114.364691 94.4391164,114.364691 C94.2020474,114.364691 94.0202945,114.291595 93.8918822,114.149353 C93.7654454,114.007112 93.7042026,113.809555 93.7042026,113.556681 C93.7042026,113.272198 93.78125,113.066739 93.9373204,112.942277 C94.0914152,112.819792 94.310704,112.758549 94.5971624,112.758549 C94.8342313,112.758549 95.0140086,112.827694 95.1345187,112.96796 C95.2570043,113.10625 95.3162716,113.303807 95.3162716,113.556681 L95.3162716,113.556681 Z M92.8863147,116.460776 C93.172773,116.381753 93.4375,116.312608 93.6785201,116.259267 C93.9215158,116.203951 94.1348779,116.156537 94.324533,116.119001 C94.5122126,116.083441 94.6643319,116.057759 94.7808908,116.039978 C94.9014009,116.024174 94.9784483,116.018247 95.0159842,116.018247 C95.1858836,116.018247 95.2708333,116.111099 95.2708333,116.30273 L95.2708333,121.729634 C95.2708333,121.85607 95.2056394,121.929167 95.0792026,121.950898 C94.9903017,121.966703 94.8934986,121.982507 94.7907687,121.994361 C94.6880388,122.00819 94.5892601,122.018068 94.4944325,122.02597 C94.3996049,122.033872 94.310704,122.039799 94.231681,122.041774 C94.152658,122.04375 94.0933908,122.045726 94.0499282,122.045726 C93.9234914,122.045726 93.8622486,121.980532 93.8622486,121.848168 L93.8622486,117.537464 C93.8622486,117.256932 93.8148348,117.065302 93.7259339,116.962572 C93.6350575,116.859842 93.4967672,116.808477 93.3071121,116.808477 C93.2478448,116.808477 93.1925287,116.808477 93.1352371,116.812428 C93.0818966,116.814404 93.014727,116.824282 92.935704,116.840086 L92.8863147,116.460776 Z" id="Fill-21" fill="#FFFFFF"></path>
                <path d="M97.2262572,111.728682 C97.8070761,111.570636 98.2831897,111.458028 98.6585489,111.392834 C99.0319325,111.325665 99.257148,111.294055 99.3302443,111.294055 C99.4981681,111.294055 99.5831178,111.388883 99.5831178,111.578538 L99.5831178,121.729041 C99.5831178,121.855478 99.5198994,121.928574 99.3954382,121.950305 C99.3045618,121.968085 99.2077586,121.981915 99.1050287,121.993768 C99.0022989,122.007597 98.9035201,122.017475 98.8086925,122.025377 C98.7138649,122.033279 98.6269397,122.039206 98.5479167,122.043157 C98.4688937,122.045133 98.4076509,122.047108 98.3661638,122.047108 C98.239727,122.047108 98.174533,121.979939 98.174533,121.847575 L98.174533,112.813272 C98.174533,112.532741 98.1310704,112.343085 98.040194,112.23838 C97.9512931,112.13565 97.803125,112.084285 97.5976652,112.084285 C97.4988865,112.084285 97.3902299,112.094163 97.273671,112.107992 L97.2262572,111.728682 Z" id="Fill-23" fill="#FFFFFF"></path>
                <path d="M101.540122,111.728682 C102.120941,111.570636 102.597055,111.458028 102.972414,111.392834 C103.345797,111.325665 103.571013,111.294055 103.644109,111.294055 C103.812033,111.294055 103.896983,111.388883 103.896983,111.578538 L103.896983,121.729041 C103.896983,121.855478 103.833764,121.928574 103.709303,121.950305 C103.618427,121.968085 103.521624,121.981915 103.418894,121.993768 C103.316164,122.007597 103.217385,122.017475 103.122557,122.025377 C103.02773,122.033279 102.940805,122.039206 102.861782,122.043157 C102.782759,122.045133 102.721516,122.047108 102.680029,122.047108 C102.553592,122.047108 102.488398,121.979939 102.488398,121.847575 L102.488398,112.813272 C102.488398,112.532741 102.444935,112.343085 102.354059,112.23838 C102.265158,112.13565 102.11699,112.084285 101.91153,112.084285 C101.812751,112.084285 101.704095,112.094163 101.587536,112.107992 L101.540122,111.728682 Z" id="Fill-25" fill="#FFFFFF"></path>
                <path d="M109.820546,119.134124 C109.571624,119.149928 109.340481,119.165733 109.123168,119.177586 C108.90783,119.191415 108.710273,119.211171 108.530496,119.236853 C108.350718,119.262536 108.192672,119.304023 108.054382,119.359339 C107.918068,119.414655 107.807435,119.493678 107.722486,119.592457 C107.659267,119.667529 107.607902,119.758405 107.56444,119.871013 C107.522953,119.981645 107.501221,120.102155 107.501221,120.234519 C107.501221,120.345151 107.519001,120.457759 107.554562,120.574318 C107.586171,120.690876 107.647414,120.797557 107.734339,120.894361 C107.821264,120.991164 107.939799,121.072162 108.085991,121.135381 C108.234159,121.198599 108.421839,121.230208 108.64903,121.230208 C108.680639,121.230208 108.732004,121.226257 108.803125,121.214404 C108.874246,121.204526 108.961171,121.188721 109.063901,121.163039 C109.166631,121.141307 109.281214,121.107723 109.407651,121.06426 C109.534088,121.022773 109.664476,120.969432 109.794864,120.906214 L109.820546,119.134124 Z M106.545043,116.635022 C106.817672,116.524389 107.088326,116.425611 107.355029,116.340661 C107.621731,116.257687 107.872629,116.186566 108.107723,116.13125 C108.340841,116.075934 108.554203,116.034447 108.747809,116.004813 C108.941415,115.97518 109.099461,115.961351 109.225898,115.961351 C109.607184,115.961351 109.925251,116.004813 110.184052,116.091739 C110.440876,116.178664 110.650287,116.316954 110.808333,116.506609 C110.966379,116.69824 111.080963,116.93926 111.150108,117.231645 C111.217277,117.52403 111.248886,117.875682 111.244935,118.288578 L111.203448,120.866703 C111.199497,121.030675 111.209375,121.18477 111.237033,121.325036 C111.262716,121.469253 111.290374,121.607543 111.323958,121.745833 C111.327909,121.749784 111.331861,121.771516 111.331861,121.809052 C111.331861,121.888075 111.27852,121.935489 111.171839,121.951293 C111.102694,121.967098 111.025647,121.980927 110.938721,121.994756 C110.851796,122.008585 110.762895,122.018463 110.67597,122.026365 C110.585093,122.034267 110.496193,122.040194 110.405316,122.04217 C110.316415,122.044145 110.237392,122.046121 110.168247,122.046121 C110.10898,122.046121 110.065517,122.030316 110.035884,121.998707 C110.008226,121.967098 109.986494,121.919684 109.97069,121.856466 L109.865984,121.477155 C109.666451,121.566056 109.460991,121.64903 109.249605,121.724102 C109.040194,121.803125 108.83671,121.868319 108.645079,121.923635 C108.453448,121.978951 108.277622,122.022414 108.119576,122.054023 C107.96153,122.085632 107.831142,122.101437 107.730388,122.101437 C107.451832,122.101437 107.208836,122.050072 107.003376,121.947342 C106.797917,121.844612 106.629993,121.7162 106.495654,121.558154 C106.365266,121.404059 106.266487,121.232184 106.203269,121.044504 C106.142026,120.8588 106.108441,120.680999 106.108441,120.511099 C106.108441,120.210812 106.161782,119.955963 106.270438,119.748527 C106.379095,119.539116 106.525287,119.367241 106.710991,119.228951 C106.874964,119.108441 107.064619,119.007687 107.283908,118.928664 C107.503197,118.849641 107.744217,118.788398 108.006968,118.74296 C108.271695,118.697522 108.556178,118.665912 108.862392,118.644181 C109.168606,118.62245 109.490625,118.606645 109.828448,118.596767 L109.836351,118.328089 C109.840302,118.085093 109.826473,117.86778 109.790912,117.674174 C109.757328,117.482543 109.696085,117.31857 109.607184,117.188182 C109.516307,117.055819 109.393822,116.955065 109.241703,116.887895 C109.089583,116.81875 108.895977,116.785165 108.664835,116.785165 C108.380352,116.785165 108.08204,116.816774 107.775826,116.879993 C107.467636,116.943211 107.114009,117.038039 106.718894,117.164476 L106.545043,116.635022 Z" id="Fill-27" fill="#FFFFFF"></path>
                <path d="M117.315679,117.900377 C117.258387,117.704795 117.19912,117.526994 117.141828,117.368948 C117.084537,117.210902 117.009465,117.076563 116.916613,116.961979 C116.823761,116.849371 116.705226,116.762446 116.562985,116.701203 C116.422719,116.63996 116.238991,116.610327 116.017726,116.610327 C115.879436,116.610327 115.743121,116.624156 115.606807,116.649838 C115.468517,116.675521 115.346031,116.718983 115.233423,116.776275 C115.124767,116.833567 115.035866,116.910614 114.966721,117.005442 C114.8956,117.100269 114.863991,117.218804 114.863991,117.361045 C114.863991,117.505262 114.901527,117.627748 114.98055,117.734429 C115.059573,117.839134 115.166254,117.933962 115.298617,118.01496 C115.430981,118.097935 115.5831,118.173006 115.75695,118.240176 C115.930801,118.309321 116.110578,118.378466 116.294307,118.445636 C116.517547,118.524659 116.73486,118.615535 116.950198,118.71629 C117.167511,118.815068 117.361117,118.933603 117.532992,119.071893 C117.704867,119.208208 117.845133,119.370205 117.951814,119.557884 C118.060471,119.745564 118.113811,119.966828 118.113811,120.225629 C118.113811,120.559501 118.028861,120.843983 117.856986,121.081052 C117.685111,121.318121 117.465823,121.511728 117.197144,121.661871 C116.928466,121.812015 116.630154,121.922647 116.30616,121.993768 C115.982166,122.064889 115.66805,122.100449 115.361835,122.100449 C115.176131,122.100449 114.968696,122.082669 114.735578,122.043157 C114.504436,122.003646 114.287123,121.938452 114.083639,121.847575 C113.88213,121.758675 113.710255,121.64014 113.571965,121.491972 C113.43565,121.343804 113.368481,121.162051 113.368481,120.946713 C113.368481,120.687913 113.455406,120.500233 113.629256,120.383675 C113.803107,120.269091 114.024371,120.209824 114.29305,120.209824 C114.352317,120.209824 114.399731,120.2118 114.443193,120.213775 C114.48468,120.217726 114.536045,120.223653 114.593337,120.233531 L114.593337,120.36787 C114.593337,120.717547 114.676311,120.984249 114.842259,121.171929 C115.010183,121.357633 115.284788,121.45246 115.670025,121.45246 C115.812267,121.45246 115.948581,121.436656 116.076994,121.405047 C116.207381,121.373438 116.319989,121.326024 116.418768,121.262805 C116.515571,121.199587 116.594594,121.118588 116.655837,121.021785 C116.715104,120.923006 116.746713,120.808423 116.746713,120.678035 C116.746713,120.514063 116.705226,120.375772 116.622252,120.261189 C116.541254,120.148581 116.434573,120.047827 116.298258,119.960902 C116.163919,119.873976 116.009824,119.796929 115.835973,119.727784 C115.662123,119.658639 115.482346,119.587518 115.298617,119.514422 C115.081304,119.435399 114.865966,119.348473 114.648653,119.253646 C114.433315,119.158818 114.237733,119.044235 114.06981,118.909896 C113.897935,118.773581 113.755693,118.611584 113.649012,118.421929 C113.540356,118.232274 113.487015,118.003107 113.487015,117.734429 C113.487015,117.406483 113.571965,117.131879 113.741864,116.906663 C113.913739,116.683423 114.131052,116.499695 114.393804,116.361404 C114.652604,116.221139 114.937087,116.12236 115.243301,116.061117 C115.54754,115.999874 115.835973,115.970241 116.106627,115.970241 C116.365427,115.970241 116.61435,115.986045 116.857346,116.017654 C117.100341,116.049264 117.339386,116.100629 117.576455,116.1757 C117.617942,116.185578 117.639673,116.20731 117.639673,116.238919 C117.651527,116.32782 117.659429,116.452281 117.669307,116.606376 C117.677209,116.762446 117.683136,116.922468 117.689062,117.084465 C117.691038,117.248438 117.696965,117.402532 117.69894,117.548725 C117.700916,117.692942 117.702892,117.799623 117.702892,117.868768 L117.315679,117.900377 Z" id="Fill-29" fill="#FFFFFF"></path>
                <path d="M99.9310165,85.9388829 C100.039673,85.9606142 100.175988,86.231268 100.266864,86.0337105 C100.32218,86.0771731 100.324156,86.179903 100.420959,86.1739763 C100.312302,86.3399246 100.189817,86.1245869 100.017942,86.2292924 C99.9981861,86.1344648 99.9013829,86.1245869 99.8974318,86.0139547 C99.9329921,86.0119792 99.9231142,85.9685165 99.9310165,85.9388829" id="Fill-31" fill="#FFFFFF"></path>
                <path d="M104.164278,93.1931932 C104.263057,93.1872665 104.361835,93.1833154 104.458639,93.1793642 C104.448761,93.3729705 104.687805,93.2899964 104.656196,93.5013829 C104.430981,93.5725036 104.211692,93.4342134 104.164278,93.1931932" id="Fill-33" fill="#FFFFFF"></path>
                <path d="M94.0139727,95.3096264 C94.0890445,95.3570402 94.035704,95.5862069 93.915194,95.5723779 C93.9191451,95.5289152 93.9053161,95.5071839 93.8756825,95.4992816 C93.929023,95.4419899 94.0376796,95.4360632 94.0139727,95.3096264" id="Fill-35" fill="#FFFFFF"></path>
                <path d="M93.0135417,98.45 C93.0728089,98.4855603 93.021444,98.714727 92.9147629,98.714727 C92.9009339,98.5803879 93.0115661,98.5665589 93.0135417,98.45" id="Fill-37" fill="#FFFFFF"></path>
                <path d="M92.8179598,99.0124461 C92.7922773,99.0815912 92.7646193,99.1507364 92.7547414,99.2376616 C92.6737428,99.2060524 92.691523,98.9709591 92.8179598,99.0124461" id="Fill-39" fill="#FFFFFF"></path>
                <path d="M98.7020115,103.610794 C98.7533764,103.529795 98.7928879,103.634501 98.8837644,103.567331 C98.8719109,103.628574 98.9153736,103.634501 98.9608118,103.636476 C98.913398,103.733279 98.769181,103.618696 98.7020115,103.610794" id="Fill-41" fill="#FFFFFF"></path>
                <path d="M92.0877874,98.3456897 C92.1806394,98.1718391 92.2813937,98.0039152 92.3979526,97.8537716 C92.1134698,97.707579 91.8467672,98.237033 92.0877874,98.3456897 M91.1770474,97.758944 C91.3074353,97.7609195 91.3311422,97.666092 91.3904095,97.6028736 C91.3568247,97.5692888 91.1533405,97.535704 91.1335848,97.614727 C91.1889009,97.6186782 91.1711207,97.7016523 91.1770474,97.758944 M92.1648348,97.6048491 C92.2399066,97.6127514 92.2655891,97.6739943 92.316954,97.707579 C92.330783,97.6384339 92.3920259,97.6127514 92.382148,97.521875 C92.3070761,97.5139727 92.3051006,97.4250718 92.2320043,97.4171695 C92.1529813,97.5060704 92.2023707,97.5179239 92.1648348,97.6048491 M92.7930675,95.9908046 C92.911602,95.9710489 92.8740661,95.8070761 92.8898707,95.6924928 C92.7041667,95.7023707 92.8483836,95.9374641 92.7930675,95.9908046 M94.1917744,93.5331897 C94.1423851,93.6457974 94.2115302,93.675431 94.166092,93.754454 C94.3083333,93.7327227 94.2945043,93.7090158 94.3873563,93.7821121 C94.4624282,93.7208693 94.4644037,93.5944325 94.4466236,93.4462644 C94.3320402,93.4482399 94.3478448,93.56875 94.1917744,93.5331897 M95.4482399,90.3070761 C95.2921695,90.2616379 95.2645115,90.5125359 95.3494612,90.5698276 C95.503556,90.5263649 95.5193606,90.224102 95.4087284,90.2715158 C95.4304598,90.2734914 95.4541667,90.2734914 95.4482399,90.3070761 M95.3929239,89.9020833 C95.4521911,89.9297414 95.4521911,90.0186422 95.5450431,90.0067888 C95.6161638,89.8546695 95.5766523,89.8210848 95.6003592,89.6353807 C95.5647989,89.6373563 95.5292385,89.6393319 95.4917026,89.6413075 C95.503556,89.7697198 95.4087284,89.801329 95.3929239,89.9020833 M93.3640086,72.7461925 C93.3165948,72.7501437 93.3165948,72.7975575 93.255352,72.7876796 C93.2849856,72.9220187 93.3896911,72.9753592 93.5220546,72.9970905 C93.6544181,72.8074353 93.4608118,72.6632184 93.3264727,72.7126078 C93.348204,72.7126078 93.3679598,72.7145833 93.3640086,72.7461925 M105.420941,71.2427802 C105.424892,71.304023 105.426868,71.3672414 105.428843,71.4284842 C105.310309,71.3909483 105.343894,71.489727 105.284626,71.5075072 C105.284626,71.4442888 105.253017,71.4146552 105.207579,71.4008261 C105.213506,71.4660201 105.173994,71.489727 105.100898,71.4798491 C105.266846,71.8156968 105.748886,71.7287716 106.14005,71.6536997 C106.031394,71.3731681 105.586889,71.4600934 105.420941,71.2427802 M106.390948,71.4936782 C106.357364,71.2803161 106.045223,71.2704382 105.908908,71.4067529 C106.03732,71.4699713 106.173635,71.5252874 106.390948,71.4936782 M106.973743,70.509842 C106.857184,70.4327945 106.639871,70.0673132 106.523312,70.3458693 C106.726796,70.4841595 107.001401,70.7469109 107.345151,70.6046695 C107.285884,70.5019397 107.149569,70.4861351 106.973743,70.509842 M106.066954,70.8476652 C106.264511,71.0491739 106.797917,71.0491739 107.102155,70.908908 C106.955963,70.695546 106.60431,70.709375 106.458118,70.4960129 C106.361315,70.4347701 106.434411,70.1858477 106.294145,70.1720187 C106.226976,70.4189655 105.956322,70.5355244 106.066954,70.8476652 M114.405855,76.8079741 C114.307076,76.7645115 114.309052,76.6064655 114.247809,76.5215158 C114.340661,76.5017601 114.348563,76.4010057 114.386099,76.3298851 C114.322881,76.3180316 114.295223,76.3891523 114.277443,76.3358118 C114.403879,75.758944 114.158908,75.3658046 114.09569,74.7948635 C113.923815,74.6447198 113.591918,74.4155532 113.410165,74.3088721 C111.989727,73.4830819 110.261099,72.5565374 108.593714,72.0962284 C108.285524,72.0112787 107.890409,71.8137213 107.584195,71.8077945 C107.362931,71.8077945 107.145618,71.9520115 106.892744,71.9895474 C106.321803,72.0646193 105.723204,72.0922773 105.300431,71.8018678 C105.199677,71.8492816 105.1088,71.8532328 105.004095,71.8156968 C104.913218,71.6576509 106.38107,71.4818247 105.100898,71.4798491 C105.083118,71.5707256 102.080244,72.6335848 102.020977,72.6869253 C101.058872,73.0642601 100.229131,73.5640805 99.4705101,74.1290948 C98.6229885,74.4945761 97.868319,74.9450072 96.9793103,75.2749282 C96.9141164,75.3677802 96.8765805,75.4863147 96.7698994,75.5416307 C96.572342,76.7289511 96.5150503,77.8747845 96.520977,79.0166667 C96.9931394,78.8902299 97.5067888,78.9060345 98.0204382,78.7657687 C98.1310704,78.5010417 97.909806,78.2738506 97.9552443,78.1039511 C98.0125359,78.2619971 98.0895833,78.3963362 98.1587284,78.536602 C98.2575072,78.5326509 98.3543103,78.5286997 98.4530891,78.5247486 C98.5281609,78.271875 98.3622126,78.0031968 98.3128233,77.8668822 C98.518283,78.0920977 98.7020115,78.3429957 98.8956178,78.5780891 C99.1267601,78.5326509 99.2472701,78.6057471 99.4171695,78.6274784 C99.5337284,78.6413075 99.494217,78.5128951 99.6344828,78.5445043 C100.408908,78.6472342 101.262356,78.8112069 102.048635,78.9514727 C103.085812,78.987033 103.962967,79.0601293 105.002119,79.0759339 C105.602694,79.0858118 105.993858,79.2813937 106.560848,79.3011494 C106.697162,79.3051006 106.819648,79.2774425 106.963865,79.2813937 C108.147234,79.3070761 110.085273,79.804921 110.867601,79.2161997 C110.962428,79.2774425 110.897234,79.275467 110.948599,79.3604167 C112.303843,79.2458333 113.131609,79.145079 114.133226,78.8843032 C114.034447,78.6334052 114.228053,78.4635057 114.326832,78.285704 C114.253736,77.9063937 114.368319,77.3947198 114.311027,77.1438218 C114.314978,77.1833333 114.299174,77.2386494 114.277443,77.1833333 C114.277443,77.1161638 114.263614,77.06875 114.23398,77.0371408 C114.313003,77.0094828 114.356466,77.1359195 114.342636,76.9956537 C114.348563,76.8790948 114.241882,77.0944325 114.230029,76.9640445 C114.328807,76.9482399 114.309052,76.8257543 114.405855,76.8079741 M94.2984555,94.2641523 C94.0574353,94.3253951 93.8816092,94.4478807 93.6089799,94.4794899 C93.7097342,94.5506106 93.9507543,94.4676365 94.0179239,94.572342 C94.0021193,94.7185345 93.770977,94.706681 93.6544181,94.6632184 C93.5734195,94.6592672 93.6425647,94.7955819 93.6247845,94.8489224 C93.8341954,94.8094109 93.8203664,95.1887213 93.9705101,95.1274784 C94.0258261,95.2618175 93.7097342,95.2400862 93.6524425,95.4376437 C93.650467,95.5166667 93.7828305,95.4475216 93.836171,95.4653017 C93.5556394,95.6154454 93.3422773,95.8900503 93.4983477,96.1073635 C93.3244971,96.253556 93.3462284,96.5795259 93.1190374,96.6783046 C92.9036997,96.6664511 92.9214799,96.476796 92.6725575,96.5854526 C92.6844109,96.741523 92.6014368,96.7770833 92.5421695,96.9983477 C92.7100934,96.9430316 93.1308908,96.7909124 93.3561063,97.0358836 C93.4015445,96.9805675 93.5358836,97.0121767 93.533908,96.9173491 C93.6168822,96.9706897 93.4292026,97.0773707 93.4746408,97.2136853 C93.3877155,97.205783 93.3857399,97.1050287 93.320546,97.0734195 C92.9570402,97.3341954 92.7654095,98.0315733 92.7140445,98.353592 C92.7970187,98.38125 92.9945761,98.2113506 93.1111351,98.1520833 C93.2059626,98.195546 93.0656968,98.3180316 93.0854526,98.4108836 C92.8898707,98.4049569 92.4769756,98.5471983 92.6172414,98.6163434 C92.7496049,98.6716595 92.5283405,98.7348779 92.5421695,98.618319 C92.4236351,98.7585848 92.4433908,99.0233118 92.1944684,99.041092 C92.1668103,99.1457974 92.2497845,99.133944 92.237931,99.2228448 C92.1648348,99.226796 92.0917385,99.2307471 92.0186422,99.2327227 C92.0601293,99.0252874 92.1371767,98.8494612 92.2912716,98.7408046 C92.210273,98.6756106 92.0186422,98.7289511 91.9554239,98.645977 C91.7716954,98.7743894 91.6274784,98.9344109 91.457579,99.0746767 C91.6077227,99.1951868 91.3528736,99.4500359 91.5148707,99.5507902 C91.6748922,99.649569 91.8605963,99.3117457 92.0937141,99.3038434 C91.9890086,99.3749641 92.052227,99.4322557 92.1707615,99.3729885 C92.0818606,99.6219109 91.8862787,99.8273707 91.4615302,99.9952945 C91.5622845,99.8688578 91.0683908,100.009124 91.1177802,99.7147629 C91.0190014,100.165194 89.5748563,99.7127874 89.4227371,100.5287 C88.8182112,100.307435 88.6641164,101.085812 88.2334411,101.137177 C88.2452945,101.016667 88.3677802,101.000862 88.3697557,100.87245 C88.3618534,100.80528 88.243319,100.85467 88.2176365,100.80528 C88.2018319,100.499066 88.5890445,100.155316 88.8122845,100.076293 C88.7609195,99.8095905 88.758944,99.6436422 88.972306,99.5547414 C88.9406968,99.6298132 88.8557471,99.6851293 88.8399425,99.8550287 C89.0552802,99.7246408 89.144181,99.4757184 89.2548132,99.2465517 C89.1757902,99.1675287 89.0770115,99.1082615 88.9169899,99.1141882 C89.2646911,98.1007184 89.4503951,97.1465158 89.7012931,96.0955101 C89.7170977,96.0105603 89.6301724,96.0461207 89.6222701,95.9868534 C89.632148,95.8900503 89.8257543,95.9335129 89.7566092,95.6865661 C89.725,95.7142241 89.7052443,95.7557112 89.6894397,95.8011494 C89.6005388,95.6233477 89.7704382,95.3823276 89.8850216,95.2756466 C89.8573635,95.0780891 89.790194,95.0780891 89.6538793,95.0642601 C89.883046,94.8133621 89.989727,94.4538075 90.0509698,94.0507902 C89.7921695,93.8690374 90.1141882,93.3257543 90.3433549,93.1538793 C90.3690374,93.0491739 90.2860632,93.0610273 90.2979167,92.9721264 C90.7522989,92.9128592 90.2939655,92.2984555 90.7463721,92.2885776 C90.6653736,92.1581897 90.7305675,92.0692888 90.7661279,91.9547055 C90.75625,91.9072917 90.6554957,91.9112428 90.6574713,91.9606322 C90.5744971,91.9863147 90.7522989,91.7018319 90.7266164,91.8835848 C90.8174928,91.4094468 90.9320761,90.7812141 91.2145833,90.4236351 C91.1632184,90.0917385 91.2659483,89.9890086 91.1098779,89.7282328 C91.1730963,89.6926724 91.2106322,89.6077227 91.2916307,89.6847701 C91.3252155,89.5188218 91.2205101,89.5030172 91.2047055,89.3923851 C91.5425287,88.5922773 91.4872126,87.5313937 91.7005747,86.494217 C91.5622845,85.9667385 91.3864583,85.1409483 91.5780891,84.6213721 C91.5820402,84.5127155 91.5030172,84.4969109 91.4615302,84.4415948 C91.2402658,82.9678161 91.536602,81.5295977 91.6255029,79.9748204 C91.6334052,79.8345546 91.5405532,79.4177083 91.6788434,79.4927802 C91.6077227,79.3564655 91.615625,78.8171336 91.6709411,78.536602 C91.6906968,78.4496767 91.7716954,78.4042385 91.773671,78.3469468 C91.7815733,78.2126078 91.7065014,78.1572917 91.7934267,77.9775144 C91.7637931,78.0387572 92.0759339,77.928125 91.8981322,77.7878592 C91.8487428,77.8510776 91.7973779,77.9103448 91.7578664,77.9794899 C91.6176006,77.2840876 91.7400862,76.0335489 91.350898,75.4902658 C91.0288793,75.5396552 91.034806,75.1899784 91.0288793,74.9173491 C91.127658,74.9114224 91.2264368,74.9074713 91.3252155,74.9015445 C91.4852371,74.769181 91.3667026,74.3780172 91.6669899,74.3720905 C91.5148707,74.0876078 91.8408405,73.6411279 91.5919181,73.4909842 C91.6511853,73.2776221 91.7618175,72.9733836 91.5267241,72.8667026 C91.7144037,72.7086566 91.9692529,72.613829 91.9791307,72.2937859 C92.3841236,72.4834411 93.0400144,71.8216236 93.3817888,72.3411997 C93.5240302,72.2819325 93.6326868,72.191056 93.8164152,72.1732759 C93.8658046,71.8532328 93.571444,71.6596264 93.5595905,71.3731681 C93.8440733,71.4265086 93.9645833,71.9816451 94.2569684,72.1535201 C94.4268678,72.1436422 94.5493534,72.0903017 94.6580101,72.0251078 C94.5947917,71.7643319 94.7923491,71.6418463 94.7034483,71.396875 C94.7824713,71.4739224 94.8219828,71.3573635 94.8891523,71.424533 C94.7844468,71.3376078 94.9582974,71.1696839 94.802227,71.1696839 C94.8555675,71.0689296 95.2467313,70.9029813 95.2704382,70.8911279 C95.5154095,70.7548132 95.5292385,71.3593391 95.8354526,71.1617816 C95.8413793,71.2190733 95.8235991,71.3020474 95.8789152,71.3059986 C95.7722342,71.383046 95.6003592,71.4067529 95.6359195,71.6122126 C95.6517241,71.6655532 95.6793822,71.596408 95.7445761,71.6062859 C95.7346983,71.726796 95.596408,71.7327227 95.5707256,71.8354526 C95.7426006,71.8868175 96.0883261,71.7939655 96.1890805,71.6596264 C96.8943606,71.5489943 98.1172414,71.1499282 99.1089799,71.0136135 C99.6562141,70.9365661 100.078987,70.8456897 100.414835,70.5493534 C100.602514,70.3676006 104.846049,68.5856322 105.94842,68.9155532 C107.811386,69.2454741 106.758405,69.0202586 107.811386,69.2454741 C108.0287,69.3501796 108.457399,69.6188578 108.658908,69.4766164 C109.972665,69.6741739 111.134303,70.0455819 112.246552,70.6046695 C112.529059,70.7449353 112.815517,70.8496408 113.151365,71.0057112 C113.688721,71.2546336 114.127299,71.6003592 114.700216,71.8552083 C115.148671,72.056717 115.648491,72.4577586 116.059411,72.5683908 C116.64023,72.7264368 117.118319,72.771875 117.491703,73.2776221 C117.99745,73.5206178 118.530855,73.9394397 118.686925,74.4412356 C118.84102,74.5775503 119.048455,74.7928879 119.04648,75.0497126 C119.042529,75.2413434 118.872629,75.4685345 118.892385,75.758944 C118.941774,76.4839799 118.975359,77.2327227 118.846947,78.007148 C118.817313,77.9775144 118.746193,77.9913434 118.734339,77.9399784 C118.491343,78.1454382 118.698779,78.5859914 118.520977,78.9080101 C118.507148,78.9277658 118.418247,78.9356681 118.410345,78.9494971 C118.313542,79.1944684 118.335273,79.4177083 118.147593,79.6251437 C118.066595,79.712069 117.93028,79.7002155 117.898671,79.8562859 C117.898671,79.9728448 117.908549,80.0795259 117.985596,80.1111351 C117.890769,80.3561063 117.60431,80.4213003 117.493678,80.6484914 C117.325754,80.6050287 117.298096,80.6484914 117.201293,80.7354167 C116.286602,80.8104885 115.375862,81.0317529 114.380172,81.0850934 C113.771695,81.1167026 113.155316,81.2549928 112.586351,81.3498204 C112.584375,81.3122845 112.582399,81.2767241 112.582399,81.2391882 C111.855388,81.379454 110.834016,81.0515086 110.195905,81.4960129 C109.937105,81.4742816 109.585453,81.4130388 109.310848,81.4624282 C109.172557,81.4841595 109.061925,81.5908405 108.911782,81.6264009 C107.96153,81.8496408 106.768283,81.4189655 105.857543,81.6915948 C105.808154,81.7054239 105.831861,81.7844468 105.827909,81.8397629 C105.677766,81.8871767 105.497989,81.8832256 105.385381,81.8595187 C105.249066,81.895079 105.387356,81.987931 105.320187,82.0471983 C104.91717,82.0294181 104.446983,81.908908 104.099282,81.9543463 C104.107184,81.8792744 104.196085,81.8792744 104.202011,81.802227 C103.654777,81.7330819 102.967277,81.6757902 102.503017,81.7311063 C102.493139,81.8476652 102.587967,81.8456897 102.692672,81.8338362 C101.969612,82.0155891 101.234698,81.4367457 100.626221,81.7804957 C100.114547,81.6994971 99.679921,81.8121049 99.3322198,81.6540589 C98.7948635,81.8871767 97.3052802,81.4979885 96.8963362,81.5789871 C96.5901221,81.6422055 96.5585129,81.9503951 96.3649066,82.0827586 C96.3076149,82.4423132 96.321444,82.8631106 96.1930316,83.1594468 C96.177227,83.2404454 96.2661279,83.2088362 96.2720546,83.2661279 C95.9994253,84.1709411 96.2206897,85.3246767 96.4380029,86.1326868 C96.1792026,86.3262931 96.2641523,86.9209411 96.3016882,87.209375 C96.1871049,87.3852011 96.2187141,87.6953664 96.1100575,87.8810704 C96.1851293,88.0094828 96.0883261,88.1280172 96.163398,88.2109914 C95.898671,88.5231322 96.0428879,88.9913434 95.7327227,89.2619971 C95.7090158,89.3765805 95.8354526,89.3271911 95.8137213,89.4417744 C95.5746767,90.0581537 95.5588721,90.8167744 95.2803161,91.492421 C95.1894397,91.4094468 95.0985632,91.5082256 94.9859555,91.5082256 C95.0294181,91.8875359 94.8555675,92.0692888 94.802227,92.3616739 C94.8456897,92.4644037 94.960273,92.3458693 95.0234914,92.351796 C94.9069325,92.6580101 94.895079,93.0590517 94.6204741,93.2170977 C94.7350575,93.5786279 94.3676006,94.0863506 94.3498204,94.5565374 C94.2648707,94.4597342 94.3834052,94.3411997 94.2984555,94.2641523" id="Fill-43" fill="#FFFFFF"></path>
                <path d="M98.6711925,105.381897 C98.6948994,105.445115 98.696875,105.534016 98.7521911,105.563649 C98.7877514,105.488578 98.9280172,105.668355 98.9714799,105.516236 C98.8667744,105.46092 99.0149425,105.348312 98.9596264,105.221875 C98.775898,105.196193 98.8252874,105.381897 98.6711925,105.381897 M98.9062859,104.891954 C99.0248204,104.909734 98.8845546,105.006537 98.9556753,105.184339 C98.9932112,105.182364 99.0307471,105.182364 99.0663075,105.180388 C98.9497486,104.98283 99.1571839,104.818858 99.0109914,104.739835 C98.975431,104.7912 98.9141882,104.816882 98.9062859,104.891954 M106.844145,94.5814296 C106.929095,94.5893319 106.984411,94.5695761 107.025898,94.537967 C107.014045,94.3977011 106.96268,94.2989224 106.830316,94.2890445 C106.84217,94.4016523 106.753269,94.500431 106.844145,94.5814296 M105.293319,93.6943966 C105.358513,93.5758621 105.33283,93.2815014 105.200467,93.2577945 C105.319001,93.390158 105.202443,93.5422773 105.293319,93.6943966 M105.459267,93.2815014 C105.480999,93.1274066 105.149102,93.1590158 105.12342,93.1866739 C105.228125,93.2242098 105.338757,93.2597701 105.459267,93.2815014 M104.757938,90.8436422 C104.892277,90.8475934 105.012787,90.8416667 104.973276,90.6875718 C104.872522,90.7132543 104.805352,90.7665948 104.757938,90.8436422 M101.039907,90.9009339 C101.152514,90.8969828 101.304634,90.7488147 101.213757,90.6717672 C101.219684,90.8080819 100.99842,90.7369612 101.039907,90.9009339 M105.040445,90.5354526 C105.155029,90.5492816 105.202443,90.4959411 105.180711,90.3833333 C105.143175,90.3833333 105.107615,90.3853089 105.070079,90.3872845 C105.081932,90.4564296 105.032543,90.4702586 105.040445,90.5354526 M108.394971,90.5690374 C108.169756,89.9269756 107.555352,89.7136135 107.158261,89.2612069 C107.120726,89.2631825 107.08319,89.2631825 107.045654,89.2671336 C106.646588,89.9585848 105.970941,90.3971624 105.427658,90.9602011 C105.401976,90.7606681 105.182687,90.9364943 105.02069,90.9048851 C105.198491,91.0570043 105.510632,91.0668822 105.763506,91.0925647 C106.802658,91.2031968 107.750934,91.1518319 108.71699,91.1439296 C108.809842,90.8456178 108.521408,90.7468391 108.394971,90.5690374 M100.577622,86.3906968 C100.581573,86.2800647 100.721839,86.5309626 100.761351,86.380819 C100.715912,86.3669899 100.684303,86.3353807 100.682328,86.2721624 C100.609231,86.2583333 100.500575,86.380819 100.577622,86.3906968 M115.149461,85.0670618 C115.072414,85.1480603 114.971659,85.2112787 114.94005,85.3357399 C114.849174,85.3436422 114.785955,85.3219109 114.752371,85.2685704 C114.566667,85.5708333 114.080675,85.5965158 113.857435,85.8632184 C113.298348,85.8039511 112.996085,85.5767601 112.496264,85.8869253 C111.46699,85.7881466 110.36857,86.1417744 109.242493,86.4400862 C109.66329,86.9932471 110.289547,87.3251437 110.601688,87.9988147 C110.759734,88.0837644 110.793319,88.3030532 110.986925,88.350467 C110.971121,88.5974138 111.133118,88.6527299 111.26153,88.7436063 C111.516379,89.1466236 111.785057,89.5338362 111.982615,90.0020474 C112.326365,90.4070402 112.537751,90.9641523 112.924964,91.3217313 C112.849892,91.5588003 112.978305,91.7069684 113.063254,91.9420618 C112.749138,92.2877874 112.049784,92.2324713 112.03398,92.7994612 C110.93556,93.2617457 109.056789,93.6035201 107.527694,93.3723779 C107.598815,93.7299569 107.839835,93.7279813 107.924784,94.0183908 C108.013685,94.1112428 108.019612,93.9156609 108.108513,94.0085129 C108.219145,94.1191451 108.286315,94.4470905 108.209267,94.6327945 C108.582651,94.7454023 108.867134,94.3364583 109.303736,94.3601652 C109.426221,94.3680675 109.523024,94.5024066 109.641559,94.5300647 C109.722557,94.5478448 110.032723,94.5498204 110.048527,94.5478448 C110.206573,94.537967 110.477227,94.4885776 110.518714,94.3423851 C110.660955,94.4135057 110.822953,94.4648707 110.931609,94.472773 C110.868391,94.3423851 111.200287,94.4016523 111.139045,94.1685345 C111.571695,94.2712644 111.921372,94.4668463 112.371803,94.5537716 C112.355999,94.8540589 112.547629,94.9271552 112.794576,94.9409842 C112.85977,95.0101293 112.794576,94.9864224 112.800503,95.0871767 C112.9625,95.0614943 112.986207,95.1306394 113.094864,95.0733477 C113.04745,95.1721264 112.98028,95.1938578 113.136351,95.1444684 C113.057328,95.4605603 113.407004,95.345977 113.410955,95.5395833 C113.335884,95.5237787 113.30625,95.5711925 113.156106,95.624533 C113.189691,95.7727011 113.438614,95.7430675 113.49393,95.7568966 C113.624318,95.8398707 113.310201,95.9109914 113.432687,95.9801365 C113.405029,96.0887931 113.312177,95.9643319 113.246983,95.9880388 C113.428736,96.1816451 112.683944,96.0670618 112.672091,96.3100575 C112.9625,96.3713003 113.23908,96.0512572 113.474174,96.1243534 C113.327981,96.2586925 113.377371,96.2270833 113.30625,96.4661279 C113.021767,96.4760057 112.92694,96.6617098 112.689871,96.7130747 C112.664188,96.8493894 112.762967,96.906681 112.701724,96.971875 C112.014224,97.1536279 111.407723,97.4183549 110.662931,97.5408405 C110.589835,97.5566451 110.595761,97.6435704 110.560201,97.6949353 C110.560201,97.5368894 110.336961,97.6376437 110.291523,97.4499641 C109.997162,97.5112069 109.837141,97.6415948 109.600072,97.6653017 C109.254346,98.1868534 108.126293,98.0920259 107.719325,98.4496049 C107.66796,98.4417026 107.68574,98.3587284 107.675862,98.3053879 C107.415086,99.1627874 107.626473,100.346157 107.664009,101.288506 C108.533261,101.318139 109.017277,100.816343 109.742313,100.828197 C109.617852,100.636566 110.342888,100.660273 110.540445,100.533836 C110.560201,100.608908 110.52069,100.630639 110.510812,100.682004 C110.581932,100.591128 110.657004,100.725467 110.730101,100.636566 C110.736027,100.537787 110.524641,100.678053 110.576006,100.531861 C110.846659,100.379741 111.368211,100.644468 111.421552,100.456789 C111.816667,100.595079 112.452802,100.630639 112.843966,100.944756 C112.865697,101.094899 112.717529,101.422845 112.828161,101.42482 C112.808405,101.644109 112.753089,102.088614 112.907184,102.380999 C112.784698,102.627945 112.46268,102.774138 112.381681,102.92033 C112.245366,103.165302 111.706034,103.161351 111.933226,103.603879 C111.611207,103.720438 111.613182,104.135309 111.184483,104.153089 C110.986925,104.315086 110.933585,104.607471 110.769612,104.799102 C110.708369,104.801078 110.647126,104.803053 110.585884,104.807004 C110.374497,105.012464 109.519073,104.980855 109.005424,104.878125 C108.641918,104.805029 108.468068,104.727981 108.116415,104.807004 C107.399282,104.970977 106.581394,104.767493 105.929454,105.310776 C105.407902,105.466846 104.836961,105.741451 104.183046,105.869864 C103.785955,105.946911 103.523204,105.937033 103.088578,106.067421 C102.764583,106.162249 102.405029,106.381537 102.039547,106.519828 C101.994109,106.409195 102.031645,106.32227 101.879526,106.26893 C101.733333,106.288685 101.792601,106.296588 101.664188,106.351904 C101.435022,106.20176 101.138685,106.128664 101.014224,105.865912 C100.468966,105.873815 100.210165,106.272881 99.6984914,106.108908 C99.6984914,106.061494 99.6945402,106.012105 99.6925647,105.962716 C98.8055316,106.18398 97.995546,105.678233 98.2444684,104.921588 C98.4123922,104.814907 98.5783405,104.710201 98.669217,104.534375 C98.604023,104.245941 98.3768319,104.133333 98.1654454,104.004921 C98.432148,103.939727 99.0505029,103.850826 99.0287716,103.522881 C99.4653736,103.522881 99.5443966,103.194935 99.6649066,102.904526 C100.162751,102.79982 100.915445,103.032938 101.354023,102.754382 C101.897306,102.663506 102.401078,103.050718 102.569001,102.736602 C102.636171,102.629921 102.762608,102.778089 102.865338,102.760309 C102.729023,102.683261 103.155747,102.637823 103.145869,102.452119 C103.426401,102.485704 103.799784,102.471875 103.995366,102.48768 C104.216631,101.877227 104.232435,101.440625 104.165266,100.525934 C104.347019,100.610884 104.177119,101.079095 104.341092,101.181825 C104.463578,100.672126 104.303556,99.972773 104.339116,99.5243175 C103.926221,99.5420977 104.339116,100.180208 104.194899,100.377766 C103.985489,99.9194325 104.025,99.178592 104.046731,98.7261853 C103.347378,98.583944 102.808046,98.2579741 102.134375,98.0011494 C102.08301,98.0130029 102.126473,98.1117816 102.06523,98.1157328 C101.593068,98.1058549 101.577263,97.7225934 101.08732,97.6811063 C100.692205,97.2899425 100.334626,96.8572917 99.7538075,96.6715876 C99.7063937,96.6617098 99.6313218,96.7841954 99.7202227,96.7841954 C99.6313218,96.8908764 99.5760057,96.6340517 99.384375,96.7249282 C99.3784483,96.8237069 99.4416667,96.8434626 99.5384698,96.8296336 C99.4989583,96.971875 99.3863506,96.8296336 99.2855963,96.9145833 C99.2974497,96.7980244 99.2105244,96.7881466 99.2342313,96.6577586 C99.3172055,96.628125 99.4219109,96.6162716 99.4890805,96.5728089 C99.5088362,96.4088362 99.2855963,96.5135417 99.2618894,96.3989583 C99.3903017,96.2586925 99.6510776,96.2389368 99.8387572,96.1500359 C99.9118534,96.2132543 99.992852,96.2665948 100.137069,96.2488147 C100.411674,95.9386494 100.889763,95.9030891 101.23944,96.1243534 C101.209806,95.8102371 100.830496,95.875431 100.771228,95.5948994 C100.897665,95.6561422 100.790984,95.5988506 100.802838,95.4822917 C101.103125,95.4348779 101.142636,95.6778736 101.401437,95.675898 C101.401437,95.5711925 101.308585,95.5751437 101.213757,95.5751437 C101.614799,95.5139009 102.241056,95.8853089 102.711243,96.0966954 C103.236746,96.0927443 103.697055,96.0315014 104.104023,95.9228448 C104.232435,95.8161638 104.256142,95.6146552 104.341092,95.4704382 C104.200826,95.425 104.090194,95.675898 103.985489,95.7806034 C104.032902,95.4803161 104.781645,95.0496408 104.30158,94.5873563 C104.374677,94.4786997 104.428017,94.3483118 104.584088,94.3167026 C104.445797,94.249533 104.408261,94.0717313 104.309483,93.9591236 C104.179095,93.8682471 103.953879,93.9887572 103.894612,93.7576149 C104.179095,93.8366379 104.59199,93.7121767 104.844864,93.5679598 C104.821157,93.3328664 104.963398,93.2498922 105.083908,93.1511135 C105.054274,93.0661638 104.777694,93.0523348 104.714476,93.1313578 C104.671013,93.125431 104.680891,93.0641882 104.672989,93.0227011 C104.433944,93.0661638 104.208728,93.0641882 104.04278,92.939727 C103.906466,93.0503592 103.770151,92.9654095 103.531106,93.0009698 C103.521228,92.8804598 103.307866,92.9851652 103.3375,92.8251437 C102.094864,92.5130029 100.56972,92.5090517 100.030388,91.4264368 C100.073851,91.4185345 100.058046,91.3572917 100.063973,91.313829 C100.304993,91.2407328 100.389943,91.0253951 100.482795,90.8159842 C100.91347,90.468283 101.164368,89.9585848 101.569361,89.5891523 C101.575287,89.4528376 101.652335,89.3797414 101.666164,89.251329 C102.045474,89.0814296 102.033621,88.5539511 102.553197,88.5104885 C102.657902,88.3761494 102.800144,88.2358836 102.715194,88.0244971 C102.266739,88.2536638 101.891379,88.020546 101.672091,87.7775503 C101.49824,87.9178161 101.276976,87.9039871 101.128807,87.9869612 C100.783082,87.7163075 100.524282,87.3883621 99.8920977,87.5246767 C99.8486351,87.532579 99.8644397,87.5938218 99.8604885,87.6372845 C99.6668822,87.5760417 99.5088362,87.6412356 99.4614224,87.8032328 C99.0979167,87.7005029 99.3744971,87.2500718 99.5009339,87.0268319 C99.6174928,86.989296 99.55625,87.147342 99.6530532,87.1295618 C99.7320761,87.0742457 99.820977,87.0268319 99.7873922,86.8668103 C99.9829741,86.8134698 100.063973,86.8648348 100.303017,86.8431034 C100.287213,86.7561782 100.127191,86.8292744 100.148922,86.7028376 C100.253628,86.645546 100.340553,86.7956897 100.370187,86.6929598 C100.299066,86.5645474 100.075826,86.6020833 99.992852,86.4894756 C100.00273,86.4065014 100.20819,86.4993534 100.133118,86.3353807 C100.316846,86.3393319 100.465014,86.3096983 100.56972,86.2425287 C100.510453,85.9264368 100.204239,85.8572917 100.206214,85.521444 C100.291164,85.5431753 100.395869,85.5431753 100.46699,85.5826868 C100.617134,85.5273707 100.538111,85.4443966 100.526257,85.2863506 C100.74357,85.1994253 100.719864,85.5095905 100.862105,85.3811782 C100.769253,85.2132543 100.652694,84.926796 100.358333,84.8141882 C100.498599,84.7628233 100.751473,84.6344109 100.868032,84.6798491 C101.008297,84.6462644 100.990517,84.4309267 101.002371,84.3795618 C101.640481,84.6660201 101.709626,85.205352 102.618391,85.0808908 C103.69903,84.9327227 104.933764,84.3281968 105.929454,84.1187859 C106.944899,83.9073994 108.207292,83.458944 109.280029,83.2692888 C109.767996,83.1803879 110.214476,83.0341954 110.747881,83.0914871 C111.899641,83.2139727 112.905208,83.4569684 113.883118,83.9449353 C113.885093,84.108908 113.973994,84.1780532 114.043139,84.2689296 C114.402694,84.1069325 114.519253,84.5909483 114.793858,84.531681 C114.659519,84.5929239 114.872881,84.6838003 114.845223,84.8596264 C114.864978,84.940625 115.038829,84.8517241 115.068463,84.9228448 C115.064511,84.968283 115.003269,84.9564296 114.959806,84.9643319 C115.137608,84.9939655 114.971659,85.1559626 115.149461,85.0670618" id="Fill-46" fill="#FFFFFF"></path>
                <path d="M100.169271,97.7581537 C100.20088,97.7502514 100.358926,97.7028376 100.428071,97.7463003 C100.372755,97.8608836 100.252245,97.8055675 100.169271,97.7581537" id="Fill-48" fill="#FFFFFF"></path>
                <path d="M33.1014727,80.979005 C32.909842,81.1429777 32.9473779,81.4215338 33.1014727,81.5855065 C32.9770115,81.8067708 32.7537716,81.9588901 32.9493534,82.2413973 C32.7300647,82.1722522 32.8426724,82.4369792 32.6470905,82.3935165 C32.3961925,84.0352191 32.0267601,85.5228269 32.2440733,87.0914332 C33.5262213,87.0262392 35.3358477,87.1289691 36.3868534,87.6485453 C37.0229885,87.9626616 37.6097342,88.7054777 37.5484914,89.5688039 C37.5366379,89.7149964 37.2244971,89.8513111 37.4497126,90.1239404 C36.9953305,90.6336386 36.3967313,90.9951688 36.0332256,91.5898168 C35.4286997,91.621426 34.8952945,91.5819145 34.7194684,91.1867996 C34.4330101,91.2085309 34.2156968,91.2223599 33.9628233,91.1354346 C33.5123922,91.2440912 33.030352,91.5720366 32.4969468,91.1867996 C32.1275144,91.4001616 31.7403017,91.3290409 31.2819684,91.4396731 C31.0132902,91.5028915 30.7999282,91.700449 30.5253233,91.793301 C29.3775144,92.1745869 27.9590517,92.2615122 26.7855603,92.6507004 C26.2106681,92.8423312 25.7404813,93.0853269 25.1181753,93.2078125 C24.5393319,93.1603987 24.1600216,92.9193786 23.7530532,92.7020654 C23.7570043,92.5361171 23.8380029,92.4491918 23.8024425,92.2476832 C23.3994253,91.5068427 23.7234195,90.5585668 23.6009339,89.6695582 C24.316092,87.7216415 27.8326149,88.5770654 29.2115661,87.2949174 C29.1799569,86.5540769 29.2313218,85.670995 29.2609555,84.7681573 C29.2411997,84.6199892 29.0950072,84.5962823 29.0594468,84.4658944 C29.0950072,84.3315553 29.2253951,84.2920438 29.2609555,84.1616559 C28.9744971,83.7171516 29.1345187,82.7669001 29.0100575,81.9391343 C28.984375,81.6981142 28.5556753,81.7494792 28.7552083,81.4333872 C28.0953664,81.3622665 27.4177443,81.7158944 26.7855603,81.9391343 C26.6255388,81.8601114 26.3845187,81.6566272 26.4832974,81.4827766 C26.2363506,81.4432651 26.0960848,81.295097 25.7740661,81.3306573 C25.6199713,81.109393 25.4797055,80.8901042 25.5231681,80.7261315 C25.4184626,80.6174749 25.2386853,80.6154993 25.017421,80.5246228 C25.1359555,80.3942349 24.9542026,80.2796516 25.1181753,80.2203843 C25.0272989,80.0741918 24.8969109,79.9694864 24.7131825,79.9181214 C24.7131825,79.3945941 24.4010417,79.1851832 24.2074353,78.8552622 C24.1323635,78.029472 23.8261494,77.4447019 23.8538075,76.733495 C23.9624641,76.8105424 24.0197557,76.9389547 24.2074353,76.9350036 C24.5887213,76.8954921 24.6993534,76.5833513 25.1181753,76.5813757 C26.2640086,75.6034662 28.5596264,75.1826688 30.8789511,75.1668642 C31.720546,75.1609375 32.5483118,75.2399605 33.5064655,75.2676185 C35.1185345,75.3130568 37.4497126,75.729903 37.5998563,77.0357579 C37.6413434,77.4012392 37.3805675,77.7904274 37.3450072,78.1480065 C37.3371049,78.2507364 37.4141523,78.3258082 37.3963721,78.4028556 C37.262033,79.0152838 36.8827227,79.4341056 36.691092,79.9181214 C36.1695402,80.4159662 35.2983118,80.1413614 34.6187141,80.421893 C34.2611351,80.5680855 33.7751437,81.0086386 33.1014727,80.979005" id="Fill-50" fill="#FFFFFF"></path>
                <path d="M16.4256466,69.0520654 C16.6054239,69.1765266 16.623204,69.4610093 16.9313937,69.4570582 C16.9511494,70.0378772 17.5220905,70.2374102 17.7907687,70.6186961 C18.170079,71.1560524 18.1878592,71.8771372 18.7015086,72.3374461 C18.7429957,72.8787536 18.7192888,73.5800826 18.3459052,74.2063398 C17.1329023,75.0578125 15.3193247,75.4509519 14.6061422,76.9346085 C14.4520474,76.9721444 14.4579741,76.8476832 14.3038793,76.8832435 C13.3200431,77.7189116 12.762931,78.9832795 12.1307471,80.1705999 C12.2156968,80.3069145 12.2710129,80.3977909 12.0793822,80.4728628 C12.3796695,80.8126616 13.1876796,80.6467134 13.4958693,80.9786099 C13.7922055,80.8956358 13.8692529,80.5617636 14.1517601,80.4214978 C14.5014368,80.2515984 15.1178161,80.3721085 15.2659842,79.9671157 C15.7144397,80.0323096 15.7381466,79.6668283 16.1747486,79.7142421 C16.3347701,79.6233657 16.3565014,79.2124461 16.6785201,79.208495 C16.8899066,79.2065194 17.0835129,79.6292924 17.3344109,79.765607 C17.8520115,80.0461386 18.606681,80.0500898 18.6007543,80.7257364 C18.592852,81.0892421 18.2846624,81.1346803 18.2945402,81.5337464 C17.8223779,81.7530352 17.7710129,82.3891703 17.2336566,82.5432651 C16.172773,84.0921157 14.7898707,85.3228987 13.6479885,86.7907507 C13.4761135,87.6975395 12.6364943,87.9346085 12.0793822,88.4581358 C12.4310345,88.3988685 12.7313218,88.1538973 12.9881466,88.1538973 C13.2252155,87.9247306 13.5353807,87.97412 13.7981322,87.8002694 C14.8926006,87.0811602 16.09375,85.9214978 17.6900144,85.6271372 C18.4565374,85.4848958 19.0373563,85.7101114 19.8631466,85.9807651 C21.0899784,86.7571659 22.0520833,87.8990481 22.1864224,89.6177981 L21.7814296,89.6177981 C21.0307112,89.9793283 20.4775503,90.2894935 19.4067888,90.3764188 C19.3218391,90.4969289 19.0827945,90.4277838 19.2052802,90.631268 C18.5612428,90.5305136 18.2807112,90.9690912 17.6900144,90.9335309 C17.1822917,90.5917565 16.9136135,89.5743355 16.2241379,90.1235453 C16.0246049,90.2835668 15.8705101,90.5957076 15.6690014,90.7814116 C15.2304239,91.1824533 14.6693606,91.3780352 14.4559986,91.7415409 C13.2291667,92.2690194 12.205819,93.0315912 10.6648707,93.3595366 C10.5028736,93.3140984 10.5957256,93.5254849 10.4633621,93.5096803 C9.56842672,93.5294361 9.23060345,92.9901042 8.44234914,92.9051545 C7.93462644,92.3144576 7.20366379,91.6822737 7.12661638,90.8327766 C6.51221264,90.6154634 6.93696121,89.2009519 7.12661638,88.7090338 C7.40714799,87.9938757 7.66199713,87.1582076 8.13811063,86.7374102 C8.31788793,86.5833154 8.60829741,86.454903 8.84734195,86.283028 C9.0547773,86.1348599 9.26616379,85.8977909 9.45186782,85.7792565 C9.63757184,85.6587464 9.89637213,85.6429418 10.0583693,85.5263829 C10.5384339,85.1826329 10.8821839,84.5069864 11.1212284,84.0605065 C10.184806,83.7720726 9.23653017,84.0427263 8.3909842,83.7582435 C7.38146552,82.9956717 6.85201149,81.6641343 6.9764727,80.1192349 C7.06537356,79.0287177 7.96821121,78.1298312 8.08872126,77.187482 C8.50951868,76.816074 8.84141523,76.1483297 9.04885057,75.7216056 C9.81142241,74.7357938 10.4594109,73.629472 11.1706178,72.5903197 C12.6088362,71.2824892 13.7072557,69.6348599 15.7183908,68.8999461 C15.9278017,69.0342852 16.2458693,69.146893 16.4256466,69.0520654" id="Fill-52" fill="#FFFFFF"></path>
                <path d="M10.2600754,97.755783 C10.7757004,97.714296 10.9297953,97.3112787 11.3229346,97.1492816 C10.949551,97.8604885 12.2712105,98.4630388 11.2715697,98.7653017 C11.2320582,98.9569325 11.3328125,99.0082974 11.3229346,99.1702945 L11.0700611,99.1702945 C11.1984734,99.9052083 10.6532148,100.497881 10.8152119,101.495546 C10.7282866,101.448132 10.7243355,101.317744 10.6650682,101.242672 C10.3628053,101.335524 10.1395654,101.317744 9.95978807,101.5963 C9.84322917,101.558764 9.69901221,101.550862 9.60418463,101.495546 C9.46391882,101.507399 9.39872486,101.623958 9.29994612,101.64569 C8.47020474,101.825467 8.10867457,101.139943 7.17817888,101.090553 C6.88579382,100.792241 6.75738147,100.515661 6.47289871,100.179813 C6.38992457,100.086961 6.24175647,100.031645 6.1686602,99.9269397 C5.58389009,99.0971983 5.97505388,97.7063937 5.20853089,96.9971624 C5.40213721,96.9280172 5.61154813,96.3748563 5.81503233,96.6435345 C5.8565194,96.5170977 5.97505388,96.4677083 6.06593032,96.3906609 C7.04779095,96.5348779 8.43661997,96.4854885 9.35131106,96.947773 C9.54886853,97.3211566 9.9894217,97.4515445 10.2600754,97.755783" id="Fill-54" fill="#FFFFFF"></path>
                <path d="M21.2264907,99.7258261 C20.6180136,99.9668463 20.0529993,99.9036279 19.4069864,99.7771911 C19.2726473,99.7771911 19.278574,99.9174569 19.2054777,99.9786997 C18.9111171,99.5796336 18.1485453,100.018211 18.0932292,99.6250718 C17.8502335,99.7534842 17.7336746,99.4907328 17.3859734,99.5737069 C17.3543642,99.2694684 17.0540769,99.2299569 17.0837105,98.8664511 C17.1548312,98.7874282 17.2101473,98.690625 17.3346085,98.6649425 C17.2694145,98.4831897 17.3385596,98.4792385 17.2852191,98.3093391 C17.9806214,97.3413075 17.2002694,96.0394037 16.7300826,95.3301724 C16.0840697,95.2926365 15.8647809,95.675898 15.6198096,96.0374282 C15.7126616,96.5471264 15.7422953,97.0054598 15.8707076,97.5033046 C15.6079562,97.6060345 15.7897091,97.8371767 15.8213182,98.0584411 C15.9161458,98.1532687 15.9102191,98.0288075 16.0722162,98.0584411 C16.078143,98.2145115 16.026778,98.3132902 16.1235812,98.5641882 C16.0248024,98.583944 16.0820941,98.7597701 15.920097,98.7143319 C15.9852909,99.1469828 16.0504849,99.6981681 15.920097,100.180208 C15.7422953,100.2375 15.5486889,100.280963 15.5664691,100.535812 C15.2306214,100.502227 15.0231861,100.597055 14.8078484,100.685955 C14.0946659,100.638542 13.1938039,100.330352 12.7868355,99.6250718 C12.6643499,99.4097342 12.3502335,99.1746408 12.2830639,99.0185704 C11.9887033,98.3409483 12.259357,97.3887213 11.6765625,96.9955819 C11.5501257,96.9896552 11.4296157,96.9876796 11.4236889,97.0983118 C11.3446659,96.6498563 11.99463,96.4898348 12.0795797,96.0374282 C12.5774246,96.1934986 12.812518,95.9880388 13.2945582,95.9366739 C13.8793283,95.8714799 14.2546875,96.3475934 14.6557292,96.2903017 C15.167403,96.2172055 15.0903556,95.5889727 15.6198096,95.4309267 C15.5862249,95.1108836 15.9359016,94.9073994 15.8707076,94.7216954 C16.2816272,94.5261135 16.1828484,94.1230963 16.5779634,94.0164152 C16.700449,93.9808549 16.8683728,94.0835848 17.0323455,94.0658046 C17.4412895,94.0243175 17.968768,93.7753951 18.446857,93.9650503 C19.6282507,95.3440014 21.4596085,96.126329 21.6314835,98.2599497 C21.4260237,98.7617457 21.4279993,99.3168822 21.2264907,99.7258261" id="Fill-56" fill="#FFFFFF"></path>
                <path d="M62.5896911,101.210866 C62.8998563,101.044917 63.2297773,101.256304 63.5478448,101.361009 C63.5280891,101.457813 63.5300647,101.578323 63.3957256,101.564494 C63.4470905,101.783782 63.7078664,101.696857 63.8520833,101.613883 C63.8580101,101.524982 63.7888649,101.509177 63.8007184,101.412374 C64.1227371,101.493373 64.4585848,101.562518 64.5593391,101.868732 C64.8141882,101.821318 64.9979167,101.698833 65.2646193,101.665248 C65.3792026,101.720564 65.3021552,101.965535 65.5194684,101.918121 C65.4621767,102.012949 65.4542744,102.15519 65.4187141,102.271749 L65.1658405,102.271749 C65.3080819,102.518696 65.6893678,102.311261 65.9738506,102.473258 C65.9896552,102.759716 65.8849497,103.038272 66.1753592,103.231879 C65.9896552,103.263488 65.9758261,103.468948 65.772342,103.484752 C65.827658,104.04384 65.3811782,104.103107 65.3179598,104.545636 C64.9524784,104.703682 64.9742098,105.09287 64.6600934,105.252892 C63.9725934,105.602568 63.2811422,105.120528 62.5896911,104.948653 C62.4988147,104.733315 62.4454741,104.486369 62.3862069,104.243373 C62.2795259,104.180154 62.2400144,104.051742 62.083944,104.039889 C62.1965517,103.844307 62.0859195,103.745528 61.8824353,103.737626 C61.7421695,103.33856 61.7263649,102.886153 61.4260776,102.878251 C61.5505388,102.655011 61.4596624,102.504867 61.5762213,102.323114 C61.609806,101.953682 61.0428161,102.182848 61.0724497,101.815392 C61.2265445,101.779831 61.2206178,101.904292 61.3747126,101.868732 C61.503125,101.702784 61.5485632,101.598078 61.4260776,101.412374 C61.781681,101.353107 62.3387931,100.74463 62.5896911,101.210866" id="Fill-58" fill="#FFFFFF"></path>
                <path d="M72.644181,90.3967672 C73.225,90.5054239 73.4008261,89.9957256 73.754454,90.0411638 C73.7840876,89.6420977 73.6043103,89.3753951 73.1993175,89.2845187 C73.159806,89.0909124 73.4423132,89.2252514 73.4008261,89.0316451 L73.1499282,89.0316451 C73.2506825,89.5986351 72.7054239,90.0135057 72.644181,90.3967672 M69.4101652,84.0294899 C68.2228448,83.8931753 67.9008261,85.1753233 68.398671,85.9991379 C69.0506106,86.1394037 69.8408405,86.2283046 69.9653017,85.4933908 C69.629454,85.1713721 69.815158,84.9402299 69.4615302,84.6340158 C69.7124282,84.4700431 69.3923851,84.2408764 69.5109195,84.0294899 C69.5445043,83.9287356 69.8112069,84.0610991 69.7637931,83.8793463 C69.5701868,83.8536638 69.4477011,83.899102 69.4101652,84.0294899 M72.2905532,84.1302443 C72.1897989,84.7545259 72.0732399,85.0469109 72.2391882,85.5961207 C72.7034483,85.552658 73.1143678,85.6000718 73.5529454,85.696875 C73.8532328,85.0350575 73.9559626,84.1796336 74.2108118,83.4743534 C73.5865302,83.7074713 72.9187859,83.9010776 72.2905532,84.1302443 M68.6535201,82.3107399 C69.0782687,82.2494971 69.5524066,82.2356681 69.9159124,82.1092313 L69.9159124,81.4019756 C69.2698994,81.4809986 68.6159842,81.5521193 68.6535201,82.3107399 M72.1897989,80.7441092 C72.1048491,81.1846624 72.1818966,81.6390445 72.2391882,82.1586207 C72.895079,81.9195761 73.7109914,81.8464799 74.2108118,81.4513649 C74.1752514,81.1016882 74.0903017,80.7974497 73.9599138,80.5426006 C73.3257543,80.4043103 72.7192529,80.5366739 72.1897989,80.7441092 M75.0701868,71.3956897 C76.5281609,71.4114943 78.4049569,71.6505388 79.0114583,72.5079382 C79.1912356,72.5632543 79.268283,72.7232759 79.4678161,72.7608118 C79.5725216,73.5984555 79.3571839,74.6099497 78.910704,75.184842 C78.4306394,75.1611351 78.2666667,75.4515445 78.1007184,75.741954 C77.3183908,76.0659483 76.6625,76.5045259 75.7260776,76.601329 C75.0682112,76.6684986 74.2878592,76.2516523 73.754454,76.5499641 C73.4166307,76.7396193 73.3257543,77.2690733 73.1993175,77.6622126 C74.2305675,78.0138649 75.4613506,77.9565733 76.4333333,78.3181034 C76.769181,78.4445402 77.6404095,79.1103089 77.7470905,79.430352 C77.8676006,79.787931 77.7095546,80.1929239 78.0019397,80.4418463 C77.8182112,82.7927802 77.7273348,85.3037356 76.7869612,87.2141164 C77.0674928,87.7178879 77.7372126,87.5637931 78.1007184,87.8700072 C78.487931,88.1940014 78.3456897,88.7056753 78.5057112,89.3358836 C78.6637572,89.5314655 78.8652658,89.6816092 79.1122126,89.7902658 C79.2722342,90.2940374 79.1576509,90.8709052 79.3156968,91.4062859 C79.4125,91.7441092 79.7760057,91.9653736 79.5665948,92.5185345 C79.5231322,92.6390445 79.2761853,92.7872126 79.161602,92.9729167 C79.0707256,93.1270115 79.0647989,93.3186422 79.0114583,93.3779095 C78.6360991,93.7809267 78.0355244,93.6406609 77.5455819,93.8836566 C77.2670259,93.7493175 76.9884698,93.6979526 76.634842,93.7315374 C76.5084052,93.4549569 76.2950431,93.2653017 75.9809267,93.1764009 L75.9809267,92.8721624 C75.7794181,92.7358477 75.1827945,93.0005747 75.0701868,92.6706537 C74.8291667,92.6489224 74.8054598,92.8425287 74.5644397,92.822773 C74.5683908,93.3186422 74.3807112,93.960704 74.362931,94.3894037 C74.3767601,94.4427443 74.4617098,94.4229885 74.4636853,94.490158 C75.9433908,94.4783046 76.0836566,96.3926365 75.3724497,97.2697917 C75.0859914,97.3349856 74.7402658,97.2283046 74.4636853,97.2697917 C74.0409124,98.7001078 74.2740302,100.197593 74.9180675,101.159698 C74.9259698,101.66347 74.9239943,102.09217 75.0188218,102.52482 C74.9911638,102.74806 74.8489224,102.858693 74.8153376,103.079957 C75.0286997,103.257759 75.0780891,103.591631 75.3230603,103.735848 C74.8192888,104.407543 74.4755388,105.233333 73.6536997,105.454598 C73.475898,105.533621 73.6260417,105.284698 73.503556,105.302478 C72.8733477,105.379526 72.3913075,105.606717 71.9369253,105.859591 C70.7693606,105.630424 70.4374641,107.068642 69.4101652,106.969864 C68.5804239,106.892816 68.0233118,106.274461 67.5412716,105.707471 C67.195546,105.304454 66.9485991,104.988362 66.8834052,104.29296 C67.1382543,103.957112 67.4563218,103.686458 67.5412716,103.180711 C67.6677083,103.407902 67.8771193,103.552119 68.0983836,103.686458 C68.9597342,103.589655 69.6255029,103.295295 70.4216595,103.131322 C70.6034124,102.86857 70.9274066,102.902155 71.1783046,102.726329 C71.6188578,102.420115 71.7097342,101.789907 71.8855603,101.361207 C71.8737069,101.290086 71.7354167,101.345402 71.7354167,101.260453 C72.166092,100.381322 71.0716236,99.8143319 71.4805675,99.1880747 C71.2434986,99.1149784 71.4114224,98.9490302 71.3284483,98.7336925 C70.9471624,98.8225934 70.6824353,99.0300287 70.3702945,99.1880747 C69.4220187,99.3006825 68.4125,99.5199713 67.5906609,99.897306 C67.0572557,100.142277 66.6364583,100.23908 66.1267601,100.351688 C65.8422773,100.412931 65.555819,100.489978 65.3681394,100.705316 C64.6885417,100.871264 63.8271911,100.723096 63.0428879,100.503807 C62.6319684,100.122522 62.1617816,99.8024784 61.6797414,99.4923132 C61.3596983,98.9470546 61.1088003,98.2674569 60.5674928,97.8229526 C60.6267601,97.2974497 60.6978807,97.0228448 61.021875,96.7126796 C61.2885776,96.8154095 61.6184986,96.8391164 61.88125,96.7126796 C62.9539871,97.0208693 63.9595546,96.4795618 64.9117816,96.2582974 C66.6957256,95.8454023 68.4875718,95.5806753 70.0680316,94.8931753 C69.9198635,94.5197917 69.9020833,94.0140445 69.7144037,93.6801724 C69.0407328,93.9053879 68.4520115,94.1068966 67.8929239,94.3360632 C66.7925287,94.5454741 65.6783046,94.6165948 64.6114943,94.490158 C62.9737428,94.2945761 62.5865302,92.5758261 63.1950072,91.2561422 C63.4044181,91.1020474 63.4755388,91.0822917 63.5980244,90.9005388 C64.5502514,90.7918822 65.5617457,90.6634698 66.2769037,91.104023 C67.5333693,90.8946121 69.1039511,90.9993175 69.5109195,89.9423851 C68.7503233,90.0688218 67.8000718,89.7230963 66.9841595,89.5887572 C67.0137931,89.3358836 66.6206537,89.2588362 66.3282687,89.1837644 C66.2136853,89.106717 66.1544181,88.776796 65.9726652,88.6286279 C65.1705819,88.4034124 64.8189296,87.7277658 64.1551365,87.3642601 C63.758046,86.5463721 63.3332974,85.3511494 62.9934986,84.0808549 C62.8710129,83.6284483 63.0330101,82.8856322 62.8907687,82.259375 C62.8018678,81.8603089 62.2822917,81.5778017 62.2842672,81.149102 C62.1360991,81.1115661 62.0906609,80.9713003 61.88125,80.9969828 C61.9069325,80.6868175 62.3751437,80.8172055 62.4363865,80.5426006 C63.3530532,80.4714799 63.6987787,79.8373204 64.4573994,80.0368534 C64.5324713,79.9933908 64.6529813,79.997342 64.6114943,79.8353448 C65.2515805,79.6832256 65.7296695,79.932148 66.1741739,79.6318606 C66.3717313,79.6654454 66.7747486,79.7681753 66.7826509,79.481717 C67.8237787,79.2150144 69.2916307,79.058944 69.8645474,78.1679598 C69.8507184,78.0632543 69.6768678,78.120546 69.6630388,78.0178161 C69.587967,77.8242098 69.801329,77.9190374 69.7637931,77.762967 C69.5899425,77.3718032 69.6413075,76.5697198 69.0565374,76.8028376 C68.6238865,76.9747126 68.0371408,77.6622126 67.4385417,77.6128233 C67.2271552,77.5930675 67.1836925,77.4172414 67.0355244,77.3579741 C66.7016523,77.2275862 66.4329741,77.340194 66.0240302,77.3085848 C66.020079,77.0418822 65.8185704,76.9747126 65.6704023,76.852227 C65.6111351,75.872342 64.3487428,75.6787356 64.0543822,75.0346983 C63.9852371,74.8885057 63.7402658,74.4993175 63.6493894,74.3768319 C63.6039511,74.3175647 63.5012213,74.3748563 63.4459052,74.3274425 C63.2088362,74.102227 63.2720546,73.6063578 63.0942529,73.4167026 C63.5427083,73.5016523 63.6711207,73.1401221 64.1037716,73.2645833 C64.222306,73.2507543 64.222306,73.1282687 64.1037716,73.1144397 C64.5937141,72.8576149 64.9967313,73.0690014 65.518283,73.0136853 C66.0358836,72.9563937 66.4744612,72.634375 66.9841595,72.4565733 C67.8336566,72.1622126 68.7167385,72.1780172 69.7637931,72.1029454 C69.7440374,71.9093391 69.5148707,72.1246767 69.4101652,71.9508261 C69.4496767,71.7137572 69.5346264,71.5715158 69.7144037,71.5971983 C69.6413075,71.3897629 69.8230603,71.0460129 69.9653017,70.8899425 C69.7203305,70.8484555 69.8092313,70.4750718 69.4615302,70.5363147 C69.5188218,70.3782687 69.4654813,70.4217313 69.4615302,70.2340517 C69.364727,70.1787356 69.2224856,70.1688578 69.1059267,70.1332974 C69.1849497,70.042421 69.4022629,70.0918103 69.4101652,69.9298132 C69.4318966,69.7223779 69.2303879,69.740158 69.2086566,69.5761853 C69.3805316,69.5287716 69.3469468,69.2798491 69.4615302,69.1711925 C69.5385776,68.9914152 69.2876796,69.1415589 69.3074353,69.0210489 C69.5049928,68.5587644 69.0802443,68.2031609 69.4101652,67.756681 C69.6590876,67.6539511 69.9435704,67.5828305 70.2695402,67.5551724 C70.3070761,67.3655172 70.2082974,67.3141523 70.2181753,67.1501796 C70.2596624,67.106717 70.3564655,67.120546 70.3702945,67.0514009 C71.9369253,67.9246049 74.613829,67.6914871 75.3724497,69.3746767 C75.2618175,69.9693247 75.1037716,70.5501437 75.0701868,71.3956897" id="Fill-60" fill="#FFFFFF"></path>
                <path d="M53.2898707,89.8400503 C53.2582615,90.1462644 52.9856322,90.2114583 52.8868534,90.4465517 C53.1456537,91.6753592 52.9046336,93.1432112 54.0484914,93.427694 C54.3033405,93.3052083 54.6154813,93.2301365 54.8565014,93.2261853 C55.1192529,91.8373563 55.0994971,90.3220905 54.9572557,89.0814296 C54.2914871,89.1940374 53.8292026,89.7689296 53.2898707,89.8400503 M57.9897629,81.0467672 C57.5709411,80.6872126 57.4484555,81.2601293 57.0296336,81.4023707 C57.0414871,81.7006825 56.934806,81.767852 57.0296336,81.9575072 C56.5831537,83.4095546 55.5499282,84.6324353 54.7043822,85.8474138 C55.7771193,86.1694325 57.1896552,85.2448635 58.4935345,85.5451509 C59.0308908,85.6676365 59.2580819,86.1931394 59.6077586,86.6060345 C59.6215876,87.2204382 59.6670259,87.6669181 59.5563937,88.2240302 C59.5346624,88.3287356 59.4042744,88.4314655 59.4042744,88.5756825 C59.4082256,89.0478448 59.5247845,90.2647989 59.3548851,90.849569 C59.2640086,91.1577586 58.9894037,91.5173132 58.9005029,91.8630388 C58.9577945,91.9716954 59.0289152,92.0684986 59.0012572,92.2640805 C58.7029454,93.4830101 58.4421695,94.7394756 57.8396193,95.6521911 C57.264727,95.8359195 56.7234195,96.0532328 56.1188937,96.2073276 C55.903556,96.6320761 55.2832256,96.9165589 54.8051365,96.6617098 C54.2144397,96.6755388 53.5723779,97.1338721 52.9362428,97.1180675 C52.4127155,97.1022629 52.1005747,96.7051724 51.5711207,96.6617098 C51.5355603,96.3278376 51.1937859,96.298204 50.9152299,96.2073276 C50.8757184,96.0176724 51.1088362,96.098671 51.1167385,95.954454 C51.0673491,95.8517241 50.9231322,95.8457974 50.7631106,95.8536997 C50.7295259,95.4012931 50.3739224,95.4151221 50.1585848,95.2471983 C50.2632902,95.1424928 50.2257543,95.0061782 50.4094828,94.8935704 C50.2889727,94.644648 50.1230244,94.4372126 49.9551006,94.235704 C50.0064655,93.6311782 49.8266882,92.6038793 49.4493534,92.2146911 C49.6054239,91.6654813 49.4295977,91.2822198 49.4987428,90.849569 C48.4872486,91.1123204 47.2781968,93.1155532 46.1145833,92.1139368 C45.8083693,91.6141164 46.1224856,91.0253951 45.9130747,90.6480603 C46.0572917,90.5591595 46.1323635,90.3951868 46.2667026,90.2944325 C46.2331178,90.0593391 46.3457256,89.9704382 46.3674569,89.7906609 C47.4322917,89.000431 48.3351293,88.0521552 48.9949713,86.858908 C49.7239583,86.3235273 49.8820043,85.2211566 50.7137213,84.7865302 C51.2016882,83.9607399 52.0768678,83.1507543 51.7232399,82.0582615 C50.5240661,82.5837644 49.3051365,81.9100934 48.5405891,81.2996408 C48.2640086,80.7425287 48.1178161,80.327658 47.5784842,80.0866379 C47.5725575,79.9641523 47.5725575,79.8436422 47.6298491,79.784375 C47.4559986,79.8238865 47.4362428,79.7093032 47.2762213,79.7349856 C47.3710489,79.4584052 47.4856322,79.2015805 47.7306034,79.0771193 C47.5982399,78.7215158 47.2762213,78.3382543 47.3769756,77.9135057 C47.4935345,77.8463362 47.6634339,77.8305316 47.7819684,77.7633621 C47.955819,77.7416307 47.9340876,77.9135057 48.034842,77.9648707 C49.2913075,77.7969468 50.1032687,76.8684267 51.2688578,76.5009698 C51.644217,76.3804598 51.987967,76.4338003 52.4304957,76.4002155 C53.1298491,76.3409483 53.8252514,75.9636135 54.5522629,75.8411279 C54.7755029,75.8055675 54.9394756,75.7917385 55.1587644,75.7403736 C55.6012931,75.6435704 56.3006466,75.4973779 56.8775144,75.5388649 C57.6519397,75.5961566 58.4382184,75.9458333 59.2521552,76.2974856 C59.4655172,76.3903376 59.7598779,76.3765086 59.9594109,76.5009698 C60.3525503,76.7400144 60.8405172,77.3899784 60.8681753,77.7633621 C60.9037356,78.1861351 60.5224497,78.6010057 60.3130388,78.925 C59.9969468,79.4188937 59.7104885,79.9522989 59.3548851,80.2387572 C59.0822557,80.458046 58.6673851,80.4778017 58.4935345,80.7958693 C58.2110273,80.7622845 58.0411279,80.8472342 57.9897629,81.0467672" id="Fill-62" fill="#FFFFFF"></path>
                <path d="M64.6241379,8.053125 L64.6241379,4.11975575 C64.6241379,4.11975575 64.8987428,2.08293822 62.5873204,2.08293822 L62.1270115,2.08293822 L61.6667026,2.08293822 C59.3552802,2.08293822 59.6298851,4.11975575 59.6298851,4.11975575 L59.6298851,8.053125 C59.6298851,8.053125 46.7570402,24.0375 26.9499282,22.9371049 C26.9499282,22.9371049 27.7895474,24.1540589 31.9007184,24.4484195 C36.2746408,24.7625359 53.2823635,25.1635776 61.6113865,14.9577586 C61.6113865,14.9577586 61.7951149,14.6614224 62.1270115,14.6278376 C62.458908,14.6614224 62.6426365,14.9577586 62.6426365,14.9577586 C70.9696839,25.1635776 87.9793822,24.7625359 92.3533046,24.4484195 C96.4644756,24.1540589 97.3040948,22.9371049 97.3040948,22.9371049 C77.4969828,24.0375 64.6241379,8.053125 64.6241379,8.053125" id="Fill-64" fill="#FFFFFF"></path>
                <path d="M42.8943966,34.5315553 C43.0563937,35.7880208 43.1927083,36.4458872 44.4116379,36.5841774 C45.2670618,36.6829562 46.2429957,36.6236889 47.1023707,36.586153 C48.9771911,36.5051545 51.9761135,36.0191631 51.3103448,33.5003053 C50.8045977,31.5859734 47.9676724,32.2734734 46.2864583,32.2734734 C45.5653736,32.2734734 44.1429598,32.0028197 43.528556,32.3841056 C42.5170618,33.0123384 42.9971264,33.2237249 42.8943966,33.915176 L42.8943966,34.5315553 Z" id="Fill-66" fill="#C84725"></path>
                <path d="M56.3907328,32.153556 C57.3409842,32.5644756 57.9415589,32.6197917 59.8341595,32.7896911 C60.8515805,32.8805675 62.0843391,32.734375 62.4043822,34.0184986 C62.7520833,35.4211566 61.2091595,35.5317888 60.2332256,35.7866379 C58.7515445,36.171875 56.120079,36.887033 54.5988865,36.3654813 C52.3980963,35.6088362 53.3443966,31.9145115 55.8257184,32.1713362 L56.3907328,32.153556 Z" id="Fill-68" fill="#C84725"></path>
                <path d="M64.6527838,32.581268 C65.2158226,31.6369432 69.2242636,32.2177622 70.2950251,32.4014907 C71.1484734,32.5476832 72.4780352,32.5140984 72.9818068,33.2984016 C73.477676,34.0728269 73.2880208,35.5268499 72.6913973,35.9476473 C71.2413254,36.9630927 68.2661099,36.2420079 66.7271372,35.88838 C65.6484734,35.6414332 64.8878772,35.8310884 64.5223958,34.7306932 C64.0008441,33.1620869 64.777245,32.3639547 66.0890266,31.6586746" id="Fill-70" fill="#C84725"></path>
                <path d="M81.2798132,34.1210309 C82.3841595,31.928143 74.5371767,30.0098599 74.8117816,34.2020295 C74.9461207,36.2704562 76.3033405,36.187482 78.0951868,36.2823096 C80.0332256,36.3850395 81.471444,36.4403556 81.3825431,34.018301" id="Fill-72" fill="#C84725"></path>
                <path d="M68.8609555,37.8157507 C70.81875,37.8157507 72.7686422,37.8552622 74.7106322,37.9184806 C75.6213721,37.9481142 76.8244971,37.7051185 77.1880029,38.7146372 C77.4527299,39.449551 76.9035201,40.7297234 76.6783046,41.4014188 C75.9157328,43.6733297 73.3218032,42.4326688 71.5516882,42.0257004 C70.5895833,41.8064116 69.4457256,41.8004849 68.9538075,40.8166487 C68.5922773,40.0935884 68.556717,38.9576329 68.7463721,38.1871588 L68.8609555,37.8157507 Z" id="Fill-74" fill="#C84725"></path>
                <path d="M58.8025144,37.7132184 C60.5667026,37.0336207 63.5201868,37.0434986 65.3732759,37.3260057 C66.5052802,37.4978807 66.7759339,37.8692888 66.7107399,39.0447557 C66.6613506,39.949569 66.6356681,40.929454 65.7841954,41.3403736 C64.438829,41.9903376 62.2321121,41.603125 60.7761135,41.6130029 C59.6796695,41.6209052 59.1778736,41.6999282 58.9269756,40.506681 C58.7709052,39.7717672 58.4923491,38.9163434 58.6484195,38.1873563 L58.8025144,37.7132184 Z" id="Fill-76" fill="#C84725"></path>
                <path d="M48.1429059,37.995528 C47.3586027,38.6850036 47.9572019,40.1884159 48.1014188,41.1070582 C48.3009519,42.385255 48.6782866,42.3200611 49.8754849,42.3319145 C51.742403,42.3496947 54.0617277,42.0513829 55.746893,41.2038614 C56.8532148,40.6487249 56.7939476,39.8268858 56.541074,38.6375898 C56.2605424,37.3100036 55.746893,37.5055855 54.492403,37.5075611 C53.3920079,37.5095366 48.871893,36.9800826 48.4372665,37.7130208 L48.1429059,37.995528 Z" id="Fill-78" fill="#C84725"></path>
                <path d="M42.9969289,38.7395295 C43.0048312,39.679903 43.1490481,41.0884878 43.6073815,41.9182292 C44.0479346,42.7163614 43.9195223,42.6432651 44.7433369,42.6412895 C45.1305496,42.6412895 45.7706358,42.4634878 45.9642421,42.1632004 C46.3277478,41.6080639 46.1361171,39.7470726 45.9444864,39.1761315 C45.5236889,37.9196659 44.4489763,38.0026401 43.2023886,38.5340697 C43.2023886,38.5340697 42.9949533,38.5854346 42.9969289,38.7395295" id="Fill-80" fill="#C84725"></path>
                <path d="M80.0739224,38.5162895 C78.2149066,37.7398886 78.6297773,41.0746588 78.6297773,42.2125898 C80.7219109,43.6547593 80.7298132,40.0769935 80.9728089,38.8422593" id="Fill-82" fill="#C84725"></path>
                <path d="M45.075431,44.0765445 C44.2614943,44.604023 44.216056,44.6869971 44.1469109,45.6135417 C44.1192529,45.9987787 44.3582974,46.6724497 44.5064655,47.0300287 C44.9845546,48.1916667 45.5041307,48.2667385 46.6855244,48.2845187 C48.034842,48.3042744 51.3913434,49.1399425 52.2309626,47.6760417 C52.5233477,47.1663434 52.266523,45.2500359 52.1361351,44.6869971 C51.8417744,43.4028736 51.2708333,43.5648707 50.0736351,43.5628951 C49.0522629,43.5609195 49.0522629,43.5609195 48.0565733,43.6913075 C47.03125,43.8256466 46.7309626,43.8868894 45.7174928,43.9481322 L45.075431,44.0765445 Z" id="Fill-84" fill="#C84725"></path>
                <path d="M53.8762213,43.9740122 C54.9015445,42.6345726 57.6831537,43.148222 59.0937141,43.3556573 C60.2039871,43.5176545 60.5003233,43.6243355 60.877658,44.5666846 C61.1720187,45.303574 61.3498204,46.4177981 60.7670259,47.0618355 C59.7239224,48.2234734 57.1161638,47.9962823 55.8300647,47.4944864 C55.1208333,47.2179059 54.054023,46.7398168 53.6608836,46.0305855 C53.3625718,45.4952047 53.0662356,45.0684806 53.5423491,44.3592493 L53.8762213,43.9740122 Z" id="Fill-86" fill="#C84725"></path>
                <path d="M63.0148348,44.1541846 C62.7659124,44.9799749 63.0780532,45.3019935 63.232148,46.0270295 C63.4613147,47.1096444 64.0223779,47.5047593 65.0872126,47.5679777 C66.5432112,47.654903 69.6330101,47.3269576 70.7571121,46.3648527 C71.4584411,45.7623024 71.7290948,44.6302981 71.0040589,43.9447737 C70.3521193,43.33037 69.2793822,43.5911458 68.4733477,43.5634878 C67.0232759,43.5140984 64.500467,42.6191631 63.2163434,43.5634878 L63.0148348,44.1541846 Z" id="Fill-88" fill="#C84725"></path>
                <path d="M79.7402478,43.9740122 C78.0214978,43.0138829 72.0078484,42.8913973 73.4658226,46.441505 C73.9616918,47.6505568 76.5101832,47.8086027 77.6639188,47.6703125 C79.6829562,47.431268 79.7402478,46.2143139 79.7402478,44.4876616 L79.7402478,43.9740122 Z" id="Fill-90" fill="#C84725"></path>
                <path d="M67.95713,48.8469648 C69.6857579,48.3649246 71.6514547,49.2578843 73.4591056,49.5127335 C74.3461386,49.6391703 75.2825611,49.7972162 75.5472881,50.7454921 C75.7646013,51.5278197 75.3655352,52.9601114 74.618768,53.1438398 C72.9474318,53.5547593 71.4321659,53.5547593 69.583028,53.3097881 C68.7730424,53.203107 67.4908944,53.5883441 67.176778,52.7487249 C66.9298312,52.0869073 66.8962464,50.0184806 67.255801,49.4653197 C67.255801,49.4653197 67.7793283,48.8963542 67.95713,48.8469648" id="Fill-92" fill="#C84725"></path>
                <path d="M57.9816631,49.1057651 C59.5028556,48.5526042 62.037518,48.4913614 63.6298312,48.9299389 C64.550449,49.1808369 65.1549749,49.3922234 65.2735093,50.439278 C65.3426545,51.0596085 65.2893139,52.9166487 64.8250539,53.2485453 C64.3884519,53.5606861 62.4563398,53.3572019 61.8735453,53.3848599 C61.1327047,53.4204203 60.3661818,53.4065912 59.6253412,53.3828843 C58.8686961,53.3591774 57.9006645,53.4619073 57.5015984,52.6716774 C57.1143858,51.90713 57.225018,50.3088901 57.6477909,49.7221444 L57.9816631,49.1057651 Z" id="Fill-94" fill="#C84725"></path>
                <path d="M48.0565733,50.0293463 C47.7740661,51.0507184 48.0506466,51.3845905 48.2383261,52.3960848 C48.4516882,53.5399425 48.3489583,53.8066451 49.674569,53.7039152 C50.4806034,53.6406968 51.3221983,53.4530172 52.1321839,53.3384339 C52.9066092,53.2297773 53.9398348,53.3996767 54.6628951,53.1250718 C55.7494612,52.7141523 55.5677083,51.781681 55.5202945,50.7642601 C55.4610273,49.4603807 55.2496408,49.1976293 53.9556394,49.1028017 C53.139727,49.0435345 52.2052802,49.0237787 51.393319,49.1028017 C50.2869971,49.2114583 49.1806753,49.361602 48.127694,49.8238865 L48.0565733,50.0293463 Z" id="Fill-96" fill="#C84725"></path>
                <path d="M78.919199,53.0055496 C78.468768,53.2920079 77.5521013,53.9162895 77.0957435,53.2781789 C76.9297953,53.0470366 77.0167205,52.0592493 77.0483297,51.7747665 C77.2083513,50.3227191 78.0124102,48.9457435 79.0219289,50.0283585 C79.7805496,50.8442708 78.919199,53.0055496 78.919199,53.0055496" id="Fill-98" fill="#C84725"></path>
                <path d="M44.9470187,49.7215517 C44.559806,50.138398 45.0912356,51.7899784 45.1524784,52.4122845 C45.233477,53.2380747 45.6266164,54.500467 46.7289871,53.4534124 C47.6278736,52.6019397 47.7009698,49.4983118 45.6918103,49.7116739 L44.9470187,49.7215517 Z" id="Fill-100" fill="#C84725"></path>
                <rect id="background" fill-opacity="0" fill="#FFFFFF" x="0" y="0" width="125" height="125"></rect>
            </g>
        </g>
    </g>
</svg>