<?xml version="1.0" encoding="UTF-8" standalone="no"?>
<svg width="100px" height="108px" viewBox="0 0 100 108" version="1.1" xmlns="http://www.w3.org/2000/svg" xmlns:xlink="http://www.w3.org/1999/xlink">
    <!-- Generator: Sketch 40.2 (33826) - http://www.bohemiancoding.com/sketch -->
    <title>RBV_logo_another</title>
    <desc>Created with Sketch.</desc>
    <defs>
        <polygon id="path-1" points="1.40724138 10.3448276 6.82793103 10.3448276 6.82793103 0.912758621 1.40724138 0.912758621 1.40724138 10.3448276"></polygon>
        <polygon id="path-3" points="1.14017241 6.89655172 5.91086207 6.89655172 5.91086207 1.55224138 1.14017241 1.55224138 1.14017241 6.89655172"></polygon>
        <polygon id="path-5" points="26.9344828 29.0706897 26.9344828 0.914535406 0.030280166 0.914535406 0.030280166 29.0706897 26.9344828 29.0706897"></polygon>
    </defs>
    <g id="紅磚屋_UI-KIT" stroke="none" stroke-width="1" fill="none" fill-rule="evenodd">
        <g id="UI-KIT" transform="translate(-670.000000, -254.000000)">
            <g id="RBV_logo_another" transform="translate(670.000000, 254.000000)">
                <path d="M3.36017241,103.18931 C3.71534483,103.166897 4.02913793,103.115172 4.29982759,103.037586 C4.57051724,102.958276 4.79810345,102.844483 4.97913793,102.694483 C5.16189655,102.546207 5.29982759,102.356552 5.39465517,102.125517 C5.48775862,101.896207 5.53603448,101.616897 5.53603448,101.28931 C5.53603448,101.018621 5.48431034,100.782414 5.38431034,100.578966 C5.28258621,100.377241 5.1412069,100.21 4.96362069,100.078966 C4.78258621,99.947931 4.57051724,99.8496552 4.32913793,99.7841379 C4.08431034,99.7203448 3.82224138,99.6875862 3.5412069,99.6875862 C3.35672414,99.6875862 3.2187931,99.7031034 3.12568966,99.7341379 C3.03431034,99.7634483 2.98775862,99.847931 2.98775862,99.9858621 L2.98775862,107.146207 C2.98775862,107.256552 2.93258621,107.320345 2.82224138,107.33931 C2.74465517,107.353103 2.65844828,107.365172 2.56362069,107.377241 C2.4687931,107.38931 2.37741379,107.397931 2.28775862,107.404828 C2.19637931,107.411724 2.11362069,107.416897 2.03775862,107.418621 C1.96189655,107.420345 1.905,107.422069 1.87051724,107.422069 C1.75844828,107.422069 1.70327586,107.363448 1.70327586,107.249655 L1.70327586,100.323793 C1.70327586,100.094483 1.65327586,99.9410345 1.55155172,99.8651724 C1.45155172,99.7875862 1.3187931,99.7496552 1.15844828,99.7496552 C1.06534483,99.7496552 0.96362069,99.7565517 0.855,99.772069 L0.811896552,99.3910345 C1.27224138,99.3134483 1.74982759,99.247931 2.24637931,99.1944828 C2.7412069,99.1410345 3.24637931,99.1151724 3.76017241,99.1151724 C3.98086207,99.1151724 4.21362069,99.1255172 4.45844828,99.1427586 C4.70155172,99.1617241 4.94293103,99.1962069 5.17741379,99.2462069 C5.41017241,99.297931 5.63431034,99.3668966 5.84637931,99.4565517 C6.05672414,99.5462069 6.24465517,99.6651724 6.40327586,99.81 C6.56017241,99.9548276 6.68775862,100.128966 6.78086207,100.334138 C6.87568966,100.53931 6.92224138,100.782414 6.92224138,101.063448 C6.92224138,101.361724 6.87913793,101.625517 6.78948276,101.853103 C6.69982759,102.08069 6.57396552,102.282414 6.41534483,102.456552 C6.25844828,102.632414 6.07224138,102.782414 5.86017241,102.906552 C5.64810345,103.03069 5.42051724,103.135862 5.17741379,103.223793 L5.17741379,103.265172 C5.2912069,103.287586 5.41534483,103.323793 5.54982759,103.372069 C5.68431034,103.420345 5.81362069,103.48931 5.93948276,103.578966 C6.06534483,103.668621 6.18431034,103.782414 6.2912069,103.920345 C6.39982759,104.058276 6.48603448,104.23069 6.55155172,104.432414 L7.06017241,106.013448 C7.13258621,106.23069 7.19465517,106.403103 7.25155172,106.532414 C7.30844828,106.66 7.37051724,106.758276 7.43431034,106.823793 C7.49810345,106.891034 7.57224138,106.934138 7.655,106.956552 C7.73775862,106.977241 7.84293103,106.987586 7.96706897,106.987586 L7.98775862,107.346207 C7.89982759,107.363448 7.80327586,107.382414 7.70155172,107.397931 C7.59637931,107.413448 7.49293103,107.427241 7.39293103,107.435862 C7.2912069,107.444483 7.20155172,107.453103 7.12051724,107.46 C7.03948276,107.466897 6.97913793,107.470345 6.93775862,107.470345 C6.78948276,107.470345 6.65844828,107.453103 6.54465517,107.418621 C6.42913793,107.384138 6.32568966,107.323793 6.23258621,107.23931 C6.1412069,107.153103 6.05844828,107.041034 5.98775862,106.899655 C5.91534483,106.76 5.84982759,106.584138 5.7912069,106.372069 L5.30155172,104.687586 C5.23258621,104.447931 5.14982759,104.256552 5.05155172,104.115172 C4.95672414,103.972069 4.83431034,103.863448 4.68948276,103.785862 C4.54465517,103.71 4.37051724,103.66 4.16534483,103.634138 C3.96017241,103.61 3.71362069,103.591034 3.42224138,103.582414 L3.36017241,103.18931 Z" id="Fill-1" fill="#231815"></path>
                <path d="M12.2922414,104.093621 C12.3060345,104.029828 12.3163793,103.967759 12.3198276,103.907414 C12.325,103.847069 12.3267241,103.785 12.3267241,103.721207 C12.3267241,103.591897 12.3077586,103.469483 12.2681034,103.35569 C12.2284483,103.240172 12.1732759,103.140172 12.0991379,103.053966 C12.025,102.969483 11.9336207,102.902241 11.8232759,102.853966 C11.7112069,102.80569 11.5887931,102.781552 11.4508621,102.781552 C11.2284483,102.781552 11.0387931,102.822931 10.8801724,102.902241 C10.7215517,102.983276 10.5905172,103.090172 10.487069,103.224655 C10.3836207,103.357414 10.3060345,103.512586 10.2543103,103.690172 C10.2043103,103.867759 10.1767241,104.052241 10.1732759,104.245345 L12.2922414,104.093621 Z M13.825,106.745345 C13.6043103,106.852241 13.3715517,106.948793 13.1267241,107.038448 C12.8836207,107.128103 12.6456897,107.20569 12.412931,107.269483 C12.1818966,107.335 11.9646552,107.385 11.762931,107.419483 C11.562931,107.453966 11.3956897,107.469483 11.262931,107.469483 C10.8905172,107.469483 10.5594828,107.400517 10.2715517,107.259138 C9.98362069,107.119483 9.74224138,106.933276 9.54741379,106.700517 C9.35258621,106.467759 9.20258621,106.200517 9.10086207,105.895345 C9.00086207,105.591897 8.95086207,105.276379 8.95086207,104.948793 C8.95086207,104.526379 9.02844828,104.140172 9.18362069,103.793621 C9.34051724,103.445345 9.55431034,103.148793 9.82327586,102.902241 C10.0939655,102.65569 10.4060345,102.466034 10.7663793,102.329828 C11.125,102.193621 11.5043103,102.126379 11.9043103,102.126379 C12.1681034,102.126379 12.3991379,102.166034 12.6025862,102.247069 C12.8060345,102.326379 12.975,102.436724 13.1146552,102.578103 C13.2525862,102.719483 13.3577586,102.888448 13.4318966,103.085 C13.5043103,103.283276 13.5422414,103.500517 13.5422414,103.735 C13.5422414,103.936724 13.5025862,104.190172 13.4232759,104.493621 L10.1784483,104.666034 C10.1974138,104.957414 10.2543103,105.221207 10.3525862,105.460862 C10.4491379,105.700517 10.5853448,105.907414 10.762931,106.081552 C10.9405172,106.257414 11.1560345,106.393621 11.4112069,106.490172 C11.6681034,106.586724 11.9612069,106.635 12.2922414,106.635 C12.512931,106.635 12.7491379,106.607414 12.9991379,106.55569 C13.2508621,106.502241 13.4767241,106.436724 13.6732759,106.359138 L13.825,106.745345 Z" id="Fill-3" fill="#231815"></path>
                <g id="Group-7" transform="translate(13.793103, 97.125517)">
                    <mask id="mask-2" fill="white">
                        <use xlink:href="#path-1"></use>
                    </mask>
                    <g id="Clip-6"></g>
                    <path d="M5.48827586,6.39551724 C5.48827586,6.2437931 5.45034483,6.11448276 5.37448276,6.01103448 C5.29862069,5.90758621 5.20206897,5.82655172 5.08827586,5.76275862 C4.97275862,5.70068966 4.84689655,5.65586207 4.70896552,5.62827586 C4.56931034,5.60068966 4.43655172,5.58689655 4.30724138,5.58689655 C4.00896552,5.58689655 3.75206897,5.63172414 3.53655172,5.72137931 C3.32275862,5.81103448 3.15034483,5.93689655 3.01586207,6.09896552 C2.88137931,6.25931034 2.78482759,6.45241379 2.72103448,6.67482759 C2.66068966,6.89896552 2.62965517,7.14034483 2.62965517,7.40413793 C2.62965517,7.62310345 2.65551724,7.86275862 2.70896552,8.11793103 C2.76241379,8.37310345 2.84862069,8.61103448 2.96758621,8.83 C3.08655172,9.04724138 3.24344828,9.22827586 3.43827586,9.37137931 C3.63137931,9.51448276 3.86931034,9.58517241 4.14862069,9.58517241 C4.19,9.58517241 4.25206897,9.58 4.33482759,9.57137931 C4.41758621,9.56275862 4.51931034,9.54551724 4.63482759,9.51965517 C4.75206897,9.4937931 4.88310345,9.45931034 5.02793103,9.4162069 C5.17275862,9.37310345 5.3262069,9.3162069 5.48827586,9.24724138 L5.48827586,6.39551724 Z M4.66068966,1.29206897 C5.16586207,1.15413793 5.58310345,1.05586207 5.90896552,0.998965517 C6.23655172,0.942068966 6.43137931,0.912758621 6.49689655,0.912758621 C6.64344828,0.912758621 6.71758621,0.995517241 6.71758621,1.16103448 L6.71758621,9.22655172 C6.71758621,9.38172414 6.72793103,9.52655172 6.74689655,9.65758621 C6.76931034,9.78862069 6.79344828,9.91448276 6.81931034,10.0334483 L6.82793103,10.0748276 C6.82793103,10.1437931 6.78137931,10.1903448 6.68827586,10.2127586 C6.62965517,10.2282759 6.56241379,10.2403448 6.48655172,10.2506897 C6.40896552,10.2627586 6.33137931,10.2731034 6.25034483,10.28 C6.16931034,10.2851724 6.09172414,10.2903448 6.01413793,10.2937931 C5.93482759,10.2955172 5.86413793,10.2972414 5.79862069,10.2972414 C5.74689655,10.2972414 5.71068966,10.2817241 5.68482759,10.2541379 C5.66068966,10.2282759 5.64,10.1851724 5.6262069,10.1317241 L5.52275862,9.7437931 C5.30724138,9.82655172 5.09172414,9.90586207 4.87965517,9.97827586 C4.66758621,10.0524138 4.46758621,10.1162069 4.27965517,10.1696552 C4.09,10.2213793 3.91931034,10.2644828 3.76241379,10.2972414 C3.60551724,10.3282759 3.47103448,10.3455172 3.36241379,10.3455172 C3.06241379,10.3455172 2.79344828,10.2696552 2.55034483,10.1162069 C2.30724138,9.96448276 2.10206897,9.77137931 1.93137931,9.53689655 C1.76241379,9.30241379 1.63310345,9.04206897 1.54172414,8.75758621 C1.45206897,8.47137931 1.40724138,8.1937931 1.40724138,7.92137931 C1.40724138,7.45068966 1.49344828,7.03689655 1.66241379,6.67482759 C1.83310345,6.31448276 2.06586207,6.00758621 2.36068966,5.75931034 C2.6537931,5.51103448 3.00034483,5.32310345 3.39517241,5.1937931 C3.79172414,5.06448276 4.21586207,5.00068966 4.66586207,5.00068966 C4.94344828,5.00068966 5.21758621,5.02137931 5.48827586,5.06275862 L5.48827586,2.23862069 C5.48827586,1.9937931 5.45034483,1.82827586 5.37103448,1.73689655 C5.29344828,1.64896552 5.16413793,1.60241379 4.98482759,1.60241379 C4.89689655,1.60241379 4.8037931,1.61103448 4.70034483,1.62310345 L4.66068966,1.29206897 Z" id="Fill-5" fill="#231815" mask="url(#mask-2)"></path>
                </g>
                <path d="M32.5137931,106.745345 C32.5689655,106.759138 32.637931,106.771207 32.7241379,106.783276 C32.8103448,106.795345 32.9017241,106.80569 32.9965517,106.81431 C33.0931034,106.824655 33.1948276,106.829828 33.2965517,106.835 C33.4017241,106.840172 33.4982759,106.841897 33.5913793,106.841897 C33.9258621,106.841897 34.2068966,106.791897 34.4327586,106.693621 C34.6586207,106.595345 34.8396552,106.469483 34.9724138,106.316034 C35.1051724,106.166034 35.2,106.000517 35.2551724,105.822931 C35.3103448,105.645345 35.337931,105.481552 35.337931,105.329828 C35.337931,104.957414 35.2793103,104.650517 35.162069,104.407414 C35.0448276,104.166034 34.8793103,103.976379 34.6637931,103.835 C34.45,103.693621 34.1931034,103.597069 33.8913793,103.545345 C33.5896552,103.491897 33.2568966,103.466034 32.8931034,103.466034 L32.7,103.466034 L32.6068966,103.466034 C32.5758621,103.466034 32.5465517,103.467759 32.5137931,103.472931 L32.5137931,106.745345 Z M32.5137931,102.912586 C32.5586207,102.912586 32.6051724,102.91431 32.6482759,102.916034 C32.6931034,102.919483 32.7344828,102.919483 32.7758621,102.919483 C33.1586207,102.919483 33.4913793,102.890172 33.7758621,102.829828 C34.062069,102.769483 34.2982759,102.676379 34.4862069,102.547069 C34.6706897,102.417759 34.8103448,102.252241 34.9034483,102.047069 C34.9948276,101.841897 35.0413793,101.591897 35.0413793,101.297069 C35.0413793,101.007414 34.9913793,100.759138 34.8965517,100.55569 C34.7982759,100.350517 34.6637931,100.181552 34.4931034,100.050517 C34.3189655,99.9194828 34.112069,99.8246552 33.8706897,99.7643103 C33.6275862,99.7056897 33.362069,99.6746552 33.0724138,99.6746552 C32.8758621,99.6746552 32.7327586,99.6884483 32.6448276,99.7160345 C32.5568966,99.7436207 32.5137931,99.8263793 32.5137931,99.9643103 L32.5137931,102.912586 Z M30.337931,99.3918966 C30.7448276,99.3263793 31.1844828,99.2643103 31.6568966,99.2039655 C32.1310345,99.1453448 32.6655172,99.1160345 33.2603448,99.1160345 C33.4810345,99.1160345 33.7103448,99.1246552 33.9534483,99.1436207 C34.1965517,99.1608621 34.4327586,99.1953448 34.6672414,99.2418966 C34.9034483,99.2918966 35.1258621,99.3608621 35.337931,99.4505172 C35.55,99.5401724 35.7362069,99.6556897 35.9,99.7987931 C36.0637931,99.9418966 36.1931034,100.116034 36.287931,100.319483 C36.3810345,100.524655 36.4293103,100.766034 36.4293103,101.041897 C36.4293103,101.245345 36.3948276,101.445345 36.3258621,101.645345 C36.2568966,101.847069 36.1534483,102.035 36.0172414,102.212586 C35.8810345,102.390172 35.7155172,102.548793 35.5137931,102.691897 C35.3137931,102.835 35.0810345,102.950517 34.8206897,103.036724 L34.8206897,103.06431 C34.8982759,103.079828 35.0017241,103.102241 35.1310345,103.136724 C35.2603448,103.171207 35.3965517,103.222931 35.5413793,103.290172 C35.6862069,103.35569 35.8327586,103.440172 35.9810345,103.541897 C36.1275862,103.641897 36.2603448,103.76431 36.3758621,103.907414 C36.4948276,104.050517 36.5896552,104.217759 36.6637931,104.407414 C36.7362069,104.598793 36.7741379,104.819483 36.7741379,105.067759 C36.7741379,105.16431 36.762069,105.290172 36.7396552,105.443621 C36.7172414,105.598793 36.6672414,105.762586 36.5913793,105.936724 C36.5137931,106.112586 36.4068966,106.288448 36.2672414,106.466034 C36.1258621,106.643621 35.937931,106.802241 35.7051724,106.945345 C35.4689655,107.088448 35.1793103,107.203966 34.8344828,107.293621 C34.4896552,107.385 34.0758621,107.428103 33.5982759,107.428103 C33.3810345,107.428103 33.1896552,107.424655 33.0206897,107.41431 C32.8534483,107.40569 32.687931,107.393621 32.5241379,107.379828 C32.3603448,107.366034 32.1913793,107.35569 32.0137931,107.345345 C31.8362069,107.336724 31.6293103,107.331552 31.3965517,107.331552 C31.2844828,107.331552 31.2293103,107.274655 31.2293103,107.159138 L31.2293103,100.322931 C31.2293103,100.093621 31.1793103,99.9401724 31.0775862,99.8643103 C30.9758621,99.7884483 30.8448276,99.7505172 30.6844828,99.7505172 C30.5913793,99.7505172 30.4896552,99.7574138 30.3810345,99.7712069 L30.337931,99.3918966 Z" id="Fill-8" fill="#231815"></path>
                <path d="M38.0465517,102.547069 C38.2965517,102.478103 38.5258621,102.419483 38.7362069,102.371207 C38.9482759,102.322931 39.1362069,102.283276 39.3017241,102.250517 C39.4637931,102.217759 39.5965517,102.195345 39.7,102.181552 C39.8051724,102.167759 39.8724138,102.160862 39.9034483,102.160862 C40.0517241,102.160862 40.1258621,102.243621 40.1258621,102.409138 L40.1258621,102.760862 C40.2827586,102.674655 40.4431034,102.590172 40.6086207,102.512586 C40.7741379,102.435 40.9362069,102.366034 41.0965517,102.309138 C41.2534483,102.252241 41.4051724,102.20569 41.55,102.174655 C41.6965517,102.141897 41.8241379,102.126379 41.9344828,102.126379 C42.0586207,102.126379 42.1689655,102.147069 42.262069,102.191897 C42.3568966,102.235 42.437931,102.293621 42.5034483,102.367759 C42.5706897,102.440172 42.6189655,102.524655 42.6534483,102.616034 C42.6862069,102.709138 42.7,102.802241 42.7,102.898793 C42.7,103.000517 42.6827586,103.098793 42.65,103.191897 C42.6137931,103.286724 42.562069,103.371207 42.4896552,103.443621 C42.4189655,103.517759 42.3293103,103.578103 42.2241379,103.619483 C42.1172414,103.66431 41.9948276,103.686724 41.8517241,103.686724 L41.7068966,103.686724 C41.6827586,103.686724 41.6586207,103.685 41.6310345,103.683276 C41.6034483,103.681552 41.5775862,103.676379 41.5551724,103.672931 L41.5551724,103.521207 C41.5551724,103.309138 41.512069,103.160862 41.4275862,103.076379 C41.3413793,102.990172 41.2327586,102.947069 41.1,102.947069 C40.962069,102.947069 40.8068966,102.976379 40.6327586,103.036724 C40.4603448,103.097069 40.2913793,103.172931 40.1258621,103.266034 L40.1258621,107.145345 C40.1258621,107.25569 40.0706897,107.319483 39.9586207,107.338448 C39.8810345,107.353966 39.7982759,107.366034 39.7086207,107.376379 C39.6172414,107.388448 39.5310345,107.397069 39.45,107.403966 C39.3672414,107.410862 39.2896552,107.416034 39.2206897,107.419483 C39.1517241,107.421207 39.0982759,107.422931 39.062069,107.422931 C38.95,107.422931 38.8965517,107.36431 38.8965517,107.248793 L38.8965517,103.486724 C38.8965517,103.241897 38.8568966,103.076379 38.7793103,102.985 C38.7,102.895345 38.5793103,102.850517 38.4137931,102.850517 C38.362069,102.850517 38.312069,102.852241 38.2637931,102.853966 C38.2172414,102.857414 38.1568966,102.86431 38.087931,102.878103 L38.0465517,102.547069 Z" id="Fill-10" fill="#231815"></path>
                <path d="M45.747931,100.013103 C45.747931,100.261379 45.6824138,100.44069 45.5513793,100.551034 C45.4203448,100.661379 45.2306897,100.718276 44.9824138,100.718276 C44.7755172,100.718276 44.6168966,100.654483 44.5048276,100.530345 C44.3944828,100.406207 44.3410345,100.233793 44.3410345,100.013103 C44.3410345,99.7648276 44.4082759,99.5855172 44.5444828,99.4768966 C44.6789655,99.37 44.8703448,99.3165517 45.1203448,99.3165517 C45.3272414,99.3165517 45.4841379,99.3768966 45.5893103,99.4993103 C45.6962069,99.62 45.747931,99.7924138 45.747931,100.013103 L45.747931,100.013103 Z M43.6289655,102.547586 C43.8772414,102.478621 44.1082759,102.418276 44.3186207,102.371724 C44.5306897,102.323448 44.7168966,102.282069 44.8824138,102.24931 C45.0462069,102.218276 45.1789655,102.195862 45.2824138,102.180345 C45.3858621,102.166552 45.4531034,102.161379 45.4858621,102.161379 C45.6341379,102.161379 45.7082759,102.242414 45.7082759,102.409655 L45.7082759,107.145862 C45.7082759,107.256207 45.6513793,107.32 45.5410345,107.338966 C45.4634483,107.352759 45.3789655,107.366552 45.2893103,107.376897 C45.1996552,107.388966 45.1134483,107.397586 45.0306897,107.404483 C44.947931,107.411379 44.8703448,107.416552 44.8013793,107.418276 C44.7324138,107.42 44.6806897,107.421724 44.6427586,107.421724 C44.5324138,107.421724 44.4789655,107.364828 44.4789655,107.24931 L44.4789655,103.487241 C44.4789655,103.242414 44.4375862,103.075172 44.36,102.985517 C44.2806897,102.895862 44.16,102.851034 43.9944828,102.851034 C43.9427586,102.851034 43.8944828,102.851034 43.8444828,102.854483 C43.797931,102.856207 43.7393103,102.864828 43.6703448,102.878621 L43.6289655,102.547586 Z" id="Fill-12" fill="#231815"></path>
                <g id="Group-16" transform="translate(46.551724, 100.573793)">
                    <mask id="mask-4" fill="white">
                        <use xlink:href="#path-3"></use>
                    </mask>
                    <g id="Clip-15"></g>
                    <path d="M4.55051724,3.0987931 C4.55051724,2.96431034 4.54362069,2.84362069 4.52982759,2.73327586 C4.51603448,2.62293103 4.48155172,2.52810345 4.42637931,2.44706897 C4.3712069,2.36603448 4.29189655,2.30396552 4.18844828,2.25913793 C4.085,2.21603448 3.94189655,2.19534483 3.76258621,2.19534483 C3.50568966,2.19534483 3.28844828,2.23844828 3.11086207,2.32465517 C2.935,2.41258621 2.79017241,2.52982759 2.67982759,2.67810345 C2.56948276,2.82465517 2.48844828,2.99706897 2.43672414,3.19534483 C2.38672414,3.39362069 2.36258621,3.60568966 2.36258621,3.82982759 C2.36258621,4.14362069 2.40396552,4.435 2.48672414,4.70396552 C2.56948276,4.97293103 2.69362069,5.20913793 2.86258621,5.41258621 C3.02982759,5.61431034 3.24189655,5.77293103 3.50224138,5.88844828 C3.75913793,6.00396552 4.06431034,6.06086207 4.41948276,6.06086207 C4.51258621,6.06086207 4.61431034,6.05396552 4.73155172,6.04017241 C4.84534483,6.02637931 4.96258621,6.00913793 5.08327586,5.98844828 C5.20224138,5.96775862 5.31775862,5.94189655 5.435,5.91258621 C5.5487931,5.88327586 5.65568966,5.85224138 5.75051724,5.81948276 L5.91086207,6.20568966 C5.69362069,6.30224138 5.46603448,6.39362069 5.22810345,6.47810345 C4.98844828,6.56431034 4.75568966,6.63672414 4.52982759,6.6987931 C4.30396552,6.76086207 4.09362069,6.81086207 3.90051724,6.84534483 C3.70913793,6.87982759 3.5487931,6.89706897 3.42465517,6.89706897 C3.05741379,6.89706897 2.72982759,6.82810345 2.44706897,6.69017241 C2.16431034,6.55224138 1.92810345,6.36603448 1.73327586,6.13327586 C1.54017241,5.90224138 1.39189655,5.63327586 1.29017241,5.32982759 C1.19017241,5.02465517 1.14017241,4.70741379 1.14017241,4.37637931 C1.14017241,3.9487931 1.21948276,3.56086207 1.38155172,3.21258621 C1.54189655,2.86603448 1.76258621,2.56775862 2.04362069,2.3212069 C2.32465517,2.07637931 2.65396552,1.885 3.03155172,1.75224138 C3.40913793,1.61948276 3.81258621,1.55224138 4.24534483,1.55224138 C4.4212069,1.55224138 4.59534483,1.56775862 4.76775862,1.60051724 C4.94189655,1.63155172 5.09534483,1.68844828 5.235,1.76603448 C5.37293103,1.84362069 5.48327586,1.9487931 5.56948276,2.07637931 C5.65396552,2.20568966 5.69706897,2.36775862 5.69706897,2.56086207 C5.69706897,2.80396552 5.61603448,2.97982759 5.45396552,3.08844828 C5.29362069,3.19706897 5.09189655,3.25051724 4.85396552,3.25051724 C4.75224138,3.25051724 4.65224138,3.24362069 4.55051724,3.22982759 L4.55051724,3.0987931 Z" id="Fill-14" fill="#231815" mask="url(#mask-4)"></path>
                </g>
                <path d="M53.4122414,98.4177586 C53.9191379,98.2798276 54.3346552,98.1815517 54.6622414,98.1246552 C54.9881034,98.0660345 55.1846552,98.0384483 55.2501724,98.0384483 C55.395,98.0384483 55.4691379,98.1212069 55.4691379,98.2867241 L55.4691379,104.541897 L57.3691379,102.498793 C57.4139655,102.452241 57.4605172,102.417759 57.5036207,102.395345 C57.5484483,102.371207 57.6018966,102.352241 57.6656897,102.333276 C57.7656897,102.30569 57.8777586,102.281552 57.9967241,102.260862 C58.1174138,102.240172 58.232931,102.222931 58.345,102.209138 C58.4587931,102.195345 58.5587931,102.185 58.6501724,102.178103 C58.7398276,102.171207 58.8018966,102.167759 58.8398276,102.167759 C58.9174138,102.167759 58.957069,102.203966 58.957069,102.278103 C58.957069,102.300517 58.9381034,102.331552 58.9018966,102.367759 L56.5967241,104.190172 L59.1156897,107.145345 C59.1381034,107.181552 59.1501724,107.212586 59.1501724,107.235 C59.1501724,107.290172 59.1191379,107.326379 59.0553448,107.338448 C58.9760345,107.353966 58.882931,107.366034 58.7725862,107.376379 C58.6656897,107.388448 58.5587931,107.397069 58.4536207,107.403966 C58.3467241,107.410862 58.2501724,107.416034 58.1622414,107.419483 C58.0760345,107.421207 58.0105172,107.422931 57.9708621,107.422931 C57.9087931,107.422931 57.857069,107.409138 57.8139655,107.385 C57.7691379,107.359138 57.7208621,107.31431 57.6656897,107.248793 L55.4691379,104.672931 L55.4691379,107.145345 C55.4691379,107.25569 55.4139655,107.319483 55.3053448,107.338448 C55.2260345,107.353966 55.1415517,107.366034 55.0518966,107.376379 C54.9622414,107.388448 54.8760345,107.397069 54.7932759,107.403966 C54.7105172,107.410862 54.6346552,107.416034 54.5656897,107.419483 C54.4967241,107.421207 54.4432759,107.422931 54.407069,107.422931 C54.2967241,107.422931 54.2415517,107.36431 54.2415517,107.248793 L54.2415517,99.3643103 C54.2415517,99.1194828 54.2018966,98.9539655 54.1225862,98.8625862 C54.045,98.772931 53.9156897,98.7281034 53.7381034,98.7281034 C53.6501724,98.7281034 53.5553448,98.7367241 53.4536207,98.7487931 L53.4122414,98.4177586 Z" id="Fill-17" fill="#231815"></path>
                <path d="M74.5767241,99.5365517 C74.6094828,99.4348276 74.6836207,99.3658621 74.8043103,99.3296552 C74.8698276,99.3106897 74.9387931,99.2968966 75.0112069,99.2882759 C75.0853448,99.2796552 75.1577586,99.2710345 75.2267241,99.2641379 C75.2956897,99.2572414 75.3577586,99.252069 75.4146552,99.2503448 C75.475,99.2468966 75.5181034,99.2468966 75.5491379,99.2468966 C75.6008621,99.2468966 75.6336207,99.2537931 75.6508621,99.2710345 C75.6663793,99.2865517 75.675,99.3072414 75.675,99.3296552 C75.675,99.3486207 75.662931,99.3865517 75.6405172,99.4468966 L72.3612069,107.284828 C72.3232759,107.362414 72.2853448,107.403793 72.2422414,107.407241 C72.2198276,107.412414 72.1818966,107.417586 72.1284483,107.422759 C72.0767241,107.426207 72.0215517,107.429655 71.962931,107.433103 C71.9060345,107.434828 71.8508621,107.436552 71.7974138,107.438276 C71.7439655,107.441724 71.7094828,107.441724 71.6905172,107.441724 C71.6646552,107.441724 71.637069,107.434828 71.6112069,107.422759 C71.587069,107.407241 71.5646552,107.377931 71.5456897,107.331379 L68.825,100.322759 C68.7422414,100.107241 68.6456897,99.9624138 68.5318966,99.8882759 C68.4198276,99.8158621 68.2887931,99.777931 68.1422414,99.777931 C68.0956897,99.777931 68.0491379,99.7813793 68.0008621,99.7848276 C67.9508621,99.79 67.8991379,99.7968966 67.8456897,99.8055172 L67.8025862,99.4262069 C68.0060345,99.3848276 68.2094828,99.3486207 68.4112069,99.3193103 C68.612931,99.2882759 68.7974138,99.2641379 68.9663793,99.2434483 C69.1353448,99.2227586 69.2767241,99.2072414 69.3905172,99.1951724 C69.5077586,99.1831034 69.5801724,99.177931 69.612931,99.177931 C69.6818966,99.177931 69.7336207,99.2003448 69.7646552,99.2434483 C69.7974138,99.2865517 69.8284483,99.3486207 69.8612069,99.4262069 L72.325,105.853793 L72.3543103,105.853793 L74.5767241,99.5365517 Z" id="Fill-19" fill="#231815"></path>
                <path d="M78.6396552,100.013103 C78.6396552,100.261379 78.5741379,100.44069 78.4431034,100.551034 C78.3103448,100.661379 78.1224138,100.718276 77.8741379,100.718276 C77.6672414,100.718276 77.5086207,100.654483 77.3965517,100.530345 C77.2862069,100.406207 77.2327586,100.233793 77.2327586,100.013103 C77.2327586,99.7648276 77.3,99.5855172 77.4362069,99.4768966 C77.5706897,99.37 77.762069,99.3165517 78.012069,99.3165517 C78.2189655,99.3165517 78.3758621,99.3768966 78.4810345,99.4993103 C78.587931,99.62 78.6396552,99.7924138 78.6396552,100.013103 L78.6396552,100.013103 Z M76.5189655,102.547586 C76.7689655,102.478621 77,102.418276 77.2103448,102.371724 C77.4224138,102.323448 77.6086207,102.282069 77.7741379,102.24931 C77.937931,102.218276 78.0706897,102.195862 78.1724138,102.180345 C78.2775862,102.166552 78.3448276,102.161379 78.3775862,102.161379 C78.5258621,102.161379 78.6,102.242414 78.6,102.409655 L78.6,107.145862 C78.6,107.256207 78.5431034,107.32 78.4327586,107.338966 C78.3551724,107.352759 78.2706897,107.366552 78.1810345,107.376897 C78.0913793,107.388966 78.0051724,107.397586 77.9224138,107.404483 C77.8396552,107.411379 77.762069,107.416552 77.6931034,107.418276 C77.6241379,107.42 77.5724138,107.421724 77.5344828,107.421724 C77.4241379,107.421724 77.3706897,107.364828 77.3706897,107.24931 L77.3706897,103.487241 C77.3706897,103.242414 77.3293103,103.075172 77.2517241,102.985517 C77.1724138,102.895862 77.0517241,102.851034 76.8862069,102.851034 C76.8344828,102.851034 76.7862069,102.851034 76.7362069,102.854483 C76.6896552,102.856207 76.6310345,102.864828 76.562069,102.878621 L76.5189655,102.547586 Z" id="Fill-21" fill="#231815"></path>
                <path d="M80.3065517,98.4177586 C80.8134483,98.2798276 81.2289655,98.1815517 81.5565517,98.1246552 C81.8824138,98.0660345 82.0789655,98.0384483 82.1427586,98.0384483 C82.2893103,98.0384483 82.3634483,98.1212069 82.3634483,98.2867241 L82.3634483,107.145345 C82.3634483,107.25569 82.3082759,107.319483 82.1996552,107.338448 C82.1203448,107.353966 82.0358621,107.366034 81.9462069,107.376379 C81.8565517,107.388448 81.7703448,107.397069 81.6875862,107.403966 C81.6048276,107.410862 81.5289655,107.416034 81.46,107.419483 C81.3910345,107.421207 81.3375862,107.422931 81.3013793,107.422931 C81.1910345,107.422931 81.1341379,107.36431 81.1341379,107.248793 L81.1341379,99.3643103 C81.1341379,99.1194828 81.0962069,98.9539655 81.0168966,98.8625862 C80.9393103,98.772931 80.81,98.7281034 80.6306897,98.7281034 C80.5444828,98.7281034 80.4496552,98.7367241 80.347931,98.7487931 L80.3065517,98.4177586 Z" id="Fill-23" fill="#231815"></path>
                <path d="M84.0713793,98.4177586 C84.5782759,98.2798276 84.9937931,98.1815517 85.3213793,98.1246552 C85.6472414,98.0660345 85.8437931,98.0384483 85.9075862,98.0384483 C86.0541379,98.0384483 86.1282759,98.1212069 86.1282759,98.2867241 L86.1282759,107.145345 C86.1282759,107.25569 86.0731034,107.319483 85.9644828,107.338448 C85.8851724,107.353966 85.8006897,107.366034 85.7110345,107.376379 C85.6213793,107.388448 85.5351724,107.397069 85.4524138,107.403966 C85.3696552,107.410862 85.2937931,107.416034 85.2248276,107.419483 C85.1558621,107.421207 85.1024138,107.422931 85.0662069,107.422931 C84.9558621,107.422931 84.8989655,107.36431 84.8989655,107.248793 L84.8989655,99.3643103 C84.8989655,99.1194828 84.8610345,98.9539655 84.7817241,98.8625862 C84.7041379,98.772931 84.5748276,98.7281034 84.3955172,98.7281034 C84.3093103,98.7281034 84.2144828,98.7367241 84.1127586,98.7487931 L84.0713793,98.4177586 Z" id="Fill-25" fill="#231815"></path>
                <path d="M91.297931,104.88069 C91.0806897,104.894483 90.8789655,104.908276 90.6893103,104.918621 C90.5013793,104.93069 90.3289655,104.947931 90.172069,104.970345 C90.0151724,104.992759 89.8772414,105.028966 89.7565517,105.077241 C89.6375862,105.125517 89.5410345,105.194483 89.4668966,105.28069 C89.4117241,105.346207 89.3668966,105.425517 89.3289655,105.523793 C89.2927586,105.620345 89.2737931,105.725517 89.2737931,105.841034 C89.2737931,105.937586 89.2893103,106.035862 89.3203448,106.137586 C89.347931,106.23931 89.4013793,106.332414 89.4772414,106.416897 C89.5531034,106.501379 89.6565517,106.572069 89.7841379,106.627241 C89.9134483,106.682414 90.0772414,106.71 90.2755172,106.71 C90.3031034,106.71 90.347931,106.706552 90.41,106.696207 C90.472069,106.687586 90.547931,106.673793 90.6375862,106.651379 C90.7272414,106.632414 90.8272414,106.603103 90.9375862,106.565172 C91.047931,106.528966 91.1617241,106.482414 91.2755172,106.427241 L91.297931,104.88069 Z M88.4393103,102.699655 C88.6772414,102.603103 88.9134483,102.516897 89.1462069,102.442759 C89.3789655,102.370345 89.597931,102.308276 89.8031034,102.26 C90.0065517,102.211724 90.1927586,102.175517 90.3617241,102.149655 C90.5306897,102.123793 90.6686207,102.111724 90.7789655,102.111724 C91.1117241,102.111724 91.3893103,102.149655 91.6151724,102.225517 C91.8393103,102.301379 92.022069,102.422069 92.16,102.587586 C92.297931,102.754828 92.397931,102.965172 92.4582759,103.220345 C92.5168966,103.475517 92.5444828,103.782414 92.5410345,104.142759 L92.5048276,106.392759 C92.5013793,106.535862 92.51,106.670345 92.5341379,106.792759 C92.5565517,106.918621 92.5806897,107.03931 92.61,107.16 C92.6134483,107.163448 92.6168966,107.182414 92.6168966,107.215172 C92.6168966,107.284138 92.5703448,107.325517 92.4772414,107.33931 C92.4168966,107.353103 92.3496552,107.365172 92.2737931,107.377241 C92.197931,107.38931 92.1203448,107.397931 92.0444828,107.404828 C91.9651724,107.411724 91.8875862,107.416897 91.8082759,107.418621 C91.7306897,107.420345 91.6617241,107.422069 91.6013793,107.422069 C91.5496552,107.422069 91.5117241,107.408276 91.4858621,107.38069 C91.4617241,107.353103 91.4427586,107.311724 91.4289655,107.256552 L91.3375862,106.925517 C91.1634483,107.003103 90.9841379,107.075517 90.7996552,107.141034 C90.6168966,107.21 90.4393103,107.266897 90.272069,107.315172 C90.1048276,107.363448 89.9513793,107.401379 89.8134483,107.428966 C89.6755172,107.456552 89.5617241,107.470345 89.4737931,107.470345 C89.2306897,107.470345 89.0186207,107.425517 88.8393103,107.335862 C88.66,107.246207 88.5134483,107.134138 88.3962069,106.996207 C88.2824138,106.861724 88.1962069,106.711724 88.1410345,106.547931 C88.0875862,106.385862 88.0582759,106.23069 88.0582759,106.082414 C88.0582759,105.820345 88.1048276,105.597931 88.1996552,105.416897 C88.2944828,105.234138 88.422069,105.084138 88.5841379,104.963448 C88.7272414,104.858276 88.8927586,104.770345 89.0841379,104.701379 C89.2755172,104.632414 89.4858621,104.578966 89.7151724,104.53931 C89.9462069,104.499655 90.1944828,104.472069 90.4617241,104.453103 C90.7289655,104.434138 91.01,104.420345 91.3048276,104.411724 L91.3117241,104.177241 C91.3151724,103.965172 91.3031034,103.775517 91.272069,103.606552 C91.2427586,103.43931 91.1893103,103.296207 91.1117241,103.182414 C91.0324138,103.066897 90.9255172,102.978966 90.7927586,102.920345 C90.66,102.86 90.4910345,102.83069 90.2893103,102.83069 C90.0410345,102.83069 89.7806897,102.858276 89.5134483,102.913448 C89.2444828,102.968621 88.9358621,103.051379 88.5910345,103.161724 L88.4393103,102.699655 Z" id="Fill-27" fill="#231815"></path>
                <path d="M97.8391379,103.803966 C97.7891379,103.633276 97.7374138,103.478103 97.6874138,103.340172 C97.6374138,103.202241 97.5718966,103.085 97.4908621,102.985 C97.4098276,102.886724 97.3063793,102.810862 97.1822414,102.757414 C97.0598276,102.703966 96.8994828,102.678103 96.7063793,102.678103 C96.5856897,102.678103 96.4667241,102.690172 96.3477586,102.712586 C96.227069,102.735 96.1201724,102.772931 96.0218966,102.822931 C95.927069,102.872931 95.8494828,102.940172 95.7891379,103.022931 C95.727069,103.10569 95.6994828,103.209138 95.6994828,103.333276 C95.6994828,103.459138 95.7322414,103.566034 95.8012069,103.659138 C95.8701724,103.750517 95.9632759,103.833276 96.0787931,103.903966 C96.1943103,103.976379 96.327069,104.041897 96.4787931,104.100517 C96.6305172,104.160862 96.7874138,104.221207 96.9477586,104.279828 C97.1425862,104.348793 97.3322414,104.428103 97.5201724,104.516034 C97.7098276,104.602241 97.8787931,104.70569 98.0287931,104.826379 C98.1787931,104.945345 98.3012069,105.086724 98.3943103,105.250517 C98.4891379,105.41431 98.5356897,105.607414 98.5356897,105.833276 C98.5356897,106.124655 98.4615517,106.372931 98.3115517,106.579828 C98.1615517,106.786724 97.9701724,106.95569 97.7356897,107.086724 C97.5012069,107.217759 97.2408621,107.31431 96.9581034,107.376379 C96.6753448,107.438448 96.4012069,107.469483 96.1339655,107.469483 C95.9718966,107.469483 95.7908621,107.453966 95.5874138,107.419483 C95.3856897,107.385 95.1960345,107.328103 95.0184483,107.248793 C94.8425862,107.171207 94.6925862,107.067759 94.5718966,106.938448 C94.452931,106.809138 94.3943103,106.650517 94.3943103,106.462586 C94.3943103,106.236724 94.4701724,106.072931 94.6218966,105.971207 C94.7736207,105.871207 94.9667241,105.819483 95.2012069,105.819483 C95.252931,105.819483 95.2943103,105.821207 95.3322414,105.822931 C95.3684483,105.826379 95.4132759,105.831552 95.4632759,105.840172 L95.4632759,105.957414 C95.4632759,106.262586 95.5356897,106.495345 95.6805172,106.659138 C95.827069,106.821207 96.0667241,106.903966 96.402931,106.903966 C96.527069,106.903966 96.6460345,106.890172 96.7581034,106.862586 C96.8718966,106.835 96.9701724,106.793621 97.0563793,106.738448 C97.1408621,106.683276 97.2098276,106.612586 97.2632759,106.528103 C97.315,106.441897 97.3425862,106.341897 97.3425862,106.228103 C97.3425862,106.085 97.3063793,105.96431 97.2339655,105.86431 C97.1632759,105.766034 97.0701724,105.678103 96.9512069,105.602241 C96.8339655,105.526379 96.6994828,105.459138 96.5477586,105.398793 C96.3960345,105.338448 96.2391379,105.276379 96.0787931,105.212586 C95.8891379,105.143621 95.7012069,105.067759 95.5115517,104.985 C95.3236207,104.902241 95.152931,104.802241 95.0063793,104.685 C94.8563793,104.566034 94.7322414,104.424655 94.6391379,104.259138 C94.5443103,104.093621 94.4977586,103.893621 94.4977586,103.659138 C94.4977586,103.372931 94.5718966,103.133276 94.7201724,102.936724 C94.8701724,102.741897 95.0598276,102.581552 95.2891379,102.460862 C95.515,102.338448 95.7632759,102.252241 96.0305172,102.198793 C96.2960345,102.145345 96.5477586,102.119483 96.7839655,102.119483 C97.0098276,102.119483 97.227069,102.133276 97.4391379,102.160862 C97.6512069,102.188448 97.8598276,102.233276 98.0667241,102.298793 C98.102931,102.307414 98.1218966,102.326379 98.1218966,102.353966 C98.1322414,102.431552 98.1391379,102.540172 98.1477586,102.674655 C98.1546552,102.810862 98.1598276,102.950517 98.165,103.091897 C98.1667241,103.235 98.1718966,103.369483 98.1736207,103.497069 C98.1753448,103.622931 98.177069,103.716034 98.177069,103.776379 L97.8391379,103.803966 Z" id="Fill-29" fill="#231815"></path>
                <path d="M82.667069,75.0012069 C82.7618966,75.0201724 82.8808621,75.2563793 82.9601724,75.0839655 C83.0084483,75.1218966 83.0101724,75.2115517 83.0946552,75.2063793 C82.9998276,75.3512069 82.892931,75.1632759 82.742931,75.2546552 C82.7256897,75.1718966 82.6412069,75.1632759 82.6377586,75.0667241 C82.6687931,75.065 82.6601724,75.027069 82.667069,75.0012069" id="Fill-31" fill="#231815"></path>
                <path d="M86.3615517,81.3322414 C86.4477586,81.327069 86.5339655,81.3236207 86.6184483,81.3201724 C86.6098276,81.4891379 86.8184483,81.4167241 86.7908621,81.6012069 C86.5943103,81.6632759 86.402931,81.5425862 86.3615517,81.3322414" id="Fill-33" fill="#231815"></path>
                <path d="M77.5031034,83.1793103 C77.5686207,83.2206897 77.522069,83.4206897 77.4168966,83.4086207 C77.4203448,83.3706897 77.4082759,83.3517241 77.3824138,83.3448276 C77.4289655,83.2948276 77.5237931,83.2896552 77.5031034,83.1793103" id="Fill-35" fill="#231815"></path>
                <path d="M76.63,85.92 C76.6817241,85.9510345 76.6368966,86.1510345 76.5437931,86.1510345 C76.5317241,86.0337931 76.6282759,86.0217241 76.63,85.92" id="Fill-37" fill="#231815"></path>
                <path d="M76.4593103,86.4108621 C76.4368966,86.4712069 76.4127586,86.5315517 76.4041379,86.6074138 C76.3334483,86.5798276 76.3489655,86.3746552 76.4593103,86.4108621" id="Fill-39" fill="#231815"></path>
                <path d="M81.5944828,90.4239655 C81.6393103,90.3532759 81.6737931,90.4446552 81.7531034,90.3860345 C81.7427586,90.4394828 81.7806897,90.4446552 81.8203448,90.4463793 C81.7789655,90.5308621 81.6531034,90.4308621 81.5944828,90.4239655" id="Fill-41" fill="#231815"></path>
                <g id="Group-45" transform="translate(72.413793, 59.194483)">
                    <mask id="mask-6" fill="white">
                        <use xlink:href="#path-5"></use>
                    </mask>
                    <g id="Clip-44"></g>
                    <path d="M3.40827586,26.6344828 C3.48931034,26.4827586 3.57724138,26.3362069 3.67896552,26.2051724 C3.43068966,26.0775862 3.19793103,26.5396552 3.40827586,26.6344828 M2.61344828,26.1224138 C2.72724138,26.1241379 2.74793103,26.0413793 2.79965517,25.9862069 C2.77034483,25.9568966 2.59275862,25.9275862 2.57551724,25.9965517 C2.6237931,26 2.60827586,26.0724138 2.61344828,26.1224138 M3.47551724,25.987931 C3.54103448,25.9948276 3.56344828,26.0482759 3.60827586,26.0775862 C3.62034483,26.0172414 3.6737931,25.9948276 3.66517241,25.9155172 C3.59965517,25.9086207 3.59793103,25.8310345 3.53413793,25.8241379 C3.46517241,25.9017241 3.50827586,25.912069 3.47551724,25.987931 M4.0237931,24.5793103 C4.12724138,24.562069 4.09448276,24.4189655 4.10827586,24.3189655 C3.9462069,24.3275862 4.07206897,24.5327586 4.0237931,24.5793103 M5.24448276,22.4344828 C5.20137931,22.5327586 5.26172414,22.5586207 5.22206897,22.6275862 C5.3462069,22.6086207 5.33413793,22.587931 5.41517241,22.6517241 C5.48068966,22.5982759 5.48241379,22.487931 5.46689655,22.3586207 C5.36689655,22.3603448 5.38068966,22.4655172 5.24448276,22.4344828 M6.34103448,19.6189655 C6.20482759,19.5793103 6.18068966,19.7982759 6.25482759,19.8482759 C6.38931034,19.8103448 6.40310345,19.5465517 6.30655172,19.587931 C6.32551724,19.5896552 6.3462069,19.5896552 6.34103448,19.6189655 M6.29275862,19.2655172 C6.34448276,19.2896552 6.34448276,19.3672414 6.42551724,19.3568966 C6.48758621,19.2241379 6.45310345,19.1948276 6.4737931,19.0327586 C6.44275862,19.0344828 6.41172414,19.0362069 6.37896552,19.037931 C6.38931034,19.15 6.30655172,19.1775862 6.29275862,19.2655172 M4.52206897,4.29310345 C4.48068966,4.29655172 4.48068966,4.33793103 4.42724138,4.32931034 C4.45310345,4.44655172 4.54448276,4.49310345 4.66,4.51206897 C4.77551724,4.34655172 4.60655172,4.22068966 4.48931034,4.2637931 C4.50827586,4.2637931 4.52551724,4.26551724 4.52206897,4.29310345 M15.0444828,2.98103448 C15.047931,3.03448276 15.0496552,3.08965517 15.0513793,3.14310345 C14.947931,3.11034483 14.9772414,3.19655172 14.9255172,3.21206897 C14.9255172,3.15689655 14.897931,3.13103448 14.8582759,3.11896552 C14.8634483,3.17586207 14.8289655,3.19655172 14.7651724,3.18793103 C14.91,3.48103448 15.3306897,3.40517241 15.672069,3.33965517 C15.5772414,3.09482759 15.1893103,3.17068966 15.0444828,2.98103448 M15.8910345,3.2 C15.8617241,3.0137931 15.5893103,3.00517241 15.4703448,3.12413793 C15.5824138,3.17931034 15.7013793,3.22758621 15.8910345,3.2 M16.3996552,2.34137931 C16.297931,2.27413793 16.1082759,1.95517241 16.0065517,2.19827586 C16.1841379,2.31896552 16.4237931,2.54827586 16.7237931,2.42413793 C16.672069,2.33448276 16.5531034,2.32068966 16.3996552,2.34137931 M15.6082759,2.6362069 C15.7806897,2.81206897 16.2462069,2.81206897 16.5117241,2.68965517 C16.3841379,2.50344828 16.0772414,2.51551724 15.9496552,2.32931034 C15.8651724,2.27586207 15.9289655,2.05862069 15.8065517,2.04655172 C15.747931,2.26206897 15.5117241,2.3637931 15.6082759,2.6362069 M22.8858621,7.83793103 C22.7996552,7.8 22.8013793,7.66206897 22.747931,7.58793103 C22.8289655,7.57068966 22.8358621,7.48275862 22.8686207,7.42068966 C22.8134483,7.41034483 22.7893103,7.47241379 22.7737931,7.42586207 C22.8841379,6.92241379 22.6703448,6.57931034 22.6151724,6.08103448 C22.4651724,5.95 22.1755172,5.75 22.0168966,5.65689655 C20.7772414,4.9362069 19.2686207,4.12758621 17.8134483,3.72586207 C17.5444828,3.65172414 17.1996552,3.47931034 16.9324138,3.47413793 C16.7393103,3.47413793 16.5496552,3.6 16.3289655,3.63275862 C15.8306897,3.69827586 15.3082759,3.72241379 14.9393103,3.46896552 C14.8513793,3.51034483 14.772069,3.5137931 14.6806897,3.48103448 C14.6013793,3.34310345 15.8824138,3.18965517 14.7651724,3.18793103 C14.7496552,3.26724138 12.1289655,4.19482759 12.0772414,4.24137931 C11.2375862,4.57068966 10.5134483,5.00689655 9.85137931,5.5 C9.11172414,5.81896552 8.45310345,6.21206897 7.67724138,6.5 C7.62034483,6.58103448 7.58758621,6.68448276 7.49448276,6.73275862 C7.32206897,7.76896552 7.27206897,8.76896552 7.27724138,9.76551724 C7.68931034,9.65517241 8.13758621,9.66896552 8.58586207,9.54655172 C8.68241379,9.31551724 8.48931034,9.11724138 8.52896552,8.96896552 C8.57896552,9.10689655 8.6462069,9.22413793 8.70655172,9.34655172 C8.79275862,9.34310345 8.87724138,9.33965517 8.96344828,9.3362069 C9.02896552,9.11551724 8.88413793,8.88103448 8.84103448,8.76206897 C9.02034483,8.95862069 9.18068966,9.17758621 9.34965517,9.38275862 C9.55137931,9.34310345 9.65655172,9.40689655 9.80482759,9.42586207 C9.90655172,9.43793103 9.87206897,9.32586207 9.99448276,9.35344828 C10.6703448,9.44310345 11.4151724,9.5862069 12.1013793,9.70862069 C13.0065517,9.73965517 13.772069,9.80344828 14.6789655,9.81724138 C15.2031034,9.82586207 15.5444828,9.99655172 16.0393103,10.0137931 C16.1582759,10.0172414 16.2651724,9.99310345 16.3910345,9.99655172 C17.4237931,10.0189655 19.1151724,10.4534483 19.797931,9.93965517 C19.8806897,9.99310345 19.8237931,9.99137931 19.8686207,10.0655172 C21.0513793,9.96551724 21.7737931,9.87758621 22.647931,9.65 C22.5617241,9.43103448 22.7306897,9.28275862 22.8168966,9.12758621 C22.7531034,8.79655172 22.8531034,8.35 22.8031034,8.13103448 C22.8065517,8.16551724 22.7927586,8.2137931 22.7737931,8.16551724 C22.7737931,8.10689655 22.7617241,8.06551724 22.7358621,8.03793103 C22.8048276,8.0137931 22.8427586,8.12413793 22.8306897,8.00172414 C22.8358621,7.9 22.7427586,8.08793103 22.7324138,7.97413793 C22.8186207,7.96034483 22.8013793,7.85344828 22.8858621,7.83793103 M5.33758621,23.0724138 C5.12724138,23.1258621 4.9737931,23.2327586 4.73586207,23.2603448 C4.8237931,23.3224138 5.03413793,23.25 5.09275862,23.3413793 C5.07896552,23.4689655 4.87724138,23.4586207 4.77551724,23.4206897 C4.70482759,23.4172414 4.76517241,23.5362069 4.74965517,23.5827586 C4.93241379,23.5482759 4.92034483,23.8793103 5.05137931,23.8258621 C5.09965517,23.9431034 4.8237931,23.9241379 4.7737931,24.0965517 C4.77206897,24.1655172 4.88758621,24.1051724 4.93413793,24.1206897 C4.68931034,24.2517241 4.50310345,24.4913793 4.63931034,24.6810345 C4.48758621,24.8086207 4.50655172,25.0931034 4.30827586,25.1793103 C4.12034483,25.1689655 4.13586207,25.0034483 3.91862069,25.0982759 C3.92896552,25.2344828 3.85655172,25.2655172 3.80482759,25.4586207 C3.95137931,25.4103448 4.31862069,25.2775862 4.51517241,25.4913793 C4.55482759,25.4431034 4.67206897,25.4706897 4.67034483,25.387931 C4.74275862,25.4344828 4.57896552,25.5275862 4.61862069,25.6465517 C4.54275862,25.6396552 4.54103448,25.5517241 4.48413793,25.5241379 C4.16689655,25.7517241 3.99965517,26.3603448 3.95482759,26.6413793 C4.02724138,26.6655172 4.19965517,26.5172414 4.30137931,26.4655172 C4.38413793,26.5034483 4.26172414,26.6103448 4.27896552,26.6913793 C4.10827586,26.6862069 3.74793103,26.8103448 3.87034483,26.8706897 C3.98586207,26.9189655 3.79275862,26.9741379 3.80482759,26.8724138 C3.70137931,26.9948276 3.71862069,27.2258621 3.50137931,27.2413793 C3.47724138,27.3327586 3.54965517,27.3224138 3.53931034,27.4 C3.47551724,27.4034483 3.41172414,27.4068966 3.34793103,27.4086207 C3.38413793,27.2275862 3.45137931,27.0741379 3.58586207,26.9793103 C3.51517241,26.9224138 3.34793103,26.9689655 3.29275862,26.8965517 C3.13241379,27.0086207 3.00655172,27.1482759 2.85827586,27.2706897 C2.98931034,27.3758621 2.76689655,27.5982759 2.90827586,27.6862069 C3.04793103,27.7724138 3.21,27.4775862 3.41344828,27.4706897 C3.32206897,27.5327586 3.37724138,27.5827586 3.48068966,27.5310345 C3.40310345,27.7482759 3.23241379,27.9275862 2.86172414,28.0741379 C2.94965517,27.9637931 2.51862069,28.0862069 2.56172414,27.8293103 C2.47551724,28.2224138 1.21517241,27.8275862 1.08241379,28.5396552 C0.554827586,28.3465517 0.420344828,29.0258621 0.0444827586,29.0706897 C0.0548275862,28.9655172 0.161724138,28.9517241 0.163448276,28.8396552 C0.156551724,28.7810345 0.0531034483,28.8241379 0.0306896552,28.7810345 C0.0168965517,28.5137931 0.354827586,28.2137931 0.549655172,28.1448276 C0.504827586,27.912069 0.503103448,27.7672414 0.689310345,27.6896552 C0.661724138,27.7551724 0.587586207,27.8034483 0.573793103,27.9517241 C0.761724138,27.837931 0.839310345,27.6206897 0.935862069,27.4206897 C0.866896552,27.3517241 0.780689655,27.3 0.641034483,27.3051724 C0.944482759,26.4206897 1.10655172,25.587931 1.32551724,24.6706897 C1.33931034,24.5965517 1.26344828,24.6275862 1.25655172,24.5758621 C1.26517241,24.4913793 1.43413793,24.5293103 1.3737931,24.3137931 C1.3462069,24.337931 1.32896552,24.3741379 1.31517241,24.4137931 C1.23758621,24.2586207 1.38586207,24.0482759 1.48586207,23.9551724 C1.46172414,23.7827586 1.40310345,23.7827586 1.28413793,23.7706897 C1.48413793,23.5517241 1.57724138,23.237931 1.63068966,22.8862069 C1.40482759,22.7275862 1.68586207,22.2534483 1.88586207,22.1034483 C1.90827586,22.012069 1.83586207,22.0224138 1.8462069,21.9448276 C2.24275862,21.8931034 1.84275862,21.3568966 2.23758621,21.3482759 C2.16689655,21.2344828 2.2237931,21.1568966 2.25482759,21.0568966 C2.2462069,21.0155172 2.15827586,21.0189655 2.16,21.062069 C2.08758621,21.0844828 2.24275862,20.8362069 2.22034483,20.9948276 C2.29965517,20.5810345 2.39965517,20.0327586 2.6462069,19.7206897 C2.60137931,19.4310345 2.69103448,19.3413793 2.55482759,19.1137931 C2.61,19.0827586 2.64275862,19.0086207 2.71344828,19.0758621 C2.74275862,18.9310345 2.65137931,18.9172414 2.63758621,18.8206897 C2.93241379,18.1224138 2.88413793,17.1965517 3.07034483,16.2913793 C2.94965517,15.8310345 2.7962069,15.1103448 2.96344828,14.6568966 C2.96689655,14.562069 2.89793103,14.5482759 2.86172414,14.5 C2.66862069,13.2137931 2.92724138,11.9586207 3.00482759,10.6017241 C3.01172414,10.4793103 2.93068966,10.1155172 3.05137931,10.1810345 C2.98931034,10.062069 2.9962069,9.59137931 3.04448276,9.34655172 C3.06172414,9.27068966 3.13241379,9.23103448 3.13413793,9.18103448 C3.14103448,9.0637931 3.07551724,9.01551724 3.15137931,8.85862069 C3.12551724,8.91206897 3.39793103,8.81551724 3.24275862,8.69310345 C3.19965517,8.74827586 3.15482759,8.8 3.12034483,8.86034483 C2.99793103,8.25344828 3.10482759,7.16206897 2.76517241,6.68793103 C2.48413793,6.73103448 2.48931034,6.42586207 2.48413793,6.18793103 C2.57034483,6.18275862 2.65655172,6.17931034 2.74275862,6.17413793 C2.88241379,6.05862069 2.77896552,5.71724138 3.04103448,5.71206897 C2.90827586,5.4637931 3.19275862,5.07413793 2.97551724,4.94310345 C3.02724138,4.75689655 3.1237931,4.49137931 2.91862069,4.39827586 C3.08241379,4.26034483 3.30482759,4.17758621 3.31344828,3.89827586 C3.66689655,4.0637931 4.23931034,3.4862069 4.53758621,3.93965517 C4.66172414,3.88793103 4.75655172,3.80862069 4.91689655,3.79310345 C4.96,3.5137931 4.70310345,3.34482759 4.69275862,3.09482759 C4.94103448,3.14137931 5.0462069,3.62586207 5.30137931,3.77586207 C5.44965517,3.76724138 5.55655172,3.72068966 5.65137931,3.6637931 C5.5962069,3.4362069 5.76862069,3.32931034 5.69103448,3.11551724 C5.76,3.18275862 5.79448276,3.08103448 5.85310345,3.13965517 C5.76172414,3.0637931 5.91344828,2.91724138 5.77724138,2.91724138 C5.8237931,2.82931034 6.16517241,2.68448276 6.18586207,2.67413793 C6.39965517,2.55517241 6.41172414,3.08275862 6.67896552,2.91034483 C6.68413793,2.96034483 6.66862069,3.03275862 6.71689655,3.0362069 C6.6237931,3.10344828 6.4737931,3.12413793 6.50482759,3.30344828 C6.51862069,3.35 6.54275862,3.28965517 6.59965517,3.29827586 C6.59103448,3.40344828 6.47034483,3.40862069 6.44793103,3.49827586 C6.59793103,3.54310345 6.89965517,3.46206897 6.98758621,3.34482759 C7.60310345,3.24827586 8.67034483,2.9 9.53586207,2.78103448 C10.0134483,2.7137931 10.3824138,2.63448276 10.6755172,2.37586207 C10.8393103,2.21724138 14.5427586,0.662068966 15.5048276,0.95 C17.1306897,1.23793103 16.2117241,1.04137931 17.1306897,1.23793103 C17.3203448,1.32931034 17.6944828,1.5637931 17.8703448,1.43965517 C19.0168966,1.61206897 20.0306897,1.9362069 21.0013793,2.42413793 C21.247931,2.54655172 21.497931,2.63793103 21.7910345,2.77413793 C22.26,2.99137931 22.6427586,3.29310345 23.1427586,3.51551724 C23.5341379,3.69137931 23.9703448,4.04137931 24.3289655,4.13793103 C24.8358621,4.27586207 25.2531034,4.31551724 25.5789655,4.75689655 C26.0203448,4.96896552 26.4858621,5.33448276 26.622069,5.77241379 C26.7565517,5.89137931 26.9375862,6.07931034 26.9358621,6.30344828 C26.9324138,6.47068966 26.7841379,6.66896552 26.8013793,6.92241379 C26.8444828,7.55517241 26.8737931,8.20862069 26.7617241,8.88448276 C26.7358621,8.85862069 26.6737931,8.87068966 26.6634483,8.82586207 C26.4513793,9.00517241 26.6324138,9.38965517 26.4772414,9.67068966 C26.4651724,9.68793103 26.3875862,9.69482759 26.3806897,9.70689655 C26.2962069,9.92068966 26.3151724,10.1155172 26.1513793,10.2965517 C26.0806897,10.3724138 25.9617241,10.362069 25.9341379,10.4982759 C25.9341379,10.6 25.9427586,10.6931034 26.01,10.7206897 C25.9272414,10.9344828 25.6772414,10.9913793 25.5806897,11.1896552 C25.4341379,11.1517241 25.41,11.1896552 25.3255172,11.2655172 C24.5272414,11.3310345 23.7324138,11.5241379 22.8634483,11.5706897 C22.3324138,11.5982759 21.7944828,11.7189655 21.297931,11.8017241 C21.2962069,11.7689655 21.2944828,11.737931 21.2944828,11.7051724 C20.66,11.8275862 19.7686207,11.5413793 19.2117241,11.9293103 C18.9858621,11.9103448 18.6789655,11.8568966 18.4393103,11.9 C18.3186207,11.9189655 18.222069,12.012069 18.0910345,12.0431034 C17.2617241,12.237931 16.2203448,11.862069 15.4255172,12.1 C15.3824138,12.112069 15.4031034,12.1810345 15.3996552,12.2293103 C15.2686207,12.2706897 15.1117241,12.2672414 15.0134483,12.2465517 C14.8944828,12.2775862 15.0151724,12.3586207 14.9565517,12.4103448 C14.6048276,12.3948276 14.1944828,12.2896552 13.8910345,12.3293103 C13.897931,12.2637931 13.9755172,12.2637931 13.9806897,12.1965517 C13.5031034,12.1362069 12.9031034,12.0862069 12.497931,12.1344828 C12.4893103,12.2362069 12.572069,12.2344828 12.6634483,12.2241379 C12.0324138,12.3827586 11.3910345,11.8775862 10.86,12.1775862 C10.4134483,12.1068966 10.0341379,12.2051724 9.73068966,12.0672414 C9.26172414,12.2706897 7.96172414,11.9310345 7.60482759,12.0017241 C7.33758621,12.0568966 7.31,12.3258621 7.14103448,12.4413793 C7.09103448,12.7551724 7.10310345,13.1224138 6.99103448,13.3810345 C6.97724138,13.4517241 7.05482759,13.4241379 7.06,13.4741379 C6.82206897,14.2637931 7.01517241,15.2706897 7.20482759,15.9758621 C6.97896552,16.1448276 7.05310345,16.6637931 7.08586207,16.9155172 C6.98586207,17.0689655 7.01344828,17.3396552 6.91862069,17.5017241 C6.98413793,17.6137931 6.89965517,17.7172414 6.96517241,17.7896552 C6.73413793,18.062069 6.86,18.4706897 6.58931034,18.7068966 C6.56862069,18.8068966 6.67896552,18.7637931 6.66,18.8637931 C6.45137931,19.4017241 6.43758621,20.0637931 6.19448276,20.6534483 C6.11517241,20.5810345 6.03586207,20.6672414 5.93758621,20.6672414 C5.97551724,20.9982759 5.8237931,21.1568966 5.77724138,21.412069 C5.81517241,21.5017241 5.91517241,21.3982759 5.97034483,21.4034483 C5.86862069,21.6706897 5.85827586,22.0206897 5.61862069,22.1586207 C5.71862069,22.4741379 5.39793103,22.9172414 5.38241379,23.3275862 C5.30827586,23.2431034 5.41172414,23.1396552 5.33758621,23.0724138" id="Fill-43" fill="#231815" mask="url(#mask-6)"></path>
                </g>
                <path d="M81.5675862,91.9696552 C81.5882759,92.0248276 81.59,92.1024138 81.6382759,92.1282759 C81.6693103,92.0627586 81.7917241,92.2196552 81.8296552,92.0868966 C81.7382759,92.0386207 81.8675862,91.9403448 81.8193103,91.83 C81.6589655,91.8075862 81.702069,91.9696552 81.5675862,91.9696552 M81.7727586,91.542069 C81.8762069,91.5575862 81.7537931,91.642069 81.8158621,91.7972414 C81.8486207,91.7955172 81.8813793,91.7955172 81.9124138,91.7937931 C81.8106897,91.6213793 81.9917241,91.4782759 81.8641379,91.4093103 C81.8331034,91.4541379 81.7796552,91.4765517 81.7727586,91.542069 M88.7003448,82.5437931 C88.7744828,82.5506897 88.8227586,82.5334483 88.8589655,82.5058621 C88.8486207,82.3834483 88.8037931,82.2972414 88.6882759,82.2886207 C88.6986207,82.3868966 88.6210345,82.4731034 88.7003448,82.5437931 M87.3468966,81.7696552 C87.4037931,81.6662069 87.3813793,81.4093103 87.2658621,81.3886207 C87.3693103,81.5041379 87.2675862,81.6368966 87.3468966,81.7696552 M87.4917241,81.4093103 C87.5106897,81.2748276 87.2210345,81.3024138 87.1986207,81.3265517 C87.29,81.3593103 87.3865517,81.3903448 87.4917241,81.4093103 M86.8796552,79.2817241 C86.9968966,79.2851724 87.102069,79.28 87.0675862,79.1455172 C86.9796552,79.167931 86.9210345,79.2144828 86.8796552,79.2817241 M83.6348276,79.3317241 C83.7331034,79.3282759 83.8658621,79.1989655 83.7865517,79.1317241 C83.7917241,79.2506897 83.5986207,79.1886207 83.6348276,79.3317241 M87.1262069,79.0127586 C87.2262069,79.0248276 87.2675862,78.9782759 87.2486207,78.88 C87.2158621,78.88 87.1848276,78.8817241 87.152069,78.8834483 C87.1624138,78.9437931 87.1193103,78.9558621 87.1262069,79.0127586 M90.0537931,79.042069 C89.8572414,78.4817241 89.3210345,78.2955172 88.9744828,77.9006897 C88.9417241,77.9024138 88.9089655,77.9024138 88.8762069,77.9058621 C88.527931,78.5093103 87.9382759,78.892069 87.4641379,79.3834483 C87.4417241,79.2093103 87.2503448,79.3627586 87.1089655,79.3351724 C87.2641379,79.467931 87.5365517,79.4765517 87.7572414,79.4989655 C88.6641379,79.5955172 89.4917241,79.5506897 90.3348276,79.5437931 C90.4158621,79.2834483 90.1641379,79.1972414 90.0537931,79.042069 M83.2313793,75.3955172 C83.2348276,75.2989655 83.3572414,75.517931 83.3917241,75.3868966 C83.352069,75.3748276 83.3244828,75.3472414 83.3227586,75.292069 C83.2589655,75.28 83.1641379,75.3868966 83.2313793,75.3955172 M95.9486207,74.2403448 C95.8813793,74.3110345 95.7934483,74.3662069 95.7658621,74.4748276 C95.6865517,74.4817241 95.6313793,74.4627586 95.602069,74.4162069 C95.44,74.68 95.0158621,74.7024138 94.8210345,74.9351724 C94.3331034,74.8834483 94.0693103,74.6851724 93.6331034,74.9558621 C92.7348276,74.8696552 91.7762069,75.1782759 90.7934483,75.4386207 C91.1606897,75.9213793 91.7072414,76.2110345 91.9796552,76.7989655 C92.1175862,76.8731034 92.1468966,77.0644828 92.3158621,77.1058621 C92.302069,77.3213793 92.4434483,77.3696552 92.5555172,77.4489655 C92.777931,77.8006897 93.0124138,78.1386207 93.1848276,78.5472414 C93.4848276,78.9006897 93.6693103,79.3868966 94.0072414,79.6989655 C93.9417241,79.9058621 94.0537931,80.0351724 94.127931,80.2403448 C93.8537931,80.542069 93.2434483,80.4937931 93.2296552,80.9886207 C92.2710345,81.392069 90.6313793,81.6903448 89.2968966,81.4886207 C89.3589655,81.8006897 89.5693103,81.7989655 89.6434483,82.0524138 C89.7210345,82.1334483 89.7262069,81.9627586 89.8037931,82.0437931 C89.9003448,82.1403448 89.9589655,82.4265517 89.8917241,82.5886207 C90.2175862,82.6868966 90.4658621,82.33 90.8468966,82.3506897 C90.9537931,82.3575862 91.0382759,82.4748276 91.1417241,82.4989655 C91.2124138,82.5144828 91.4831034,82.5162069 91.4968966,82.5144828 C91.6348276,82.5058621 91.8710345,82.4627586 91.9072414,82.3351724 C92.0313793,82.3972414 92.1727586,82.442069 92.2675862,82.4489655 C92.2124138,82.3351724 92.502069,82.3868966 92.4486207,82.1834483 C92.8262069,82.2731034 93.1313793,82.4437931 93.5244828,82.5196552 C93.5106897,82.7817241 93.677931,82.8455172 93.8934483,82.8575862 C93.9503448,82.917931 93.8934483,82.8972414 93.8986207,82.9851724 C94.04,82.9627586 94.0606897,83.0231034 94.1555172,82.9731034 C94.1141379,83.0593103 94.0555172,83.0782759 94.1917241,83.0351724 C94.1227586,83.3110345 94.427931,83.2110345 94.4313793,83.38 C94.3658621,83.3662069 94.34,83.4075862 94.2089655,83.4541379 C94.2382759,83.5834483 94.4555172,83.5575862 94.5037931,83.5696552 C94.6175862,83.642069 94.3434483,83.7041379 94.4503448,83.7644828 C94.4262069,83.8593103 94.3451724,83.7506897 94.2882759,83.7713793 C94.4468966,83.9403448 93.7968966,83.8403448 93.7865517,84.0524138 C94.04,84.1058621 94.2813793,83.8265517 94.4865517,83.8903448 C94.3589655,84.0075862 94.402069,83.98 94.34,84.1886207 C94.0917241,84.1972414 94.0089655,84.3593103 93.802069,84.4041379 C93.7796552,84.5231034 93.8658621,84.5731034 93.8124138,84.63 C93.2124138,84.7886207 92.6831034,85.0196552 92.0331034,85.1265517 C91.9693103,85.1403448 91.9744828,85.2162069 91.9434483,85.2610345 C91.9434483,85.1231034 91.7486207,85.2110345 91.7089655,85.0472414 C91.452069,85.1006897 91.3124138,85.2144828 91.1055172,85.2351724 C90.8037931,85.6903448 89.8193103,85.6075862 89.4641379,85.9196552 C89.4193103,85.9127586 89.4348276,85.8403448 89.4262069,85.7937931 C89.1986207,86.542069 89.3831034,87.5748276 89.4158621,88.3972414 C90.1744828,88.4231034 90.5968966,87.9851724 91.2296552,87.9955172 C91.1210345,87.8282759 91.7537931,87.8489655 91.9262069,87.7386207 C91.9434483,87.8041379 91.9089655,87.8231034 91.9003448,87.867931 C91.9624138,87.7886207 92.027931,87.9058621 92.0917241,87.8282759 C92.0968966,87.742069 91.9124138,87.8644828 91.9572414,87.7368966 C92.1934483,87.6041379 92.6486207,87.8351724 92.6951724,87.6713793 C93.04,87.792069 93.5951724,87.8231034 93.9365517,88.0972414 C93.9555172,88.2282759 93.8262069,88.5144828 93.9227586,88.5162069 C93.9055172,88.7075862 93.8572414,89.0955172 93.9917241,89.3506897 C93.8848276,89.5662069 93.6037931,89.6937931 93.5331034,89.8213793 C93.4141379,90.0351724 92.9434483,90.0317241 93.1417241,90.417931 C92.8606897,90.5196552 92.8624138,90.8817241 92.4882759,90.8972414 C92.3158621,91.0386207 92.2693103,91.2937931 92.1262069,91.4610345 C92.0727586,91.4627586 92.0193103,91.4644828 91.9658621,91.467931 C91.7813793,91.6472414 91.0348276,91.6196552 90.5865517,91.53 C90.2693103,91.4662069 90.1175862,91.3989655 89.8106897,91.467931 C89.1848276,91.6110345 88.4710345,91.4334483 87.902069,91.9075862 C87.4468966,92.0437931 86.9486207,92.2834483 86.377931,92.3955172 C86.0313793,92.4627586 85.802069,92.4541379 85.4227586,92.567931 C85.14,92.6506897 84.8262069,92.842069 84.5072414,92.9627586 C84.4675862,92.8662069 84.5003448,92.7903448 84.3675862,92.7437931 C84.24,92.7610345 84.2917241,92.767931 84.1796552,92.8162069 C83.9796552,92.6851724 83.7210345,92.6213793 83.6124138,92.392069 C83.1365517,92.3989655 82.9106897,92.7472414 82.4641379,92.6041379 C82.4641379,92.5627586 82.4606897,92.5196552 82.4589655,92.4765517 C81.6848276,92.6696552 80.977931,92.2282759 81.1951724,91.567931 C81.3417241,91.4748276 81.4865517,91.3834483 81.5658621,91.23 C81.5089655,90.9782759 81.3106897,90.88 81.1262069,90.767931 C81.3589655,90.7110345 81.8986207,90.6334483 81.8796552,90.3472414 C82.2606897,90.3472414 82.3296552,90.0610345 82.4348276,89.8075862 C82.8693103,89.7162069 83.5262069,89.9196552 83.9089655,89.6765517 C84.3831034,89.5972414 84.8227586,89.9351724 84.9693103,89.6610345 C85.027931,89.567931 85.1382759,89.6972414 85.227931,89.6817241 C85.1089655,89.6144828 85.4813793,89.5748276 85.4727586,89.4127586 C85.7175862,89.442069 86.0434483,89.43 86.2141379,89.4437931 C86.4072414,88.9110345 86.4210345,88.53 86.3624138,87.7317241 C86.5210345,87.8058621 86.3727586,88.2144828 86.5158621,88.3041379 C86.6227586,87.8593103 86.4831034,87.2489655 86.5141379,86.8575862 C86.1537931,86.8731034 86.5141379,87.43 86.3882759,87.6024138 C86.2055172,87.2024138 86.24,86.5558621 86.2589655,86.1610345 C85.6486207,86.0368966 85.177931,85.7524138 84.59,85.5282759 C84.5451724,85.5386207 84.5831034,85.6248276 84.5296552,85.6282759 C84.1175862,85.6196552 84.1037931,85.2851724 83.6762069,85.2489655 C83.3313793,84.9075862 83.0193103,84.53 82.5124138,84.367931 C82.4710345,84.3593103 82.4055172,84.4662069 82.4831034,84.4662069 C82.4055172,84.5593103 82.3572414,84.3351724 82.19,84.4144828 C82.1848276,84.5006897 82.24,84.517931 82.3244828,84.5058621 C82.29,84.63 82.1917241,84.5058621 82.1037931,84.58 C82.1141379,84.4782759 82.0382759,84.4696552 82.0589655,84.3558621 C82.1313793,84.33 82.2227586,84.3196552 82.2813793,84.2817241 C82.2986207,84.1386207 82.1037931,84.23 82.0831034,84.13 C82.1951724,84.0075862 82.4227586,83.9903448 82.5865517,83.9127586 C82.6503448,83.967931 82.7210345,84.0144828 82.8468966,83.9989655 C83.0865517,83.7282759 83.5037931,83.6972414 83.8089655,83.8903448 C83.7831034,83.6162069 83.452069,83.6731034 83.4003448,83.4282759 C83.5106897,83.4817241 83.4175862,83.4317241 83.427931,83.33 C83.69,83.2886207 83.7244828,83.5006897 83.9503448,83.4989655 C83.9503448,83.4075862 83.8693103,83.4110345 83.7865517,83.4110345 C84.1365517,83.3575862 84.6831034,83.6817241 85.0934483,83.8662069 C85.552069,83.8627586 85.9537931,83.8093103 86.3089655,83.7144828 C86.4210345,83.6213793 86.4417241,83.4455172 86.5158621,83.3196552 C86.3934483,83.28 86.2968966,83.4989655 86.2055172,83.5903448 C86.2468966,83.3282759 86.9003448,82.9524138 86.4813793,82.5489655 C86.5451724,82.4541379 86.5917241,82.3403448 86.727931,82.3127586 C86.6072414,82.2541379 86.5744828,82.0989655 86.4882759,82.0006897 C86.3744828,81.9213793 86.177931,82.0265517 86.1262069,81.8248276 C86.3744828,81.8937931 86.7348276,81.7851724 86.9555172,81.6593103 C86.9348276,81.4541379 87.0589655,81.3817241 87.1641379,81.2955172 C87.1382759,81.2213793 86.8968966,81.2093103 86.8417241,81.2782759 C86.8037931,81.2731034 86.8124138,81.2196552 86.8055172,81.1834483 C86.5968966,81.2213793 86.4003448,81.2196552 86.2555172,81.1110345 C86.1365517,81.2075862 86.0175862,81.1334483 85.8089655,81.1644828 C85.8003448,81.0593103 85.6141379,81.1506897 85.64,81.0110345 C84.5555172,80.7386207 83.2244828,80.7351724 82.7537931,79.7903448 C82.7917241,79.7834483 82.777931,79.73 82.7831034,79.692069 C82.9934483,79.6282759 83.0675862,79.4403448 83.1486207,79.2575862 C83.5244828,78.9541379 83.7434483,78.5093103 84.0968966,78.1868966 C84.102069,78.067931 84.1693103,78.0041379 84.1813793,77.892069 C84.5124138,77.7437931 84.502069,77.2834483 84.9555172,77.2455172 C85.0468966,77.1282759 85.1710345,77.0058621 85.0968966,76.8213793 C84.7055172,77.0213793 84.377931,76.817931 84.1865517,76.6058621 C84.0348276,76.7282759 83.8417241,76.7162069 83.7124138,76.7886207 C83.4106897,76.5524138 83.1848276,76.2662069 82.6331034,76.3851724 C82.5951724,76.392069 82.6089655,76.4455172 82.6055172,76.4834483 C82.4365517,76.43 82.2986207,76.4868966 82.2572414,76.6282759 C81.94,76.5386207 82.1813793,76.1455172 82.2917241,75.9506897 C82.3934483,75.917931 82.34,76.0558621 82.4244828,76.0403448 C82.4934483,75.992069 82.5710345,75.9506897 82.5417241,75.8110345 C82.7124138,75.7644828 82.7831034,75.8093103 82.9917241,75.7903448 C82.977931,75.7144828 82.8382759,75.7782759 82.8572414,75.667931 C82.9486207,75.617931 83.0244828,75.7489655 83.0503448,75.6593103 C82.9882759,75.5472414 82.7934483,75.58 82.7210345,75.4817241 C82.7296552,75.4093103 82.9089655,75.4903448 82.8434483,75.3472414 C83.0037931,75.3506897 83.1331034,75.3248276 83.2244828,75.2662069 C83.1727586,74.9903448 82.9055172,74.93 82.9072414,74.6368966 C82.9813793,74.6558621 83.0727586,74.6558621 83.1348276,74.6903448 C83.2658621,74.642069 83.1968966,74.5696552 83.1865517,74.4317241 C83.3762069,74.3558621 83.3555172,74.6265517 83.4796552,74.5144828 C83.3986207,74.367931 83.2968966,74.117931 83.04,74.0196552 C83.1624138,73.9748276 83.3831034,73.8627586 83.4848276,73.9024138 C83.6072414,73.8731034 83.5917241,73.6851724 83.602069,73.6403448 C84.1589655,73.8903448 84.2193103,74.3610345 85.0124138,74.2524138 C85.9555172,74.1231034 87.0331034,73.5955172 87.902069,73.4127586 C88.7882759,73.2282759 89.89,72.8368966 90.8262069,72.6713793 C91.252069,72.5937931 91.6417241,72.4662069 92.1072414,72.5162069 C93.1124138,72.6231034 93.99,72.8351724 94.8434483,73.2610345 C94.8451724,73.4041379 94.9227586,73.4644828 94.9831034,73.5437931 C95.2968966,73.4024138 95.3986207,73.8248276 95.6382759,73.7731034 C95.5210345,73.8265517 95.7072414,73.9058621 95.6831034,74.0593103 C95.7003448,74.13 95.852069,74.0524138 95.877931,74.1144828 C95.8744828,74.1541379 95.8210345,74.1437931 95.7831034,74.1506897 C95.9382759,74.1765517 95.7934483,74.317931 95.9486207,74.2403448" id="Fill-46" fill="#231815"></path>
                <path d="M82.875,85.3162069 C82.9025862,85.3093103 83.0405172,85.267931 83.1008621,85.3058621 C83.0525862,85.4058621 82.9474138,85.3575862 82.875,85.3162069" id="Fill-48" fill="#231815"></path>
                <path d="M24.3431034,70.6725862 C24.1758621,70.8156897 24.2086207,71.0587931 24.3431034,71.2018966 C24.2344828,71.395 24.0396552,71.5277586 24.2103448,71.7743103 C24.0189655,71.7139655 24.1172414,71.945 23.9465517,71.907069 C23.7275862,73.3398276 23.4051724,74.6381034 23.5948276,76.007069 C24.7137931,75.9501724 26.2931034,76.0398276 27.2103448,76.4932759 C27.7655172,76.7674138 28.2775862,77.4156897 28.2241379,78.1691379 C28.2137931,78.2967241 27.9413793,78.4156897 28.137931,78.6536207 C27.7413793,79.0984483 27.2189655,79.4139655 26.9017241,79.932931 C26.3741379,79.9605172 25.9086207,79.9260345 25.7551724,79.5812069 C25.5051724,79.6001724 25.3155172,79.6122414 25.0948276,79.5363793 C24.7017241,79.6312069 24.2810345,79.9174138 23.8155172,79.5812069 C23.4931034,79.7674138 23.1551724,79.7053448 22.7551724,79.8018966 C22.5206897,79.857069 22.3344828,80.0294828 22.0948276,80.1105172 C21.0931034,80.4432759 19.8551724,80.5191379 18.8310345,80.8587931 C18.3293103,81.0260345 17.9189655,81.2381034 17.3758621,81.345 C16.8706897,81.3036207 16.5396552,81.0932759 16.1844828,80.9036207 C16.187931,80.7587931 16.2586207,80.682931 16.2275862,80.507069 C15.8758621,79.8605172 16.1586207,79.032931 16.0517241,78.257069 C16.6758621,76.557069 19.7448276,77.3036207 20.9482759,76.1846552 C20.9206897,75.5381034 20.9655172,74.7674138 20.9913793,73.9794828 C20.9741379,73.8501724 20.8465517,73.8294828 20.8155172,73.7156897 C20.8465517,73.5984483 20.9603448,73.5639655 20.9913793,73.4501724 C20.7413793,73.0622414 20.8810345,72.232931 20.7724138,71.5105172 C20.75,71.3001724 20.3758621,71.345 20.55,71.0691379 C19.9741379,71.007069 19.3827586,71.3156897 18.8310345,71.5105172 C18.6913793,71.4415517 18.4810345,71.2639655 18.5672414,71.1122414 C18.3517241,71.0777586 18.2293103,70.9484483 17.9482759,70.9794828 C17.8137931,70.7863793 17.6913793,70.595 17.7293103,70.4518966 C17.637931,70.357069 17.4810345,70.3553448 17.287931,70.2760345 C17.3913793,70.1622414 17.2327586,70.0622414 17.3758621,70.0105172 C17.2965517,69.882931 17.1827586,69.7915517 17.0224138,69.7467241 C17.0224138,69.2898276 16.75,69.107069 16.5810345,68.8191379 C16.5155172,68.0984483 16.2482759,67.5881034 16.2724138,66.9674138 C16.3672414,67.0346552 16.4172414,67.1467241 16.5810345,67.1432759 C16.9137931,67.1087931 17.0103448,66.8363793 17.3758621,66.8346552 C18.3758621,65.9812069 20.3793103,65.6139655 22.4034483,65.6001724 C23.137931,65.595 23.8603448,65.6639655 24.6965517,65.6881034 C26.1034483,65.7277586 28.137931,66.0915517 28.2689655,67.2312069 C28.3051724,67.5501724 28.0775862,67.8898276 28.0465517,68.2018966 C28.0396552,68.2915517 28.1068966,68.357069 28.0913793,68.4243103 C27.9741379,68.9587931 27.6431034,69.3243103 27.4758621,69.7467241 C27.0206897,70.1812069 26.2603448,69.9415517 25.6672414,70.1863793 C25.3551724,70.3139655 24.9310345,70.6984483 24.3431034,70.6725862" id="Fill-50" fill="#231815"></path>
                <path d="M9.78965517,60.2636207 C9.94655172,60.3722414 9.96206897,60.6205172 10.2310345,60.617069 C10.2482759,61.1239655 10.7465517,61.2981034 10.9810345,61.6308621 C11.312069,62.0998276 11.3275862,62.7291379 11.7758621,63.1308621 C11.812069,63.6032759 11.7913793,64.2153448 11.4655172,64.7618966 C10.4068966,65.505 8.82413793,65.8481034 8.20172414,67.142931 C8.06724138,67.1756897 8.07241379,67.067069 7.93793103,67.0981034 C7.07931034,67.8274138 6.59310345,68.9308621 6.04137931,69.967069 C6.11551724,70.0860345 6.1637931,70.1653448 5.99655172,70.2308621 C6.25862069,70.5274138 6.9637931,70.3825862 7.23275862,70.6722414 C7.49137931,70.5998276 7.55862069,70.3084483 7.80517241,70.1860345 C8.11034483,70.0377586 8.64827586,70.142931 8.77758621,69.7894828 C9.16896552,69.8463793 9.18965517,69.5274138 9.57068966,69.5687931 C9.71034483,69.4894828 9.72931034,69.1308621 10.0103448,69.1274138 C10.1948276,69.1256897 10.3637931,69.4946552 10.5827586,69.6136207 C11.0344828,69.8584483 11.6931034,69.8618966 11.687931,70.4515517 C11.6810345,70.7687931 11.412069,70.8084483 11.4206897,71.1567241 C11.0086207,71.3481034 10.9637931,71.9032759 10.4948276,72.0377586 C9.56896552,73.3894828 8.36206897,74.4636207 7.36551724,75.7446552 C7.21551724,76.5360345 6.48275862,76.742931 5.99655172,77.1998276 C6.30344828,77.1481034 6.56551724,76.9343103 6.78965517,76.9343103 C6.99655172,76.7343103 7.26724138,76.7774138 7.49655172,76.6256897 C8.45172414,75.9981034 9.5,74.9860345 10.8931034,74.7291379 C11.562069,74.605 12.0689655,74.8015517 12.7896552,75.0377586 C13.8603448,75.7153448 14.7,76.7118966 14.8172414,78.2118966 L14.4637931,78.2118966 C13.8086207,78.5274138 13.3258621,78.7981034 12.3913793,78.8739655 C12.3172414,78.9791379 12.1086207,78.9187931 12.2155172,79.0963793 C11.6534483,79.0084483 11.4086207,79.3912069 10.8931034,79.3601724 C10.45,79.0618966 10.2155172,78.1739655 9.6137931,78.6532759 C9.43965517,78.792931 9.30517241,79.0653448 9.12931034,79.2274138 C8.74655172,79.5774138 8.25689655,79.7481034 8.07068966,80.0653448 C7,80.5256897 6.10689655,81.1912069 4.76206897,81.4774138 C4.62068966,81.4377586 4.70172414,81.6222414 4.5862069,81.6084483 C3.80517241,81.6256897 3.51034483,81.155 2.82241379,81.0808621 C2.37931034,80.5653448 1.74137931,80.0136207 1.67413793,79.2722414 C1.13793103,79.0825862 1.50862069,77.8481034 1.67413793,77.4187931 C1.91896552,76.7946552 2.14137931,76.0653448 2.55689655,75.6981034 C2.7137931,75.5636207 2.96724138,75.4515517 3.17586207,75.3015517 C3.35689655,75.1722414 3.54137931,74.9653448 3.70344828,74.8618966 C3.86551724,74.7567241 4.09137931,74.742931 4.23275862,74.6412069 C4.65172414,74.3412069 4.95172414,73.7515517 5.16034483,73.3618966 C4.34310345,73.1101724 3.51551724,73.3463793 2.77758621,73.0981034 C1.89655172,72.4325862 1.43448276,71.2705172 1.54310345,69.9222414 C1.62068966,68.9705172 2.40862069,68.1860345 2.5137931,67.3636207 C2.88103448,67.0394828 3.17068966,66.4567241 3.35172414,66.0843103 C4.01724138,65.2239655 4.58275862,64.2584483 5.20344828,63.3515517 C6.45862069,62.2101724 7.41724138,60.7722414 9.17241379,60.1308621 C9.35517241,60.2481034 9.63275862,60.3463793 9.78965517,60.2636207" id="Fill-52" fill="#231815"></path>
                <path d="M4.4087931,85.3141379 C4.8587931,85.277931 4.99327586,84.9262069 5.33637931,84.7848276 C5.01051724,85.4055172 6.16396552,85.9313793 5.29155172,86.1951724 C5.25706897,86.3624138 5.345,86.4072414 5.33637931,86.5486207 L5.11568966,86.5486207 C5.22775862,87.19 4.75189655,87.7072414 4.89327586,88.577931 C4.81741379,88.5365517 4.81396552,88.4227586 4.76224138,88.3572414 C4.49844828,88.4382759 4.30362069,88.4227586 4.14672414,88.6658621 C4.045,88.6331034 3.91913793,88.6262069 3.83637931,88.577931 C3.71396552,88.5882759 3.65706897,88.69 3.57086207,88.7089655 C2.84672414,88.8658621 2.5312069,88.2675862 1.71913793,88.2244828 C1.46396552,87.9641379 1.35189655,87.7227586 1.10362069,87.4296552 C1.0312069,87.3486207 0.901896552,87.3003448 0.838103448,87.2089655 C0.327758621,86.4848276 0.669137931,85.2710345 0.000172413793,84.652069 C0.169137931,84.5917241 0.351896552,84.1089655 0.529482759,84.3434483 C0.565689655,84.2331034 0.669137931,84.19 0.748448276,84.1227586 C1.60534483,84.2486207 2.81741379,84.2055172 3.61568966,84.6089655 C3.78810345,84.9348276 4.17258621,85.0486207 4.4087931,85.3141379" id="Fill-54" fill="#231815"></path>
                <path d="M13.9794828,87.0334483 C13.4484483,87.2437931 12.9553448,87.1886207 12.3915517,87.0782759 C12.2743103,87.0782759 12.2794828,87.2006897 12.2156897,87.2541379 C11.9587931,86.9058621 11.2932759,87.2886207 11.245,86.9455172 C11.032931,87.0575862 10.9312069,86.8282759 10.6277586,86.9006897 C10.6001724,86.6351724 10.3381034,86.6006897 10.3639655,86.2834483 C10.4260345,86.2144828 10.4743103,86.13 10.582931,86.1075862 C10.5260345,85.9489655 10.5863793,85.9455172 10.5398276,85.7972414 C11.1467241,84.9524138 10.4656897,83.8162069 10.0553448,83.1972414 C9.49155172,83.1644828 9.30017241,83.4989655 9.08637931,83.8144828 C9.16741379,84.2593103 9.19327586,84.6593103 9.30534483,85.0937931 C9.07603448,85.1834483 9.23465517,85.3851724 9.26224138,85.5782759 C9.345,85.6610345 9.33982759,85.5524138 9.4812069,85.5782759 C9.48637931,85.7144828 9.44155172,85.8006897 9.52603448,86.0196552 C9.43982759,86.0368966 9.48982759,86.1903448 9.34844828,86.1506897 C9.40534483,86.5282759 9.46224138,87.0093103 9.34844828,87.43 C9.19327586,87.48 9.02431034,87.517931 9.03982759,87.7403448 C8.74672414,87.7110345 8.56568966,87.7937931 8.37775862,87.8713793 C7.75534483,87.83 6.96913793,87.5610345 6.61396552,86.9455172 C6.50706897,86.7575862 6.23293103,86.5524138 6.17431034,86.4162069 C5.91741379,85.8248276 6.15362069,84.9937931 5.645,84.6506897 C5.53465517,84.6455172 5.42948276,84.6437931 5.42431034,84.7403448 C5.35534483,84.3489655 5.92258621,84.2093103 5.99672414,83.8144828 C6.4312069,83.9506897 6.63637931,83.7713793 7.05706897,83.7265517 C7.56741379,83.6696552 7.895,84.0851724 8.245,84.0351724 C8.69155172,83.9713793 8.62431034,83.4231034 9.08637931,83.2851724 C9.05706897,83.0058621 9.36224138,82.8282759 9.30534483,82.6662069 C9.66396552,82.4955172 9.57775862,82.1437931 9.92258621,82.0506897 C10.0294828,82.0196552 10.1760345,82.1093103 10.3191379,82.0937931 C10.6760345,82.0575862 11.1363793,81.8403448 11.5536207,82.0058621 C12.5846552,83.2093103 14.182931,83.892069 14.332931,85.7541379 C14.1536207,86.192069 14.1553448,86.6765517 13.9794828,87.0334483" id="Fill-56" fill="#231815"></path>
                <path d="M50.0782759,88.3294828 C50.3489655,88.1846552 50.6368966,88.3691379 50.9144828,88.4605172 C50.8972414,88.545 50.8989655,88.6501724 50.7817241,88.6381034 C50.8265517,88.8294828 51.0541379,88.7536207 51.18,88.6812069 C51.1851724,88.6036207 51.1248276,88.5898276 51.1351724,88.5053448 C51.4162069,88.5760345 51.7093103,88.6363793 51.7972414,88.9036207 C52.0196552,88.8622414 52.18,88.7553448 52.4127586,88.7260345 C52.5127586,88.7743103 52.4455172,88.9881034 52.6351724,88.9467241 C52.5851724,89.0294828 52.5782759,89.1536207 52.5472414,89.2553448 L52.3265517,89.2553448 C52.4506897,89.4708621 52.7834483,89.2898276 53.0317241,89.4312069 C53.0455172,89.6812069 52.9541379,89.9243103 53.2075862,90.0932759 C53.0455172,90.1208621 53.0334483,90.3001724 52.8558621,90.3139655 C52.9041379,90.8018966 52.5144828,90.8536207 52.4593103,91.2398276 C52.1403448,91.3777586 52.1593103,91.7174138 51.8851724,91.857069 C51.2851724,92.1622414 50.6817241,91.7415517 50.0782759,91.5915517 C49.9989655,91.4036207 49.9524138,91.1881034 49.9006897,90.9760345 C49.8075862,90.9208621 49.7731034,90.8087931 49.6368966,90.7984483 C49.7351724,90.6277586 49.6386207,90.5415517 49.4610345,90.5346552 C49.3386207,90.1863793 49.3248276,89.7915517 49.0627586,89.7846552 C49.1713793,89.5898276 49.092069,89.4587931 49.1937931,89.3001724 C49.2231034,88.9777586 48.7282759,89.1777586 48.7541379,88.857069 C48.8886207,88.8260345 48.8834483,88.9346552 49.017931,88.9036207 C49.13,88.7587931 49.1696552,88.6674138 49.0627586,88.5053448 C49.3731034,88.4536207 49.8593103,87.9225862 50.0782759,88.3294828" id="Fill-58" fill="#231815"></path>
                <path d="M58.8531034,78.8917241 C59.36,78.9865517 59.5134483,78.5417241 59.822069,78.5813793 C59.847931,78.2331034 59.6910345,78.0003448 59.3375862,77.9210345 C59.3031034,77.752069 59.5496552,77.8693103 59.5134483,77.7003448 L59.2944828,77.7003448 C59.3824138,78.1951724 58.9065517,78.5572414 58.8531034,78.8917241 M56.0306897,73.3348276 C54.9944828,73.2158621 54.7134483,74.3348276 55.147931,75.0537931 C55.7168966,75.1762069 56.4065517,75.2537931 56.5151724,74.6124138 C56.222069,74.3313793 56.3841379,74.1296552 56.0755172,73.8624138 C56.2944828,73.7193103 56.0151724,73.5193103 56.1186207,73.3348276 C56.147931,73.2468966 56.3806897,73.3624138 56.3393103,73.2037931 C56.1703448,73.1813793 56.0634483,73.2210345 56.0306897,73.3348276 M58.5444828,73.4227586 C58.4565517,73.9675862 58.3548276,74.2227586 58.4996552,74.702069 C58.9048276,74.6641379 59.2634483,74.7055172 59.6462069,74.79 C59.9082759,74.2124138 59.997931,73.4658621 60.2203448,72.8503448 C59.6755172,73.0537931 59.0927586,73.2227586 58.5444828,73.4227586 M55.3703448,71.8348276 C55.7410345,71.7813793 56.1548276,71.7693103 56.472069,71.6589655 L56.472069,71.0417241 C55.9082759,71.1106897 55.3375862,71.1727586 55.3703448,71.8348276 M58.4565517,70.4675862 C58.3824138,70.852069 58.4496552,71.2486207 58.4996552,71.702069 C59.072069,71.4934483 59.7841379,71.4296552 60.2203448,71.0848276 C60.1893103,70.7796552 60.1151724,70.5141379 60.0013793,70.2917241 C59.447931,70.1710345 58.9186207,70.2865517 58.4565517,70.4675862 M60.9703448,62.3089655 C62.2427586,62.3227586 63.8806897,62.5313793 64.41,63.2796552 C64.5668966,63.327931 64.6341379,63.4675862 64.8082759,63.5003448 C64.8996552,64.2313793 64.7117241,65.1141379 64.322069,65.6158621 C63.9031034,65.5951724 63.76,65.8486207 63.6151724,66.102069 C62.9324138,66.3848276 62.36,66.7675862 61.5427586,66.852069 C60.9686207,66.9106897 60.2875862,66.5468966 59.822069,66.8072414 C59.5272414,66.9727586 59.447931,67.4348276 59.3375862,67.777931 C60.2375862,68.0848276 61.3117241,68.0348276 62.16,68.3503448 C62.4531034,68.4606897 63.2134483,69.0417241 63.3065517,69.3210345 C63.4117241,69.6331034 63.2737931,69.9865517 63.5289655,70.2037931 C63.3686207,72.2555172 63.2893103,74.4468966 62.4686207,76.1141379 C62.7134483,76.5537931 63.297931,76.4193103 63.6151724,76.6865517 C63.9531034,76.9693103 63.8289655,77.4158621 63.9686207,77.9658621 C64.1065517,78.1365517 64.2824138,78.2675862 64.497931,78.3624138 C64.6375862,78.802069 64.5375862,79.3055172 64.6755172,79.7727586 C64.76,80.0675862 65.0772414,80.2606897 64.8944828,80.7434483 C64.8565517,80.8486207 64.6410345,80.977931 64.5410345,81.14 C64.4617241,81.2744828 64.4565517,81.4417241 64.41,81.4934483 C64.0824138,81.8451724 63.5582759,81.7227586 63.1306897,81.9348276 C62.8875862,81.8175862 62.6444828,81.7727586 62.3358621,81.802069 C62.2255172,81.5606897 62.0393103,81.3951724 61.7651724,81.3175862 L61.7651724,81.052069 C61.5893103,80.9331034 61.0686207,81.1641379 60.9703448,80.8762069 C60.76,80.8572414 60.7393103,81.0262069 60.5289655,81.0089655 C60.5324138,81.4417241 60.3686207,82.002069 60.3531034,82.3762069 C60.3651724,82.4227586 60.4393103,82.4055172 60.4410345,82.4641379 C61.7324138,82.4537931 61.8548276,84.1244828 61.2341379,84.89 C60.9841379,84.9468966 60.6824138,84.8537931 60.4410345,84.89 C60.072069,86.1382759 60.2755172,87.4451724 60.8375862,88.2848276 C60.8444828,88.7244828 60.8427586,89.0986207 60.9255172,89.4762069 C60.9013793,89.6710345 60.7772414,89.7675862 60.747931,89.9606897 C60.9341379,90.1158621 60.9772414,90.4072414 61.1910345,90.5331034 C60.7513793,91.1193103 60.4513793,91.84 59.7341379,92.0331034 C59.5789655,92.102069 59.71,91.8848276 59.6031034,91.9003448 C59.0531034,91.9675862 58.6324138,92.1658621 58.2358621,92.3865517 C57.2168966,92.1865517 56.9272414,93.4417241 56.0306897,93.3555172 C55.3065517,93.2882759 54.8203448,92.7486207 54.3996552,92.2537931 C54.097931,91.902069 53.8824138,91.6262069 53.8255172,91.0193103 C54.047931,90.7262069 54.3255172,90.49 54.3996552,90.0486207 C54.51,90.2468966 54.6927586,90.3727586 54.8858621,90.49 C55.6375862,90.4055172 56.2186207,90.1486207 56.9134483,90.0055172 C57.072069,89.7762069 57.3548276,89.8055172 57.5737931,89.652069 C57.9582759,89.3848276 58.0375862,88.8348276 58.1910345,88.4606897 C58.1806897,88.3986207 58.06,88.4468966 58.06,88.3727586 C58.4358621,87.6055172 57.4806897,87.1106897 57.8375862,86.5641379 C57.6306897,86.5003448 57.7772414,86.3555172 57.7048276,86.1675862 C57.372069,86.2451724 57.1410345,86.4262069 56.8686207,86.5641379 C56.0410345,86.6624138 55.16,86.8537931 54.4427586,87.1831034 C53.9772414,87.3968966 53.61,87.4813793 53.1651724,87.5796552 C52.9168966,87.6331034 52.6668966,87.7003448 52.5031034,87.8882759 C51.91,88.0331034 51.1582759,87.9037931 50.4737931,87.7124138 C50.1151724,87.3796552 49.7048276,87.1003448 49.2841379,86.8296552 C49.0048276,86.3537931 48.7858621,85.7606897 48.3134483,85.3727586 C48.3651724,84.9141379 48.4272414,84.6744828 48.71,84.4037931 C48.9427586,84.4934483 49.2306897,84.5141379 49.46,84.4037931 C50.3962069,84.6727586 51.2737931,84.2003448 52.1048276,84.0072414 C53.6617241,83.6468966 55.2255172,83.4158621 56.6048276,82.8158621 C56.4755172,82.49 56.46,82.0486207 56.2962069,81.7572414 C55.7082759,81.9537931 55.1944828,82.1296552 54.7065517,82.3296552 C53.7462069,82.5124138 52.7737931,82.5744828 51.8427586,82.4641379 C50.4134483,82.2934483 50.0755172,80.7934483 50.6065517,79.6417241 C50.7893103,79.5072414 50.8513793,79.49 50.9582759,79.3313793 C51.7893103,79.2365517 52.672069,79.1244828 53.2962069,79.5089655 C54.3927586,79.3262069 55.7634483,79.4175862 56.1186207,78.4951724 C55.4548276,78.6055172 54.6255172,78.3037931 53.9134483,78.1865517 C53.9393103,77.9658621 53.5962069,77.8986207 53.3410345,77.8331034 C53.2410345,77.7658621 53.1893103,77.477931 53.0306897,77.3486207 C52.3306897,77.152069 52.0237931,76.5624138 51.4444828,76.2451724 C51.097931,75.5313793 50.7272414,74.4882759 50.4306897,73.3796552 C50.3237931,72.9848276 50.4651724,72.3365517 50.3410345,71.79 C50.2634483,71.4417241 49.81,71.1951724 49.8117241,70.8210345 C49.6824138,70.7882759 49.6427586,70.6658621 49.46,70.6882759 C49.4824138,70.4175862 49.8910345,70.5313793 49.9444828,70.2917241 C50.7444828,70.2296552 51.0462069,69.6762069 51.7082759,69.8503448 C51.7737931,69.8124138 51.8789655,69.8158621 51.8427586,69.6744828 C52.4013793,69.5417241 52.8186207,69.7589655 53.2065517,69.4968966 C53.3789655,69.5262069 53.7306897,69.6158621 53.7375862,69.3658621 C54.6462069,69.1331034 55.9272414,68.9968966 56.4272414,68.2193103 C56.4151724,68.127931 56.2634483,68.177931 56.2513793,68.0882759 C56.1858621,67.9193103 56.372069,68.002069 56.3393103,67.8658621 C56.1875862,67.5244828 56.2324138,66.8244828 55.722069,67.027931 C55.3444828,67.177931 54.8324138,67.777931 54.31,67.7348276 C54.1255172,67.7175862 54.0875862,67.5641379 53.9582759,67.5124138 C53.6668966,67.3986207 53.4324138,67.4968966 53.0755172,67.4693103 C53.072069,67.2365517 52.8962069,67.177931 52.7668966,67.0710345 C52.7151724,66.2158621 51.6134483,66.0468966 51.3565517,65.4848276 C51.2962069,65.3572414 51.0824138,65.0175862 51.0031034,64.9106897 C50.9634483,64.8589655 50.8737931,64.9089655 50.8255172,64.8675862 C50.6186207,64.6710345 50.6737931,64.2382759 50.5186207,64.0727586 C50.91,64.1468966 51.022069,63.8313793 51.3996552,63.94 C51.5031034,63.927931 51.5031034,63.8210345 51.3996552,63.8089655 C51.8272414,63.5848276 52.1789655,63.7693103 52.6341379,63.7210345 C53.0858621,63.6710345 53.4686207,63.39 53.9134483,63.2348276 C54.6548276,62.977931 55.4255172,62.9917241 56.3393103,62.9262069 C56.322069,62.7572414 56.122069,62.9451724 56.0306897,62.7934483 C56.0651724,62.5865517 56.1393103,62.4624138 56.2962069,62.4848276 C56.2324138,62.3037931 56.3910345,62.0037931 56.5151724,61.8675862 C56.3013793,61.8313793 56.3789655,61.5055172 56.0755172,61.5589655 C56.1255172,61.4210345 56.0789655,61.4589655 56.0755172,61.2951724 C55.9910345,61.2468966 55.8668966,61.2382759 55.7651724,61.2072414 C55.8341379,61.127931 56.0237931,61.1710345 56.0306897,61.0296552 C56.0496552,60.8486207 55.8737931,60.8641379 55.8548276,60.7210345 C56.0048276,60.6796552 55.9755172,60.4624138 56.0755172,60.3675862 C56.1427586,60.2106897 55.9237931,60.3417241 55.9410345,60.2365517 C56.1134483,59.8331034 55.7427586,59.5227586 56.0306897,59.1331034 C56.247931,59.0434483 56.4962069,58.9813793 56.7806897,58.9572414 C56.8134483,58.7917241 56.7272414,58.7468966 56.7358621,58.6037931 C56.772069,58.5658621 56.8565517,58.577931 56.8686207,58.5175862 C58.2358621,59.2796552 60.572069,59.0762069 61.2341379,60.5451724 C61.1375862,61.0641379 60.9996552,61.5710345 60.9703448,62.3089655" id="Fill-60" fill="#231815"></path>
                <path d="M41.962069,78.4058621 C41.9344828,78.6731034 41.6965517,78.73 41.6103448,78.9351724 C41.8362069,80.0075862 41.6258621,81.2886207 42.6241379,81.5368966 C42.8465517,81.43 43.1189655,81.3644828 43.3293103,81.3610345 C43.5586207,80.1489655 43.5413793,78.8265517 43.4172414,77.7437931 C42.8362069,77.842069 42.4327586,78.3437931 41.962069,78.4058621 M46.0637931,70.7317241 C45.6982759,70.417931 45.5913793,70.917931 45.2258621,71.042069 C45.2362069,71.3024138 45.1431034,71.3610345 45.2258621,71.5265517 C44.8362069,72.7937931 43.9344828,73.8610345 43.1965517,74.9213793 C44.1327586,75.2024138 45.3655172,74.3955172 46.5034483,74.6575862 C46.9724138,74.7644828 47.1706897,75.2231034 47.4758621,75.5834483 C47.487931,76.1196552 47.5275862,76.5093103 47.4310345,76.9955172 C47.412069,77.0868966 47.2982759,77.1765517 47.2982759,77.3024138 C47.3017241,77.7144828 47.4034483,78.7765517 47.2551724,79.2868966 C47.1758621,79.5558621 46.9362069,79.8696552 46.8586207,80.1713793 C46.9086207,80.2662069 46.9706897,80.3506897 46.9465517,80.5213793 C46.6862069,81.5851724 46.4586207,82.6817241 45.9327586,83.4782759 C45.4310345,83.6386207 44.9586207,83.8282759 44.4310345,83.9627586 C44.2431034,84.3334483 43.7017241,84.5817241 43.2844828,84.3593103 C42.7689655,84.3713793 42.2086207,84.7713793 41.6534483,84.7575862 C41.1965517,84.7437931 40.9241379,84.3972414 40.462069,84.3593103 C40.4310345,84.067931 40.1327586,84.042069 39.8896552,83.9627586 C39.8551724,83.7972414 40.0586207,83.867931 40.0655172,83.742069 C40.0224138,83.6524138 39.8965517,83.6472414 39.7568966,83.6541379 C39.7275862,83.2593103 39.4172414,83.2713793 39.2293103,83.1248276 C39.3206897,83.0334483 39.287931,82.9144828 39.4482759,82.8162069 C39.3431034,82.5989655 39.1982759,82.417931 39.0517241,82.242069 C39.0965517,81.7144828 38.9396552,80.817931 38.6103448,80.4782759 C38.7465517,79.9989655 38.5931034,79.6644828 38.6534483,79.2868966 C37.7706897,79.5162069 36.7155172,81.2644828 35.7,80.3903448 C35.4327586,79.9541379 35.7068966,79.4403448 35.5241379,79.1110345 C35.65,79.0334483 35.7155172,78.8903448 35.8327586,78.8024138 C35.8034483,78.5972414 35.9017241,78.5196552 35.9206897,78.3627586 C36.85,77.6731034 37.637931,76.8455172 38.2137931,75.8041379 C38.85,75.3368966 38.987931,74.3748276 39.7137931,73.9955172 C40.1396552,73.2748276 40.9034483,72.567931 40.5948276,71.6144828 C39.5482759,72.0731034 38.4844828,71.4851724 37.8172414,70.9524138 C37.5758621,70.4662069 37.4482759,70.1041379 36.9775862,69.8937931 C36.9724138,69.7868966 36.9724138,69.6817241 37.0224138,69.63 C36.8706897,69.6644828 36.8534483,69.5644828 36.7137931,69.5868966 C36.7965517,69.3455172 36.8965517,69.1213793 37.1103448,69.0127586 C36.9948276,68.7024138 36.7137931,68.367931 36.8017241,67.9972414 C36.9034483,67.9386207 37.0517241,67.9248276 37.1551724,67.8662069 C37.3068966,67.8472414 37.287931,67.9972414 37.3758621,68.042069 C38.4724138,67.8955172 39.1810345,67.0851724 40.1982759,66.7644828 C40.5258621,66.6593103 40.8258621,66.7058621 41.212069,66.6765517 C41.8224138,66.6248276 42.4293103,66.2955172 43.0637931,66.1886207 C43.2586207,66.1575862 43.4017241,66.1455172 43.5931034,66.1006897 C43.9793103,66.0162069 44.5896552,65.8886207 45.0931034,65.9248276 C45.7689655,65.9748276 46.4551724,66.28 47.1655172,66.5868966 C47.3517241,66.667931 47.6086207,66.6558621 47.7827586,66.7644828 C48.1258621,66.9731034 48.5517241,67.5403448 48.5758621,67.8662069 C48.6068966,68.2351724 48.2741379,68.5972414 48.0913793,68.88 C47.8155172,69.3110345 47.5655172,69.7765517 47.2551724,70.0265517 C47.0172414,70.217931 46.6551724,70.2351724 46.5034483,70.5127586 C46.2568966,70.4834483 46.1086207,70.5575862 46.0637931,70.7317241" id="Fill-62" fill="#231815"></path>
                <path d="M51.8537931,5.21 L51.8537931,1.77724138 C51.8537931,1.77724138 52.0934483,-0.000344827586 50.0762069,-0.000344827586 L49.6744828,-0.000344827586 L49.2727586,-0.000344827586 C47.2555172,-0.000344827586 47.4951724,1.77724138 47.4951724,1.77724138 L47.4951724,5.21 C47.4951724,5.21 36.2606897,19.16 18.9744828,18.1996552 C18.9744828,18.1996552 19.7072414,19.2617241 23.2951724,19.5186207 C27.1124138,19.7927586 41.9555172,20.1427586 49.2244828,11.2358621 C49.2244828,11.2358621 49.3848276,10.9772414 49.6744828,10.947931 C49.9641379,10.9772414 50.1244828,11.2358621 50.1244828,11.2358621 C57.3917241,20.1427586 72.2365517,19.7927586 76.0537931,19.5186207 C79.6417241,19.2617241 80.3744828,18.1996552 80.3744828,18.1996552 C63.0882759,19.16 51.8537931,5.21 51.8537931,5.21" id="Fill-64" fill="#231815"></path>
                <path d="M32.8896552,28.3184483 C33.0310345,29.415 33.15,29.9891379 34.2137931,30.1098276 C34.9603448,30.1960345 35.812069,30.1443103 36.562069,30.1115517 C38.1982759,30.0408621 40.8155172,29.6167241 40.2344828,27.4184483 C39.7931034,25.7477586 37.3172414,26.3477586 35.85,26.3477586 C35.2206897,26.3477586 33.9793103,26.1115517 33.4431034,26.4443103 C32.5603448,26.9925862 32.9793103,27.177069 32.8896552,27.7805172 L32.8896552,28.3184483 Z" id="Fill-66" fill="#C84625"></path>
                <path d="M44.6682759,26.2431034 C45.4975862,26.6017241 46.0217241,26.65 47.6734483,26.7982759 C48.5613793,26.8775862 49.6372414,26.75 49.9165517,27.8706897 C50.22,29.0948276 48.8734483,29.1913793 48.0217241,29.4137931 C46.7286207,29.75 44.432069,30.3741379 43.1044828,29.9189655 C41.1837931,29.2586207 42.0096552,26.0344828 44.1751724,26.2586207 L44.6682759,26.2431034 Z" id="Fill-68" fill="#C84625"></path>
                <path d="M51.8787931,26.6163793 C52.3701724,25.7922414 55.8684483,26.2991379 56.802931,26.4594828 C57.5477586,26.587069 58.7081034,26.5577586 59.1477586,27.2422414 C59.5805172,27.9181034 59.415,29.187069 58.8943103,29.5543103 C57.6287931,30.4405172 55.0322414,29.8112069 53.6891379,29.5025862 C52.7477586,29.287069 52.0839655,29.4525862 51.765,28.4922414 C51.3098276,27.1232759 51.9874138,26.4267241 53.1322414,25.8112069" id="Fill-70" fill="#C84625"></path>
                <path d="M66.3896552,27.9601724 C67.3534483,26.0463793 60.5051724,24.3722414 60.7448276,28.0308621 C60.862069,29.8360345 62.0465517,29.7636207 63.6103448,29.8463793 C65.3017241,29.9360345 66.5568966,29.9843103 66.4793103,27.8705172" id="Fill-72" fill="#C84625"></path>
                <path d="M55.5513793,31.1846552 C57.26,31.1846552 58.9617241,31.2191379 60.6565517,31.2743103 C61.4513793,31.3001724 62.5013793,31.0881034 62.8186207,31.9691379 C63.0496552,32.6105172 62.5703448,33.7277586 62.3737931,34.3139655 C61.7082759,36.2967241 59.4444828,35.2139655 57.8996552,34.8587931 C57.06,34.6674138 56.0617241,34.6622414 55.6324138,33.8036207 C55.3168966,33.1725862 55.2858621,32.1812069 55.4513793,31.5087931 L55.5513793,31.1846552 Z" id="Fill-74" fill="#C84625"></path>
                <path d="M46.7731034,31.0951724 C48.3127586,30.502069 50.8903448,30.5106897 52.5075862,30.7572414 C53.4955172,30.9072414 53.7317241,31.2313793 53.6748276,32.2572414 C53.6317241,33.0468966 53.6093103,33.902069 52.8662069,34.2606897 C51.692069,34.827931 49.7662069,34.49 48.4955172,34.4986207 C47.5386207,34.5055172 47.1006897,34.5744828 46.8817241,33.5331034 C46.7455172,32.8917241 46.5024138,32.1451724 46.6386207,31.5089655 L46.7731034,31.0951724 Z" id="Fill-76" fill="#C84625"></path>
                <path d="M37.4701724,31.3415517 C36.7856897,31.9432759 37.3081034,33.2553448 37.4339655,34.057069 C37.6081034,35.1725862 37.9374138,35.1156897 38.9822414,35.1260345 C40.6115517,35.1415517 42.6356897,34.8812069 44.1063793,34.1415517 C45.0718966,33.657069 45.0201724,32.9398276 44.7994828,31.9018966 C44.5546552,30.7432759 44.1063793,30.9139655 43.0115517,30.9156897 C42.0512069,30.9174138 38.1063793,30.4553448 37.727069,31.095 L37.4701724,31.3415517 Z" id="Fill-78" fill="#C84625"></path>
                <path d="M32.9791379,31.9908621 C32.9860345,32.8115517 33.1118966,34.0408621 33.5118966,34.765 C33.8963793,35.4615517 33.7843103,35.3977586 34.5032759,35.3960345 C34.8412069,35.3960345 35.3998276,35.2408621 35.5687931,34.9787931 C35.8860345,34.4943103 35.7187931,32.8701724 35.5515517,32.3718966 C35.1843103,31.2753448 34.2463793,31.3477586 33.1584483,31.8115517 C33.1584483,31.8115517 32.9774138,31.8563793 32.9791379,31.9908621" id="Fill-80" fill="#C84625"></path>
                <path d="M65.3372414,31.7960345 C63.7148276,31.1184483 64.0768966,34.0287931 64.0768966,35.0218966 C65.9027586,36.2805172 65.9096552,33.1581034 66.1217241,32.0805172" id="Fill-82" fill="#C84625"></path>
                <path d="M34.7931034,36.6486207 C34.0827586,37.1089655 34.0431034,37.1813793 33.9827586,37.99 C33.9586207,38.3262069 34.1672414,38.9141379 34.2965517,39.2262069 C34.7137931,40.24 35.1672414,40.3055172 36.1982759,40.3210345 C37.3758621,40.3382759 40.3051724,41.0675862 41.037931,39.79 C41.2931034,39.3451724 41.0689655,37.6727586 40.9551724,37.1813793 C40.6982759,36.0606897 40.2,36.202069 39.1551724,36.2003448 C38.2637931,36.1986207 38.2637931,36.1986207 37.3948276,36.3124138 C36.5,36.4296552 36.237931,36.4831034 35.3534483,36.5365517 L34.7931034,36.6486207 Z" id="Fill-84" fill="#C84625"></path>
                <path d="M42.4737931,36.5591379 C43.3686207,35.3901724 45.7962069,35.8384483 47.0272414,36.0194828 C47.9962069,36.1608621 48.2548276,36.2539655 48.5841379,37.0763793 C48.8410345,37.7194828 48.9962069,38.6918966 48.4875862,39.2539655 C47.5772414,40.2677586 45.3013793,40.0694828 44.1789655,39.6315517 C43.56,39.3901724 42.6289655,38.972931 42.2858621,38.3539655 C42.0255172,37.8867241 41.7668966,37.5143103 42.1824138,36.8953448 L42.4737931,36.5591379 Z" id="Fill-86" fill="#C84625"></path>
                <path d="M50.4493103,36.7163793 C50.232069,37.437069 50.5044828,37.7181034 50.6389655,38.3508621 C50.8389655,39.2956897 51.3286207,39.6405172 52.257931,39.6956897 C53.5286207,39.7715517 56.2251724,39.4853448 57.2062069,38.6456897 C57.8182759,38.1198276 58.0544828,37.1318966 57.4217241,36.5336207 C56.8527586,35.9974138 55.9165517,36.225 55.2131034,36.2008621 C53.9475862,36.1577586 51.7458621,35.3767241 50.6251724,36.2008621 L50.4493103,36.7163793 Z" id="Fill-88" fill="#C84625"></path>
                <path d="M65.0460345,36.5591379 C63.5460345,35.7212069 58.2977586,35.6143103 59.5701724,38.7125862 C60.002931,39.7677586 62.227069,39.9056897 63.2339655,39.785 C64.9960345,39.5763793 65.0460345,38.5143103 65.0460345,37.0074138 L65.0460345,36.5591379 Z" id="Fill-90" fill="#C84625"></path>
                <path d="M54.7625862,40.8118966 C56.2712069,40.3912069 57.9867241,41.1705172 59.5643103,41.392931 C60.3384483,41.5032759 61.1556897,41.6412069 61.3867241,42.4687931 C61.5763793,43.1515517 61.2281034,44.4015517 60.5763793,44.5618966 C59.1177586,44.9205172 57.7953448,44.9205172 56.1815517,44.7067241 C55.4746552,44.6136207 54.3556897,44.9498276 54.0815517,44.217069 C53.8660345,43.6394828 53.8367241,41.8343103 54.1505172,41.3515517 C54.1505172,41.3515517 54.6074138,40.855 54.7625862,40.8118966" id="Fill-92" fill="#C84625"></path>
                <path d="M46.0567241,41.0377586 C47.3843103,40.555 49.5963793,40.5015517 50.9860345,40.8843103 C51.7894828,41.1032759 52.317069,41.2877586 52.4205172,42.2015517 C52.4808621,42.742931 52.4343103,44.3636207 52.0291379,44.6532759 C51.6481034,44.9256897 49.9618966,44.7481034 49.4532759,44.7722414 C48.8067241,44.8032759 48.1377586,44.7912069 47.4912069,44.7705172 C46.8308621,44.7498276 45.9860345,44.8394828 45.6377586,44.1498276 C45.2998276,43.4825862 45.3963793,42.0877586 45.7653448,41.5756897 L46.0567241,41.0377586 Z" id="Fill-94" fill="#C84625"></path>
                <path d="M37.3948276,41.8437931 C37.1482759,42.7351724 37.3896552,43.0265517 37.5534483,43.9093103 C37.7396552,44.9075862 37.65,45.1403448 38.8068966,45.0506897 C39.5103448,44.9955172 40.2448276,44.8317241 40.9517241,44.7317241 C41.6275862,44.6368966 42.5293103,44.7851724 43.1603448,44.5455172 C44.1086207,44.1868966 43.95,43.3731034 43.9086207,42.4851724 C43.8568966,41.3472414 43.6724138,41.117931 42.5431034,41.0351724 C41.8310345,40.9834483 41.0155172,40.9662069 40.3068966,41.0351724 C39.3413793,41.13 38.3758621,41.2610345 37.4568966,41.6644828 L37.3948276,41.8437931 Z" id="Fill-96" fill="#C84625"></path>
                <path d="M64.3294828,44.4412069 C63.9363793,44.6912069 63.1363793,45.2360345 62.7381034,44.6791379 C62.5932759,44.4774138 62.6691379,43.6153448 62.6967241,43.367069 C62.8363793,42.0998276 63.5381034,40.8981034 64.4191379,41.842931 C65.0812069,42.555 64.3294828,44.4412069 64.3294828,44.4412069" id="Fill-98" fill="#C84625"></path>
                <path d="M34.6810345,41.5751724 C34.3431034,41.9389655 34.8068966,43.3803448 34.8603448,43.9234483 C34.9310345,44.6441379 35.2741379,45.7458621 36.2362069,44.832069 C37.0206897,44.0889655 37.0844828,41.3803448 35.3310345,41.5665517 L34.6810345,41.5751724 Z" id="Fill-100" fill="#C84625"></path>
            </g>
        </g>
    </g>
</svg>