<?xml version="1.0" encoding="UTF-8" standalone="no"?>
<svg width="344px" height="31px" viewBox="0 0 344 31" version="1.1" xmlns="http://www.w3.org/2000/svg" xmlns:xlink="http://www.w3.org/1999/xlink">
    <!-- Generator: Sketch 40.2 (33826) - http://www.bohemiancoding.com/sketch -->
    <title>title02_aboutus</title>
    <desc>Created with Sketch.</desc>
    <defs>
        <polygon id="path-1" points="0 30.209 343.677 30.209 343.677 0 0 0"></polygon>
    </defs>
    <g id="紅磚屋_UI-KIT" stroke="none" stroke-width="1" fill="none" fill-rule="evenodd">
        <g id="UI-KIT" transform="translate(-1006.000000, -83.000000)">
            <g id="title02_aboutus" transform="translate(1006.000000, 83.000000)">
                <mask id="mask-2" fill="white">
                    <use xlink:href="#path-1"></use>
                </mask>
                <g id="Clip-2"></g>
                <path d="M17.159,7.619 L22.469,7.619 L22.469,5.279 L17.159,5.279 L17.159,7.619 Z M17.159,4.65 L22.469,4.65 L22.469,2.46 L17.159,2.46 L17.159,4.65 Z M17.159,8.699 C17.159,8.939 17.039,9.029 16.619,9.09 C18.81,9.93 19.199,10.14 19.199,10.379 C19.199,10.619 19.02,10.68 17.909,10.68 C16.829,11.399 16.38,11.699 15.539,12.09 C16.079,12.51 16.289,12.899 16.289,13.35 C16.289,14.129 15.6,14.879 14.909,14.879 C14.64,14.879 14.579,14.789 14.399,14.16 C14.1,13.049 13.56,12.119 12.659,11.039 L12.84,10.859 C13.77,11.1 14.1,11.25 14.76,11.58 C15.21,10.8 15.539,10.109 15.899,9.15 C14.46,9.15 14.159,9.06 14.159,8.609 L14.159,8.459 C14.22,6.15 14.22,5.699 14.22,4.65 C14.22,4.35 14.22,4.35 14.189,2.311 C14.189,2.25 14.189,2.1 14.22,1.859 L14.22,1.439 C14.22,0.87 14.22,0.689 14.13,0.21 C15.569,0.779 16.02,1.02 17.52,1.83 L22.199,1.83 C22.979,1.08 23.219,0.84 24.029,0.15 C25.079,0.87 25.379,1.109 26.369,1.95 C26.609,2.16 26.699,2.34 26.699,2.46 C26.699,2.641 26.549,2.79 26.249,2.97 C25.769,3.24 25.769,3.24 25.589,3.391 L25.589,19.439 L25.649,24.749 C25.649,26.189 25.439,26.699 24.689,27.18 C23.909,27.719 22.739,28.049 21.719,28.049 C21.27,28.049 21.149,27.959 21.149,27.6 C21.119,26.488 20.85,25.889 20.22,25.439 C19.77,25.139 19.56,25.079 18.06,24.869 L18.089,24.479 C20.129,24.568 20.31,24.568 21.719,24.6 C22.379,24.6 22.469,24.539 22.469,24.089 L22.469,8.25 L17.159,8.25 L17.159,8.699 Z M6.84,16.319 C8.43,16.319 9.42,16.23 10.71,16.08 C10.439,15.39 10.319,15.209 9.87,14.609 C8.97,15.18 8.01,15.719 6.84,16.319 L6.84,16.319 Z M9.6,21.959 C9.75,21.18 9.81,20.729 9.81,20.039 C9.81,19.649 9.81,19.35 9.72,18.329 C12.989,18.629 12.989,18.629 12.989,18.899 C12.989,19.049 12.869,19.17 12.21,19.439 C12.18,22.02 11.819,23.34 10.83,24.539 C9.63,26.009 7.89,26.879 4.95,27.418 L4.83,27.148 C7.62,25.738 8.79,24.6 9.45,22.59 L7.89,22.59 L7.89,23.189 L7.89,23.249 C7.89,23.549 7.62,23.699 7.02,23.699 C6.75,23.699 6.51,23.729 6.39,23.729 L6.24,23.729 C5.67,23.729 5.49,23.639 5.46,23.34 C5.46,22.648 5.49,19.829 5.49,19.529 C5.49,19.23 5.49,19.02 5.46,18.659 C8.46,18.93 8.76,18.989 8.76,19.26 C8.76,19.469 8.489,19.649 7.89,19.799 L7.89,21.959 L9.6,21.959 Z M4.41,10.8 C5.25,11.07 5.61,11.22 6.3,11.609 C7.02,10.32 7.29,9.72 7.56,8.939 C8.819,9.39 8.819,9.39 10.02,9.959 C10.56,10.199 10.649,10.26 10.649,10.439 C10.649,10.649 10.409,10.77 9.989,10.77 C9.93,10.77 9.779,10.77 9.42,10.74 C8.609,11.369 8.1,11.699 7.14,12.209 C7.56,12.6 7.71,12.93 7.71,13.379 C7.71,14.16 7.02,14.969 6.33,14.969 C6,14.969 5.88,14.85 5.76,14.279 C5.49,12.959 4.89,11.67 4.229,11.01 L4.41,10.8 Z M16.229,22.59 C16.229,24.329 16.229,24.359 16.26,24.839 C16.289,25.409 16.289,25.799 16.289,25.889 L16.289,26.43 C16.26,26.939 16.05,27.059 15.18,27.09 C14.939,27.09 14.699,27.09 14.43,27.119 L14.249,27.119 C13.829,27.119 13.68,26.998 13.68,26.639 C13.71,25.318 13.71,23.43 13.71,21.119 C13.71,20.1 13.71,19.799 13.68,19.049 C13.56,19.199 13.47,19.26 13.38,19.26 C13.14,19.26 13.05,18.869 12.75,16.709 C12.659,17.52 12.119,18.209 11.55,18.209 C11.37,18.209 11.189,18.059 11.1,17.789 C11.069,17.67 11.069,17.67 10.89,16.709 C9.779,17.159 7.26,17.909 5.34,18.359 C5.28,18.539 5.28,18.539 5.189,18.93 C5.1,19.199 4.92,19.379 4.71,19.379 C4.38,19.379 4.35,19.26 3.87,16.289 C4.53,16.35 4.62,16.35 5.7,16.35 C6.87,15.39 9.359,12.569 10.17,11.279 C12.54,12.51 12.84,12.689 12.84,13.02 C12.84,13.199 12.659,13.319 12.329,13.319 C12.239,13.319 12.119,13.319 11.729,13.289 C10.979,13.859 10.71,14.039 10.14,14.43 C10.8,14.699 11.25,14.91 11.729,15.239 C12.359,15.66 12.569,15.869 12.72,16.319 C13.26,16.35 13.38,16.35 14.369,16.35 C15.959,14.879 15.959,14.879 17.069,13.439 C17.369,13.02 17.369,13.02 17.909,12.33 C18.239,11.91 18.359,11.73 18.659,11.189 C20.549,12.27 21.39,12.84 21.39,13.08 C21.39,13.23 21.209,13.35 20.939,13.35 C20.819,13.35 20.819,13.35 20.1,13.289 C19.05,14.25 18.659,14.52 17.249,15.42 C16.26,16.02 15.749,16.319 15.72,16.35 C17.279,16.319 18.27,16.289 19.56,16.17 C19.289,15.6 19.079,15.299 18.539,14.73 L18.779,14.43 C21.149,15.39 21.839,15.959 21.839,17.039 C21.839,17.909 21.329,18.689 20.759,18.689 C20.52,18.689 20.339,18.569 20.22,18.299 C20.129,18.059 20.1,18.029 19.949,17.369 C19.859,17.069 19.859,17.069 19.77,16.83 C18.209,17.43 16.619,17.879 13.92,18.48 C17.13,18.719 17.13,18.719 17.13,18.989 C17.13,19.17 16.949,19.289 16.26,19.559 L16.229,21.959 L18.029,21.959 L18.029,20.01 C18.029,19.319 18.029,19.17 17.97,18.75 C21.27,19.049 21.27,19.049 21.27,19.319 C21.27,19.5 21.149,19.59 20.459,19.92 C20.43,20.459 20.43,20.789 20.43,21.149 C20.43,21.239 20.43,21.27 20.459,22.169 L20.459,23.1 C20.459,23.489 20.129,23.609 19.02,23.609 C18.149,23.609 18.029,23.549 18.029,23.189 L18.029,22.59 L16.229,22.59 Z M3.269,7.619 L8.279,7.619 L8.279,5.279 L3.269,5.279 L3.269,7.619 Z M3.269,4.65 L8.279,4.65 L8.279,2.46 L3.269,2.46 L3.269,4.65 Z M3.27,8.25 L3.27,22.139 C3.27,22.469 3.27,23.489 3.3,25.409 C3.3,25.619 3.33,26.219 3.33,27.27 C3.3,27.719 3.18,27.84 2.67,27.93 C2.43,27.959 1.56,28.02 1.08,28.02 C0.24,28.02 0,27.898 0,27.51 L0,27.418 C0.12,23.129 0.18,16.709 0.18,9.029 C0.18,5.01 0.15,3.24 0,0.15 C1.47,0.811 1.95,1.02 3.479,1.83 L7.979,1.83 C8.729,1.05 8.97,0.84 9.689,0.15 C10.68,0.779 10.979,1.02 11.939,1.83 C12.149,1.98 12.239,2.1 12.239,2.25 C12.239,2.49 11.939,2.73 11.37,3 L11.37,4.8 L11.37,5.88 C11.37,6.6 11.37,6.6 11.399,7.619 L11.399,8.55 C11.37,8.789 11.31,8.91 11.159,8.97 C10.83,9.15 10.319,9.24 9.689,9.24 C8.609,9.24 8.279,9.119 8.279,8.76 L8.279,8.25 L3.27,8.25 Z" id="Fill-1" fill="#B62805" mask="url(#mask-2)"></path>
                <path d="M45.6904,11.6094 C50.6694,13.5004 52.3794,14.6994 52.3794,16.2294 C52.3794,17.4294 51.4194,18.8694 50.6394,18.8694 C50.2504,18.8694 50.0694,18.6594 49.5304,17.4594 C48.6294,15.5094 47.3394,13.7404 45.5404,11.9104 L45.6904,11.6094 Z M42.9604,19.0794 C46.5004,19.9784 48.4194,20.5484 49.9194,21.1794 C52.7694,22.3494 53.6394,23.2794 53.6394,25.1094 C53.6394,26.4294 53.0404,27.5094 52.3194,27.5094 C52.0194,27.5094 51.7504,27.3284 51.3594,26.8184 C48.4504,23.2494 47.0994,22.0794 42.8394,19.3494 L42.9604,19.0794 Z M40.8604,14.5194 C42.3304,12.3594 43.3204,10.2294 44.2504,7.4394 C45.1204,4.7994 45.5404,2.9394 45.6604,0.8394 C50.1894,1.6794 50.6694,1.7994 50.6694,2.1894 C50.6694,2.4294 50.2794,2.6704 49.5304,2.8804 C50.3094,4.7694 51.3594,6.2104 53.0094,7.7104 C54.5404,9.0894 55.7694,9.8094 57.8394,10.5294 L57.8094,10.7694 C56.9994,11.1894 56.5494,11.6994 56.0394,12.7794 C55.9194,12.9904 55.6794,13.6194 55.5894,13.8894 C55.5004,14.1604 55.4394,14.2504 55.3194,14.2504 C55.0194,14.2504 53.8794,13.1394 53.0094,11.9694 C51.3594,9.7794 50.0694,6.9004 49.0494,3.0894 C47.9104,6.1504 47.0094,7.9804 45.6604,9.9294 C44.4004,11.7594 43.1694,13.0484 41.0704,14.7594 L40.8604,14.5194 Z M38.1904,6.5704 C39.0304,5.5494 39.2704,5.2504 40.0804,4.3204 L42.9294,6.7194 C43.0204,6.8094 43.0804,6.9004 43.0804,6.9604 C43.0804,7.0804 42.9294,7.1994 42.7504,7.1994 L35.6404,7.1994 C35.5804,9.1794 35.5804,9.3594 35.4604,11.4594 L37.5304,11.4594 C38.1294,10.7094 38.3394,10.5004 39.0304,9.8094 C40.0204,10.4394 40.3204,10.6494 41.2504,11.3994 C41.5204,11.6094 41.6394,11.7294 41.6394,11.8494 C41.6394,12.0894 41.3704,12.3894 40.8304,12.6894 C40.3504,20.9094 39.9304,24.1484 39.1504,25.6484 C38.6104,26.7284 37.7994,27.2694 36.5404,27.5094 C36.2704,27.5394 35.7304,27.5994 35.4904,27.5994 C35.1004,27.5994 35.0104,27.5094 34.9804,26.9394 C34.9194,26.4294 34.7104,25.7384 34.4704,25.4684 C34.2004,25.1094 33.8404,24.8984 32.7004,24.4194 L32.7604,23.9994 C34.2904,24.2094 34.8004,24.2694 35.4304,24.2694 C36.0304,24.2694 36.2104,24.2094 36.3604,23.9684 C36.9604,23.0694 37.4704,18.8394 37.7704,12.0894 L35.4004,12.0894 C35.0104,16.0484 34.5604,18.5094 33.7804,20.6384 C32.7304,23.4594 31.0504,25.8884 28.6504,28.0484 L28.3804,27.8084 C30.4204,24.1794 31.3504,21.2694 31.8604,16.6194 C32.1904,13.7984 32.3104,11.1894 32.3404,7.1994 L31.0204,7.1994 C30.5704,7.1994 30.1804,7.2304 29.3104,7.3494 L29.0414,6.3304 C29.6104,6.4494 30.5104,6.5704 31.0204,6.5704 L33.2704,6.5704 L33.2704,3.2694 C33.2704,2.3704 33.2404,1.8594 33.1504,0.7794 C37.7994,1.2594 37.8604,1.2904 37.8604,1.7694 C37.8604,2.0704 37.6804,2.1894 36.6604,2.5194 L36.6604,6.5704 L38.1904,6.5704 Z" id="Fill-3" fill="#B62805" mask="url(#mask-2)"></path>
                <path d="M81.7197,25.8887 L84.1797,23.1597 C85.6187,24.3287 86.0387,24.7187 87.3897,26.0087 C87.5097,26.1587 87.5697,26.2477 87.5697,26.3087 C87.5697,26.4587 87.4487,26.5197 87.2097,26.5197 L71.1007,26.5197 C70.2597,26.5197 69.8107,26.5487 69.0307,26.6997 L68.8507,25.6187 C69.7197,25.8287 70.1997,25.8887 71.1007,25.8887 L76.1397,25.8887 L76.1397,4.1097 L72.6597,4.1097 C71.9997,4.1097 71.4007,4.1697 70.7407,4.2897 L70.5607,3.2097 C71.3397,3.4197 71.9097,3.4807 72.6297,3.4807 L81.2097,3.4807 C82.1987,2.3107 82.5297,1.9807 83.5197,0.8397 C84.9897,2.0097 85.4397,2.3697 86.7887,3.6297 C86.9087,3.7497 86.9697,3.8397 86.9697,3.9297 C86.9697,4.0497 86.8497,4.1097 86.6397,4.1097 L79.4997,4.1097 L79.4997,25.8887 L81.7197,25.8887 Z M67.5307,16.5297 C68.9997,17.5487 69.5097,17.9097 70.1997,18.5697 C71.1007,19.4097 71.6107,20.3687 71.6107,21.2397 C71.6107,22.4987 70.6507,23.8187 69.6907,23.8187 C69.4197,23.8187 69.2097,23.6387 69.1197,23.3397 C69.0307,23.0387 69.0307,23.0387 68.8507,21.4787 C68.7597,20.5487 68.5207,19.4097 68.1907,18.4497 C68.0107,17.8787 67.8297,17.5487 67.3207,16.7397 L67.5307,16.5297 Z M59.6997,4.1697 C60.8407,4.6507 61.2307,4.8297 62.0397,5.2797 C62.9997,3.2997 63.5707,1.6797 63.9007,-0.0003 C64.8907,0.3297 65.6697,0.5997 66.1507,0.7797 C67.8907,1.3497 68.3697,1.5897 68.3697,1.8597 C68.3697,2.1897 67.9807,2.3107 66.9007,2.3107 C65.1597,4.0197 64.3807,4.6797 62.8807,5.7597 C64.2607,6.7197 64.6507,7.1997 64.6507,8.0387 C64.6507,9.2087 63.8107,10.3497 62.9707,10.3497 C62.5507,10.3497 62.3407,10.0797 62.1007,9.3297 C61.4097,7.1697 60.7807,6.0607 59.4607,4.4697 L59.6997,4.1697 Z M64.0797,14.7297 C62.3697,15.1797 62.1007,15.2397 60.8107,15.4797 C60.6007,16.1697 60.4497,16.4097 60.2107,16.4097 C59.9097,16.4097 59.9097,16.4097 59.1307,12.6897 C60.2707,12.7797 60.6907,12.8097 61.2307,12.8097 C61.4407,12.8097 61.6807,12.8097 62.1007,12.7797 C63.3907,11.2497 63.9907,10.4697 64.8907,9.1507 C66.4807,6.8097 67.3797,5.2197 67.8607,3.8397 C68.7307,4.1997 69.3907,4.4997 69.8397,4.6797 C71.4907,5.3687 71.8507,5.5797 71.8507,5.8207 C71.8507,6.0897 71.5207,6.2407 70.8607,6.2407 L70.4097,6.2407 C67.9807,8.9097 65.9707,10.7407 63.3297,12.7197 C67.9497,12.5097 67.9497,12.5097 68.6107,12.4497 C68.1907,11.2197 67.9807,10.7997 67.2897,9.7797 L67.4997,9.5707 C69.0307,10.4697 69.5707,10.8297 70.3507,11.4587 C71.2807,12.2697 71.8507,13.1697 71.8507,13.9797 C71.8507,15.0297 70.8607,16.2597 69.9907,16.2597 C69.7497,16.2597 69.5097,16.0797 69.3907,15.8397 C69.2997,15.6287 69.2997,15.6287 69.0607,14.2497 C69.0307,13.9497 68.9697,13.7407 68.8797,13.4097 C68.0107,13.7087 67.6807,13.7987 66.9907,13.9797 L66.9907,20.0997 C66.9907,21.2987 67.0497,25.1097 67.1107,27.0587 C67.1107,27.3277 67.0797,27.4787 66.9907,27.5687 C66.7807,27.8087 66.1197,27.9297 65.0707,27.9297 C64.0507,27.9297 63.9307,27.8397 63.9007,27.3277 C64.0207,24.7797 64.0797,22.3197 64.0797,20.4297 L64.0797,18.6597 L63.5397,18.7187 C62.1307,22.7697 61.1707,24.5997 59.3107,27.0587 L58.9807,26.9087 C60.0607,23.4587 60.7207,19.7987 60.8107,16.8597 C62.5507,17.3097 63.1807,17.4897 64.0797,17.7887 L64.0797,14.7297 Z" id="Fill-4" fill="#B62805" mask="url(#mask-2)"></path>
                <path d="M109.41,12.84 L112.62,12.84 L112.62,10.14 L109.41,10.14 L109.41,12.84 Z M109.41,9.509 L112.62,9.509 L112.62,6.9 L109.41,6.9 L109.41,9.509 Z M103.53,12.84 L106.5,12.84 L106.5,10.14 L103.53,10.14 L103.53,12.84 Z M103.53,9.509 L106.5,9.509 L106.5,6.9 L103.53,6.9 L103.53,9.509 Z M93.87,22.619 L96.12,22.619 L96.12,12.059 L93.87,12.059 L93.87,22.619 Z M102.36,20.999 C104.64,21.6 104.94,21.689 105.78,22.109 C106.77,22.59 107.22,23.1 107.22,23.818 C107.22,24.148 107.13,24.449 106.95,24.809 C108.78,24.989 108.78,24.989 109.89,25.02 C110.189,24.989 110.279,24.93 110.279,24.689 L110.279,20.369 L101.67,20.369 C101.19,20.369 100.561,20.43 99.9,20.489 L99.69,19.529 C100.351,19.649 101.13,19.739 101.64,19.739 L110.279,19.739 C110.279,18.809 110.25,18.539 110.16,17.549 C111.899,17.789 111.899,17.789 112.109,17.819 C112.56,17.879 112.89,17.939 112.92,17.939 C113.67,18.029 113.97,18.149 113.97,18.42 C113.97,18.629 113.819,18.719 113.31,18.84 L113.31,19.739 L113.79,19.739 C114.27,19.079 114.42,18.869 114.96,18.209 L114.72,18.209 C114.329,18.209 114.18,18.059 113.79,17.31 C113.729,17.189 113.52,16.889 113.159,16.35 C110.88,16.889 109.53,17.159 107.58,17.52 C104.94,18.029 104.1,18.209 103.56,18.27 C102.12,18.51 102.12,18.51 101.61,18.6 C101.61,18.689 101.58,18.75 101.58,18.779 C101.43,19.35 101.25,19.619 101.01,19.619 C100.59,19.619 100.47,19.199 99.931,15.959 C101.04,16.08 101.67,16.109 102.87,16.109 C103.59,16.109 104.13,16.109 106.5,16.049 L106.5,13.47 L103.53,13.47 L103.53,14.219 C103.5,14.459 103.44,14.58 103.32,14.64 C103.11,14.76 102.36,14.879 101.73,14.879 C100.92,14.879 100.71,14.789 100.65,14.34 C100.68,13.319 100.68,12.959 100.68,12.39 C100.68,9.209 100.62,6.51 100.53,4.71 C101.94,5.369 102.39,5.58 103.68,6.27 L106.5,6.27 L106.5,4.02 L102.12,4.02 C101.49,4.02 101.13,4.05 100.47,4.17 L100.26,3.21 C100.23,3.3 100.141,3.359 99.99,3.359 L96.03,3.359 C95.46,6.63 94.83,8.64 93.57,11.189 L93.9,11.43 L95.91,11.43 C96.54,10.619 96.721,10.41 97.38,9.66 C98.37,10.379 98.67,10.619 99.57,11.43 C99.78,11.609 99.87,11.73 99.87,11.85 C99.87,12 99.811,12.09 99.601,12.24 C99.54,12.299 99.51,12.33 99.45,12.359 C99.33,12.449 99.15,12.569 98.94,12.72 C98.91,13.89 98.91,14.64 98.91,15.359 C98.91,15.6 98.91,17.159 98.94,17.34 C99.03,22.799 99.03,22.799 99.061,24.749 C99.03,25.109 98.97,25.229 98.73,25.318 C98.37,25.439 97.62,25.559 97.05,25.559 C96.33,25.559 96.12,25.439 96.12,24.989 L96.12,23.249 L93.87,23.249 L93.87,26.1 C93.841,26.398 93.78,26.549 93.631,26.639 C93.33,26.818 92.49,26.969 91.74,26.969 C91.11,26.969 90.931,26.85 90.841,26.43 C90.931,21.779 90.961,19.079 90.961,18.329 L90.961,15.39 C90.181,16.439 89.791,16.889 88.65,17.969 L88.381,17.819 C90.181,14.34 90.961,12.27 91.74,8.939 C92.221,6.9 92.431,5.58 92.61,3.359 L90.541,3.359 C90.061,3.359 89.73,3.391 89.131,3.51 L88.921,2.55 C89.461,2.67 90.091,2.73 90.541,2.73 L95.4,2.73 C96.391,1.561 96.391,1.561 97.32,0.54 C98.58,1.561 98.97,1.859 100.141,2.91 L100.26,3.12 C101.25,3.359 101.521,3.391 102.12,3.391 L106.5,3.391 C106.5,1.83 106.47,1.471 106.41,0.27 C109.38,0.51 109.56,0.54 109.92,0.63 C110.279,0.721 110.46,0.84 110.46,1.02 C110.46,1.29 110.189,1.471 109.41,1.74 L109.41,3.391 L112.439,3.391 C113.25,2.4 113.489,2.1 114.329,1.17 C115.59,2.16 115.979,2.46 117.09,3.51 C117.21,3.63 117.27,3.72 117.27,3.811 C117.27,3.96 117.149,4.02 116.939,4.02 L109.41,4.02 L109.41,6.27 L112.38,6.27 C113.04,5.58 113.25,5.4 113.909,4.8 C114.869,5.369 115.14,5.55 116.01,6.18 C116.249,6.39 116.34,6.51 116.34,6.66 C116.34,6.9 116.159,7.08 115.59,7.439 C115.56,8.369 115.56,8.91 115.56,9.51 C115.56,9.539 115.59,10.83 115.619,13.439 C115.619,13.859 115.439,14.01 114.779,14.1 C114.449,14.129 113.76,14.189 113.37,14.189 C112.8,14.189 112.62,14.069 112.62,13.68 L112.62,13.47 L109.41,13.47 L109.41,15.93 C111.569,15.81 111.899,15.81 112.62,15.719 C112.229,15.299 112.17,15.27 111.09,14.399 L111.21,14.129 C113.609,14.52 114.72,14.85 115.56,15.449 C116.01,15.75 116.189,16.08 116.189,16.68 C116.189,17.25 115.92,17.699 115.35,18.119 C116.01,18.629 116.34,18.93 117.359,19.949 C117.42,20.039 117.449,20.1 117.449,20.159 C117.449,20.309 117.359,20.369 117.18,20.369 L113.31,20.369 L113.31,22.77 C113.31,22.889 113.31,23.249 113.34,23.699 L113.34,25.559 C113.31,26.549 113.069,26.998 112.439,27.389 C111.75,27.779 110.489,28.109 109.71,28.109 C109.319,28.109 109.229,28.02 109.2,27.539 C109.05,26.219 108.45,25.648 106.71,25.229 C106.32,25.738 105.75,26.068 105.33,26.068 C104.88,26.068 104.79,25.919 104.43,24.898 C103.95,23.52 103.32,22.529 102.15,21.239 L102.36,20.999 Z" id="Fill-5" fill="#B62805" mask="url(#mask-2)"></path>
                <path d="M141.4795,2.4902 L125.4005,2.4902 C125.4005,2.7902 125.4305,2.9692 125.4305,3.1502 C125.4305,3.4202 125.4005,3.9602 125.3405,6.4802 L141.4795,6.4802 L141.4795,2.4902 Z M140.9695,10.0192 C141.7505,9.2402 141.7505,9.2402 142.8305,8.1892 L142.5295,8.1892 C141.6605,8.1892 141.5405,8.1302 141.4795,7.8002 L141.4795,7.1092 L125.3405,7.1092 L125.2805,10.0192 L140.9695,10.0192 Z M132.8095,21.6292 L127.5895,21.6292 C126.7505,21.6292 125.9705,21.6892 125.3405,21.8082 L125.1605,20.7602 C125.9105,20.9392 126.4805,20.9992 127.5895,20.9992 L132.7805,20.9992 L132.7805,19.1992 C132.7805,18.7502 132.7505,18.3882 132.6295,17.4292 C135.9295,17.6702 136.2595,17.6992 136.6495,17.8192 C136.9195,17.8792 137.0995,18.0292 137.0995,18.2092 C137.0995,18.4792 136.7695,18.6892 136.0495,18.8992 L136.0495,20.9992 L139.6495,20.9992 C140.6095,19.9782 140.9105,19.6792 141.8995,18.7192 C143.3095,19.7692 143.7295,20.0992 145.1395,21.2092 C145.2595,21.3292 145.3195,21.3882 145.3195,21.4782 C145.3195,21.5692 145.1995,21.6292 145.0195,21.6292 L136.0495,21.6292 L136.0495,26.0682 L141.2095,26.0682 C142.1995,24.9592 142.5295,24.6292 143.5195,23.6092 C144.9895,24.7192 145.4395,25.0792 146.8795,26.2792 C146.9995,26.3982 147.0595,26.4592 147.0595,26.5492 C147.0595,26.6382 146.9395,26.6992 146.7595,26.6992 L125.0105,26.6992 C123.8705,26.6992 123.2705,26.7602 122.5505,26.9082 L122.3705,25.7992 C123.3005,26.0092 123.9905,26.0682 124.9195,26.0682 L132.8095,26.0682 L132.8095,21.6292 Z M135.0595,10.6492 C133.6205,12.3592 132.1795,13.8302 130.7705,14.9692 C136.2295,14.8492 136.7095,14.8192 139.7695,14.5492 C138.8095,13.4692 138.2405,12.9592 136.9795,12.0002 L137.1295,11.7602 C140.4895,12.5392 142.1395,13.1092 143.4895,14.0102 C144.1795,14.4892 144.5095,15.0292 144.5095,15.6892 C144.5095,16.9202 143.6095,18.2992 142.8305,18.2992 C142.4695,18.2992 142.3195,18.1492 141.8095,17.2502 C141.3595,16.5292 141.1205,16.1702 140.4895,15.3892 C136.5595,16.3792 134.6695,16.7392 127.5605,17.8792 C127.4105,18.5992 127.2305,18.8992 126.9905,18.8992 C126.6295,18.8992 126.6005,18.8082 125.8505,14.9392 C126.7805,15.0292 127.1695,15.0592 127.7705,15.0592 C127.7995,15.0592 128.3705,15.0592 129.4805,15.0292 C130.0495,13.5002 130.4695,12.1492 130.7995,10.6492 L125.2805,10.6492 C125.0705,14.5492 124.7405,17.0102 124.0505,19.2892 C123.0605,22.5582 121.6505,24.9592 118.9805,27.7792 L118.6805,27.5682 C120.0905,24.7192 120.7805,22.4392 121.2905,18.9892 C121.7405,15.9892 121.9505,12.4202 121.9505,7.3492 C121.9505,4.1992 121.8905,2.0102 121.8005,0.0002 C123.5405,0.7502 124.0505,0.9902 125.7605,1.8592 L141.2395,1.8592 L142.8895,0.0602 C144.0295,0.8102 144.3595,1.0192 145.4095,1.8002 C145.6495,1.9802 145.7395,2.0702 145.7395,2.1892 C145.7395,2.4002 145.5295,2.5502 144.7795,2.9102 L144.7795,4.5902 C144.7795,5.5192 144.7795,6.2102 144.8395,7.5002 C144.7505,8.0102 144.5995,8.0702 143.3095,8.1892 C144.8995,9.3002 144.8995,9.3002 146.0995,10.2292 C146.2195,10.3492 146.2795,10.4102 146.2795,10.4692 C146.2795,10.5902 146.1295,10.6492 145.9495,10.6492 L135.0595,10.6492 Z" id="Fill-6" fill="#B62805" mask="url(#mask-2)"></path>
                <polygon id="Fill-7" fill="#B62805" mask="url(#mask-2)" points="167.1895 2.46 168.9895 2.46 159.0005 30.209 157.2005 30.209"></polygon>
                <path d="M190.4687,6.3897 L186.8097,16.1387 L193.8887,16.1387 L190.4687,6.3897 Z M185.5487,19.5897 C185.0997,20.7287 184.8897,21.6597 184.8897,22.3497 C184.8897,23.5197 185.7297,24.0587 187.7087,24.1187 L187.7087,24.8987 L179.9987,24.8987 L179.9987,24.1187 C181.9487,24.0887 183.0297,22.9187 184.3787,19.3787 L190.7687,2.4597 L192.9897,2.2207 L199.5287,20.6097 C200.2187,22.4687 200.7887,23.4297 201.4787,23.7887 C201.8087,23.9397 202.0777,23.9987 203.0687,24.1187 L203.0687,24.8987 L193.2887,24.8987 L193.2887,24.1187 C195.1787,24.0587 195.8687,23.6687 195.8687,22.6797 L195.8687,22.5897 C195.8387,22.1097 195.6887,21.3597 195.4187,20.6097 L194.2797,17.3097 L186.3897,17.3097 L185.5487,19.5897 Z" id="Fill-8" fill="#B62805" mask="url(#mask-2)"></path>
                <path d="M213.0889,24.0293 C216.8379,24.0293 218.7289,22.2283 218.7289,18.6593 C218.7289,16.6493 218.0379,15.0593 216.7779,14.2183 C215.9979,13.7093 214.7079,13.4103 213.2379,13.4103 L210.8089,13.4103 L210.8089,24.0293 L213.0889,24.0293 Z M213.3279,12.4493 C216.4479,12.4493 218.0989,10.8303 218.0989,7.7403 C218.0989,4.8003 216.4179,3.3303 213.1179,3.3303 L210.8089,3.3303 L210.8089,12.4493 L213.3279,12.4493 Z M204.2389,24.1193 C206.6689,24.0583 206.9389,23.7593 206.9389,20.9993 L206.9389,6.3593 C206.9389,3.5993 206.6389,3.2693 204.2389,3.2403 L204.2389,2.4603 L213.6289,2.4603 C219.5679,2.4603 222.2379,4.0503 222.2379,7.5593 C222.2379,10.7403 220.3779,12.2693 215.7879,12.7793 L215.7879,12.9903 C220.5879,13.2293 223.0189,15.1793 223.0189,18.8083 C223.0189,23.1293 220.1679,24.8983 213.1179,24.8983 L204.2389,24.8983 L204.2389,24.1193 Z" id="Fill-9" fill="#B62805" mask="url(#mask-2)"></path>
                <path d="M232.0186,21.749 C232.9786,23.609 234.5686,24.568 236.6986,24.568 C238.7986,24.568 240.3886,23.609 241.3486,21.749 C242.3986,19.709 242.8776,17.219 242.8776,13.68 C242.8776,10.17 242.3986,7.68 241.3486,5.64 C240.3586,3.75 238.8286,2.82 236.6986,2.82 C234.5686,2.82 232.9786,3.779 232.0186,5.64 C230.9686,7.68 230.4886,10.229 230.4886,13.68 C230.4886,17.189 230.9686,19.68 232.0186,21.749 M228.6596,5.55 C230.3986,3.3 233.3386,2.01 236.6986,2.01 C240.0286,2.01 242.9086,3.27 244.7076,5.55 C246.3586,7.59 247.2576,10.529 247.2576,13.68 C247.2576,16.859 246.3586,19.799 244.7076,21.84 C242.9086,24.089 240.0286,25.379 236.6986,25.379 C233.3686,25.379 230.4286,24.089 228.6596,21.84 C227.0396,19.799 226.1096,16.83 226.1096,13.68 C226.1096,10.529 227.0086,7.65 228.6596,5.55" id="Fill-10" fill="#B62805" mask="url(#mask-2)"></path>
                <path d="M258.6885,2.46 L258.6885,3.24 C256.3485,3.33 256.1085,3.63 256.1085,6.359 L256.1085,15.84 C256.1085,18.659 256.4095,20.34 257.1885,21.659 C258.1485,23.279 259.7985,24.148 261.9285,24.148 C264.4485,24.148 266.3985,22.949 267.2985,20.819 C267.7785,19.68 268.0485,17.789 268.0485,15.449 L268.0485,8.459 C268.0485,4.231 267.5385,3.391 264.9595,3.27 L264.9595,2.46 L272.3375,2.46 L272.3375,3.27 C269.8485,3.391 269.2785,4.35 269.2785,8.459 L269.2785,15.48 C269.2785,18.659 268.9485,20.459 268.0785,21.93 C266.6685,24.299 264.4485,25.379 261.0285,25.379 C257.6685,25.379 255.1195,24.359 253.6495,22.469 C252.5695,21.029 252.2095,19.619 252.2095,16.56 L252.2095,6.359 C252.2095,3.63 251.9685,3.33 249.5995,3.24 L249.5995,2.46 L258.6885,2.46 Z" id="Fill-11" fill="#B62805" mask="url(#mask-2)"></path>
                <path d="M285.0586,20.999 C285.0586,23.76 285.3586,24.059 288.1776,24.119 L288.1776,24.898 L278.0086,24.898 L278.0086,24.119 C280.7976,24.059 281.0986,23.76 281.0986,20.999 L281.0986,3.24 C278.4286,3.3 277.0186,3.779 275.9686,4.98 C275.1286,5.939 274.6186,7.47 274.1686,10.14 L273.0886,10.08 L273.6586,2.46 L292.5286,2.46 L293.0976,10.08 L292.0176,10.14 C291.5376,7.23 290.9376,5.67 289.9486,4.74 C288.8986,3.72 287.5476,3.3 285.0586,3.24 L285.0586,20.999 Z" id="Fill-12" fill="#B62805" mask="url(#mask-2)"></path>
                <path d="M313.3477,2.46 L313.3477,3.24 C311.0077,3.33 310.7687,3.63 310.7687,6.359 L310.7687,15.84 C310.7687,18.659 311.0687,20.34 311.8477,21.659 C312.8077,23.279 314.4577,24.148 316.5877,24.148 C319.1077,24.148 321.0577,22.949 321.9577,20.819 C322.4377,19.68 322.7077,17.789 322.7077,15.449 L322.7077,8.459 C322.7077,4.231 322.1977,3.391 319.6187,3.27 L319.6187,2.46 L326.9967,2.46 L326.9967,3.27 C324.5077,3.391 323.9377,4.35 323.9377,8.459 L323.9377,15.48 C323.9377,18.659 323.6077,20.459 322.7377,21.93 C321.3267,24.299 319.1077,25.379 315.6877,25.379 C312.3277,25.379 309.7787,24.359 308.3087,22.469 C307.2287,21.029 306.8687,19.619 306.8687,16.56 L306.8687,6.359 C306.8687,3.63 306.6277,3.33 304.2587,3.24 L304.2587,2.46 L313.3477,2.46 Z" id="Fill-13" fill="#B62805" mask="url(#mask-2)"></path>
                <path d="M329.1582,17.8496 L330.3572,17.8496 C330.7772,22.3496 332.5772,24.4786 335.9372,24.4786 C338.5772,24.4786 340.1672,22.9186 340.1672,20.3396 C340.1672,18.2986 338.9972,17.0696 335.2472,15.2396 C332.6972,14.0096 332.0082,13.6196 331.3172,13.1096 C329.6072,11.8496 328.8572,10.4106 328.8572,8.3396 C328.8572,5.8796 330.2082,3.7496 332.3972,2.7306 C333.4182,2.2496 334.6172,2.0396 336.2372,2.0396 C337.2272,2.0396 337.6472,2.0996 339.8972,2.5496 C340.3172,2.6406 340.6472,2.6696 340.9472,2.6696 C341.4282,2.6696 341.8472,2.5796 342.7472,2.2496 L342.5072,8.9696 L341.3072,8.9696 C341.1872,7.2596 340.9172,6.2406 340.2872,5.2196 C339.3872,3.6896 337.9172,2.8496 336.1472,2.8496 C333.8382,2.8496 332.2482,4.4396 332.2482,6.7496 C332.2482,7.7406 332.5772,8.6096 333.2372,9.2696 C333.9872,9.9906 334.7372,10.4396 337.1372,11.5796 C339.8072,12.8096 341.0972,13.6196 342.1172,14.6396 C343.1372,15.6896 343.6772,17.0696 343.6772,18.8086 C343.6772,20.8496 342.9272,22.5896 341.5772,23.6386 C340.1672,24.7486 338.2772,25.3496 336.0882,25.3496 C334.8872,25.3496 334.1682,25.2596 332.0382,24.8386 C331.6782,24.7796 331.2882,24.7486 330.8972,24.7486 C330.3872,24.7486 329.9982,24.8086 328.9182,25.0196 L329.1582,17.8496 Z" id="Fill-14" fill="#B62805" mask="url(#mask-2)"></path>
            </g>
        </g>
    </g>
</svg>