<?xml version="1.0" encoding="UTF-8" standalone="no"?>
<svg width="267px" height="31px" viewBox="0 0 267 31" version="1.1" xmlns="http://www.w3.org/2000/svg" xmlns:xlink="http://www.w3.org/1999/xlink">
    <!-- Generator: Sketch 40.2 (33826) - http://www.bohemiancoding.com/sketch -->
    <title>title03_rooms</title>
    <desc>Created with Sketch.</desc>
    <defs>
        <polygon id="path-1" points="28.5389 0.311 0.4599 0.311 0.4599 28.7504 28.5389 28.7504 28.5389 0.311"></polygon>
        <polygon id="path-3" points="0 31.6895 266.937 31.6895 266.937 1.0005 0 1.0005"></polygon>
    </defs>
    <g id="紅磚屋_UI-KIT" stroke="none" stroke-width="1" fill="none" fill-rule="evenodd">
        <g id="UI-KIT" transform="translate(-1006.000000, -203.000000)">
            <g id="title03_rooms" transform="translate(1006.000000, 202.000000)">
                <path d="M10.9795,10.2999 C10.5305,10.8099 10.3495,10.9899 9.9295,11.4099 C10.9505,12.5499 11.8795,13.2699 13.4395,14.2299 C14.9095,13.0299 15.9295,11.9199 17.1595,10.2999 L10.9795,10.2999 L10.9795,10.2999 Z M8.5195,26.9489 L18.6595,26.9489 L18.6595,21.1299 L8.5195,21.1299 L8.5195,26.9489 L8.5195,26.9489 Z M18.4495,20.4999 C19.0795,19.9299 19.0795,19.9299 19.6795,19.3899 C17.6095,18.6399 15.9895,17.8299 14.3395,16.6899 C12.3305,17.9489 10.5305,18.8199 7.7995,19.7499 C8.1295,20.0199 8.3095,20.1399 8.7595,20.4999 L18.4495,20.4999 L18.4495,20.4999 Z M17.3395,9.6699 C17.9695,8.9499 18.1495,8.7399 18.8395,8.0499 C20.6095,9.3099 20.6095,9.3099 21.0895,9.6999 C21.6285,8.6199 21.8395,8.0799 22.3195,6.4299 L4.6505,6.4299 C4.6795,6.6699 4.6795,6.8799 4.6795,6.9699 C4.6795,8.3499 4.4695,9.3399 3.9905,10.2099 C3.4805,11.1699 2.6405,11.7699 1.8305,11.7699 C0.9305,11.7699 0.1805,10.7799 0.1805,9.5499 C0.1805,8.8609 0.2995,8.6509 1.1695,8.1109 C3.0895,6.9099 3.6905,5.8609 3.7505,3.8209 L4.2005,3.7599 C4.4695,4.6909 4.5305,5.0209 4.6205,5.7999 L11.8795,5.7999 L11.8795,3.8799 C11.8795,3.1599 11.8495,2.7099 11.7295,1.7799 C16.0195,2.1109 16.6495,2.2309 16.6495,2.6809 C16.6495,3.0399 16.2295,3.2499 15.3305,3.4309 L15.3305,5.7999 L22.1095,5.7999 C22.9795,4.8699 22.9795,4.8699 23.9395,3.8509 C25.4685,4.9599 25.9495,5.3209 27.5085,6.4599 C27.7495,6.7309 27.8095,6.7899 27.8095,6.9099 C27.8095,7.1509 27.5995,7.2999 27.2695,7.3899 C27.1495,7.3899 27.1495,7.3899 26.2495,7.4499 C25.9795,7.4499 25.9495,7.4499 25.5885,7.5099 C24.1495,8.5599 22.8595,9.4009 21.5995,10.0899 L21.9295,10.3609 C22.1685,10.5709 22.2595,10.6899 22.2595,10.8099 C22.2595,11.1699 21.9585,11.2299 20.5495,11.3209 C18.8395,13.2699 17.9695,14.1099 16.0805,15.4889 C19.2595,16.7199 23.2195,17.3499 27.8995,17.3499 L27.8995,17.7099 C26.9395,18.1299 26.5485,18.4599 26.0995,19.3289 C25.8895,19.7499 25.7985,19.9889 25.6495,20.5289 C25.5595,20.8289 25.4395,20.9489 25.1995,20.9489 C24.8095,20.9489 23.1895,20.5289 21.3895,19.9599 C21.8095,20.3199 21.8995,20.3799 22.4095,20.8289 C22.6795,21.0389 22.7695,21.1589 22.7695,21.3399 C22.7695,21.5789 22.4995,21.7599 21.8695,21.9699 L21.8695,23.7999 C21.8695,25.4799 21.8995,26.6499 21.9295,28.4489 C21.9585,28.5389 21.9585,28.6289 21.9585,28.6899 C21.9585,29.2889 21.5095,29.4089 19.5295,29.4089 C18.8395,29.4089 18.6595,29.2589 18.6595,28.6899 L18.6595,27.5789 L8.5195,27.5789 L8.5195,28.5999 C8.4595,29.2889 8.0995,29.4689 6.5705,29.4689 C5.4295,29.4689 5.1605,29.3499 5.1605,28.7789 L5.1605,28.6589 C5.2195,27.3389 5.3095,24.7889 5.3095,23.4399 L5.3095,20.5599 C3.7805,21.0099 2.4295,21.2789 0.1205,21.6099 L0.0005,21.3099 C4.9195,19.6589 8.7005,17.7389 12.2995,15.0999 C10.9505,13.8399 10.3205,13.1199 9.5095,11.8299 C6.6905,14.4699 4.5605,15.7599 0.9005,17.0499 L0.7505,16.8099 C3.2405,14.9499 4.7705,13.5099 6.5095,11.3799 C7.9795,9.6109 8.7005,8.4099 9.3895,6.7309 C11.0095,7.0609 11.7905,7.2099 12.5995,7.4199 C12.8395,7.4809 13.0195,7.5099 13.1095,7.5099 C13.6495,7.6299 13.8895,7.7799 13.8895,7.9899 C13.8895,8.3209 13.4105,8.4999 12.2995,8.6509 C11.9105,9.1599 11.7595,9.3399 11.4905,9.6699 L17.3395,9.6699 L17.3395,9.6699 Z" id="Fill-1" fill="#B62805"></path>
                <g id="Group-5" transform="translate(29.000000, 0.689500)">
                    <mask id="mask-2" fill="white">
                        <use xlink:href="#path-1"></use>
                    </mask>
                    <g id="Clip-4"></g>
                    <path d="M22.6289,6.9404 L7.4199,6.9404 C7.3899,8.8004 7.3899,9.4614 7.3599,10.5404 L22.6289,10.5404 L22.6289,6.9404 Z M1.4499,2.4114 C2.4099,2.6214 3.1299,2.7114 4.0299,2.7114 L22.4189,2.7114 C23.3789,1.6614 23.6799,1.3314 24.6689,0.3104 C26.2889,1.3604 26.7699,1.7204 28.2699,2.8604 C28.4189,2.9804 28.4799,3.0704 28.4799,3.1614 C28.4799,3.2804 28.3589,3.3404 28.1189,3.3404 L4.0299,3.3404 C3.1599,3.3404 2.5899,3.4004 1.6909,3.5504 L1.4499,2.4114 Z M13.8399,15.6404 L13.8399,14.1404 C13.8399,13.5704 13.8099,13.0904 13.7199,12.0704 C14.6199,12.1304 15.3399,12.1904 15.7899,12.2204 C17.7099,12.3704 18.1899,12.4904 18.1899,12.8204 C18.1899,13.0904 17.8589,13.3004 17.0799,13.5404 L17.0799,15.6404 L22.9889,15.6404 L25.0889,13.3304 C26.5289,14.4104 26.9799,14.7404 28.3889,15.8504 C28.5089,15.9704 28.5389,16.0304 28.5389,16.1204 C28.5389,16.2104 28.4189,16.2704 28.2389,16.2704 L16.2699,16.2704 C16.0899,17.9194 16.0599,18.2504 15.8499,19.2104 L22.1189,19.2104 C22.8099,18.4604 23.0499,18.2194 23.7699,17.5304 C24.8499,18.2504 25.1799,18.4604 26.1989,19.2104 C26.4689,19.4194 26.5599,19.5704 26.5599,19.7194 C26.5599,19.9904 26.2889,20.2004 25.5689,20.5594 C24.9699,25.5094 24.3999,27.0694 22.8689,27.8794 C22.0899,28.3304 20.7699,28.5994 19.4799,28.5994 C19.1799,28.5994 19.0899,28.5094 19.0289,28.2394 C18.8189,26.7404 17.9199,26.2004 14.3189,25.3304 L14.3189,24.9104 C18.9999,25.3304 19.3589,25.3594 20.1699,25.3594 C21.0099,25.3594 21.2489,25.1794 21.5499,24.4904 C21.9089,23.5894 22.1799,21.9104 22.2999,19.8394 L15.6989,19.8394 C15.1299,21.8494 14.2599,23.3204 12.8499,24.6394 C10.6899,26.6794 8.3199,27.7904 4.0899,28.7504 L3.9699,28.3894 C8.0199,26.4394 10.2399,24.4904 11.5599,21.7304 C12.2499,20.2594 12.6089,18.7904 12.8499,16.2704 L7.0599,16.2704 C6.8199,18.7304 6.4299,20.2904 5.7099,22.1204 C4.6599,24.6694 3.5209,26.1394 0.6999,28.6294 L0.4599,28.4194 C2.1699,25.5094 2.7399,23.9504 3.2799,20.9504 C3.7599,18.2194 3.9699,14.5894 3.9699,9.3404 C3.9699,7.2704 3.9409,6.3104 3.8199,4.5104 C5.5899,5.2004 6.1599,5.4404 7.9299,6.3104 L22.3899,6.3104 C23.0789,5.5304 23.2889,5.2914 24.0389,4.5414 C25.1799,5.2914 25.5089,5.5304 26.5599,6.2804 C26.8289,6.5204 26.9189,6.6404 26.9189,6.7604 C26.9189,6.9704 26.7089,7.1204 25.9299,7.5104 C25.9299,9.2204 25.9299,9.2204 26.0199,11.7704 C26.0199,12.1004 25.9589,12.2504 25.8099,12.3404 C25.5389,12.5504 24.8499,12.6404 23.7089,12.6404 C22.8099,12.6404 22.6289,12.5204 22.6289,12.0104 L22.6289,11.1704 L7.3299,11.1704 C7.2699,13.3004 7.2099,14.3504 7.0899,15.6404 L13.8399,15.6404 Z" id="Fill-3" fill="#B62805" mask="url(#mask-2)"></path>
                </g>
                <mask id="mask-4" fill="white">
                    <use xlink:href="#path-3"></use>
                </mask>
                <g id="Clip-7"></g>
                <path d="M81.119,9.0095 L82.89,9.0095 L82.89,4.0895 L81.119,4.0895 L81.119,9.0095 Z M78.869,19.2395 C79.56,20.4395 80.159,21.1595 81.39,22.2095 C82.499,21.3395 83.01,20.8295 83.699,19.9295 L83.43,19.9295 L83.01,19.9605 C82.439,19.9605 82.229,19.8095 82.229,19.4195 L82.229,19.2995 L82.229,19.2395 L78.869,19.2395 Z M76.769,9.0095 L78.539,9.0095 L78.539,4.0895 L76.769,4.0895 L76.769,9.0095 Z M73.229,18.6095 L82.229,18.6095 L82.229,14.9795 L73.229,14.9795 L73.229,18.6095 Z M72.479,9.0095 L74.189,9.0095 L74.189,4.0895 L72.479,4.0895 L72.479,9.0095 Z M83.549,12.8495 C84.6,13.5695 84.899,13.7805 85.859,14.4695 C86.129,14.6495 86.219,14.7995 86.219,14.9195 C86.219,15.1605 86.009,15.3395 85.259,15.6395 C85.259,16.1495 85.289,17.3195 85.319,19.1795 C85.319,19.5695 85.169,19.7195 84.689,19.8395 C87.299,21.5195 87.329,21.5495 87.329,21.7595 C87.329,21.9395 87.149,22.0595 86.909,22.0595 C86.759,22.0595 86.429,21.9995 85.919,21.9095 C84.27,22.3595 83.52,22.5395 82.109,22.7495 C83.85,23.9795 86.069,24.8495 88.529,25.1795 L88.499,25.4495 C87.359,26.0195 86.85,26.6795 86.31,28.2095 C86.249,28.3895 86.159,28.4495 86.039,28.4495 C85.77,28.4495 85.049,28.0295 84.239,27.3995 C81.749,25.5095 80.1,23.3195 78.51,19.7195 L78.6,24.0095 C78.63,26.6195 78.63,26.6195 78.689,28.8695 C78.659,29.1395 78.6,29.2585 78.479,29.3495 C78.239,29.4685 77.52,29.5885 76.68,29.5885 L76.38,29.5885 L76.26,29.5885 C75.689,29.5885 75.449,29.4095 75.449,29.0195 L75.449,28.8695 C75.51,26.9185 75.54,26.1095 75.569,24.6395 L75.6,22.2395 C73.89,23.8595 72.39,24.8495 69.87,26.1095 C68.1,26.9795 66.72,27.5195 64.47,28.2095 L64.32,27.9095 C67.11,26.4095 68.88,25.2095 71.16,23.2895 C72.87,21.8195 73.8,20.8895 75.149,19.2395 L73.229,19.2395 L73.229,19.6895 C73.2,19.9605 73.109,20.1095 72.96,20.1695 C72.689,20.2895 71.939,20.3795 70.92,20.3795 C70.29,20.3795 70.109,20.2295 70.109,19.7795 L70.109,19.7505 C70.17,17.5005 70.2,16.5695 70.2,15.6095 C70.2,14.6495 70.17,14.1095 70.14,12.9695 C71.64,13.5095 72.09,13.6895 73.5,14.3495 L81.989,14.3495 L83.549,12.8495 Z M82.589,3.4605 C83.279,2.7105 83.489,2.5005 84.18,1.7805 C85.229,2.5005 85.56,2.7105 86.549,3.4605 C86.85,3.7005 86.969,3.8505 86.969,4.0305 C86.969,4.2705 86.759,4.4505 86.009,4.8395 C86.009,6.7305 86.039,7.4805 86.1,9.6105 C86.1,10.0595 85.979,10.1795 85.499,10.2995 C86.699,11.2295 86.699,11.2295 87.659,11.9505 C87.749,12.0705 87.779,12.1295 87.779,12.1895 C87.779,12.2805 87.689,12.3395 87.509,12.3395 L71.28,12.3395 C70.53,12.3395 70.17,12.3705 69.479,12.4605 L69.27,11.4695 C69.96,11.6495 70.53,11.7105 71.28,11.7105 L83.129,11.7105 C83.789,11.0805 84.06,10.8095 84.479,10.4195 C84.209,10.4505 83.97,10.4505 83.819,10.4505 C83.129,10.4505 82.919,10.3305 82.89,9.9405 L82.89,9.6395 L72.479,9.6395 L72.479,10.0005 C72.45,10.2995 72.39,10.4195 72.21,10.5095 C71.91,10.6295 71.04,10.7195 70.29,10.7195 C69.6,10.7195 69.36,10.5405 69.36,10.0305 L69.36,9.9695 C69.42,6.8205 69.42,6.8205 69.42,4.6605 L69.09,4.7505 L65.94,4.7505 L65.94,12.3705 L66.18,12.3705 C66.75,11.6495 66.9,11.4395 67.47,10.6895 C68.31,11.5005 68.55,11.7695 69.3,12.6395 C69.36,12.7005 69.39,12.7905 69.39,12.8495 C69.39,12.9395 69.3,13.0005 69.12,13.0005 L65.94,13.0005 L65.94,20.2895 C67.47,19.8395 67.979,19.6595 69.3,19.1195 L69.479,19.4495 C67.5,21.1295 66.21,21.9995 61.71,24.6685 C61.62,25.6595 61.5,26.0195 61.23,26.0195 C60.9,26.0195 60.601,25.2695 59.58,21.7295 C60.69,21.6095 61.05,21.5495 62.82,21.1295 L62.82,13.0005 L61.891,13.0005 C61.29,13.0005 60.931,13.0305 60.21,13.1205 L60.03,12.1295 C60.811,12.3095 61.2,12.3705 61.86,12.3705 L62.82,12.3705 L62.82,4.7505 L61.62,4.7505 C60.9,4.7505 60.601,4.7805 59.94,4.8705 L59.761,3.8795 C60.51,4.0605 60.99,4.1205 61.62,4.1205 L65.1,4.1205 C65.79,3.2205 66,2.9195 66.75,2.0205 C67.89,2.9805 68.22,3.2805 69.33,4.3305 L69.42,4.4505 C69.42,3.4305 69.42,3.0095 69.39,1.7805 C70.859,2.4705 71.31,2.6805 72.689,3.4605 L82.589,3.4605 Z" id="Fill-6" fill="#B62805" mask="url(#mask-4)"></path>
                <path d="M103.2,19.9605 L111.719,19.9605 L111.719,16.9895 L103.2,16.9895 L103.2,19.9605 Z M103.2,16.3595 L111.719,16.3595 L111.719,13.5095 L103.2,13.5095 L103.2,16.3595 Z M103.2,21.0395 C106.979,21.5795 107.13,21.6095 107.13,21.9695 C107.13,22.2395 106.949,22.3295 106.08,22.5695 C105.09,25.1795 103.8,26.6195 101.43,27.7895 C99.51,28.7495 97.86,29.1395 94.32,29.4995 L94.26,29.1095 C97.47,28.0885 99.39,27.0695 100.83,25.6285 C101.97,24.4595 102.569,23.3195 102.84,21.6395 C102.359,21.7595 102.029,21.7895 101.189,21.7895 C100.17,21.7895 99.99,21.6995 99.99,21.1295 C100.05,18.9095 100.08,17.6795 100.08,14.8305 C100.08,13.3595 100.05,12.5195 99.99,11.2295 C101.55,11.8895 102.029,12.0995 103.529,12.8795 L111.479,12.8795 C112.169,12.1605 112.379,11.9505 113.009,11.2905 C114.059,11.9505 114.359,12.1605 115.349,12.8205 C115.649,13.0595 115.739,13.1495 115.739,13.3305 C115.739,13.5695 115.559,13.7195 114.839,14.0805 C114.839,17.7105 114.839,18.4295 114.929,20.7105 C114.929,20.9495 114.899,21.0695 114.839,21.1595 C114.659,21.3995 113.999,21.5195 112.649,21.5195 C111.81,21.5195 111.749,21.4895 111.719,21.0995 L111.719,20.5895 L111.119,20.5895 L111.119,25.3595 C111.119,26.0195 111.119,26.0195 112.979,26.0195 C114.119,26.0195 114.509,25.8995 114.809,25.4495 C115.139,24.9695 115.439,24.2195 116.669,20.5895 L116.999,20.6495 L116.729,24.5795 C116.699,24.8785 116.699,25.0885 116.699,25.1195 C116.699,25.3895 116.789,25.4795 117.119,25.6595 C117.719,25.9595 117.989,26.3785 117.989,26.9795 C117.989,27.6995 117.539,28.2985 116.879,28.5085 C116.159,28.7495 114.419,28.8695 112.139,28.8695 C108.479,28.8695 107.939,28.6285 107.939,26.9185 L107.939,26.8295 L107.939,23.6495 L107.939,20.5895 L103.2,20.5895 L103.2,21.0395 Z M100.92,5.6205 C100.26,5.6205 99.72,5.6795 99.149,5.7995 L98.97,4.7505 C99.75,4.9295 100.29,4.9905 100.92,4.9905 L105.659,4.9905 L105.659,3.8205 C105.659,3.0705 105.63,2.5895 105.569,1.6005 C109.59,1.9005 109.68,1.9305 110.069,2.1405 C110.159,2.2005 110.249,2.3505 110.249,2.4405 C110.249,2.7105 109.919,2.8905 108.899,3.1905 L108.899,4.9905 L112.199,4.9905 C113.069,4.0005 113.339,3.7305 114.179,2.7995 C115.589,3.8205 116.009,4.1205 117.269,5.2305 C117.389,5.3205 117.419,5.4105 117.419,5.4695 C117.419,5.5605 117.329,5.6205 117.089,5.6205 L110.759,5.6205 C113.609,6.6105 114.119,6.8205 114.119,7.1505 C114.119,7.4195 113.849,7.5095 112.859,7.5705 C111.629,8.7105 110.999,9.2805 109.739,10.1795 L112.859,10.1795 C113.879,9.0995 113.879,9.0995 114.899,7.9905 C116.249,8.9805 116.639,9.3095 117.839,10.4195 C117.959,10.5095 117.989,10.5995 117.989,10.6605 C117.989,10.7505 117.869,10.8095 117.688,10.8095 L96.15,10.8095 L96.15,19.4195 C97.41,19.0895 98.04,18.9095 99.78,18.3395 L99.93,18.6695 C97.44,20.5005 94.71,22.2695 91.86,23.8595 C91.8,24.9995 91.681,25.2995 91.38,25.2995 C91.021,25.2995 91.021,25.2995 89.641,20.7695 C90.9,20.6495 91.53,20.5295 92.97,20.2295 L92.97,10.8095 L91.2,10.8095 C90.69,10.8095 90.21,10.8705 89.641,10.9905 L89.49,9.9405 C90.12,10.0895 90.66,10.1795 91.2,10.1795 L92.97,10.1795 L92.97,6.4605 C92.97,4.8395 92.94,3.9405 92.82,2.1695 C93.78,2.2605 94.53,2.3205 95.01,2.3505 C97.02,2.5005 97.44,2.6205 97.44,2.9805 C97.44,3.2805 97.08,3.4905 96.15,3.7305 L96.15,10.1795 L96.45,10.1795 L97.89,8.3205 C98.76,9.1295 98.88,9.2805 99.72,10.1795 L103.319,10.1795 C103.05,9.7595 103.05,9.7595 102.75,8.0495 C102.6,7.2405 102.39,6.7305 101.91,5.8605 L102.21,5.6205 C104.939,6.7595 105.84,7.4805 105.84,8.5005 C105.84,9.0995 105.42,9.7595 104.76,10.1795 L108.449,10.1795 C109.229,8.5595 109.739,7.1205 110.069,5.6205 L100.92,5.6205 Z" id="Fill-8" fill="#B62805" mask="url(#mask-4)"></path>
                <polygon id="Fill-9" fill="#B62805" mask="url(#mask-4)" points="138.0898 3.9405 139.8898 3.9405 129.9008 31.6895 128.1008 31.6895"></polygon>
                <path d="M159.7793,14.92 C163.3493,14.92 165.2693,13.12 165.2693,9.76 C165.2693,6.4 163.5593,4.811 159.9893,4.811 L158.1593,4.811 L158.1593,14.92 L159.7793,14.92 Z M158.1593,22.51 C158.1593,25.239 158.3993,25.51 160.8593,25.6 L160.8593,26.379 L151.5593,26.379 L151.5593,25.6 C154.0193,25.51 154.2593,25.239 154.2593,22.51 L154.2593,7.84 C154.2593,5.11 154.0193,4.84 151.6793,4.72 L151.6793,3.941 L160.8593,3.941 C163.3793,3.941 165.4793,4.271 166.6793,4.84 C168.5693,5.74 169.4393,7.18 169.4393,9.4 C169.4393,13.03 167.1893,14.92 162.4493,15.279 L162.4493,15.52 C164.0093,15.7 165.0893,16.18 166.1693,17.109 C167.1593,17.949 167.6693,18.88 169.1093,22.239 C170.2793,24.97 170.7893,25.539 172.1993,25.659 L172.1993,26.379 L166.2893,26.379 C164.8793,22.18 164.0393,19.96 163.1693,18.279 C162.2093,16.42 161.2793,15.79 159.3593,15.79 L158.1593,15.79 L158.1593,22.51 Z" id="Fill-10" fill="#B62805" mask="url(#mask-4)"></path>
                <path d="M179.9687,23.2295 C180.9287,25.0885 182.5187,26.0485 184.6487,26.0485 C186.7487,26.0485 188.3387,25.0885 189.2987,23.2295 C190.3487,21.1895 190.8277,18.6995 190.8277,15.1605 C190.8277,11.6495 190.3487,9.1605 189.2987,7.1205 C188.3087,5.2305 186.7787,4.2995 184.6487,4.2995 C182.5187,4.2995 180.9287,5.2595 179.9687,7.1205 C178.9187,9.1605 178.4387,11.7095 178.4387,15.1605 C178.4387,18.6695 178.9187,21.1595 179.9687,23.2295 M176.6097,7.0305 C178.3487,4.7805 181.2887,3.4905 184.6487,3.4905 C187.9787,3.4905 190.8587,4.7505 192.6577,7.0305 C194.3087,9.0705 195.2077,12.0095 195.2077,15.1605 C195.2077,18.3395 194.3087,21.2795 192.6577,23.3195 C190.8587,25.5695 187.9787,26.8595 184.6487,26.8595 C181.3187,26.8595 178.3787,25.5695 176.6097,23.3195 C174.9897,21.2795 174.0597,18.3095 174.0597,15.1605 C174.0597,12.0095 174.9587,9.1295 176.6097,7.0305" id="Fill-11" fill="#B62805" mask="url(#mask-4)"></path>
                <path d="M204.4189,23.2295 C205.3789,25.0885 206.9689,26.0485 209.0989,26.0485 C211.1989,26.0485 212.7889,25.0885 213.7489,23.2295 C214.7989,21.1895 215.2779,18.6995 215.2779,15.1605 C215.2779,11.6495 214.7989,9.1605 213.7489,7.1205 C212.7589,5.2305 211.2289,4.2995 209.0989,4.2995 C206.9689,4.2995 205.3789,5.2595 204.4189,7.1205 C203.3689,9.1605 202.8889,11.7095 202.8889,15.1605 C202.8889,18.6695 203.3689,21.1595 204.4189,23.2295 M201.0599,7.0305 C202.7989,4.7805 205.7389,3.4905 209.0989,3.4905 C212.4289,3.4905 215.3089,4.7505 217.1079,7.0305 C218.7589,9.0705 219.6579,12.0095 219.6579,15.1605 C219.6579,18.3395 218.7589,21.2795 217.1079,23.3195 C215.3089,25.5695 212.4289,26.8595 209.0989,26.8595 C205.7689,26.8595 202.8289,25.5695 201.0599,23.3195 C199.4399,21.2795 198.5099,18.3095 198.5099,15.1605 C198.5099,12.0095 199.4089,9.1295 201.0599,7.0305" id="Fill-12" fill="#B62805" mask="url(#mask-4)"></path>
                <path d="M226.168,20.4092 C226.168,22.6592 226.318,23.7392 226.708,24.4592 C227.189,25.2392 227.788,25.5102 229.288,25.5992 L229.288,26.3792 L221.818,26.3792 L221.818,25.5992 C224.339,25.4492 224.939,24.4302 224.939,20.4092 L224.939,7.7802 C224.939,6.1602 224.788,5.5602 224.278,5.1702 C223.919,4.8402 223.498,4.7502 222.328,4.7202 L222.328,3.9402 L229.498,3.9402 L236.068,20.8592 L242.728,3.9402 L249.598,3.9402 L249.598,4.7202 C247.197,4.8102 246.987,5.0802 246.987,7.8702 L246.987,22.5102 C246.987,25.2392 247.228,25.5392 249.688,25.5992 L249.688,26.3792 L240.418,26.3792 L240.418,25.5992 C242.848,25.5392 243.118,25.2392 243.118,22.5102 L243.118,5.9502 L235.378,25.8092 L233.818,25.8092 L226.168,6.1902 L226.168,20.4092 Z" id="Fill-13" fill="#B62805" mask="url(#mask-4)"></path>
                <path d="M252.4189,19.3291 L253.6179,19.3291 C254.0379,23.8291 255.8379,25.9591 259.1979,25.9591 C261.8379,25.9591 263.4279,24.3991 263.4279,21.8191 C263.4279,19.7791 262.2579,18.5501 258.5079,16.7201 C255.9579,15.4891 255.2689,15.1001 254.5779,14.5901 C252.8679,13.3301 252.1179,11.8901 252.1179,9.8201 C252.1179,7.3601 253.4689,5.2301 255.6579,4.2101 C256.6789,3.7301 257.8779,3.5201 259.4979,3.5201 C260.4879,3.5201 260.9079,3.5801 263.1579,4.0301 C263.5779,4.1201 263.9079,4.1501 264.2079,4.1501 C264.6889,4.1501 265.1079,4.0601 266.0079,3.7301 L265.7679,10.4501 L264.5679,10.4501 C264.4479,8.7401 264.1779,7.7201 263.5479,6.7001 C262.6479,5.1701 261.1779,4.3301 259.4079,4.3301 C257.0989,4.3301 255.5089,5.9201 255.5089,8.2301 C255.5089,9.2201 255.8379,10.0901 256.4979,10.7501 C257.2479,11.4701 257.9979,11.9201 260.3979,13.0591 C263.0679,14.2901 264.3579,15.1001 265.3779,16.1201 C266.3979,17.1701 266.9379,18.5501 266.9379,20.2891 C266.9379,22.3291 266.1879,24.0691 264.8379,25.1191 C263.4279,26.2291 261.5379,26.8291 259.3489,26.8291 C258.1479,26.8291 257.4289,26.7391 255.2989,26.3191 C254.9389,26.2601 254.5489,26.2291 254.1579,26.2291 C253.6479,26.2291 253.2589,26.2891 252.1789,26.4991 L252.4189,19.3291 Z" id="Fill-14" fill="#B62805" mask="url(#mask-4)"></path>
            </g>
        </g>
    </g>
</svg>