<?xml version="1.0" encoding="UTF-8" standalone="no"?>
<svg width="380px" height="31px" viewBox="0 0 380 31" version="1.1" xmlns="http://www.w3.org/2000/svg" xmlns:xlink="http://www.w3.org/1999/xlink">
    <!-- Generator: Sketch 41.2 (35397) - http://www.bohemiancoding.com/sketch -->
    <title>title05_hotspot</title>
    <desc>Created with Sketch.</desc>
    <defs>
        <polygon id="path-1" points="0 30.1787 379.077 30.1787 379.077 -0.0003 0 -0.0003"></polygon>
    </defs>
    <g id="紅磚屋_UI-KIT" stroke="none" stroke-width="1" fill="none" fill-rule="evenodd">
        <g id="UI-KIT" transform="translate(-1005.000000, -387.000000)">
            <g id="title05_hotspot" transform="translate(1005.000000, 387.000000)">
                <path d="M11.7295,15.2988 C14.9395,13.1688 18.4785,9.4188 20.0085,6.5098 C20.8485,6.8398 21.4785,7.0788 21.8985,7.2298 C23.8485,7.9488 24.2385,8.1588 24.2385,8.4588 C24.2385,8.5788 24.1785,8.6988 24.0585,8.7298 C23.8785,8.8498 23.8785,8.8498 22.6485,8.9988 C21.5685,9.9298 21.1785,10.2298 20.3085,10.9188 C20.6085,12.9298 20.9385,14.2788 21.4785,15.6588 C23.2185,13.2298 23.7285,12.3288 24.6285,10.2888 C27.7185,11.7888 28.4985,12.2698 28.4985,12.6288 C28.4985,12.6898 28.4385,12.8098 28.3785,12.8388 C28.2885,12.9298 28.2885,12.9298 27.1785,13.0198 C26.6685,13.3498 26.2785,13.6188 26.0385,13.7698 C24.1485,15.0598 24.1485,15.0598 21.8085,16.4088 C22.5285,17.9088 23.3385,19.1098 24.4485,20.2488 C25.7985,21.6588 26.9685,22.4688 29.1585,23.5188 L29.1275,23.7888 C27.5985,24.3888 26.7885,25.1988 26.1885,26.7588 C26.0985,26.9388 26.0385,27.0278 25.9185,27.0278 C25.7385,27.0278 25.6185,26.9078 25.1085,26.3988 C22.9785,24.1488 21.0885,20.1588 20.3385,16.3198 C20.0395,14.8498 20.0085,14.4588 19.7685,11.3688 C19.7385,11.3688 19.2585,11.6988 18.2985,12.3898 L18.2985,20.6098 C18.3295,25.5278 18.3295,25.5278 18.3885,27.0278 L18.3885,27.0888 C18.3585,27.5388 18.2395,27.6888 17.8485,27.7778 C17.4285,27.8688 16.2285,27.9878 15.6595,27.9878 C15.0885,27.9878 14.8785,27.8088 14.8785,27.3288 C15.0295,25.4688 15.1195,22.9488 15.1195,20.8488 L15.1195,14.2488 C13.6785,15.0288 13.6785,15.0288 11.6995,15.8388 C11.3995,21.0888 11.0085,24.0888 10.4395,25.2588 C9.8995,26.3388 9.1195,26.9388 7.8895,27.2088 C7.5595,27.2988 7.0195,27.3588 6.7495,27.3588 C6.3895,27.3588 6.3295,27.2688 6.2985,26.7288 C6.2695,26.1888 6.0885,25.5278 5.8495,25.1388 C5.5795,24.6888 5.1595,24.4188 3.9895,23.9688 L4.0195,23.5788 C5.2195,23.7588 6.4495,23.8788 7.0795,23.8788 C7.5295,23.8788 7.6795,23.7588 7.8895,23.0988 C8.3095,21.8088 8.6095,18.5988 8.9095,11.8198 L6.6285,11.8198 C6.4185,14.6398 5.9395,17.5788 5.3395,19.4688 C4.7395,21.3288 3.8995,23.0988 2.7295,24.8388 C1.9195,26.0088 1.4095,26.6088 0.2995,27.6578 L0.0005,27.4478 C2.7295,22.6788 3.6295,17.7588 3.6895,6.8998 L2.4585,6.8998 C1.9195,6.8998 1.5595,6.9298 0.8095,7.0498 L0.5095,6.0598 C1.0195,6.1498 2.0395,6.2698 2.4295,6.2698 L4.3785,6.2698 L4.3785,2.5198 C4.3785,1.6198 4.3495,1.2898 4.2595,0.4198 C8.0695,0.7198 8.2495,0.7498 8.7295,1.0198 C8.8495,1.0798 8.9685,1.2298 8.9685,1.3498 C8.9685,1.5898 8.6095,1.8298 7.6495,2.1598 L7.6495,6.2698 L8.6395,6.2698 C9.3895,5.4598 9.5995,5.2198 10.3785,4.3498 C11.5195,5.2498 11.8485,5.5198 12.9585,6.4798 C13.0485,6.5698 13.1095,6.6588 13.1095,6.7198 C13.1095,6.8098 12.9895,6.8998 12.8085,6.8998 L6.8695,6.8998 C6.8385,7.7088 6.8385,7.7088 6.8385,8.0098 C6.7795,9.7198 6.7495,10.5288 6.6895,11.1898 L8.6995,11.1898 C9.2695,10.4988 9.4495,10.2888 10.0485,9.5388 C10.7085,9.9888 10.9185,10.1398 11.3385,10.4398 C12.3595,8.7298 12.8385,7.7088 13.5885,5.7598 C14.4585,3.4798 14.8785,1.9798 15.1195,0.2398 C19.5585,1.1398 19.9495,1.2598 19.9495,1.7098 C19.9495,2.0398 19.7985,2.0998 18.5085,2.3398 C17.6685,3.8698 17.2495,4.5598 16.4385,5.6988 L22.9485,5.6988 C23.9385,4.6498 24.2085,4.3198 25.1385,3.2698 C26.6085,4.3498 27.0585,4.7098 28.4985,5.9088 C28.6185,5.9998 28.6785,6.0898 28.6785,6.1498 C28.6785,6.2698 28.5585,6.3288 28.3485,6.3288 L15.9585,6.3288 C14.3995,8.3398 13.6785,9.0898 11.6995,10.6798 C12.0585,10.9488 12.0585,10.9488 12.4185,11.1898 C12.7185,11.3998 12.8085,11.5488 12.8085,11.7298 C12.8085,11.9398 12.8085,11.9398 11.9095,12.5698 L11.7295,15.2988 Z" id="Fill-1" fill="#B62805"></path>
                <path d="M43.1992,5.9394 C43.1392,8.3394 43.1392,8.3394 43.0502,9.5994 L44.6092,9.5994 C45.1792,8.9694 45.1792,8.9694 45.9292,8.1594 C46.4702,8.5494 46.5902,8.6394 47.0102,8.9094 C47.7292,7.4994 47.9392,7.0194 48.3592,5.9094 L48.0592,5.9394 L43.1992,5.9394 Z M50.9692,14.7294 L50.9692,14.2794 C50.9692,13.5294 50.9092,12.8994 50.7892,11.4294 C51.8092,11.5194 52.0792,11.5484 52.7992,11.6394 C52.9192,11.4294 53.3092,10.5894 53.9992,9.0594 L50.2492,9.0594 C49.7092,9.0594 49.4392,9.0894 48.9592,9.1794 L48.7202,8.2494 C49.2892,8.3694 49.8292,8.4294 50.2792,8.4294 L53.9992,8.4294 C54.5982,7.8294 54.7792,7.6194 55.4692,6.9894 C56.5792,7.8294 56.9392,8.0994 58.0492,9.0294 C58.2282,9.2094 58.3192,9.2994 58.3192,9.4184 C58.3192,9.6894 58.2282,9.7194 56.9392,9.8394 C56.1592,10.4394 54.6292,11.4594 53.9692,11.7894 C54.6592,11.9094 54.8992,11.9994 54.8992,12.2094 C54.8992,12.4184 54.8392,12.4794 53.8792,12.8994 L53.8792,14.7294 L54.8392,14.7294 C55.5582,13.7694 55.7992,13.4684 56.5492,12.5694 C57.6882,13.5594 58.0182,13.8894 59.0392,14.8784 C59.1292,14.9684 59.1882,15.0594 59.1882,15.1194 C59.1882,15.2984 59.0392,15.3594 58.7392,15.3594 L53.8792,15.3594 L53.8792,18.6594 L53.8792,20.0694 C53.8792,20.3994 53.8792,20.3994 53.9092,20.6684 C53.8482,21.8984 53.5192,22.4994 52.5892,22.8884 C51.9892,23.1284 50.7892,23.3984 50.1892,23.3984 C49.9792,23.3984 49.9792,23.3384 49.9192,22.9184 C49.7992,21.5394 49.2602,20.9684 47.5192,20.4894 L47.5502,20.1894 C48.5392,20.3084 48.8692,20.3084 50.5192,20.3694 C50.8492,20.3694 50.9692,20.2494 50.9692,19.7984 L50.9692,15.3594 L47.2492,15.3594 C47.1892,15.7184 47.1892,15.7184 47.0102,17.8784 C46.7692,20.1284 46.3192,21.6284 45.6592,22.2894 C45.1792,22.7684 44.4892,23.0394 43.4702,23.1594 C42.9602,23.2184 42.8992,23.2184 42.8092,23.2184 C42.5692,23.2184 42.5392,23.1594 42.5392,22.7684 C42.5102,21.4784 41.9092,20.7584 40.4702,20.3084 L40.5002,19.9784 C41.4292,20.0694 42.4492,20.1284 42.8092,20.1284 C43.3802,20.1284 43.6792,19.9184 43.8292,19.3784 C44.2492,17.9094 44.4592,15.7494 44.7602,10.2294 L42.9892,10.2294 C42.6592,13.3784 42.4202,14.8194 41.8802,16.3194 C41.1302,18.5084 39.8702,20.3384 37.9202,22.1094 L37.6792,21.8984 C39.0902,19.1384 39.7202,16.4394 40.0192,12.1194 C40.1392,10.4694 40.1702,9.8694 40.1992,5.9394 L38.9102,5.9394 C38.3992,5.9394 38.1302,5.9694 37.5592,6.0894 L37.3802,5.0994 C37.9792,5.2504 38.4292,5.3094 38.9102,5.3094 L40.9492,5.3094 L40.9492,3.2994 C40.9492,2.4604 40.8892,1.8304 40.7392,0.4804 C44.0392,0.7194 45.1192,0.9604 45.1192,1.4104 C45.1192,1.6504 44.9392,1.7694 43.9792,2.0994 L43.9792,5.3094 L44.6702,5.3094 C45.3292,4.5594 45.5102,4.3194 46.1092,3.5404 C47.0992,4.3194 47.3992,4.5894 48.3592,5.4894 L48.4492,5.6394 C49.1692,3.6294 49.5292,2.0094 49.6792,0.3604 C53.2192,1.1694 54.0892,1.4404 54.0892,1.8304 C54.0892,2.0994 53.8792,2.1894 52.8292,2.4294 C51.6892,4.2594 51.6592,4.2904 51.0592,5.1294 L53.9992,5.1294 C54.8082,4.1994 55.0792,3.8994 55.9492,2.9694 C57.2092,3.8994 57.5692,4.1994 58.7392,5.2194 C58.8592,5.3394 58.9192,5.4604 58.9192,5.5194 C58.9192,5.6394 58.7682,5.7594 58.6192,5.7594 L50.6092,5.7594 C49.6192,7.0194 48.9592,7.7394 47.3692,9.1794 C47.6692,9.4184 47.7602,9.4794 48.1492,9.7794 C48.3592,9.9594 48.4492,10.0494 48.4492,10.1684 C48.4492,10.3494 48.2092,10.5594 47.5502,10.9494 C47.4292,13.0484 47.3992,13.3784 47.3092,14.7294 L50.9692,14.7294 Z M31.5302,1.1104 C35.9392,3.2404 37.2002,4.2294 37.2002,5.6394 C37.2002,7.0794 36.1202,8.5494 35.0702,8.5494 C34.5002,8.5494 34.2902,8.2494 33.8402,6.6294 C33.1792,4.2594 32.4602,2.8204 31.2602,1.3494 L31.5302,1.1104 Z M30.4502,12.8694 C31.0802,12.9894 31.5592,13.0484 31.9802,13.0484 L33.8092,13.0484 C34.5002,12.2094 34.7402,11.9694 35.4902,11.1594 C36.5402,11.9094 36.8702,12.1194 37.8892,12.8994 C38.1602,13.1394 38.2792,13.2894 38.2792,13.4394 C38.2792,13.6494 38.1892,13.7394 37.1092,14.4594 L37.1092,21.7494 C37.9202,23.0084 38.5502,23.5184 39.8402,23.9094 C40.8302,24.2094 42.9292,24.3884 45.4202,24.3884 C49.3792,24.3884 53.1592,24.2094 58.9492,23.6994 L58.9782,23.9994 C58.0182,24.4494 57.5092,24.9884 57.1782,25.8884 C57.0892,26.2184 57.0582,26.3384 56.9992,26.8484 C56.9692,27.1194 56.8792,27.1784 56.3992,27.1784 C56.3392,27.1784 56.2192,27.1784 56.0392,27.2094 C54.1192,27.2684 51.1492,27.2984 49.1392,27.2984 C43.2892,27.2984 41.1592,26.9684 39.4492,25.7984 C38.1302,24.8984 37.4102,23.9384 36.4502,21.8084 C35.1302,23.9094 34.6492,24.5984 33.0002,26.4594 C33.0592,26.9384 33.0902,27.1484 33.0902,27.2984 C33.0902,27.6284 32.9392,27.8084 32.7002,27.8084 C32.3092,27.8084 32.0702,27.4184 30.2702,23.7284 C31.4702,23.3694 32.3092,23.0084 34.0192,21.9894 L34.0192,13.6794 L31.9202,13.6794 C31.5302,13.6794 31.0192,13.7394 30.6302,13.7984 L30.4502,12.8694 Z" id="Fill-3" fill="#B62805"></path>
                <path d="M77.9092,20.7588 C81.5992,21.4188 83.3692,21.9288 84.6292,22.6488 C85.7392,23.2798 86.0982,23.8488 86.0982,24.9288 C86.0982,26.1888 85.4092,27.2088 84.5692,27.2088 C84.1192,27.2088 83.9992,27.1188 83.2792,26.1588 C81.6592,23.9988 80.3392,22.7688 77.7892,21.0588 L77.9092,20.7588 Z M68.6992,18.5698 L80.2492,18.5698 L80.2492,15.1498 L68.6992,15.1498 L68.6992,18.5698 Z M67.6492,8.3398 L81.2692,8.3398 L81.2692,5.6098 L67.6492,5.6098 L67.6492,8.3398 Z M67.6492,4.9798 L81.2692,4.9798 L81.2692,2.4298 L67.6492,2.4298 L67.6492,4.9798 Z M82.7392,11.6398 C83.7292,10.5898 84.0292,10.2598 85.0192,9.2698 C86.4292,10.3788 86.8482,10.7088 88.2282,11.8498 C88.3192,11.9698 88.3792,12.0298 88.3792,12.1188 C88.3792,12.2088 88.2592,12.2698 88.1092,12.2698 L63.1802,12.2698 C62.1302,12.2698 61.8002,12.2988 61.1392,12.4488 L60.9602,11.3998 C61.6802,11.5788 62.1902,11.6398 63.2102,11.6398 L72.6592,11.6398 L72.6592,8.9698 L67.6492,8.9698 L67.6202,9.7198 C67.5902,10.2888 67.2902,10.3788 65.4302,10.3788 C64.4102,10.3788 64.2602,10.2888 64.2602,9.7798 C64.3492,7.8288 64.3802,7.2298 64.3802,4.7698 C64.3802,2.4298 64.3492,1.5598 64.2292,-0.0002 C65.9102,0.7198 66.4202,0.9598 68.0402,1.7998 L80.9092,1.7998 C81.6892,1.0498 81.9292,0.8098 82.6792,0.0898 L85.1992,1.7998 C85.4692,2.0098 85.5892,2.1298 85.5892,2.2798 C85.5892,2.5498 85.3482,2.7298 84.5392,3.1498 L84.5392,5.3998 C84.5392,7.1988 84.5392,7.3798 84.6592,9.2698 C84.6592,9.5098 84.6292,9.5998 84.5092,9.6898 C84.2992,9.9298 83.5792,10.0498 82.2592,10.0498 C81.3892,10.0498 81.2692,10.0198 81.2692,9.6288 L81.2692,8.9698 L75.9592,8.9698 L75.9592,11.6398 L82.7392,11.6398 Z M76.3192,21.9888 C76.3192,22.5588 76.3192,22.6488 76.3492,24.8088 C76.3192,26.1288 76.0192,26.6978 75.1192,27.1488 C74.3692,27.5088 72.9602,27.8388 72.0902,27.8388 C71.7902,27.8388 71.6992,27.7488 71.6702,27.3888 C71.4602,25.7988 70.8002,25.3488 67.5902,24.6588 L67.6492,24.2988 C71.3692,24.5388 71.3692,24.5388 72.5392,24.5688 C72.9892,24.5688 73.1092,24.4788 73.1092,24.1188 L73.1092,19.1988 L68.6992,19.1988 L68.6992,19.6498 C68.6702,20.1288 68.5802,20.1898 67.5902,20.2798 C71.1592,21.4488 71.2202,21.4788 71.2202,21.7798 C71.2202,22.0788 70.8592,22.1988 69.6892,22.2888 C66.5992,24.8988 65.1302,25.7378 60.8092,27.2988 L60.6602,26.9988 C63.1802,25.0788 64.5592,23.7588 65.9702,21.8388 C66.4202,21.2088 66.5992,20.9088 66.8402,20.3388 L66.4792,20.3388 C65.4902,20.3388 65.3402,20.2798 65.3402,19.7688 C65.3992,18.1498 65.4302,17.3998 65.4302,15.6898 C65.4302,14.4888 65.3992,14.1288 65.3092,12.9888 C66.9602,13.5888 67.4392,13.7988 68.9702,14.5198 L80.0092,14.5198 C80.6992,13.8288 80.9092,13.5888 81.5992,12.8998 C82.7392,13.6498 83.0692,13.8898 84.1492,14.6688 C84.4192,14.8198 84.5092,14.9398 84.5092,15.0598 C84.5092,15.2988 84.2692,15.4798 83.5492,15.8388 L83.5492,16.6788 C83.5492,17.6098 83.5492,18.2388 83.5792,19.6188 C83.6092,19.6498 83.6092,19.6788 83.6092,19.7088 C83.6092,20.2488 83.1292,20.3688 81.1802,20.3688 C80.3692,20.3688 80.2492,20.3088 80.2492,19.9188 L80.2492,19.1988 L76.3192,19.1988 L76.3192,21.9888 Z" id="Fill-5" fill="#B62805"></path>
                <mask id="mask-2" fill="white">
                    <use xlink:href="#path-1"></use>
                </mask>
                <g id="Clip-8"></g>
                <path d="M108.539,25.0187 L114.359,25.0187 L114.359,15.7487 L108.539,15.7487 L108.539,25.0187 Z M113.969,7.6497 C114.839,6.5997 115.139,6.2697 116.069,5.1897 C117.329,6.2397 117.719,6.5997 118.979,7.8287 C119.069,7.9197 119.129,8.0387 119.129,8.0997 C119.129,8.1897 119.009,8.2797 118.889,8.2797 L112.739,8.2797 L112.739,15.1187 L114.089,15.1187 C114.839,14.2487 115.079,14.0087 115.799,13.2297 C116.819,13.9497 117.119,14.1897 118.109,14.9987 C118.349,15.2087 118.469,15.3597 118.469,15.5087 C118.469,15.7797 118.229,15.9587 117.449,16.3197 L117.449,18.4797 C117.449,19.7687 117.509,22.5887 117.599,26.9387 C117.569,27.2087 117.509,27.3587 117.359,27.4487 C117.089,27.5987 116.309,27.7187 115.529,27.7187 C114.659,27.7187 114.389,27.5987 114.359,27.2087 L114.359,25.6487 L108.539,25.6487 L108.539,27.1487 C108.51,27.5987 108.06,27.7787 106.859,27.7787 C105.72,27.7787 105.42,27.6577 105.42,27.2087 L105.42,27.1487 C105.51,23.7887 105.539,22.2287 105.539,19.0487 C105.539,16.8287 105.51,15.7187 105.449,14.0697 C105.42,13.6497 105.42,13.6497 105.42,13.2297 C106.859,14.0387 107.279,14.2797 108.629,15.1187 L109.68,15.1187 L109.68,3.3607 C109.68,2.5797 109.619,1.8897 109.47,0.4807 C113.849,0.9907 114.029,1.0197 114.029,1.4097 C114.029,1.7097 113.729,1.9197 112.739,2.1897 L112.739,7.6497 L113.969,7.6497 Z M101.159,19.7687 C103.68,20.8197 104.67,21.6587 104.67,22.7687 C104.67,23.6997 104.069,24.6587 103.47,24.6587 C103.109,24.6587 102.899,24.3887 102.72,23.7287 C102.359,22.2287 101.699,20.9087 100.92,19.9787 L101.159,19.7687 Z M101.88,11.1587 L101.88,6.4197 L101.52,6.4197 C101.04,7.5897 100.35,8.9087 99.51,10.2297 L99.27,10.1687 C99.6,8.6397 99.6,8.6397 99.899,7.0787 C100.109,6.1187 100.109,6.0897 100.14,5.3397 C100.14,4.7397 100.14,4.7397 100.17,4.4087 C101.22,4.8897 101.369,4.9797 101.88,5.3687 L101.88,2.9697 L99.12,2.9697 L99.12,11.1587 L101.88,11.1587 Z M98.31,20.5787 C100.199,21.5987 101.46,22.9787 101.46,24.0297 C101.46,24.9887 100.619,26.1587 99.93,26.1587 C99.779,26.1587 99.6,26.0687 99.54,25.9497 C99.39,25.7087 99.39,25.7087 99.3,24.4787 C99.239,23.2487 98.91,22.2287 98.13,20.6997 L98.31,20.5787 Z M95.64,21.1187 C96.24,21.7187 96.479,21.9897 97.08,22.7987 C97.8,23.8187 97.979,24.2087 97.979,24.8687 C97.979,26.0687 97.14,27.0887 96.18,27.0887 C95.79,27.0887 95.58,26.8187 95.58,26.2787 C95.58,26.0987 95.609,25.5887 95.64,25.1087 C95.67,24.4787 95.7,24.0587 95.7,23.8787 C95.7,23.0687 95.64,22.4687 95.37,21.2397 L95.64,21.1187 Z M94.53,4.5597 C95.88,5.7597 96.54,6.9897 96.54,8.2197 C96.54,8.9987 95.939,9.8997 95.43,9.8997 C95.189,9.8997 95.04,9.6287 95.04,9.2697 L95.04,9.1797 C95.07,8.9397 95.07,8.6397 95.07,8.5497 C95.07,7.2887 94.83,5.8797 94.35,4.6797 L94.53,4.5597 Z M94.26,11.1587 L96.84,11.1587 L96.84,2.9697 L94.26,2.9697 L94.26,11.1587 Z M99.3,14.8787 L100.92,14.8787 C101.64,14.0387 101.88,13.7987 102.689,12.9587 C103.77,13.7987 104.1,14.0697 105.149,14.9687 C105.239,15.0887 105.3,15.2087 105.3,15.2697 C105.3,15.4187 105.18,15.5087 105.029,15.5087 L99.3,15.5087 L99.3,17.7887 C100.109,17.7297 100.83,17.6687 101.22,17.6387 C103.14,17.4897 103.439,17.4587 105.029,17.2487 L105.09,17.5487 C100.89,19.1097 100.02,19.3197 92.58,20.8487 C92.49,21.6287 92.34,21.9287 92.07,21.9287 C91.68,21.9287 91.59,21.5697 90.99,18.1497 L92.04,18.1497 C92.61,18.1497 94.979,18.1187 95.189,18.0887 C96.51,17.9987 96.51,17.9987 96.75,17.9987 L96.75,15.5087 L92.91,15.5087 C92.28,15.5087 91.92,15.5387 91.29,15.6287 L91.14,14.6397 C91.77,14.8197 92.28,14.8787 92.91,14.8787 L96.75,14.8787 L96.75,11.7887 L94.26,11.7887 L94.26,12.4497 C94.26,12.9897 93.87,13.1397 92.58,13.1397 C91.8,13.1397 91.53,13.0197 91.53,12.6587 L91.53,12.5697 C91.62,8.6997 91.65,7.7397 91.65,5.8497 C91.65,4.4997 91.65,4.2597 91.56,2.9397 L91.56,2.3397 L91.56,1.8897 C91.56,1.2897 91.56,1.0497 91.53,0.7197 C92.76,1.3797 93.15,1.5897 94.35,2.3397 L101.489,2.3397 C102.149,1.6197 102.359,1.4097 103.079,0.7197 C104.01,1.3797 104.279,1.5897 105.18,2.3397 C105.359,2.5197 105.42,2.6107 105.42,2.7297 C105.42,2.8497 105.329,2.9697 105.18,3.1197 C105.119,3.1497 105.119,3.1497 104.699,3.3607 C104.579,3.4197 104.579,3.4197 104.399,3.5397 L104.399,5.0097 C104.399,6.9297 104.43,8.0997 104.52,12.1187 L104.52,12.2087 C104.52,12.4187 104.459,12.5387 104.31,12.6287 C104.069,12.7797 103.26,12.9297 102.6,12.9297 C102.09,12.9297 101.88,12.8097 101.88,12.5097 L101.88,11.7887 L99.3,11.7887 L99.3,14.8787 Z M93.72,21.3887 C94.05,22.0787 94.17,22.5297 94.17,23.3387 C94.17,24.2987 93.93,25.2587 93.51,26.0687 C93.06,26.9077 92.31,27.5087 91.77,27.5087 C91.11,27.5087 90.51,26.5787 90.51,25.6187 C90.51,24.9287 90.66,24.7187 91.53,24.2397 C92.58,23.6087 93.15,22.7987 93.39,21.3887 L93.72,21.3887 Z" id="Fill-7" fill="#B62805" mask="url(#mask-2)"></path>
                <polygon id="Fill-9" fill="#B62805" mask="url(#mask-2)" points="138.8389 2.4297 140.6389 2.4297 130.6499 30.1787 128.8499 30.1787"></polygon>
                <path d="M162.1182,6.3594 L158.4592,16.1094 L165.5382,16.1094 L162.1182,6.3594 Z M157.1982,19.5584 C156.7492,20.6994 156.5392,21.6294 156.5392,22.3194 C156.5392,23.4894 157.3792,24.0294 159.3582,24.0884 L159.3582,24.8694 L151.6482,24.8694 L151.6482,24.0884 C153.5982,24.0584 154.6792,22.8884 156.0282,19.3484 L162.4182,2.4294 L164.6392,2.1894 L171.1782,20.5794 C171.8682,22.4384 172.4382,23.3984 173.1282,23.7584 C173.4582,23.9094 173.7272,23.9684 174.7182,24.0884 L174.7182,24.8694 L164.9382,24.8694 L164.9382,24.0884 C166.8282,24.0294 167.5182,23.6384 167.5182,22.6484 L167.5182,22.5584 C167.4882,22.0794 167.3382,21.3294 167.0682,20.5794 L165.9292,17.2794 L158.0392,17.2794 L157.1982,19.5584 Z" id="Fill-10" fill="#B62805" mask="url(#mask-2)"></path>
                <path d="M185.9092,20.9687 C185.9092,23.7287 186.2092,24.0297 189.0282,24.0887 L189.0282,24.8687 L178.8592,24.8687 L178.8592,24.0887 C181.6482,24.0297 181.9492,23.7287 181.9492,20.9687 L181.9492,3.2097 C179.2792,3.2697 177.8692,3.7497 176.8192,4.9487 C175.9792,5.9087 175.4692,7.4397 175.0192,10.1097 L173.9392,10.0497 L174.5092,2.4297 L193.3792,2.4297 L193.9482,10.0497 L192.8682,10.1097 C192.3882,7.1987 191.7882,5.6397 190.7992,4.7097 C189.7492,3.6897 188.3982,3.2697 185.9092,3.2097 L185.9092,20.9687 Z" id="Fill-11" fill="#B62805" mask="url(#mask-2)"></path>
                <path d="M206.8486,20.9687 C206.8486,23.7287 207.1486,24.0297 209.9676,24.0887 L209.9676,24.8687 L199.7986,24.8687 L199.7986,24.0887 C202.5876,24.0297 202.8886,23.7287 202.8886,20.9687 L202.8886,3.2097 C200.2186,3.2697 198.8086,3.7497 197.7586,4.9487 C196.9186,5.9087 196.4086,7.4397 195.9586,10.1097 L194.8786,10.0497 L195.4486,2.4297 L214.3186,2.4297 L214.8876,10.0497 L213.8076,10.1097 C213.3276,7.1987 212.7276,5.6397 211.7386,4.7097 C210.6886,3.6897 209.3376,3.2697 206.8486,3.2097 L206.8486,20.9687 Z" id="Fill-12" fill="#B62805" mask="url(#mask-2)"></path>
                <path d="M224.5186,13.4092 C228.0886,13.4092 230.0086,11.6092 230.0086,8.2492 C230.0086,4.8892 228.2986,3.3002 224.7286,3.3002 L222.8986,3.3002 L222.8986,13.4092 L224.5186,13.4092 Z M222.8986,20.9992 C222.8986,23.7282 223.1386,23.9992 225.5986,24.0892 L225.5986,24.8692 L216.2986,24.8692 L216.2986,24.0892 C218.7586,23.9992 218.9986,23.7282 218.9986,20.9992 L218.9986,6.3292 C218.9986,3.5992 218.7586,3.3302 216.4186,3.2102 L216.4186,2.4302 L225.5986,2.4302 C228.1186,2.4302 230.2186,2.7602 231.4186,3.3302 C233.3086,4.2292 234.1786,5.6702 234.1786,7.8892 C234.1786,11.5192 231.9286,13.4092 227.1886,13.7692 L227.1886,14.0092 C228.7486,14.1892 229.8286,14.6692 230.9086,15.5992 C231.8986,16.4392 232.4086,17.3692 233.8486,20.7282 C235.0186,23.4592 235.5286,24.0292 236.9386,24.1482 L236.9386,24.8692 L231.0286,24.8692 C229.6186,20.6692 228.7786,18.4492 227.9086,16.7692 C226.9486,14.9092 226.0186,14.2792 224.0986,14.2792 L222.8986,14.2792 L222.8986,20.9992 Z" id="Fill-13" fill="#B62805" mask="url(#mask-2)"></path>
                <path d="M247.8877,6.3594 L244.2287,16.1094 L251.3077,16.1094 L247.8877,6.3594 Z M242.9677,19.5584 C242.5187,20.6994 242.3087,21.6294 242.3087,22.3194 C242.3087,23.4894 243.1487,24.0294 245.1277,24.0884 L245.1277,24.8694 L237.4177,24.8694 L237.4177,24.0884 C239.3677,24.0584 240.4487,22.8884 241.7977,19.3484 L248.1877,2.4294 L250.4087,2.1894 L256.9477,20.5794 C257.6377,22.4384 258.2077,23.3984 258.8977,23.7584 C259.2277,23.9094 259.4967,23.9684 260.4877,24.0884 L260.4877,24.8694 L250.7077,24.8694 L250.7077,24.0884 C252.5977,24.0294 253.2877,23.6384 253.2877,22.6484 L253.2877,22.5584 C253.2577,22.0794 253.1077,21.3294 252.8377,20.5794 L251.6987,17.2794 L243.8087,17.2794 L242.9677,19.5584 Z" id="Fill-14" fill="#B62805" mask="url(#mask-2)"></path>
                <path d="M278.248,9.959 C277.918,8.01 277.498,6.84 276.658,5.64 C275.428,3.87 273.568,2.85 271.618,2.85 C269.698,2.85 267.958,3.84 266.969,5.489 C265.799,7.439 265.228,10.05 265.228,13.319 C265.228,19.979 267.929,24.089 272.338,24.089 C274.588,24.089 276.718,22.979 278.188,20.999 C278.698,20.309 279.058,19.649 279.508,18.539 L280.378,19.019 C278.758,23.279 275.848,25.349 271.378,25.349 C268.498,25.349 265.828,24.329 263.999,22.529 C261.988,20.549 260.909,17.52 260.909,13.89 C260.909,6.659 265.049,1.98 271.469,1.98 C273.028,1.98 273.688,2.1 276.448,2.85 C276.868,2.97 277.258,3.03 277.708,3.03 C278.158,3.03 278.368,2.97 279.328,2.64 L279.328,9.959 L278.248,9.959 Z" id="Fill-15" fill="#B62805" mask="url(#mask-2)"></path>
                <path d="M293.9082,20.9687 C293.9082,23.7287 294.2082,24.0297 297.0272,24.0887 L297.0272,24.8687 L286.8582,24.8687 L286.8582,24.0887 C289.6482,24.0297 289.9482,23.7287 289.9482,20.9687 L289.9482,3.2097 C287.2782,3.2697 285.8682,3.7497 284.8182,4.9487 C283.9782,5.9087 283.4682,7.4397 283.0182,10.1097 L281.9382,10.0497 L282.5082,2.4297 L301.3782,2.4297 L301.9472,10.0497 L300.8672,10.1097 C300.3872,7.1987 299.7872,5.6397 298.7982,4.7097 C297.7482,3.6897 296.3972,3.2697 293.9082,3.2097 L293.9082,20.9687 Z" id="Fill-16" fill="#B62805" mask="url(#mask-2)"></path>
                <path d="M303.4785,24.0889 C306.0885,23.9989 306.3285,23.7289 306.3285,20.9689 L306.3285,6.3289 C306.3285,3.5999 306.0885,3.2999 303.5985,3.2099 L303.5985,2.4299 L312.9575,2.4299 L312.9575,3.2099 C310.4685,3.2999 310.2285,3.5999 310.2285,6.3289 L310.2285,20.9689 C310.2285,23.7289 310.4985,23.9989 313.0785,24.0889 L313.0785,24.8689 L303.4785,24.8689 L303.4785,24.0889 Z" id="Fill-17" fill="#B62805" mask="url(#mask-2)"></path>
                <path d="M321.6582,21.7187 C322.6182,23.5787 324.2082,24.5387 326.3382,24.5387 C328.4382,24.5387 330.0282,23.5787 330.9882,21.7187 C332.0382,19.6787 332.5172,17.1897 332.5172,13.6497 C332.5172,10.1397 332.0382,7.6497 330.9882,5.6097 C329.9982,3.7197 328.4682,2.7897 326.3382,2.7897 C324.2082,2.7897 322.6182,3.7497 321.6582,5.6097 C320.6082,7.6497 320.1282,10.1987 320.1282,13.6497 C320.1282,17.1587 320.6082,19.6497 321.6582,21.7187 M318.2992,5.5197 C320.0382,3.2697 322.9782,1.9797 326.3382,1.9797 C329.6682,1.9797 332.5482,3.2397 334.3472,5.5197 C335.9982,7.5597 336.8972,10.4987 336.8972,13.6497 C336.8972,16.8287 335.9982,19.7687 334.3472,21.8087 C332.5482,24.0587 329.6682,25.3487 326.3382,25.3487 C323.0082,25.3487 320.0682,24.0587 318.2992,21.8087 C316.6792,19.7687 315.7492,16.7987 315.7492,13.6497 C315.7492,10.4987 316.6482,7.6187 318.2992,5.5197" id="Fill-18" fill="#B62805" mask="url(#mask-2)"></path>
                <path d="M343.4375,19.1094 C343.4375,23.0684 343.9775,23.9094 346.5575,24.0584 L346.5575,24.8694 L339.0275,24.8694 L339.0275,24.0584 C341.5785,23.9384 342.2085,22.9494 342.2085,18.8694 L342.2085,6.9604 C342.2085,4.0194 341.6975,3.3894 339.2975,3.2104 L339.2975,2.4294 L345.5675,2.4294 L357.8065,19.7094 L357.8065,8.4294 C357.8065,6.1794 357.6575,5.0694 357.2375,4.3804 C356.7875,3.5994 356.1575,3.3304 354.6265,3.2404 L354.6265,2.4294 L362.2165,2.4294 L362.2165,3.2404 C360.7775,3.2994 360.1465,3.5994 359.6665,4.3804 C359.2165,5.0994 359.0375,6.2994 359.0375,8.2194 L359.0375,24.9884 L356.8175,24.9884 L343.4375,5.8494 L343.4375,19.1094 Z" id="Fill-19" fill="#B62805" mask="url(#mask-2)"></path>
                <path d="M364.5586,17.8193 L365.7576,17.8193 C366.1776,22.3193 367.9786,24.4493 371.3376,24.4493 C373.9776,24.4493 375.5676,22.8883 375.5676,20.3083 C375.5676,18.2693 374.3976,17.0393 370.6476,15.2093 C368.0976,13.9793 367.4086,13.5893 366.7176,13.0793 C365.0076,11.8193 364.2576,10.3793 364.2576,8.3093 C364.2576,5.8493 365.6086,3.7193 367.7976,2.7003 C368.8186,2.2193 370.0176,2.0093 371.6376,2.0093 C372.6276,2.0093 373.0476,2.0703 375.2976,2.5193 C375.7176,2.6103 376.0476,2.6393 376.3476,2.6393 C376.8286,2.6393 377.2476,2.5493 378.1476,2.2193 L377.9076,8.9393 L376.7076,8.9393 C376.5876,7.2293 376.3176,6.2103 375.6876,5.1893 C374.7876,3.6603 373.3176,2.8203 371.5476,2.8203 C369.2386,2.8203 367.6486,4.4093 367.6486,6.7193 C367.6486,7.7093 367.9786,8.5793 368.6376,9.2393 C369.3876,9.9593 370.1376,10.4093 372.5376,11.5483 C375.2076,12.7793 376.4976,13.5893 377.5176,14.6093 C378.5376,15.6593 379.0776,17.0393 379.0776,18.7793 C379.0776,20.8193 378.3276,22.5583 376.9776,23.6083 C375.5676,24.7183 373.6776,25.3183 371.4886,25.3183 C370.2876,25.3183 369.5686,25.2283 367.4386,24.8083 C367.0786,24.7493 366.6886,24.7183 366.2976,24.7183 C365.7876,24.7183 365.3986,24.7783 364.3186,24.9883 L364.5586,17.8193 Z" id="Fill-20" fill="#B62805" mask="url(#mask-2)"></path>
            </g>
        </g>
    </g>
</svg>