<?xml version="1.0" encoding="UTF-8" standalone="no"?>
<svg width="357px" height="31px" viewBox="0 0 357 31" version="1.1" xmlns="http://www.w3.org/2000/svg" xmlns:xlink="http://www.w3.org/1999/xlink">
    <!-- Generator: Sketch 40.2 (33826) - http://www.bohemiancoding.com/sketch -->
    <title>title07_contactus</title>
    <desc>Created with Sketch.</desc>
    <defs>
        <polygon id="path-1" points="0 0.9718 0 28.6298 28.0795 28.6298 28.0795 0.9718 1.35525272e-19 0.9718"></polygon>
        <polygon id="path-3" points="0 31.1787 356.487 31.1787 356.487 0.9997 0 0.9997"></polygon>
    </defs>
    <g id="紅磚屋_UI-KIT" stroke="none" stroke-width="1" fill="none" fill-rule="evenodd">
        <g id="UI-KIT" transform="translate(-1006.000000, -448.000000)">
            <g id="title07_contactus" transform="translate(1006.000000, 447.000000)">
                <g id="Group-3" transform="translate(0.000000, 0.178700)">
                    <mask id="mask-2" fill="white">
                        <use xlink:href="#path-1"></use>
                    </mask>
                    <g id="Clip-2"></g>
                    <path d="M19.7695,14.8008 C19.5895,14.5608 19.5895,14.5608 18.8995,11.8608 C19.3195,11.8908 19.4395,11.8908 19.8305,11.8908 C21.7795,9.5808 23.2795,7.2108 24.3295,4.7808 C27.3295,6.0718 27.8695,6.3408 27.8695,6.6108 C27.8695,6.8508 27.5695,6.9708 26.8785,6.9708 L26.5495,6.9708 C25.0495,8.4708 22.2295,10.9008 20.8795,11.8608 C24.1195,11.6208 24.2095,11.6208 25.2595,11.4708 C24.9585,10.5408 24.7485,10.1808 24.1495,9.3408 L24.3895,9.1608 C26.8495,10.3608 28.0795,11.4708 28.0795,12.4898 C28.0795,13.4208 27.1495,14.5908 26.4295,14.5908 C26.0395,14.5908 25.8895,14.3508 25.7695,13.5408 C25.6795,13.0908 25.6195,12.7908 25.4985,12.2508 C23.2795,13.1508 22.5595,13.4208 20.4295,14.0508 C20.2795,14.5908 20.2795,14.6508 20.0995,14.8298 C22.7995,14.9808 23.3995,15.0708 23.3995,15.4008 C23.3995,15.6108 23.1895,15.7308 22.4695,15.9998 L22.4695,21.1598 L24.3295,21.1598 L24.3295,17.8608 C24.3295,16.9598 24.2995,16.5108 24.2395,15.5798 C25.0195,15.6408 25.5895,15.6708 25.9795,15.6998 C27.5995,15.8208 28.0195,15.9098 28.0195,16.2098 C28.0195,16.4498 27.7795,16.6308 27.1495,16.8108 C27.1495,20.5298 27.1495,20.6808 27.2085,22.8698 C27.2085,23.1408 27.1795,23.2308 27.0895,23.3208 C26.8785,23.4998 26.2485,23.6198 25.3195,23.6198 C24.4795,23.6198 24.3295,23.5298 24.3295,23.0208 L24.3295,21.7898 L22.4695,21.7898 L22.4695,22.7798 C22.4695,24.6698 22.4695,25.3898 22.5595,27.7298 C22.5295,28.0598 22.4395,28.2098 22.1395,28.2998 C21.9295,28.3608 20.9695,28.4198 20.4295,28.4198 C19.7095,28.4198 19.5295,28.2998 19.5295,27.8208 C19.6205,24.9408 19.6795,21.6408 19.6795,18.8798 C19.6795,16.8408 19.6495,16.2098 19.5295,14.8008 L19.7695,14.8008 Z M18.3595,4.4208 C19.5895,4.9018 19.5895,4.9018 20.0995,5.1408 C20.7595,4.0908 21.3895,2.5308 21.7195,0.9718 C25.1695,2.0808 25.6795,2.2908 25.6795,2.5908 C25.6795,2.8618 25.3495,2.9508 24.3595,2.9818 C22.6195,4.3918 22.0805,4.8118 20.8195,5.5608 C21.8395,6.2208 22.3195,6.8218 22.3195,7.4808 C22.3195,8.4108 21.5695,9.4008 20.8495,9.4008 C20.5495,9.4008 20.3995,9.2208 20.2195,8.4708 C19.7095,6.5508 19.2295,5.6808 18.1495,4.6308 L18.3595,4.4208 Z M15.1795,21.1598 C15.2695,20.2898 15.2995,19.3908 15.2995,17.9808 C15.2995,16.4208 15.2695,15.8808 15.1205,14.7398 C18.4795,14.9498 18.9595,15.0398 18.9595,15.3698 C18.9595,15.5798 18.7195,15.7308 18.0895,15.9098 C18.0595,18.9998 18.0295,20.1408 17.8795,21.2498 C17.4905,23.9498 16.4395,25.5998 14.1895,27.0098 C13.0495,27.6998 11.9995,28.1198 10.2595,28.5998 L10.1105,28.2098 C13.4995,26.3498 14.7595,24.7308 15.1205,21.7898 L13.5595,21.7898 L13.5595,22.6598 C13.5595,22.9008 13.5305,23.0208 13.4395,23.1108 C13.2905,23.3208 12.6605,23.4408 11.7305,23.4408 C10.8605,23.4408 10.6795,23.3208 10.6795,22.8398 C10.7405,20.4998 10.7705,19.4498 10.7705,17.8298 C10.7705,16.9008 10.7405,16.4808 10.6795,15.5798 C11.4005,15.6408 11.9995,15.6708 12.3895,15.6998 C14.0705,15.8208 14.4295,15.9098 14.4295,16.1808 C14.4295,16.3608 14.1895,16.5398 13.5595,16.7498 L13.5595,21.1598 L15.1795,21.1598 Z M15.6605,9.3108 C16.4695,9.7908 16.8895,10.0298 17.6095,10.6008 C18.4795,11.2608 18.8095,11.7398 18.8095,12.3108 C18.8095,13.3308 18.0295,14.4098 17.2795,14.4098 C17.0695,14.4098 16.8595,14.1998 16.7695,13.9008 C16.7405,13.7508 16.7405,13.7508 16.4695,12.2508 C12.8395,13.8108 12.8395,13.8108 11.6395,14.2608 C11.4905,15.0108 11.4005,15.2208 11.1295,15.2208 C11.0095,15.2208 10.8895,15.1308 10.7995,14.9498 C10.7995,14.9208 10.4995,13.8698 9.8705,11.8008 C10.4995,11.8308 10.7995,11.8608 11.0095,11.8608 C11.1295,11.8608 11.1605,11.8608 11.5195,11.8308 C13.3205,9.6108 14.8205,7.1508 15.7495,4.9018 C18.2405,5.9808 18.9295,6.3408 18.9295,6.5808 C18.9295,6.8508 18.5995,6.9708 17.8495,7.0008 C15.8095,9.0708 14.3095,10.4498 12.6295,11.8008 C14.5495,11.7108 14.7295,11.6808 16.3205,11.5008 C16.0805,10.5708 15.9595,10.2708 15.4195,9.5208 L15.6605,9.3108 Z M10.0205,4.6918 C10.8605,5.0208 11.1295,5.1408 11.7905,5.4708 C12.5705,3.7608 12.9595,2.5618 13.2595,0.9718 C14.0705,1.2108 14.7005,1.4208 15.0895,1.5408 C16.7695,2.0218 17.2495,2.2318 17.2495,2.5008 C17.2495,2.7718 16.8595,2.9208 16.0195,2.9208 C14.7595,4.1208 13.7995,4.9608 12.5995,5.9208 C13.4995,6.5208 13.7995,6.9408 13.7995,7.5718 C13.7995,8.5298 13.0195,9.5808 12.3305,9.5808 C12.0305,9.5808 11.9105,9.4008 11.7305,8.8008 C11.0705,6.3408 10.8895,6.0408 9.8105,4.9308 L10.0205,4.6918 Z M4.6205,14.9208 L4.6205,20.0498 C5.3705,19.8698 5.7595,19.7798 6.6295,19.5108 L6.6295,14.9208 L4.6205,14.9208 Z M4.6205,14.2898 L6.6305,14.2898 L6.6305,9.3408 L4.6205,9.3408 L4.6205,14.2898 Z M4.6205,8.7108 L6.6305,8.7108 L6.6305,3.7908 L4.6205,3.7908 L4.6205,8.7108 Z M9.4195,18.3108 C9.4195,24.3398 9.4195,24.3398 9.4805,27.9408 C9.4505,28.5098 9.0895,28.6298 7.5305,28.6298 C6.7805,28.6298 6.5705,28.5098 6.5405,28.1198 C6.6005,24.9698 6.6295,23.0498 6.6295,20.9498 L6.6295,20.3798 C6.3605,20.6198 6.3305,20.6198 5.9405,20.9808 C4.8005,21.9098 3.8705,22.6298 2.1005,23.7998 C1.9805,24.7598 1.8605,25.0608 1.5905,25.0608 C1.2605,25.0608 1.1105,24.6698 0.0905,20.8908 C0.9605,20.7998 1.2305,20.7708 1.8005,20.6508 L1.8005,3.7908 C1.0205,3.7908 0.7805,3.8218 0.1505,3.9108 L-0.0005,2.9508 C0.6305,3.1018 1.1705,3.1608 1.9195,3.1608 L7.1405,3.1608 C7.9195,2.3218 8.1605,2.0508 8.9405,1.1818 C10.1395,2.1118 10.4995,2.4108 11.7305,3.4318 C11.8205,3.5218 11.8495,3.5808 11.8495,3.6418 C11.8495,3.7318 11.7305,3.7908 11.6105,3.7908 L9.4195,3.7908 L9.4195,18.3108 Z" id="Fill-1" fill="#B62805" mask="url(#mask-2)"></path>
                </g>
                <mask id="mask-4" fill="white">
                    <use xlink:href="#path-3"></use>
                </mask>
                <g id="Clip-5"></g>
                <path d="M46.38,26.3187 L52.2,26.3187 L52.2,18.8487 L46.38,18.8487 L46.38,26.3187 Z M47.221,5.6187 C46.92,6.1297 46.83,6.2797 46.38,6.9997 C47.221,8.4987 47.88,9.2797 49.29,10.4797 C50.67,8.6497 51.24,7.6897 52.2,5.6187 L47.221,5.6187 Z M38.131,17.2587 C39.48,18.3087 40.021,18.7887 40.681,19.5987 C41.461,20.4987 41.94,21.5487 41.94,22.3597 C41.94,23.6487 40.98,25.0297 40.08,25.0297 C39.78,25.0297 39.57,24.8787 39.48,24.5487 C39.421,24.3987 39.421,24.3987 39.24,22.6887 C39.001,20.1687 38.851,19.5697 37.891,17.4687 L38.131,17.2587 Z M30.48,5.1097 C31.951,5.7097 32.311,5.8897 32.971,6.2797 C33.961,3.9997 34.351,2.7407 34.65,1.0307 C38.94,2.3797 38.971,2.4097 38.971,2.7407 C38.971,3.0707 38.581,3.1897 37.561,3.2197 C37.201,3.6397 36.9,3.9397 36.721,4.1497 C35.311,5.6797 34.951,6.0397 33.871,6.8497 C35.07,7.7197 35.461,8.1997 35.461,8.9197 C35.461,9.9397 34.621,11.0787 33.811,11.0787 C33.421,11.0787 33.241,10.8397 32.821,9.7597 C32.161,7.9897 31.501,6.8197 30.271,5.3497 L30.48,5.1097 Z M52.2,4.9907 C52.89,4.2097 53.1,3.9697 53.79,3.2197 C54.93,4.0897 55.26,4.3607 56.28,5.1997 C56.52,5.4087 56.64,5.5897 56.64,5.7397 C56.64,6.0397 56.31,6.2497 55.41,6.4897 C54,8.9497 53.01,10.2997 51.45,11.9797 C53.58,13.1497 55.8,13.8097 58.859,14.1397 L58.83,14.5297 C58.08,14.8897 57.75,15.2187 57.359,16.0297 C57.24,16.3287 57.09,16.7487 57,17.1997 C56.91,17.5297 56.82,17.6787 56.64,17.6787 C56.52,17.6787 55.86,17.4087 55.2,17.0487 C53.01,15.9397 51.45,14.8897 49.95,13.4797 C48.24,15.0387 46.59,16.1497 44.49,17.2297 C45.181,17.5297 45.54,17.7087 46.62,18.2187 L52.14,18.2187 C52.65,17.6187 52.8,17.4397 53.31,16.8687 C54.39,17.5597 54.72,17.7697 55.71,18.4587 C55.979,18.6997 56.1,18.8487 56.1,18.9687 C56.1,19.2087 55.89,19.4187 55.32,19.7187 C55.32,24.5187 55.32,24.9387 55.439,27.8187 C55.439,28.5087 55.05,28.6577 53.19,28.6577 C52.35,28.6577 52.2,28.5687 52.2,28.0287 L52.2,26.9497 L46.38,26.9497 L46.38,27.9987 C46.38,28.6887 45.99,28.8687 44.37,28.8687 C43.44,28.8687 43.23,28.7487 43.23,28.2387 L43.23,28.1187 C43.29,25.6887 43.32,24.6387 43.32,21.6387 C43.32,20.0187 43.32,20.0187 43.261,17.8287 C42.511,18.1587 42.03,18.3387 40.74,18.8197 L40.561,18.4287 C43.62,16.4797 46.38,14.1097 48.33,11.7087 C47.34,10.4497 46.74,9.3687 46.021,7.5097 C44.46,9.7887 43.08,11.2887 41.131,12.7597 C41.82,13.5697 42.15,14.2587 42.15,14.8897 C42.15,15.9087 41.221,17.0787 40.381,17.0787 C39.961,17.0787 39.751,16.7187 39.66,15.9087 C39.57,15.3097 39.48,14.7987 39.36,14.1687 C38.551,14.4687 38.311,14.5597 37.65,14.7697 L37.65,20.9787 C37.65,24.0987 37.65,25.0297 37.74,27.9987 C37.74,28.3287 37.681,28.4787 37.53,28.5987 C37.291,28.7487 36.57,28.8687 35.581,28.8687 C34.831,28.8687 34.591,28.7187 34.591,28.2387 L34.591,28.1487 C34.711,23.6187 34.741,22.8687 34.741,21.2487 L34.741,19.4497 L34.23,19.5697 C33.661,21.4587 33.331,22.4187 32.611,23.9787 C31.831,25.6287 31.351,26.4687 30.271,27.9077 L29.941,27.7287 C30.901,24.4587 31.591,20.1997 31.621,17.6787 C33.391,18.1287 33.9,18.2797 34.741,18.5487 L34.741,15.6687 C33.331,16.0887 33.031,16.1497 31.861,16.4187 C31.711,17.1687 31.561,17.4397 31.321,17.4397 C31.021,17.4397 30.871,17.0197 30.181,13.6587 C31.021,13.7197 31.381,13.7487 31.801,13.7487 C32.041,13.7487 32.041,13.7487 33.061,13.6897 C34.021,12.4587 34.681,11.4987 35.551,10.0897 C37.051,7.5387 37.921,5.8897 38.4,4.5097 C39.211,4.8397 39.841,5.1097 40.261,5.2897 C41.82,5.9497 42.181,6.1587 42.181,6.4297 C42.181,6.7297 41.82,6.8797 40.891,6.8797 C38.82,9.3687 35.881,12.3997 34.381,13.6287 C37.561,13.4797 37.591,13.4797 39.121,13.3287 C38.761,12.1287 38.551,11.6797 37.831,10.5697 L38.011,10.4187 C39.631,11.3787 40.11,11.7087 40.891,12.4897 C42,10.7487 42.601,9.5497 43.44,7.5097 C44.431,5.0497 45.061,2.8607 45.301,0.9997 C46.32,1.2097 47.13,1.3897 47.61,1.4807 C49.44,1.8397 50.01,2.0497 50.01,2.3797 C50.01,2.6797 49.65,2.8607 48.63,3.0097 C48.15,3.9697 47.971,4.3297 47.58,4.9907 L52.2,4.9907 Z" id="Fill-4" fill="#B62805" mask="url(#mask-4)"></path>
                <path d="M79.7998,3.0996 C83.3698,4.2696 84.6908,5.1996 84.6908,6.4596 C84.6908,7.6296 83.7598,8.6496 82.7098,8.6496 C82.4998,8.6496 82.2598,8.5596 82.1398,8.4396 C81.9298,8.2296 81.9298,8.2296 81.5998,6.9696 C81.2098,5.5896 80.7898,4.7806 79.6508,3.3096 L79.7998,3.0996 Z M78.3298,11.1686 C78.5398,14.0486 78.8698,15.7586 79.5898,17.6786 C80.9998,15.3996 81.7198,13.8096 82.1108,12.1896 C86.2198,13.5996 86.3098,13.6286 86.3098,14.0196 C86.3098,14.3196 85.9198,14.4396 84.9008,14.4686 C83.2498,17.2296 82.3498,18.5786 80.8798,20.3196 C81.8108,21.7586 82.5898,22.5086 84.6908,24.0986 C85.6798,22.2986 86.0398,21.5486 87.3598,18.7296 L87.6598,18.8196 L86.8498,23.7686 C86.7298,24.5486 86.7298,24.5486 86.7298,24.7286 C86.7298,24.9986 86.7598,25.0296 87.2398,25.6286 C87.5398,25.9286 87.6898,26.3486 87.6898,26.7386 C87.6898,27.6386 86.9998,28.3586 86.1298,28.3586 C84.2098,28.3586 81.1198,25.8986 78.7498,22.4786 C76.1408,24.8186 74.0108,26.0786 70.2308,27.4586 L70.0508,27.1596 C73.1408,25.0586 75.3908,23.0186 77.5498,20.4396 C76.3508,17.9496 75.6908,15.2796 75.3298,11.1686 L69.6598,11.1996 L69.6598,15.7586 C71.5798,15.4586 72.5108,15.2796 74.6408,14.8286 L74.7608,15.1596 C72.5398,16.2986 71.5508,16.7486 69.6598,17.5296 L69.6598,21.6096 C69.6598,22.6286 69.6598,22.6286 69.6908,25.6886 C69.6598,27.4586 69.0608,28.1196 67.2008,28.5386 C66.6608,28.6286 66.1208,28.7186 65.8508,28.7186 C65.5808,28.7186 65.4908,28.6286 65.4608,28.2086 C65.3708,27.4586 65.0708,26.8586 64.5908,26.5286 C64.1708,26.2586 64.1708,26.2586 61.5308,25.4186 L61.5608,25.0586 C63.3308,25.1486 64.0508,25.1786 65.9708,25.2396 C66.3908,25.2396 66.4808,25.1786 66.4808,24.7586 L66.4808,18.6996 C64.6808,19.3286 63.3908,19.7796 62.6408,20.0486 C62.5208,20.9186 62.3408,21.2486 62.0408,21.2486 C61.7108,21.2486 61.6518,21.0386 60.6918,16.7796 C62.4308,16.7186 64.1408,16.5696 66.4808,16.2396 L66.4808,11.1996 L63.0608,11.1996 C61.9808,11.1996 61.3808,11.2596 60.6608,11.4096 L60.4808,10.2996 C61.2008,10.4496 62.1008,10.5386 63.0308,10.5386 L66.4808,10.5386 L66.4808,6.1896 C64.8608,6.5496 63.6908,6.7296 60.7508,6.9996 L60.6608,6.6696 C64.1108,5.4996 65.8208,4.7806 67.9208,3.5496 C69.4498,2.6796 70.1408,2.2296 70.9498,1.4806 C74.0708,3.5796 74.3698,3.7896 74.3698,4.0596 C74.3698,4.2696 74.1598,4.4196 73.9198,4.4196 C73.6198,4.4196 73.2608,4.3606 72.8698,4.2696 C71.3698,4.8396 70.7708,5.0496 69.6598,5.3796 L69.6598,10.5096 L75.3008,10.5096 C75.1508,8.7996 75.0908,7.1796 75.0608,5.2896 C75.0298,3.5196 74.9998,2.9506 74.8208,1.8706 C75.6908,1.9906 76.4098,2.0496 76.8298,2.0796 C78.6908,2.2596 79.2598,2.4406 79.2598,2.7696 C79.2598,3.0396 78.9898,3.1896 78.1808,3.4296 C78.1508,4.9296 78.1508,5.7996 78.1508,6.3396 C78.1508,7.6896 78.2098,9.3996 78.2708,10.4796 L82.2898,10.4796 C83.2198,9.3996 83.4898,9.0996 84.4498,8.1096 C85.9198,9.1896 86.3698,9.5496 87.7198,10.6896 C87.8398,10.8096 87.8998,10.8696 87.8998,10.9586 C87.8998,11.0496 87.7798,11.1396 87.5998,11.1396 L78.3298,11.1686 Z" id="Fill-6" fill="#B62805" mask="url(#mask-4)"></path>
                <path d="M110.88,11.2597 L113.64,11.2597 L113.64,7.6587 L110.88,7.6587 L110.88,11.2597 Z M110.88,7.0287 L113.64,7.0287 L113.64,3.7897 L110.88,3.7897 L110.88,7.0287 Z M110.88,11.8897 L110.88,12.6397 C110.851,12.8787 110.79,12.9987 110.7,13.0597 C110.49,13.2087 109.8,13.2987 108.78,13.2987 C108.061,13.2987 107.91,13.2087 107.88,12.7297 C108,10.6897 108.061,8.0197 108.061,4.5707 C108.061,3.0707 108.03,2.4697 107.94,1.4497 C109.29,2.0797 109.71,2.3207 111.03,3.1597 L113.43,3.1597 C114.12,2.4407 114.33,2.1997 115.02,1.5097 C116.1,2.1997 116.43,2.4407 117.479,3.2807 C117.689,3.4907 117.78,3.5797 117.78,3.6997 C117.78,3.9097 117.51,4.1197 116.76,4.5097 L116.76,19.4497 C116.79,22.9897 116.82,24.9687 116.85,25.3587 C116.85,26.5287 116.7,27.0987 116.22,27.5487 C115.65,28.1487 114.99,28.4487 113.82,28.6287 C113.4,28.6887 113.13,28.7187 112.92,28.7187 C112.561,28.7187 112.53,28.6577 112.44,28.0887 C112.23,26.4687 111.66,26.0487 108.391,25.3287 L108.42,24.9987 C109.62,25.0887 109.62,25.0887 113.01,25.2087 L113.1,25.2087 C113.49,25.2087 113.64,25.0887 113.64,24.7287 L113.64,11.8897 L110.88,11.8897 Z M101.041,11.2597 L103.71,11.2597 L103.71,7.6587 L101.041,7.6587 L101.041,11.2597 Z M101.041,7.0287 L103.71,7.0287 L103.71,3.7897 L101.041,3.7897 L101.041,7.0287 Z M89.281,16.3887 C90.931,13.2697 91.98,10.6587 93.001,7.0897 C93.721,4.6897 94.081,3.0097 94.23,1.2997 C96.391,2.0197 96.99,2.2597 98.041,2.7097 C98.011,2.1697 98.011,2.1697 97.98,1.5097 C99.391,2.0797 99.841,2.3207 101.221,3.1597 L103.561,3.1597 C104.131,2.4407 104.311,2.2297 104.91,1.5997 C105.87,2.2597 106.17,2.4997 107.07,3.2497 C107.25,3.4297 107.34,3.5197 107.34,3.6107 C107.34,3.7897 107.101,3.9997 106.561,4.3297 C106.53,5.7697 106.53,6.9087 106.53,7.5997 C106.53,8.1997 106.53,9.1897 106.59,12.6097 C106.53,12.8787 106.471,12.9987 106.38,13.0887 C106.17,13.2397 105.57,13.3287 104.7,13.3287 C103.92,13.3287 103.771,13.2397 103.71,12.7297 L103.71,11.8897 L101.041,11.8897 L101.041,21.7287 C101.041,24.8487 101.041,24.8487 101.07,28.0587 C101.041,28.2987 101.011,28.4187 100.891,28.4787 C100.62,28.6577 99.721,28.7787 98.791,28.7787 C98.101,28.7787 97.921,28.6577 97.831,28.1787 C98.011,23.5297 98.07,19.0887 98.07,11.5897 L98.07,3.3397 C97.74,3.4297 97.65,3.4297 97.351,3.4907 C96.15,6.7887 95.581,8.1097 94.471,10.1187 C96.36,10.5097 96.57,10.5697 96.57,10.8397 C96.57,11.1097 96.301,11.3197 95.671,11.5897 L95.671,21.1287 L95.671,23.2587 C95.701,26.4087 95.701,26.4087 95.701,28.0287 C95.641,28.3587 95.581,28.5087 95.431,28.5987 C95.161,28.7787 94.531,28.8687 93.781,28.8687 C92.671,28.8687 92.461,28.7487 92.4,28.0887 C92.491,25.1487 92.551,22.7797 92.551,21.1587 L92.551,13.1187 C91.561,14.4397 90.931,15.1587 89.551,16.5697 L89.281,16.3887 Z" id="Fill-7" fill="#B62805" mask="url(#mask-4)"></path>
                <polygon id="Fill-8" fill="#B62805" mask="url(#mask-4)" points="138.2998 3.4297 140.0998 3.4297 130.1108 31.1787 128.3108 31.1787"></polygon>
                <path d="M169.8291,10.959 C169.4991,9.01 169.0791,7.84 168.2391,6.64 C167.0091,4.87 165.1491,3.85 163.1991,3.85 C161.2791,3.85 159.5391,4.84 158.5501,6.489 C157.3801,8.439 156.8091,11.05 156.8091,14.319 C156.8091,20.979 159.5101,25.089 163.9191,25.089 C166.1691,25.089 168.2991,23.979 169.7691,21.999 C170.2791,21.309 170.6391,20.649 171.0891,19.539 L171.9591,20.019 C170.3391,24.279 167.4291,26.349 162.9591,26.349 C160.0791,26.349 157.4091,25.329 155.5801,23.529 C153.5691,21.549 152.4901,18.52 152.4901,14.89 C152.4901,7.659 156.6301,2.98 163.0501,2.98 C164.6091,2.98 165.2691,3.1 168.0291,3.85 C168.4491,3.97 168.8391,4.03 169.2891,4.03 C169.7391,4.03 169.9491,3.97 170.9091,3.64 L170.9091,10.959 L169.8291,10.959 Z" id="Fill-9" fill="#B62805" mask="url(#mask-4)"></path>
                <path d="M180.6299,22.7187 C181.5899,24.5787 183.1799,25.5387 185.3099,25.5387 C187.4099,25.5387 188.9999,24.5787 189.9599,22.7187 C191.0099,20.6787 191.4889,18.1897 191.4889,14.6497 C191.4889,11.1397 191.0099,8.6497 189.9599,6.6097 C188.9699,4.7197 187.4399,3.7897 185.3099,3.7897 C183.1799,3.7897 181.5899,4.7497 180.6299,6.6097 C179.5799,8.6497 179.0999,11.1987 179.0999,14.6497 C179.0999,18.1587 179.5799,20.6497 180.6299,22.7187 M177.2709,6.5197 C179.0099,4.2697 181.9499,2.9797 185.3099,2.9797 C188.6399,2.9797 191.5199,4.2397 193.3189,6.5197 C194.9699,8.5597 195.8689,11.4987 195.8689,14.6497 C195.8689,17.8287 194.9699,20.7687 193.3189,22.8087 C191.5199,25.0587 188.6399,26.3487 185.3099,26.3487 C181.9799,26.3487 179.0399,25.0587 177.2709,22.8087 C175.6509,20.7687 174.7209,17.7987 174.7209,14.6497 C174.7209,11.4987 175.6199,8.6187 177.2709,6.5197" id="Fill-10" fill="#B62805" mask="url(#mask-4)"></path>
                <path d="M202.4092,20.1094 C202.4092,24.0684 202.9492,24.9094 205.5292,25.0584 L205.5292,25.8694 L198.0002,25.8694 L198.0002,25.0584 C200.5502,24.9384 201.1802,23.9494 201.1802,19.8694 L201.1802,7.9604 C201.1802,5.0194 200.6692,4.3894 198.2692,4.2104 L198.2692,3.4294 L204.5392,3.4294 L216.7782,20.7094 L216.7782,9.4294 C216.7782,7.1794 216.6292,6.0694 216.2092,5.3804 C215.7592,4.5994 215.1292,4.3304 213.5982,4.2404 L213.5982,3.4294 L221.1882,3.4294 L221.1882,4.2404 C219.7492,4.2994 219.1192,4.5994 218.6382,5.3804 C218.1882,6.0994 218.0092,7.2994 218.0092,9.2194 L218.0092,25.9884 L215.7892,25.9884 L202.4092,6.8494 L202.4092,20.1094 Z" id="Fill-11" fill="#B62805" mask="url(#mask-4)"></path>
                <path d="M234.0889,21.9687 C234.0889,24.7287 234.3889,25.0297 237.2079,25.0887 L237.2079,25.8687 L227.0389,25.8687 L227.0389,25.0887 C229.8279,25.0297 230.1289,24.7287 230.1289,21.9687 L230.1289,4.2097 C227.4589,4.2697 226.0489,4.7497 224.9989,5.9487 C224.1589,6.9087 223.6489,8.4397 223.1989,11.1097 L222.1189,11.0497 L222.6889,3.4297 L241.5589,3.4297 L242.1279,11.0497 L241.0479,11.1097 C240.5679,8.1987 239.9679,6.6397 238.9789,5.7097 C237.9289,4.6897 236.5779,4.2697 234.0889,4.2097 L234.0889,21.9687 Z" id="Fill-12" fill="#B62805" mask="url(#mask-4)"></path>
                <path d="M251.8486,7.3594 L248.1896,17.1094 L255.2686,17.1094 L251.8486,7.3594 Z M246.9286,20.5584 C246.4796,21.6994 246.2696,22.6294 246.2696,23.3194 C246.2696,24.4894 247.1096,25.0294 249.0886,25.0884 L249.0886,25.8694 L241.3786,25.8694 L241.3786,25.0884 C243.3286,25.0584 244.4096,23.8884 245.7586,20.3484 L252.1486,3.4294 L254.3696,3.1894 L260.9086,21.5794 C261.5986,23.4384 262.1686,24.3984 262.8586,24.7584 C263.1886,24.9094 263.4576,24.9684 264.4486,25.0884 L264.4486,25.8694 L254.6686,25.8694 L254.6686,25.0884 C256.5586,25.0294 257.2486,24.6384 257.2486,23.6484 L257.2486,23.5584 C257.2186,23.0794 257.0686,22.3294 256.7986,21.5794 L255.6596,18.2794 L247.7696,18.2794 L246.9286,20.5584 Z" id="Fill-13" fill="#B62805" mask="url(#mask-4)"></path>
                <path d="M282.209,10.959 C281.879,9.01 281.459,7.84 280.619,6.64 C279.389,4.87 277.529,3.85 275.579,3.85 C273.659,3.85 271.919,4.84 270.93,6.489 C269.76,8.439 269.189,11.05 269.189,14.319 C269.189,20.979 271.89,25.089 276.299,25.089 C278.549,25.089 280.679,23.979 282.149,21.999 C282.659,21.309 283.019,20.649 283.469,19.539 L284.339,20.019 C282.719,24.279 279.809,26.349 275.339,26.349 C272.459,26.349 269.789,25.329 267.96,23.529 C265.949,21.549 264.87,18.52 264.87,14.89 C264.87,7.659 269.01,2.98 275.43,2.98 C276.989,2.98 277.649,3.1 280.409,3.85 C280.829,3.97 281.219,4.03 281.669,4.03 C282.119,4.03 282.329,3.97 283.289,3.64 L283.289,10.959 L282.209,10.959 Z" id="Fill-14" fill="#B62805" mask="url(#mask-4)"></path>
                <path d="M297.8691,21.9687 C297.8691,24.7287 298.1691,25.0297 300.9881,25.0887 L300.9881,25.8687 L290.8191,25.8687 L290.8191,25.0887 C293.6091,25.0297 293.9091,24.7287 293.9091,21.9687 L293.9091,4.2097 C291.2391,4.2697 289.8291,4.7497 288.7791,5.9487 C287.9391,6.9087 287.4291,8.4397 286.9791,11.1097 L285.8991,11.0497 L286.4691,3.4297 L305.3391,3.4297 L305.9081,11.0497 L304.8281,11.1097 C304.3481,8.1987 303.7481,6.6397 302.7591,5.7097 C301.7091,4.6897 300.3581,4.2697 297.8691,4.2097 L297.8691,21.9687 Z" id="Fill-15" fill="#B62805" mask="url(#mask-4)"></path>
                <path d="M326.1582,3.4297 L326.1582,4.2097 C323.8182,4.2997 323.5782,4.5997 323.5782,7.3287 L323.5782,16.8097 C323.5782,19.6287 323.8792,21.3087 324.6582,22.6287 C325.6182,24.2487 327.2682,25.1187 329.3982,25.1187 C331.9182,25.1187 333.8682,23.9187 334.7682,21.7887 C335.2482,20.6497 335.5182,18.7587 335.5182,16.4187 L335.5182,9.4297 C335.5182,5.1997 335.0082,4.3607 332.4292,4.2407 L332.4292,3.4297 L339.8072,3.4297 L339.8072,4.2407 C337.3182,4.3607 336.7482,5.3197 336.7482,9.4297 L336.7482,16.4497 C336.7482,19.6287 336.4182,21.4287 335.5482,22.8987 C334.1382,25.2687 331.9182,26.3487 328.4982,26.3487 C325.1382,26.3487 322.5892,25.3287 321.1192,23.4387 C320.0392,21.9987 319.6792,20.5887 319.6792,17.5297 L319.6792,7.3287 C319.6792,4.5997 319.4382,4.2997 317.0692,4.2097 L317.0692,3.4297 L326.1582,3.4297 Z" id="Fill-16" fill="#B62805" mask="url(#mask-4)"></path>
                <path d="M341.9687,18.8193 L343.1677,18.8193 C343.5877,23.3193 345.3887,25.4493 348.7477,25.4493 C351.3877,25.4493 352.9777,23.8883 352.9777,21.3083 C352.9777,19.2693 351.8077,18.0393 348.0577,16.2093 C345.5077,14.9793 344.8187,14.5893 344.1277,14.0793 C342.4177,12.8193 341.6677,11.3793 341.6677,9.3093 C341.6677,6.8493 343.0187,4.7193 345.2077,3.7003 C346.2287,3.2193 347.4277,3.0093 349.0477,3.0093 C350.0377,3.0093 350.4577,3.0703 352.7077,3.5193 C353.1277,3.6103 353.4577,3.6393 353.7577,3.6393 C354.2387,3.6393 354.6577,3.5493 355.5577,3.2193 L355.3177,9.9393 L354.1177,9.9393 C353.9977,8.2293 353.7277,7.2103 353.0977,6.1893 C352.1977,4.6603 350.7277,3.8203 348.9577,3.8203 C346.6487,3.8203 345.0587,5.4093 345.0587,7.7193 C345.0587,8.7093 345.3887,9.5793 346.0477,10.2393 C346.7977,10.9593 347.5477,11.4093 349.9477,12.5483 C352.6177,13.7793 353.9077,14.5893 354.9277,15.6093 C355.9477,16.6593 356.4877,18.0393 356.4877,19.7793 C356.4877,21.8193 355.7377,23.5583 354.3877,24.6083 C352.9777,25.7183 351.0877,26.3183 348.8987,26.3183 C347.6977,26.3183 346.9787,26.2283 344.8487,25.8083 C344.4887,25.7493 344.0987,25.7183 343.7077,25.7183 C343.1977,25.7183 342.8087,25.7783 341.7287,25.9883 L341.9687,18.8193 Z" id="Fill-17" fill="#B62805" mask="url(#mask-4)"></path>
            </g>
        </g>
    </g>
</svg>