<?xml version="1.0" encoding="UTF-8" standalone="no"?>
<svg width="241px" height="31px" viewBox="0 0 241 31" version="1.1" xmlns="http://www.w3.org/2000/svg" xmlns:xlink="http://www.w3.org/1999/xlink">
    <!-- Generator: Sketch 41.2 (35397) - http://www.bohemiancoding.com/sketch -->
    <title>title04_foods</title>
    <desc>Created with Sketch.</desc>
    <defs></defs>
    <g id="紅磚屋_UI-KIT" stroke="none" stroke-width="1" fill="none" fill-rule="evenodd">
        <g id="UI-KIT" transform="translate(-1006.000000, -264.000000)" fill="#B62805">
            <g id="title04_foods" transform="translate(1006.000000, 264.000000)">
                <path d="M14.8193,5.0703 C15.8093,3.3593 16.5293,1.7103 16.9493,0.1193 C17.9393,0.3893 18.7193,0.6303 19.2293,0.7503 C21.2393,1.3203 21.5993,1.4693 21.5993,1.7693 C21.5993,2.0993 21.2393,2.2193 20.1293,2.3093 C18.4793,3.5993 17.8493,4.0493 16.2293,5.0703 L21.1193,5.0703 C21.9893,4.0803 22.2583,3.7793 23.1293,2.8493 C24.4493,3.8093 24.8693,4.1093 26.1593,5.1603 C26.3393,5.3093 26.3993,5.3993 26.3993,5.4903 C26.3993,5.6093 26.2493,5.6993 26.0083,5.6993 L14.8493,5.6993 L14.8493,9.2393 L19.3193,9.2393 C20.1893,8.2793 20.4893,7.9793 21.3893,7.0193 C22.6793,7.9793 23.0693,8.3093 24.3293,9.3303 C24.4493,9.4793 24.5083,9.5693 24.5083,9.6603 C24.5083,9.7793 24.3593,9.8693 24.0893,9.8693 L14.8493,9.8693 L14.8493,13.5583 L21.7193,13.5583 C22.5593,12.5693 22.7983,12.2393 23.6993,11.2503 C25.1093,12.2393 25.5293,12.5693 26.8193,13.6193 C26.9993,13.7693 27.0583,13.8883 27.0583,13.9493 C27.0583,14.0993 26.8793,14.1893 26.6693,14.1893 L2.7593,14.1893 C1.9803,14.1893 1.1703,14.2493 0.3603,14.3993 L0.1793,13.2893 C1.1393,13.5003 1.8303,13.5583 2.7303,13.5583 L11.5193,13.5583 L11.5193,9.8693 L5.3403,9.8693 C4.5593,9.8693 3.9293,9.9293 3.1793,10.0493 L3.0003,8.9683 C3.9003,9.1793 4.5903,9.2393 5.3403,9.2393 L11.5193,9.2393 L11.5193,5.6993 L3.6903,5.6993 C3.0003,5.6993 2.4603,5.7293 1.5003,5.8793 L1.2903,4.7993 C2.2193,5.0093 2.8803,5.0703 3.7193,5.0703 L8.6393,5.0703 C8.3993,4.7093 8.3993,4.7093 7.9503,3.5703 C7.4393,2.2193 6.9603,1.5003 5.9693,0.5703 L6.1503,0.3303 C10.0803,1.3803 11.3993,2.1893 11.3993,3.5093 C11.3993,4.1093 11.1303,4.6493 10.5903,5.0703 L14.8193,5.0703 Z M14.8803,18.8393 C15.9293,20.4593 17.0093,21.3593 18.9893,22.3183 C21.3893,23.4593 24.0593,23.9993 27.8393,24.0293 L27.8393,24.3883 C26.8483,24.8393 26.4283,25.1993 26.0393,25.8283 C25.7983,26.2483 25.5293,26.8483 25.4093,27.2993 C25.2583,27.7483 25.1993,27.8393 24.8993,27.8393 C24.1783,27.8393 21.8393,26.9393 20.4293,26.1293 C17.6393,24.5083 15.5093,21.9883 14.3403,18.9593 C13.6193,21.6893 12.0293,23.7893 9.5403,25.3483 C7.1393,26.8483 4.7403,27.5393 0.0903,28.0783 L0.0003,27.6583 C3.7503,26.5183 6.1203,25.2583 8.1303,23.3393 C9.4503,22.0793 10.3493,20.6093 10.8593,18.8393 L3.2403,18.8393 C2.3403,18.8393 1.5903,18.8983 0.8703,19.0193 L0.6303,17.9683 C1.6203,18.1483 2.3103,18.2093 3.2403,18.2093 L11.0403,18.2093 C11.2793,17.1593 11.3703,16.3793 11.3703,15.5393 C11.3703,15.3883 11.3703,15.0903 11.3403,14.7283 C15.3593,15.0903 15.9893,15.2093 15.9893,15.5993 C15.9893,15.8983 15.6303,16.1093 14.8193,16.2893 C14.6993,17.2183 14.6393,17.5193 14.5193,18.2093 L21.1793,18.2093 C22.0483,17.1893 22.3493,16.8593 23.2493,15.8083 C24.6893,16.8593 25.1093,17.1893 26.4893,18.2993 C26.6383,18.4493 26.6993,18.5393 26.6993,18.6293 C26.6993,18.7493 26.5483,18.8393 26.3093,18.8393 L14.8803,18.8393 Z" id="Fill-1"></path>
                <path d="M42.6895,18.2392 C43.5005,19.8592 44.6695,21.0292 46.6795,22.2592 C47.7595,21.3292 48.8095,20.2182 49.7695,19.0792 C49.2595,19.1092 49.0495,19.1382 48.7795,19.1382 C48.3295,19.1382 48.1495,19.0192 48.1195,18.6292 L48.1195,18.2392 L42.6895,18.2392 Z M38.3705,18.2392 L38.3705,23.8182 C42.5405,23.2492 42.6295,23.2492 44.7905,22.7992 C43.5295,21.3292 42.7195,19.9192 42.1795,18.2392 L38.3705,18.2392 Z M38.3705,17.6092 L48.1195,17.6092 L48.1195,14.1892 L38.3705,14.1892 L38.3705,17.6092 Z M38.3705,13.5592 L48.1195,13.5592 L48.1195,10.3792 L38.3705,10.3792 L38.3705,13.5592 Z M47.9395,9.7502 C48.4185,9.2692 48.5995,9.1192 48.9295,8.8192 C46.7105,6.8692 45.2695,5.0392 44.0095,2.6392 C41.7295,5.3402 39.7795,7.1702 37.3205,8.9682 C37.6795,9.1792 37.9795,9.3592 38.5495,9.7502 L41.5495,9.7502 L41.5495,8.0692 C41.5495,7.4102 41.4895,6.9592 41.3705,6.0292 C45.6295,6.4492 45.8995,6.4792 45.8995,6.8992 C45.8995,7.1392 45.5995,7.3492 44.8195,7.5902 L44.8195,9.7502 L47.9395,9.7502 Z M57.9895,9.4202 C56.7895,9.9292 56.2185,10.6492 55.7095,12.1492 C55.5885,12.5392 55.5295,12.6292 55.3495,12.6292 C54.8385,12.6292 52.9495,11.6992 51.2985,10.5902 C51.3295,13.1992 51.3295,14.9682 51.3595,17.3692 C54.4795,19.2602 54.8095,19.4682 54.8095,19.7692 C54.8095,19.9492 54.5995,20.0992 54.2985,20.0992 C54.0295,20.0992 53.7295,20.0682 53.3995,20.0092 C50.9395,21.3292 49.4695,21.9592 47.3695,22.6482 C49.8295,23.9082 52.7095,24.4782 57.0885,24.6292 L57.0885,24.9882 C55.9795,25.4982 55.4685,25.9782 55.0195,26.9682 C54.8385,27.2992 54.7495,27.5682 54.6895,27.9592 C54.6285,28.1992 54.5085,28.3182 54.3295,28.3182 C54.1195,28.3182 53.6685,28.2282 53.1595,28.0492 C49.8895,27.0582 47.2195,25.4392 45.1195,23.1892 C43.3795,24.0292 42.3895,24.4782 40.8305,25.1092 C40.7395,25.1382 38.3395,25.9782 33.6295,27.6582 C33.5405,28.5582 33.3895,28.9182 33.0595,28.9182 C32.6695,28.9182 32.4905,28.4382 31.4405,24.4492 L31.8605,24.4492 C32.7305,24.4492 33.2705,24.4192 35.1605,24.2092 L35.1605,10.4092 C33.5405,11.3992 32.0095,12.1792 29.4305,13.2602 L29.2195,12.8692 C32.6395,10.4682 34.3495,8.9392 36.8395,6.0592 C39.0595,3.5392 40.1095,2.0102 40.7995,0.3302 C45.6295,1.5592 45.6295,1.5592 45.6295,1.9202 C45.6295,2.1892 45.3295,2.3092 44.4895,2.4292 C45.5395,3.7792 46.3495,4.5002 47.9395,5.5502 C50.8785,7.5292 53.9685,8.6092 57.9895,9.0592 L57.9895,9.4202 Z" id="Fill-3"></path>
                <path d="M81.749,11.1894 C82.529,11.2504 83.249,11.3094 83.699,11.3094 C84.27,11.3094 84.359,11.1894 84.359,10.3494 C84.359,8.7594 83.759,7.5894 82.35,6.5094 C83.1,4.7694 83.369,4.0494 83.909,2.2794 L81.539,2.2794 L81.539,13.4394 L81.539,13.5584 C81.539,13.7984 81.449,13.9494 81.329,14.0394 C81.119,14.1894 80.399,14.3084 79.619,14.3084 C78.899,14.3084 78.749,14.1894 78.749,13.7094 L78.749,13.6494 C78.84,11.3094 78.869,9.2694 78.869,4.7094 C78.869,3.4494 78.81,2.0994 78.749,0.3594 C80.069,0.9004 80.459,1.0804 81.72,1.6504 L83.729,1.6504 C84.329,1.0494 84.509,0.9004 85.139,0.3594 C86.129,1.1694 86.429,1.4104 87.359,2.2504 C87.539,2.4594 87.629,2.5804 87.629,2.6694 C87.629,2.8794 87.329,3.0004 86.459,3.1194 C84.6,4.9194 83.399,6.0594 82.919,6.5094 C84.359,7.1694 84.989,7.5894 85.77,8.3694 C86.579,9.1794 86.999,10.1094 86.999,11.0694 C86.999,12.0004 86.579,12.7794 85.829,13.1994 C85.259,13.5294 84.479,13.7694 83.879,13.7694 C83.609,13.7694 83.52,13.6794 83.489,13.3494 C83.339,12.2394 82.979,11.8784 81.72,11.5194 L81.749,11.1894 Z M72.659,22.4994 C73.89,23.6094 75.449,24.3884 77.699,24.9594 C79.169,23.6994 79.169,23.6994 79.829,23.0394 C79.26,23.0994 78.959,23.1284 78.539,23.1284 C77.819,23.1284 77.67,23.0394 77.67,22.6194 L77.67,22.4994 L72.659,22.4994 Z M75.149,10.5894 C75.6,10.0194 75.6,10.0194 76.26,9.2694 L71.64,9.2694 L71.64,10.5894 L75.149,10.5894 Z M75.149,8.6394 C75.539,8.1284 75.659,7.9794 76.05,7.5594 L75.779,7.5594 C75.329,7.5594 75.18,7.4694 75.149,7.1994 L71.64,7.1994 L71.64,8.6394 L75.149,8.6394 Z M71.639,6.5684 L75.149,6.5684 L75.149,5.1284 L71.639,5.1284 L71.639,6.5684 Z M71.639,4.5004 L75.149,4.5004 L75.149,3.1194 L71.639,3.1194 L71.639,4.5004 Z M68.189,25.0194 C71.55,24.8084 71.55,24.8084 73.92,24.5394 C73.05,23.8184 72.75,23.4884 71.97,22.4994 L68.189,22.4994 L68.189,25.0194 Z M68.19,21.8694 L77.67,21.8694 L77.67,20.3084 L68.19,20.3084 L68.19,21.8694 Z M68.19,19.6804 L77.67,19.6804 L77.67,18.2094 L68.19,18.2094 L68.19,19.6804 Z M77.67,17.5794 C78.06,17.1284 78.18,17.0094 78.569,16.6794 C78.329,16.5584 78.329,16.5584 77.189,15.9894 C76.05,15.4194 75.09,14.7284 73.47,13.1994 C71.609,14.4294 70.68,14.9994 69.3,15.7494 C69.689,15.8394 70.2,15.8984 70.71,15.8984 L72.84,15.8984 C73.38,15.2694 73.56,15.0584 74.13,14.4594 C75.06,15.1794 75.329,15.3884 76.199,16.1094 C76.319,16.2284 76.38,16.2894 76.38,16.3494 C76.38,16.4684 76.26,16.5294 76.02,16.5294 L70.71,16.5294 C70.05,16.5294 69.84,16.5584 69.39,16.6484 L69.18,15.8084 C68.91,15.9594 68.76,16.0484 68.64,16.0794 C67.53,16.6194 67.53,16.6194 67.29,16.7094 C67.71,17.0094 67.89,17.1594 68.46,17.5794 L77.67,17.5794 Z M59.91,2.6694 C60.96,2.9394 61.38,3.0894 62.28,3.4794 C62.94,2.1894 63.36,1.0194 63.57,0.0894 C66.93,1.4104 67.02,1.4394 67.02,1.7404 C67.02,2.0094 66.72,2.0994 65.79,2.1604 C64.77,2.9394 64.41,3.1504 63.15,3.9594 C63.78,4.3784 63.99,4.7094 63.99,5.3694 C63.99,6.2984 63.39,7.1094 62.73,7.1094 C62.4,7.1094 62.28,6.9904 61.98,6.2984 C61.26,4.5594 60.72,3.7194 59.76,2.8494 L59.91,2.6694 Z M69.09,4.5004 C69.09,3.2694 69.06,2.6094 69,1.2304 C70.26,1.7404 70.649,1.9194 71.88,2.4904 L71.939,2.4904 C72.21,1.4104 72.3,0.7504 72.3,0.0004 C75.659,0.5094 75.689,0.5094 75.689,0.7794 C75.689,1.0194 75.449,1.1394 74.64,1.2304 C73.859,1.8304 73.59,2.0394 72.93,2.4904 L74.97,2.4904 C75.479,1.9494 75.659,1.7994 76.199,1.2304 C77.01,1.7694 77.249,1.9494 77.97,2.4904 C78.209,2.6394 78.329,2.7594 78.329,2.8494 C78.329,3.0294 78.149,3.1794 77.609,3.5394 L77.609,4.4694 C77.609,5.1284 77.609,5.5194 77.67,6.8994 C77.609,7.2894 77.43,7.4104 76.68,7.5004 C77.13,7.8894 77.369,8.0994 78.18,8.8494 C78.27,8.9684 78.329,9.0594 78.329,9.1194 C78.329,9.2094 78.209,9.2694 77.999,9.2694 L76.409,9.2694 C76.89,9.6284 77.1,9.8394 78.18,10.7984 C78.27,10.9194 78.329,11.0094 78.329,11.0694 C78.329,11.1594 78.209,11.2184 78.029,11.2184 L71.64,11.2184 L71.64,11.2794 C71.85,11.3394 72.06,11.3994 72.239,11.4594 C75.06,12.2984 75.149,12.3294 75.149,12.5694 C75.149,12.6594 75.09,12.7504 75.029,12.7794 C74.97,12.8394 74.67,12.8994 74.13,13.0194 C75.569,13.9494 76.38,14.3084 78.029,14.7594 C81.029,15.5994 83.459,15.8694 87.929,15.8694 L87.929,16.1094 C87.299,16.3784 87.029,16.6194 86.699,17.1594 C86.459,17.5484 86.31,17.9684 86.249,18.3594 C86.189,18.6894 86.099,18.7794 85.829,18.7794 C85.169,18.7794 82.829,18.2694 81.209,17.7894 C80.999,17.9394 80.909,17.9994 80.699,18.1484 C80.699,20.3984 80.699,20.3984 80.729,21.2694 L80.729,22.0194 C80.909,21.7494 80.97,21.6584 81.149,21.3594 C81.839,21.6894 82.379,21.9594 82.709,22.1094 C84.029,22.7094 84.39,22.9184 84.39,23.1284 C84.39,23.3694 84.089,23.4594 83.459,23.4594 L83.129,23.4594 C81.27,24.2694 80.789,24.4184 78.51,25.1094 C80.069,25.3784 82.169,25.4984 84.959,25.4984 C85.649,25.4984 86.31,25.4984 87.569,25.4394 L87.569,25.7384 C86.129,26.4594 85.739,26.9394 85.529,28.1094 C85.499,28.3784 85.379,28.4684 85.079,28.4684 C83.729,28.4684 80.729,27.8984 79.05,27.3594 C77.159,26.6994 75.75,25.9784 74.25,24.8084 C70.68,26.0984 68.1,26.7894 62.43,28.0484 C62.311,28.6784 62.13,28.9494 61.89,28.9494 C61.59,28.9494 61.59,28.9494 60.84,25.1384 C61.47,25.1994 61.74,25.1994 62.25,25.1994 C62.79,25.1994 63.96,25.1684 65.19,25.1384 L65.19,17.6384 C63.15,18.3294 61.95,18.6594 59.58,19.1684 L59.46,18.8694 C64.53,16.6194 67.439,14.8494 70.05,12.4494 C69.899,12.4794 69.81,12.4794 69.75,12.4794 C69.21,12.4794 69,12.3594 69,12.1194 L69,12.0294 C69.06,9.9594 69.06,9.7794 69.06,8.8194 C68.88,8.8494 68.79,8.8494 68.609,8.8784 C67.35,11.0994 66.24,12.4494 64.56,13.8294 C63.12,15.0294 61.8,15.8084 59.641,16.7394 L59.49,16.4994 C61.17,15.3594 62.311,14.2794 63.69,12.5394 C64.56,11.4594 65.1,10.6194 65.55,9.7504 C64.35,10.4394 64.02,10.5594 61.44,11.5194 C61.38,12.2394 61.23,12.5994 60.96,12.5994 C60.66,12.5994 60.57,12.3594 59.641,9.2984 C60.27,9.3594 60.51,9.3594 60.87,9.3594 C61.05,9.3594 61.26,9.3594 61.68,9.3304 C61.86,9.1794 61.86,9.1794 62.16,8.8494 C62.76,8.1894 64.35,5.9694 65.16,4.6494 C65.52,4.0804 65.729,3.7194 66.09,3.0004 C68.31,3.9294 69.03,4.3204 69.03,4.5594 C69.03,4.7994 68.76,4.8894 68.04,4.8894 C66.36,6.5094 63.81,8.5804 62.67,9.2984 C63.66,9.2394 63.96,9.2094 65.91,9.0294 C66.24,8.4294 66.33,8.1284 66.54,7.1994 C67.89,7.7404 68.25,7.8894 69.09,8.2504 L69.09,4.5004 Z" id="Fill-5"></path>
                <path d="M101.0996,18.6289 C100.6796,19.2599 99.3596,20.9399 98.8496,21.5389 C100.4696,21.6579 103.0496,21.9589 104.0396,22.1089 C105.1796,21.0589 105.8396,20.1589 106.6196,18.6289 L101.0996,18.6289 Z M98.5796,14.3089 L108.2086,14.3089 L108.2086,11.4299 L98.5796,11.4299 L98.5796,14.3089 Z M98.5796,10.7989 L108.2086,10.7989 L108.2086,8.0999 L98.5796,8.0999 L98.5796,10.7989 Z M110.1896,18.6289 C109.1996,20.4879 108.2996,21.7789 107.3096,22.6789 C111.5086,23.4879 112.1096,23.6689 113.0986,24.2989 C113.8786,24.8089 114.2986,25.6789 114.2986,26.7889 C114.2986,27.5679 113.8786,28.1389 113.3386,28.1389 C113.0986,28.1389 112.4986,27.8089 111.5986,27.1789 C110.2796,26.2789 107.9696,25.1089 105.5696,24.1489 C101.8796,26.8489 97.6206,27.8989 90.1506,27.8989 L90.0606,27.5989 C93.5096,27.0589 94.9506,26.7289 97.3206,25.9489 C99.4196,25.2289 101.0996,24.3889 102.7496,23.1899 C101.2796,22.7699 100.2296,22.4989 98.3706,22.1089 C97.9506,22.6789 97.8296,22.8289 97.3496,23.3689 C97.0496,23.6689 96.8706,23.7589 96.5396,23.7589 C95.7006,23.7589 94.7406,23.6089 94.2896,23.4289 C94.1396,23.3689 94.0196,23.2189 94.0196,23.0679 C94.0196,22.9789 94.0796,22.8589 94.2006,22.6789 C95.7596,20.9989 96.3296,20.3389 97.5896,18.6289 L91.9506,18.6289 C91.3506,18.6289 90.9596,18.6589 90.1796,18.7789 L89.9106,17.6689 C90.7196,17.8789 91.5896,17.9989 92.0996,17.9989 L98.0706,17.9989 C99.1796,16.4399 99.3896,16.1089 99.8996,15.0289 C103.2596,15.5099 103.7696,15.6289 103.7696,15.9299 C103.7696,16.1389 103.3196,16.3789 102.5696,16.5289 C102.1206,17.2189 101.9996,17.4299 101.5496,17.9989 L111.5696,17.9989 C112.5586,16.9489 112.8596,16.6189 113.8486,15.5689 C115.2586,16.6489 115.7396,17.0099 117.2396,18.1799 C117.3286,18.2699 117.3886,18.3589 117.3886,18.4189 C117.3886,18.5099 117.2396,18.6289 117.0886,18.6289 L110.1896,18.6289 Z M101.6096,4.3789 L101.6096,2.6089 C101.6096,2.0389 101.5796,1.5599 101.4296,0.3899 C102.3596,0.5099 103.1396,0.5699 103.5896,0.6299 C106.0196,0.8689 106.3496,0.9599 106.3496,1.3199 C106.3496,1.6189 105.9896,1.8299 105.0296,2.0999 L105.0296,4.3789 L112.0486,4.3789 C112.9496,3.5099 112.9496,3.5099 113.8486,2.6399 C115.2886,3.6899 115.7396,4.0499 117.1786,5.2499 C117.4186,5.4589 117.5086,5.6399 117.5086,5.7889 C117.5086,6.0899 116.9986,6.2399 115.8886,6.2399 L115.4686,6.2399 C114.8986,6.5099 114.8386,6.5389 114.1496,6.8999 C114.1196,6.8999 113.4286,7.2299 112.1386,7.7989 C112.2886,7.9489 112.3486,8.0389 112.3486,8.1289 C112.3486,8.3689 112.2586,8.4589 111.3596,8.9999 C111.3286,10.0799 111.3286,10.4399 111.3286,11.1289 C111.3286,12.7189 111.3596,13.4999 111.4496,15.1799 C111.4496,15.5689 111.3596,15.7189 111.0586,15.8399 C110.7886,15.9589 110.0386,16.0489 109.4396,16.0489 C108.5386,16.0489 108.2696,15.9589 108.2086,15.5389 L108.2086,14.9399 L98.5796,14.9399 L98.5796,15.4789 C98.5796,15.7789 98.4906,15.8689 98.2196,15.9589 C97.9796,16.0489 97.2296,16.1089 96.6896,16.1089 C95.6396,16.1089 95.4296,15.9889 95.4296,15.3889 C95.5796,12.1189 95.5796,11.9089 95.5796,11.0099 C95.5796,9.2089 95.5196,6.7199 95.4906,5.9099 C96.9596,6.5389 97.4106,6.7499 98.8196,7.4699 L107.9696,7.4699 C108.6596,6.8399 108.8696,6.6289 109.5596,5.9999 L111.6596,7.4399 C112.0196,6.4489 112.1386,6.0289 112.3196,5.0099 L94.2896,5.0099 L94.2896,5.3399 C94.2896,6.6899 94.0196,7.7699 93.4506,8.7299 C92.9106,9.6599 92.0706,10.2889 91.3506,10.2889 C90.4806,10.2889 89.7596,9.2699 89.7596,8.0389 C89.7596,7.3499 89.9106,7.1399 90.9596,6.5689 C91.7996,6.1189 92.5206,5.3689 92.9406,4.5289 C93.2096,3.9589 93.3296,3.5099 93.5096,2.4589 L93.7806,2.4589 C94.0496,3.1799 94.1106,3.4489 94.2596,4.3789 L101.6096,4.3789 Z" id="Fill-7"></path>
                <polygon id="Fill-9" points="137.7598 2.6992 139.5598 2.6992 129.5708 30.4492 127.7708 30.4492"></polygon>
                <path d="M157.7695,21.2383 C157.7695,23.9683 158.0695,24.2993 160.5895,24.3593 L160.5895,25.1383 L151.2005,25.1383 L151.2005,24.3593 C153.6605,24.2693 153.8995,23.9993 153.8995,21.2383 L153.8995,6.5993 C153.8995,3.8403 153.5995,3.5093 151.2005,3.4793 L151.2005,2.6993 L167.6685,2.6993 L168.1195,8.9103 L167.0695,9.0003 C166.3495,4.9493 164.6995,3.5703 160.5595,3.5703 L157.7695,3.5703 L157.7695,13.0493 L160.0795,13.0493 C163.2595,13.0493 164.0995,12.3883 164.3995,9.5993 L165.3595,9.5993 L165.3595,17.4293 L164.3995,17.4293 C164.0395,14.5193 163.3195,13.9203 160.0795,13.9203 L157.7695,13.9203 L157.7695,21.2383 Z" id="Fill-11"></path>
                <path d="M176.5791,21.9883 C177.5391,23.8483 179.1291,24.8083 181.2591,24.8083 C183.3591,24.8083 184.9491,23.8483 185.9091,21.9883 C186.9591,19.9493 187.4381,17.4593 187.4381,13.9203 C187.4381,10.4093 186.9591,7.9203 185.9091,5.8793 C184.9191,3.9903 183.3891,3.0593 181.2591,3.0593 C179.1291,3.0593 177.5391,4.0193 176.5791,5.8793 C175.5291,7.9203 175.0491,10.4683 175.0491,13.9203 C175.0491,17.4293 175.5291,19.9193 176.5791,21.9883 M173.2201,5.7893 C174.9591,3.5393 177.8991,2.2503 181.2591,2.2503 C184.5891,2.2503 187.4691,3.5093 189.2681,5.7893 C190.9191,7.8303 191.8181,10.7693 191.8181,13.9203 C191.8181,17.0993 190.9191,20.0393 189.2681,22.0793 C187.4691,24.3283 184.5891,25.6193 181.2591,25.6193 C177.9291,25.6193 174.9891,24.3283 173.2201,22.0793 C171.6001,20.0393 170.6701,17.0693 170.6701,13.9203 C170.6701,10.7693 171.5691,7.8893 173.2201,5.7893" id="Fill-13"></path>
                <path d="M201.0283,21.9883 C201.9883,23.8483 203.5783,24.8083 205.7083,24.8083 C207.8083,24.8083 209.3983,23.8483 210.3583,21.9883 C211.4083,19.9493 211.8873,17.4593 211.8873,13.9203 C211.8873,10.4093 211.4083,7.9203 210.3583,5.8793 C209.3683,3.9903 207.8383,3.0593 205.7083,3.0593 C203.5783,3.0593 201.9883,4.0193 201.0283,5.8793 C199.9783,7.9203 199.4983,10.4683 199.4983,13.9203 C199.4983,17.4293 199.9783,19.9193 201.0283,21.9883 M197.6693,5.7893 C199.4083,3.5393 202.3483,2.2503 205.7083,2.2503 C209.0383,2.2503 211.9183,3.5093 213.7173,5.7893 C215.3683,7.8303 216.2673,10.7693 216.2673,13.9203 C216.2673,17.0993 215.3683,20.0393 213.7173,22.0793 C211.9183,24.3283 209.0383,25.6193 205.7083,25.6193 C202.3783,25.6193 199.4383,24.3283 197.6693,22.0793 C196.0493,20.0393 195.1193,17.0693 195.1193,13.9203 C195.1193,10.7693 196.0183,7.8893 197.6693,5.7893" id="Fill-15"></path>
                <path d="M227.5488,24.2695 C230.1288,24.2695 232.2878,23.5195 233.5188,22.1995 C235.0778,20.5795 235.8888,17.7595 235.8888,14.0695 C235.8888,10.7085 235.2578,8.2185 233.9688,6.3595 C232.6788,4.4995 230.3988,3.5705 227.2188,3.5705 L225.4188,3.5705 L225.4188,24.2695 L227.5488,24.2695 Z M218.8198,24.3595 C221.2488,24.2985 221.5188,23.9985 221.5188,21.2385 L221.5188,6.5995 C221.5188,3.8395 221.2188,3.5095 218.8198,3.4795 L218.8198,2.6995 L227.8488,2.6995 C231.2688,2.6995 233.9388,3.2405 235.7078,4.3495 C238.6778,6.1495 240.0878,9.0895 240.0878,13.5585 C240.0878,18.4185 238.5278,21.8385 235.4678,23.5485 C233.6088,24.6285 230.9978,25.1385 227.4878,25.1385 L218.8198,25.1385 L218.8198,24.3595 Z" id="Fill-17"></path>
            </g>
        </g>
    </g>
</svg>