<?xml version="1.0" encoding="UTF-8" standalone="no"?>
<svg width="319px" height="31px" viewBox="0 0 319 31" version="1.1" xmlns="http://www.w3.org/2000/svg" xmlns:xlink="http://www.w3.org/1999/xlink">
    <!-- Generator: Sketch 40.2 (33826) - http://www.bohemiancoding.com/sketch -->
    <title>title06_location</title>
    <desc>Created with Sketch.</desc>
    <defs>
        <polygon id="path-1" points="0 30.3887 318.657 30.3887 318.657 -0.0003 0 -0.0003"></polygon>
    </defs>
    <g id="紅磚屋_UI-KIT" stroke="none" stroke-width="1" fill="none" fill-rule="evenodd">
        <g id="UI-KIT" transform="translate(-1006.000000, -386.000000)">
            <g id="title06_location" transform="translate(1006.000000, 386.000000)">
                <path d="M15.9893,6.9297 C19.7393,7.8897 22.2603,8.8197 24.2693,9.9897 C25.2603,10.5597 25.7393,11.3097 25.7393,12.2697 C25.7393,13.5597 24.9893,14.8787 24.2393,14.8787 C23.9393,14.8787 23.6993,14.6397 23.0693,13.7087 C22.4693,12.8097 21.2693,11.4587 20.0693,10.3787 C18.4493,8.9397 17.5803,8.2797 15.8403,7.2597 L15.9893,6.9297 L15.9893,6.9297 Z M21.7493,5.0997 C22.7393,3.9297 23.0693,3.5697 24.1493,2.4297 C25.7693,3.6587 26.2793,4.0497 27.8993,5.3687 C27.9893,5.4597 28.0193,5.5197 28.0193,5.5787 C28.0193,5.6397 27.8993,5.7297 27.7793,5.7297 L2.4303,5.7297 C1.8603,5.7297 1.3803,5.7887 0.4203,5.9397 L0.2103,4.8287 C0.8703,4.9797 1.9503,5.0997 2.4303,5.0997 L11.8203,5.0997 L11.8203,3.0897 C11.8203,2.0387 11.7903,1.4987 11.7293,0.4197 C16.0503,0.8097 16.6493,0.9297 16.6493,1.3497 C16.6493,1.6497 16.5003,1.7697 15.3593,2.2487 L15.3593,5.0997 L21.7493,5.0997 L21.7493,5.0997 Z M0.0913,15.9287 C2.3703,14.0387 3.6003,12.7487 5.1003,10.7397 C6.3303,9.0597 7.0503,7.8597 7.5903,6.4497 C11.8493,8.3397 11.9393,8.3687 11.9393,8.6687 C11.9393,8.7887 11.8493,8.9397 11.7293,8.9987 C11.5193,9.0897 11.2193,9.1497 10.8603,9.1497 C10.7403,9.1797 10.5903,9.1797 10.3493,9.2087 C9.4793,10.1397 7.8603,11.6687 6.9003,12.3897 C5.0103,13.9187 2.8203,15.1497 0.2403,16.1687 L0.0913,15.9287 L0.0913,15.9287 Z M0.0003,27.7787 C5.6103,25.6487 8.9693,23.4587 12.1493,19.7987 C10.8603,18.2087 10.1103,16.9187 8.6703,13.7987 C8.3093,12.9897 8.2193,12.8387 7.9203,12.5387 L9.0303,12.0597 L9.0303,12.2987 C9.0303,12.6587 9.1503,13.1397 9.3303,13.4987 C10.2003,15.2697 11.4903,16.8887 13.2603,18.4497 C15.0903,16.0787 16.1093,14.0697 16.9203,11.2797 C20.2503,12.5997 21.3003,13.1397 21.3003,13.4987 C21.3003,13.8287 20.9993,13.9497 19.8593,14.0387 C18.3893,16.8287 17.3993,18.3287 15.7503,20.1887 C19.2603,22.3787 22.8293,23.4587 28.1693,23.9687 L28.1693,24.2087 C26.5793,24.9587 25.8003,25.9487 25.4993,27.5087 C25.4393,27.7787 25.3193,27.8987 25.1093,27.8987 C24.7493,27.8987 22.9793,27.3287 21.5993,26.7287 C18.6303,25.4987 16.3193,24.0287 14.0993,21.9287 C10.2603,25.4387 6.6903,26.9987 0.0913,28.1387 L0.0003,27.7787 L0.0003,27.7787 Z" id="Fill-1" fill="#B62805"></path>
                <mask id="mask-2" fill="white">
                    <use xlink:href="#path-1"></use>
                </mask>
                <g id="Clip-4"></g>
                <path d="M48.99,15.5697 L52.83,15.5697 L52.83,12.1497 L48.99,12.1497 L48.99,15.5697 Z M48.99,11.5197 L52.83,11.5197 L52.83,8.0997 L48.99,8.0997 L48.99,11.5197 Z M42.42,15.5697 L46.05,15.5697 L46.05,12.1497 L42.42,12.1497 L42.42,15.5697 Z M42.42,11.5197 L46.05,11.5197 L46.05,8.0997 L42.42,8.0997 L42.42,11.5197 Z M48.99,17.8787 C48.99,18.4797 48.99,18.4797 49.05,21.9587 C48.99,22.3787 48.87,22.5297 48.54,22.5887 C48.3,22.6487 47.22,22.7397 46.74,22.7397 C46.17,22.7397 45.96,22.5887 45.931,22.1387 C45.96,21.1487 46.05,18.4187 46.05,17.8487 L46.05,16.1997 L42.42,16.1997 L42.42,19.4987 C42.42,20.0697 42.42,20.3087 42.45,22.0487 C42.45,22.4097 42.36,22.5587 42.181,22.6487 C41.88,22.7987 41.101,22.8887 40.261,22.8887 C39.511,22.8887 39.33,22.7987 39.271,22.3787 C39.33,20.9987 39.391,16.7397 39.391,12.8097 C39.391,10.5887 39.33,7.7997 39.24,5.7887 C40.74,6.4797 41.19,6.7197 42.63,7.4697 L47.16,7.4697 C46.141,6.1187 45.99,5.9397 45.36,5.3687 C44.61,4.6797 43.92,4.2297 42.721,3.5697 L42.9,3.2997 C46.021,3.7797 48,4.3497 48.99,5.0997 C50.4,3.3897 50.55,3.2087 51.12,2.3097 L41.311,2.3097 C40.591,2.3097 39.511,2.3997 38.761,2.5197 L38.49,1.3797 C39.36,1.5597 40.44,1.6797 41.37,1.6797 L51.18,1.6797 C51.9,0.9597 52.14,0.7487 52.95,-0.0003 C54.33,1.0197 54.75,1.3497 56.16,2.4297 C56.37,2.6397 56.46,2.7597 56.46,2.9097 C56.46,2.9987 56.399,3.1187 56.31,3.1497 C56.13,3.2397 55.83,3.3287 55.5,3.3597 C55.26,3.3597 54.96,3.4187 54.54,3.4797 C52.32,4.6497 50.85,5.3687 49.62,5.9097 C49.71,6.2097 49.74,6.3597 49.74,6.5387 C49.74,6.8997 49.62,7.1397 49.35,7.4697 L52.62,7.4697 C53.399,6.6897 53.399,6.6897 54.33,5.7887 C55.38,6.5387 55.68,6.7487 56.729,7.5297 C56.85,7.7087 56.91,7.7997 56.91,7.9187 C56.91,8.1897 56.91,8.1897 55.92,8.8197 L55.92,18.0587 C55.92,18.2087 55.92,18.6287 55.95,19.2587 L55.95,20.3087 C55.89,21.2087 55.68,21.6287 55.14,22.0487 C54.57,22.4687 53.85,22.6487 52.68,22.7397 C52.29,22.7687 52.29,22.7687 52.26,22.7687 C51.96,22.7687 51.96,22.7397 51.93,22.2587 C51.84,21.2087 51.63,20.7587 51.09,20.4287 C50.76,20.1887 50.7,20.1597 49.62,19.7687 L49.65,19.4687 C51.51,19.5887 51.51,19.5887 52.38,19.6187 C52.74,19.6187 52.83,19.5297 52.83,19.1997 L52.83,16.1997 L48.99,16.1997 L48.99,17.8787 Z M30.961,0.9297 C35.101,2.6687 37.051,4.2597 37.051,5.7887 C37.051,7.1397 35.881,8.5197 34.771,8.5197 C34.291,8.5197 34.2,8.3997 33.871,7.3197 C32.971,4.4397 32.07,2.6997 30.721,1.1697 L30.961,0.9297 Z M29.761,12.6287 C30.36,12.8097 31.261,12.9297 31.801,12.9297 L33.391,12.9297 C34.081,12.1187 34.291,11.8497 35.011,11.0097 C36.211,11.8197 36.57,12.0887 37.62,12.9897 C37.801,13.1687 37.86,13.2587 37.86,13.3497 C37.86,13.5887 37.561,13.8597 36.87,14.2187 L36.87,21.3587 C37.351,22.4987 37.95,23.0987 39.181,23.5487 C40.65,24.1487 42,24.3287 44.521,24.3287 C48.39,24.3287 51.99,24.1487 58.38,23.6687 L58.38,23.9387 C57.12,24.5387 56.67,25.1687 56.43,26.7587 C56.37,27.0587 56.28,27.1487 55.979,27.1787 C55.35,27.2387 52.2,27.2987 49.771,27.2987 C45.69,27.2987 44.851,27.2687 43.471,27.1487 C41.221,26.9087 39.9,26.3987 38.551,25.1987 C37.381,24.1787 36.811,23.2487 36.24,21.4787 C34.591,23.7287 34.591,23.7287 32.28,26.5187 C32.311,26.6987 32.311,26.9387 32.341,27.2987 C32.341,27.5987 32.161,27.8677 31.951,27.8677 C31.65,27.8677 31.411,27.4187 29.551,23.6687 C32.221,22.5887 32.461,22.4687 33.631,21.6887 L33.631,13.5597 L31.801,13.5597 C31.321,13.5887 30.9,13.6187 30.631,13.6187 C30.301,13.6497 30.301,13.6497 30.001,13.7397 L29.761,12.6287 Z" id="Fill-3" fill="#B62805" mask="url(#mask-2)"></path>
                <path d="M70.4707,9.3291 C72.1507,11.4891 73.2897,13.3191 74.2807,15.5391 C74.9707,17.0691 75.5097,18.9291 75.5097,19.8291 C75.5097,21.5391 73.9497,23.6991 72.6907,23.6991 C72.3907,23.6991 72.1507,23.4891 72.0607,23.1881 C71.9997,22.9491 71.9997,22.7681 71.9997,21.8391 C71.9997,17.0391 71.3697,12.9301 70.1407,9.4791 L70.4707,9.3291 Z M81.7807,7.4701 C82.7407,6.3291 83.0707,5.9701 84.0307,4.8591 C85.4997,5.9991 85.9197,6.3591 87.2997,7.5591 C87.4197,7.7091 87.4797,7.8001 87.4797,7.8901 C87.4797,8.0391 87.3597,8.1001 87.1197,8.1001 L70.2897,8.1001 C69.5397,8.1001 69.0907,8.1301 68.2507,8.2791 L68.0397,7.1991 C69.0007,7.3801 69.6907,7.4701 70.3807,7.4701 L75.0307,7.4701 L75.0307,3.8401 C75.0307,2.6401 74.9997,2.0691 74.8507,0.8991 C79.2597,1.2891 79.6797,1.3801 79.6797,1.7691 C79.6797,2.1001 79.3207,2.3091 78.3897,2.5501 L78.3897,7.4701 L81.7807,7.4701 Z M82.0197,26.0091 C82.9797,24.8081 83.2807,24.4491 84.2997,23.3081 C85.8297,24.5391 86.2807,24.9291 87.7197,26.2191 C87.8397,26.3391 87.8697,26.3981 87.8697,26.4881 C87.8697,26.5791 87.7497,26.6391 87.5697,26.6391 L69.3007,26.6391 C68.5507,26.6391 68.1307,26.6691 67.3207,26.8181 L67.1107,25.7381 C67.9497,25.9191 68.6997,26.0091 69.4497,26.0091 L76.6807,26.0091 C77.9997,21.8081 78.2097,21.0291 78.9007,18.0291 C79.7997,14.0391 80.2497,11.3391 80.4297,9.0901 C84.2407,10.1401 85.2897,10.5291 85.2897,10.9191 C85.2897,11.2201 84.8397,11.3991 83.9097,11.4891 C81.8397,17.3081 79.9497,21.6591 77.6107,26.0091 L82.0197,26.0091 Z M59.4917,16.0791 C61.0807,13.4091 61.8907,11.6991 63.0007,8.6991 C64.3807,4.9791 65.0107,2.5791 65.1907,0.4491 C70.1107,1.4701 70.1407,1.4701 70.1407,1.8901 C70.1407,2.1591 69.8107,2.3401 68.8207,2.5191 C67.4097,5.8191 66.5107,7.6191 65.1607,9.6891 C67.2607,10.0191 67.5007,10.0791 67.5007,10.4091 C67.5007,10.6491 67.1997,10.8291 66.4807,11.0691 L66.4807,18.5691 L66.5107,27.2381 C66.4807,27.6291 66.3607,27.8081 66.0007,27.9291 C65.7307,28.0181 64.8007,28.1081 64.1997,28.1081 C63.3607,28.1081 63.1207,27.9591 63.1207,27.3891 L63.1207,27.3291 C63.2707,22.5891 63.3007,21.4491 63.3007,19.0791 L63.3007,12.3591 C61.8907,14.1891 61.5607,14.5491 59.7907,16.2891 L59.4917,16.0791 Z" id="Fill-5" fill="#B62805" mask="url(#mask-2)"></path>
                <path d="M108.811,6.1497 L112.441,6.1497 L112.441,2.3697 L108.811,2.3697 L108.811,6.1497 Z M112.979,9.0597 C113.34,8.6997 113.85,8.1897 114.51,7.4987 C114.12,7.5297 113.91,7.5297 113.55,7.5297 C112.62,7.5297 112.44,7.4697 112.44,7.0787 L112.44,6.7797 L107.16,6.7797 C106.92,8.0097 106.92,8.0097 106.71,9.0597 L112.979,9.0597 Z M102.24,6.1497 L105.78,6.1497 L105.78,2.3697 L102.24,2.3697 L102.24,6.1497 Z M101.58,22.9497 L110.7,22.9497 L110.7,19.9197 L101.58,19.9197 L101.58,22.9497 Z M101.58,19.2887 L110.7,19.2887 L110.7,16.4087 L101.58,16.4087 L101.58,19.2887 Z M101.58,15.7787 L110.7,15.7787 L110.7,13.0787 L101.58,13.0787 L101.58,15.7787 Z M95.791,6.1497 L99.24,6.1497 L99.24,2.3697 L95.791,2.3697 L95.791,6.1497 Z M95.461,27.5087 C95.461,28.0787 95.19,28.1687 93.331,28.1687 C92.251,28.1687 92.101,28.1087 92.101,27.5087 C92.221,24.3887 92.251,22.7687 92.251,18.5987 C92.251,13.3787 92.221,13.0197 92.011,11.3387 C96.12,11.6997 96.57,11.7887 96.57,12.2087 C96.57,12.4797 96.24,12.6897 95.461,12.9297 L95.461,26.0387 L112.41,26.0387 C113.49,24.9587 113.82,24.6287 114.84,23.6997 C116.25,24.7187 116.67,25.0487 117.96,26.1597 C118.08,26.3087 118.14,26.3987 118.14,26.4887 C118.14,26.6087 118.02,26.6687 117.81,26.6687 L95.461,26.6687 L95.461,27.5087 Z M106.561,9.6897 C106.5,10.0497 106.44,10.3197 106.41,10.4987 C106.351,10.7397 106.2,11.3997 105.96,12.4497 L110.46,12.4497 C111.12,11.7587 111.33,11.5197 112.02,10.8597 C113.1,11.5787 113.43,11.7887 114.42,12.5387 C114.66,12.7487 114.78,12.8687 114.78,13.0487 C114.78,13.2587 114.6,13.4097 113.85,13.8287 L113.85,16.7087 C113.85,20.4897 113.88,22.4387 113.97,23.9097 C113.939,24.2087 113.88,24.3287 113.76,24.4497 C113.58,24.6287 112.86,24.7187 111.84,24.7187 C110.85,24.7187 110.7,24.6597 110.7,24.1787 L110.7,23.5787 L101.58,23.5787 L101.58,24.2397 C101.551,24.8087 101.221,24.9287 99.48,24.9287 C98.4,24.9287 98.251,24.8387 98.251,24.2397 C98.311,21.1487 98.37,18.5987 98.37,16.5597 C98.37,13.7397 98.341,12.5997 98.221,10.9497 C99.78,11.5197 100.261,11.7297 101.7,12.4497 L102.841,12.4497 C103.261,10.6797 103.261,10.6187 103.44,9.6897 L92.881,9.6897 C91.65,9.6897 91.291,9.7197 90.571,9.8687 L90.391,8.8197 C91.141,8.9697 91.86,9.0597 92.791,9.0597 L103.561,9.0597 C103.71,8.3687 103.771,7.9497 103.95,6.7797 L95.791,6.7797 L95.791,7.2597 C95.761,7.7997 95.461,7.8897 93.78,7.8897 C92.701,7.8897 92.521,7.7997 92.521,7.2597 C92.581,5.4297 92.61,4.4697 92.61,3.2697 C92.61,2.0697 92.581,1.5297 92.491,0.2697 C94.051,0.8687 94.53,1.0497 96.001,1.7397 L112.229,1.7397 C112.979,1.0197 113.189,0.7797 113.91,0.1497 C114.899,0.8097 115.2,1.0197 116.13,1.7087 C116.46,1.9197 116.58,2.0697 116.58,2.2487 C116.58,2.4587 116.43,2.5497 115.56,3.0597 L115.56,3.8997 C115.56,4.7097 115.59,5.5497 115.649,6.7797 C115.649,7.0787 115.59,7.1697 115.29,7.3497 C116.55,8.2487 116.729,8.3687 117.84,9.2697 C117.93,9.3597 117.989,9.4497 117.989,9.5387 C117.989,9.6287 117.84,9.6897 117.66,9.6897 L106.561,9.6897 Z" id="Fill-6" fill="#B62805" mask="url(#mask-2)"></path>
                <polygon id="Fill-7" fill="#B62805" mask="url(#mask-2)" points="138.1797 2.6397 139.9797 2.6397 129.9907 30.3887 128.1907 30.3887"></polygon>
                <path d="M151.6201,24.2989 C154.1991,24.2089 154.4701,23.9089 154.4701,21.1789 L154.4701,6.5389 C154.4701,3.8099 154.2291,3.5099 151.7391,3.4189 L151.7391,2.6399 L161.0991,2.6399 L161.0991,3.4189 C158.6091,3.5099 158.3691,3.8099 158.3691,6.5389 L158.3691,24.2089 L161.1291,24.2089 C163.6491,24.2089 165.3291,23.4589 166.4091,21.8989 C167.0691,20.8789 167.4291,19.9189 167.8191,17.9089 L168.8691,18.0289 L168.1791,25.0789 L151.6201,25.0789 L151.6201,24.2989 Z" id="Fill-8" fill="#B62805" mask="url(#mask-2)"></path>
                <path d="M176.6992,21.9287 C177.6592,23.7887 179.2492,24.7487 181.3792,24.7487 C183.4792,24.7487 185.0692,23.7887 186.0292,21.9287 C187.0792,19.8887 187.5582,17.3997 187.5582,13.8597 C187.5582,10.3497 187.0792,7.8597 186.0292,5.8197 C185.0392,3.9297 183.5092,2.9987 181.3792,2.9987 C179.2492,2.9987 177.6592,3.9587 176.6992,5.8197 C175.6492,7.8597 175.1692,10.4087 175.1692,13.8597 C175.1692,17.3687 175.6492,19.8597 176.6992,21.9287 M173.3402,5.7297 C175.0792,3.4797 178.0192,2.1897 181.3792,2.1897 C184.7092,2.1897 187.5892,3.4497 189.3882,5.7297 C191.0392,7.7697 191.9382,10.7087 191.9382,13.8597 C191.9382,17.0387 191.0392,19.9787 189.3882,22.0187 C187.5892,24.2687 184.7092,25.5587 181.3792,25.5587 C178.0492,25.5587 175.1092,24.2687 173.3402,22.0187 C171.7202,19.9787 170.7902,17.0087 170.7902,13.8597 C170.7902,10.7087 171.6892,7.8287 173.3402,5.7297" id="Fill-9" fill="#B62805" mask="url(#mask-2)"></path>
                <path d="M212.5791,10.169 C212.2491,8.22 211.8291,7.05 210.9891,5.85 C209.7591,4.079 207.8991,3.06 205.9491,3.06 C204.0291,3.06 202.2891,4.05 201.3001,5.699 C200.1301,7.649 199.5591,10.26 199.5591,13.529 C199.5591,20.189 202.2601,24.299 206.6691,24.299 C208.9191,24.299 211.0491,23.189 212.5191,21.209 C213.0291,20.519 213.3891,19.859 213.8391,18.749 L214.7091,19.229 C213.0891,23.489 210.1791,25.559 205.7091,25.559 C202.8291,25.559 200.1591,24.539 198.3301,22.739 C196.3191,20.759 195.2401,17.73 195.2401,14.1 C195.2401,6.869 199.3801,2.19 205.8001,2.19 C207.3591,2.19 208.0191,2.31 210.7791,3.06 C211.1991,3.18 211.5891,3.239 212.0391,3.239 C212.4891,3.239 212.6991,3.18 213.6591,2.85 L213.6591,10.169 L212.5791,10.169 Z" id="Fill-10" fill="#B62805" mask="url(#mask-2)"></path>
                <path d="M226.5586,6.5694 L222.8996,16.3194 L229.9786,16.3194 L226.5586,6.5694 Z M221.6386,19.7684 C221.1896,20.9094 220.9796,21.8394 220.9796,22.5294 C220.9796,23.6994 221.8196,24.2394 223.7986,24.2984 L223.7986,25.0794 L216.0886,25.0794 L216.0886,24.2984 C218.0386,24.2684 219.1196,23.0984 220.4686,19.5584 L226.8586,2.6394 L229.0796,2.3994 L235.6186,20.7894 C236.3086,22.6484 236.8786,23.6084 237.5686,23.9684 C237.8986,24.1194 238.1676,24.1784 239.1586,24.2984 L239.1586,25.0794 L229.3786,25.0794 L229.3786,24.2984 C231.2686,24.2394 231.9586,23.8484 231.9586,22.8584 L231.9586,22.7684 C231.9286,22.2894 231.7786,21.5394 231.5086,20.7894 L230.3696,17.4894 L222.4796,17.4894 L221.6386,19.7684 Z" id="Fill-11" fill="#B62805" mask="url(#mask-2)"></path>
                <path d="M250.3496,21.1787 C250.3496,23.9387 250.6496,24.2397 253.4686,24.2987 L253.4686,25.0787 L243.2996,25.0787 L243.2996,24.2987 C246.0886,24.2397 246.3896,23.9387 246.3896,21.1787 L246.3896,3.4187 C243.7196,3.4797 242.3096,3.9587 241.2596,5.1587 C240.4196,6.1187 239.9096,7.6497 239.4596,10.3197 L238.3796,10.2597 L238.9496,2.6397 L257.8196,2.6397 L258.3886,10.2597 L257.3086,10.3197 C256.8286,7.4087 256.2286,5.8497 255.2396,4.9197 C254.1896,3.8997 252.8386,3.4797 250.3496,3.4187 L250.3496,21.1787 Z" id="Fill-12" fill="#B62805" mask="url(#mask-2)"></path>
                <path d="M259.9189,24.2989 C262.5289,24.2089 262.7689,23.9389 262.7689,21.1789 L262.7689,6.5389 C262.7689,3.8099 262.5289,3.5099 260.0389,3.4189 L260.0389,2.6399 L269.3979,2.6399 L269.3979,3.4189 C266.9089,3.5099 266.6689,3.8099 266.6689,6.5389 L266.6689,21.1789 C266.6689,23.9389 266.9389,24.2089 269.5189,24.2989 L269.5189,25.0789 L259.9189,25.0789 L259.9189,24.2989 Z" id="Fill-13" fill="#B62805" mask="url(#mask-2)"></path>
                <path d="M278.0986,21.9287 C279.0586,23.7887 280.6486,24.7487 282.7786,24.7487 C284.8786,24.7487 286.4686,23.7887 287.4286,21.9287 C288.4786,19.8887 288.9576,17.3997 288.9576,13.8597 C288.9576,10.3497 288.4786,7.8597 287.4286,5.8197 C286.4386,3.9297 284.9086,2.9987 282.7786,2.9987 C280.6486,2.9987 279.0586,3.9587 278.0986,5.8197 C277.0486,7.8597 276.5686,10.4087 276.5686,13.8597 C276.5686,17.3687 277.0486,19.8597 278.0986,21.9287 M274.7396,5.7297 C276.4786,3.4797 279.4186,2.1897 282.7786,2.1897 C286.1086,2.1897 288.9886,3.4497 290.7876,5.7297 C292.4386,7.7697 293.3376,10.7087 293.3376,13.8597 C293.3376,17.0387 292.4386,19.9787 290.7876,22.0187 C288.9886,24.2687 286.1086,25.5587 282.7786,25.5587 C279.4486,25.5587 276.5086,24.2687 274.7396,22.0187 C273.1196,19.9787 272.1896,17.0087 272.1896,13.8597 C272.1896,10.7087 273.0886,7.8287 274.7396,5.7297" id="Fill-14" fill="#B62805" mask="url(#mask-2)"></path>
                <path d="M299.8779,19.3194 C299.8779,23.2784 300.4179,24.1194 302.9979,24.2684 L302.9979,25.0794 L295.4679,25.0794 L295.4679,24.2684 C298.0189,24.1484 298.6489,23.1594 298.6489,19.0794 L298.6489,7.1704 C298.6489,4.2294 298.1379,3.5994 295.7379,3.4194 L295.7379,2.6394 L302.0079,2.6394 L314.2469,19.9194 L314.2469,8.6394 C314.2469,6.3894 314.0979,5.2794 313.6779,4.5904 C313.2279,3.8094 312.5979,3.5394 311.0669,3.4494 L311.0669,2.6394 L318.6569,2.6394 L318.6569,3.4494 C317.2179,3.5094 316.5869,3.8094 316.1069,4.5904 C315.6569,5.3094 315.4779,6.5094 315.4779,8.4294 L315.4779,25.1984 L313.2579,25.1984 L299.8779,6.0594 L299.8779,19.3194 Z" id="Fill-15" fill="#B62805" mask="url(#mask-2)"></path>
            </g>
        </g>
    </g>
</svg>