<?xml version="1.0" encoding="UTF-8" standalone="no"?>
<svg width="243px" height="31px" viewBox="0 0 243 31" version="1.1" xmlns="http://www.w3.org/2000/svg" xmlns:xlink="http://www.w3.org/1999/xlink">
    <!-- Generator: Sketch 40.2 (33826) - http://www.bohemiancoding.com/sketch -->
    <title>title01_news</title>
    <desc>Created with Sketch.</desc>
    <defs>
        <polygon id="path-1" points="27.1795 0.701 0.0605 0.701 0.0605 27.9997 27.1795 27.9997 27.1795 0.701"></polygon>
        <polygon id="path-3" points="15.308 24.1406 15.308 0.8306 0.4881 0.8306 0.4881 24.1406 15.308 24.1406"></polygon>
    </defs>
    <g id="紅磚屋_UI-KIT" stroke="none" stroke-width="1" fill="none" fill-rule="evenodd">
        <g id="UI-KIT" transform="translate(-1006.000000, -141.000000)">
            <g id="title01_news" transform="translate(1006.000000, 140.000000)">
                <path d="M19.6191,9.6992 C21.0891,7.0002 22.0491,4.6602 22.6191,2.2602 C26.5791,3.7302 26.9391,3.8802 26.9391,4.2402 C26.9391,4.5392 26.5491,4.6892 25.4991,4.7792 C23.5191,6.9702 21.9891,8.3792 19.8901,9.8792 L19.6191,9.6992 Z M12.5991,19.7492 L22.1091,19.7492 L22.1091,15.6702 L12.5991,15.6702 L12.5991,19.7492 Z M12.5991,15.0392 L22.1091,15.0392 L22.1091,11.2292 L12.5991,11.2292 L12.5991,15.0392 Z M21.8391,10.5992 C22.5591,9.7892 22.7991,9.5492 23.5491,8.7692 C24.6891,9.5192 25.0191,9.7292 26.0691,10.5392 C26.3391,10.7792 26.4591,10.9292 26.4591,11.1092 C26.4591,11.3792 26.2191,11.5902 25.3481,12.0992 L25.3481,18.8192 C25.3481,21.4592 25.3481,22.8982 25.4091,25.1782 C25.4091,26.7992 25.2291,27.3082 24.4791,27.8792 C23.7291,28.4182 22.3191,28.8382 21.2091,28.8382 C20.8191,28.8382 20.7291,28.7482 20.6991,28.2992 C20.5491,26.6192 19.8001,26.1092 16.4701,25.3882 L16.4991,24.9692 C18.3001,25.1192 18.3001,25.1192 21.6891,25.2382 C22.0491,25.2382 22.1091,25.1482 22.1091,24.7592 L22.1091,20.3792 L12.5991,20.3792 L12.5991,28.0882 C12.5991,28.8382 12.3001,28.9592 10.5001,28.9592 C9.3301,28.9592 9.2101,28.8982 9.2101,28.2382 C9.3901,22.2992 9.4501,18.4292 9.4501,14.1092 C9.4501,11.7392 9.4501,10.9592 9.3591,8.8592 C10.9201,9.5802 11.3701,9.8192 12.8091,10.5992 L15.5991,10.5992 L15.5991,4.5392 C15.5991,2.9802 15.5691,2.5292 15.4201,1.3592 C19.8591,1.8102 20.0391,1.8402 20.0391,2.2302 C20.0391,2.5002 19.7691,2.6792 18.8091,2.9802 L18.8091,10.5992 L21.8391,10.5992 Z M9.3301,2.5002 C10.8901,3.1892 11.9091,3.7892 12.8691,4.5702 C13.7691,5.3492 14.1301,5.9202 14.1301,6.6702 C14.1301,8.0192 13.1401,9.3692 12.1491,9.3692 C11.6701,9.3692 11.4301,9.0102 11.1891,7.9902 C10.6201,5.4392 10.2901,4.5992 9.0901,2.7102 L9.3301,2.5002 Z M2.0401,1.7202 C4.2901,2.3202 5.2801,2.6502 6.0901,3.0402 C7.2601,3.6092 7.8301,4.3592 7.8301,5.2602 C7.8301,6.3692 6.7501,7.6602 5.8201,7.6602 C5.3701,7.6602 5.2201,7.4792 4.6501,6.0702 C3.9301,4.3892 3.2401,3.3692 1.8001,1.9902 L2.0401,1.7202 Z M0.2101,19.3592 C1.2301,19.6292 1.9801,19.7492 2.3701,19.7492 C2.8201,19.7492 2.8801,19.7192 3.6901,18.1292 C5.9391,13.8992 6.0301,13.7192 8.5501,8.1092 L8.9101,8.2892 L5.3401,19.7492 C5.0701,20.6482 5.0101,20.8882 5.0101,21.2192 C5.0101,21.5492 5.0991,21.8492 5.3701,22.5992 C5.8801,24.0682 6.0001,24.6382 6.0001,25.5092 C6.0001,27.1292 4.6201,28.4492 2.9401,28.4492 C2.4001,28.4492 2.0401,28.0882 2.0401,27.4882 C2.0401,27.3692 2.1301,26.7992 2.1901,26.3182 C2.4301,24.8182 2.5501,23.7092 2.5501,22.6892 C2.5501,21.6692 2.4001,21.1592 2.0101,20.7692 C1.7101,20.4692 1.6201,20.4092 0.0901,19.7192 L0.2101,19.3592 Z M0.1201,8.3792 C4.1701,9.4292 5.6701,10.3592 5.6701,11.8302 C5.6701,13.0292 4.6501,14.3192 3.7201,14.3192 C3.5401,14.3192 3.3601,14.2602 3.2401,14.1382 C3.0591,13.9292 3.0591,13.9292 2.5801,12.7602 C1.9501,11.1392 1.3491,10.1492 0.0001,8.6192 L0.1201,8.3792 Z" id="Fill-1" fill="#B62805"></path>
                <g id="Group-5" transform="translate(30.000000, 0.298800)">
                    <mask id="mask-2" fill="white">
                        <use xlink:href="#path-1"></use>
                    </mask>
                    <g id="Clip-4"></g>
                    <path d="M21.4795,19.1797 C24.2995,20.6797 25.0195,21.1307 25.7995,21.8497 C26.7595,22.7207 27.1795,23.4707 27.1795,24.3107 C27.1795,24.9397 26.9695,25.5707 26.5495,26.1697 C26.1295,26.7697 25.6795,27.0707 25.1695,27.0707 C24.6295,27.0707 24.4195,26.7997 24.2095,25.9007 C23.6395,23.2897 22.7695,21.3397 21.2395,19.4197 L21.4795,19.1797 Z M11.5805,17.7707 C13.5305,18.1307 14.8205,18.5207 15.8705,19.1197 C16.8895,19.6597 17.2195,20.1107 17.2195,20.8907 C17.2195,22.0307 16.4405,23.0507 15.5405,23.0507 C15.1505,23.0507 14.9695,22.8697 14.4905,21.8497 C13.6205,20.1107 12.9295,19.2707 11.4595,18.0097 L11.5805,17.7707 Z M7.6205,16.0307 L19.4105,16.0307 L19.4105,12.5517 L7.6205,12.5517 L7.6205,16.0307 Z M7.6205,11.9197 L19.4105,11.9197 L19.4105,8.8007 L7.6205,8.8007 L7.6205,11.9197 Z M7.6205,8.1707 L19.4105,8.1707 L19.4105,5.2307 L7.6205,5.2307 L7.6205,8.1707 Z M7.3795,21.1907 C7.3795,20.3207 7.3505,19.8397 7.2305,18.8497 C8.1295,18.9407 8.8505,18.9997 9.2995,19.0307 C11.0705,19.1507 11.5495,19.2707 11.5495,19.5997 C11.5495,19.8697 11.2505,20.0507 10.4695,20.2307 L10.4695,24.4597 C10.4695,24.8207 10.5305,24.9707 10.6505,25.0607 C10.8605,25.1507 11.4295,25.1797 13.3795,25.1797 C16.9505,25.1797 17.5195,25.1507 17.8205,24.9397 C18.3305,24.6097 18.5995,24.0707 20.0995,20.0507 L20.4595,20.1107 L20.1295,23.9507 L20.1295,24.1897 C20.1295,24.6697 20.1895,24.7597 20.5195,24.8797 C21.4505,25.1797 21.7505,25.5097 21.7505,26.2007 C21.7505,26.8597 21.3595,27.3687 20.6095,27.6407 C19.8895,27.8807 18.4195,27.9997 15.5405,27.9997 C11.5495,27.9997 9.4195,27.9397 8.7605,27.8497 C7.7995,27.6697 7.3795,27.1307 7.3795,25.9907 L7.3795,23.1107 L7.3795,21.1907 Z M19.2005,4.6017 C19.9505,3.7607 20.1895,3.5217 20.9105,2.7107 C22.0195,3.4317 22.3495,3.6707 23.3705,4.4807 C23.6395,4.6917 23.7595,4.8407 23.7595,4.9907 C23.7595,5.2307 23.5195,5.4097 22.7095,5.8907 C22.7095,11.4097 22.7095,11.7107 22.7395,12.5507 L22.8895,17.1407 L22.8895,17.2307 C22.8895,17.4997 22.7995,17.6797 22.6495,17.8007 C22.3495,17.9507 21.4795,18.0707 20.3995,18.0707 C19.6205,18.0707 19.4105,17.9507 19.4105,17.4997 L19.4105,16.6597 L7.6205,16.6597 L7.6205,17.4097 C7.6205,17.6797 7.5605,17.8297 7.4105,17.9197 C7.2005,18.0707 6.3605,18.1907 5.3405,18.1907 C4.3805,18.1907 4.1405,18.0707 4.1405,17.6207 L4.1405,17.5307 C4.2905,14.2007 4.3205,12.4907 4.3205,10.1807 C4.3205,6.3707 4.2605,4.1207 4.1705,2.6507 C5.7905,3.4317 6.3005,3.7007 7.8605,4.6017 L9.8395,4.6017 C10.3795,3.0707 10.5605,2.1707 10.6505,0.7007 C11.7305,0.9107 12.5705,1.0607 13.0805,1.1507 C15.2095,1.5407 15.5995,1.6607 15.5995,1.9917 C15.5995,2.3207 15.1505,2.5007 14.0995,2.5607 C12.9905,3.4607 12.3895,3.9107 11.1905,4.6017 L19.2005,4.6017 Z M4.8305,19.3297 C4.9205,20.4407 4.9505,20.9807 4.9505,21.5507 C4.9505,23.3807 4.5905,24.7897 3.8105,25.8397 C3.1805,26.7697 2.3405,27.3107 1.6205,27.3107 C0.7205,27.3107 0.0605,26.3497 0.0605,24.9997 C0.0605,24.5507 0.1505,24.1897 0.3315,23.9807 C0.4805,23.7697 0.5105,23.7697 1.4405,23.3207 C2.1605,22.9907 2.9705,22.3607 3.4205,21.7897 C3.9005,21.1597 4.1405,20.5897 4.4405,19.3007 L4.8305,19.3297 Z" id="Fill-3" fill="#B62805" mask="url(#mask-2)"></path>
                </g>
                <path d="M81.3594,15.5195 L81.3594,7.7795 L77.6704,7.7795 C77.5494,12.9995 77.5494,12.9995 77.2504,15.5195 L81.3594,15.5195 Z M66.9304,6.4295 C69.3304,7.9585 70.5004,9.3095 70.5004,10.5095 C70.5004,11.5595 69.5094,12.7295 68.6104,12.7295 C68.1604,12.7295 67.9804,12.3995 67.8904,11.2895 C67.7104,8.6495 67.5604,8.0495 66.7504,6.6395 L66.9304,6.4295 Z M73.9504,24.0995 C72.2704,26.1385 70.2004,27.5195 66.8704,28.8375 L66.6904,28.5395 C69.2404,26.6195 70.5604,25.1785 71.7594,22.9585 C72.8104,21.0395 73.5304,18.8195 73.9804,16.1495 L70.0494,16.1495 C69.1804,16.1495 68.5494,16.2085 67.8304,16.3295 L67.6804,15.2795 C68.4004,15.4295 69.1804,15.5195 70.0494,15.5195 L74.0404,15.5195 C74.3094,13.3305 74.3704,12.1605 74.4004,7.7795 L72.0304,7.7795 C71.3394,7.7795 70.7994,7.8095 70.0494,7.9295 L69.9004,6.9105 C70.7104,7.0895 71.2504,7.1505 72.0004,7.1505 L74.4004,7.1505 L74.4294,4.3305 C74.4294,3.1605 74.4004,2.6795 74.2504,1.5995 C78.5704,1.9595 79.0804,2.0805 79.0804,2.4995 C79.0804,2.7995 78.6894,3.0095 77.7594,3.2195 C77.7594,4.8395 77.7594,4.8395 77.7004,7.1505 L81.0894,7.1505 C81.8394,6.3395 82.0804,6.0995 82.8594,5.3495 C84.0004,6.1605 84.3304,6.4005 85.3494,7.2085 C85.5594,7.3895 85.6494,7.5095 85.6494,7.6285 C85.6494,7.8995 85.3804,8.1095 84.5404,8.4695 L84.5404,15.5195 L84.6594,15.5195 C85.2594,14.5595 85.4394,14.2595 86.0694,13.2985 C86.9694,14.3195 87.2394,14.6495 88.0194,15.6695 C88.1094,15.7595 88.1394,15.8785 88.1394,15.9395 C88.1394,16.0895 88.0194,16.1495 87.7494,16.1495 L77.6704,16.1495 C78.4504,18.4585 79.4104,19.9585 81.0594,21.4295 C82.8894,23.0195 84.6894,23.8295 87.9604,24.4585 L87.9294,24.7895 C86.9994,25.2085 86.6094,25.5395 86.1594,26.3495 C85.9204,26.7985 85.6194,27.4295 85.5004,27.7895 C85.3804,28.1795 85.3194,28.2695 85.1094,28.2695 C84.6594,28.2695 83.2504,27.3085 82.1094,26.1995 C80.2194,24.3985 78.5994,21.6385 77.7594,18.7285 C77.4904,17.8885 77.3994,17.4685 77.1894,16.1495 C76.7694,19.1795 75.5994,22.0585 73.9504,24.0995 L73.9504,24.0995 Z M63.1804,28.3285 C63.3004,24.3085 63.3904,19.1195 63.3904,14.2895 C63.3904,3.5805 63.3904,3.2495 63.2114,1.5705 C67.6204,1.9295 67.8304,1.9595 67.8304,2.4105 C67.8304,2.7095 67.5604,2.8895 66.5404,3.2195 C66.5104,8.9195 66.5104,8.9195 66.5104,10.6605 C66.5104,15.4585 66.5404,25.9585 66.5704,28.2085 C66.5704,28.5685 66.5104,28.7485 66.3304,28.8695 C66.1204,29.0485 65.3404,29.1675 64.3504,29.1675 C63.3904,29.1675 63.1804,29.0485 63.1804,28.3595 L63.1804,28.3285 Z M62.1004,7.0295 C62.5504,8.6195 62.6714,9.5485 62.6714,11.0805 C62.6714,12.7295 62.3704,13.9295 61.7704,14.7395 C61.4104,15.2185 61.0204,15.4585 60.6004,15.4585 C59.8504,15.4585 59.2204,14.4685 59.2204,13.2085 C59.2204,12.4895 59.3404,12.2795 60.2114,11.4105 C61.2914,10.3895 61.6504,9.3395 61.7704,7.0295 L62.1004,7.0295 Z" id="Fill-6" fill="#B62805"></path>
                <path d="M108.6895,13.8691 C109.4395,17.0491 110.0695,18.3991 111.5995,20.2891 C112.4395,17.9491 112.6495,16.8991 113.0695,13.8691 L108.6895,13.8691 Z M107.2195,27.7281 C108.8705,25.7191 109.7405,24.3691 110.6095,22.5991 C109.5895,20.7691 109.0195,19.1481 108.5095,16.5391 C108.2995,15.3991 108.2105,14.7091 108.1205,13.8691 L107.2195,13.8691 L107.2195,27.7281 Z M104.2505,12.1601 C104.2505,6.0991 104.1905,3.4001 104.0095,1.5401 C105.5705,2.2301 106.0195,2.4391 107.4295,3.2501 L112.8595,3.2501 C113.5495,2.4701 113.7595,2.2601 114.4495,1.5401 C115.5295,2.2601 115.8595,2.5001 116.8795,3.2791 C117.1495,3.4901 117.2395,3.6091 117.2395,3.7301 C117.2395,3.9701 116.9995,4.1801 116.1895,4.5391 C115.9195,9.3091 115.7105,10.2091 114.5695,10.8991 C113.9395,11.2601 112.7695,11.5591 111.8705,11.5591 C111.5405,11.5591 111.4195,11.4691 111.4195,11.1401 C111.4195,10.7201 111.2995,10.3591 111.1205,10.0591 C110.7595,9.4591 110.2505,9.1891 108.3895,8.7091 L108.4195,8.3201 C110.6695,8.5291 111.2105,8.5591 112.0805,8.5591 C112.5895,8.5591 112.7695,8.4101 112.8595,7.8091 C113.0095,7.0001 113.1595,5.1991 113.1895,3.8801 L107.2195,3.8801 L107.2195,13.2391 L112.8305,13.2391 C113.5195,12.4891 113.7295,12.2791 114.4495,11.5591 C115.5005,12.3091 115.7995,12.5491 116.7595,13.3301 C117.0295,13.5391 117.1195,13.6591 117.1195,13.8091 C117.1195,14.0491 116.9095,14.1991 116.1295,14.5591 C115.4095,17.7391 114.6595,19.7491 113.3395,21.9691 C115.0795,23.3791 116.3695,24.0391 118.4695,24.6391 L118.4695,24.8791 C117.6595,25.3291 117.2695,25.7491 116.7295,26.7091 C116.5195,27.0681 116.5195,27.0981 116.2795,27.8791 C116.2195,28.0291 116.1295,28.1191 116.0095,28.1191 C115.4395,28.1191 113.0995,26.0191 111.7505,24.2791 C110.4295,25.8981 109.1395,27.0091 107.2195,28.2091 L107.2195,28.2381 C107.2195,28.5391 107.1605,28.6891 107.0405,28.8081 C106.8605,28.9591 106.2005,29.0491 105.2105,29.0491 C104.2505,29.0491 104.0705,28.9591 104.0705,28.4491 C104.2195,24.5191 104.2195,24.5191 104.2505,17.1391 L104.0405,17.1991 L98.1295,17.1991 L98.1295,21.2791 L99.7805,21.2791 C100.4695,20.4091 100.6805,20.1691 101.4005,19.3291 C102.5405,20.2601 102.9005,20.5581 104.0095,21.5491 C104.0995,21.6691 104.1295,21.7281 104.1295,21.7601 C104.1295,21.8491 104.0405,21.9091 103.8895,21.9091 L98.1295,21.9091 L98.1295,22.8081 C98.1295,24.2191 98.1605,26.2281 98.2205,28.2991 C98.2205,28.5391 98.1905,28.6581 98.1295,28.7481 C97.9195,28.9881 97.2605,29.1091 96.0605,29.1091 C95.1005,29.1091 94.9205,28.9881 94.9205,28.4491 C94.9805,25.3291 95.0105,24.2491 95.0105,22.8081 L95.0105,21.9091 L92.1605,21.9091 C91.5305,21.9091 90.9605,21.9691 90.2705,22.1191 L90.0905,21.0391 C90.7205,21.2191 91.3805,21.2791 92.1905,21.2791 L95.0105,21.2791 L95.0105,17.1991 L91.4105,17.1991 C90.6305,17.1991 90.1205,17.2601 89.5815,17.3791 L89.4005,16.3591 C90.0305,16.5101 90.6005,16.5691 91.4105,16.5691 L97.1405,16.5691 C98.0405,14.3191 98.6105,12.4301 98.8205,10.8091 C102.2705,11.9491 102.7805,12.1601 102.7805,12.4591 C102.7805,12.7291 102.4505,12.8191 101.3705,12.8791 C100.0205,14.5291 99.8395,14.7091 97.9505,16.5691 L100.1695,16.5691 C100.6805,15.9691 101.1905,15.3401 101.7595,14.6801 C102.8105,15.5791 103.1395,15.8491 104.1605,16.8401 L104.2505,16.9591 L104.2505,12.1601 Z M99.6295,5.5001 C100.3205,4.6601 100.5305,4.4201 101.2195,3.6701 C102.3305,4.5391 102.6605,4.8401 103.6505,5.8001 C103.7405,5.8901 103.7705,5.9491 103.7705,6.0101 C103.7705,6.0701 103.6795,6.1301 103.5595,6.1301 L98.1295,6.1301 L98.1295,10.1191 L99.8105,10.1191 C100.5005,9.2791 100.7105,9.0391 101.4005,8.2891 C102.5095,9.1891 102.8705,9.4591 103.8895,10.4491 C103.9805,10.5391 104.0095,10.5991 104.0095,10.6291 C104.0095,10.7201 103.9505,10.7501 103.8305,10.7501 L91.8605,10.7501 C94.5305,12.1291 95.6405,13.1491 95.6405,14.2291 C95.6405,15.1291 94.4705,16.4201 93.6605,16.4201 C93.4505,16.4201 93.3005,16.2991 93.1805,16.0901 C93.0605,15.8791 93.0605,15.8491 92.8805,14.6491 C92.7005,13.1801 92.4005,12.3691 91.6205,10.8691 L91.7705,10.7501 L91.2605,10.7501 C90.6905,10.7501 90.1505,10.8091 89.5505,10.9301 L89.3715,9.8791 C90.0905,10.0591 90.6605,10.1191 91.2605,10.1191 L95.0105,10.1191 L95.0105,6.1301 L92.3105,6.1301 C91.6805,6.1301 91.0815,6.1891 90.5105,6.3091 L90.3605,5.2601 C90.9905,5.4101 91.6505,5.5001 92.3105,5.5001 L95.0105,5.5001 L95.0105,3.8801 C95.0105,2.7691 94.9805,2.2901 94.8605,1.3301 C99.1205,1.7791 99.2705,1.8101 99.2705,2.2301 C99.2705,2.4701 99.0005,2.6191 98.1295,2.8901 L98.1295,5.5001 L99.6295,5.5001 Z" id="Fill-8" fill="#B62805"></path>
                <polygon id="Fill-10" fill="#B62805" points="137.9395 3.5498 139.7395 3.5498 129.7505 31.2988 127.9505 31.2988"></polygon>
                <path d="M155.3691,20.2285 C155.3691,24.1895 155.9091,25.0295 158.4891,25.1785 L158.4891,25.9885 L150.9601,25.9885 L150.9601,25.1785 C153.5101,25.0585 154.1401,24.0685 154.1401,19.9895 L154.1401,8.0805 C154.1401,5.1395 153.6291,4.5095 151.2291,4.3305 L151.2291,3.5495 L157.4991,3.5495 L169.7381,20.8295 L169.7381,9.5485 C169.7381,7.2995 169.5891,6.1895 169.1691,5.4995 C168.7191,4.7195 168.0891,4.4495 166.5581,4.3595 L166.5581,3.5495 L174.1481,3.5495 L174.1481,4.3595 C172.7091,4.4195 172.0791,4.7195 171.5981,5.4995 C171.1481,6.2195 170.9691,7.4195 170.9691,9.3395 L170.9691,26.1095 L168.7491,26.1095 L155.3691,6.9695 L155.3691,20.2285 Z" id="Fill-12" fill="#B62805"></path>
                <path d="M175.5303,25.209 C177.9603,25.148 178.2293,24.85 178.2293,22.089 L178.2293,7.449 C178.2293,4.689 177.9293,4.359 175.5303,4.33 L175.5303,3.55 L191.9993,3.55 L192.5393,9.939 L191.4893,9.97 C190.8593,5.8 189.2693,4.42 185.0393,4.42 L182.0993,4.42 L182.0993,13.84 L184.2593,13.84 C187.4993,13.84 188.2793,13.209 188.6093,10.39 L189.5693,10.39 L189.5693,18.219 L188.6093,18.219 C188.2493,15.309 187.4993,14.709 184.2593,14.709 L182.0993,14.709 L182.0993,25.119 L185.3993,25.119 C189.4493,25.119 191.1293,23.559 191.9993,18.879 L192.9893,18.999 L192.3593,25.988 L175.5303,25.988 L175.5303,25.209 Z" id="Fill-14" fill="#B62805"></path>
                <path d="M204.748,26.1093 L202.288,26.1093 L197.818,8.1993 C197.368,6.4593 196.978,5.5293 196.469,4.9903 C196.108,4.5993 195.658,4.4203 194.698,4.2993 L194.698,3.5493 L203.969,3.5493 L203.969,4.2993 C202.738,4.3893 202.349,4.4803 201.988,4.7793 C201.628,5.0193 201.448,5.4693 201.448,6.0093 C201.448,6.5803 201.568,7.3593 201.868,8.5293 L204.988,21.4893 L210.058,3.9693 L212.758,3.9693 L217.378,21.3983 L220.588,9.0993 C220.857,8.1093 221.008,7.0893 221.008,6.4003 C221.008,5.4693 220.558,4.8393 219.657,4.5393 C219.268,4.4203 218.817,4.3593 218.067,4.2993 L218.067,3.5493 L225.657,3.5493 L225.657,4.2993 C223.558,4.5993 222.777,5.5893 221.758,9.3993 L217.227,26.1093 L214.857,26.1093 L210.028,8.2893 L204.748,26.1093 Z" id="Fill-16" fill="#B62805"></path>
                <g id="Group-20" transform="translate(227.000000, 2.298800)">
                    <mask id="mask-4" fill="white">
                        <use xlink:href="#path-3"></use>
                    </mask>
                    <g id="Clip-19"></g>
                    <path d="M0.7891,16.6406 L1.9881,16.6406 C2.4081,21.1406 4.2081,23.2696 7.5681,23.2696 C10.2081,23.2696 11.7981,21.7096 11.7981,19.1306 C11.7981,17.0896 10.6281,15.8606 6.8781,14.0306 C4.3281,12.8006 3.6391,12.4106 2.9481,11.9006 C1.2381,10.6406 0.4881,9.2016 0.4881,7.1306 C0.4881,4.6706 1.8391,2.5406 4.0281,1.5216 C5.0491,1.0406 6.2481,0.8306 7.8681,0.8306 C8.8581,0.8306 9.2781,0.8906 11.5281,1.3406 C11.9481,1.4316 12.2781,1.4606 12.5781,1.4606 C13.0591,1.4606 13.4781,1.3706 14.3781,1.0406 L14.1381,7.7606 L12.9381,7.7606 C12.8181,6.0506 12.5481,5.0316 11.9181,4.0106 C11.0181,2.4806 9.5481,1.6406 7.7781,1.6406 C5.4691,1.6406 3.8791,3.2306 3.8791,5.5406 C3.8791,6.5316 4.2081,7.4006 4.8681,8.0606 C5.6181,8.7816 6.3681,9.2306 8.7681,10.3706 C11.4381,11.6006 12.7281,12.4106 13.7481,13.4306 C14.7681,14.4806 15.3081,15.8606 15.3081,17.5996 C15.3081,19.6406 14.5581,21.3806 13.2081,22.4296 C11.7981,23.5396 9.9081,24.1406 7.7191,24.1406 C6.5181,24.1406 5.7991,24.0506 3.6691,23.6296 C3.3091,23.5706 2.9191,23.5396 2.5281,23.5396 C2.0181,23.5396 1.6291,23.5996 0.5491,23.8106 L0.7891,16.6406 Z" id="Fill-18" fill="#B62805" mask="url(#mask-4)"></path>
                </g>
            </g>
        </g>
    </g>
</svg>